<?xml version="1.0" encoding="utf-8"?>
<!-- Generator: Adobe Illustrator 24.0.0, SVG Export Plug-In . SVG Version: 6.00 Build 0)  -->
<svg version="1.1" id="icon-shaw" xmlns="http://www.w3.org/2000/svg" xmlns:xlink="http://www.w3.org/1999/xlink" x="0px" y="0px"
	 viewBox="0 0 160 160" style="enable-background:new 0 0 160 160;" xml:space="preserve">
<path d="M125.7929688,160c-9.1386719,0-17.7314453-3.5585938-24.1943359-10.0205078l-21.5927734-21.59375l-21.3115234,21.3115234
	C52.1567383,156.2353516,43.2495117,159.9902344,34.2568359,160c-0.012207,0-0.0263672,0-0.0385742,0
	c-9.1411133,0-17.7324219-3.5576172-24.1967773-10.0205078C3.5488281,143.5058594-0.0097656,134.8994141,0,125.7441406
	C0.0097656,116.75,3.7651367,107.8427734,10.3027344,101.3056641l5.8129883-5.8125
	c2.3857422-2.3867188,5.5581055-3.7011719,8.9331055-3.7011719c3.3745117,0,6.546875,1.3144531,8.9331055,3.7011719
	c4.9248047,4.9248047,4.9248047,12.9394531,0,17.8652344l-5.9091797,5.9082031
	c-1.7695313,1.7705078-2.7919922,4.1269531-2.8046875,6.4638672c-0.0151367,2.7626953,1.2265625,5.3447266,3.40625,7.0849609
	c1.3427734,1.0722656,3.0322266,1.7421875,4.7573242,1.8867188c2.6948242,0.2255859,5.2202148-0.6933594,7.1152344-2.5888672
	l21.5932617-21.59375L10.0209961,58.4013672C3.559082,51.9389648,0,43.3466797,0,34.2070313
	c0-9.1416016,3.559082-17.7353516,10.0209961-24.1977539C16.4731445,3.5561523,25.0664063,0.0009766,34.215332,0.0009766
	c0.0014648,0,0.0009766,0,0.0019531,0c9.1494141,0.0004883,17.7421875,3.5551758,24.1958008,10.0083008l21.5927734,21.5927734
	l21.5927734-21.5927734C108.0517578,3.5551758,116.6445313,0,125.7939453,0s17.7431641,3.5551758,24.1962891,10.0092773l0,0
	c0.0009766,0.0004883,0.0009766,0.0004883,0.0009766,0.0004883C156.4453125,16.4628906,160,25.0561523,160,34.2050781
	c0,9.1503906-3.5546875,17.7431641-10.0097656,24.1962891l-6.0693359,6.0712891
	c-2.3857422,2.3867188-5.5585938,3.7011719-8.9335938,3.7016602c-3.3759766,0-6.5488281-1.3144531-8.9355469-3.7011719
	c-2.3857422-2.3862305-3.7001953-5.559082-3.7001953-8.934082c0.0009766-3.375,1.3154297-6.5478516,3.7021484-8.934082
	L132.125,40.5351563c1.7148438-1.7148438,2.6435547-4.0014648,2.6142578-6.4389648
	c-0.0292969-2.4345703-1.0136719-4.6987305-2.7724609-6.3745117c-3.4853516-3.3237305-9.171875-3.1772461-12.6748047,0.3261719
	L97.8720703,49.4682617l52.1181641,52.1186523v-0.0009766C156.4453125,108.0400391,160,116.6328125,160,125.7832031
	c0,9.1494141-3.5546875,17.7421875-10.0097656,24.1962891C143.5273438,156.4414063,134.9335938,160,125.7929688,160z
	 M25.0488281,99.7919922c-1.2373047,0-2.4008789,0.4824219-3.2758789,1.3574219l-5.8134766,5.8134766
	C10.9082031,112.0136719,8.0073242,118.8613281,8,125.7519531c-0.0078125,7.015625,2.7192383,13.6103516,7.6782227,18.5703125
	C20.6308594,149.2734375,27.2143555,152,34.21875,152c0.0097656,0,0.0195313,0,0.0292969,0
	c6.8901367-0.0078125,13.7382813-2.9082031,18.7890625-7.9589844l51.8369141-51.8378906l-6.5517578-6.5517578
	l-52.1181641,52.1181641c-3.5366211,3.5371094-8.4360352,5.3242188-13.4399414,4.9052734
	c-3.3359375-0.2792969-6.4765625-1.5273438-9.0820313-3.6074219c-4.1044922-3.2773438-6.4423828-8.1542969-6.4140625-13.3798828
	c0.0244141-4.4921875,1.8525391-8.78125,5.1479492-12.0771484l5.9091797-5.9082031
	c1.8056641-1.8066406,1.8056641-4.7460938-0.0004883-6.5527344C27.449707,100.2744141,26.2861328,99.7919922,25.0488281,99.7919922z
	 M85.6630859,122.7285156l21.5917969,21.59375C112.2070313,149.2734375,118.7910156,152,125.7929688,152
	c7.0039063,0,13.5888672-2.7265625,18.5410156-7.6787109C149.2773438,139.3789063,152,132.7949219,152,125.7832031
	c0-7.0126953-2.7226563-13.5966797-7.6660156-18.5390625v-0.0009766L92.2148438,55.125l-6.5517578,6.5522461l52.1181641,52.1186523
	c6.6103516,6.609375,6.6103516,17.3642578,0,23.9736328c-3.2021484,3.2021484-7.4589844,4.9658203-11.9882813,4.9658203
	c-4.5273438,0-8.7832031-1.7636719-11.9853516-4.9658203l-21.5927734-21.5927734L85.6630859,122.7285156z M97.8720703,110.5195313
	l21.5917969,21.59375c1.6914063,1.6904297,3.9394531,2.6220703,6.3291016,2.6220703
	c2.3916016,0,4.640625-0.9316406,6.3320313-2.6220703c3.4902344-3.4912109,3.4902344-9.1699219,0-12.6611328L110.53125,97.859375
	L97.8720703,110.5195313z M34.2167969,8.0009766c-7.0126953,0-13.5966797,2.722168-18.5385742,7.6650391
	C10.7265625,20.6176758,8,27.2021484,8,34.2070313c0,7.0029297,2.7265625,13.5859375,7.6782227,18.5371094l52.1186523,52.1181641
	l6.5522461-6.5517578L61.6889648,85.6503906v0.0009766L22.2299805,46.1923828
	c-3.2021484-3.203125-4.965332-7.4594727-4.965332-11.9853516c0-4.5239258,1.7626953-8.7807617,4.9633789-11.9863281
	c3.2060547-3.2011719,7.4628906-4.9614258,11.9907227-4.9614258c4.5263672,0,8.7822266,1.7607422,11.9833984,4.9570313
	L67.796875,43.8115234l6.5522461-6.5522461L52.7558594,15.6665039C47.8134766,10.7236328,41.2294922,8.0014648,34.2167969,8.0009766
	z M67.3461914,79.9941406l12.659668,12.6591797l12.6601563-12.659668l-12.6601563-12.659668L67.3461914,79.9941406z
	 M55.1367188,67.7851563l6.5522461,6.5517578l51.9467773-51.9462891c6.5478516-6.5488281,17.2490234-6.753418,23.8505859-0.4599609
	c3.3310547,3.175293,5.1972656,7.4614258,5.2519531,12.0698242c0.0556641,4.6098633-1.7050781,8.9399414-4.9570313,12.1918945
	l-6.0712891,6.0698242c-0.8759766,0.8754883-1.3583984,2.0395508-1.3583984,3.2773438s0.4824219,2.4018555,1.3574219,3.2768555
	c0.8759766,0.8759766,2.0400391,1.3579102,3.2773438,1.3579102c1.2382813,0,2.4013672-0.4824219,3.2763672-1.3574219
	l6.0703125-6.0722656C149.2773438,47.8017578,152,41.2177734,152,34.2050781c0-7.012207-2.7226563-13.5961914-7.6660156-18.5385742
	l-0.0009766-0.0004883C139.390625,10.7226563,132.8066406,8,125.7939453,8c-7.0117188,0-13.5957031,2.7226563-18.5380859,7.6660156
	l-21.59375,21.5932617h0.0009766L55.1367188,67.7851563z M34.21875,25.2592773
	c-2.3935547,0-4.6430664,0.9296875-6.3339844,2.6181641c-1.6879883,1.690918-2.6201172,3.9404297-2.6201172,6.3295898
	c0,2.3896484,0.9311523,4.637207,2.6225586,6.3286133L49.4799805,62.128418l12.6601563-12.6601563L40.546875,27.8754883
	C38.8583984,26.1889648,36.6103516,25.2592773,34.21875,25.2592773z"/>
</svg>
