<?xml version="1.0" encoding="utf-8"?>
<!-- Generator: Adobe Illustrator 23.0.0, SVG Export Plug-In . SVG Version: 6.00 Build 0)  -->
<svg version="1.1" id="icon-book" xmlns="http://www.w3.org/2000/svg" xmlns:xlink="http://www.w3.org/1999/xlink" x="0px" y="0px"
	 viewBox="0 0 160 160" enable-background="new 0 0 160 160" xml:space="preserve">
<path d="M149.5605469,160H35.4101563C15.8847656,160,0,145.9814453,0,128.75v-97.5C0,14.0185547,15.8847656,0,35.4101563,0
	h114.1503906c5.7080078,0,10.3525391,4.1777344,10.3525391,9.3125v102.375c0,0.4042969,0.0185547,0.8271484,0.0371094,1.2548828
	c0.0908203,2.0908203,0.203125,4.6923828-1.5908203,6.5664063c-1.1875,1.2402344-2.9326172,1.8710938-5.3271484,1.9238281
	c-0.1640625,0.0439453-0.3369141,0.0673828-0.515625,0.0673828h-0.65625
	c-4.109375,0.5712891-5.2128906,4.8144531-5.1962891,7.3789063c0.0224609,3.6376953,1.984375,7.5498047,6.234375,7.6210938
	h0.1191406c0.0234375,0,0.0458984,0,0.0693359,0.0009766c2.2919922,0.0136719,4.0576172,0.6582031,5.2490234,1.9169922
	c1.8623047,1.9667969,1.7119141,4.7099609,1.6123047,6.5263672c-0.0175781,0.3183594-0.0351563,0.6123047-0.0351563,0.8681641v4.875
	C159.9130859,155.8222656,155.2685547,160,149.5605469,160z M35.4101563,4C18.090332,4,4,16.2241211,4,31.25v97.5
	C4,143.7753906,18.090332,156,35.4101563,156h114.1503906c3.5029297,0,6.3525391-2.3828125,6.3525391-5.3125v-4.875
	c0-0.3203125,0.0185547-0.6884766,0.0410156-1.0878906c0.0654297-1.1982422,0.15625-2.8408203-0.5224609-3.5576172
	c-0.5527344-0.5849609-1.6953125-0.6484375-2.5664063-0.6669922H35.4101563c-7.2436523,0-13.1367188-5.1591797-13.1367188-11.5
	s5.8930664-11.5,13.1367188-11.5h116.2080078c0.3417969-0.0371094,0.6933594-0.0585938,1.0546875-0.0634766h0.0253906
	c1.3779297,0,2.3369141-0.2402344,2.7724609-0.6943359c0.6123047-0.640625,0.546875-2.1582031,0.4833984-3.6269531
	c-0.0205078-0.4873047-0.0410156-0.9677734-0.0410156-1.4277344V9.3125c0-2.9291992-2.8496094-5.3125-6.3525391-5.3125H35.4101563z
	 M35.4101563,121.5c-5.0380859,0-9.1367188,3.3642578-9.1367188,7.5s4.0986328,7.5,9.1367188,7.5h109.6347656
	c-1.5576172-2.1318359-2.3642578-4.8720703-2.3808594-7.5957031c-0.0166016-2.6416016,0.7275391-5.3076172,2.2041016-7.4042969
	H35.4101563z M124.5029297,69H46.8320313c-1.1044922,0-2-0.8955078-2-2s0.8955078-2,2-2h77.6708984c1.1044922,0,2,0.8955078,2,2
	S125.6074219,69,124.5029297,69z M124.5029297,47H46.8320313c-1.1044922,0-2-0.8955078-2-2s0.8955078-2,2-2h77.6708984
	c1.1044922,0,2,0.8955078,2,2S125.6074219,47,124.5029297,47z"/>
</svg>
