<?xml version="1.0" encoding="utf-8"?>
<!-- Generator: Adobe Illustrator 23.0.0, SVG Export Plug-In . SVG Version: 6.00 Build 0)  -->
<svg version="1.1" id="icon-box" xmlns="http://www.w3.org/2000/svg" xmlns:xlink="http://www.w3.org/1999/xlink" x="0px" y="0px"
	 viewBox="0 0 160 160" enable-background="new 0 0 160 160" xml:space="preserve">
<path d="M112.8310547,160c-0.0351563,0-0.0703125-0.0009766-0.1064453-0.0029297
	C112.6904297,159.9990234,112.65625,160,112.6220703,160H14.7094727c-1.1044922,0-2-0.8955078-2-2V79.8383789l-9.9487305,4.0913086
	c-0.75,0.3085938-1.6137695,0.1337891-2.1835938-0.4443359c-0.5703125-0.5771484-0.7353516-1.4414063-0.4174805-2.1884766
	l12.6914063-29.8388672c0.0424805-0.1064453,0.09375-0.2084961,0.1533203-0.3046875
	c0.0068359-0.0117188,0.0136719-0.0224609,0.0209961-0.0336914c0.1030273-0.3354492,0.2954102-0.6479492,0.5756836-0.8989258
	l33.8632813-30.3691406c0.3671875-0.3291016,0.8427734-0.5112305,1.3354492-0.5112305h12.8979492l8.1621094-9.4609375
	c0.394043-0.4570313,0.9633789-0.7094727,1.5771484-0.6923828c0.6035156,0.019043,1.1660156,0.3095703,1.5307617,0.7905273
	l4.3579102,5.7470703L92.5371094,0.5825195C92.9404297,0.1811523,93.4951172-0.0332031,94.0625,0.003418
	c0.5673828,0.0322266,1.0947266,0.3046875,1.4492188,0.7495117l14.8164063,18.5742188H139
	c0.8408203,0,1.5605469,0.519043,1.8564453,1.2543945l18.9335938,38.0205078
	c0.3564453,0.715332,0.2529297,1.5737305-0.2636719,2.1835938L140.9550781,82.734375
	C140.984375,82.8701172,141,83.0117188,141,83.15625v35.4521484c0,0.3935547-0.1162109,0.7783203-0.3339844,1.1064453
	l-26.1669922,39.3916016C114.1142578,159.6865234,113.4785156,160,112.8310547,160z M16.7094727,156h93.9125977V54.1987305
	H16.7094727V156z M114.6220703,60.453125v91.2392578L137,118.0048828V87.4082031l-3.3515625,3.9609375
	c-0.4306641,0.5097656-1.0849609,0.7705078-1.7529297,0.6953125c-0.6640625-0.0761719-1.2460938-0.4775391-1.5517578-1.0722656
	L114.6220703,60.453125z M115.0146484,52.4775391l17.5146484,34.0214844l23.09375-27.2924805l-17.0664063-34.2695313
	L115.0146484,52.4775391z M12.7094727,62.0107422L5.7490234,78.3759766l6.9604492-2.8623047V62.0107422z M103.4677734,50.1987305
	h8.2324219l9.4072266-11.0048828c-0.0986328-0.0834961-0.1914063-0.1782227-0.2753906-0.2836914L93.7773438,4.9926758
	L79.9428711,18.7636719c-0.0600586,0.0595703-0.1225586,0.1142578-0.1875,0.1650391L103.4677734,50.1987305z M40.3579102,50.1987305
	h58.0893555L71.2739258,14.3637695l-7.1254883,8.2592773c-0.0131836,0.015625-0.0263672,0.0307617-0.0395508,0.0458984
	L40.3579102,50.1987305z M19.6166992,50.1987305H35.074707L58.246582,23.340332h-8.6811523L19.6166992,50.1987305z
	 M113.5185547,23.3271484l10.2099609,12.800293l10.9423828-12.800293H113.5185547z M78,80.4013672H48
	c-2.7568359,0-5-2.4970703-5-5.5664063s2.2431641-5.5664063,5-5.5664063h30c2.7568359,0,5,2.4970703,5,5.5664063
	S80.7568359,80.4013672,78,80.4013672z M48,73.2685547c-0.472168,0-1,0.6699219-1,1.5664063s0.527832,1.5664063,1,1.5664063h30
	c0.472168,0,1-0.6699219,1-1.5664063s-0.527832-1.5664063-1-1.5664063H48z"/>
</svg>
