<?xml version="1.0" encoding="utf-8"?>
<!-- Generator: Adobe Illustrator 23.0.0, SVG Export Plug-In . SVG Version: 6.00 Build 0)  -->
<svg version="1.1" id="icon-envelope" xmlns="http://www.w3.org/2000/svg" xmlns:xlink="http://www.w3.org/1999/xlink" x="0px"
	 y="0px" viewBox="0 0 160 160" style="enable-background:new 0 0 160 160;" xml:space="preserve">
<path d="M142.4003906,160H17.6000977C7.8955078,160,0,150.3554688,0,138.5V36.5097656c0-0.0073242,0-0.0141602,0-0.0214844V21.5
	C0,9.6450195,7.8955078,0,17.6000977,0h124.800293C152.1044922,0,160,9.6450195,160,21.5v14.9882813
	c0,0.0073242,0,0.0141602,0,0.0214844V138.5C160,150.3554688,152.1044922,160,142.4003906,160z M4,40.9077148V138.5
	c0,9.6494141,6.1010742,17.5,13.6000977,17.5h124.800293C149.8994141,156,156,148.1494141,156,138.5V40.9077148
	l-74.6826172,65.347168c-0.7548828,0.6601563-1.8803711,0.6601563-2.6342773,0L4,40.9077148z M4,35.5922852l76,66.5004883
	l76-66.5004883V21.5c0-9.6494141-6.1005859-17.5-13.5996094-17.5H17.6000977C10.1010742,4,4,11.8505859,4,21.5V35.5922852z"/>
</svg>
