<?xml version="1.0" encoding="utf-8"?>
<!-- Generator: Adobe Illustrator 23.0.0, SVG Export Plug-In . SVG Version: 6.00 Build 0)  -->
<svg version="1.1" id="icon-home" xmlns="http://www.w3.org/2000/svg" xmlns:xlink="http://www.w3.org/1999/xlink" x="0px" y="0px"
	 viewBox="0 0 160 160" style="enable-background:new 0 0 160 160;" xml:space="preserve">
<path d="M127.6638107,160l-23.6634369-0.0087891c-4.4201736-0.015625-8.0004501-4.0722656-7.9867783-9.0439453V109.015625
	C96.0135956,106.25,94.2166214,104,92.0075073,104H67.9817505c-2.2091141,0-4.0065765,2.25-4.0065765,5.015625v41.96875
	c0,4.9453125-3.5729523,8.9892578-7.9648018,9.015625H32.3322868c-3.4923859,0-6.3333645-3.3964844-6.3333645-7.5722656V86.109375
	L15.3992062,97.3134766c-1.0357027,0.9472656-2.3507185,1.4160156-3.6667099,1.2861328
	c-1.4995956-0.1416016-2.8736963-1.0263672-3.769743-2.4277344L0.9926355,85.2744141
	c-1.5611228-2.5380859-1.2520235-6.1289063,0.7261149-8.2314453L70.2753296,4.4404297
	c2.7032776-2.8603516,6.153183-4.4355469,9.7149048-4.4355469s7.0111389,1.5751953,9.7144089,4.4350586l20.7921829,21.9980469
	V6.1791992C110.4968262,2.7719727,112.8524323,0,115.7471237,0h15.1668625c2.8946991,0,5.2493286,2.7719727,5.2493286,6.1791992
	v47.4418945l22.1652985,23.4941406c1.9581146,2.1328125,2.2354736,5.7470703,0.6221008,8.2714844l-7.0423737,10.9980469
	c-0.897522,1.2832031-2.213028,2.0869141-3.6398621,2.21875c-1.4483185,0.1367188-2.8800354-0.4404297-3.943573-1.5703125
	l-10.3277283-10.9384766v66.3330078C133.9971771,156.6035156,131.156189,160,127.6638107,160z M67.9817505,100h24.0257568
	c4.4143143,0,8.0063095,4.0439453,8.0063095,9.015625v41.9375c-0.0078125,2.7724609,1.7842789,5.0302734,3.9943695,5.0380859
	L127.6647873,156c1.2422562,0,2.3321609-1.6689453,2.3321609-3.5722656V81.8583984l-49.3758163-52.293457
	c-0.1298904-0.1342773-0.3569565-0.3125-0.6172256-0.3125c-0.0004883,0-0.0004883,0-0.0004883,0
	c-0.2607574,0-0.4883118,0.1787109-0.6328506,0.3286133L29.9991474,81.8720703v70.5556641
	c0,1.9033203,1.0903931,3.5722656,2.3331394,3.5722656h23.6663666c2.1871338-0.0126953,3.9762955-2.2626953,3.9762955-5.015625
	v-41.96875C59.9749489,104.0439453,63.5669479,100,67.9817505,100z M80.003418,25.2524414c0.0004883,0,0.0004883,0,0.0004883,0
	c1.2989044,0,2.5460434,0.5507813,3.5109406,1.5507813l63.721344,67.4868164
	c0.1562653,0.1669922,0.4033508,0.3466797,0.6660614,0.3300781c0.2636871-0.0244141,0.545929-0.2412109,0.7725067-0.5947266
	l6.9056549-10.7939453c0.6387024-1,0.5361633-2.6342773-0.2158356-3.4291992l-23.2014923-24.5922852V6.1791992
	C132.1630859,4.9521484,131.4911652,4,130.9139862,4h-15.1668625c-0.5781555,0-1.2500687,0.9521484-1.2500687,2.1791992v30.3144531
	L86.7972565,7.1875c-1.9395599-2.0522461-4.357666-3.1826172-6.8070221-3.1826172
	c-2.4503326,0-4.8674622,1.1303711-6.8070221,3.1821289L4.6295586,79.7866211
	c-0.7485774,0.7954102-0.8481922,2.4311523-0.2065549,3.4282227l6.9095674,10.8017578
	c0.228529,0.3574219,0.5107708,0.5761719,0.7759228,0.6005859c0.2631989,0.0283203,0.5073528-0.1621094,0.6601934-0.3232422
	l0.244154-0.2568359l63.4645004-67.2182617C77.4578629,25.8027344,78.7050018,25.2524414,80.003418,25.2524414z"/>
</svg>
