<?xml version="1.0" encoding="utf-8"?>
<!-- Generator: Adobe Illustrator 23.0.0, SVG Export Plug-In . SVG Version: 6.00 Build 0)  -->
<svg version="1.1" id="icon-163music" xmlns="http://www.w3.org/2000/svg" xmlns:xlink="http://www.w3.org/1999/xlink" x="0px"
	 y="0px" viewBox="0 0 160 160" style="enable-background:new 0 0 160 160;" xml:space="preserve">
<path d="M83.1197281,159.9868317c-17.4995117,0-34.5092735-6.3564453-49.0581017-18.5449219
	C13.9859428,125.3823395,4.2901416,97.7124176,9.3951225,70.9790192
	c5.3041992-27.7768555,25.6679688-49.0161133,55.8706017-58.2714844c1.0556641-0.3261719,2.1748047,0.2700195,2.4980469,1.3261719
	c0.3237305,1.0561523-0.2700195,2.1743164-1.3261719,2.4980469C37.69981,25.3388844,18.3409233,45.4575348,13.3238335,71.7290192
	c-4.8300781,25.2949219,4.3046875,51.4443359,23.2719727,66.6181641
	c17.7641602,14.8837891,39.3159142,20.6132813,60.7211876,16.1669922
	c19.0205078-3.9521484,35.5009842-15.7363281,43.0087967-30.7519531
	c10.1933594-18.859375,10.1435547-39.5253906-0.1044922-55.3364258
	c-8.9775391-13.8520508-24.6113358-21.7172852-42.3193436-21.4663086l9.0966797,32.4897461
	c3.6386719,15.7563477-5.8251953,26.3286133-16.8085938,29.8569336
	c-10.8916016,3.4951172-25.4355469,0.4863281-31.6318321-14.3857422
	c-4.7456055-11.0722656-4.2949219-22.4467773,1.2768555-32.0078125c6.1581993-10.5683594,18.098629-17.6772461,32.8852501-19.625
	l-4.8261719-17.2338848c-2.875-10.0605469,0.8740234-19.0922852,9.7861328-23.5600586
	c10.03125-5.0297852,25.6962891-2.8979492,36.2197342,10.9140625c0.6699219,0.878418,0.5,2.1333008-0.3789063,2.8027344
	c-0.8798828,0.6708984-2.1337891,0.4995117-2.8027344-0.3789063c-9.2031326-12.0786133-22.6855545-14.0537109-31.2451248-9.762207
	C92.2818375,9.6743336,89.392189,16.7382984,91.742775,24.9653492l5.046875,18.0219707
	c19.5849609-0.5947266,36.8779373,7.9726563,46.7880936,23.2631836
	c11.0556641,17.0576172,11.1669922,39.2470703,0.296875,59.3574219
	c-8.0136719,16.0283203-25.552742,28.6269531-45.7441483,32.8222656
	C93.1187515,159.4721832,88.0982437,159.9868317,83.1197281,159.9868317z M93.8101578,47.1792145
	c-13.7749023,1.6591797-24.9042969,8.1118164-30.5190392,17.7470703
	c-4.9179688,8.4399414-5.2905273,18.5390625-1.0483398,28.4365234
	c5.2333946,12.5605469,17.5180626,15.0927734,26.7246056,12.1347656c9.2402344-2.9677734,17.2011719-11.8671875,14.15625-25.0595703
	L93.8101578,47.1792145z"/>
</svg>
