<?xml version="1.0" encoding="utf-8"?>
<!-- Generator: Adobe Illustrator 23.0.0, SVG Export Plug-In . SVG Version: 6.00 Build 0)  -->
<svg version="1.1" id="icon-163study" xmlns="http://www.w3.org/2000/svg" xmlns:xlink="http://www.w3.org/1999/xlink" x="0px"
	 y="0px" viewBox="0 0 160 160" style="enable-background:new 0 0 160 160;" xml:space="preserve">
<path d="M60.4995117,160.0005035c-0.2495117,0-0.5009766-0.046875-0.7416992-0.1425781
	C58.9980469,159.5542145,58.5,158.8188629,58.5,158.0005035v-13.1123047H17.9477539c-0.03125,0-0.0625,0-0.09375,0h-4.6416016
	c-0.6269531,0-1.2172852-0.2939453-1.5952148-0.7939453l-7.5561523-9.9941406
	c-0.2626953-0.3476563-0.4047852-0.7705078-0.4047852-1.2060547V23.6943569c0-0.9780273,0.7070313-1.8125,1.671875-1.9726563
	l130.40625-21.6938477c0.5791016-0.0996094,1.171875,0.0664063,1.6210938,0.4467773
	c0.4482422,0.3798828,0.7070313,0.9379882,0.7070313,1.5258789v24.0810547h16.28125c1.1044922,0,2,0.8955078,2,2v115.0497971
	c0,1.1044922-0.8955078,2-2,2H75.4956055l-13.5463867,14.2470703
	C61.5644531,159.7837067,61.0371094,160.0005035,60.4995117,160.0005035z M62.5,142.8881989v10.1064453l10.6806641-11.2333984
	l22.171875-23.8779221c0.2890625-0.3105469,0.6699219-0.5224609,1.0878906-0.6025391L134.0625,110.036644V4.3608608
	L7.65625,25.3891811v106.8339767l6.5512695,8.6650391h0.8442383l-3.9638672-10.9707031
	c-0.203125-0.5625-0.144043-1.1865234,0.1611328-1.7001953c0.3051758-0.5146408,0.824707-0.8652267,1.4155273-0.9560471
	l47.53125-7.3125c0.5776367-0.0878906,1.1635742,0.078125,1.6064453,0.4589844
	C62.2451172,120.7876205,62.5,121.3413315,62.5,121.9253159V142.8881989z M79.2241211,141.1313629H152.34375V30.0815639H138.0625
	v81.6064453c0,0.9589844-0.6806641,1.7822266-1.6220703,1.9638672l-38.6015625,7.4326172L79.2241211,141.1313629z
	 M19.3046875,140.8881989H58.5v-16.6318283l-42.8242188,6.5888596L19.3046875,140.8881989z"/>
</svg>
