<?xml version="1.0" encoding="utf-8"?>
<!-- Generator: Adobe Illustrator 23.0.0, SVG Export Plug-In . SVG Version: 6.00 Build 0)  -->
<svg version="1.1" id="icon-admin" xmlns="http://www.w3.org/2000/svg" xmlns:xlink="http://www.w3.org/1999/xlink" x="0px" y="0px"
	 viewBox="0 0 160 160" style="enable-background:new 0 0 160 160;" xml:space="preserve">
<path d="M99.6757813,148.5126953c-0.0732422,0-0.1464844-0.0009766-0.2207031-0.0029297l-85.7539063,0.0009766
	C6.1464844,148.5107422,0,142.3642578,0,134.8095703v-10.1416016c0-18.4140625,14.9790039-32.3007813,34.8422852-32.3007813
	h4.5405273l0.6743164,0.3085938c5.1831055,2.3710938,10.5429688,4.8232422,16.3374023,4.8232422
	c6.0854492,0,12.6235352-2.6445313,17.6391602-4.9492188l0.3974609-0.1826172h4.5424805
	c2.4921875,0,5.5224609,0.2128906,7.890625,1.0390625c1.7548828-4.46875,4.3564453-8.6240234,7.6191406-12.1474609
	c1.1923828-1.2958984,3.1582031-1.597168,4.6728516-0.7089844l5.0849609,2.9375
	c2.1962891-1.7050781,4.6044922-3.0947266,7.1884766-4.1484375v-5.8876953c0-1.7705078,1.2509766-3.3212891,2.9746094-3.6875
	c5.5136719-1.2480469,11.3984375-1.2490234,16.9902344,0.0048828c1.7011719,0.3613281,2.9521484,1.9121094,2.9521484,3.6826172
	v5.8876953c2.5839844,1.0537109,4.9921875,2.4433594,7.1884766,4.1484375l5.0966797-2.9438477
	c1.5566406-0.8803711,3.4707031-0.5800781,4.6650391,0.7192383c3.8886719,4.1992188,6.8408203,9.3027344,8.5322266,14.7539063
	c0.5234375,1.7265625-0.1884766,3.5332031-1.7294922,4.4052734l-5.0820313,2.9355469
	c0.3789063,2.7587891,0.3789063,5.5390625,0,8.2988281l5.0966797,2.9423828
	c1.5292969,0.8974609,2.2304688,2.6982422,1.71875,4.3857422c-1.6953125,5.4638672-4.6474609,10.5673828-8.5400391,14.7714844
	c-1.1923828,1.2949219-3.1582031,1.5927734-4.671875,0.7070313l-5.0859375-2.9365234
	c-2.1972656,1.7050781-4.6054688,3.0947266-7.1884766,4.1484375V141.5625c0,1.7705078-1.2509766,3.3212891-2.9746094,3.6865234
	c-5.5136719,1.25-11.3984375,1.2490234-16.9902344-0.0048828c-1.7011719-0.3603516-2.9521484-1.9111328-2.9521484-3.6816406
	v-4.2050781C109.5585938,141.7070313,105.671875,148.5126953,99.6757813,148.5126953z M34.8422852,96.3671875
	C16.9711914,96.3671875,4,108.2695313,4,124.6679688v10.1416016c0,5.3496094,4.3520508,9.7011719,9.7011719,9.7011719h85.8095703
	c0.0332031,0.0009766,0.0673828,0.0009766,0.1015625,0.0009766c4.0224609,0,7.3447266-6.5615234,8.7617188-10.2841797
	c-1.4472656-0.7861328-2.8271484-1.6884766-4.1328125-2.7011719l-5.0957031,2.9433594
	c-1.5585938,0.8808594-3.4707031,0.5810547-4.6660156-0.71875c-3.9033203-4.2421875-6.8535156-9.34375-8.5322266-14.7548828
	c-0.5214844-1.7265625,0.1904297-3.5322266,1.7275391-4.4042969l5.0839844-2.9355469
	c-0.3789063-2.7597656-0.3789063-5.5400391,0-8.2988281l-5.0966797-2.9443359
	c-1.1572266-0.6767578-1.8408203-1.8740234-1.8818359-3.1484375c-1.2998047-0.4931641-3.6240234-0.8974609-6.8066406-0.8974609
	h-3.6694336c-5.3325195,2.4296875-12.2167969,5.1318359-18.909668,5.1318359
	c-6.6186523,0-12.3466797-2.5996094-17.8828125-5.1318359H34.8422852z M115.4296875,141.3798828
	c4.9228516,1.0722656,10.0644531,1.0712891,14.9169922,0v-8.4941406l1.3300781-0.4726563
	c3.078125-1.09375,5.8925781-2.71875,8.3671875-4.8291016l1.0742188-0.9169922l7.3544922,4.2460938
	c3.3964844-3.7060547,5.9794922-8.171875,7.4853516-12.9404297l-7.3554688-4.2480469l0.2558594-1.3876953
	c0.5908203-3.2060547,0.5908203-6.4550781,0-9.6601563l-0.2558594-1.3876953l7.3554688-4.2490234
	c-1.5029297-4.7626953-4.0888672-9.2353516-7.4863281-12.9404297l-7.3535156,4.2470703l-1.0742188-0.9169922
	c-2.4726563-2.1103516-5.2880859-3.734375-8.3671875-4.8291016l-1.3300781-0.4726563v-8.4946289
	c-4.9208984-1.0727539-10.0644531-1.0727539-14.9169922,0v8.4946289l-1.3300781,0.4726563
	c-3.0791016,1.0947266-5.8945313,2.71875-8.3671875,4.8291016l-1.0742188,0.9169922l-7.3535156-4.2470703
	c-3.3974609,3.7070313-5.9804688,8.1738281-7.4863281,12.9404297l7.3554688,4.2490234l-0.2558594,1.3876953
	c-0.5908203,3.2050781-0.5908203,6.4541016,0,9.6601563l0.2558594,1.3876953l-7.3554688,4.2480469
	c1.4902344,4.7255859,4.0771484,9.1972656,7.4863281,12.9404297l7.3535156-4.2460938l1.0742188,0.9169922
	c2.4746094,2.1103516,5.2890625,3.7353516,8.3671875,4.8291016l1.3300781,0.4726563V141.3798828z M130.515625,141.3427734
	c-0.0019531,0-0.0029297,0-0.0048828,0.0009766C130.5117188,141.3427734,130.5136719,141.3427734,130.515625,141.3427734z
	 M115.234375,141.3369141c0.0029297,0,0.0048828,0.0009766,0.0068359,0.0009766
	C115.2392578,141.3378906,115.2373047,141.3369141,115.234375,141.3369141z M148.3544922,131.0410156
	c0,0.0009766-0.0009766,0.0009766-0.0009766,0.0009766S148.3535156,131.0419922,148.3544922,131.0410156z M148.6298828,131.0039063
	l0.0019531,0.0009766C148.6308594,131.0048828,148.6308594,131.0048828,148.6298828,131.0039063z M89.6650391,118.0615234
	l-0.0029297,0.0019531C89.6630859,118.0625,89.6640625,118.0625,89.6650391,118.0615234z M156.1142578,96.9501953
	c-0.0009766,0-0.0019531,0.0009766-0.0029297,0.0009766L156.1142578,96.9501953z M97.1455078,84.0068359
	c0,0.0009766,0.0009766,0.0009766,0.0009766,0.0009766L97.1455078,84.0068359z M130.5351563,73.675293
	c0.0019531,0.0004883,0.0039063,0.0009766,0.0068359,0.0014648
	C130.5390625,73.6762695,130.5371094,73.6757813,130.5351563,73.675293z M115.265625,73.6699219
	c-0.0009766,0-0.0029297,0.0004883-0.0048828,0.0009766C115.2626953,73.6704102,115.2636719,73.6699219,115.265625,73.6699219z
	 M122.9130859,119.7695313c-6.7626953,0-12.2636719-5.5009766-12.2636719-12.2626953s5.5009766-12.2636719,12.2636719-12.2636719
	c6.7617188,0,12.2626953,5.5019531,12.2626953,12.2636719S129.6748047,119.7695313,122.9130859,119.7695313z
	 M122.9130859,99.2431641c-4.5566406,0-8.2636719,3.7070313-8.2636719,8.2636719
	c0,4.5556641,3.7070313,8.2626953,8.2636719,8.2626953c4.5556641,0,8.2626953-3.7070313,8.2626953-8.2626953
	C131.1757813,102.9501953,127.46875,99.2431641,122.9130859,99.2431641z M56.605957,77.8935547
	c-18.3085938,0-33.2036133-14.8950195-33.2036133-33.203125c0-18.3085938,14.8950195-33.2036133,33.2036133-33.2036133
	c18.3081055,0,33.2026367,14.8950195,33.2026367,33.2036133C89.8085938,62.9985352,74.9140625,77.8935547,56.605957,77.8935547z
	 M56.605957,15.4868164c-16.1030273,0-29.2036133,13.1005859-29.2036133,29.2036133
	c0,16.1025391,13.1005859,29.203125,29.2036133,29.203125c16.1025391,0,29.2026367-13.1005859,29.2026367-29.203125
	C85.8085938,28.5874023,72.7084961,15.4868164,56.605957,15.4868164z"/>
</svg>
