<?xml version="1.0" encoding="utf-8"?>
<!-- Generator: Adobe Illustrator 23.0.0, SVG Export Plug-In . SVG Version: 6.00 Build 0)  -->
<svg version="1.1" id="icon-aliww" xmlns="http://www.w3.org/2000/svg" xmlns:xlink="http://www.w3.org/1999/xlink" x="0px" y="0px"
	 viewBox="0 0 160 160" style="enable-background:new 0 0 160 160;" xml:space="preserve">
<path d="M77.4454956,158.8848114c-21.527832,0-41.6635742-7.0888672-55.9946289-19.8730469
	C8.3410025,127.3174286,0.9484242,112.0400848,0.0724477,94.8291473
	C-1.0540172,72.5713348,11.1691275,51.2720184,35.420105,33.2339325c6.0703125-4.5239258,7.8686523-10.2504883,5.4970703-17.5048828
	c-0.7407227-2.3886719-1.9746094-4.5722656-3.0634766-6.4985352c-1.6386719-2.8999023-3.0571289-5.4101563-1.3012695-7.2402344
	c1.2021484-1.3901367,3.4453125-1.4213867,11.2734375,2.1201172c4.4418945,2.0092773,9.6884766,4.7734375,13.0561523,6.8789063
	c7.1733398,4.2890625,11.5756836,5.3510752,21.2211914,7.6777353c1.5683594,0.378418,3.2666016,0.7885742,5.1289063,1.2490234
	l0.2998047,0.074707c16.9042969,4.2128906,34.3847656,8.5688477,48.2792969,19.3232422l0.0253906,0.0195313
	c16.3310547,13.0576172,24.6777344,29.8984375,24.1376953,48.7016602
	c-0.9140625,39.4365234-31.5693359,67.8339844-76.2822266,70.6513672
	C81.6002808,158.8184052,79.5153198,158.8848114,77.4454956,158.8848114z M40.3278198,5.4272909
	c0.3071289,0.5942383,0.6870117,1.2666016,1.0083008,1.8349609c1.1289063,1.9975586,2.5341797,4.4838867,3.3920898,7.253418
	c2.8808594,8.8110361,0.4916992,16.4033203-6.9189453,21.9267578C21.6788921,48.4399872,2.7330923,68.2720184,4.067565,94.6260223
	c0.8198242,16.1181641,7.7519531,30.4345703,20.0458984,41.4013672
	c14.9169941,13.3056641,36.5375977,20.1152344,59.3266602,18.6669922
	c42.5224609-2.6796875,71.671875-29.5097656,72.5361328-66.7626953c0.5029297-17.5063477-7.3203125-33.2226563-22.625-45.4643555
	c-13.2285156-10.2329102-30.2880859-14.4838867-46.7861328-18.5952148l-0.296875-0.0742188
	c-1.8505859-0.4575195-3.5410156-0.8652344-5.1035156-1.2421875c-9.7470703-2.3515625-14.6396484-3.5317383-22.3691406-8.1542978
	C53.2262573,10.920455,44.2301636,6.6152792,40.3278198,5.4272909z M92.5114136,106.1250458
	c-4.4873047,0.0009766-8.5703125-4.0429688-11.5180664-11.5302734l-0.4731445-1.2011719l7.6367188-7.8505859l5.3808594-5.3847656
	c-1.3925781-0.269043-3.4345703-0.6801758-6.4726563-1.2978516l-9.8969727-2.0610352l-0.0302734-1.5947266
	c-0.2006836-10.5908203,3.2202148-17.4262695,9.1508789-18.2861328l0.0644531-0.0083008
	c7.8496094-0.8789063,14.7177734,8.5571289,17.0800781,23.4824219c1.3652344,8.5966797-0.1552734,17.2324219-3.8740234,21.9980469
	c-1.7177734,2.203125-3.8193359,3.4726563-6.0751953,3.671875C93.1578979,106.104538,92.8327026,106.1250458,92.5114136,106.1250458
	z M85.2057495,94.3125458c2.2861328,5.2314453,5.1728516,8.1054688,7.8466797,7.7744141
	c1.4980469-0.1347656,2.6425781-1.2460938,3.3525391-2.15625c2.5146484-3.2226563,4.4414063-10.3212891,3.0771484-18.9121094
	c-0.0761719-0.4833984-0.1572266-0.9580078-0.2421875-1.4243164c-0.1064453,0.4868164-0.3964844,1.0463867-1.0625,1.5795898
	l-7.171875,7.1777344L85.2057495,94.3125458z M96.2096558,80.613327c0.0019531,0.0009766,0.0039063,0.0014648,0.0068359,0.0024414
	v-0.0019531C96.2145386,80.6138153,96.2116089,80.6138153,96.2096558,80.613327z M81.1364136,73.5400848l6.7353516,1.4023438
	c3.3798828,0.6875,8.0224609,1.6318359,8.7089844,1.6894531l0.2949219,0.0336914
	c1.0673828,0.2050781,1.6708984,0.6572266,2.0087891,1.1425781c-2.5273438-11.6982422-7.7841797-17.3730469-12.0537109-16.9262695
	C83.4039917,61.4062958,81.2750854,66.1992645,81.1364136,73.5400848z M136.8629761,98.2187958
	c-3.0410156,0-6.8447266-2.4443359-9.8554688-12.2529297l-0.3740234-1.21875l0.9472656-0.8535156
	c0.7050781-0.6357422,1.3769531-1.2558594,2.0253906-1.8544922c1.4726563-1.3574219,2.8632813-2.6396484,4.2626953-3.7597656
	c1.4228516-1.1704102,2.9638672-2.5219727,4.4794922-3.9257813c-1.5517578-0.2387695-3.40625-0.5556641-5.0107422-0.8544922
	l-0.1054688-0.0229492c-1.2490234-0.3041992-2.6699219-0.5537109-4.1738281-0.8178711
	c-0.96875-0.1699219-1.9746094-0.347168-3.0068359-0.5498047l-1.6142578-0.3173828v-1.6450195
	c0-8.3969727,2.34375-17.7797852,8.9228516-18.9326172c1.7460938-0.3305664,3.5576172,0.1298828,5.2099609,1.3349609
	c5.0302734,3.6699219,7.8496094,13.2485352,8.8105469,20.9892578c1.6347656,15.9868164-3.8886719,23.1889648-9.1132813,24.5102539
	l-0.0351563,0.0087891C137.7985229,98.1582489,137.3405151,98.2187958,136.8629761,98.2187958z M131.2174683,85.9922333
	c1.8574219,5.5048828,4.1503906,8.6083984,6.0888672,8.1728516c3.734375-0.9638672,7.1894531-7.3720703,6.1894531-19.2172852
	c-0.0732422,0.0874023-0.1542969,0.1748047-0.2431641,0.262207c-2.2421875,2.1870117-4.671875,4.3725586-6.8632813,6.1757813
	c-1.3115234,1.0488281-2.6513672,2.2851563-4.0712891,3.5947266
	C131.9586792,85.3115692,131.5924683,85.6494598,131.2174683,85.9922333z M134.1237183,69.5762177
	c3.6220703,0.6743164,6.8955078,1.1459961,7.40625,1.168457l0.4384766,0.0551758
	c0.4121094,0.1000977,0.7470703,0.2436523,1.0185547,0.4111328c-1.2871094-7.2143555-3.9394531-13.362793-6.7744141-15.4316406
	c-0.7587891-0.5527344-1.4589844-0.7583008-2.1367188-0.6303711c-3.1035156,0.5439453-5.3193359,5.9350586-5.6074219,13.3427734
	c0.4345703,0.078125,0.8613281,0.1533203,1.2822266,0.2270508
	C131.2994995,68.9907684,132.7633667,69.2480927,134.1237183,69.5762177z"/>
</svg>
