<?xml version="1.0" encoding="utf-8"?>
<!-- Generator: Adobe Illustrator 23.0.0, SVG Export Plug-In . SVG Version: 6.00 Build 0)  -->
<svg version="1.1" id="icon-android" xmlns="http://www.w3.org/2000/svg" xmlns:xlink="http://www.w3.org/1999/xlink" x="0px"
	 y="0px" viewBox="0 0 160 160" style="enable-background:new 0 0 160 160;" xml:space="preserve">
<path d="M63.050293,160c-6.3793945,0-10.3422852-4.0175781-10.3422852-10.4853516V130.4375h-6.4306641
	c-5.1665039,0-10.4306641-5.2636719-10.4306641-10.4306641l0.0766602-65.6123047h88.1538086l0.0761719,65.6103516
	c0,5.1689453-5.2636719,10.4326172-10.4306641,10.4326172h-6.4306641v19.0771484
	c0,6.3769531-3.9902344,10.3740234-10.4130859,10.4306641c-0.0410156,0-0.0830078,0-0.1240234,0
	c-6.3115234,0.0009766-10.2207031-3.8701172-10.4912109-10.3828125c-0.2939453-1.5722656-0.4121094-5.8134766,0.0878906-19.125
	H73.5693359v19.0771484C73.5693359,155.8837891,69.4404297,160,63.050293,160z M39.918457,58.3945313l-0.0717773,61.6142578
	c0,3.0029297,3.4257813,6.4287109,6.4306641,6.4287109h10.4306641v23.0771484c0,4.2431641,2.1933594,6.4853516,6.3422852,6.4853516
	c4.2041016,0,6.519043-2.3027344,6.519043-6.4853516V126.4375h20.9423828l-0.0830078,2.0791016
	c-0.3339844,8.4433594-0.5341797,17.8759766-0.3242188,19.9521484l0.1298828,0.1640625l0.0224609,0.6591797
	c0.1474609,4.4150391,2.3320313,6.6533203,6.4951172,6.6533203c0.03125,0,0.0615234,0,0.09375,0
	c4.2167969-0.0371094,6.4462891-2.2607422,6.4462891-6.4306641V126.4375h10.4306641
	c3.0048828,0,6.4306641-3.4257813,6.4306641-6.4306641l-0.0722656-61.6123047H39.918457z M141.0673828,107.6582031
	c-6.2949219,0-10.2060547-3.6708984-10.2060547-9.5791016V63.9736328c0-5.9086914,3.9111328-9.5791016,10.2060547-9.5791016
	c6.4912109,0,10.2148438,3.2583008,10.2148438,8.9389648v34.0141602
	C151.2822266,103.4179688,147.0820313,107.6582031,141.0673828,107.6582031z M141.0673828,58.3945313
	c-2.8310547,0-6.2060547,0.9677734-6.2060547,5.5791016v34.1054688c0,4.6113281,3.375,5.5791016,6.2060547,5.5791016
	c3.8330078,0,6.2148438-2.4179688,6.2148438-6.3105469V63.3334961
	C147.2822266,61.0341797,146.5761719,58.3945313,141.0673828,58.3945313z M18.9326172,107.6582031
	c-6.1098633,0-10.2148438-4.1142578-10.2148438-10.2382813V63.5532227c0-5.7348633,3.8188477-9.1586914,10.2148438-9.1586914
	c6.2954102,0,10.2060547,3.6704102,10.2060547,9.5791016v34.1054688
	C29.1386719,103.9873047,25.2280273,107.6582031,18.9326172,107.6582031z M18.9326172,58.3945313
	c-5.5708008,0-6.2148438,2.9443359-6.2148438,5.1586914v33.8666992c0,3.8476563,2.3813477,6.2382813,6.2148438,6.2382813
	c2.8310547,0,6.2060547-0.9677734,6.2060547-5.5791016V63.9736328
	C25.1386719,59.3623047,21.7636719,58.3945313,18.9326172,58.3945313z M124.1621094,46.1308594h-88.324707l0.0092773-2.0087891
	c0.0527344-11.7553711,8.2563477-24.137207,22.3925781-30.5410156L50.671875,3.1762695
	c-0.6494141-0.8930664-0.4521484-2.144043,0.4414063-2.7939453c0.8930664-0.6494141,2.1430664-0.4516602,2.7939453,0.4414063
	l8.1625977,11.2236328c5.2773438-1.8496094,11.2172852-2.9047852,17.8266602-2.8847656
	c6.6787109,0.019043,12.7109375,1.0732422,18.0205078,2.9023438L106.09375,0.8237305
	c0.6494141-0.8920898,1.8994141-1.0908203,2.7939453-0.4414063c0.8925781,0.6499023,1.0908203,1.9008789,0.4404297,2.7939453
	l-7.5654297,10.4023438c14.2539063,6.3457031,22.3369141,18.5996094,22.390625,30.543457L124.1621094,46.1308594z
	 M39.9462891,42.1308594h80.1103516c-1.3222656-14.5180664-16.1611328-28.8989258-40.171875-28.9682617
	c-0.0541992,0-0.1083984,0-0.1625977,0C56.2724609,13.1625977,41.2988281,27.8144531,39.9462891,42.1308594z M96.8613281,34.3222656
	c-2.8505859,0-5-2.1494141-5-5s2.1494141-5,5-5s5,2.1494141,5,5S99.7119141,34.3222656,96.8613281,34.3222656z
	 M96.8613281,28.3222656c-0.8261719,0-1,0.5439453-1,1s0.1738281,1,1,1s1-0.5439453,1-1
	C97.8613281,28.6586914,97.5244141,28.3222656,96.8613281,28.3222656z M63.1367188,34.3222656
	c-2.8530273,0-5.0043945-2.1391602-5.0043945-4.9760742c0-2.8642578,2.1513672-5.0239258,5.0043945-5.0239258
	c2.8481445,0,4.9956055,2.1494141,4.9956055,5S65.9848633,34.3222656,63.1367188,34.3222656z M63.1367188,28.3222656
	c-0.8740234,0-1.0043945,0.6416016-1.0043945,1.0239258c0,0.6474609,0.3378906,0.9760742,1.0043945,0.9760742
	c0.8227539,0,0.9956055-0.5439453,0.9956055-1C64.1323242,28.6586914,63.7973633,28.3222656,63.1367188,28.3222656z"/>
</svg>
