<?xml version="1.0" encoding="utf-8"?>
<!-- Generator: Adobe Illustrator 23.0.0, SVG Export Plug-In . SVG Version: 6.00 Build 0)  -->
<svg version="1.1" id="icon-apple" xmlns="http://www.w3.org/2000/svg" xmlns:xlink="http://www.w3.org/1999/xlink" x="0px" y="0px"
	 viewBox="0 0 160 160" style="enable-background:new 0 0 160 160;" xml:space="preserve">
<path d="M56.7470703,159.7692871c-9.8237305,0-19.2226563-7.8037109-27.1816406-22.5683594
	c-10.5527344-19.3339844-14.2988281-40.3535156-14.2988281-52.4765625c0-27.2763672,23.6035156-46.2851563,44.7871094-46.2851563
	c5.8139648,0,9.8535156,2.3540039,13.4179688,4.4311523c3.3476563,1.9506836,6.2387695,3.6352539,10.3535156,3.6352539
	c6.0166016,0,10.7705078-2.3134766,15.3671875-4.5507813c4.1542969-2.0219727,8.0791016-3.9321289,12.53125-3.9321289
	c13.6757813,0,22.15625,8.3618164,28.0166016,15.6469727l1.5488281,1.925293l-2.4853516,1.2543945
	c-8.4423828,6.0053711-13.0898438,15.237793-13.0898438,26.0136719c0,12.7890625,5.8115234,22.1640625,17.7666016,28.6591797
	l0.9394531,0.5107422l0.0966797,1.0644531c0.0224609,0.2421875,0.2167969,2.390625,0.2167969,3.2851563
	c0,16.4960938-17.4697266,42.7617188-38.1738281,42.7617188c-4.1738281,0-8.3330078-1.4755859-12.3554688-2.9033203
	c-4.0019531-1.4199219-8.1396484-2.8886719-12.2402344-2.8886719c-5.0166016,0-9.6079102,1.7734375-14.0483398,3.4873047
	C64.0146484,158.3464355,60.3300781,159.7692871,56.7470703,159.7692871z M60.0537109,42.439209
	c-19.2915039,0-40.7871094,17.3657227-40.7871094,42.2851563c0,11.6523438,3.6181641,31.8876953,13.8149414,50.5693359
	c5.0380859,9.3457031,13.2280273,20.4755859,23.6655273,20.4755859c2.8374023,0,6.184082-1.2919922,9.7275391-2.6611328
	c4.559082-1.7597656,9.7270508-3.7558594,15.4892578-3.7558594c4.7890625,0,9.2578125,1.5859375,13.578125,3.1191406
	c3.8740234,1.3740234,7.5322266,2.6728516,11.0175781,2.6728516c18.2011719,0,34.1738281-24.1591797,34.1738281-38.7617188
	c0-0.3525391-0.0527344-1.1367188-0.1103516-1.8720703c-12.7216797-7.2392578-18.9091797-17.6015625-18.9091797-31.6474609
	c0-11.5717773,4.7900391-21.5742188,13.5322266-28.3525391c-5.2265625-6.1342773-12.5449219-12.487793-23.5224609-12.487793
	c-3.53125,0-6.890625,1.6352539-10.7802734,3.5288086c-4.7714844,2.3222656-10.1796875,4.9541016-17.1181641,4.9541016
	c-5.1953125,0-8.8413086-2.1245117-12.3676758-4.1791992C68.0273438,44.3273926,64.7871094,42.439209,60.0537109,42.439209z
	 M85.8085938,38.4001465l-0.2851563-2.3803711c-0.0546875-0.4536133-0.5332031-4.4780273-0.5332031-5.9399414
	c0-16.6679688,12.4423828-26.0327148,24.0869141-29.2387695l2.2167969-0.6103516l0.2978516,2.2797852
	c0.0546875,0.4204102,0.5351563,4.1425781,0.5351563,5.4453125c0,20.1367188-16.8027344,27.5039063-24.0273438,29.7363281
	L85.8085938,38.4001465z M107.9091797,5.3937988C98.3886719,8.7263184,88.9902344,16.7033691,88.9902344,30.079834
	c0,0.5688477,0.109375,1.8046875,0.2314453,2.9975586c7.0712891-2.6845703,18.9052734-9.5131836,18.9052734-25.121582
	C108.1269531,7.5129395,108.0292969,6.4787598,107.9091797,5.3937988z"/>
</svg>
