<?xml version="1.0" encoding="utf-8"?>
<!-- Generator: Adobe Illustrator 23.0.0, SVG Export Plug-In . SVG Version: 6.00 Build 0)  -->
<svg version="1.1" id="icon-article" xmlns="http://www.w3.org/2000/svg" xmlns:xlink="http://www.w3.org/1999/xlink" x="0px"
	 y="0px" viewBox="0 0 160 160" style="enable-background:new 0 0 160 160;" xml:space="preserve">
<path d="M131.1875,160H28.8125c-5.1347656,0-9.3125-4.1777344-9.3125-9.3125V9.3125C19.5,4.1777344,23.6777344,0,28.8125,0
	h72.5458984c2.4990234,0,4.8408203,0.965332,6.59375,2.71875l29.8300781,29.8598633
	C139.5087891,34.3056641,140.5,36.6982422,140.5,39.1416016V150.6875C140.5,155.8222656,136.3222656,160,131.1875,160z M28.8125,4
	C25.8833008,4,23.5,6.3833008,23.5,9.3125v141.375c0,2.9296875,2.3833008,5.3125,5.3125,5.3125h102.375
	c2.9296875,0,5.3125-2.3828125,5.3125-5.3125V52.375H97.3251953c-5.0732422,0-9.2001953-4.1269531-9.2001953-9.2001953V4H28.8125z
	 M92.125,4v39.1748047c0,2.8671875,2.3330078,5.2001953,5.2001953,5.2001953H136.5v-9.2333984
	c0-1.390625-0.5634766-2.7519531-1.546875-3.7353516L105.1230469,5.5463867C104.1259766,4.5493164,102.7890625,4,101.3583984,4
	H92.125z M109,126H51c-1.1044922,0-2-0.8955078-2-2s0.8955078-2,2-2h58c1.1044922,0,2,0.8955078,2,2S110.1044922,126,109,126z
	 M109,106H51c-1.1044922,0-2-0.8955078-2-2s0.8955078-2,2-2h58c1.1044922,0,2,0.8955078,2,2S110.1044922,106,109,106z M109,86H51
	c-1.1044922,0-2-0.8955078-2-2s0.8955078-2,2-2h58c1.1044922,0,2,0.8955078,2,2S110.1044922,86,109,86z"/>
</svg>
