<?xml version="1.0" encoding="utf-8"?>
<!-- Generator: Adobe Illustrator 23.0.0, SVG Export Plug-In . SVG Version: 6.00 Build 0)  -->
<svg version="1.1" id="icon-audio" xmlns="http://www.w3.org/2000/svg" xmlns:xlink="http://www.w3.org/1999/xlink" x="0px" y="0px"
	 viewBox="0 0 160 160" style="enable-background:new 0 0 160 160;" xml:space="preserve">
<path d="M131.1875,160H28.8125c-5.1347656,0-9.3125-4.1777344-9.3125-9.3125V9.3125C19.5,4.1777344,23.6777344,0,28.8125,0
	h72.5458984c2.4990234,0,4.8408203,0.965332,6.59375,2.71875l29.8300781,29.8598633
	C139.5087891,34.3056641,140.5,36.6982422,140.5,39.1416016V150.6875C140.5,155.8222656,136.3222656,160,131.1875,160z M28.8125,4
	C25.8833008,4,23.5,6.3833008,23.5,9.3125v141.375c0,2.9296875,2.3833008,5.3125,5.3125,5.3125h102.375
	c2.9296875,0,5.3125-2.3828125,5.3125-5.3125V52.375H97.3251953c-5.0732422,0-9.2001953-4.1269531-9.2001953-9.2001953V4H28.8125z
	 M92.125,4v39.1748047c0,2.8671875,2.3330078,5.2001953,5.2001953,5.2001953H136.5v-9.2333984
	c0-1.390625-0.5634766-2.7519531-1.546875-3.7353516L105.1230469,5.5463867C104.1259766,4.5493164,102.7890625,4,101.3583984,4
	H92.125z M106.5683594,136.5908203c-0.5019531,0-1.0048828-0.1875-1.3935547-0.5654297
	c-0.7919922-0.7695313-0.8105469-2.0361328-0.0410156-2.828125c15.9189453-16.3867188,15.9189453-42.0361328,0.0009766-58.3930664
	c-0.7705078-0.7919922-0.7529297-2.0581055,0.0390625-2.828125c0.7910156-0.7705078,2.0566406-0.7543945,2.828125,0.0380859
	c17.4384766,17.9204102,17.4394531,46.019043,0.0009766,63.9702148
	C107.6103516,136.3876953,107.0898438,136.5908203,106.5683594,136.5908203z M66.5576172,130.2587891
	c-1.4506836,0-2.859375-0.5683594-3.9584961-1.6533203l-10.2563477-10.5449219H44.65625
	c-3.1186523,0-5.65625-2.5371094-5.65625-5.65625v-17.0625c0-3.1191406,2.5375977-5.65625,5.65625-5.65625h7.6865234
	l10.2275391-10.5161133c1.6713867-1.6708984,4.0332031-2.1420898,6.1845703-1.2514648
	C70.9106445,78.8110352,72.25,80.8173828,72.25,83.1542969v41.4375c0,2.3212891-1.3291016,4.3193359-3.46875,5.2138672
	C68.0532227,130.109375,67.2998047,130.2587891,66.5576172,130.2587891z M44.65625,93.6855469
	c-0.9130859,0-1.65625,0.7431641-1.65625,1.65625v17.0625c0,0.9130859,0.7431641,1.65625,1.65625,1.65625h9.3759766
	L65.4375,125.7871094c0.7128906,0.703125,1.559082,0.4296875,1.8007813,0.328125
	C67.5424805,125.9873047,68.25,125.5849609,68.25,124.5917969v-41.4375c0-1.0351563-0.7851563-1.4414063-1.0258789-1.5410156
	c-0.2397461-0.0986328-1.0756836-0.3662109-1.8061523,0.3652344L54.0322266,93.6855469H44.65625z M89.8466797,122.2949219
	c-0.5019531,0-1.0048828-0.1875-1.3935547-0.5654297c-0.7919922-0.7695313-0.8105469-2.0361328-0.0410156-2.828125
	C95.9990234,111.0917969,96,98.8808594,88.4150391,91.1015625c-0.7714844-0.7910156-0.7558594-2.0576172,0.0351563-2.828125
	c0.7900391-0.7724609,2.0566406-0.7548828,2.828125,0.0351563c9.109375,9.3427734,9.1113281,24.0048828,0.0029297,33.3798828
	C90.8886719,122.0917969,90.3681641,122.2949219,89.8466797,122.2949219z"/>
</svg>
