<?xml version="1.0" encoding="utf-8"?>
<!-- Generator: Adobe Illustrator 23.0.0, SVG Export Plug-In . SVG Version: 6.00 Build 0)  -->
<svg version="1.1" id="icon-author" xmlns="http://www.w3.org/2000/svg" xmlns:xlink="http://www.w3.org/1999/xlink" x="0px"
	 y="0px" viewBox="0 0 160 160" style="enable-background:new 0 0 160 160;" xml:space="preserve">
<path d="M99.760498,148.5131836c-0.0986328,0-0.1982422-0.0009766-0.2988281-0.0039063l-85.7539063,0.0009766
	c-7.554688,0-13.7011719-6.1464844-13.7011719-13.7011719v-10.140625c0-18.4150391,14.9790039-32.3017578,34.8422852-32.3017578
	h4.5405273l0.6743164,0.3085938c5.1831055,2.3710938,10.5429688,4.8232422,16.3374023,4.8232422
	c6.0854492,0,12.6235352-2.6445313,17.6391602-4.9492188l0.3974609-0.1826172h4.5424805
	c13.8535156,0.0009766,22.7451172,7.8212891,26.4169922,11.8642578l32.0234375-31.7470703
	c1.4677734-1.4677734,3.4326172-2.2797852,5.5273438-2.2797852s4.0595703,0.8115234,5.5341797,2.2856445l9.2382813,9.2392578
	c3.0292969,3.0615234,3.0292969,8.0292969,0.0078125,11.0830078l-0.015625,0.015625l-44.8388672,44.3671875l-0.4785156,0.1425781
	c-0.6240234,0.1865234-1.2314453,0.3671875-1.8222656,0.5429688l0.1230469,0.0273438
	C110.5993652,138.3461914,108.2399902,148.5131836,99.760498,148.5131836z M34.848877,96.3666992
	c-17.8710938,0-30.8422852,11.9023438-30.8422852,28.3017578v10.140625c0,5.3496094,4.3520513,9.7011719,9.7011719,9.7011719
	H99.517334c3.5273438,0.1171875,5.5595703-3.0595703,6.5273438-5.3017578
	c-17.1123047,4.953125-17.7587891,4.2705078-18.6181641,3.3603516c-0.8867188-0.9375-1.5283203-1.6152344,5.0214844-25.1308594
	l0.1425781-0.5107422l9.9492188-9.8632813c-3.1416016-3.453125-11.2060547-10.6962891-23.5595703-10.6972656H75.310791
	c-5.3325195,2.4296875-12.2167969,5.1318359-18.909668,5.1318359c-6.6186523,0-12.3466797-2.5996094-17.8828125-5.1318359H34.848877
	z M96.1599121,119.0209961c-2.1484375,7.7402344-4.3144531,16.1611328-5.0654297,19.9638672
	c3.7617188-0.7851563,12.0703125-3.0703125,19.6767578-5.3369141l29.6835938-29.3710938L125.807373,89.6293945
	L96.1599121,119.0209961z M128.6481934,86.8129883l14.6503906,14.6503906l11.5927734-11.4707031
	c1.4794922-1.5029297,1.4775391-3.9423828-0.0068359-5.4433594l-9.2304688-9.230957
	c-1.4375-1.4365234-3.9736328-1.4384766-5.4111328,0L128.6481934,86.8129883z M56.6125488,77.8930664
	c-18.3085938,0-33.2036133-14.8950195-33.2036133-33.203125s14.8950195-33.203125,33.2036133-33.203125
	c18.3081055,0,33.2026367,14.8950195,33.2026367,33.203125S74.9206543,77.8930664,56.6125488,77.8930664z M56.6125488,15.4868164
	c-16.1030273,0-29.2036133,13.1005859-29.2036133,29.203125s13.1005859,29.203125,29.2036133,29.203125
	c16.1025391,0,29.2026367-13.1005859,29.2026367-29.203125S72.7150879,15.4868164,56.6125488,15.4868164z"/>
</svg>
