<?xml version="1.0" encoding="utf-8"?>
<!-- Generator: Adobe Illustrator 23.0.0, SVG Export Plug-In . SVG Version: 6.00 Build 0)  -->
<svg version="1.1" id="icon-backward" xmlns="http://www.w3.org/2000/svg" xmlns:xlink="http://www.w3.org/1999/xlink" x="0px"
	 y="0px" viewBox="0 0 160 160" style="enable-background:new 0 0 160 160;" xml:space="preserve">
<path d="M115.0007401,160c-2.6709747,0-5.1817932-1.0400696-7.0705185-2.9288025l-70.003006-70.0020218
	c-3.8990364-3.8995285-3.8985481-10.2439499,0-14.1425018l70.003006-70.0020294
	c3.8995285-3.9005036,10.2444382-3.8985505,14.1420135,0c3.8995285,3.8990388,3.8995285,10.2429724,0,14.1420107
	L59.1412086,79.9976807l62.9310265,62.930542c3.8985519,3.8995209,3.8985519,10.243454,0,14.1429749
	C120.1825333,158.9599304,117.6707382,160,115.0007401,160z M115.0007401,3.9984069
	c-1.5361786,0-3.0723572,0.5849781-4.2423096,1.7544456l-70.003006,70.0020294
	c-2.3389359,2.3394241-2.3389359,6.1461716,0.0004883,8.486084l70.0025177,70.0020294
	c1.132843,1.132843,2.6397247,1.7568817,4.2423096,1.7568817s3.1094666-0.6240387,4.2432861-1.7578583
	c2.3389359-2.3389282,2.3389359-6.1456909,0-8.4855957L53.4838181,79.9976807l65.7602081-65.7592316
	c2.3389359-2.3394232,2.3389359-6.1461744,0-8.4855976C118.0740738,4.583385,116.5378952,3.9984069,115.0007401,3.9984069z"/>
</svg>
