<?xml version="1.0" encoding="utf-8"?>
<!-- Generator: Adobe Illustrator 23.0.0, SVG Export Plug-In . SVG Version: 6.00 Build 0)  -->
<svg version="1.1" id="icon-bags" xmlns="http://www.w3.org/2000/svg" xmlns:xlink="http://www.w3.org/1999/xlink" x="0px" y="0px"
	 viewBox="0 0 160 160" style="enable-background:new 0 0 160 160;" xml:space="preserve">
<path d="M160,160H0V36h27v-8.4545898C27.2758789,10.5424805,38.3354492,0,55.8637695,0
	c17.5810547,0,27.5727539,9.7275391,28.1352539,27.3911133V36H112v37.9995117L160,74V160z M62,156h94V78H62V156z M4,156h54V74h50V40
	H83.9990234L84,50.2788086c3.5839844,0.7915039,6.2724609,3.9936523,6.2724609,7.8120117c0,4.4111328-3.5888672,8-8,8
	s-7.9995117-3.5888672-7.9995117-8c0-3.6220703,2.4194336-6.6894531,5.7270508-7.6713867V40H31v10.2783203
	c3.5834961,0.7919922,6.2729492,3.9941406,6.2729492,7.8125c0,4.4111328-3.5888672,8-8,8s-8-3.5888672-8-8
	c0-3.6220703,2.4194336-6.6894531,5.7270508-7.6713867V40H4V156z M82.2724609,54.0908203
	c-2.2055664,0-3.9995117,1.7944336-3.9995117,4s1.7939453,4,3.9995117,4c2.2060547,0,4-1.7944336,4-4
	S84.4785156,54.0908203,82.2724609,54.0908203z M29.2729492,54.0908203c-2.2055664,0-4,1.7944336-4,4s1.7944336,4,4,4
	s4-1.7944336,4-4S31.4785156,54.0908203,29.2729492,54.0908203z M31,36h49v-8.5454102
	C79.5043945,11.9125977,71.3833008,4,55.8637695,4c-15.3295898,0-24.6245117,8.8139648-24.8642578,23.5776367L31,36z
	 M109.8632813,132.7275391C97.5244141,132.3632813,84.3085938,123.9384766,84,109.0410156v-4.2792969
	c-3.3076172-0.9814453-5.7270508-4.0488281-5.7270508-7.6708984c0-4.4111328,3.5883789-8,7.9995117-8s8,3.5888672,8,8
	c0,3.8183594-2.6884766,7.0205078-6.2724609,7.8125V109c0.2587891,12.5185547,11.2246094,19.4111328,21.9228516,19.7285156
	c6.4013672-0.0009766,11.7001953-1.9228516,15.2646484-5.5595703c3.2607422-3.3261719,4.9248047-8.0556641,4.8125-13.6748047
	v-4.7324219c-3.3076172-0.9814453-5.7275391-4.0488281-5.7275391-7.6708984c0-4.4111328,3.5888672-8,8-8s8,3.5888672,8,8
	c0,3.8183594-2.6884766,7.0205078-6.2724609,7.8125v4.5507813c0.1337891,6.6787109-1.9257813,12.4033203-5.9560547,16.5146484
	C123.7099609,130.390625,117.4238281,132.7275391,109.8632813,132.7275391z M132,101
	c0.1953125,0,0.3847656,0.0283203,0.5634766,0.0800781c2.0703125-0.1494141,3.7089844-1.8818359,3.7089844-3.9892578
	c0-2.2060547-1.7939453-4-4-4s-4,1.7939453-4,4c0,1.9824219,1.4492188,3.6318359,3.3427734,3.9462891
	C131.7402344,101.0126953,131.8681641,101,132,101z M86,101c0.1953125,0,0.3847656,0.0283203,0.5634766,0.0800781
	c2.0703125-0.1494141,3.7089844-1.8818359,3.7089844-3.9892578c0-2.2060547-1.7939453-4-4-4
	c-2.2050781,0-3.9990234,1.7939453-3.9990234,4c0,1.9824219,1.4482422,3.6318359,3.3417969,3.9462891
	C85.7402344,101.0126953,85.8681641,101,86,101z"/>
</svg>
