<?xml version="1.0" encoding="utf-8"?>
<!-- Generator: Adobe Illustrator 23.0.0, SVG Export Plug-In . SVG Version: 6.00 Build 0)  -->
<svg version="1.1" id="icon-bars" xmlns="http://www.w3.org/2000/svg" xmlns:xlink="http://www.w3.org/1999/xlink" x="0px" y="0px"
	 viewBox="0 0 160 160" style="enable-background:new 0 0 160 160;" xml:space="preserve">
<path d="M158,122H2c-1.1044922,0-2-0.8955078-2-2s0.8955078-2,2-2h156c1.1044922,0,2,0.8955078,2,2S159.1044922,122,158,122z
	 M158,82H2c-1.1044922,0-2-0.8955078-2-2s0.8955078-2,2-2h156c1.1044922,0,2,0.8955078,2,2S159.1044922,82,158,82z M158,42H2
	c-1.1044922,0-2-0.8955078-2-2s0.8955078-2,2-2h156c1.1044922,0,2,0.8955078,2,2S159.1044922,42,158,42z"/>
</svg>
