<?xml version="1.0" encoding="utf-8"?>
<!-- Generator: Adobe Illustrator 23.0.0, SVG Export Plug-In . SVG Version: 6.00 Build 0)  -->
<svg version="1.1" id="icon-bilibili" xmlns="http://www.w3.org/2000/svg" xmlns:xlink="http://www.w3.org/1999/xlink" x="0px"
	 y="0px" viewBox="0 0 160 160" style="enable-background:new 0 0 160 160;" xml:space="preserve">
<path d="M125.0754318,159.9985809c-0.4521484,0-0.8984375-0.0224609-1.3359375-0.0683594
	c-6.1591797-0.6308594-10.4560547-4.1806641-12.0957031-9.9931641c-0.6064453-2.1582031-2.3847656-3.7773438-4.1445313-3.7773438
	c-0.0058594,0-0.0126953,0-0.0185547,0c-18.3144531,0.1064453-34.3100586,0.0595703-52.8320313,0.0068359l-2.2402344-0.0068359
	c-0.0009766,0-0.0019531,0-0.0029297,0c-1.1513672,0-2.7744141,1.3505859-3.2250977,3.1621094
	c-1.5522461,6.2724609-6.8598633,10.5585938-13.2070313,10.6650391c-6.4975586,0.0742188-11.84375-4.0351563-13.6289063-10.5605469
	l-0.2050781-0.7675781c-0.2983398-1.1318359-1.1879883-4.5058594-1.9975586-5.1865234
	c-2.644043,0.140625-5.3061523,0.0927734-7.8828125,0.0439453l-1.0166016-0.0175781
	c-5.496582-0.1015625-6.6499023-3.5605469-6.6499023-6.4453125C4.617424,102.9937057,4.6667404,72.2324753,4.7438889,43.009819
	c0.0161133-5.6665039,4.0517578-6.3266602,7.0854492-6.3300781c6.3505859-0.0078125,28.4458008-0.0112305,53.1308594-0.012207
	L31.0578537,18.6147976c-0.9750977-0.519043-1.3447266-1.7299805-0.8251953-2.7050781
	c0.5180664-0.9750977,1.7304688-1.3461914,2.7050781-0.8251953l40.012207,21.305666
	c0.1464844,0.0776367,0.2788086,0.1708984,0.3969727,0.2768555c5.8349609,0.0004883,11.7294922-0.0004883,17.5195313,0.0004883
	l25.7275391-35.831543c0.6435547-0.8964844,1.8925781-1.1049805,2.7910156-0.4580078
	c0.8974609,0.644043,1.1025391,1.8935547,0.4589844,2.7910156L95.7912521,36.6675339
	c24.3964844,0.0009766,46.0371017,0.0039063,52.1396408,0.0073242c5.7050781,0.0058594,7.3564453,1.625,7.3623047,7.2192383
	c0.0458984,30.8100586,0.0869141,61.6220703,0.1142578,92.4326096c0.0058594,5.5371094-1.6601563,7.1474609-7.4287109,7.1816406
	c-0.0019531,0-0.0039063,0-0.0048828,0c-0.3505859,0.0009766-0.7021484,0.0117188-1.0537109,0.0214844
	c-0.8984375,0.0253906-1.8291016,0.0527344-2.7998047-0.0517578c-3.265625-0.3505859-5.8076172,4.2744141-6.9863281,8.3447266
	C135.5461273,157.3071747,129.9933929,159.9985809,125.0754318,159.9985809z M107.5002365,142.1597137
	c3.5449219,0,6.9023438,2.8076172,7.9941406,6.6933594c1.1796875,4.1835938,4.1728516,6.6386719,8.6552734,7.0986328
	c3.5849609,0.3671875,8.0117111-1.3378906,9.1425705-5.2421875c2.1523438-7.4326172,6.4511719-11.734375,11.2568359-11.2080078
	c0.6953125,0.0742188,1.4541016,0.0527344,2.2568359,0.0302734c0.3847656-0.0117188,0.7685547-0.0224609,1.1513672-0.0234375
	c3.4541016-0.0205078,3.4541016-0.0205078,3.4501953-3.1777344c-0.0273438-30.8105392-0.0683594-61.6215744-0.1142578-92.431633
	c-0.0039063-3.2207031-0.0039063-3.2207031-3.3652344-3.2241211c-14.7841797-0.0078125-120.8388596-0.0136719-136.09375,0.0048828
	c-3.0834961,0.003418-3.0854492,0.6401367-3.090332,2.3413086C8.6667404,72.2402878,8.617424,102.9995651,8.5925217,137.054245
	c0,1.7011719,0.2460938,2.3994141,2.7207031,2.4443359l1.019043,0.0185547
	c2.5566406,0.046875,5.2001953,0.0957031,7.7509766-0.0478516c3.6796875-0.1962891,5.0439453,4.8339844,5.9238281,8.1699219
	l0.1953125,0.7304688c1.2875977,4.7070313,5.074707,7.7119141,9.7036133,7.6171875
	c4.5073242-0.0751953,8.28125-3.140625,9.3920898-7.6279297c0.8657227-3.4794922,3.9863281-6.1992188,7.1088867-6.1992188
	c0.0039063,0,0.0078125,0,0.0117188,0l2.2416992,0.0068359c18.5131836,0.0527344,34.5019531,0.0996094,52.7949219-0.0068359
	C107.4699631,142.1597137,107.4855881,142.1597137,107.5002365,142.1597137z M147.9670258,141.5083466h0.0097656H147.9670258z
	 M110.8801193,130.2056122c-5.0126953,0-9.9462891-0.0009766-14.9560547-0.0019531l-15.9272461-0.0019531l-15.9272461,0.0019531
	c-10.1035156,0.0019531-19.8959961,0.0039063-30.6567383-0.0019531c-2.8198242-0.0019531-5.4643555-1.1308594-7.4472656-3.1767502
	c-1.9506836-2.0126953-3.0234375-4.6621094-3.0209961-7.4589844l0,0c0.0107422-9.3417969,0.003418-17.7460938-0.003418-26.0810547
	c-0.0083008-9.6611328-0.0161133-19.2290039,0.003418-30.0551758c0.0131836-6.1191406,3.4404297-10.3959961,8.3334961-10.4013672
	c15.8769531-0.0019531,31.3857422-0.0595703,46.3837891-0.1152344c15.8110352-0.0585938,32.1401367-0.121582,48.9194336-0.1142578
	c5.3622971,0,10.4501877,5.1650391,10.4677658,10.6279297c0.0302734,11.0004883,0.0185547,20.6245117,0.0058594,30.3666992
	c-0.0097656,8.2089844-0.0205078,16.5019531-0.0058594,25.7714844c0.0058594,2.6875-1.1748047,5.4179688-3.2392578,7.4882813
	c-2.0214844,2.0283127-4.5878906,3.1464767-7.2275314,3.1484299
	C121.1564865,130.2046356,115.976799,130.2056122,110.8801193,130.2056122z M79.9968185,126.2017136l15.9282227,0.0019531
	c10.1025391,0.0019531,19.8935547,0.0039063,30.6542969-0.0019531c1.5468674-0.0009766,3.150383-0.7197266,4.3984299-1.9726563
	c1.3007813-1.3046875,2.0751953-3.0449219,2.0712891-4.65625c-0.0146484-9.2753906-0.0039063-17.5712891,0.0058594-25.7841797
	c0.0126953-9.7363281,0.0244141-19.355957-0.0058594-30.3500977c-0.0107422-3.2260742-3.3359375-6.6396484-6.4687424-6.6396484
	c-16.7529297-0.0043945-33.0957031,0.0556641-48.9033203,0.1142578
	c-15.0019531,0.0556641-30.5146484,0.1132813-46.3959961,0.1152344c-3.4116211,0.0039063-4.3310547,4.0307617-4.3364258,6.4091797
	c-0.0195313,10.8217773-0.0117188,20.3862305-0.003418,30.043457c0.0068359,8.3388672,0.0141602,16.7451172,0.003418,26.0888672
	c-0.0014648,1.7509766,0.6708984,3.4101563,1.8935547,4.671875c1.2236328,1.2626953,2.8496094,1.9589844,4.5771484,1.9599609
	c10.7602539,0.0058594,20.5512695,0.0039063,30.6533203,0.0019531L79.9968185,126.2017136z M69.1091232,114.2192917
	c-6.7304688,0-11.1567383-5.4052734-13.1567383-16.0644531c-0.2036133-1.0859375,0.5112305-2.1308594,1.597168-2.3349609
	c1.0834961-0.2041016,2.1308594,0.5107422,2.3344727,1.5966797c2.4018555,12.8027344,7.5375977,12.8027344,9.2250977,12.8027344
	c4.8901367,0,8.1982422-6.3828125,8.5708008-12.5546875c0.0625-1.0332031,0.9042969-1.8486328,1.9399414-1.8779297
	c1.0263672-0.0683594,1.9213867,0.7373047,2.0424805,1.7646484c0.7890625,6.7001953,6.4941406,12.6044922,10.4667969,12.6044922
	c0.0302734,0,0.0615234,0.0009766,0.0917969,0c1.2568359,0,2.7304688-0.7441406,4.0048828-2
	c2.4511719-2.4150391,3.8564453-6.1943359,3.8564453-10.3701172c0-1.1044922,0.8955078-2,2-2s2,0.8955078,2,2
	c0,5.2392578-1.8398438,10.0576172-5.0488281,13.2197266c-2.0654297,2.0351563-4.4619141,3.1513672-6.7587891,3.1513672
	c-0.0664063,0.0009766-0.1337891,0-0.1972656-0.0009766c-4.4697266,0.0009766-9.2275391-3.7998047-12.0297852-8.9257813
	C78.0349045,110.2651901,74.2668381,114.2192917,69.1091232,114.2192917z M116.9982834,84.5024948
	c-0.2998047,0-0.6054688-0.0673828-0.8925781-0.2109375l-22-11c-0.9882813-0.4941406-1.3886719-1.6953125-0.8945313-2.6835938
	c0.4931641-0.9868164,1.6933594-1.3891602,2.6835938-0.8945313l22,11c0.9882813,0.4941406,1.3886719,1.6953125,0.8945313,2.6835938
	C118.4387131,84.0981979,117.7326584,84.5024948,116.9982834,84.5024948z M43.0017014,84.5024948
	c-0.7333984,0-1.4399414-0.4042969-1.7905273-1.1054688c-0.4936523-0.9882813-0.0932617-2.1894531,0.8945313-2.6835938l22-11
	c0.9863281-0.4941406,2.1889648-0.09375,2.6835938,0.8945313c0.4936523,0.9882813,0.0932617,2.1894531-0.8945313,2.6835938l-22,11
	C43.6076584,84.435112,43.3024826,84.5024948,43.0017014,84.5024948z"/>
</svg>
