<?xml version="1.0" encoding="utf-8"?>
<!-- Generator: Adobe Illustrator 23.0.0, SVG Export Plug-In . SVG Version: 6.00 Build 0)  -->
<svg version="1.1" id="icon-bold" xmlns="http://www.w3.org/2000/svg" xmlns:xlink="http://www.w3.org/1999/xlink" x="0px" y="0px"
	 viewBox="0 0 160 160" style="enable-background:new 0 0 160 160;" xml:space="preserve">
<path d="M101.328125,160h-76.78125c-6.4790039,0-11.75-5.2714844-11.75-11.75V11.75c0-6.4790039,5.2709961-11.75,11.75-11.75h68.25
	c25.2958984,0,45.875,20.5795898,45.875,45.875c0,11.2700195-4.0683594,21.9580078-11.5058594,30.3574219
	C139.7578125,84.8144531,147.203125,98.8046875,147.203125,114.125C147.203125,139.4208984,126.6240234,160,101.328125,160z
	 M24.546875,4c-4.2734375,0-7.75,3.4765625-7.75,7.75v136.5c0,4.2734375,3.4765625,7.75,7.75,7.75h76.78125
	c23.0898438,0,41.875-18.7851563,41.875-41.875c0-14.7285156-7.5400391-28.1113281-20.1708984-35.7993164
	c-0.5214844-0.3173828-0.8691406-0.855957-0.9443359-1.4619141s0.1298828-1.2128906,0.5576172-1.6484375
	c7.7558594-7.8896484,12.0263672-18.3095703,12.0263672-29.340332c0-23.0898438-18.7851563-41.875-41.875-41.875H24.546875z
	 M101.328125,140.5h-67.03125c-1.1044922,0-2-0.8955078-2-2V89.75c0-1.1044922,0.8955078-2,2-2h67.03125
	c14.5429688,0,26.375,11.8320313,26.375,26.375S115.8710938,140.5,101.328125,140.5z M36.296875,136.5h65.03125
	c12.3378906,0,22.375-10.0371094,22.375-22.375s-10.0371094-22.375-22.375-22.375h-65.03125V136.5z M92.796875,72.25h-58.5
	c-1.1044922,0-2-0.8955078-2-2V21.5c0-1.1044922,0.8955078-2,2-2h58.5c14.5429688,0,26.375,11.831543,26.375,26.375
	S107.3398438,72.25,92.796875,72.25z M36.296875,68.25h56.5c12.3378906,0,22.375-10.0375977,22.375-22.375
	S105.1347656,23.5,92.796875,23.5h-56.5V68.25z"/>
</svg>
