<?xml version="1.0" encoding="utf-8"?>
<!-- Generator: Adobe Illustrator 23.0.0, SVG Export Plug-In . SVG Version: 6.00 Build 0)  -->
<svg version="1.1" id="icon-book" xmlns="http://www.w3.org/2000/svg" xmlns:xlink="http://www.w3.org/1999/xlink" x="0px" y="0px"
	 viewBox="0 0 160 160" enable-background="new 0 0 160 160" xml:space="preserve">
<path d="M140.6767578,160H41.1049805c-17.171875,0-31.1425781-14.0185547-31.1425781-31.25v-97.5
	c0-17.2314453,13.9707031-31.25,31.1425781-31.25h99.5717773c5.1201172,0,9.2851563,4.1777344,9.2851563,9.3125v102.375
	c0,0.4082031,0.0166016,0.8339844,0.0332031,1.2666016c0.0810547,2.1650391,0.1826172,4.859375-1.6054688,6.7167969
	c-1.0644531,1.1054688-2.6142578,1.6962891-4.6113281,1.7597656C143.6113281,121.4755859,143.4365234,121.5,143.2548828,121.5
	h-0.5107422c-3.0087891,0.5185547-4.3632813,4.0878906-4.3388672,7.4023438
	c0.0253906,3.6259766,1.6611328,7.5273438,5.1865234,7.5976563h0.0996094c0.0234375,0,0.0478516,0,0.0712891,0.0009766
	c1.9628906,0.0146484,3.5107422,0.6005859,4.6005859,1.7441406c1.8564453,1.9472656,1.7197266,4.7988281,1.6298828,6.6845703
	c-0.015625,0.3242188-0.03125,0.6230469-0.03125,0.8828125v4.875C149.9619141,155.8222656,145.796875,160,140.6767578,160z
	 M41.1049805,4C26.1386719,4,13.9624023,16.2241211,13.9624023,31.25v97.5c0,15.0253906,12.1762695,27.25,27.1425781,27.25
	h99.5717773c2.9140625,0,5.2851563-2.3828125,5.2851563-5.3125v-4.875c0-0.3154297,0.0166016-0.6796875,0.0351563-1.0732422
	c0.0576172-1.2050781,0.1455078-3.0273438-0.5292969-3.734375c-0.3349609-0.3515625-1.0107422-0.4882813-1.9130859-0.5048828
	H41.1049805c-6.4589844,0-11.7138672-5.1591797-11.7138672-11.5s5.2548828-11.5,11.7138672-11.5h101.3129883
	c0.3125-0.0371094,0.6337891-0.0585938,0.9658203-0.0634766h0.0292969c0.71875,0,1.6650391-0.09375,2.0957031-0.5400391
	c0.6083984-0.6318359,0.5449219-2.3105469,0.4892578-3.7919922c-0.0185547-0.4833984-0.0361328-0.9609375-0.0361328-1.4169922
	V9.3125c0-2.9291992-2.3710938-5.3125-5.2851563-5.3125H41.1049805z M41.1049805,121.5
	c-4.253418,0-7.7138672,3.3642578-7.7138672,7.5s3.4604492,7.5,7.7138672,7.5h95.4370117
	c-1.3935547-2.1259766-2.1171875-4.8554688-2.1367188-7.5683594c-0.0185547-2.5986328,0.6005859-5.3007813,1.9228516-7.4316406
	H41.1049805z M118.8193359,69H51.0683594c-1.1044922,0-2-0.8955078-2-2s0.8955078-2,2-2h67.7509766c1.1044922,0,2,0.8955078,2,2
	S119.9238281,69,118.8193359,69z M118.8193359,47H51.0683594c-1.1044922,0-2-0.8955078-2-2s0.8955078-2,2-2h67.7509766
	c1.1044922,0,2,0.8955078,2,2S119.9238281,47,118.8193359,47z"/>
</svg>
