<?xml version="1.0" encoding="utf-8"?>
<!-- Generator: Adobe Illustrator 23.0.0, SVG Export Plug-In . SVG Version: 6.00 Build 0)  -->
<svg version="1.1" id="icon-bottom" xmlns="http://www.w3.org/2000/svg" xmlns:xlink="http://www.w3.org/1999/xlink" x="0px"
	 y="0px" viewBox="0 0 160 160" style="enable-background:new 0 0 160 160;" xml:space="preserve">
<path d="M158,123H2c-1.1044922,0-2-0.8955078-2-2s0.8955078-2,2-2h156c1.1044922,0,2,0.8955078,2,2S159.1044922,123,158,123z
	 M80,101c-0.5117188,0-1.0239258-0.1953125-1.4140625-0.5859375l-60-60c-0.78125-0.7807617-0.78125-2.0473633,0-2.828125
	c0.7802734-0.78125,2.0478516-0.78125,2.828125,0L80,96.171875l58.5859375-58.5859375c0.78125-0.78125,2.046875-0.78125,2.828125,0
	c0.78125,0.7807617,0.78125,2.0473633,0,2.828125l-60,60C81.0234375,100.8046875,80.5117188,101,80,101z"/>
</svg>
