<?xml version="1.0" encoding="utf-8"?>
<!-- Generator: Adobe Illustrator 23.0.0, SVG Export Plug-In . SVG Version: 6.00 Build 0)  -->
<svg version="1.1" id="icon-box" xmlns="http://www.w3.org/2000/svg" xmlns:xlink="http://www.w3.org/1999/xlink" x="0px" y="0px"
	 viewBox="0 0 160 160" enable-background="new 0 0 160 160" xml:space="preserve">
<path d="M112.8320313,147.6308594c-0.0351563,0-0.0703125-0.0009766-0.1054688-0.0029297
	c-0.0351563,0.0019531-0.0693359,0.0029297-0.1044922,0.0029297H14.7094727c-1.1044922,0-2-0.8955078-2-2V80.1611328
	L2.6538086,83.6396484c-0.7700195,0.2675781-1.6245117,0.0400391-2.1601563-0.5742188
	c-0.5361328-0.6132813-0.6459961-1.4902344-0.2783203-2.2177734l12.6899414-25.1044922
	c0.0415039-0.0859375,0.0883789-0.168457,0.1411133-0.246582c0.012207-0.0185547,0.0244141-0.0366211,0.0371094-0.0541992
	c0.1313477-0.3237305,0.3491211-0.6171875,0.6484375-0.8432617l33.8632813-25.5537109
	c0.3466797-0.2617188,0.7700195-0.4033203,1.2045898-0.4033203h13l8.1777344-7.9755859
	c0.3896484-0.3803711,0.9086914-0.5883789,1.4609375-0.5673828c0.5439453,0.0175781,1.0571289,0.2558594,1.4213867,0.6601563
	l4.4492188,4.9370117l15.3549805-12.8608398c0.8095703-0.6787109,2.0087891-0.6098633,2.7353516,0.1572266l14.8251953,15.6386719
	H139c0.7871094,0,1.46875,0.4550781,1.7949219,1.1166992l18.9257813,31.9790039
	c0.4667969,0.7875977,0.3388672,1.7915039-0.3105469,2.4365234l-18.4179688,18.315918
	C140.9970703,82.5371094,141,82.5966797,141,82.65625v29.8300781c0,0.4501953-0.1513672,0.8867188-0.4306641,1.2392578
	l-26.1669922,33.1445313C114.0078125,147.3701172,113.4228516,147.6308594,112.8320313,147.6308594z M16.7094727,143.6308594
	h93.9125977V58.6074219H16.7094727V143.6308594z M114.6220703,63.7084961v76.4282227L137,111.7919922V86.4492188
	l-3.4677734,3.4482422c-0.4335938,0.4316406-1.0419922,0.6435547-1.6484375,0.5673828
	c-0.6074219-0.0722656-1.1484375-0.4199219-1.4677734-0.9414063L114.6220703,63.7084961z M115.1572266,56.918457
	l17.3496094,28.3579102l22.9794922-22.8515625l-16.9052734-28.5639648L115.1572266,56.918457z M12.7094727,64.9970703
	L6.0126953,78.2456055l6.6967773-2.3173828V64.9970703z M103.3642578,54.6074219h8.4384766l9.0712891-8.9287109
	L93.7910156,17.109375L79.9887695,28.6699219L103.3642578,54.6074219z M40.9057617,54.6074219h57.0737305l-26.6982422-29.625
	l-7.2612305,7.081543C64.0136719,32.0708008,64.0068359,32.0771484,64,32.0839844L40.9057617,54.6074219z M20.3618164,54.6074219
	h14.8149414l22.5219727-21.965332h-8.2290039L20.3618164,54.6074219z M114.0166016,32.6313477l9.7080078,10.2407227
	l10.4033203-10.2407227H114.0166016z M78,80.6547852H48c-2.7568359,0-5-2.2431641-5-5.0004883s2.2431641-5.0009766,5-5.0009766h30
	c2.7568359,0,5,2.2436523,5,5.0009766S80.7568359,80.6547852,78,80.6547852z M48,74.6533203c-0.5512695,0-1,0.4492188-1,1.0009766
	s0.4487305,1.0004883,1,1.0004883h30c0.5512695,0,1-0.4487305,1-1.0004883s-0.4487305-1.0009766-1-1.0009766H48z"/>
</svg>
