<?xml version="1.0" encoding="utf-8"?>
<!-- Generator: Adobe Illustrator 23.0.0, SVG Export Plug-In . SVG Version: 6.00 Build 0)  -->
<svg version="1.1" id="icon-briefcase" xmlns="http://www.w3.org/2000/svg" xmlns:xlink="http://www.w3.org/1999/xlink" x="0px"
	 y="0px" viewBox="0 0 160 160" style="enable-background:new 0 0 160 160;" xml:space="preserve">
<path d="M148,160H12c-6.6166992,0-12-5.3828125-12-12V36.6313477c0-6.6166992,5.3833008-12,12-12h39.3164063
	c-0.0004883-0.0175781-0.0004883-0.034668-0.0004883-0.0522461v-7.1845703C51.315918,7.8032227,59.1191406,0,68.7104492,0
	h22.5786133c9.5917969,0,17.3955078,7.8032227,17.3955078,17.3945313v7.1845703c0,0.0175781,0,0.034668-0.0009766,0.0522461H148
	c6.6171875,0,12,5.3833008,12,12V148C160,154.6171875,154.6171875,160,148,160z M4,80.4858398V148c0,4.4111328,3.5888672,8,8,8h136
	c4.4111328,0,8-3.5888672,8-8V80.4858398c-4.0703125,5.8725586-10.8564453,9.7250977-18.5263672,9.7250977h-0.0527344v14.4208984
	c0,1.1044922-0.8955078,2-2,2H119c-1.1044922,0-2-0.8955078-2-2V90.2109375H43v14.4208984c0,1.1044922-0.8955078,2-2,2H24.5791016
	c-1.1044922,0-2-0.8955078-2-2V90.2109375h-0.0527344C14.8564453,90.2109375,8.0698242,86.3583984,4,80.4858398z M121,102.6318359
	h12.4208984V90.2109375H121V102.6318359z M26.5791016,102.6318359H39V90.2109375H26.5791016V102.6318359z M137.4736328,86.2109375
	C147.6894531,86.2109375,156,77.8999023,156,67.684082V36.6313477c0-4.4111328-3.5888672-8-8-8H12c-4.4111328,0-8,3.5888672-8,8
	V67.684082c0,10.2158203,8.3110352,18.5268555,18.5263672,18.5268555h43.1582031
	c-0.0004883-0.0175781-0.0004883-0.0351563-0.0004883-0.0527344V80c0-1.1044922,0.8955078-2,2-2h24.6313477
	c1.1044922,0,2,0.8955078,2,2v6.1582031c0,0.0175781,0,0.0351563-0.0009766,0.0527344H137.4736328z M69.6835938,86.2109375
	h20.6328125c-0.0009766-0.0175781-0.0009766-0.0351563-0.0009766-0.0527344V82H69.684082v4.1582031
	C69.684082,86.1757813,69.684082,86.1933594,69.6835938,86.2109375z M55.3154297,24.6313477h49.3701172
	c-0.0009766-0.0175781-0.0009766-0.034668-0.0009766-0.0522461v-7.1845703C104.6845703,10.0087891,98.6757813,4,91.2890625,4
	H68.7104492C61.324707,4,55.315918,10.0087891,55.315918,17.3945313v7.1845703
	C55.315918,24.5966797,55.315918,24.6137695,55.3154297,24.6313477z"/>
</svg>
