<?xml version="1.0" encoding="utf-8"?>
<!-- Generator: Adobe Illustrator 23.0.0, SVG Export Plug-In . SVG Version: 6.00 Build 0)  -->
<svg version="1.1" id="icon-calendar" xmlns="http://www.w3.org/2000/svg" xmlns:xlink="http://www.w3.org/1999/xlink" x="0px"
	 y="0px" viewBox="0 0 160 160" enable-background="new 0 0 160 160" xml:space="preserve">
<path d="M151.9179688,160H8.0825195C3.6259766,160,0,156.8496094,0,152.9765625V23.1308594
	c0-3.8730469,3.6259766-7.0239258,8.0825195-7.0239258H19.090332C19.6713867,10.7172852,21.5776367,0,30.6518555,0
	c2.421875,0,4.7558594,1.1132813,6.75,3.2192383c2.9116211,3.0751953,4.7705078,7.9658203,4.9853516,12.8876953h8.3193359
	C51.2875977,10.7172852,53.1938477,0,62.2680664,0c2.421875,0,4.7558594,1.1132813,6.75,3.21875
	c2.9116211,3.0751953,4.7709961,7.965332,4.9858398,12.8881836h9.5341797C84.1201172,10.7172852,86.0263672,0,95.1005859,0
	c2.421875,0,4.7558594,1.1132813,6.75,3.21875c2.9111328,3.0751953,4.7705078,7.9658203,4.9863281,12.8881836h9.5341797
	C116.953125,10.7172852,118.8583984,0,127.9326172,0c2.421875,0,4.7558594,1.1132813,6.75,3.21875
	c2.9111328,3.0751953,4.7705078,7.9658203,4.9863281,12.8881836h12.2490234c4.4560547,0,8.0820313,3.1508789,8.0820313,7.0239258
	v129.8457031C160,156.8496094,156.3740234,160,151.9179688,160z M4,50.8398438v102.1367188
	C4,154.6152344,5.8696289,156,8.0825195,156h143.8354492C154.1308594,156,156,154.6152344,156,152.9765625V50.8398438H4z
	 M4,46.8398438h152V23.1308594c0-1.6391602-1.8691406-3.0239258-4.0820313-3.0239258h-12.3789063
	c-0.4121094,5.3701172-1.9130859,13.7768555-11.2001953,15.703125c-1.0791016,0.2216797-2.140625-0.4711914-2.3642578-1.5522461
	c-0.2246094-1.081543,0.4707031-2.1401367,1.5517578-2.3647461c5.5869141-1.1586914,7.3867188-5.5039063,7.9824219-11.7861328
	h-28.8017578c-0.4121094,5.3701172-1.9130859,13.7768555-11.2001953,15.703125
	c-1.0800781,0.2216797-2.140625-0.4711914-2.3642578-1.5522461c-0.2246094-1.081543,0.4707031-2.1401367,1.5517578-2.3647461
	c5.5869141-1.1586914,7.3867188-5.5039063,7.9824219-11.7861328H73.875
	c-0.4116211,5.3701172-1.9121094,13.7763672-11.2006836,15.703125c-1.0864258,0.2241211-2.1401367-0.4711914-2.3647461-1.5522461
	c-0.2241211-1.081543,0.4707031-2.1401367,1.5522461-2.3647461c5.5878906-1.1586914,7.3867188-5.5043945,7.9829102-11.7861328
	H42.2587891c-0.4116211,5.3696289-1.9116211,13.7763672-11.2006836,15.703125
	c-1.0859375,0.2241211-2.1401367-0.4711914-2.3647461-1.5522461c-0.2241211-1.081543,0.4707031-2.1401367,1.5522461-2.3647461
	c5.5883789-1.1586914,7.387207-5.5043945,7.9829102-11.7861328H8.0825195C5.8696289,20.1069336,4,21.4916992,4,23.1308594
	V46.8398438z M120.4091797,16.1069336h15.2539063c-0.2099609-3.8989258-1.6748047-7.8032227-3.8857422-10.1376953
	C130.9267578,5.0708008,129.5693359,4,127.9326172,4C125.3076172,4,121.7490234,5.3037109,120.4091797,16.1069336z
	 M87.5761719,16.1069336h15.2548828c-0.2099609-3.8989258-1.6748047-7.8032227-3.8857422-10.1376953
	C98.0947266,5.0708008,96.7373047,4,95.1005859,4C92.4755859,4,88.9160156,5.3037109,87.5761719,16.1069336z M54.7441406,16.1069336
	h15.2543945c-0.2099609-3.8989258-1.6748047-7.8032227-3.8852539-10.1376953C65.2626953,5.0708008,63.9052734,4,62.2680664,4
	C59.6430664,4,56.0844727,5.3037109,54.7441406,16.1069336z M23.1279297,16.1069336h15.2539063
	c-0.2094727-3.8984375-1.6743164-7.8032227-3.8847656-10.1376953C33.6464844,5.0708008,32.2890625,4,30.6518555,4
	C28.0268555,4,24.4682617,5.3037109,23.1279297,16.1069336z M133.0146484,137.9931641h-10.5917969c-2.2060547,0-4-1.7939453-4-4
	v-8.0527344c0-2.2060547,1.7939453-4,4-4h10.5917969c2.2060547,0,4,1.7939453,4,4v8.0527344
	C137.0146484,136.1992188,135.2207031,137.9931641,133.0146484,137.9931641z M122.4228516,125.9404297v8.0527344h10.5917969
	v-8.0527344H122.4228516z M100.1826172,137.9931641H89.5908203c-2.2060547,0-4-1.7939453-4-4v-8.0527344
	c0-2.2060547,1.7939453-4,4-4h10.5917969c2.2060547,0,4,1.7939453,4,4v8.0527344
	C104.1826172,136.1992188,102.3886719,137.9931641,100.1826172,137.9931641z M89.5908203,125.9404297v8.0527344h10.5917969
	v-8.0527344H89.5908203z M67.3505859,137.9931641H56.7583008c-2.2055664,0-4-1.7939453-4-4v-8.0527344c0-2.2060547,1.7944336-4,4-4
	h10.5922852c2.2055664,0,4,1.7939453,4,4v8.0527344C71.3505859,136.1992188,69.5561523,137.9931641,67.3505859,137.9931641z
	 M56.7583008,125.9404297v8.0527344h10.5922852v-8.0527344H56.7583008z M35.734375,137.9931641H25.1420898
	c-2.2055664,0-4-1.7939453-4-4v-8.0527344c0-2.2060547,1.7944336-4,4-4H35.734375c2.2055664,0,4,1.7939453,4,4v8.0527344
	C39.734375,136.1992188,37.9399414,137.9931641,35.734375,137.9931641z M25.1420898,125.9404297v8.0527344H35.734375v-8.0527344
	H25.1420898z M133.0146484,110.8740234h-10.5917969c-2.2060547,0-4-1.7939453-4-4v-8.0527344c0-2.2060547,1.7939453-4,4-4
	h10.5917969c2.2060547,0,4,1.7939453,4,4v8.0527344C137.0146484,109.0800781,135.2207031,110.8740234,133.0146484,110.8740234z
	 M122.4228516,98.8212891v8.0527344h10.5917969v-8.0527344H122.4228516z M100.1826172,110.8740234H89.5908203
	c-2.2060547,0-4-1.7939453-4-4v-8.0527344c0-2.2060547,1.7939453-4,4-4h10.5917969c2.2060547,0,4,1.7939453,4,4v8.0527344
	C104.1826172,109.0800781,102.3886719,110.8740234,100.1826172,110.8740234z M89.5908203,98.8212891v8.0527344h10.5917969
	v-8.0527344H89.5908203z M67.3505859,110.8740234H56.7583008c-2.2055664,0-4-1.7939453-4-4v-8.0527344c0-2.2060547,1.7944336-4,4-4
	h10.5922852c2.2055664,0,4,1.7939453,4,4v8.0527344C71.3505859,109.0800781,69.5561523,110.8740234,67.3505859,110.8740234z
	 M56.7583008,98.8212891v8.0527344h10.5922852v-8.0527344H56.7583008z M35.734375,110.8740234H25.1420898
	c-2.2055664,0-4-1.7939453-4-4v-8.0527344c0-2.2060547,1.7944336-4,4-4H35.734375c2.2055664,0,4,1.7939453,4,4v8.0527344
	C39.734375,109.0800781,37.9399414,110.8740234,35.734375,110.8740234z M25.1420898,98.8212891v8.0527344H35.734375v-8.0527344
	H25.1420898z M133.0146484,84.7597656h-10.5917969c-2.2060547,0-4-1.7939453-4-4v-8.0527344c0-2.2055664,1.7939453-4,4-4h10.5917969
	c2.2060547,0,4,1.7944336,4,4v8.0527344C137.0146484,82.9658203,135.2207031,84.7597656,133.0146484,84.7597656z
	 M122.4228516,72.7070313v8.0527344h10.5917969v-8.0527344H122.4228516z M100.1826172,84.7597656H89.5908203
	c-2.2060547,0-4-1.7939453-4-4v-8.0527344c0-2.2055664,1.7939453-4,4-4h10.5917969c2.2060547,0,4,1.7944336,4,4v8.0527344
	C104.1826172,82.9658203,102.3886719,84.7597656,100.1826172,84.7597656z M89.5908203,72.7070313v8.0527344h10.5917969v-8.0527344
	H89.5908203z M67.3505859,84.7597656H56.7583008c-2.2055664,0-4-1.7939453-4-4v-8.0527344c0-2.2055664,1.7944336-4,4-4h10.5922852
	c2.2055664,0,4,1.7944336,4,4v8.0527344C71.3505859,82.9658203,69.5561523,84.7597656,67.3505859,84.7597656z
	 M56.7583008,72.7070313v8.0527344h10.5922852v-8.0527344H56.7583008z M35.734375,84.7597656H25.1420898
	c-2.2055664,0-4-1.7939453-4-4v-8.0527344c0-2.2055664,1.7944336-4,4-4H35.734375c2.2055664,0,4,1.7944336,4,4v8.0527344
	C39.734375,82.9658203,37.9399414,84.7597656,35.734375,84.7597656z M25.1420898,72.7070313v8.0527344H35.734375v-8.0527344
	H25.1420898z"/>
</svg>
