<?xml version="1.0" encoding="utf-8"?>
<!-- Generator: Adobe Illustrator 23.0.0, SVG Export Plug-In . SVG Version: 6.00 Build 0)  -->
<svg version="1.1" id="icon-cart" xmlns="http://www.w3.org/2000/svg" xmlns:xlink="http://www.w3.org/1999/xlink" x="0px" y="0px"
	 viewBox="0 0 160 160" style="enable-background:new 0 0 160 160;" xml:space="preserve">
<path d="M115.5878906,160c-8.9882813,0-16.3476563-7.109375-16.7509766-16H67.7558594
	c-0.9980469,8.9873047-8.640625,16-17.8896484,16c-9.925293,0-18-8.0751953-18-18
	c0-7.5742188,4.7026367-14.0712891,11.3413086-16.7236328l-2.1503906-8.8017578
	c-0.0004883-0.0029297-0.0009766-0.0048828-0.0019531-0.0078125L21.5092773,36.3276367
	c-0.0117188-0.0380859-0.0219727-0.0771484-0.0307617-0.1166992l-0.4213867-1.7368164
	c-0.0224609-0.0917969-0.0380859-0.1835938-0.0473633-0.2758789l-4.4248047-19.0126953l-9.6235352-0.1860352
	c-4.6015625-0.0366211-6.9907227-3.8613281-6.9609375-7.6201172C0.0292969,3.6850586,2.4550781-0.0708008,7.015625,0h17.3481445
	c2.7094727,0,4.8745117,2.4404297,5.9399414,6.6958008L37.1660156,32H158c0.6015625,0,1.1708984,0.2705078,1.5507813,0.7368164
	c0.3798828,0.4658203,0.5292969,1.078125,0.4082031,1.6669922l-14.9345703,72.4243164
	C143.6894531,113.3017578,137.9228516,118,131.3125,118H45.5473633l1.519043,6.2177734
	C47.9794922,124.0742188,48.9140625,124,49.8662109,124c9.2490234,0,16.8916016,7.0126953,17.8896484,16h31.3759766
	c1.5097656-7.7050781,8.3144531-13.5380859,16.4560547-13.5380859c9.2470703,0,16.7695313,7.5224609,16.7695313,16.7685547
	C132.3574219,152.4775391,124.8349609,160,115.5878906,160z M115.5878906,130.4619141
	c-7.0410156,0-12.7685547,5.7275391-12.7685547,12.7685547S108.546875,156,115.5878906,156
	s12.7695313-5.7285156,12.7695313-12.7695313S122.6289063,130.4619141,115.5878906,130.4619141z M46.0878906,128.5175781
	C40.1977539,130.1708984,35.8662109,135.5888672,35.8662109,142c0,7.7197266,6.2802734,14,14,14s14-6.2802734,14-14
	s-6.2802734-14-14-14c-1.2836914,0-2.527832,0.1738281-3.7099609,0.4990234
	C46.1333008,128.5058594,46.1108398,128.5117188,46.0878906,128.5175781z M44.5708008,114H131.3125
	c4.7216797,0,8.8408203-3.3564453,9.7939453-7.9804688L155.5458984,36H35.6791992
	c-0.0302734,0.0004883-0.0600586,0.0014648-0.0883789,0H25.5463867L44.5708008,114z M24.6049805,32h8.4165039L26.4335938,7.7050781
	C25.7226563,4.8691406,24.668457,4,24.3637695,4H7C6.9897461,4,6.9790039,4,6.96875,4
	C4.109375,4,4.0029297,7.0610352,4.0004883,7.4111328C3.9897461,8.7353516,4.6132813,10.980957,7.0161133,11L18.21875,11.2163086
	c0.9155273,0.0175781,1.7016602,0.6542969,1.9091797,1.5463867L24.6049805,32z M115.5878906,148.2304688
	c-2.7568359,0-5-2.2431641-5-5s2.2431641-5,5-5s5,2.2431641,5,5S118.3447266,148.2304688,115.5878906,148.2304688z
	 M115.5878906,142.2304688c-0.5517578,0-1,0.4482422-1,1s0.4482422,1,1,1s1-0.4482422,1-1
	S116.1396484,142.2304688,115.5878906,142.2304688z M49.8662109,147c-2.7568359,0-5-2.2431641-5-5s2.2431641-5,5-5s5,2.2431641,5,5
	S52.6230469,147,49.8662109,147z M49.8662109,141c-0.5512695,0-1,0.4482422-1,1s0.4487305,1,1,1s1-0.4482422,1-1
	S50.4174805,141,49.8662109,141z M121,100h-2c-3.859375,0-7-3.140625-7-7V57c0-3.8598633,3.140625-7,7-7h2
	c3.859375,0,7,3.1401367,7,7v36C128,96.859375,124.859375,100,121,100z M119,54c-1.6542969,0-3,1.3457031-3,3v36
	c0,1.6542969,1.3457031,3,3,3h2c1.6542969,0,3-1.3457031,3-3V57c0-1.6542969-1.3457031-3-3-3H119z M93,100h-2
	c-3.859375,0-7-3.140625-7-7V57c0-3.8598633,3.140625-7,7-7h2c3.859375,0,7,3.1401367,7,7v36C100,96.859375,96.859375,100,93,100z
	 M91,54c-1.6542969,0-3,1.3457031-3,3v36c0,1.6542969,1.3457031,3,3,3h2c1.6542969,0,3-1.3457031,3-3V57
	c0-1.6542969-1.3457031-3-3-3H91z M64,100h-2c-3.8598633,0-7-3.140625-7-7V57c0-3.8598633,3.1401367-7,7-7h2
	c3.8598633,0,7,3.1401367,7,7v36C71,96.859375,67.8598633,100,64,100z M62,54c-1.6542969,0-3,1.3457031-3,3v36
	c0,1.6542969,1.3457031,3,3,3h2c1.6542969,0,3-1.3457031,3-3V57c0-1.6542969-1.3457031-3-3-3H62z"/>
</svg>
