<?xml version="1.0" encoding="utf-8"?>
<!-- Generator: Adobe Illustrator 23.0.0, SVG Export Plug-In . SVG Version: 6.00 Build 0)  -->
<svg version="1.1" id="icon-circular" xmlns="http://www.w3.org/2000/svg" xmlns:xlink="http://www.w3.org/1999/xlink" x="0px"
	 y="0px" viewBox="0 0 160 160" style="enable-background:new 0 0 160 160;" xml:space="preserve">
<path d="M80,160c-21.9375,0-41.8427734-8.8769531-56.3095703-23.2265625c-0.0878906-0.0625-0.171875-0.1337891-0.2504883-0.2128906
	c-0.0791016-0.0791016-0.1499023-0.1621094-0.2128906-0.25C8.8779297,121.8427734,0,101.9375,0,80
	c0-21.9404297,8.8759766-41.8442383,23.2285156-56.3115234c0.0625-0.0869141,0.1328125-0.1704102,0.2114258-0.2485352
	c0.078125-0.0786133,0.1616211-0.1489258,0.2485352-0.2114258C38.1557617,8.8759766,58.0595703,0,80,0
	c21.9375,0,41.8427734,8.8779297,56.3105469,23.2270508c0.0878906,0.0629883,0.1708984,0.1337891,0.25,0.2128906
	c0.0791016,0.0786133,0.1503906,0.1625977,0.2128906,0.2504883C151.1230469,38.1572266,160,58.0625,160,80
	s-8.8759766,41.8417969-23.2255859,56.3085938c-0.0625,0.0878906-0.1347656,0.1728516-0.2138672,0.2519531
	s-0.1640625,0.1513672-0.2519531,0.2138672C121.8417969,151.1240234,101.9375,160,80,160z M27.7177734,135.1113281
	C41.3510742,148.0498047,59.765625,156,80,156s38.6494141-7.9501953,52.2822266-20.8896484l-30.2734375-30.2734375
	C96.1455078,110.0380859,88.4345703,113.2001953,80,113.2001953c-8.4350586,0-16.1459961-3.1621094-22.0087891-8.3632813
	L27.7177734,135.1113281z M24.8891602,27.7177734C11.9501953,41.3505859,4,59.765625,4,80
	s7.9506836,38.6494141,20.8896484,52.2822266l30.2734375-30.2734375C49.9624023,96.1455078,46.7998047,88.4345703,46.7998047,80
	c0-8.4350586,3.1625977-16.1459961,8.3632813-22.0087891L24.8891602,27.7177734z M104.8369141,102.0087891l30.2734375,30.2734375
	C148.0498047,118.6494141,156,100.234375,156,80s-7.9501953-38.6489258-20.8886719-52.2822266l-30.2744141,30.2734375
	c5.2011719,5.862793,8.3632813,13.5737305,8.3632813,22.0087891
	C113.2001953,88.4345703,110.0380859,96.1455078,104.8369141,102.0087891z M80,50.7998047
	c-16.1010742,0-29.2001953,13.0991211-29.2001953,29.2001953c0,16.1005859,13.0991211,29.2001953,29.2001953,29.2001953
	c16.1005859,0,29.2001953-13.0996094,29.2001953-29.2001953C109.2001953,63.8989258,96.1005859,50.7998047,80,50.7998047z
	 M80,46.7998047c8.4345703,0,16.1455078,3.1625977,22.0087891,8.3632813l30.2734375-30.2734375
	C118.6494141,11.9506836,100.234375,4,80,4s-38.6494141,7.9501953-52.2822266,20.8891602l30.2734375,30.2739258
	C63.8540039,49.9624023,71.5649414,46.7998047,80,46.7998047z"/>
</svg>
