<?xml version="1.0" encoding="utf-8"?>
<!-- Generator: Adobe Illustrator 23.0.0, SVG Export Plug-In . SVG Version: 6.00 Build 0)  -->
<svg version="1.1" id="icon-clock" xmlns="http://www.w3.org/2000/svg" xmlns:xlink="http://www.w3.org/1999/xlink" x="0px" y="0px"
	 viewBox="0 0 160 160" style="enable-background:new 0 0 160 160;" xml:space="preserve">
<path d="M80,160c-44.1123047,0-80-35.8876953-80-80S35.8876953,0,80,0s80,35.8876953,80,80S124.1123047,160,80,160z M80,4
	C38.0932617,4,4,38.0932617,4,80c0,41.90625,34.0932617,76,76,76c41.90625,0,76-34.09375,76-76C156,38.0932617,121.90625,4,80,4z
	 M111.1982422,97.5996094c-0.2998047,0-0.6054688-0.0673828-0.8925781-0.2109375L79.1054688,81.7890625
	C78.4282227,81.4501953,78,80.7573242,78,80V33.2001953c0-1.1044922,0.8955078-2,2-2s2,0.8955078,2,2v45.5634766
	l30.0947266,15.046875c0.9882813,0.4941406,1.3886719,1.6953125,0.8945313,2.6835938
	C112.6386719,97.1953125,111.9326172,97.5996094,111.1982422,97.5996094z"/>
</svg>
