<?xml version="1.0" encoding="utf-8"?>
<!-- Generator: Adobe Illustrator 18.0.0, SVG Export Plug-In . SVG Version: 6.00 Build 0)  -->
<!DOCTYPE svg PUBLIC "-//W3C//DTD SVG 1.1//EN" "http://www.w3.org/Graphics/SVG/1.1/DTD/svg11.dtd">
<svg version="1.1" id="icon-cloud" xmlns="http://www.w3.org/2000/svg" xmlns:xlink="http://www.w3.org/1999/xlink" x="0px" y="0px"
	 viewBox="0 0 160 160" style="enable-background:new 0 0 160 160;" xml:space="preserve">
<path d="M69.7368164,160l-26.0234375-25.0965729c-0.7929688-0.764801-0.8129883-2.0252228-0.0439453-2.8143158
	c0.769043-0.7900696,2.0351563-0.8085327,2.828125-0.044693l21.2392578,20.4834595l-0.0004883-52.6022186
	c0-2.2458191,1.8178711-4.073761,4.0527344-4.073761h16.4208984c0.0126953,0,0.0527344-0.028183,0.0527344-0.0932922V43.155899
	L67.0234375,63.6393661c-0.7924805,0.764801-2.0595703,0.7463379-2.828125-0.0437279
	c-0.769043-0.7895851-0.7490234-2.0495148,0.0439453-2.8143158l26.0234375-25.0970573l26.0234375,25.0970573
	c0.7939453,0.764801,0.8134766,2.0247307,0.0449219,2.8143158c-0.7695313,0.7886086-2.0341797,0.8085289-2.828125,0.0437279
	L92.2626953,43.155899V95.758606c0,2.2458191-1.8183594,4.073761-4.0527344,4.073761H71.7890625
	c-0.0126953,0-0.0527344,0.028183-0.0527344,0.0932922l0.0004883,52.6022186l21.2397461-20.4834595
	c0.7910156-0.7638397,2.0585938-0.7453766,2.828125,0.044693c0.7685547,0.789093,0.7490234,2.0495148-0.0449219,2.8143158
	L69.7368164,160z M130.7001953,99.8323669h-13.7529297c-1.1044922,0-2-0.8911362-2-1.9902344s0.8955078-1.9902344,2-1.9902344
	h13.7529297C144.6503906,95.8518982,156,84.2030106,156,69.8850861c0-13.1386528-9.5693359-24.2224426-22.2597656-25.7812004
	l-1.4941406-0.18367l-0.2363281-1.479557c-3.5556641-22.2851715-22.1494141-38.4601898-44.2099609-38.4601898
	c-16.5205078,0-31.6494141,9.2767429-39.4824219,24.2098103l-0.7553711,1.4401989l-1.5688477-0.447998
	c-2.8808594-0.8221359-5.8730469-1.2390366-8.8930664-1.2390366C18.8486328,27.9434414,4,43.1753349,4,61.8974266
	c0,18.7225761,14.8486328,33.9544716,33.1000977,33.9544716h5.9526367c1.1044922,0,2,0.8911362,2,1.9902344
	s-0.8955078,1.9902344-2,1.9902344h-5.9526367C16.6430664,99.8323669,0,82.8152847,0,61.8974266
	c0-20.9173737,16.6430664-37.9344521,37.1000977-37.9344521c2.8510742,0,5.6806641,0.3308964,8.434082,0.9853992
	C54.2553711,9.5187187,70.3071289,0,87.7998047,0c23.5595703,0,43.484375,16.8917179,47.9101563,40.3741417
	C149.6582031,42.8264618,160,55.2527885,160,69.8850861C160,86.3982925,146.8564453,99.8323669,130.7001953,99.8323669z"/>
</svg>
