<?xml version="1.0" encoding="utf-8"?>
<!-- Generator: Adobe Illustrator 23.0.0, SVG Export Plug-In . SVG Version: 6.00 Build 0)  -->
<svg version="1.1" id="icon-code" xmlns="http://www.w3.org/2000/svg" xmlns:xlink="http://www.w3.org/1999/xlink" x="0px" y="0px"
	 viewBox="0 0 160 160" style="enable-background:new 0 0 160 160;" xml:space="preserve">
<path d="M66.2490234,160c-0.1152344,0-0.2324219-0.0097656-0.3496094-0.0302734
	c-1.0878906-0.1923828-1.8144531-1.2294922-1.6225586-2.3173828L91.7841797,1.652832
	c0.1914063-1.0874023,1.2207031-1.8125,2.3173828-1.6225586c1.0878906,0.1918945,1.8134766,1.2294922,1.6220703,2.3168945
	L68.2163086,158.3476563C68.0449219,159.3173828,67.2011719,160,66.2490234,160z M114.3818359,125.6181641
	c-0.5117188,0-1.0234375-0.1953125-1.4140625-0.5859375c-0.78125-0.78125-0.78125-2.046875,0-2.828125L155.171875,80
	l-42.2041016-42.2045898c-0.78125-0.7807617-0.78125-2.0473633,0-2.828125c0.78125-0.78125,2.046875-0.78125,2.828125,0
	l43.6181641,43.6186523c0.78125,0.7807617,0.78125,2.0473633,0,2.828125l-43.6181641,43.6181641
	C115.4052734,125.4228516,114.8935547,125.6181641,114.3818359,125.6181641z M45.6186523,125.6181641
	c-0.5117188,0-1.0234375-0.1953125-1.4140625-0.5859375L0.5859375,81.4140625C0.2109375,81.0390625,0,80.5302734,0,80
	s0.2109375-1.0390625,0.5859375-1.4140625l43.6186523-43.6186523c0.7802734-0.78125,2.046875-0.78125,2.828125,0
	c0.78125,0.7807617,0.78125,2.0473633,0,2.828125L4.8286133,80l42.2041016,42.2041016c0.78125,0.78125,0.78125,2.046875,0,2.828125
	C46.6425781,125.4228516,46.1303711,125.6181641,45.6186523,125.6181641z"/>
</svg>
