<?xml version="1.0" encoding="utf-8"?>
<!-- Generator: Adobe Illustrator 23.0.0, SVG Export Plug-In . SVG Version: 6.00 Build 0)  -->
<svg version="1.1" id="icon-codepen" xmlns="http://www.w3.org/2000/svg" xmlns:xlink="http://www.w3.org/1999/xlink" x="0px"
	 y="0px" viewBox="0 0 160 160" style="enable-background:new 0 0 160 160;" xml:space="preserve">
<path d="M80,160c-0.003418,0-0.0058594,0-0.0073242,0c-0.0039063,0-0.0068359-0.0009766-0.0083008,0
	c-0.0029297,0-0.0048828-0.0009766-0.0063477,0c-0.0004883,0-0.0004883,0-0.0004883,0
	c-0.4038086-0.0048828-0.7792969-0.1289063-1.0917969-0.3388672L0.9487305,109.0019531
	c-0.2094727-0.1289063-0.3979492-0.2988281-0.5527344-0.5078125c-0.0205078-0.0273438-0.0400391-0.0546875-0.059082-0.0830078
	C0.1040039,108.0625-0.0048828,107.6669922,0,107.2753906V52.7241211c-0.0048828-0.390625,0.1040039-0.7866211,0.3369141-1.1347656
	c0.019043-0.0283203,0.0385742-0.0561523,0.059082-0.0839844c0.1547852-0.2080078,0.3427734-0.3774414,0.5517578-0.5063477
	L78.8857422,0.3388672C79.1982422,0.1289063,79.5737305,0.0043945,79.9775391,0c-0.0009766,0,0.0024414,0,0.0043945,0
	c0.0019531-0.0004883,0.0039063-0.0009766,0.0068359,0c0.0014648,0,0.0014648,0,0.0058594,0c0.0029297,0,0.0078125,0,0.0107422,0
	c0.0043945,0,0.0043945,0,0.0058594,0c0.0024414,0,0.0048828,0,0.0068359,0s0.0053711,0,0.0043945,0
	c0.4038086,0.0043945,0.7792969,0.1289063,1.0917969,0.3388672l77.9375,50.6591797
	c0.2089844,0.1293945,0.3974609,0.2993164,0.5527344,0.5073242c0.0195313,0.027832,0.0400391,0.0556641,0.0585938,0.0839844
	C159.8955078,51.9375,160.0048828,52.3334961,160,52.7241211v54.5512695
	c0.0048828,0.3916016-0.1044922,0.7871094-0.3369141,1.1357422c-0.0185547,0.0283203-0.0390625,0.0556641-0.0585938,0.0830078
	c-0.1552734,0.2080078-0.34375,0.3779297-0.5527344,0.5068359l-77.9375,50.6601563
	c-0.3125,0.2099609-0.6879883,0.3339844-1.0917969,0.3388672c0.0009766,0-0.0024414,0-0.0043945,0
	c-0.0024414,0-0.0043945-0.0009766-0.0068359,0c-0.0014648,0-0.0014648,0-0.0058594,0C80.0039063,160,80.0019531,160,80,160z
	 M82,108.3408203v45.9736328l72.4248047-47.0761719L119,82.4414063L82,108.3408203z M5.5751953,107.2382813L78,154.3144531
	v-45.9736328L41,82.4414063L5.5751953,107.2382813z M44.487793,80L80,104.8583984L115.5126953,80L80,55.1416016L44.487793,80z
	 M122.4873047,80L156,103.4589844V56.5415039L122.4873047,80z M4,56.5415039v46.9174805L37.512207,80L4,56.5415039z M82,51.6586914
	l37,25.8999023l35.4248047-24.796875L82,5.6855469V51.6586914z M5.5751953,52.7617188L41,77.5585938l37-25.8999023V5.6855469
	L5.5751953,52.7617188z"/>
</svg>
