<?xml version="1.0" encoding="utf-8"?>
<!-- Generator: Adobe Illustrator 23.0.0, SVG Export Plug-In . SVG Version: 6.00 Build 0)  -->
<svg version="1.1" id="icon-coding" xmlns="http://www.w3.org/2000/svg" xmlns:xlink="http://www.w3.org/1999/xlink" x="0px"
	 y="0px" viewBox="0 0 160 160" style="enable-background:new 0 0 160 160;" xml:space="preserve">
<path d="M158,160H2c-1.1044922,0-2-0.8955078-2-2V2c0-1.1044922,0.8955078-2,2-2h156c1.1044922,0,2,0.8955078,2,2v156
	C160,159.1044922,159.1044922,160,158,160z M4,156h152V49.1577148H4V156z M4,45.1577148h152V4H4V45.1577148z
	 M72.8735352,145.0078125c-0.1152344,0-0.2324219-0.0097656-0.3496094-0.0302734
	c-1.0878906-0.1923828-1.8144531-1.2294922-1.6225586-2.3173828l14.2578125-80.8574219
	c0.1914063-1.0874023,1.2226563-1.8129883,2.3173828-1.6225586c1.0878906,0.1918945,1.8134766,1.2294922,1.6220703,2.3168945
	l-14.2578125,80.8583984C74.6694336,144.3251953,73.8256836,145.0078125,72.8735352,145.0078125z M107.9667969,130.75
	c-0.5117188,0-1.0234375-0.1953125-1.4140625-0.5859375c-0.78125-0.78125-0.78125-2.046875,0-2.828125l24.7568359-24.7568359
	l-24.7568359-24.7573242c-0.78125-0.7807617-0.78125-2.0473633,0-2.828125c0.78125-0.78125,2.046875-0.78125,2.828125,0
	l26.1708984,26.1713867c0.78125,0.78125,0.78125,2.046875,0,2.828125l-26.1708984,26.1708984
	C108.9902344,130.5546875,108.4785156,130.75,107.9667969,130.75z M52.0327148,130.75
	c-0.5117188,0-1.0239258-0.1953125-1.4140625-0.5859375l-26.1708984-26.1708984c-0.78125-0.78125-0.78125-2.046875,0-2.828125
	l26.1708984-26.1713867c0.7802734-0.78125,2.046875-0.78125,2.828125,0c0.78125,0.7807617,0.78125,2.0473633,0,2.828125
	l-24.7563477,24.7573242l24.7563477,24.7568359c0.78125,0.78125,0.78125,2.046875,0,2.828125
	C53.0566406,130.5546875,52.5444336,130.75,52.0327148,130.75z M100.5263672,29.5791016c-2.7568359,0-5-2.2431641-5-5
	s2.2431641-5,5-5s5,2.2431641,5,5S103.2832031,29.5791016,100.5263672,29.5791016z M100.5263672,23.5791016
	c-0.5517578,0-1,0.4487305-1,1s0.4482422,1,1,1s1-0.4487305,1-1S101.078125,23.5791016,100.5263672,23.5791016z
	 M39.0263672,29.5791016c-2.7568359,0-5-2.2431641-5-5s2.2431641-5,5-5s5,2.2431641,5,5
	S41.7832031,29.5791016,39.0263672,29.5791016z M39.0263672,23.5791016c-0.5512695,0-1,0.4487305-1,1s0.4487305,1,1,1
	s1-0.4487305,1-1S39.5776367,23.5791016,39.0263672,23.5791016z M22.5263672,29.5791016c-2.7568359,0-5-2.2431641-5-5
	s2.2431641-5,5-5s5,2.2431641,5,5S25.2832031,29.5791016,22.5263672,29.5791016z M22.5263672,23.5791016
	c-0.5512695,0-1,0.4487305-1,1s0.4487305,1,1,1s1-0.4487305,1-1S23.0776367,23.5791016,22.5263672,23.5791016z
	 M141.5791016,26.5791016h-24.6318359c-1.1044922,0-2-0.8955078-2-2s0.8955078-2,2-2h24.6318359c1.1044922,0,2,0.8955078,2,2
	S142.6835938,26.5791016,141.5791016,26.5791016z"/>
</svg>
