<?xml version="1.0" encoding="utf-8"?>
<!-- Generator: Adobe Illustrator 23.0.0, SVG Export Plug-In . SVG Version: 6.00 Build 0)  -->
<svg version="1.1" id="icon-comment" xmlns="http://www.w3.org/2000/svg" xmlns:xlink="http://www.w3.org/1999/xlink" x="0px"
	 y="0px" viewBox="0 0 160 160" style="enable-background:new 0 0 160 160;" xml:space="preserve">
<path d="M36.4106445,151.8632813c-0.6108398,0-1.2246094-0.1416016-1.7963867-0.4277344
	c-1.3618164-0.6826172-2.2075195-2.0527344-2.2075195-3.5761719v-22.2695313H12c-6.6166992,0-12-5.3828125-12-12v-93.453125
	c0-6.6166992,5.3833008-12,12-12h136c6.6171875,0,12,5.3833008,12,12v93.4589844c0,6.6171875-5.3828125,12-12,12H72.8911133
	l-34.090332,25.46875C38.0927734,151.5927734,37.2548828,151.8632813,36.4106445,151.8632813z M12,12.1367188
	c-4.4111328,0-8,3.5888672-8,8v93.453125c0,4.4111328,3.5888672,8,8,8h22.4067383c1.1044922,0,2,0.8955078,2,2v24.2695313
	l34.6230469-25.8662109c0.3452148-0.2578125,0.7651367-0.3974609,1.1967773-0.3974609H148c4.4111328,0,8-3.5888672,8-8V20.1367188
	c0-4.4111328-3.5888672-8-8-8H12z M114.9970703,71.0795898c-1.3251953,0-2.6044922-0.5185547-3.5507813-1.4672852
	c-1.1689453-1.171875-1.6806641-2.8510742-1.3691406-4.4916992c0.3759766-1.9824219,1.9609375-3.5688477,3.9433594-3.9477539
	c1.6435547-0.3154297,3.3291016,0.199707,4.5039063,1.3759766c1.1728516,1.175293,1.6845703,2.859375,1.3681641,4.5048828
	c-0.3818359,1.984375-1.9726563,3.5673828-3.9589844,3.9389648
	C115.6210938,71.0512695,115.3076172,71.0795898,114.9970703,71.0795898z M114.9873047,65.0805664
	c-0.0683594,0-0.140625,0.0063477-0.2167969,0.0209961c-0.3652344,0.0698242-0.6943359,0.3989258-0.7636719,0.7651367
	c-0.0898438,0.4741211,0.1318359,0.7802734,0.2714844,0.9208984c0.1396484,0.1401367,0.4501953,0.3637695,0.9189453,0.2734375l0,0
	c0.3671875-0.0688477,0.6972656-0.3964844,0.7675781-0.7626953c0.0908203-0.4755859-0.1308594-0.7827148-0.2714844-0.9233398
	C115.5751953,65.2563477,115.3398438,65.0805664,114.9873047,65.0805664z M45.0366211,71.0795898
	c-1.324707,0-2.6044922-0.5185547-3.5512695-1.4677734c-1.168457-1.1713867-1.6801758-2.8505859-1.3686523-4.4912109
	c0.3754883-1.9819336,1.9604492-3.5688477,3.9433594-3.9477539c1.6450195-0.3154297,3.3295898,0.2001953,4.503418,1.3754883
	c1.1738281,1.1757813,1.6855469,2.8598633,1.3686523,4.5053711c-0.3813477,1.984375-1.9726563,3.5673828-3.9589844,3.9389648
	C45.6611328,71.0512695,45.3476563,71.0795898,45.0366211,71.0795898z M45.0268555,65.0805664
	c-0.0678711,0-0.1401367,0.0068359-0.2163086,0.0209961C44.4443359,65.171875,44.1157227,65.5,44.0463867,65.8657227
	c-0.0898438,0.4750977,0.1313477,0.78125,0.2714844,0.9213867c0.1396484,0.1401367,0.4462891,0.3618164,0.9199219,0.2739258l0,0
	c0.3666992-0.0688477,0.6958008-0.3964844,0.7666016-0.7626953c0.0913086-0.4755859-0.1308594-0.7827148-0.2714844-0.9238281
	C45.6147461,65.2563477,45.3798828,65.0805664,45.0268555,65.0805664z M80.0112305,71.0795898
	c-1.324707,0-2.6044922-0.5185547-3.5507813-1.4672852c-1.1689453-1.1713867-1.6806641-2.8505859-1.3696289-4.4912109
	c0.3764648-1.9829102,1.9609375-3.5693359,3.9433594-3.9482422c1.6459961-0.3154297,3.3300781,0.2001953,4.5029297,1.3754883
	c1.1738281,1.1757813,1.6855469,2.8598633,1.3691406,4.5053711c-0.3818359,1.984375-1.9716797,3.5673828-3.9580078,3.9389648
	c-0.0004883,0-0.0004883,0-0.0004883,0C80.6357422,71.0512695,80.3222656,71.0795898,80.0112305,71.0795898z M80.5800781,69.0268555
	h0.0097656H80.5800781z M80.0009766,65.0805664c-0.0678711,0-0.1401367,0.0068359-0.2163086,0.0209961
	c-0.3657227,0.0703125-0.6948242,0.3989258-0.7641602,0.7651367c-0.0898438,0.4741211,0.1318359,0.7802734,0.2719727,0.9208984
	c0.1396484,0.1396484,0.4433594,0.3613281,0.9194336,0.2734375l0,0c0.3666992-0.0688477,0.6958008-0.3964844,0.7666016-0.7626953
	c0.0917969-0.4755859-0.1308594-0.7827148-0.2714844-0.9238281C80.5888672,65.2563477,80.3540039,65.0805664,80.0009766,65.0805664z
	"/>
</svg>
