<?xml version="1.0" encoding="utf-8"?>
<!-- Generator: Adobe Illustrator 23.0.0, SVG Export Plug-In . SVG Version: 6.00 Build 0)  -->
<svg version="1.1" id="icon-computer" xmlns="http://www.w3.org/2000/svg" xmlns:xlink="http://www.w3.org/1999/xlink" x="0px"
	 y="0px" viewBox="0 0 160 160" style="enable-background:new 0 0 160 160;" xml:space="preserve">
<path d="M146,160H14c-7.7197266,0-14-6.2802734-14-14v-28.5078125c0-7.7197266,6.2802734-14,14-14h26.3740234
	c-3.7783203-1.1699219-6.7036133-4.2773438-7.8549805-8.5917969l-0.1679688-0.6455078
	c-0.2197266-0.8554688-0.8588867-3.3408203-1.4462891-4.0839844c-2.1196289,0.1035156-4.2421875,0.0644531-6.296875,0.0263672
	l-0.8144531-0.0146484C19.0048828,90.0927734,18,87.0195313,18,84.4570313
	c0.0200195-28.4614258,0.0605469-54.2426758,0.1235352-78.8183594c0.0146484-5.0375977,3.5205078-5.6245117,6.15625-5.6279297
	c12.8540039-0.0161133,99.3530273-0.0117188,111.2436523-0.0039063c4.8867188,0.0048828,6.3779297,1.4941406,6.3828125,6.3735352
	c0.0371094,25.8217773,0.0712891,51.6450195,0.09375,77.4672852l0,0c0.0048828,4.7724609-1.5585938,6.3134766-6.4355469,6.3427734
	c-0.2851563,0.0009766-0.5664063,0.0097656-0.8486328,0.0175781c-0.75,0.0244141-1.5283203,0.0458984-2.3525391-0.0449219
	c-2.2636719-0.2480469-4.3095703,3.2060547-5.3105469,6.7490234c-0.9794922,3.46875-3.7402344,5.6503906-6.7773438,6.5800781H146
	c7.7197266,0,14,6.2802734,14,14V146C160,153.7197266,153.7197266,160,146,160z M14,107.4921875c-5.5141602,0-10,4.4863281-10,10
	V146c0,5.5136719,4.4858398,10,10,10h132c5.5136719,0,10-4.4863281,10-10v-28.5078125c0-5.5136719-4.4863281-10-10-10H14z
	 M47.2358398,103.4921875h66.1088867c-3.8964844-1.1376953-6.6962891-4.0166016-7.8359375-8.1621094
	c-0.4580078-1.6738281-1.7636719-2.9707031-3.0449219-2.9169922c-15.046875,0.0888672-28.1943359,0.0507813-43.4145508,0.0048828
	l-1.6025391-0.0048828c-0.0004883,0-0.0014648,0-0.0019531,0c-0.7685547,0-1.956543,1.0664063-2.277832,2.3935547
	C54.1328125,99.0878906,51.1103516,102.2958984,47.2358398,103.4921875z M102.4785156,88.4130859
	c3.0634766,0,5.9570313,2.4570313,6.8876953,5.8583984c0.9375,3.4101563,3.2128906,5.3291016,6.7617188,5.7021484
	c2.7861328,0.2949219,6.203125-1.0576172,7.0751953-4.1474609c1.8076172-6.4042969,5.5039063-10.1064453,9.6005859-9.6386719
	c0.5449219,0.0585938,1.1513672,0.0419922,1.7939453,0.0224609c0.3154297-0.0087891,0.6318359-0.0185547,0.9472656-0.0195313
	c1.7392578-0.0107422,2.171875-0.1738281,2.2763672-0.2441406C137.8349609,85.90625,138.0019531,85.5185547,138,83.8515625l0,0
	c-0.0224609-25.8222656-0.0566406-51.6445313-0.09375-77.4663086c-0.0019531-1.6953125-0.1494141-2.1225586-0.2128906-2.2280273
	c-0.0419922-0.0004883-0.4716797-0.1484375-2.1728516-0.1503906C123.6328125,3.9990234,37.1391602,3.9951172,24.284668,4.0107422
	c-2.15625,0.0029297-2.1572266,0.2207031-2.1611328,1.6391602C22.0605469,30.222168,22.0200195,56.0009766,22,84.4580078
	c0,1.3691406,0.171875,1.6933594,1.8662109,1.7246094l0.8173828,0.015625
	c2.0864258,0.0390625,4.2451172,0.0810547,6.3203125-0.0390625c3.3320313-0.1835938,4.4741211,4.1962891,5.2211914,7.0986328
	l0.1586914,0.6103516c1.0107422,3.7890625,3.9916992,6.1787109,7.5688477,6.1337891
	c3.5102539-0.0595703,6.4545898-2.5263672,7.3261719-6.1367188c0.7421875-3.0595703,3.4501953-5.4521484,6.1679688-5.4521484
	c0.003418,0,0.0068359,0,0.0102539,0l1.6044922,0.0048828c15.2104492,0.0449219,28.3476563,0.0839844,43.3769531-0.0048828
	C102.4511719,88.4130859,102.4648438,88.4130859,102.4785156,88.4130859z M144.2724609,146.1113281H80.2729492
	c-1.1044922,0-2-0.8955078-2-2v-24.0029297c0-1.1044922,0.8955078-2,2-2h63.9995117c1.1044922,0,2,0.8955078,2,2v24.0029297
	C146.2724609,145.2158203,145.3769531,146.1113281,144.2724609,146.1113281z M82.2734375,142.1113281h59.9990234v-20.0029297
	H82.2734375V142.1113281z M55,145.0205078c-1.1044922,0-2-0.8955078-2-2v-13.0019531c0-1.1044922,0.8955078-2,2-2s2,0.8955078,2,2
	v13.0019531C57,144.125,56.1044922,145.0205078,55,145.0205078z M45,145.0205078c-1.1044922,0-2-0.8955078-2-2v-13.0019531
	c0-1.1044922,0.8955078-2,2-2s2,0.8955078,2,2v13.0019531C47,144.125,46.1044922,145.0205078,45,145.0205078z M35,145.0205078
	c-1.1044922,0-2-0.8955078-2-2v-13.0019531c0-1.1044922,0.8955078-2,2-2s2,0.8955078,2,2v13.0019531
	C37,144.125,36.1044922,145.0205078,35,145.0205078z M25,145.0205078c-1.1044922,0-2-0.8955078-2-2v-13.0019531
	c0-1.1044922,0.8955078-2,2-2s2,0.8955078,2,2v13.0019531C27,144.125,26.1044922,145.0205078,25,145.0205078z M15,145.0205078
	c-1.1044922,0-2-0.8955078-2-2v-13.0019531c0-1.1044922,0.8955078-2,2-2s2,0.8955078,2,2v13.0019531
	C17,144.125,16.1044922,145.0205078,15,145.0205078z M126,139.5009766c-1.1044922,0-2-0.8955078-2-2V134.5h-7
	c-1.1044922,0-2-0.8955078-2-2s0.8955078-2,2-2h7v-4.0009766c0-1.1044922,0.8955078-2,2-2s2,0.8955078,2,2V130.5h7
	c1.1044922,0,2,0.8955078,2,2s-0.8955078,2-2,2h-7v3.0009766C128,138.6054688,127.1044922,139.5009766,126,139.5009766z
	 M99,139.5009766c-1.1044922,0-2-0.8955078-2-2V134.5h-7c-1.1044922,0-2-0.8955078-2-2s0.8955078-2,2-2h7v-4.0009766
	c0-1.1044922,0.8955078-2,2-2s2,0.8955078,2,2V130.5h7c1.1044922,0,2,0.8955078,2,2s-0.8955078,2-2,2h-7v3.0009766
	C101,138.6054688,100.1044922,139.5009766,99,139.5009766z M105.2353516,79.0424805
	c-4.0957031,0-8.1269531-0.0009766-12.2197266-0.0014648l-13.0180664-0.0019531l-13.0185547,0.0019531
	c-8.2578125,0.0014648-16.262207,0.0024414-25.0576172-0.0019531C36.9970703,79.0341797,32.9956055,74.8901367,33,69.8007813
	c0.0087891-7.8549805,0.0029297-14.918457-0.0029297-21.9267578C32.9907227,39.8007813,32.9838867,31.8012695,33,22.7529297
	c0-0.0004883,0-0.0004883,0-0.0009766c0.0117188-5.3178711,2.9628906-9.034668,7.1762695-9.0395508
	c12.9702148-0.0019531,25.6396484-0.0498047,37.8920898-0.0961914c12.9306641-0.0488281,26.296875-0.0859375,40.0048828-0.0961914
	c4.5703125,0,8.90625,4.4858398,8.9208984,9.2304688C127.0185547,32,127.0087891,40.0893555,126.9990234,48.28125
	c-0.0078125,6.8540039-0.0166016,13.7797852-0.0048828,21.5185547c0.0048828,2.3735352-1.0234375,4.7705078-2.8232422,6.5756836
	c-1.7099609,1.715332-3.875,2.6611328-6.0966797,2.6635742C113.6376953,79.0415039,109.4023438,79.0424805,105.2353516,79.0424805z
	 M79.9975586,75.0390625l13.019043,0.0019531c8.2548828,0,16.2578125,0.0024414,25.0546875-0.0019531
	c1.1513672-0.0009766,2.3115234-0.5292969,3.2666016-1.487793c1.0400391-1.0429688,1.6591797-2.4428711,1.65625-3.7441406
	c-0.0117188-7.7436523-0.0029297-14.6733398,0.0048828-21.5307617c0.0097656-8.1870117,0.0195313-16.2709961-0.0048828-25.5146484
	c-0.0078125-2.4980469-2.5839844-5.2416992-4.921875-5.2416992c-13.703125,0.0043945-27.0634766,0.046875-39.9887695,0.0957031
	c-12.2558594,0.046875-24.9291992,0.0947266-37.9042969,0.0966797C37.6787109,17.715332,37.0039063,20.887207,37,22.7607422
	c-0.0161133,9.0439453-0.0092773,17.0405273-0.0029297,25.1098633C37.0029297,54.8813477,37.0087891,61.9477539,37,69.8051758
	c-0.0024414,2.8828125,2.206543,5.230957,4.9243164,5.2338867c8.7939453,0.0043945,16.7958984,0.0029297,25.0541992,0.0019531
	L79.9975586,75.0390625z M72.1113281,61.0083008c-0.3291016,0-0.6591797-0.0810547-0.9584961-0.2446289
	c-0.6420898-0.3505859-1.0415039-1.0239258-1.0415039-1.7553711V31.0043945c0-0.7314453,0.3994141-1.4047852,1.0415039-1.7553711
	c0.6416016-0.3510742,1.4238281-0.3232422,2.0400391,0.0732422l21.777832,14.0019531
	c0.5722656,0.3676758,0.9179688,1.0014648,0.9179688,1.6821289s-0.3457031,1.3144531-0.9179688,1.6821289l-21.777832,14.0019531
	C72.8642578,60.9018555,72.4882813,61.0083008,72.1113281,61.0083008z M74.1113281,34.6679688v20.6767578l16.0791016-10.3383789
	L74.1113281,34.6679688z"/>
</svg>
