<?xml version="1.0" encoding="utf-8"?>
<!-- Generator: Adobe Illustrator 18.0.0, SVG Export Plug-In . SVG Version: 6.00 Build 0)  -->
<!DOCTYPE svg PUBLIC "-//W3C//DTD SVG 1.1//EN" "http://www.w3.org/Graphics/SVG/1.1/DTD/svg11.dtd">
<svg version="1.1" id="icon-connect" xmlns="http://www.w3.org/2000/svg" xmlns:xlink="http://www.w3.org/1999/xlink" x="0px"
	 y="0px" viewBox="0 0 160 160" style="enable-background:new 0 0 160 160;" xml:space="preserve">
<path d="M142.6054688,160H69.7368164c-9.5913086,0-17.3945313-7.8027344-17.3945313-17.3945313V69.7368164
	c0-9.5913086,7.8032227-17.3945313,17.3945313-17.3945313h15.3950195c1.1044922,0,2,0.8955078,2,2s-0.8955078,2-2,2H69.7368164
	c-7.3857422,0-13.3945313,6.0087891-13.3945313,13.3945313v72.8686523C56.3422852,149.9912109,62.3510742,156,69.7368164,156
	h72.8686523C149.9912109,156,156,149.9912109,156,142.6054688V69.7368164c0-7.3857422-6.0087891-13.3945313-13.3945313-13.3945313
	h-16.421875c-1.1044922,0-2-0.8955078-2-2s0.8955078-2,2-2h16.421875C152.1972656,52.3422852,160,60.1455078,160,69.7368164
	v72.8686523C160,152.1972656,152.1972656,160,142.6054688,160z M90.2626953,107.6582031H73.8417969c-1.1044922,0-2-0.8955078-2-2
	s0.8955078-2,2-2h16.4208984c7.3867188,0,13.3955078-6.0087891,13.3955078-13.3955078V17.3945313
	C103.6582031,10.0087891,97.6494141,4,90.2626953,4H17.3945313C10.0087891,4,4,10.0087891,4,17.3945313v72.8681641
	c0,7.3867188,6.0087891,13.3955078,13.3945313,13.3955078h15.3955078c1.1044922,0,2,0.8955078,2,2s-0.8955078,2-2,2H17.3945313
	C7.8032227,107.6582031,0,99.8544922,0,90.2626953V17.3945313C0,7.8032227,7.8032227,0,17.3945313,0h72.8681641
	c9.5917969,0,17.3955078,7.8032227,17.3955078,17.3945313v72.8681641
	C107.6582031,99.8544922,99.8544922,107.6582031,90.2626953,107.6582031z"/>
</svg>
