<?xml version="1.0" encoding="utf-8"?>
<!-- Generator: Adobe Illustrator 23.0.0, SVG Export Plug-In . SVG Version: 6.00 Build 0)  -->
<svg version="1.1" id="icon-cross" xmlns="http://www.w3.org/2000/svg" xmlns:xlink="http://www.w3.org/1999/xlink" x="0px" y="0px"
	 viewBox="0 0 160 160" style="enable-background:new 0 0 160 160;" xml:space="preserve">
<path d="M135.1542969,137.1542969c-0.5117188,0-1.0234375-0.1953125-1.4140625-0.5859375L80,82.828125l-53.7402344,53.7402344
	c-0.7802734,0.78125-2.0478516,0.78125-2.828125,0c-0.78125-0.78125-0.78125-2.046875,0-2.828125L77.1713867,80
	L23.4316406,26.2597656c-0.78125-0.7807617-0.78125-2.0473633,0-2.828125c0.7802734-0.78125,2.0478516-0.78125,2.828125,0
	L80,77.1713867l53.7402344-53.7397461c0.78125-0.78125,2.046875-0.78125,2.828125,0c0.78125,0.7807617,0.78125,2.0473633,0,2.828125
	L82.828125,80l53.7402344,53.7402344c0.78125,0.78125,0.78125,2.046875,0,2.828125
	C136.1777344,136.9589844,135.6660156,137.1542969,135.1542969,137.1542969z"/>
</svg>
