<?xml version="1.0" encoding="utf-8"?>
<!-- Generator: Adobe Illustrator 18.0.0, SVG Export Plug-In . SVG Version: 6.00 Build 0)  -->
<!DOCTYPE svg PUBLIC "-//W3C//DTD SVG 1.1//EN" "http://www.w3.org/Graphics/SVG/1.1/DTD/svg11.dtd">
<svg version="1.1" id="icon-design" xmlns="http://www.w3.org/2000/svg" xmlns:xlink="http://www.w3.org/1999/xlink" x="0px"
	 y="0px" viewBox="0 0 160 160" style="enable-background:new 0 0 160 160;" xml:space="preserve">
<path d="M116.9472656,160H43.0527344c-1.1044922,0-2-0.8955078-2-2v-20.5263672c0-1.1044922,0.8955078-2,2-2H58.5v-12.3681641
	c0-0.1933594,0.0273438-0.3798828,0.078125-0.5556641L43.2084961,76.5874023
	c-0.2021484-0.6044922-0.1040039-1.2695313,0.2646484-1.7895508l32.6772461-46.1665039H67.684082c-1.1044922,0-2-0.8955078-2-2
	v-9.8745117c-31.7504883,6.5874023-54.7084961,34.0996094-55.5048828,66.6279297
	c3.5239258,0.9023438,6.1367188,4.1035156,6.1367188,7.9042969c0,4.4980469-3.659668,8.1582031-8.1582031,8.1582031
	C3.659668,99.4472656,0,95.7871094,0,91.2890625C0,87.4736328,2.6333008,84.2617188,6.1782227,83.375
	c0.7041016-30.2651367,19.5537109-56.434082,46.925293-67.059082H28.4921875
	C27.5166016,23.2666016,21.53125,28.6313477,14.315918,28.6313477C6.421875,28.6313477,0,22.2094727,0,14.315918
	C0,6.421875,6.421875,0,14.315918,0c7.215332,0,13.2006836,5.3652344,14.1762695,12.315918H65.684082V2c0-1.1044922,0.8955078-2,2-2
	h24.6313477c1.1044922,0,2,0.8955078,2,2v10.315918h37.1923828C132.4833984,5.3652344,138.46875,0,145.6845703,0
	C153.578125,0,160,6.421875,160,14.315918c0,7.8935547-6.421875,14.3154297-14.3154297,14.3154297
	c-7.2158203,0-13.2011719-5.3647461-14.1767578-12.3154297h-24.6113281
	c27.3710938,10.625,46.2207031,36.7939453,46.9248047,67.059082C157.3662109,84.2617188,160,87.4736328,160,91.2890625
	c0,4.4980469-3.6601563,8.1582031-8.1582031,8.1582031s-8.1572266-3.6601563-8.1572266-8.1582031
	c0-3.8007813,2.6123047-7.0019531,6.1357422-7.9033203c-0.796875-32.5292969-23.7548828-60.0415039-55.5048828-66.6289063v9.8745117
	c0,1.1044922-0.8955078,2-2,2h-8.4658203l27.2246094,38.453125c5.8203125,8.2202148,5.8203125,8.2202148,5.8203125,8.8569336
	c0,0.215332-0.0351563,0.4296875-0.1035156,0.6342773l-15.3691406,45.9741211
	c0.0507813,0.1757813,0.078125,0.3623047,0.078125,0.5556641v12.3681641h15.4472656c1.1044922,0,2,0.8955078,2,2V158
	C118.9472656,159.1044922,118.0517578,160,116.9472656,160z M45.0527344,156h69.8945313v-16.5263672H45.0527344V156z
	 M62.5,135.4736328h35v-10.3681641h-35V135.4736328z M62.3129883,121.1054688h35.3735352l14.9892578-44.8364258
	C109.0996094,71.2177734,90.0771484,44.3496094,82,32.940918v37.0454102C86.6757813,70.918457,90.2109375,75.0541992,90.2109375,80
	c0,5.6298828-4.5810547,10.2109375-10.2109375,10.2109375S69.7895508,85.6298828,69.7895508,80
	c0-4.9458008,3.534668-9.081543,8.2104492-10.0136719V32.9418945L47.3237305,76.2807617L62.3129883,121.1054688z
	 M151.8417969,87.1318359c-2.2919922,0-4.1572266,1.8652344-4.1572266,4.1572266
	c0,2.2929688,1.8652344,4.1582031,4.1572266,4.1582031c2.2929688,0,4.1582031-1.8652344,4.1582031-4.1582031
	C156,88.9970703,154.1347656,87.1318359,151.8417969,87.1318359z M8.1577148,87.1318359
	C5.8652344,87.1318359,4,88.9970703,4,91.2890625c0,2.2929688,1.8652344,4.1582031,4.1577148,4.1582031
	c2.2929688,0,4.1582031-1.8652344,4.1582031-4.1582031C12.315918,88.9970703,10.4506836,87.1318359,8.1577148,87.1318359z
	 M80,73.7895508c-3.4243164,0-6.2104492,2.7861328-6.2104492,6.2104492c0,3.4248047,2.7861328,6.2109375,6.2104492,6.2109375
	c3.4248047,0,6.2109375-2.7861328,6.2109375-6.2109375C86.2109375,76.5756836,83.4248047,73.7895508,80,73.7895508z M145.6845703,4
	c-5.6884766,0-10.3164063,4.6279297-10.3164063,10.315918s4.6279297,10.3154297,10.3164063,10.3154297
	c5.6875,0,10.3154297-4.6274414,10.3154297-10.3154297S151.3720703,4,145.6845703,4z M80,24.6313477h10.3154297v-10.159668
	c-0.0058594-0.0849609-0.0058594-0.1713867,0-0.2583008V4H69.684082v10.2851563c0.0004883,0.0234375,0.0004883,0.046875,0,0.0703125
	v10.2758789H80z M14.315918,4C8.6279297,4,4,8.6279297,4,14.315918s4.6279297,10.3154297,10.315918,10.3154297
	s10.3154297-4.6274414,10.3154297-10.3154297S20.0039063,4,14.315918,4z"/>
</svg>
