<?xml version="1.0" encoding="utf-8"?>
<!-- Generator: Adobe Illustrator 18.0.0, SVG Export Plug-In . SVG Version: 6.00 Build 0)  -->
<!DOCTYPE svg PUBLIC "-//W3C//DTD SVG 1.1//EN" "http://www.w3.org/Graphics/SVG/1.1/DTD/svg11.dtd">
<svg version="1.1" id="icon-desktop" xmlns="http://www.w3.org/2000/svg" xmlns:xlink="http://www.w3.org/1999/xlink" x="0px"
	 y="0px" viewBox="0 0 160 160" style="enable-background:new 0 0 160 160;" xml:space="preserve">
<path d="M110.7890625,160H49.2104492c-0.8930664,0-1.6782227-0.5927734-1.9233398-1.4511719
	c-0.2451172-0.859375,0.109375-1.7763672,0.8681641-2.2480469c15.9956055-9.9335938,21.6000977-18.9746094,17.9770508-29.1425781H17
	c-9.3740234,0-17-7.6259766-17-17V17C0,7.6259766,7.6259766,0,17,0h126c9.3740234,0,17,7.6259766,17,17v93.1582031
	c0,9.3740234-7.6259766,17-17,17H93.8671875c-3.6230469,10.1679688,1.9814453,19.2089844,17.9765625,29.1425781
	c0.7597656,0.4716797,1.1132813,1.3886719,0.8681641,2.2480469C112.4677734,159.4072266,111.6826172,160,110.7890625,160z
	 M55.8330078,156h48.3339844c-9.3671875-6.7294922-18.1982422-16.2001953-14.5039063-28.8417969H70.3364258
	C74.03125,139.7998047,65.1992188,149.2705078,55.8330078,156z M4,102.5263672v7.6318359c0,7.1679688,5.831543,13,13,13h126
	c7.1679688,0,13-5.8320313,13-13v-7.6318359H4z M4,98.5263672h152V17c0-7.168457-5.8320313-13-13-13H17C9.831543,4,4,9.831543,4,17
	V98.5263672z"/>
</svg>
