<?xml version="1.0" encoding="utf-8"?>
<!-- Generator: Adobe Illustrator 23.0.0, SVG Export Plug-In . SVG Version: 6.00 Build 0)  -->
<svg version="1.1" id="icon-dimension" xmlns="http://www.w3.org/2000/svg" xmlns:xlink="http://www.w3.org/1999/xlink" x="0px"
	 y="0px" viewBox="0 0 160 160" style="enable-background:new 0 0 160 160;" xml:space="preserve">
<path d="M158,140H0V22c0-1.1044922,0.8955078-2,2-2s2,0.8955078,2,2v114h154c1.1044922,0,2,0.8955078,2,2S159.1044922,140,158,140z
	 M27.65625,113.0712891c-0.4169922,0-0.8369141-0.1298828-1.1962891-0.3984375
	c-0.8847656-0.6611328-1.0654297-1.9150391-0.4038086-2.7998047l47.1674805-63.0644531l41.2597656,30.4042969L154.3564453,24
	h-22.4580078c-1.1044922,0-2-0.8955078-2-2s0.8955078-2,2-2H160v28.1933594c0,1.1044922-0.8955078,2-2,2s-2-0.8955078-2-2
	V28.4770508l-40.6943359,54.3100586L74.0478516,52.3847656l-44.7885742,59.8847656
	C28.8666992,112.7939453,28.2651367,113.0712891,27.65625,113.0712891z"/>
</svg>
