<?xml version="1.0" encoding="utf-8"?>
<!-- Generator: Adobe Illustrator 23.0.0, SVG Export Plug-In . SVG Version: 6.00 Build 0)  -->
<svg version="1.1" id="icon-dislike" xmlns="http://www.w3.org/2000/svg" xmlns:xlink="http://www.w3.org/1999/xlink" x="0px"
	 y="0px" viewBox="0 0 160 160" style="enable-background:new 0 0 160 160;" xml:space="preserve">
<path d="M85.8139954,160c-12.5328064,0-22.7291718-11.3945313-22.7291718-25.3994141v-29.2001953H25.9766483
	c-0.8413143,0.0107422-1.7143688-0.0585938-2.569355-0.2050781c-8.5806284-1.4697266-14.5171938-10.4423828-13.2325172-20.0009766
	l9.5357132-70.2026367C20.8628407,6.4130859,27.5723629,0,35.3565979,0c0.0600586,0,0.1201172,0.0004883,0.1806641,0.0009766
	h98.6432953C142.9032745,0.0009766,150,7.8964844,150,17.6010742v54.5996094
	c0,9.7045898-7.0967255,17.6000977-15.8194427,17.6000977h-19.3663559l-27.1388702,68.9316406
	C87.3735733,159.4970703,86.636261,160,85.8139954,160z M65.0848389,101.4003906c1.1044998,0,2.0000153,0.8955078,2.0000153,2
	v31.2001953c0,11.2851563,7.6846237,20.5576172,17.3883057,21.3447266l26.978714-68.5244141V4.0009766H35.5118713
	c-5.8530674-0.0639648-10.9449024,4.8803711-11.836998,11.5258789l-9.5357132,70.2036133
	c-1.0014715,7.4462891,3.4599857,14.4121094,9.9448967,15.5224609c0.6162148,0.1064453,1.2480545,0.1582031,1.8662243,0.1474609
	H65.0848389z M115.4518967,85.8007813h18.7286606c6.5176239,0,11.8194122-6.1010742,11.8194122-13.6000977V17.6010742
	c0-7.4990234-5.3017883-13.6000977-11.8194122-13.6000977h-18.7286606V85.8007813z"/>
</svg>
