<?xml version="1.0" encoding="utf-8"?>
<!-- Generator: Adobe Illustrator 23.0.0, SVG Export Plug-In . SVG Version: 6.00 Build 0)  -->
<svg version="1.1" id="icon-download" xmlns="http://www.w3.org/2000/svg" xmlns:xlink="http://www.w3.org/1999/xlink" x="0px"
	 y="0px" viewBox="0 0 160 160" style="enable-background:new 0 0 160 160;" xml:space="preserve">
<path d="M150.2001953,160H9.7998047c-1.1044922,0-2-0.8955078-2-2v-31.7197266c0-1.1044922,0.8955078-2,2-2s2,0.8955078,2,2V156
	h136.4003906v-29.7197266c0-1.1044922,0.8955078-2,2-2s2,0.8955078,2,2V158
	C152.2001953,159.1044922,151.3046875,160,150.2001953,160z M79.7402344,128.2802734c-0.0019531,0-0.0043945,0-0.0063477,0
	c-0.5327148-0.0019531-1.0429688-0.2158203-1.4169922-0.5947266L38.2768555,87.125
	c-0.7758789-0.7861328-0.7675781-2.0527344,0.0180664-2.828125c0.7871094-0.7763672,2.0522461-0.7695313,2.8286133,0.0175781
	L78,121.6708984V2c0-1.1044922,0.8955078-2,2-2s2,0.8955078,2,2v119.1923828l36.8857422-36.8867188
	c0.78125-0.78125,2.046875-0.78125,2.828125,0s0.78125,2.046875,0,2.828125l-40.5595703,40.5605469
	C80.7792969,128.0693359,80.2705078,128.2802734,79.7402344,128.2802734z"/>
</svg>
