<?xml version="1.0" encoding="utf-8"?>
<!-- Generator: Adobe Illustrator 18.0.0, SVG Export Plug-In . SVG Version: 6.00 Build 0)  -->
<!DOCTYPE svg PUBLIC "-//W3C//DTD SVG 1.1//EN" "http://www.w3.org/Graphics/SVG/1.1/DTD/svg11.dtd">
<svg version="1.1" id="icon-drupal" xmlns="http://www.w3.org/2000/svg" xmlns:xlink="http://www.w3.org/1999/xlink" x="0px"
	 y="0px" viewBox="0 0 160 160" style="enable-background:new 0 0 160 160;" xml:space="preserve">
<path d="M80.5870056,160c-38.4794312,0-69.7851181-30.5380554-69.7851181-68.0745926
	c0-40.568676,32.5962334-58.4367638,36.3134727-60.3410225c1.5624428-0.8506546,3.062252-1.6173096,4.5217667-2.3640594
	c4.5130234-2.3077374,8.410881-4.300848,13.9585762-8.6371403c3.0039902-2.4936962,5.9613724-6.1759748,6.9436035-15.9045925
	L73.0117264,0l3.0277863,3.5973113c3.9007645,4.6348953,11.161911,13.2618389,15.8774033,16.4469337
	c3.6774216,2.4232922,7.360672,4.0852718,11.2604675,5.8453274c3.6550903,1.6488686,7.4344788,3.3545437,11.3303909,5.7758961
	l0.1310959,0.0815697c21.9625854,13.6604595,34.5592499,36.0226364,34.5592499,61.353363
	C149.1981201,131.2389832,119.7020035,160,80.5870056,160z M75.8569489,9.5305204
	c-1.5299149,7.9471979-4.6043015,11.5260592-7.767067,14.1498785c-5.8924217,4.6072178-10.1422882,6.7804623-14.6417198,9.0813999
	c-1.4308662,0.7317009-2.9010582,1.4833031-4.4761276,2.3397827c-3.5390472,1.8134651-34.1926651,18.6182365-34.1926651,56.8238258
	c0,35.3428955,29.5213566,64.0971146,65.8076324,64.0971146c36.8475647,0,64.6336212-27.0509644,64.6336212-62.9221191
	c0-32.7574348-20.4768524-50.3842125-32.6831436-57.9760017l-0.1291504-0.0805969
	c-3.6725693-2.2824898-7.3295975-3.9328136-10.8662186-5.5287609c-3.8706665-1.74646-7.8724289-3.5521564-11.8324356-6.1623802
	C85.7205429,20.6584435,80.6559525,15.1272554,75.8569489,9.5305204z M90.6700668,145.434021
	c-7.0140076,0-13.9008026-1.2060699-18.8037109-5.6525726c-0.8132629-0.7380066-0.8749313-1.9955444-0.1369171-2.8092957
	c0.7370377-0.8147125,1.9950485-0.8759003,2.809288-0.1369171c5.6443176,5.1204224,15.1991196,5.0048676,23.7969284,4.2202454
	c7.297554-0.6797333,13.6900787-5.04953,14.3426361-5.6486816c0.7991867-0.7331543,2.0586548-0.7069397,2.8054047,0.0796356
	c0.7467499,0.7875214,0.7438354,2.0101013-0.0301056,2.7694702c-0.7671356,0.75354-7.8831024,5.9341736-16.7518463,6.7595825
	C96.0759888,145.2553406,93.3638,145.434021,90.6700668,145.434021z M108.0987473,128.6200256
	c-0.7098541,0-1.3954239-0.3796844-1.754715-1.0487518l-0.0805969-0.1514816
	c-0.8807602-1.6479034-1.4119339-2.6422729-5.2699738-2.6422729c-4.0066147,0-5.3612518,1.1332321-7.4121399,2.8491058
	l-0.6525574,0.5418472c-0.8487091,0.6981964-2.101387,0.5748749-2.7986145-0.2757721
	c-0.6972198-0.8487167-0.5738983-2.101387,0.2757874-2.7986145l0.6234207-0.5185471
	c2.3208466-1.9411621,4.5135117-3.7755051,9.9641037-3.7755051c5.765213,0,7.4412689,2.244133,8.7774582,4.7446289
	l0.0786591,0.1466293c0.5185471,0.9681549,0.155365,2.1732483-0.8127823,2.6927719
	C108.737709,128.544281,108.4153137,128.6200256,108.0987473,128.6200256z M65.8486633,125.3630753
	c-8.2661896,0-10.9225388-1.313858-13.7731018-3.1695633c-4.5465279-3.1666412-6.7537613-7.9442825-6.6119843-14.235817
	c0.1582832-11.5459671,10.9094315-21.4265518,23.4764709-21.5586166c0.0728302-0.0009689,0.1461487-0.0009689,0.2184906-0.0009689
	c9.3824387,0,16.9708252,5.3408585,23.077858,9.6387939c3.9638824,2.7908401,7.3927155,5.2039337,9.918457,5.2039337
	c0.0203934,0,0.0417557,0,0.062149-0.0009689c2.6723709-0.0495224,7.4636078-3.3045349,11.689682-6.175972
	c5.0019608-3.3977585,9.7252197-6.607132,13.3550644-6.607132c7.0606079,0,10.2767792,6.5867386,10.2767792,12.7073593
	c0,4.010498-1.2682037,11.8130112-4.7601624,16.8742065c-3.2676239,4.7718124-5.7807465,7.122757-10.4612808,6.7984238
	c-2.78405-0.2350006-5.6059647-2.9656296-9.9815826-7.4024277c-3.3414383-3.3870773-7.4985657-7.6015015-9.9097214-7.7083206
	c-2.7082977-0.0524368-7.6383972,2.8830948-12.875351,6.0322571
	C82.0664291,120.2601242,73.5831985,125.3630753,65.8486633,125.3630753z M69.1633987,90.3755875
	c-0.062149,0-0.1228409,0-0.1849899,0.0009766c-10.459343,0.109726-19.4081955,8.1938477-19.5378342,17.6529922
	c-0.1121559,4.9621429,1.4769897,8.5104141,4.8572693,10.8662186c1.9426155,1.2633591,3.8264809,2.4898148,11.5508194,2.4898148
	c6.6304398,0,14.6111374-4.7999802,21.6518478-9.0357666c6.0031204-3.6113892,11.1633606-6.7489014,15.0796738-6.5983887
	c3.9920425,0.1767349,8.3618393,4.6057663,12.5869446,8.8901062c2.5422516,2.5781784,6.0254593,6.1089706,7.4597244,6.2293854
	c2.4150391,0.1796417,3.7580185-0.5350571,6.8731918-5.0854721c2.9598083-4.2882233,4.0610046-11.2429962,4.0610046-14.6213303
	c0-0.3563766-0.0718536-8.7298737-6.2993011-8.7298737c-2.4063034,0-7.0353699,3.1452789-11.1196671,5.9196091
	c-5.1398544,3.491951-9.9951782,6.7906647-13.8561325,6.8634949c-0.0417557,0-0.0835114,0.0009689-0.1242981,0.0009689
	c-3.7920074,0-7.6986084-2.7500534-12.2150269-5.9283524C84.0075836,95.1095352,77.2810135,90.3755875,69.1633987,90.3755875z"/>
</svg>
