<?xml version="1.0" encoding="utf-8"?>
<!-- Generator: Adobe Illustrator 18.0.0, SVG Export Plug-In . SVG Version: 6.00 Build 0)  -->
<!DOCTYPE svg PUBLIC "-//W3C//DTD SVG 1.1//EN" "http://www.w3.org/Graphics/SVG/1.1/DTD/svg11.dtd">
<svg version="1.1" id="icon-edit" xmlns="http://www.w3.org/2000/svg" xmlns:xlink="http://www.w3.org/1999/xlink" x="0px" y="0px"
	 viewBox="0 0 160 160" style="enable-background:new 0 0 160 160;" xml:space="preserve">
<path d="M101.5601349,150H17.3957996C7.8037915,150,0,142.1700287,0,132.5461578V48.201683
	c0-9.6243706,7.8037915-17.4543343,17.3957996-17.4543343h62.6105194c1.1050644,0,2.0006332,0.8954945,2.0006332,1.9999695
	c0,1.1044769-0.8955688,1.9999733-2.0006332,1.9999733H17.3957996c-7.386281,0-13.3955078,6.035553-13.3955078,13.4543915
	v84.3444748c0,7.4188385,6.0092273,13.4539032,13.3955078,13.4539032h84.1643372
	c7.3862839,0,13.3955078-6.0350647,13.3955078-13.4539032v-31.8462219c0-1.1044693,0.8955765-1.9999695,2.000145-1.9999695
	c1.1045761,0,2.000145,0.8955002,2.000145,1.9999695v31.8462219C118.9559326,142.1700287,111.1526337,150,101.5601349,150z
	 M43.0558739,114.9702377c-0.5771904,0-1.1377792-0.2499924-1.5240364-0.7050705
	c-0.5166397-0.6074066-0.6226044-1.4648209-0.2695541-2.1806259l18.3392296-37.1439896
	c0.1201248-0.2426758,0.2876167-0.4584885,0.4936867-0.634758l70.1232758-59.9776382l0,0
	c3.7033997-3.1674337,8.3902588-4.6835251,13.2197113-4.2577505c4.8411713,0.4238224,9.2252808,2.7441006,12.3436737,6.5331078
	c6.4037933,7.7786961,5.4027405,19.4196396-2.2316132,25.9493294l-70.1564713,60.0054703
	c-0.2089996,0.1787109-0.4521866,0.3124924-0.7148972,0.3935471l-39.0384903,11.9314651
	C43.4479904,114.9419174,43.2511978,114.9702377,43.0558739,114.9702377z M63.0070343,77.0791931L46.8989258,109.704689
	L81.110405,99.2478104l69.8400497-59.7349663c5.9897003-5.1224823,6.7709961-14.2590675,1.7432861-20.3673763
	c-2.4308319-2.9535713-5.8412476-4.7611618-9.6042023-5.0902586c-3.7424622-0.3315382-7.3911743,0.8486204-10.2712708,3.3129396
	L63.0070343,77.0791931z"/>
</svg>
