<?xml version="1.0" encoding="utf-8"?>
<!-- Generator: Adobe Illustrator 23.0.0, SVG Export Plug-In . SVG Version: 6.00 Build 0)  -->
<svg version="1.1" id="icon-envelope" xmlns="http://www.w3.org/2000/svg" xmlns:xlink="http://www.w3.org/1999/xlink" x="0px"
	 y="0px" viewBox="0 0 160 160" style="enable-background:new 0 0 160 160;" xml:space="preserve">
<path d="M142.4003906,144.4003906H17.6000977C7.8955078,144.4003906,0,136.5048828,0,126.7998047V45.2241211
	c0-0.0170898,0-0.0341797,0-0.0517578v-11.972168c0-9.7045898,7.8955078-17.6000977,17.6000977-17.6000977h124.800293
	C152.1044922,15.6000977,160,23.4956055,160,33.2001953v11.972168c0,0.0175781,0,0.034668,0,0.0517578v81.5756836
	C160,136.5048828,152.1044922,144.4003906,142.4003906,144.4003906z M4,49.0415039v77.7583008
	c0,7.4990234,6.1010742,13.6005859,13.6000977,13.6005859h124.800293c7.4990234,0,13.5996094-6.1015625,13.5996094-13.6005859
	V49.0415039l-74.8535156,52.3969727c-0.6875,0.4824219-1.6049805,0.4824219-2.293457,0L4,49.0415039z M4,44.1586914l76,53.199707
	l76-53.199707V33.2001953c0-7.4990234-6.1005859-13.6000977-13.5996094-13.6000977H17.6000977
	C10.1010742,19.6000977,4,25.7011719,4,33.2001953V44.1586914z"/>
</svg>
