<?xml version="1.0" encoding="utf-8"?>
<!-- Generator: Adobe Illustrator 23.0.0, SVG Export Plug-In . SVG Version: 6.00 Build 0)  -->
<svg version="1.1" id="icon-exterior" xmlns="http://www.w3.org/2000/svg" xmlns:xlink="http://www.w3.org/1999/xlink" x="0px"
	 y="0px" viewBox="0 0 160 160" style="enable-background:new 0 0 160 160;" xml:space="preserve">
<path d="M111.1713257,144.6635742H48.7797203c-5.4033203,0-9.7988281-4.3955078-9.7988281-9.7988281V73.0581055
	c0-0.9604492-0.6254883-1.4541016-0.8945313-1.621582c-0.2675781-0.1674805-0.9819336-0.5097656-1.8305664-0.0922852
	l-13.7954082,6.7514648c-2.8935547,1.4296875-6.440918,0.2407227-7.9038086-2.6479492L0.6112648,47.5332031
	c-1.4350586-2.9072266-0.2490234-6.4555664,2.6396484-7.918457L52.235775,15.3364258l0.9916992,1.3720703
	c4.6884766,6.4848633,15.1972694,10.675293,26.7724648,10.675293c11.574707,0,22.0834961-4.1904297,26.7719727-10.675293
	l0.9921875-1.3720703l48.96875,24.2705078c1.4082031,0.6958008,2.4589844,1.9047852,2.9589844,3.4033203
	c0.5019531,1.5073242,0.3847656,3.1166992-0.3320313,4.5322266l-13.9619141,27.8730469
	c-0.7119141,1.4257813-1.9326172,2.4853516-3.4365234,2.9824219c-1.4921875,0.4941406-3.0878906,0.3740234-4.4951172-0.3388672
	l-13.7695313-6.7387695c-0.8457031-0.4145508-1.5576172-0.0708008-1.8251953,0.0961914
	c-0.2714844,0.1689453-0.9013672,0.6645508-0.9013672,1.6171875v61.8310547
	C120.9701538,140.2680664,116.574646,144.6635742,111.1713257,144.6635742z M37.091732,67.1455078
	c1.0800781,0,2.1552734,0.3007813,3.1108398,0.8964844c1.7397461,1.0844727,2.7783203,2.9594727,2.7783203,5.0161133v61.8066406
	c0,3.1972656,2.6015625,5.7988281,5.7988281,5.7988281h62.3916054c3.1972656,0,5.7988281-2.6015625,5.7988281-5.7988281V73.0336914
	c0-2.0507813,1.0410156-3.9243164,2.7851563-5.0117188c1.7382813-1.0820313,3.8691406-1.1928711,5.7011719-0.293457l13.7929688,6.75
	c0.4726563,0.2402344,0.9814453,0.2802734,1.4560547,0.1210938c0.4853516-0.1601563,0.8818359-0.5058594,1.1152344-0.9736328
	l13.9667969-27.8823242c0.234375-0.4628906,0.2714844-0.9814453,0.109375-1.4682617
	c-0.1601563-0.4790039-0.4921875-0.8637695-0.9375-1.0834961l-0.0019531-0.0009766l-46.0029297-22.7998047
	c-5.7958984,6.7236328-16.9189453,10.9926758-28.9545898,10.9926758c-12.0361328,0-23.1591835-4.269043-28.9545937-10.9926758
	L5.0429053,43.190918c-0.9257813,0.46875-1.3134766,1.6220703-0.8491211,2.5629883l13.9360352,27.8969727
	c0.4716797,0.9306641,1.6235352,1.3203125,2.565918,0.8549805l13.7998028-6.7539063
	C35.3217125,67.3466797,36.2084312,67.1455078,37.091732,67.1455078z"/>
</svg>
