<?xml version="1.0" encoding="utf-8"?>
<!-- Generator: Adobe Illustrator 18.0.0, SVG Export Plug-In . SVG Version: 6.00 Build 0)  -->
<!DOCTYPE svg PUBLIC "-//W3C//DTD SVG 1.1//EN" "http://www.w3.org/Graphics/SVG/1.1/DTD/svg11.dtd">
<svg version="1.1" id="icon-eye" xmlns="http://www.w3.org/2000/svg" xmlns:xlink="http://www.w3.org/1999/xlink" x="0px" y="0px"
	 viewBox="0 0 160 160" style="enable-background:new 0 0 160 160;" xml:space="preserve">
<path d="M80,140c-20.8706055,0-41.3027344-10.2519531-59.0878906-29.6484375
	C7.574707,95.8056641,0.4980469,81.4814453,0.203125,80.878418c-0.2709961-0.5541992-0.2709961-1.2026367,0-1.7568359
	c0.2949219-0.6030273,7.371582-14.9272461,20.7089844-29.4731445C38.6972656,30.2524414,59.1293945,20,80,20
	c20.8710938,0,41.3027344,10.2524414,59.0878906,29.6484375c13.3378906,14.5458984,20.4140625,28.8701172,20.7089844,29.4731445
	c0.2705078,0.5541992,0.2705078,1.2026367,0,1.7568359c-0.2949219,0.6030273-7.3710938,14.9272461-20.7089844,29.4731445
	C121.3027344,129.7480469,100.8710938,140,80,140z M4.25,79.9995117C8.0561523,87.2011719,35.5107422,136,80,136
	c44.5302734,0,71.9492188-48.7978516,75.75-55.9995117C151.9443359,72.7988281,124.4902344,24,80,24
	C35.4702148,24,8.0507813,72.7973633,4.25,79.9995117z M80,103c-12.6821289,0-23-10.3173828-23-23c0-12.6821289,10.3178711-23,23-23
	c12.6826172,0,23,10.3178711,23,23C103,92.6826172,92.6826172,103,80,103z M80,61c-10.4765625,0-19,8.5234375-19,19
	s8.5234375,19,19,19s19-8.5234375,19-19S90.4765625,61,80,61z"/>
</svg>
