<?xml version="1.0" encoding="utf-8"?>
<!-- Generator: Adobe Illustrator 23.0.0, SVG Export Plug-In . SVG Version: 6.00 Build 0)  -->
<svg version="1.1" id="icon-facebook" xmlns="http://www.w3.org/2000/svg" xmlns:xlink="http://www.w3.org/1999/xlink" x="0px"
	 y="0px" viewBox="0 0 160 160" style="enable-background:new 0 0 160 160;" xml:space="preserve">
<path d="M91.7001953,160H60.5c-1.1044922,0-2-0.8955078-2-2V97.5996094H37.1000977c-1.1044922,0-2-0.8955078-2-2v-31.199707
	c0-1.1044922,0.8955078-2,2-2H58.5V41c0-22.6074219,18.3925781-41,41-41h23.4003906c1.1044922,0,2,0.8955078,2,2v31.2001953
	c0,1.1044922-0.8955078,2-2,2H99.5c-3.1982422,0-5.7998047,2.6015625-5.7998047,5.7998047v21.3999023h29.2001953
	c0.6162109,0,1.1972656,0.2836914,1.5761719,0.769043c0.3789063,0.4858398,0.5136719,1.1186523,0.3642578,1.7163086
	l-7.8007813,31.199707c-0.2226563,0.8896484-1.0224609,1.5146484-1.9404297,1.5146484H93.7001953V158
	C93.7001953,159.1044922,92.8046875,160,91.7001953,160z M62.5,156h27.2001953V95.5996094c0-1.1044922,0.8955078-2,2-2h21.8378906
	l6.8007813-27.199707H91.7001953c-1.1044922,0-2-0.8955078-2-2V41c0-5.4038086,4.3964844-9.7998047,9.7998047-9.7998047h21.4003906
	V4H99.5c-20.4018555,0-37,16.5981445-37,37v23.3999023c0,1.1044922-0.8955078,2-2,2H39.1000977v27.199707H60.5
	c1.1044922,0,2,0.8955078,2,2V156z"/>
</svg>
