<?xml version="1.0" encoding="utf-8"?>
<!-- Generator: Adobe Illustrator 23.0.0, SVG Export Plug-In . SVG Version: 6.00 Build 0)  -->
<svg version="1.1" id="icon-feather" xmlns="http://www.w3.org/2000/svg" xmlns:xlink="http://www.w3.org/1999/xlink" x="0px"
	 y="0px" viewBox="0 0 160 160" style="enable-background:new 0 0 160 160;" xml:space="preserve">
<path d="M9.3099546,160c-2.3844409,0-4.7679062-0.9063873-6.5825791-2.719162
	c-1.7585742-1.7561951-2.7273753-4.0928955-2.7273753-6.5779114c-0.0004878-2.4859772,0.9683133-4.8236542,2.7273753-6.5808258
	l78.9919281-78.9143295c1.1190491-1.1195679,1.1190491-2.9421043-0.0009766-4.0626526
	c-1.0848999-1.0849342-2.9834824-1.0849342-4.0693588,0l-58.0768471,58.0205688l0.220005-5.1241684
	c0.4063511-9.467804,0.9892902-17.2750397,1.8346729-24.5700531c3.3351936-32.7090111,25.3239574-57.4356575,65.3531036-73.4647827
	c31.5265274-12.6245565,64.4521027-15.4173841,70.7322388-15.8491144L160,0l-0.1580505,2.2884114
	c-0.4429321,6.4286261-3.3210449,40.1181793-16.4676666,72.0944672l-0.2848816,0.6927185l-25.5205536,12.7460251h19.6150513
	l-1.6410065,2.966011c-2.8937225,5.2285614-6.0635376,10.1341782-9.4226379,14.5812378l-0.3736649,0.4946594l-33.5792542,11.182045
	h23.8629456l-4.1678925,3.524086c-12.004158,10.1507645-25.9488449,16.0964432-41.4452744,17.672142
	c-12.2812386,1.4195862-24.9737053,2.1757202-37.7130013,2.246933l-16.8091393,16.792099
	C14.0788374,159.0936127,11.6939087,160,9.3099546,160z M79.6836548,56.3073082
	c1.8366241,0,3.5625153,0.7146721,4.8600998,2.0122986c1.2975922,1.2976303,2.0117493,3.0225983,2.0117493,4.8573265
	c0,1.8347321-0.7141571,3.5597-2.0117493,4.8573227L5.551826,146.9495697
	c-1.0034361,1.0019989-1.5561309,2.3347473-1.5556431,3.7523804c0,1.4176483,0.552207,2.7494202,1.5551553,3.7514191
	c2.0722394,2.0703583,5.4454823,2.0713348,7.5196724-0.0009766l17.972578-17.953125l0.8234329-0.0029297
	c12.86759-0.0419464,25.6927433-0.7912598,38.118866-2.2264557c12.8085632-1.3034821,24.4849091-5.7466431,34.8022079-13.2279968
	h-37.269577l55.7841187-18.5765762c2.4693146-3.3094406,4.8322983-6.8774261,7.0508804-10.647377h-29.731369l39.3393707-19.6468735
	c11.5329285-28.396595,14.8803253-58.0234947,15.7144928-67.8483963
	C135.3623962,6.0398254,32.9055786,18.249239,25.5995712,89.9046631
	c-0.6785507,5.8559113-1.1853924,12.0347672-1.5673504,19.1561127L74.8240356,58.318634
	C76.1211395,57.0219803,77.8470306,56.3073082,79.6836548,56.3073082z"/>
</svg>
