<?xml version="1.0" encoding="utf-8"?>
<!-- Generator: Adobe Illustrator 18.0.0, SVG Export Plug-In . SVG Version: 6.00 Build 0)  -->
<!DOCTYPE svg PUBLIC "-//W3C//DTD SVG 1.1//EN" "http://www.w3.org/Graphics/SVG/1.1/DTD/svg11.dtd">
<svg version="1.1" id="icon-film" xmlns="http://www.w3.org/2000/svg" xmlns:xlink="http://www.w3.org/1999/xlink" x="0px" y="0px"
	 viewBox="0 0 160 160" style="enable-background:new 0 0 160 160;" xml:space="preserve">
<path d="M143,160H17c-9.3740234,0-17-7.6259766-17-17V17C0,7.6259766,7.6259766,0,17,0h126c9.3740234,0,17,7.6259766,17,17v126
	C160,152.3740234,152.3740234,160,143,160z M121,156h22c7.1679688,0,13-5.8320313,13-13v-9.6845703h-35V156z M82,156h35v-22.6845703
	H82V156z M43,156h35v-22.6845703H43V156z M4,133.3154297V143c0,7.1679688,5.831543,13,13,13h22v-22.6845703H4z M4,129.3154297h152
	V30.684082H4V129.3154297z M121,26.684082h35V17c0-7.168457-5.8320313-13-13-13h-22V26.684082z M82,26.684082h35V4H82V26.684082z
	 M43,26.684082h35V4H43V26.684082z M4,26.684082h35V4H17C9.831543,4,4,9.831543,4,17V26.684082z M57.4208984,110.7373047
	c-0.3305664,0-0.6621094-0.0820313-0.9624023-0.2470703c-0.6401367-0.3505859-1.0375977-1.0224609-1.0375977-1.7529297V51.2631836
	c0-0.7299805,0.3974609-1.4018555,1.0375977-1.753418c0.6391602-0.3510742,1.4199219-0.3256836,2.0361328,0.065918
	l45.1577148,28.734375c0.5771484,0.3671875,0.9267578,1.003418,0.9267578,1.6875
	c0,0.6835938-0.3496094,1.3198242-0.9257813,1.6870117l-45.1586914,28.7402344
	C58.1679688,110.6328125,57.7949219,110.7373047,57.4208984,110.7373047z M59.4208984,54.90625v50.1875l39.4326172-25.0961914
	L59.4208984,54.90625z"/>
</svg>
