<?xml version="1.0" encoding="utf-8"?>
<!-- Generator: Adobe Illustrator 18.0.0, SVG Export Plug-In . SVG Version: 6.00 Build 0)  -->
<!DOCTYPE svg PUBLIC "-//W3C//DTD SVG 1.1//EN" "http://www.w3.org/Graphics/SVG/1.1/DTD/svg11.dtd">
<svg version="1.1" id="icon-finger" xmlns="http://www.w3.org/2000/svg" xmlns:xlink="http://www.w3.org/1999/xlink" x="0px"
	 y="0px" viewBox="0 0 160 160" style="enable-background:new 0 0 160 160;" xml:space="preserve">
<path d="M126,160H58v-20h4v16h60v-16h4V160z M134,140h-4v-25h4V140z M54,140h-4v-17h4V140z M46,123h-4v-14h4V123z M143,115h-4V66h4
	V115z M38,109h-4V92h4V109z M53,98h-4V78h-9v-4h9V49h4V98z M30,92h-4v-6h4V92z M21,86h-4V66h23v4H21V86z M120,78h-4V51h12v4h-8V78z
	 M98,70h-4V6h4v37h16v4H98V70z M76,70h-4V47H55v-4h17V6h4V70z M134,66h-4v-9h4V66z M92,4H78V0h14V4z"/>
</svg>
