<?xml version="1.0" encoding="utf-8"?>
<!-- Generator: Adobe Illustrator 23.0.0, SVG Export Plug-In . SVG Version: 6.00 Build 0)  -->
<svg version="1.1" id="icon-folder" xmlns="http://www.w3.org/2000/svg" xmlns:xlink="http://www.w3.org/1999/xlink" x="0px"
	 y="0px" viewBox="0 0 160 160" style="enable-background:new 0 0 160 160;" xml:space="preserve">
<path d="M124.0790634,131H12.6845551C5.6902037,131,0,125.3264084,0,118.3519897V40.964489C0,34.3673706,5.3830872,29,11.9995241,29
	h41.2864494c0.5351334,0,1.0478096,0.2137203,1.4237709,0.5934544l18.3850136,18.5830288h44.9835663
	c6.6169205,0,11.999527,5.3673706,11.999527,11.964489v14.6688652h22.565506c2.7059479,0,5.1062469,1.408905,6.4196625,3.7686005
	c1.3134308,2.3596954,1.2421417,5.1361237-0.1894379,7.4262009l-24.6123047,39.3607178
	C132.0553131,128.8929749,128.2488098,131,124.0790634,131z M9.3380079,126.342926
	c1.0302334,0.4313354,2.161047,0.6689072,3.3465471,0.6689072h111.3945084c2.780159,0,5.3171616-1.4040298,6.7878189-3.756424
	l24.6123047-39.3616943c0.6523132-1.0418243,0.6845398-2.3056564,0.0859222-3.3801041
	c-0.5976257-1.0744476-1.6893768-1.7156067-2.9217529-1.7156067H44.8087692c-2.711319,0-5.215126,1.3514557-6.6979752,3.6147537
	L9.3380079,126.342926z M11.9995241,32.988163c-4.4109583,0-7.9996829,3.5782471-7.9996829,7.976326v77.3874969
	c0,2.1527939,0.7919607,4.1244812,2.1000142,5.6404877L34.762291,80.2317352
	c2.2240334-3.395195,5.979744-5.4218979,10.0464783-5.4218979h81.2692337V60.1409721
	c0-4.3980789-3.5887222-7.976326-7.9996796-7.976326H72.2583618c-0.5351334,0-1.0478058-0.2137222-1.4237671-0.5934525
	L52.4495773,32.988163H11.9995241z"/>
</svg>
