<?xml version="1.0" encoding="utf-8"?>
<!-- Generator: Adobe Illustrator 23.0.0, SVG Export Plug-In . SVG Version: 6.00 Build 0)  -->
<svg version="1.1" id="icon-forward" xmlns="http://www.w3.org/2000/svg" xmlns:xlink="http://www.w3.org/1999/xlink" x="0px"
	 y="0px" viewBox="0 0 160 160" style="enable-background:new 0 0 160 160;" xml:space="preserve">
<path d="M45.0013199,160c-2.6709824,0-5.1818085-1.0400696-7.0710258-2.9288025
	c-3.8990517-3.8995361-3.8990517-10.2434998-0.0004883-14.1430359l62.9317055-62.9307251L37.930294,17.0662212
	c-1.8892212-1.8882446-2.9292946-4.3995552-2.9292946-7.0710278s1.0400734-5.1827836,2.9292946-7.071516
	c3.8985596-3.8980742,10.2425156-3.8985624,14.1420517,0.0004883l70.0027313,70.002243
	c3.8985596,3.8985672,3.8985596,10.2430038,0,14.1425476l-70.0027313,70.002243
	C50.1831284,158.9599304,47.6723022,160,45.0013199,160z M45.0013199,3.9979308
	c-1.5366707,0-3.0728531,0.5849798-4.2428131,1.754451c-1.1333351,1.133337-1.7573776,2.6402211-1.7573776,4.2428117
	s0.6240425,3.1094742,1.7573776,4.2423229l65.7594299,65.7599182l-65.7594299,65.7589417
	c-2.3389397,2.33992-2.3389397,6.1466827,0.0004883,8.4866028c1.1328506,1.132843,2.6397362,1.756897,4.2423248,1.756897
	s3.1094742-0.624054,4.2428131-1.756897l70.0027313-70.002243c2.3389435-2.33992,2.3389435-6.1466827,0-8.4861145
	L49.244133,5.7523818C48.074173,4.5829105,46.5379906,3.9979308,45.0013199,3.9979308z"/>
</svg>
