<?xml version="1.0" encoding="utf-8"?>
<!-- Generator: Adobe Illustrator 18.0.0, SVG Export Plug-In . SVG Version: 6.00 Build 0)  -->
<!DOCTYPE svg PUBLIC "-//W3C//DTD SVG 1.1//EN" "http://www.w3.org/Graphics/SVG/1.1/DTD/svg11.dtd">
<svg version="1.1" id="icon-gallery" xmlns="http://www.w3.org/2000/svg" xmlns:xlink="http://www.w3.org/1999/xlink" x="0px"
	 y="0px" viewBox="0 0 160 160" style="enable-background:new 0 0 160 160;" xml:space="preserve">
<path d="M153,145H7c-3.8598633,0-7-3.140625-7-7V22c0-3.8598633,3.1401367-7,7-7h146c3.859375,0,7,3.1401367,7,7v116
	C160,141.859375,156.859375,145,153,145z M4,122.2470703V138c0,1.6542969,1.3457031,3,3,3h146c1.6542969,0,3-1.3457031,3-3
	V82.8720703c-0.0722656-0.0400391-0.1425781-0.0859375-0.2109375-0.1357422l-25.0175781-18.4013672L94.5146484,94.2773438
	l16.4707031,10.6425781c0.9277344,0.5996094,1.1943359,1.8369141,0.5947266,2.7646484
	c-0.5996094,0.9296875-1.8378906,1.1943359-2.7646484,0.5947266L64.4492188,79.6132813L4.1791992,122.1337891
	C4.1210938,122.1757813,4.0610352,122.2128906,4,122.2470703z M7,19c-1.6542969,0-3,1.3457031-3,3v95.3652344L63.2470703,75.565918
	c0.6665039-0.4697266,1.5527344-0.4887695,2.2382813-0.0454102l25.5058594,16.4804688
	c0.0166016-0.0146484,0.0332031-0.0292969,0.0507813-0.0429688l38.3847656-31.7001953
	c0.7070313-0.5844727,1.7216797-0.6113281,2.4580078-0.0693359L156,77.9262695V22c0-1.6542969-1.3457031-3-3-3H7z
	 M33.2163086,64.0014648c-0.671875,0-1.3515625-0.0551758-2.0336914-0.1669922
	c-4.9658203-0.8144531-9.0024414-4.8510742-9.8168945-9.8168945c-0.640625-3.9052734,0.5795898-7.7333984,3.3486328-10.5024414
	s6.59375-3.9921875,10.5029297-3.3496094c4.9658203,0.8144531,9.0024414,4.8510742,9.8168945,9.8168945
	c0.640625,3.9052734-0.5795898,7.7333984-3.3486328,10.5024414C39.3999023,62.7705078,36.3930664,64.0014648,33.2163086,64.0014648z
	 M33.2006836,44.0004883c-2.1264648,0-4.1347656,0.8198242-5.6577148,2.3427734
	c-1.8466797,1.847168-2.659668,4.4082031-2.2299805,7.0268555c0.5405273,3.2963867,3.2207031,5.9765625,6.5170898,6.5170898
	c2.6220703,0.4287109,5.1801758-0.3837891,7.0268555-2.2304688c1.8466797-1.847168,2.659668-4.4082031,2.2299805-7.0268555
	c-0.5405273-3.2963867-3.2207031-5.9765625-6.5170898-6.5170898l0,0
	C34.1103516,44.0375977,33.652832,44.0004883,33.2006836,44.0004883z"/>
</svg>
