<?xml version="1.0" encoding="utf-8"?>
<!-- Generator: Adobe Illustrator 23.0.0, SVG Export Plug-In . SVG Version: 6.00 Build 0)  -->
<svg version="1.1" id="icon-github" xmlns="http://www.w3.org/2000/svg" xmlns:xlink="http://www.w3.org/1999/xlink" x="0px"
	 y="0px" viewBox="0 0 160 160" style="enable-background:new 0 0 160 160;" xml:space="preserve">
<path d="M63.3598633,158.3364258l-2.4741211-0.6005859C25.0371094,149.0356445,0,117.4174805,0,80.847168
	C0,37.1850586,35.8876953,1.6635742,80,1.6635742s80,35.5214844,80,79.1835938
	c0,35.5996094-22.7197266,66.1630859-56.5351563,76.0537109l-2.5625,0.7490234l0.0009766-2.6699219
	c0.0029297-6.5908203,0.0019531-16.7177734,0.0009766-24.4179688l-0.0009766-7.6835938
	c0-5.2128906-4.5234375-9.4667969-8.3183594-12.1181641l-4.53125-3.1660156l5.5078125-0.4667969
	c20.8378906-1.7646484,30.8115234-10.0810547,32.3388672-26.9648438c1.2451172-11.1640625-0.9550781-19.175293-6.9199219-25.2524414
	l-0.9550781-0.9736328l0.5576172-1.2446289c2.3808594-5.3164063,1.1923828-12.9516602-0.3457031-17.4570313
	c-4.7207031-0.2631836-14.8789063,4.9770508-18.0302734,7.5551758l-0.9863281,0.8056641l-1.1474609-0.5517578
	C88.5654297,38.472168,71.8227539,39.5263672,61.765625,43.125l-0.9838867,0.3520508l-0.8510742-0.6069336
	c-6.6191406-4.7192383-14.0371094-7.753418-18.2973633-7.5737305c-3.3671875,8.5732422-0.9506836,16.2070313-0.4599609,17.027832
	l1.1083984,1.4462891l-1.3813477,1.1743164c-4.3623047,4.0390625-8.7456055,13.3891602-6.7421875,26.4472656
	c2.8378906,16.9287109,10.6855469,23.1904297,32.2910156,25.7421875l4.4003906,0.5195313l-3.3007813,2.9570313
	c-2.5458984,2.2792969-3.8735352,5.1386719-4.3129883,6.640625c0.0336914,5.140625,0.027832,7.7197266,0.0195313,9.0302734
	l0.0405273,0.0244141l0.015625,1.1025391c0.0097656,0.6992188,0.0375977,19.2753906,0.0458984,28.3818359L63.3598633,158.3364258z
	 M80,5.6635742c-41.9067383,0-76,33.7270508-76,75.1835938c0,33.8710938,22.6342773,63.2695313,55.3549805,72.3583984
	c-0.0073242-6.7060547-0.0205078-15.7246094-0.03125-21.1181641c-4.1274414,1.7041016-8.3071289,1.7070313-12.4521484,0.0048828
	c-4.503418-1.9101563-7.2192383-5.8896484-9.0844727-9.1445313l-0.4726563-0.7890625
	c-1.8706055-3.1513672-3.8046875-6.4101563-9.565918-7.0683594c-1.0976563-0.1259766-1.8852539-1.1171875-1.7602539-2.2138672
	c0.1254883-1.0976563,1.1147461-1.8857422,2.2143555-1.7607422c7.7333984,0.8837891,10.5180664,5.5751953,12.5517578,9.0009766
	l0.4775391,0.7988281c1.0244141,1.7861328,3.3623047,5.8662109,7.1796875,7.4853516
	c3.6855469,1.5107422,7.1523438,1.2890625,10.8735352-0.7177734c-0.0258789-0.1923828-0.0380859-0.3994141-0.0361328-0.6210938
	c0.0078125-0.8251953,0.0302734-3.3369141-0.0151367-10.0585938l-0.0014648-0.2578125l0.0634766-0.25
	c0.3979492-1.5595703,1.3554688-3.7568359,2.9135742-5.8955078c-20.527832-3.1269531-29.0375977-10.8974609-32.0009766-28.5732422
	c-1.7514648-11.4189453,0.9692383-22.5883789,6.9526367-28.9985352c-1.2714844-3.5712891-2.5942383-11.7485352,1.2504883-20.3916016
	l0.4208984-0.9472656l1.0170898-0.2016602c5.7060547-1.1269531,14.7651367,2.8823242,21.5546875,7.5322266
	c10.5112305-3.4614258,27.0351563-4.3857422,37.2841797-0.0834961c4.2880859-2.9956055,15.7128906-9.0927734,21.5849609-7.3935547
	l0.9394531,0.2729492l0.3613281,0.9091797c1.5869141,3.9931641,3.7265625,13.0942383,1.1630859,20.3408203
	c6.1933594,6.8657227,8.4648438,15.6455078,7.1425781,27.4985352c-1.5839844,17.519043-11.5292969,27.1508789-31.1748047,30.0024414
	c3.3251953,3.1220703,6.1982422,7.2763672,6.1982422,12.3115234l0.0009766,7.6826172
	c0.0009766,6.7060547,0.0019531,15.2529297,0,21.7021484C135.5791016,142.112793,156,113.746582,156,80.847168
	C156,39.390625,121.90625,5.6635742,80,5.6635742z"/>
</svg>
