<?xml version="1.0" encoding="utf-8"?>
<!-- Generator: Adobe Illustrator 23.0.0, SVG Export Plug-In . SVG Version: 6.00 Build 0)  -->
<svg version="1.1" id="icon-globe" xmlns="http://www.w3.org/2000/svg" xmlns:xlink="http://www.w3.org/1999/xlink" x="0px" y="0px"
	 viewBox="0 0 160 160" style="enable-background:new 0 0 160 160;" xml:space="preserve">
<path d="M80,160c-44.1123047,0-80-35.8876953-80-80S35.8876953,0,80,0s80,35.8876953,80,80S124.1123047,160,80,160z M113.140625,82
	c-1.0205078,27.2080078-11.0996094,53.171875-28.6025391,73.8662109
	C123.6806641,153.5488281,154.9511719,121.4726563,155.9736328,82H113.140625z M4.0258789,82
	c1.0229492,39.4726563,32.2929688,71.5488281,71.4360352,73.8662109C57.9428711,135.1523438,47.8608398,109.1611328,46.8569336,82
	H4.0258789z M50.8569336,82C51.8701172,108.9228516,62.1601563,134.71875,80,155.0039063
	C97.8232422,134.7382813,108.1103516,108.9707031,109.140625,82H50.8569336z M113.1435547,78h42.8300781
	c-1.0224609-39.472168-32.2929688-71.5483398-71.4355469-73.8662109C102.0566406,24.847168,112.1396484,50.8383789,113.1435547,78z
	 M50.8598633,78h58.2836914C108.1298828,51.0766602,97.8398438,25.28125,80,4.996582
	C62.1772461,25.2617188,51.8901367,51.0292969,50.8598633,78z M4.0258789,78h42.8339844
	c1.0195313-27.2080078,11.0996094-53.171875,28.6020508-73.8662109C36.3188477,6.4516602,5.0488281,38.527832,4.0258789,78z"/>
</svg>
