<?xml version="1.0" encoding="utf-8"?>
<!-- Generator: Adobe Illustrator 23.0.0, SVG Export Plug-In . SVG Version: 6.00 Build 0)  -->
<svg version="1.1" id="icon-graduate" xmlns="http://www.w3.org/2000/svg" xmlns:xlink="http://www.w3.org/1999/xlink" x="0px"
	 y="0px" viewBox="0 0 160 160" style="enable-background:new 0 0 160 160;" xml:space="preserve">
<path d="M133.6223602,160.0004272H26.3771553c-9.1665535,0-16.6241112-7.457077-16.6241112-16.624115v-2.9248199
	c0-22.9805908,18.0508766-41.7648697,41.0944557-42.7639008l0.8784218-0.0380859L80,125.9230957l28.2735901-28.2735901
	l0.8789063,0.0380859c23.0440674,0.9990311,41.0949554,19.7833099,41.0949554,42.7639008v2.9248199
	C150.2474518,152.5433502,142.7893982,160.0004272,133.6223602,160.0004272z M50.1507187,101.7305832
	c-20.4800892,1.333992-36.3976555,18.1778336-36.3976555,38.7209091v2.9248199
	c0,6.9609833,5.6631155,12.6240997,12.6240911,12.6240997h107.2452087c6.9619446,0,12.625061-5.6631165,12.625061-12.6240997
	v-2.9248199c0-20.5430756-15.918045-37.3869171-36.3986282-38.7209091L80,131.5793762L50.1507187,101.7305832z M80,91.7529907
	c-22.6065674,0-40.9982643-18.3917007-40.9982643-40.997776c0-5.394558,1.1489296-10.7637291,3.4184723-15.9952011
	l-19.4205132-4.6797142v12.0122719c1.9111443,0.2836914,3.6611538,1.11866,5.0644817,2.4389763
	c1.7480564,1.6445427,2.7505016,3.9126205,2.7505016,6.2236671c0,3.0644684-1.8110447,5.8926086-4.455101,7.5708427
	l6.2353859,23.6739502H9.9498215l6.2466145-23.7169189c-2.3608513-1.6982536-4.0058804-4.5293236-4.0058804-7.527874
	c0-4.3452377,2.6665182-7.5776787,6.8091183-8.5005341V29.1134987l-3.5752144-0.8501034
	c-3.3877134-0.823246-5.6640921-3.5385933-5.6640921-6.7568722c0-3.2187672,2.2763786-5.9341135,5.6640921-6.7573595
	L73.4989853,0.7637371c4.2651596-1.0170953,8.7686081-1.0180719,13.02742-0.0009766l58.0159378,14.0161886
	c3.4033356,0.8227577,5.6894836,3.5322447,5.6894836,6.7427111s-2.2861481,5.9199543-5.6894836,6.7422237l-26.9542542,6.4936886
	c2.2646637,5.1821556,3.4101791,10.5522995,3.4101791,15.9976425C120.9982681,73.36129,102.6065674,91.7529907,80,91.7529907z
	 M46.3797035,35.6994705c-2.2421989,4.9341087-3.3779488,9.9917526-3.3779488,15.0557442
	c0,20.4005013,16.5972557,36.9977531,36.9982452,36.9977531c20.4004974,0,36.9982452-16.5972519,36.9982452-36.9977531
	c0-5.1235619-1.1357498-10.1860886-3.3779449-15.0703926l-28.1856995,6.2671242
	c-4.2695541,0.8549843-10.2637253,0.0522461-10.4414673,0.0478516l-0.402832-0.0424805
	C74.4379578,41.9255791,59.770401,38.8503647,46.3797035,35.6994705z M15.1402788,77.9999924h12.264226l-4.7998314-18.2251968
	c-0.873539,0.1469727-1.7910252,0.1855469-2.6792126,0.0556641L15.1402788,77.9999924z M21.2828903,45.9880981l-0.1845722,0.0092773
	c-3.027359,0.1494179-4.9077415,1.9721794-4.9077415,4.7578392c0,2.6010895,2.3818493,5.1538353,4.8091087,5.1538353
	c3.0434723,0,5.8149719-2.4565544,5.8149719-5.1538353c0-1.21241-0.5434589-2.4189568-1.4912186-3.3105659
	C24.262886,46.4465981,22.8410034,45.9378052,21.2828903,45.9880981z M75.244606,38.0075874
	c0.2988281,0.0175781,5.7886047,0.7446327,9.3628387,0.03125l58.9964066-13.6631584
	c1.9375153-0.4682636,2.6279449-1.7812595,2.6279449-2.8540192s-0.6904297-2.3862419-2.6289215-2.8549957L85.592804,4.6519413
	c-3.6455307-0.8696334-7.5083389-0.8701217-11.1616821,0.0014648L16.3648949,18.636879
	c-1.9189558,0.4663124-2.6045065,1.7880955-2.6045065,2.8696442c0,1.0795956,0.6835976,2.3994274,2.6020651,2.8686676
	C16.3624535,24.3751907,73.5209579,37.6452827,75.244606,38.0075874z"/>
</svg>
