<?xml version="1.0" encoding="utf-8"?>
<!-- Generator: Adobe Illustrator 23.0.0, SVG Export Plug-In . SVG Version: 6.00 Build 0)  -->
<svg version="1.1" id="icon-grid" xmlns="http://www.w3.org/2000/svg" xmlns:xlink="http://www.w3.org/1999/xlink" x="0px" y="0px"
	 viewBox="0 0 160 160" style="enable-background:new 0 0 160 160;" xml:space="preserve">
<path d="M148,160h-47.0800781c-6.6171875,0-12-5.3828125-12-12v-47.0800781c0-6.6171875,5.3828125-12,12-12H148
	c6.6171875,0,12,5.3828125,12,12V148C160,154.6171875,154.6171875,160,148,160z M100.9199219,92.9199219
	c-4.4111328,0-8,3.5888672-8,8V148c0,4.4111328,3.5888672,8,8,8H148c4.4111328,0,8-3.5888672,8-8v-47.0800781
	c0-4.4111328-3.5888672-8-8-8H100.9199219z M59.0800781,160H12c-6.6166992,0-12-5.3828125-12-12v-47.0800781
	c0-6.6171875,5.3833008-12,12-12h47.0800781c6.6166992,0,12,5.3828125,12,12V148
	C71.0800781,154.6171875,65.6967773,160,59.0800781,160z M12,92.9199219c-4.4111328,0-8,3.5888672-8,8V148
	c0,4.4111328,3.5888672,8,8,8h47.0800781c4.4111328,0,8-3.5888672,8-8v-47.0800781c0-4.4111328-3.5888672-8-8-8H12z M148,71.0800781
	h-47.0800781c-6.6171875,0-12-5.3833008-12-12V12c0-6.6166992,5.3828125-12,12-12H148c6.6171875,0,12,5.3833008,12,12v47.0800781
	C160,65.6967773,154.6171875,71.0800781,148,71.0800781z M100.9199219,4c-4.4111328,0-8,3.5888672-8,8v47.0800781
	c0,4.4111328,3.5888672,8,8,8H148c4.4111328,0,8-3.5888672,8-8V12c0-4.4111328-3.5888672-8-8-8H100.9199219z M59.0800781,71.0800781
	H12c-6.6166992,0-12-5.3833008-12-12V12C0,5.3833008,5.3833008,0,12,0h47.0800781c6.6166992,0,12,5.3833008,12,12v47.0800781
	C71.0800781,65.6967773,65.6967773,71.0800781,59.0800781,71.0800781z M12,4c-4.4111328,0-8,3.5888672-8,8v47.0800781
	c0,4.4111328,3.5888672,8,8,8h47.0800781c4.4111328,0,8-3.5888672,8-8V12c0-4.4111328-3.5888672-8-8-8H12z"/>
</svg>
