<?xml version="1.0" encoding="utf-8"?>
<!-- Generator: Adobe Illustrator 24.0.0, SVG Export Plug-In . SVG Version: 6.00 Build 0)  -->
<svg version="1.1" id="icon-handshake" xmlns="http://www.w3.org/2000/svg" xmlns:xlink="http://www.w3.org/1999/xlink" x="0px"
	 y="0px" viewBox="0 0 160 160" style="enable-background:new 0 0 160 160;" xml:space="preserve">
<path d="M79.9995117,160c-20.2680664,0-39.6025391-7.59375-54.4414063-21.3808594
	c-14.7602539-13.7148438-23.75-32.2900391-25.3134766-52.3056641C0.1586914,85.2128906,0.9819336,84.25,2.0830078,84.1640625
	c1.1030273-0.0810547,2.0634766,0.7373047,2.1499023,1.8388672C7.2983398,125.2539063,40.5791016,156,79.9995117,156
	c39.4301758,0,72.7114258-30.7548828,75.7670898-70.015625c0.0859375-1.1005859,1.0488281-1.9160156,2.1494141-1.8388672
	c1.1015625,0.0859375,1.9248047,1.0478516,1.8388672,2.1494141c-1.5585938,20.0195313-10.5458984,38.5996094-25.3076172,52.3183594
	C119.6074219,152.4042969,100.2705078,160,79.9995117,160z M82.5986328,135.3486328
	c-1.3574219,0-2.7880859-0.2490234-4.2851563-0.7480469c-5.0600586-1.6865234-8.2680664-6.1875-9.7441406-8.7519531
	c-3.5561523,1.5498047-11.2182617,4.1855469-15.9716797,0.6572266c-2.847168-2.1123047-4.003418-5.9121094-3.4501953-11.3173828
	c-3.1289063,0.4189453-8.0532227,0.4580078-11.3896484-2.5263672c-2.5786133-2.3056641-3.6723633-5.8574219-3.2641602-10.5761719
	c-3.4692383-0.0742188-9.6547852-0.8564453-12.5830078-5.2246094c-2.3740234-3.5410156-2.0463867-8.4580078,0.9716797-14.6279297
	c-1.8115234-2.8994141-6.59375-11.4702148-6.0830078-20.4433594L0.5859375,45.5761719
	C0.2075195,45.1982422-0.003418,44.684082,0,44.1494141s0.2207031-1.0458984,0.6040039-1.4194336L42.7661133,1.6220703
	c0.7822266-0.7641602,2.0356445-0.7568359,2.8100586,0.0180664l15.2255859,15.2246094h37.3779297L115.5205078,0.543457
	c0.7880859-0.7407227,2.0205078-0.7226563,2.7851563,0.0424805l41.1083984,41.1079102
	c0.3828125,0.3828125,0.5947266,0.9047852,0.5859375,1.4462891s-0.2373047,1.0566406-0.6318359,1.4267578l-16.1298828,15.1210938
	c0.3466797,3.4121094,0.9853516,14.1586914-3.7890625,20.4438477c1.5380859,2.4111328,4.1611328,7.5751953,2.2255859,12.4169922
	c-1.6376953,4.0966797-6.0351563,6.8164063-13.0839844,8.0976563c0.1142578,2.25-0.1738281,5.8847656-2.6054688,8.9414063
	c-2.3916016,3.0068359-6.2041016,4.6933594-11.3505859,5.0263672c-0.2070313,3.0634766-1.2011719,8.7675781-5.6083984,11.5244141
	c-3.6923828,2.3095703-8.75,1.9541016-15.0537109-1.0478516c-0.8388672,2.6591797-2.6279297,6.6777344-6.1474609,8.8115234
	C86.2353516,134.8662109,84.4873047,135.3486328,82.5986328,135.3486328z M71.5063477,122.8642578
	c0.7504883,1.4980469,3.5151367,6.421875,8.0717773,7.9414063c2.4482422,0.8164063,4.46875,0.7089844,6.1728516-0.3232422
	c3.8115234-2.3105469,4.9130859-8.5742188,4.9228516-8.6367188c0.0507813-0.3154297,0.1748047-0.6083984,0.3564453-0.859375
	l-8.7167969-9.4433594L71.5063477,122.8642578z M53.5288086,112.4619141
	c0.0209961,0.1933594,0.0136719,0.3916016-0.0234375,0.5878906c-0.6962891,3.6552734-1.0063477,8.3994141,1.4726563,10.2421875
	c2.7241211,2.0214844,8.3066406,0.3994141,11.6376953-0.9707031c0.0869141-0.1738281,0.2011719-0.3378906,0.3427734-0.4863281
	l22.1362305-23.1884766c0.0517578-0.0546875,0.1074219-0.1074219,0.1660156-0.1552734
	c0.2587891-0.2158203,1.6074219-1.2294922,4.0917969-1.0771484c-1.5-3.3623047-4.4277344-11.4482422-0.5097656-16.3291016
	c2.8251953-3.5209961,8.1494141-4.3320313,16.2353516-2.4658203c1.0976563-1.6513672,6.1542969-8.6049805,13.7275391-9.03125
	c4.8613281-0.2734375,9.5761719,2.1582031,14.0751953,7.2333984c3.8251953-6.2358398,2.2910156-17.4960938,2.2734375-17.6206055
	c-0.0908203-0.6450195,0.1376953-1.2954102,0.6123047-1.7407227L155.125,43.0615234L116.8496094,4.7861328L100.34375,20.3212891
	c-0.3710938,0.3491211-0.8613281,0.543457-1.3710938,0.543457H82.7207031l25.0449219,25.0454102
	c0.2197266,0.2192383,0.3847656,0.4868164,0.4833984,0.7817383c3.3066406,9.9213867-1.6298828,13.2480469-2.9580078,13.9404297
	c-7.7275391,5.690918-13.9414063,2.3071289-16.2226563-0.3579102L78.6289063,49.8354492
	c-7.8383789-6.9067383-17.4516602,0.3613281-18.3867188,1.0996094L27.6337891,82.4912109
	c-0.1806641,0.1748047-0.3867188,0.3095703-0.6054688,0.4023438c-0.0209961,0.0498047-0.0444336,0.0986328-0.0693359,0.1464844
	c-1.9042969,3.6181641-3.7504883,8.5654297-1.7299805,11.5888672c1.8642578,2.7880859,6.6015625,3.4394531,9.6010742,3.4697266
	l15.2963867-15.296875c0.7802734-0.78125,2.046875-0.78125,2.828125,0s0.78125,2.046875,0,2.828125L38.7719727,99.8134766
	c0.0200195,0.1845703,0.0141602,0.3740234-0.0185547,0.5615234c-0.7890625,4.4716797-0.2290039,7.6005859,1.6640625,9.2998047
	c2.3574219,2.1162109,6.6557617,1.8681641,9.2001953,1.3955078c0.090332-0.3154297,0.2597656-0.6132813,0.5087891-0.8623047
	l13.7026367-13.703125c0.7802734-0.78125,2.046875-0.78125,2.828125,0s0.78125,2.046875,0,2.828125L53.5288086,112.4619141z
	 M97.5957031,122.3134766c4.0166016,1.5947266,7.1875,1.7539063,9.3007813,0.4394531
	c2.1855469-1.3623047,3.1162109-4.1123047,3.5078125-6.3818359c-0.1455078-0.1113281-0.2783203-0.2451172-0.3925781-0.4003906
	c-10.4785156-14.2216797-16.5800781-15.2333984-18.1865234-14.3916016l-6.7441406,7.0644531l12.1992188,13.2158203
	C97.4091797,121.9990234,97.5146484,122.1523438,97.5957031,122.3134766z M97.6884766,98.6074219
	c4.0791016,1.9199219,8.6621094,6.1191406,13.6904297,12.5478516c0.3603516-0.3076172,0.8193359-0.4794922,1.296875-0.4794922
	c4.8496094,0,8.2675781-1.1953125,10.1601563-3.5537109c2.5566406-3.1855469,1.6015625-7.6630859,1.5917969-7.7080078
	c-0.0507813-0.2265625-0.0605469-0.4589844-0.0322266-0.6855469l-14.8945313-15.8876953
	c-7.0126953-1.8125-11.6875-1.5566406-13.5390625,0.7480469c-2.6582031,3.3105469,0.3564453,10.9794922,1.6220703,13.4052734
	C97.8544922,97.5136719,97.875,98.0966797,97.6884766,98.6074219z M112.7050781,80.4101563l15.1318359,16.140625
	c0.0439453,0.046875,0.0849609,0.0957031,0.1240234,0.1455078c5.4824219-1.0097656,8.9238281-2.9414063,10-5.6328125
	c1.6894531-4.2265625-2.5039063-9.6865234-2.6025391-9.8125c-0.0058594-0.0078125-0.0117188-0.015625-0.0185547-0.0234375
	c-4.1171875-5.2939453-8.2744141-7.8754883-12.2910156-7.6469727
	C117.8701172,73.8618164,113.9658203,78.6557617,112.7050781,80.4101563z M4.8466797,44.1801758L20.2788086,59.612793
	c0.4243164,0.4238281,0.6357422,1.0161133,0.5761719,1.612793c-0.7045898,7.0473633,2.7641602,14.2685547,4.7172852,17.6943359
	l27.2807617-26.4003906L39.5859375,39.2519531c-0.78125-0.7807617-0.78125-2.0473633,0-2.828125
	c0.7802734-0.78125,2.0478516-0.78125,2.828125,0l13.3139648,13.3134766l1.800293-1.7416992
	c0.0395508-0.0390625,0.0810547-0.0756836,0.1240234-0.1108398c4.4663086-3.6552734,15.1635742-8.5673828,23.6767578-1.0009766
	c0.0292969,0.0258789,0.0576172,0.0527344,0.0849609,0.0805664l10.5410156,10.5405273
	c0.0429688,0.0424805,0.0839844,0.0874023,0.1220703,0.1337891c0.4140625,0.4780273,4.3378906,4.6513672,10.9658203-0.3198242
	c0.140625-0.1054688,0.2949219-0.1918945,0.4570313-0.2568359c0.0927734-0.0454102,3.2890625-1.6357422,1.0966797-8.6645508
	L77.0634766,20.8647461h-17.090332c-0.5302734,0-1.0390625-0.2109375-1.4140625-0.5859375L44.1445313,5.8647461
	L4.8466797,44.1801758z"/>
</svg>
