<?xml version="1.0" encoding="utf-8"?>
<!-- Generator: Adobe Illustrator 23.0.0, SVG Export Plug-In . SVG Version: 6.00 Build 0)  -->
<svg version="1.1" id="icon-heart" xmlns="http://www.w3.org/2000/svg" xmlns:xlink="http://www.w3.org/1999/xlink" x="0px" y="0px"
	 viewBox="0 0 160 160" style="enable-background:new 0 0 160 160;" xml:space="preserve">
<path d="M79.9558487,147.5297394c-3.8096237,0-7.3915939-1.4841766-10.0849075-4.1779785l-57.337841-57.3368683
	C-3.9453127,69.5364761-4.2086353,42.4753342,11.9453888,25.6910973
	c7.9250755-8.2343216,18.7076149-12.8304939,30.3607292-12.9418812
	c11.8182449-0.0791426,23.4015007,4.5947075,31.7232704,12.9164772l5.9264603,5.9259758l6.5004959-6.4995193
	c0.0048904-0.0048866,0.0087967-0.0092831,0.0136795-0.0141678l0,0
	c8.1341705-8.1302624,18.9465103-12.6077213,30.4467163-12.6077213c0.0039063,0,0.0068359,0,0.0107498,0
	c11.5041046,0.0029316,22.3184052,4.4852753,30.4515991,12.6218891c0.0039063,0.0048847,0.0087891,0.0092812,0.0126953,0.0136776
	l0,0C155.5249786,33.2424431,160.0029297,44.0591774,160,55.5632896s-4.4857635,22.3188972-12.6218872,30.4516029
	l-57.3368683,57.3368683C87.3474426,146.0455627,83.7654724,147.5297394,79.9558487,147.5297394z M42.7238197,16.7493725
	c-0.1265297,0-0.2525749,0.0009766-0.3795929,0.0019531c-10.5695381,0.1011276-20.3412914,4.2615242-27.5154839,11.7146721
	C0.1760005,43.6908188,0.4153845,68.2374496,15.3627176,83.1852722l57.3378448,57.3368683
	c1.9380341,1.9375458,4.5145874,3.0054932,7.2552872,3.0054932c2.7407074,0,5.3172607-1.0679474,7.2557755-3.0054932
	l57.3368683-57.3368683c15.2365417-15.2297058,15.2424164-40.0147438,0.0136871-55.2498283
	c-0.0019684-0.0019531-0.0039215-0.0039082-0.0058746-0.0058613c-0.0029297-0.0024433-0.0058594-0.0053749-0.0087891-0.0078163
	c-7.3759613-7.3808441-17.1858139-11.4469528-27.6210022-11.4493961c-0.0029373,0-0.0068436,0-0.0097733,0
	c-10.4322586,0-20.238205,4.0607338-27.6170959,11.4362049c-0.0019531,0.0019531-0.0048904,0.0043964-0.0068436,0.0063515
	c-0.0019531,0.0024414-0.0048828,0.0048847-0.0068359,0.0068398l-7.9153061,7.9148159
	c-0.781662,0.781662-2.0479584,0.781662-2.8296204,0l-7.3412704-7.3412724
	C63.7221947,21.0182247,53.3622398,16.7493725,42.7238197,16.7493725z"/>
</svg>
