<?xml version="1.0" encoding="utf-8"?>
<!-- Generator: Adobe Illustrator 23.0.0, SVG Export Plug-In . SVG Version: 6.00 Build 0)  -->
<svg version="1.1" id="icon-help" xmlns="http://www.w3.org/2000/svg" xmlns:xlink="http://www.w3.org/1999/xlink" x="0px" y="0px"
	 viewBox="0 0 160 160" style="enable-background:new 0 0 160 160;" xml:space="preserve">
<path d="M80,160c-44.1123047,0-80-35.8876953-80-80S35.8876953,0,80,0s80,35.8876953,80,80S124.1123047,160,80,160z M80,4
	C38.0932617,4,4,38.0932617,4,80c0,41.90625,34.0932617,76,76,76c41.90625,0,76-34.09375,76-76C156,38.0932617,121.90625,4,80,4z
	 M80,126c-1.3149414,0-2.6035156-0.5332031-3.534668-1.4638672C75.5336914,123.6035156,75,122.3154297,75,121
	s0.5336914-2.6035156,1.4638672-3.5351563C77.3945313,116.5341797,78.6831055,116,80,116
	c1.3154297,0,2.6044922,0.5341797,3.5351563,1.4648438C84.4667969,118.3974609,85,119.6855469,85,121
	s-0.5332031,2.6025391-1.4638672,3.5341797c0,0.0009766-0.0009766,0.0019531-0.0019531,0.0019531
	C82.6025391,125.4667969,81.3144531,126,80,126z M82.1210938,123.1210938h0.0097656H82.1210938z M80,120
	c-0.2592773,0-0.5234375,0.109375-0.7060547,0.2929688C79.1098633,120.4765625,79,120.7412109,79,121
	s0.1098633,0.5234375,0.2939453,0.7070313c0.3657227,0.3671875,1.0439453,0.3681641,1.4130859,0
	C80.890625,121.5224609,81,121.2578125,81,121c0-0.2587891-0.1098633-0.5234375-0.2944336-0.7080078
	C80.5234375,120.109375,80.2592773,120,80,120z M80,102c-1.1044922,0-2-0.8955078-2-2V86c0-1.1044922,0.8955078-2,2-2
	c12.6826172,0,23-10.3178711,23-23S92.6826172,38,80,38c-12.6821289,0-23,10.3178711-23,23c0,1.1044922-0.8955078,2-2,2
	s-2-0.8955078-2-2c0-14.8876953,12.1123047-27,27-27s27,12.1123047,27,27c0,14.215332-11.0419922,25.9003906-25,26.9267578V100
	C82,101.1044922,81.1044922,102,80,102z"/>
</svg>
