<?xml version="1.0" encoding="utf-8"?>
<!-- Generator: Adobe Illustrator 23.0.0, SVG Export Plug-In . SVG Version: 6.00 Build 0)  -->
<svg version="1.1" id="icon-home" xmlns="http://www.w3.org/2000/svg" xmlns:xlink="http://www.w3.org/1999/xlink" x="0px" y="0px"
	 viewBox="0 0 160 160" style="enable-background:new 0 0 160 160;" xml:space="preserve">
<path d="M127.6611328,142.6552734l-30.3427734-0.0839844c-3.5048828-0.0117188-6.3369141-2.8613281-6.3271484-6.3525391v-25.8945313
	c0-1.2861328-1.046875-2.3330078-2.3330078-2.3330078h-17.331543c-1.2866211,0-2.3330078,1.046875-2.3330078,2.3330078v25.9189453
	c0,3.4746094-2.8271484,6.3154297-6.3017578,6.3330078l-30.3515625,0.0791016c-3.4975586,0-6.3383789-2.8408203-6.3383789-6.3330078
	L26,85.0771484l-10.5039063,8.6523438c-2.2353516,1.8378906-5.5493164,1.515625-7.3891602-0.7207031l-6.9052734-8.3955078
	c-0.8911133-1.078125-1.3100586-2.4423828-1.1777344-3.8378906c0.1323242-1.3964844,0.8007813-2.6572266,1.8818359-3.5507813
	l68.5527344-56.4584961c5.5234375-4.5449219,13.5405273-4.5444336,19.0620117-0.0004883l20.9746094,17.2573242V22.5947266
	c0-2.8950195,2.3554688-5.25,5.25-5.25h15.1660156c2.8945313,0,5.2490234,2.3549805,5.2490234,5.25v36.5668945l22,18.1352539
	c1.0380859,0.8862305,1.6816406,2.1181641,1.8144531,3.4804688c0.1367188,1.3955078-0.2783203,2.7607422-1.1689453,3.84375
	l-6.9785156,8.4824219c-0.8896484,1.0332031-2.1220703,1.6708984-3.4833984,1.7988281
	c-1.3955078,0.1376953-2.7607422-0.2880859-3.8408203-1.1816406L134,85.0693359l-0.0058594,51.2529297
	C133.9941406,139.8144531,131.1533203,142.6552734,127.6611328,142.6552734z M71.3266602,103.9912109h17.331543
	c3.4921875,0,6.3330078,2.8408203,6.3330078,6.3330078v25.9003906c-0.0039063,1.2919922,1.0400391,2.3427734,2.3261719,2.3466797
	l30.3496094,0.0839844c1.2802734,0,2.3271484-1.046875,2.3271484-2.3330078L130,82h0.2724609l-49.46875-40.7436523
	c-0.4560547-0.3686523-1.1435547-0.3676758-1.6171875,0.0131836L29.7363281,82H30l0.0019531,54.3222656
	c0,1.2861328,1.0463867,2.3330078,2.3330078,2.3330078l30.3417969-0.0791016
	c1.2753906-0.0058594,2.3168945-1.0527344,2.3168945-2.3330078v-25.9189453
	C64.9936523,106.8320313,67.8344727,103.9912109,71.3266602,103.9912109z M80.0092773,36.9916992
	c1.1811523,0,2.3598633,0.3881836,3.3208008,1.1635742l63.7197266,52.4804688
	c0.2607422,0.2158203,0.5800781,0.3105469,0.9179688,0.2851563c0.3320313-0.0322266,0.6318359-0.1904297,0.8447266-0.4472656
	l0.0605469-0.0732422l6.8427734-8.3193359c0.2119141-0.2578125,0.3105469-0.5820313,0.2783203-0.9150391
	c-0.0322266-0.3320313-0.1923828-0.6313477-0.4501953-0.84375l-0.078125-0.0639648l-23.3056641-19.2099609V22.5947266
	c0-0.6894531-0.5605469-1.25-1.2490234-1.25h-15.1660156c-0.6894531,0-1.25,0.5605469-1.25,1.25v23.8989258l-27.515625-22.6391602
	c-4.0507813-3.3320313-9.9287109-3.3330078-13.9785156,0L4.4511719,80.3105469
	c-0.2548828,0.2104492-0.4140625,0.5102539-0.4453125,0.8427734c-0.0317383,0.3320313,0.0683594,0.6572266,0.2807617,0.9140625
	l6.909668,8.4003906c0.4326172,0.5263672,1.2055664,0.6083984,1.7373047,0.1894531l0.0263672-0.0214844L76.6601563,38.168457
	C77.6342773,37.3833008,78.8232422,36.9916992,80.0092773,36.9916992z"/>
</svg>
