<?xml version="1.0" encoding="utf-8"?>
<!-- Generator: Adobe Illustrator 23.0.0, SVG Export Plug-In . SVG Version: 6.00 Build 0)  -->
<svg version="1.1" id="icon-image" xmlns="http://www.w3.org/2000/svg" xmlns:xlink="http://www.w3.org/1999/xlink" x="0px" y="0px"
	 viewBox="0 0 160 160" style="enable-background:new 0 0 160 160;" xml:space="preserve">
<path d="M143,160H17c-9.3740234,0-17-7.6259766-17-17V17C0,7.6259766,7.6259766,0,17,0h126c9.3740234,0,17,7.6259766,17,17v126
	C160,152.3740234,152.3740234,160,143,160z M132.828125,156H143c7.1679688,0,13-5.8320313,13-13V58.8286133L95.828125,119
	L132.828125,156z M4,98.1611328V143c0,7.1679688,5.831543,13,13,13h110.171875L36.6665039,65.4951172L4,98.1611328z
	 M36.6665039,59.8378906L93,116.171875l63-63.0004883V17c0-7.168457-5.8320313-13-13-13H17C9.831543,4,4,9.831543,4,17v75.5048828
	L36.6665039,59.8378906z M93,61.0527344c-9.9248047,0-18-8.074707-18-18s8.0751953-18,18-18s18,8.074707,18,18
	S102.9248047,61.0527344,93,61.0527344z M93,29.0527344c-7.7197266,0-14,6.2802734-14,14s6.2802734,14,14,14s14-6.2802734,14-14
	S100.7197266,29.0527344,93,29.0527344z"/>
</svg>
