<?xml version="1.0" encoding="utf-8"?>
<!-- Generator: Adobe Illustrator 23.0.0, SVG Export Plug-In . SVG Version: 6.00 Build 0)  -->
<svg version="1.1" id="icon-info" xmlns="http://www.w3.org/2000/svg" xmlns:xlink="http://www.w3.org/1999/xlink" x="0px" y="0px"
	 viewBox="0 0 160 160" style="enable-background:new 0 0 160 160;" xml:space="preserve">
<path d="M80,160c-44.1123047,0-80-35.8876953-80-80S35.8876953,0,80,0s80,35.8876953,80,80S124.1123047,160,80,160z M80,4
	C38.0932617,4,4,38.0932617,4,80c0,41.90625,34.0932617,76,76,76c41.90625,0,76-34.09375,76-76C156,38.0932617,121.90625,4,80,4z
	 M92,126H68c-1.1044922,0-2-0.8955078-2-2s0.8955078-2,2-2h10V63h-6c-1.1044922,0-2-0.8955078-2-2s0.8955078-2,2-2h6.2675781
	C78.6132813,58.4023438,79.2597656,58,80,58c1.1044922,0,2,0.8955078,2,2v62h10c1.1044922,0,2,0.8955078,2,2S93.1044922,126,92,126z
	 M80,44c-2.7568359,0-5-2.2431641-5-5s2.2431641-5,5-5s5,2.2431641,5,5S82.7568359,44,80,44z M80,38c-0.5512695,0-1,0.4487305-1,1
	s0.4487305,1,1,1s1-0.4487305,1-1S80.5512695,38,80,38z"/>
</svg>
