<?xml version="1.0" encoding="utf-8"?>
<!-- Generator: Adobe Illustrator 23.0.0, SVG Export Plug-In . SVG Version: 6.00 Build 0)  -->
<svg version="1.1" id="icon-instagram" xmlns="http://www.w3.org/2000/svg" xmlns:xlink="http://www.w3.org/1999/xlink" x="0px"
	 y="0px" viewBox="0 0 160 160" style="enable-background:new 0 0 160 160;" xml:space="preserve">
<path d="M119,160H41c-22.6074219,0-41-18.3925781-41-41V41C0,18.3925781,18.3925781,0,41,0h78c22.6074219,0,41,18.3925781,41,41v78
	C160,141.6074219,141.6074219,160,119,160z M41,4C20.5981445,4,4,20.5981445,4,41v78c0,20.4023438,16.5981445,37,37,37h78
	c20.4023438,0,37-16.5976563,37-37V41c0-20.4018555-16.5976563-37-37-37H41z M79.9296875,113.0019531
	c-7.0253906,0-13.8398438-2.2382813-19.5864258-6.5009766C53.2646484,101.25,48.6538086,93.5566406,47.3608398,84.8378906
	c-2.668457-17.9980469,9.8022461-34.8120117,27.7993164-37.480957c3.2109375-0.4775391,6.4677734-0.4765625,9.6806641,0
	c14.4804688,2.1474609,25.6513672,13.3198242,27.7978516,27.8007813l0,0
	c1.2929688,8.7182617-0.8867188,17.4194336-6.1367188,24.4985352c-5.2509766,7.0791016-12.9433594,11.6894531-21.6621094,12.9824219
	C83.1992188,112.8818359,81.5585938,113.0019531,79.9296875,113.0019531z M80,50.9995117
	c-1.4208984,0-2.8417969,0.1049805-4.2529297,0.3144531c-15.8154297,2.3452148-26.7744141,17.1210938-24.4291992,32.9379883
	c1.1362305,7.6611328,5.1875,14.421875,11.4082031,19.0361328c6.2207031,4.6152344,13.8632813,6.5283203,21.527832,5.3935547
	c7.6611328-1.1357422,14.4208984-5.1875,19.0351563-11.4082031c4.6142578-6.2216797,6.5292969-13.8671875,5.3925781-21.5288086l0,0
	c-1.8857422-12.7255859-11.703125-22.543457-24.4277344-24.4306641C82.8417969,51.1044922,81.4208984,50.9995117,80,50.9995117z
	 M123,43.0996094c-1.5664063,0-3.1103516-0.6367188-4.2353516-1.746582C117.6396484,40.2270508,117,38.6801758,117,37.0996094
	c0-1.5649414,0.6357422-3.1079102,1.7451172-4.2333984c1.1445313-1.1298828,2.6884766-1.7666016,4.2548828-1.7666016
	s3.1103516,0.6367188,4.2353516,1.7470703C128.3632813,33.9897461,129,35.5332031,129,37.0996094
	c0,1.5668945-0.6367188,3.1103516-1.7460938,4.2348633c-0.0068359,0.0063477-0.0126953,0.0126953-0.0185547,0.0185547
	C126.1103516,42.4628906,124.5664063,43.0996094,123,43.0996094z M125.8300781,39.9296875h0.0097656H125.8300781z M123,35.0996094
	c-0.515625,0-1.0488281,0.222168-1.4248047,0.59375C121.2216797,36.0517578,121,36.5844727,121,37.0996094
	c0,0.5205078,0.21875,1.0498047,0.5849609,1.4165039c0.7353516,0.7260742,2.0703125,0.7392578,2.8310547-0.0004883
	C124.7822266,38.1396484,125,37.6113281,125,37.0996094c0-0.515625-0.2216797-1.0483398-0.59375-1.4248047
	C124.0488281,35.3217773,123.515625,35.0996094,123,35.0996094z"/>
</svg>
