<?xml version="1.0" encoding="utf-8"?>
<!-- Generator: Adobe Illustrator 24.0.0, SVG Export Plug-In . SVG Version: 6.00 Build 0)  -->
<svg version="1.1" id="icon-internet" xmlns="http://www.w3.org/2000/svg" xmlns:xlink="http://www.w3.org/1999/xlink" x="0px"
	 y="0px" viewBox="0 0 160 160" style="enable-background:new 0 0 160 160;" xml:space="preserve">
<path d="M23.7682953,160c-8.4405632,0-14.0587692-3.977356-19.0476017-10.0957489
	c-9.028698-10.5782776-4.961832-36.3919907,10.9605083-63.9970779c-0.0132551-0.5694504-0.0201283-1.1398773-0.0201283-1.7132339
	c0-39.4389801,32.253624-71.5249405,71.8991928-71.5249405c2.6716385,0,5.3069534,0.1455364,7.9029922,0.4292841
	c0.2405548-0.118187,0.3996201-0.1953506,0.4712906-0.229537c21.0933151-9.2943258,48.1828384-18.3381119,57.7932968-8.8191338
	c13.2011108,13.1324902,2.3741302,35.2545547-3.5356903,45.0465393c5.8990173,10.3751068,9.2667999,22.3520889,9.2667999,35.0977859
	c0,2.0648651-0.4035339,5.9230499-0.4202271,6.0861664l-0.1885223,1.7923508H59.1142921v2.2045364
	c0,4.7626648,1.190506,9.4999313,3.442894,13.7009659c5.0909462,9.3416977,14.887455,15.15242,25.5607719,15.15242
	c10.672821,0,20.4698257-5.8107224,25.5676498-15.1641464l0.5704575-1.047081h41.5601883l-1.0378265,2.7114792
	c-10.5461578,27.5669861-37.5591049,46.0882416-67.2181625,46.0882416c-11.4214935,0-22.2307968-2.6636047-31.8309364-7.3979492
	l0.1138954,0.1963348C41.645031,156.645813,31.5171394,159.9990234,23.7682953,160z M16.2172985,93.1127014
	c-13.0592365,24.8897018-15.1319437,46.3519745-8.4022722,54.2363434
	c6.8946247,8.4548035,15.457921,14.6718597,43.9578934-1.1359558
	C32.6673889,135.2597351,19.0681286,115.8242416,16.2172985,93.1127014z M19.7323589,86.7901535
	c1.3775501,36.0335236,31.2752018,64.9279251,67.8279037,64.9279251c27.015892,0,51.7067337-16.2786102,62.3530502-40.7981339
	h-33.2880173c-5.9481125,10.0303116-16.7613449,16.2112274-28.5073395,16.2112274
	c-12.150032,0-23.3015137-6.6126404-29.1028366-17.2583084c-2.5685463-4.7900162-3.9225311-10.1787796-3.9225311-15.595871
	v-6.2053299h100.1158905c0.1089935-1.2434158,0.228775-2.8531036,0.228775-3.8777237
	c0-34.3241959-25.878891-62.7487831-59.2454605-66.9810638c-6.3712921,3.2281799-32.4794502,16.9999542-48.2829857,33.5945587
	C35.9684029,62.6828346,26.6495647,75.0129166,19.7323589,86.7901535z M87.5602646,16.6697941
	c-35.6778679,0-65.0153656,27.5264606-67.6801376,62.3512421c6.7355614-10.4771729,15.1407795-21.0525169,25.1474094-31.0041962
	c13.243824-13.907547,32.9399452-25.5910187,43.5460014-31.3397179
	C88.236763,16.6722374,87.8980255,16.6697941,87.5602646,16.6697941z M102.7899017,14.2835789
	c18.7780838,4.0447483,34.8481903,15.4083309,45.0281219,30.9280148
	c5.5062714-9.6254463,13.5751953-27.8790703,3.0692902-38.3298759
	C145.1296844,1.1789272,127.7330856,3.8899145,102.7899017,14.2835789z M118.6302567,75.5813904H55.03368l0.119297-2.1127243
	c0.9435654-16.6981392,14.85849-29.7783699,31.6797256-29.7783699s30.7361603,13.0802307,31.6787491,29.7783699
	L118.6302567,75.5813904z M59.3690834,71.5805969h54.9262581c-1.8154602-13.5564041-13.4907608-23.8895073-27.4626389-23.8895073
	S61.1850357,58.0241928,59.3690834,71.5805969z"/>
</svg>
