<?xml version="1.0" encoding="utf-8"?>
<!-- Generator: Adobe Illustrator 23.0.0, SVG Export Plug-In . SVG Version: 6.00 Build 0)  -->
<svg version="1.1" id="icon-italic" xmlns="http://www.w3.org/2000/svg" xmlns:xlink="http://www.w3.org/1999/xlink" x="0px"
	 y="0px" viewBox="0 0 160 160" style="enable-background:new 0 0 160 160;" xml:space="preserve">
<path d="M155,160c-2.7568359,0-5-2.2431641-5-5s2.2431641-5,5-5s5,2.2431641,5,5S157.7568359,160,155,160z M155,154
	c-0.5517578,0-1,0.4482422-1,1s0.4482422,1,1,1s1-0.4482422,1-1S155.5517578,154,155,154z M137,160c-2.7568359,0-5-2.2431641-5-5
	s2.2431641-5,5-5s5,2.2431641,5,5S139.7568359,160,137,160z M137,154c-0.5517578,0-1,0.4482422-1,1s0.4482422,1,1,1s1-0.4482422,1-1
	S137.5517578,154,137,154z M119,160c-2.7568359,0-5-2.2431641-5-5s2.2431641-5,5-5s5,2.2431641,5,5S121.7568359,160,119,160z
	 M119,154c-0.5517578,0-1,0.4482422-1,1s0.4482422,1,1,1s1-0.4482422,1-1S119.5517578,154,119,154z M98,160H2
	c-1.1044922,0-2-0.8955078-2-2s0.8955078-2,2-2h45.137207L108.5488281,4H62c-1.1044922,0-2-0.8955078-2-2s0.8955078-2,2-2h96
	c1.1044922,0,2,0.8955078,2,2s-0.8955078,2-2,2h-45.1367188L51.4511719,156H98c1.1044922,0,2,0.8955078,2,2S99.1044922,160,98,160z
	 M5,140c-2.7568359,0-5-2.2431641-5-5s2.2431641-5,5-5s5,2.2431641,5,5S7.7568359,140,5,140z M5,134c-0.5512695,0-1,0.4482422-1,1
	s0.4487305,1,1,1s1-0.4482422,1-1S5.5512695,134,5,134z M5,121.4257813c-2.7568359,0-5-2.2431641-5-5s2.2431641-5,5-5
	s5,2.2431641,5,5S7.7568359,121.4257813,5,121.4257813z M5,115.4257813c-0.5512695,0-1,0.4482422-1,1s0.4487305,1,1,1
	s1-0.4482422,1-1S5.5512695,115.4257813,5,115.4257813z M5,102.8554688c-2.7568359,0-5-2.2431641-5-5s2.2431641-5,5-5
	s5,2.2431641,5,5S7.7568359,102.8554688,5,102.8554688z M5,96.8554688c-0.5512695,0-1,0.4482422-1,1s0.4487305,1,1,1
	s1-0.4482422,1-1S5.5512695,96.8554688,5,96.8554688z M5,84.2841797c-2.7568359,0-5-2.2431641-5-5s2.2431641-5,5-5s5,2.2431641,5,5
	S7.7568359,84.2841797,5,84.2841797z M5,78.2841797c-0.5512695,0-1,0.4487305-1,1s0.4487305,1,1,1s1-0.4487305,1-1
	S5.5512695,78.2841797,5,78.2841797z M5,65.7128906c-2.7568359,0-5-2.2431641-5-5s2.2431641-5,5-5s5,2.2431641,5,5
	S7.7568359,65.7128906,5,65.7128906z M5,59.7128906c-0.5512695,0-1,0.4487305-1,1s0.4487305,1,1,1s1-0.4487305,1-1
	S5.5512695,59.7128906,5,59.7128906z M5,47.1420898c-2.7568359,0-5-2.2431641-5-5s2.2431641-5,5-5s5,2.2431641,5,5
	S7.7568359,47.1420898,5,47.1420898z M5,41.1420898c-0.5512695,0-1,0.4487305-1,1s0.4487305,1,1,1s1-0.4487305,1-1
	S5.5512695,41.1420898,5,41.1420898z M5,28.5708008c-2.7568359,0-5-2.2431641-5-5s2.2431641-5,5-5s5,2.2431641,5,5
	S7.7568359,28.5708008,5,28.5708008z M5,22.5708008c-0.5512695,0-1,0.4487305-1,1s0.4487305,1,1,1s1-0.4487305,1-1
	S5.5512695,22.5708008,5,22.5708008z M5,10c-2.7568359,0-5-2.2431641-5-5s2.2431641-5,5-5s5,2.2431641,5,5S7.7568359,10,5,10z M5,4
	C4.4487305,4,4,4.4487305,4,5s0.4487305,1,1,1s1-0.4487305,1-1S5.5512695,4,5,4z"/>
</svg>
