<?xml version="1.0" encoding="utf-8"?>
<!-- Generator: Adobe Illustrator 18.0.0, SVG Export Plug-In . SVG Version: 6.00 Build 0)  -->
<!DOCTYPE svg PUBLIC "-//W3C//DTD SVG 1.1//EN" "http://www.w3.org/Graphics/SVG/1.1/DTD/svg11.dtd">
<svg version="1.1" id="icon-items" xmlns="http://www.w3.org/2000/svg" xmlns:xlink="http://www.w3.org/1999/xlink" x="0px" y="0px"
	 viewBox="0 0 160 160" style="enable-background:new 0 0 160 160;" xml:space="preserve">
<path d="M143.375,160H16.625C7.4580078,160,0,151.6054688,0,141.2861328V18.7143555C0,8.3950195,7.4580078,0,16.625,0h126.75
	C152.5419922,0,160,8.3950195,160,18.7143555v122.5717773C160,151.6054688,152.5419922,160,143.375,160z M16.625,4
	C9.6635742,4,4,10.6010742,4,18.7143555v122.5717773C4,149.3994141,9.6635742,156,16.625,156h126.75
	c6.9619141,0,12.625-6.6005859,12.625-14.7138672V18.7143555C156,10.6010742,150.3369141,4,143.375,4H16.625z M38.9472656,124
	c-2.7568359,0-5-2.2431641-5-5s2.2431641-5,5-5s5,2.2431641,5,5S41.7041016,124,38.9472656,124z M38.9472656,118
	c-0.5512695,0-1,0.4482422-1,1s0.4487305,1,1,1s1-0.4482422,1-1S39.4985352,118,38.9472656,118z M125.1582031,121H61.5263672
	c-1.1044922,0-2-0.8955078-2-2s0.8955078-2,2-2h63.6318359c1.1044922,0,2,0.8955078,2,2S126.2626953,121,125.1582031,121z
	 M38.9472656,85c-2.7568359,0-5-2.2431641-5-5s2.2431641-5,5-5s5,2.2431641,5,5S41.7041016,85,38.9472656,85z M38.9472656,79
	c-0.5512695,0-1,0.4487305-1,1s0.4487305,1,1,1s1-0.4487305,1-1S39.4985352,79,38.9472656,79z M125.1582031,82H61.5263672
	c-1.1044922,0-2-0.8955078-2-2s0.8955078-2,2-2h63.6318359c1.1044922,0,2,0.8955078,2,2S126.2626953,82,125.1582031,82z
	 M38.9472656,46c-2.7568359,0-5-2.2431641-5-5s2.2431641-5,5-5s5,2.2431641,5,5S41.7041016,46,38.9472656,46z M38.9472656,40
	c-0.5512695,0-1,0.4487305-1,1s0.4487305,1,1,1s1-0.4487305,1-1S39.4985352,40,38.9472656,40z M125.1582031,43H61.5263672
	c-1.1044922,0-2-0.8955078-2-2s0.8955078-2,2-2h63.6318359c1.1044922,0,2,0.8955078,2,2S126.2626953,43,125.1582031,43z"/>
</svg>
