<?xml version="1.0" encoding="utf-8"?>
<!-- Generator: Adobe Illustrator 18.0.0, SVG Export Plug-In . SVG Version: 6.00 Build 0)  -->
<!DOCTYPE svg PUBLIC "-//W3C//DTD SVG 1.1//EN" "http://www.w3.org/Graphics/SVG/1.1/DTD/svg11.dtd">
<svg version="1.1" id="icon-joomla" xmlns="http://www.w3.org/2000/svg" xmlns:xlink="http://www.w3.org/1999/xlink" x="0px"
	 y="0px" viewBox="0 0 160 160" style="enable-background:new 0 0 160 160;" xml:space="preserve">
<path d="M22.8232422,160C10.2382813,160,0,149.7167969,0,137.0771484c0-10.0625,6.3647461-18.7119141,15.7080078-21.6875
	c-2.5039063-12.3398438,1.4443359-24.4189453,11.237793-34.2099609l0.4150391-0.4150391
	c-0.5722656-0.5712891-1.1289063-1.1269531-1.6669922-1.6635742c-9.0507813-8.9472656-12.668457-21.9770508-9.6762695-34.4267578
	C6.6108398,41.7333984,0.2089844,33.081543,0.2089844,22.9580078c0-12.6401367,10.2382813-22.9233398,22.8232422-22.9233398
	c10.5463867,0,19.5576172,7.0844727,22.1567383,17.1186523c12.1171875-2.152832,23.9316406,1.8476563,33.4741211,11.3876953
	l0.3500977,0.3505859c0.6376953-0.6518555,1.1523438-1.1821289,1.5273438-1.5732422
	c8.9799805-8.9790039,21.8666992-12.6362305,34.1137695-9.8271484C117.1162109,7.3774414,126.3261719,0,136.9326172,0
	c12.5849609,0,22.8232422,10.2832031,22.8232422,22.9228516c0,10.6083984-7.4277344,19.8222656-17.6074219,22.2788086
	c2.859375,12.628418-1.0419922,25.0112305-11.1142578,35.081543l-0.3964844,0.3994141
	c0.7880859,0.7978516,1.3613281,1.3808594,1.6738281,1.7041016c8.5263672,8.5244141,12.3105469,20.8154297,10.1132813,32.5009766
	C152.5810547,117.3125,160,126.484375,160,137.0419922c0,12.6396484-10.2382813,22.9228516-22.8232422,22.9228516
	c-10.1601563,0-19.0693359-6.7226563-21.9482422-16.2646484c-13.0341797,3.265625-26.5869141-0.7998047-35.7993164-10.8789063
	l-0.3491211-0.3486328c-0.6010742,0.6005859-1.1499023,1.1484375-1.6381836,1.6347656
	c-8.7685547,8.6630859-20.8974609,12.328125-32.7861328,10.0019531C41.6469727,153.5585938,32.934082,160,22.8232422,160z
	 M30.1914063,83.5908203l-0.4174805,0.4169922c-9.3950195,9.3925781-12.7661133,20.5654297-9.7495117,32.3095703
	l0.5131836,1.9970703l-2.0117188,0.4521484C9.9731445,120.6884766,4,128.2177734,4,137.0771484
	C4,147.5117188,12.4438477,156,22.8232422,156c8.902832,0,16.4916992-6.0449219,18.4545898-14.7001953l0.4526367-1.9951172
	l1.984375,0.4970703c11.1230469,2.7890625,22.6787109-0.4013672,30.909668-8.5341797
	c6.5874023-6.5654297,24.1801758-24.2441406,35.0102539-35.1328125L97.0917969,83.5615234
	c-11.6064453,11.6533203-25.9995117,26.0996094-35.0371094,35.1542969
	c-5.7631836,5.7626953-15.1386719,5.7636719-20.9018555,0.0009766c-5.1767578-5.2939453-6.8286133-14.1738281,1.1142578-22.1152344
	l0.4726563-0.4736328C38.2885742,91.6787109,33.9814453,87.375,30.1914063,83.5908203z M118.1914063,138.6513672
	l0.4365234,2.1748047c1.7607422,8.7714844,9.5615234,15.1386719,18.5488281,15.1386719
	c10.3789063,0,18.8232422-8.4882813,18.8232422-18.9228516c0-9.2958984-6.984375-17.2900391-16.2470703-18.59375
	l-2.2011719-0.3105469l0.5410156-2.15625c2.7402344-10.9277344-0.5673828-22.7255859-8.6328125-30.7900391
	c-2.5507813-2.6357422-22.4160156-22.5546875-35.0185547-35.1835938C91.2080078,53.25,86.6230469,57.8442383,81.8525391,62.6225586
	l35.0810547,35.1655273c2.7841797,2.7832031,4.3183594,6.4931641,4.3183594,10.4453125
	c0,3.953125-1.5341797,7.6630859-4.3203125,10.4482422c-2.7890625,2.7890625-6.4023438,4.3251953-10.1738281,4.3251953
	c-0.0048828,0-0.0107422,0-0.015625,0c-4.2001953-0.0048828-8.3261719-1.9228516-11.9335938-5.5458984l-0.3779297-0.3789063
	c-4.625,4.6455078-9.0527344,9.0869141-12.5234375,12.5625l0.4130859,0.4130859
	c8.6943359,9.5107422,21.6025391,13.0341797,33.7529297,9.2519531L118.1914063,138.6513672z M45.5688477,98.9560547
	l-0.4736328,0.4736328c-6.421875,6.421875-4.6054688,12.8876953-1.0981445,16.4746094
	c4.1865234,4.1845703,11.0249023,4.1865234,15.2280273-0.015625c0.527832-0.5292969,1.0742188-1.0761719,1.6367188-1.640625
	C56.0556641,109.4414063,50.7675781,104.1533203,45.5688477,98.9560547z M97.2539063,114.2480469l0.3876953,0.3876953
	c2.8427734,2.8574219,5.9902344,4.3671875,9.1044922,4.3710938c0.0039063,0,0.0078125,0,0.0117188,0
	c2.7041016,0,5.3115234-1.1191406,7.3457031-3.1533203c2.0302734-2.0302734,3.1484375-4.7363281,3.1484375-7.6201172
	c0-2.8828125-1.1181641-5.5888672-3.1484375-7.6191406l-1.6445313-1.6474609
	C108.0996094,103.3505859,102.6455078,108.8330078,97.2539063,114.2480469z M23.0322266,4.034668
	c-10.3793945,0-18.8232422,8.4887695-18.8232422,18.9233398c0,8.9350586,6.0380859,16.4775391,14.6831055,18.3413086
	l2.1147461,0.4560547l-0.6201172,2.0722656c-3.4755859,11.6162109-0.3618164,24.0449219,8.1259766,32.4350586
	c9.1787109,9.1582031,23.5791016,23.5566406,35.1743164,35.1542969c3.7680664-3.7783203,8.0693359-8.0927734,12.5239258-12.5634766
	L41.1176758,63.7460938c-2.7856445-2.7851563-4.3198242-6.5146484-4.3198242-10.5004883s1.5341797-7.715332,4.3203125-10.5009766
	c5.0336914-5.03125,14.1020508-6.796875,22.1191406,1.21875l0.4248047,0.4262695
	c4.9350586-4.9589844,9.3662109-9.4228516,12.5463867-12.6455078l-0.3740234-0.375
	c-9.184082-9.1816406-20.1572266-12.6103516-31.7338867-9.9101563l-2.0776367,0.484375l-0.3496094-2.1044922
	C40.1523438,10.6811523,32.3125,4.034668,23.0322266,4.034668z M63.7612305,80.7407227L79.034668,96.0205078
	c5.1704102-5.1894531,10.4389648-10.4775391,15.2319336-15.2905273L79.0263672,65.453125
	C73.1665039,71.3227539,67.371582,77.1259766,63.7612305,80.7407227z M48.3959961,65.3691406l12.5375977,12.5429688
	c9.2319336-9.2451172,32.7441406-32.7915039,35.0908203-35.1601563c5.7675781-5.7670898,15.1435547-5.7685547,20.9072266-0.0073242
	c2.7939453,2.7939453,4.3300781,6.4125977,4.3251953,10.1899414c-0.0048828,4.1987305-1.9238281,8.3242188-5.5478516,11.9296875
	l-0.4003906,0.4023438c4.8417969,4.8579102,9.3271484,9.3642578,12.5136719,12.5742188l0.3789063-0.3818359
	c9.5654297-9.5629883,12.9589844-21.3774414,9.5595703-33.2724609l-0.6318359-2.2104492l2.2763672-0.3193359
	c9.3212891-1.3085938,16.3505859-9.3623047,16.3505859-18.7338867C155.7558594,12.4887695,147.3115234,4,136.9326172,4
	c-9.3779297,0-17.4335938,6.9829102-18.7382813,16.2431641l-0.3232422,2.2900391l-2.2197266-0.6499023
	c-11.4580078-3.3549805-23.8173828-0.2016602-32.2529297,8.2333984
	C79.7368164,33.9379883,62.6552734,51.0839844,48.3959961,65.3691406z M51.2924805,42.4150391
	c-2.9628906,0-5.5385742,1.3510742-7.3461914,3.1586914c-2.0302734,2.0297852-3.1484375,4.7543945-3.1484375,7.671875
	s1.1181641,5.6420898,3.1484375,7.671875l1.621582,1.6225586c4.9775391-4.9863281,10.2993164-10.3217773,15.2724609-15.3154297
	l-0.4331055-0.434082C57.237793,43.621582,54.0922852,42.4150391,51.2924805,42.4150391z M97.265625,47.175293
	c4.5166016,4.5258789,9.9667969,9.9887695,15.2197266,15.2583008l0.3964844-0.3989258
	c2.8603516-2.8457031,4.3710938-5.9921875,4.375-9.1049805c0.0039063-2.7070313-1.1162109-5.3193359-3.1533203-7.3564453
	c-4.2041016-4.2006836-11.0419922-4.2011719-15.2441406,0.0004883C98.5898438,45.8457031,98.0410156,46.3974609,97.265625,47.175293
	z"/>
</svg>
