<?xml version="1.0" encoding="utf-8"?>
<!-- Generator: Adobe Illustrator 18.0.0, SVG Export Plug-In . SVG Version: 6.00 Build 0)  -->
<!DOCTYPE svg PUBLIC "-//W3C//DTD SVG 1.1//EN" "http://www.w3.org/Graphics/SVG/1.1/DTD/svg11.dtd">
<svg version="1.1" id="icon-key" xmlns="http://www.w3.org/2000/svg" xmlns:xlink="http://www.w3.org/1999/xlink" x="0px" y="0px"
	 viewBox="0 0 160 160" style="enable-background:new 0 0 160 160;" xml:space="preserve">
<path d="M44.0185547,160c-0.5117188,0-1.0234375-0.1953125-1.4140625-0.5859375l-13.7695313-13.7685547l-13.7612305,13.7685547
	c-0.75,0.7509766-2.0786133,0.75-2.8286133,0L0.5859375,147.7548828C0.2104492,147.3798828,0,146.8710938,0,146.3408203
	c0-0.53125,0.2109375-1.0400391,0.5864258-1.4150391l79.5625-79.5146484
	c-4.0966797-6.7280273-6.2543945-14.4228516-6.2543945-22.3583984C73.8945313,19.3134766,93.2080078,0,116.9472656,0
	S160,19.3134766,160,43.0527344s-19.3134766,43.0527344-43.0527344,43.0527344
	c-7.9365234,0-15.6318359-2.1572266-22.3583984-6.2543945l-28.1469727,28.1606445l13.7822266,13.7822266
	c0.375,0.375,0.5859375,0.8837891,0.5859375,1.4140625s-0.2109375,1.0390625-0.5859375,1.4140625l-10.1601563,10.1601563
	c-0.78125,0.78125-2.046875,0.78125-2.828125,0l-13.7753906-13.7744141l-11.6411133,11.6445313l13.7734375,13.7734375
	c0.78125,0.78125,0.78125,2.046875,0,2.828125l-10.1601563,10.1601563C45.0424805,159.8046875,44.5302734,160,44.0185547,160z
	 M28.8339844,140.8164063c0.5307617,0,1.0395508,0.2109375,1.4145508,0.5859375l13.7700195,13.7695313l7.331543-7.3320313
	l-13.7729492-13.7734375c-0.78125-0.78125-0.78125-2.046875-0.0004883-2.828125l14.46875-14.4736328
	c0.7495117-0.7509766,2.078125-0.7509766,2.8286133,0l13.7758789,13.7753906l7.331543-7.3320313L62.199707,109.4257813
	c-0.78125-0.7802734-0.78125-2.046875-0.0004883-2.828125l30.6933594-30.7080078
	c0.1513672-0.1513672,0.3242188-0.2788086,0.515625-0.375c0.6894531-0.3457031,1.4960938-0.2602539,2.0888672,0.1777344
	c6.3710938,4.1958008,13.7851563,6.4130859,21.4501953,6.4130859C138.4814453,82.1054688,156,64.5864258,156,43.0527344
	S138.4814453,4,116.9472656,4S77.8945313,21.519043,77.8945313,43.0527344c0,7.6621094,2.2167969,15.0761719,6.4111328,21.4467773
	c0.0634766,0.0849609,0.1191406,0.1743164,0.1669922,0.2670898c0.0664063,0.1254883,0.1171875,0.2573242,0.1542969,0.3916016
	c0.1074219,0.3891602,0.0966797,0.8076172-0.0410156,1.1982422c-0.0722656,0.2050781-0.1787109,0.4003906-0.3203125,0.5776367
	c-0.0488281,0.0610352-0.1005859,0.1196289-0.1542969,0.1738281L4.8286133,146.3408203l8.8300781,8.8300781l13.7612305-13.7685547
	C27.7949219,141.0273438,28.3037109,140.8164063,28.8339844,140.8164063z M116.9472656,61.4736328
	c-10.1572266,0-18.4208984-8.2636719-18.4208984-18.4208984c0-10.1577148,8.2636719-18.4213867,18.4208984-18.4213867
	s18.4208984,8.2636719,18.4208984,18.4213867C135.3681641,53.2099609,127.1044922,61.4736328,116.9472656,61.4736328z
	 M116.9472656,28.6313477c-7.9521484,0-14.4208984,6.4692383-14.4208984,14.4213867
	c0,7.9516602,6.46875,14.4208984,14.4208984,14.4208984s14.4208984-6.4692383,14.4208984-14.4208984
	C131.3681641,35.1005859,124.8994141,28.6313477,116.9472656,28.6313477z"/>
</svg>
