<?xml version="1.0" encoding="utf-8"?>
<!-- Generator: Adobe Illustrator 23.0.0, SVG Export Plug-In . SVG Version: 6.00 Build 0)  -->
<svg version="1.1" id="icon-leaf" xmlns="http://www.w3.org/2000/svg" xmlns:xlink="http://www.w3.org/1999/xlink" x="0px" y="0px"
	 viewBox="0 0 160 160" style="enable-background:new 0 0 160 160;" xml:space="preserve">
<path d="M10.6552105,151.3479767c-1.3535519,0-2.726635-0.2597656-4.0499125-0.808609
	c-5.4063935-2.2217407-8.0236511-8.4435883-5.82828-13.8665924c3.8458054-9.4348145,13.5335627-23.6969147,29.1965771-35.4423447
	c20.5557213-15.4144669,46.132576-23.2301102,76.0200882-23.2301102c1.2871399,0,2.3340454-1.0468979,2.3340454-2.3335571
	c0-1.2871399-1.0469055-2.3340454-2.3340454-2.3340454c-29.864563,0-55.5820465,7.574913-76.4385529,22.5137863
	l-2.8008556,2.0059128l-0.4189568-4.0577316c-0.1728554-1.6445694-0.3510818-3.3438339-0.3510818-5.1261063
	c0-29.7796021,24.2272053-54.0068092,54.0063171-54.0068092h21.6690369c16.1644897,0,30.6941757-8.4850883,38.869194-22.6978683
	c1.2187805-2.1475182,3.4580994-3.4190359,5.8106995-3.3047752c2.3721313,0.1127958,4.3956299,1.5366621,5.4142151,3.8091831l0,0
	C157.0712128,24.3348351,160,38.5349197,160,52.4532585c0,23.2501259-7.3615265,45.1179008-20.7290649,61.5763435
	c-13.6087646,16.7563019-32.6385651,26.8210297-53.5834579,28.3425446
	c-26.1212997,2.7676544-42.0221138-12.888031-47.8103523-20.0200577
	c-12.4851952,11.00811-17.1381493,21.9449234-17.3373737,22.4234543
	C18.820467,148.8713531,14.8335438,151.3470001,10.6552105,151.3479767z M105.9936829,69.3326111
	c3.4922791,0,6.3341522,2.8413849,6.3341522,6.3341522c0,3.4922791-2.8418732,6.3336639-6.3341522,6.3336639
	c-77.7193527,0-100.5754242,53.8842468-101.5105133,56.1782532c-1.3701537,3.3848572,0.2656322,7.2726593,3.6485348,8.6633148
	c3.3868084,1.4043427,7.2931623-0.2158203,8.7175159-3.6104431c0.2211971-0.5302887,5.6241741-13.2327728,20.0352001-25.2994995
	l1.6304169-1.3652725l1.2632141,1.7109833c4.0059662,5.4269028,19.123558,22.926384,45.5539474,20.1099014
	c40.9757004-2.9756622,70.6678925-39.1143112,70.6678925-85.9344025c0-13.1727142-2.878006-27.1506233-7.896698-38.3491631
	c-0.3945313-0.8808832-1.1064758-1.4092169-1.9531708-1.4492569c-0.8789368-0.055666-1.6660614,0.4433708-2.1484985,1.2939796
	c-8.9025726,15.4779501-24.7291718,24.7130585-42.3419418,24.7130585H79.9905472
	c-27.5734863,0-50.0062103,22.432724-50.0062103,50.0067024c0,0.6591949,0.0278339,1.3086243,0.0732441,1.9609833
	C51.0815773,76.4958878,76.6096039,69.3326111,105.9936829,69.3326111z"/>
</svg>
