<?xml version="1.0" encoding="utf-8"?>
<!-- Generator: Adobe Illustrator 23.0.0, SVG Export Plug-In . SVG Version: 6.00 Build 0)  -->
<svg version="1.1" id="icon-leftquote" xmlns="http://www.w3.org/2000/svg" xmlns:xlink="http://www.w3.org/1999/xlink" x="0px"
	 y="0px" viewBox="0 0 160 160" style="enable-background:new 0 0 160 160;" xml:space="preserve">
<path d="M123.0556641,134c-22.6630859,0-37.3076172-16.4029388-37.3076172-41.787468
	c0-31.949604,19.1679688-56.416832,51.2744141-65.4496765c8.2177734-2.5126762,14.3916016,1.6422482,16.0146484,6.8335819
	c1.5166016,4.852047-0.7558594,10.9606781-9.25,13.6696053l-0.1054688,0.0307541
	c-11.1044922,2.8788147-20.3994141,10.3636322-25.6152344,20.4167824c9.2607422-2.7953415,19.9550781-1.592453,27.9414063,3.4070206
	C155.0302734,76.7693634,160,86.6579895,160,98.9650803C160,120.2478943,145.4980469,134,123.0556641,134z M141.7675781,30.0283089
	c-1.1171875,0-2.3291016,0.1772099-3.6181641,0.571661c-30.3232422,8.5319691-48.4013672,31.5600376-48.4013672,61.6125641
	c0,22.9553299,13.0742188,37.7882767,33.3076172,37.7882767C143.3769531,130.0008087,156,118.1086731,156,98.9650803
	c0-13.9434738-6.5888672-20.9947891-12.1152344-24.4550247c-8.25-5.1644897-19.7998047-5.7200394-28.7441406-1.3791199
	l-4.5136719,2.1904755l1.7685547-4.6943665c5.0527344-13.410862,16.3505859-23.5704346,30.2265625-27.1868935
	c6.2363281-2.0078926,7.453125-5.9118919,6.5966797-8.6510849C148.4052734,32.184124,145.6650391,30.0283089,141.7675781,30.0283089
	z M37.3081055,134C14.6445313,134,0,117.5775299,0,92.1607895C0,60.1906776,19.1689453,35.7424889,51.2773438,26.761879
	c8.1933594-2.5346451,14.3891602,1.6388283,16.0322266,6.8638496c1.519043,4.8325195-0.7578125,10.9245529-9.2695313,13.6403122
	l-0.105957,0.0307541c-11.1049805,2.8788147-20.3979492,10.3607025-25.612793,20.4128761
	c9.2407227-2.7928925,19.9335938-1.5861053,27.9355469,3.4167862c9.0249023,5.6424179,13.9951172,15.5295792,13.9951172,27.838623
	C74.2519531,120.2478943,59.7504883,134,37.3081055,134z M56.0224609,30.0204983
	c-1.1166992,0-2.3276367,0.179163-3.6152344,0.5775204C22.0766602,39.0821457,4,62.0901985,4,92.1607895
	c0,22.9865723,13.0742188,37.8400192,33.3081055,37.8400192c20.3203125,0,32.9438477-11.8921356,32.9438477-31.0357285
	c0-13.9454269-6.5888672-20.9918594-12.1162109-24.4477005c-8.2714844-5.171814-19.8217773-5.729805-28.7402344-1.3874207
	l-4.5185547,2.1992645l1.7714844-4.702179c5.0517578-13.4103775,16.3486328-23.5704346,30.2260742-27.1868935
	c5.1469727-1.658844,7.7441406-5.0365791,6.6191406-8.615448C62.6669922,32.1958389,59.9174805,30.0204983,56.0224609,30.0204983z"
	/>
</svg>
