<?xml version="1.0" encoding="utf-8"?>
<!-- Generator: Adobe Illustrator 18.0.0, SVG Export Plug-In . SVG Version: 6.00 Build 0)  -->
<!DOCTYPE svg PUBLIC "-//W3C//DTD SVG 1.1//EN" "http://www.w3.org/Graphics/SVG/1.1/DTD/svg11.dtd">
<svg version="1.1" id="icon-letter" xmlns="http://www.w3.org/2000/svg" xmlns:xlink="http://www.w3.org/1999/xlink" x="0px"
	 y="0px" viewBox="0 0 160 160" style="enable-background:new 0 0 160 160;" xml:space="preserve">
<path d="M157.9997406,160H2.0002575c-1.1044886,0-1.9999934-0.8955078-1.9999934-2V64.9335938
	c-0.0058594-0.3598633,0.0854489-0.7255859,0.2832022-1.0561523c0.0009766-0.0014648,0.0009766-0.0019531,0.0024414-0.0039063
	c0.0107422-0.0180664,0.0214843-0.0356445,0.0327148-0.0532227c0.0009765-0.0009766,0.0009765-0.0014648,0.0019531-0.0024414
	c0.2314445-0.3583984,0.5585919-0.6186523,0.9272431-0.7675781l23.913496-10.0273438V2c0-1.1044922,0.895504-2,1.9999924-2
	h105.6773911c1.1044769,0,1.9999847,0.8955078,1.9999847,2v51.0229492l23.9120331,10.0263672
	c0.3691406,0.1494141,0.6972656,0.409668,0.9287109,0.7685547c0,0.0009766,0.0019531,0.0019531,0.0019531,0.0029297
	c0.0107422,0.0170898,0.0224609,0.034668,0.0332031,0.0527344c0,0.0004883,0.0029297,0.0019531,0.0019531,0.0039063
	c0.1972656,0.3305664,0.2890625,0.6962891,0.2832031,1.0561523V158C159.9997406,159.1044922,159.1042328,160,157.9997406,160z
	 M4.0002508,156h151.9995117V68.5175781L81.0625,115.4960938c-0.6503906,0.4082031-1.4746094,0.4082031-2.125,0
	L4.0002508,68.5175781V156z M29.1613007,79.5703125L80,111.4414063l50.8386993-31.8710938V54.3969727
	c-0.0009766-0.0297852-0.0009766-0.0595703,0-0.0893555V4H29.1613007v50.3076172
	c0.0004883,0.0297852,0.0004883,0.0595703,0,0.0893555V79.5703125z M134.8386841,57.3603516V77.0625l18.8319702-11.8056641
	L134.8386841,57.3603516z M6.3293447,65.2568359L25.161314,77.0625V57.3603516L6.3293447,65.2568359z M112.8416901,65.5791016
	H47.1578217c-1.1044884,0-1.9999924-0.8955078-1.9999924-2s0.895504-2,1.9999924-2h65.6838684
	c1.1044846,0,1.9999924,0.8955078,1.9999924,2S113.9461746,65.5791016,112.8416901,65.5791016z M112.8416901,45.0527344H47.1578217
	c-1.1044884,0-1.9999924-0.8955078-1.9999924-2s0.895504-2,1.9999924-2h65.6838684c1.1044846,0,1.9999924,0.8955078,1.9999924,2
	S113.9461746,45.0527344,112.8416901,45.0527344z M71.7895813,24.5263672H47.1578217c-1.1044884,0-1.9999924-0.8955078-1.9999924-2
	s0.895504-2,1.9999924-2h24.6317596c1.1044846,0,1.9999924,0.8955078,1.9999924,2S72.8940659,24.5263672,71.7895813,24.5263672z"/>
</svg>
