<?xml version="1.0" encoding="utf-8"?>
<!-- Generator: Adobe Illustrator 23.0.0, SVG Export Plug-In . SVG Version: 6.00 Build 0)  -->
<svg version="1.1" id="icon-like" xmlns="http://www.w3.org/2000/svg" xmlns:xlink="http://www.w3.org/1999/xlink" x="0px" y="0px"
	 viewBox="0 0 160 160" style="enable-background:new 0 0 160 160;" xml:space="preserve">
<path d="M124.6428604,160c-0.0605469,0-0.1201172,0-0.1806641-0.0009766h-98.643692
	c-8.7227097,0-15.8189468-7.8955078-15.8189468-17.5996094V87.7998047c0-9.7045898,7.0962372-17.6000977,15.8189468-17.6000977
	h19.3673096L72.3251495,1.2670898C72.6259308,0.5029297,73.3642197,0,74.185997,0
	c12.5327988,0,22.7281723,11.3945313,22.7281723,25.3999023v29.199707h37.1086273
	c0.8457184-0.0078125,1.7129059,0.0581055,2.5683746,0.2045898c8.5820923,1.4707031,14.5186462,10.4433594,13.23349,20.0019531
	l-9.5361938,70.2026367C139.1361084,153.5869141,132.4270935,160,124.6428604,160z M48.5476532,155.9990234h75.9399338
	C124.5305557,156,124.5754776,156,124.6184464,156c5.8115616,0,10.8203812-4.9306641,11.7061234-11.5273438l9.5361938-70.2021484
	c1.0009918-7.4477539-3.4599762-14.4125977-9.9453735-15.5239258c-0.6142578-0.1049805-1.2285156-0.1542969-1.8681793-0.1469727
	H94.9141541c-1.1044998,0-2.0000076-0.8955078-2.0000076-2v-31.199707c0-11.2851563-7.6836472-20.5576172-17.3873215-21.3457031
	L48.5476532,72.5791016V155.9990234z M25.8185043,74.199707c-6.5171299,0-11.8189211,6.1010742-11.8189211,13.6000977v54.5996094
	c0,7.4990234,5.3017912,13.5996094,11.8189211,13.5996094h18.7291222V74.199707H25.8185043z"/>
</svg>
