<?xml version="1.0" encoding="utf-8"?>
<!-- Generator: Adobe Illustrator 23.0.0, SVG Export Plug-In . SVG Version: 6.00 Build 0)  -->
<svg version="1.1" id="icon-link" xmlns="http://www.w3.org/2000/svg" xmlns:xlink="http://www.w3.org/1999/xlink" x="0px" y="0px"
	 viewBox="0 0 160 160" style="enable-background:new 0 0 160 160;" xml:space="preserve">
<path d="M44.1864853,160c-11.3203316,0-22.6411457-4.3096924-31.2591095-12.9271393
	c-17.2364178-17.2358704-17.2364178-45.2821198,0-62.5179825L30.833889,66.6479416
	c0.7804756-0.7814484,2.0474091-0.7814484,2.8288612,0c0.7814522,0.7809677,0.7814522,2.0478897,0,2.8288498L15.7562351,87.383728
	C8.1624632,94.9774704,3.9802225,105.074791,3.9802225,115.8138657s4.1822405,20.8364029,11.7760124,28.4301376
	c15.6769295,15.6759033,41.1835632,15.6759033,56.8604965,0l17.906517-17.906929
	c0.7814484-0.7814484,2.0474091-0.7814484,2.8288574,0c0.781456,0.7814484,0.781456,2.0474014,0,2.8288498l-17.9065094,17.9069366
	C66.8276291,155.6903076,55.506813,160,44.1864853,160z M56.1241608,105.8757706
	c-0.5118523,0-1.0241928-0.1953583-1.4144325-0.5860825c-0.7814522-0.781456-0.7814522-2.0474014,0-2.8288498l47.751194-47.7510109
	c0.781456-0.7814522,2.0474091-0.7814522,2.8288574,0c0.781456,0.7809601,0.781456,2.0478859,0,2.8288498l-47.7511902,47.7510109
	C57.1483536,105.6804123,56.636013,105.8757706,56.1241608,105.8757706z M127.7516785,93.9381409
	c-0.5118484,0-1.0237045-0.1953583-1.4144287-0.5860825c-0.781456-0.781456-0.781456-2.0474014,0-2.8288498l17.9069977-17.9064484
	c15.6749878-15.676384,15.6749878-41.1838989,0-56.8602791c-7.5937653-7.5937433-17.691124-11.7759676-28.4302444-11.7759676
	S94.9775314,8.1627369,87.3837585,15.7564802L69.4767532,33.6629257c-0.7804718,0.7814522-2.0474091,0.7814522-2.8288574,0
	c-0.781456-0.7809601-0.781456-2.0478878,0-2.8288498l17.9069977-17.9064445
	c17.2378845-17.2373295,45.2822952-17.236351,62.5182266,0s17.2359161,45.2816277,0,62.5179787l-17.9070129,17.9064484
	C128.7753906,93.7427826,128.2635345,93.9381409,127.7516785,93.9381409z"/>
</svg>
