<?xml version="1.0" encoding="utf-8"?>
<!-- Generator: Adobe Illustrator 23.0.0, SVG Export Plug-In . SVG Version: 6.00 Build 0)  -->
<svg version="1.1" id="icon-linux" xmlns="http://www.w3.org/2000/svg" xmlns:xlink="http://www.w3.org/1999/xlink" x="0px" y="0px"
	 viewBox="0 0 160 160" style="enable-background:new 0 0 160 160;" xml:space="preserve">
<path d="M108.8342438,160c-5.6025009,0-10.3866501-2.9853363-12.9589005-8.1620636l-0.2089844-0.4589844
	c-0.0673828-0.1484222-0.1328125-0.300766-0.1953125-0.4579926c-3.1259537,0.0439453-5.9511337-0.3945313-8.521431-0.7646484
	c-2.5576019-0.3681641-4.7646179-0.6835938-6.6708603-0.5351563c-3.4985123,0.1914063-6.2670517,0.7246094-8.7094193,1.1943359
	c-1.7792816,0.3427734-3.3666763,0.6474457-4.9194031,0.7685394c-1.8071136,3.128891-4.8525085,5.2968445-8.6996536,6.1601257
	c-5.380825,1.2460785-11.9178963,0.0546875-18.3988113-3.3495941c-3.5273247-1.8681488-7.7885265-2.3505707-11.9095955-2.816391
	c-1.9946175-0.2265625-3.8788834-0.4394379-5.6337547-0.8046722c-2.4047699-0.4970703-5.8007469-1.5341797-7.4906769-4.782196
	c-1.3989172-2.7587738-1.2163019-6.3300476,0.5629845-11.2597046c0.3183575-0.9560547,0.0180664-2.9628754-0.2719707-4.9042664
	l-0.0688477-0.4609375c-0.1806631-1.1747894-0.3872042-2.5185318-0.3872042-3.8876648
	c0-1.8154221,0.357419-3.3613129,1.0922785-4.725563c1.7036018-3.2177505,4.4877644-4.5517273,6.722126-5.3525009
	c0.3149395-0.1123047,0.6254845-0.2197266,0.9301701-0.3251953c1.5292873-0.5273438,2.7372894-0.9443283,3.4931431-1.7177658
	c0.555172-0.587883,1.1611252-1.4150314,1.8032112-2.2910004c0.7607384-1.0380783,1.6025295-2.1865082,2.5712738-3.2001724
	c-0.5502892-4.898407,0.15625-10.3222046,2.1059437-16.1395493c3.9013443-11.7343063,11.9349861-22.8040619,18.0101433-30.0452309
	c4.730442-6.753376,5.9755516-12.1415253,6.4477158-18.6366043c0.043457-1.2963791-0.0913086-3.2348442-0.2470703-5.4789696
	c-0.6137657-8.8329544-1.5410042-22.1810169,6.2201805-30.4832134C67.8950424,2.382798,74.5121918,0,83.1674118,0
	c0.03125,0,0.0615234,0,0.0927734,0c7.1786652,0.008789,12.9061737,2.1327994,17.0223541,6.3124614
	c8.4452667,8.5741673,8.230423,23.8553219,8.0888214,33.9675674l-0.0224609,1.7441292
	c-0.0830078,8.3217239,4.5761414,14.1771584,9.508728,20.376339l0.2324219,0.2919922
	c6.9218369,8.1952591,11.6679001,15.8001938,14.4715958,23.2034683c3.172821,8.3925323,3.7304382,16.3817368,1.6660004,23.7771988
	c0.3984375,0.2382813,0.8339844,0.5576172,1.3515625,0.9960861c2.5859222,2.1943283,3.3212585,5.5019226,3.8583679,7.9159698
	l0.046875,0.1992188c0.4726563,2.0156097,0.9609375,4.0986099,1.6806488,4.8993835l0.0039063,0.0039063
	c3.816391,4.263649,5.3808289,7.3983994,5.2304382,10.4804001c-0.2558594,4.1835785-3.9726257,6.4433289-5.1943054,7.1864777
	c-1.4277191,0.8623047-3.0058441,1.6318359-4.6757507,2.4452972c-3.7812195,1.84375-7.6913605,3.7499847-10.3300095,6.9325867
	c-4.5507584,5.4159851-10.4159546,8.7714233-16.0985413,9.2177124C109.6750641,159.9833984,109.2522125,160,108.8342438,160z
	 M99.6663361,150.4609985c2.0829926,3.844696,5.7489853,5.8446808,10.1210327,5.500946
	c4.6220398-0.3623047,9.4833374-3.2021332,13.3407364-7.792923c3.1816254-3.8368988,7.6796341-6.0292664,11.6493454-7.9638214
	c1.5859222-0.7744141,3.0849457-1.5048676,4.3544617-2.2714691c2.1747894-1.3222656,3.1855316-2.5527191,3.2734222-3.9853363
	c0.0908203-1.8564301-1.2490234-4.2773132-4.2167664-7.59272c-1.4042969-1.5634689-1.984375-4.038063-2.5986176-6.658165
	l-0.0517578-0.2207031c-0.5605469-2.5214691-1.1005859-4.5302429-2.5458832-5.7558212
	c-0.3710938-0.3144531-0.6542969-0.5224609-0.9179688-0.6728439c-0.2109375-0.1289063-0.4033203-0.234375-0.5830078-0.3183594
	l-2.5302582-0.2958984c-0.8954926,1.5331955-2.4687347,3.0029144-4.5829773,4.2548599
	c-3.0263519,1.7929535-7.457962,3.2392349-10.5233765,2.4374847c-3.3486099-0.84375-5.501915-3.779274-6.5312042-7.0673447
	c-0.4941406,0.8261719-0.890625,1.8779221-1.228508,3.2158051c-0.7314453,2.9833755-0.9951172,7.0976105-1.2216721,11.4052048
	c-0.1640625,2.7704849-1.0556564,5.7812119-1.9980392,8.9696732c-0.3730392,1.2597504-0.7509689,2.535141-1.0800705,3.7997742
	c-0.4257813,1.6054688-1.0820236,3.2958832-1.7158127,4.929657c-0.4560471,1.1757813-1.1054611,2.8466644-1.3056488,3.7411957
	l0.0663986,0.2519531c0.1640625,0.628891,0.3652344,1.1728363,0.5976563,1.6181488L99.6663361,150.4609985z M34.5988617,109.9241333
	l-0.1889648,0.1689453c-0.9936447,0.8867111-1.9072151,2.1327972-2.7905102,3.3378677
	c-0.7177696,0.9804611-1.3954983,1.9052658-2.1454945,2.6982269c-1.4399319,1.4746017-3.286602,2.1113129-5.0727234,2.7275238
	c-0.2900372,0.1005859-0.5854454,0.2021484-0.8847599,0.3095703c-1.7343636,0.6210861-3.4853306,1.472641-4.5434284,3.4706802
	c-0.4257793,0.7900314-0.6206017,1.6894455-0.6206017,2.8417816c0,1.0634689,0.182127,2.2470551,0.3422813,3.2909851
	l0.0698242,0.4658203c0.3764629,2.5175629,0.7319298,4.8954773,0.0947266,6.8075867
	c-1.3769455,3.8153992-1.6279202,6.4560089-0.7836876,8.1210327c0.6874962,1.3212891,2.1537971,2.1572113,4.7446003,2.6923676
	c1.5766506,0.328125,3.3715611,0.53125,5.271452,0.7470703c4.2821999,0.484375,9.1352005,1.0332031,13.3260918,3.2529144
	c5.5458641,2.914032,11.2479782,4.0028992,15.6439476,2.9882507c2.7548637-0.6181488,4.907196-2.1357269,6.1523056-4.3124695
	l-0.0991211-4.3163757c-0.0004883-1.7333832-3.7504654-6.6806183-6.4887276-10.2929077
	c-2.5727386-3.3935394-5.2323914-6.902298-6.5595322-9.6552124l-5.8788719-10.6776733
	c-1.8329964-2.4531097-3.5126724-3.7187271-5.2787743-3.9804382l-0.1499023-0.0283203
	c-0.5439415-0.1230469-1.0121994-0.2851563-1.4252853-0.4287109
	C36.4167213,109.8342896,35.8107681,109.6243286,34.5988617,109.9241333z M39.5812531,106.6663437
	c2.8764458,0.4531174,5.3891258,2.2519379,7.9013176,5.651329l0.1435547,0.2236328l6.0238876,10.9491501
	c1.1425705,2.3925629,3.6952896,5.7597275,6.1635361,9.0155716c4.5424538,5.9931335,7.3007393,9.8348999,7.3007393,12.6639862
	l0.0537109,2.3408051c1.115715-0.1367188,2.3227386-0.3691406,3.6454849-0.6230469
	c2.5678558-0.4941406,5.4779968-1.0546722,9.1957474-1.2568207c2.3017426-0.1855469,4.8320007,0.1796875,7.5126495,0.5664063
	c2.3876801,0.3447113,4.8417664,0.6992035,7.4325714,0.7236176c0.2871017-1.1318207,0.7997971-2.4531097,1.3954926-3.9892273
	c0.5947266-1.5322266,1.2099609-3.1161957,1.5761642-4.4999695c0.3388672-1.2978516,0.7285156-2.6152191,1.1132736-3.9169769
	c0.1279297-0.4316406,0.2539063-0.8593597,0.3779297-1.2822113c-9.6600952,6.1386261-23.9412613,9.2548218-34.3557434,2.1376801
	l-0.3481445-0.2382813l-0.2226563-0.3583984c-1.0805588-1.7402191-2.5536957-3.6132507-3.8500748-5.2323914l-2.601059-3.2499771
	h4.1625748c0.8652267,0,2.3730316-0.1513672,2.7509613-1.1640549c0.4013596-1.0820236-0.2646484-2.9550629-1.7827072-5.0068054
	c-3.4501724-4.6503601-9.9330444-8.4188919-9.9979858-8.4569778c-0.845211-0.5253906-1.62743-1.0830002-2.3471527-1.6718674
	c-0.5498009-0.1728516-0.9956017-0.5751953-1.2270432-1.0937424c-1.9828987-1.9277267-3.3666801-4.1503677-4.1484146-6.6503525
	c-0.9882736-3.1640396-1.0302658-6.792923-0.1240196-10.7870407c1.561512-6.8788681,5.6059227-13.4618301,7.778759-16.998436
	c0.5781212-0.9413986,1.8100471-1.2348557,2.7509613-0.6572189c0.9413986,0.5781174,1.2353439,1.810051,0.6572227,2.7509613
	c-2.0517464,3.3398209-5.8710594,9.5560913-7.2865791,15.7894516c-0.747551,3.2968521-0.7338791,6.2275009,0.0419922,8.708931
	c0.1713867,0.5488281,0.3798828,1.0781174,0.6269493,1.587883c0.6943321-5.0614929,2.0766487-10.4950562,3.7621841-14.4960098
	c0.5976524-1.3642426,1.2968674-2.8740005,2.0556526-4.5116882c3.4760513-7.5014191,8.2372551-17.7752838,8.6737747-26.0271835
	l0.1943359-3.6791763l2.9794769,2.1674652c0.3154221,0.2294922,1.1992111,0.8286095,1.5200043,1.0087852
	c1.0224533,0.6000938,1.8134689,1.3159103,2.578598,2.0082855c0.3774414,0.3413086,0.7617188,0.6909142,1.1806564,1.0263634
	c2.5512543,2.0571136,6.0985947,2.1147308,9.4935989,0.1606445c0.5917892-0.3334961,1.1279221-0.6762657,1.6357269-0.9995079
	c1.0644531-0.6777306,2.0703049-1.3178635,3.1572113-1.6650276c2.2519379-0.7050743,4.1240005-1.9423714,5.148407-3.3989067
	l2.5048676-3.5629654l1.0693283,4.2221413c2.066391,8.1542473,6.9032745,20.0511475,10.124939,26.0462265
	c3.0771255,5.7514343,5.1650085,11.1888962,6.354454,16.5619125c1.6718597-0.6396408,3.4521255-0.5058594,5.2372742-0.0136719
	c0.4179611-2.6786957,0.275383-5.4989929-0.4257813-8.4061966c-1.6533127-6.9726181-6.2685165-13.5350723-10.109314-16.9486313
	c-0.8251877-0.7333908-0.8994064-1.9975433-0.1660156-2.8232193c0.7343674-0.8261719,1.9960785-0.9003906,2.8242035-0.1660156
	c3.9941177,3.5502701,9.3612671,10.6586227,11.3417282,19.0072021c0.8408127,3.4863129,0.9931564,6.8944931,0.4560471,10.1522827
	c5.5644226,2.5585785,8.6581573,5.5302429,9.2440796,8.87397c1.3857422-6.1698837,0.7470703-12.8387833-1.910141-19.868042
	c-2.6406021-6.9706573-7.1620636-14.1942444-13.8241272-22.0828705l-0.2695313-0.3374023
	c-5.1493835-6.4726143-10.4745483-13.164959-10.3778687-22.9085503l0.0234375-1.7582893
	c0.1318359-9.4462318,0.3320313-23.7215366-6.9394073-31.1047916c-3.3847504-3.4369912-8.0233917-5.1112971-14.1796036-5.1191096
	c-7.5565948-0.003418-13.2093887,1.9418826-16.8294907,5.8144174c-6.5722237,7.0307188-5.7177353,19.3333778-5.1523094,27.4744415
	c0.1635742,2.3559456,0.3046875,4.39011,0.2504883,5.9706688c-0.5273399,7.2748566-1.9164925,13.251873-7.2177315,20.7923546
	l-0.1049805,0.1362305c-5.8568954,6.9726105-13.6190567,17.629776-17.3343658,28.8054886
	c-1.5512581,4.6278992-2.2377777,8.9335327-2.0517464,12.8378067c1.7031174-0.1953125,2.8544769,0.2041016,3.8300552,0.5419922
	C38.9669991,106.4856796,39.2741241,106.5921249,39.5812531,106.6663437z M67.6538315,132.29216
	c9.4340286,6.1493835,22.6971283,2.5605316,31.1209106-3.4472504c0.5497971-0.3925629,1.2314377-0.4667816,1.8251801-0.2587738
	c0.1416016-0.7470703,0.2402344-1.4589844,0.2802734-2.1298752c0.2353516-4.4921646,0.5156174-8.8124466,1.3330002-12.1473846
	c0.5497971-2.1796799,1.5683517-5.1591492,4.1679382-7.0761337c0.6347656-2.9589615,1.4394455-5.1806335,2.4804535-6.7870636
	c-0.0351563-0.0986328-0.0624924-0.2021484-0.0820236-0.3095703c-1.5107346-8.2977982-5.1386414-15.0770569-6.3310165-17.3045807
	c-2.9169769-5.4291687-7.1181259-15.5428772-9.5536575-23.6404839c-1.3017502,0.9506798-2.8495865,1.7211838-4.5624695,2.2578011
	c-0.5820313,0.1860313-1.3749924,0.6909142-2.2148285,1.2255783c-0.5654297,0.3593712-1.1621017,0.7387657-1.8037033,1.10009
	c-4.8666687,2.8017426-10.0980835,2.6108246-13.97892-0.517086c-0.4780197-0.3828125-0.9243088-0.7846642-1.3598557-1.1791916
	c-0.3388596-0.3066406-0.6542892-0.5922813-0.9648361-0.8476524c-1.3090744,8.205513-5.5014305,17.2523346-8.6679153,24.0853043
	c-0.7456017,1.6093597-1.4335861,3.0937271-2.0097542,4.4091492c-1.9575043,4.6464615-3.5253677,11.7255173-3.8569069,17.2762604
	c0.5371056,0.4287109,1.1205978,0.8388672,1.75243,1.2314377c0.2373009,0.1357422,7.2152863,4.194313,11.1561775,9.5067825
	c3.069809,4.1474304,2.9550629,7.0653839,2.3178635,8.7821732c-0.5205078,1.3955002-1.541008,2.4433365-2.941391,3.076149
	C66.4253235,130.4816284,67.0752258,131.3898163,67.6538315,132.29216z M110.5598221,106.9202423l0.0703125,1.1630859
	c0.1816406,2.9863052,1.5790939,6.5038605,4.2197037,7.1688995c1.4121017,0.3691406,4.5829773-0.2832031,7.489212-2.0048752
	c1.8652191-1.1044846,3.1825943-2.4286957,3.4394302-3.4570084l0.4267578-1.7050629l0.5771408,0.0673752
	c-0.2158203-1.9658051-2.2314301-3.8974304-6.0233994-5.76754c-0.4785156,0.1884766-1.0312424,0.1962891-1.541008-0.0283203
	c-2.9062271-1.275383-4.6142273-1.5751877-5.713829-1.0038986
	C112.3215332,101.969101,111.333252,103.8382339,110.5598221,106.9202423z M77.4945984,56.9747505
	c-0.2412109,0-0.4868164-0.0068359-0.7392578-0.0219727c-1.1772385-0.0610352-2.2446136-0.296875-3.2465591-0.7206993
	c-1.5126877-0.661129-2.5859222-1.6386604-3.5331802-2.5009613c-0.6826172-0.6215782-1.3271408-1.2080002-2.0917892-1.6591682
	c-2.5107269-1.4008713-4.2499733-3.2773247-4.8564148-5.2597351c-0.6137657-2.144516,0.0322266-4.0751686,1.8080978-5.4706688
	l0.0444336-0.0341797l1.5751801-1.1640549c0.0366211-0.0268555,0.0727539-0.0537109,0.109375-0.0810547
	c-0.353508-0.0703125-0.6918869-0.2368164-0.9746017-0.501461c-2.7006683-2.5273285-2.9301567-6.9984932-1.7758675-9.9218159
	c0.9106407-2.304184,2.69627-3.6801529,4.7778053-3.6801529c1.3061447,0,2.5947113,0.6210899,3.6279068,1.7495003
	c1.5390549,1.6806545,2.3173676,4.2778072,2.082016,6.9472256c-0.0019531,0.0258789-0.0048828,0.051754-0.0083008,0.0771446
	c1.678215-0.5312462,3.7900162-0.6450157,5.9125595-0.1230431c-0.2827072-1.9999886-0.0102539-4.006813,0.7890625-5.8056297
	c1.3159103-2.9804516,3.7739029-4.7734089,6.5746689-4.7924519c2.7753677-0.0620117,5.3222275,1.7758675,6.6542511,4.6840534
	c1.6415939,3.588356,1.1415939,8.0746574-1.2167892,10.9100914c-0.1289063,0.1552696-0.2763672,0.2856407-0.4365158,0.3911095
	c2.5995865,1.5878792,3.5927505,4.0893288,2.5820084,6.7733955c-0.9540939,2.6049652-3.7851334,4.9403992-7.3837433,6.0785751
	c-0.7665939,0.2485352-1.5732269,0.7685509-2.5068207,1.3705978C83.3451462,55.4557152,80.9882278,56.9747505,77.4945984,56.9747505
	z M67.2866516,44.5026588c-0.5288086,0.4218712-0.5581055,0.7050743-0.4238281,1.1747971
	c0.1000977,0.3251915,0.6435547,1.6035042,3.0121918,2.9257622c1.1611252,0.6840782,2.0283051,1.4736252,2.7934341,2.1699104
	c0.8232422,0.7495079,1.5341721,1.396965,2.4213715,1.7846565c0.5424805,0.2294922,1.1674805,0.3637657,1.8876877,0.4008751
	c2.6152191,0.1557617,4.3168716-0.9399338,6.1176376-2.101059c1.0703049-0.6904259,2.1777191-1.4042892,3.4531021-1.8178596
	c2.7499847-0.8696251,4.4159927-2.4648323,4.8544617-3.661602c0.1650391-0.4394493,0.5380859-1.4286995-1.7197113-2.3696136
	c-1.2353439-0.5356407-2.1591644-0.8520432-2.9745941-1.13134c-1.2050705-0.4125938-2.2451019-0.7690392-3.435524-1.5439377
	c-2.1435394-1.3735237-4.1279068-2.0737152-5.8866806-2.0737152c-2.7343597,0-4.5624771,1.7602425-5.7719421,2.9252739
	l-0.3779221,0.3603516c-0.1264648,0.1284142-0.2910156,0.2558556-2.4067307,1.8168831L67.2866516,44.5026588z
	 M83.5131149,35.8635521c0.6328049,0.320797,1.2763596,0.6904259,1.9296722,1.1093674
	c0.7861328,0.5117149,1.4931564,0.7539024,2.5624847,1.1201096c0.4355469,0.1494141,0.9257736,0.3173828,1.4853439,0.5263634
	c-0.0800781-0.5429649,0.0625-1.1162033,0.4404297-1.5712776c1.1621017-1.396965,1.7870941-4.2157974,0.6562424-6.6874599
	c-0.6747971-1.4721584-1.785141-2.349596-2.972641-2.349596c-0.0058594,0-0.0117188,0-0.0166016,0
	c-1.1992111,0.0083008-2.2724457,0.8876915-2.9452896,2.412096c-0.6308594,1.4204006-0.6103516,2.7700024-0.4824219,3.6528072
	C84.2709198,34.7698059,84.0023651,35.4319115,83.5131149,35.8635521z M68.5918198,29.9588013
	c-0.5444336,0-0.9208984,0.8037071-1.0571213,1.1494064c-0.7368164,1.8647346-0.3681641,4.4496803,0.7885666,5.5326805
	c0.4448242,0.4160156,0.6567307,0.9877892,0.63134,1.5522385c0.5898438-0.567379,1.3686447-1.3002853,2.3564377-1.979969
	c-0.652832-0.376461-1.0644531-1.1083908-0.9936523-1.9091682c0.1630859-1.8495979-0.4345627-3.2245884-1.0478439-3.8945065
	C68.9311676,30.039856,68.6655502,29.9588013,68.5918198,29.9588013z M77.3803406,51.3571091
	c-1.7309494,0-3.4179535-0.6376915-5.0146179-1.8950081c-0.5-0.3945313-0.9003906-0.7748985-1.1923752-1.0522385
	c-0.9018555-0.7197227-1.3002853-1.9926643-0.8930664-3.0341644c0.3432617-0.8798752,1.1992111-1.4228401,2.122551-1.3613167
	c0.9877853,0.0698204,1.757309,0.8461838,1.8495941,1.8002815c0.1811523,0.1660118,0.3740234,0.3359337,0.5888672,0.5053673
	c0.8862228,0.6977501,1.7167816,1.0371017,2.5390472,1.0371017c1.0707932,0,2.2939301-0.6450157,3.3725357-1.2138596
	l0.0932617-0.0493164c0.4482422-0.2373009,1.0263596-0.6503868,1.4521408-0.9970627
	c0.2089844-0.9907188,1.1318283-1.6845589,2.1699066-1.5742111c0.8935471,0.0957031,1.6103439,0.6665001,1.8701019,1.4892502
	c0.4628906,1.4716721-0.7861252,2.5615082-1.197258,2.9199028c-0.556633,0.4853516-1.5253754,1.2216721-2.425766,1.6987228
	l-0.0966797,0.0507813C81.2035599,50.4279137,79.4413605,51.3571091,77.3803406,51.3571091z M84.0375214,47.4997101
	c0.0019531,0,0.0029297,0,0.0048828,0.0004883C84.040451,47.4997101,84.0394745,47.4997101,84.0375214,47.4997101z
	 M75.0488129,44.4001198c-0.9799805,0-1.8354416-0.7206993-1.9775314-1.7187386
	c-0.1118164-0.7846642,0.2431641-1.5624924,0.9267502-2.030262c0.015625-0.0097656,1.5331955-1.0292892,2.8647308-0.28125
	c0.9623947,0.5410156,1.3041916,1.7607346,0.7626877,2.7236176c-0.3276291,0.583004-0.9042892,0.9379845-1.5214691,1.0073166
	c-0.2280273,0.1411133-0.4882813,0.2387695-0.7709961,0.2788086C75.2377701,44.3932838,75.1425552,44.3996315,75.0488129,44.4001198
	z M74.9018402,43.8561783c0.0004883,0.0004883,0.0009766,0.0004883,0.0009766,0.0004883
	S74.9023285,43.8566666,74.9018402,43.8561783z M77.032196,42.125721c0,0.0004883,0.0004883,0.0009766,0.0004883,0.0014648
	C77.0326843,42.1266975,77.0326843,42.1262093,77.032196,42.125721z M77.0312195,42.1179085
	c0.0004883,0.0019531,0.0004883,0.003418,0.0009766,0.0053711C77.0317078,42.1213264,77.0317078,42.1193733,77.0312195,42.1179085z
	 M81.2113724,44.3649635c-0.09375,0-0.1875-0.0068359-0.2827148-0.0200195
	c-0.1855469-0.0263672-0.3618164-0.0771484-0.5253906-0.1489258c-0.7026291-0.0205078-1.4638596-0.4033165-1.8154144-1.115715
	c-0.3056641-0.6201134-0.2626953-1.4096603,0.1025391-1.9965706c0.1777267-0.286129,0.462883-0.5566368,0.7626877-0.7280235l0,0
	c1.3085861-0.7416916,2.7963715,0.2553711,2.8119965,0.265625c0.6806564,0.4648399,1.0341721,1.2397385,0.9238205,2.0229378
	C83.0472946,43.6427994,82.1918335,44.3649635,81.2113724,44.3649635z M79.2260284,42.1013069
	c0,0.0004883,0,0.0004883-0.0004883,0.0004883C79.2255402,42.1017952,79.2260284,42.1017952,79.2260284,42.1013069z
	 M79.227005,42.0925179c0,0.0009766-0.0004883,0.0019531-0.0004883,0.003418
	C79.2265167,42.094471,79.227005,42.0934944,79.227005,42.0925179z M79.2279816,42.0847054
	c0,0.0019531-0.0004883,0.0039063-0.0004883,0.0058594C79.2274933,42.0886116,79.2279816,42.0866585,79.2279816,42.0847054z"/>
</svg>
