<?xml version="1.0" encoding="utf-8"?>
<!-- Generator: Adobe Illustrator 23.0.0, SVG Export Plug-In . SVG Version: 6.00 Build 0)  -->
<svg version="1.1" id="icon-list" xmlns="http://www.w3.org/2000/svg" xmlns:xlink="http://www.w3.org/1999/xlink" x="0px" y="0px"
	 viewBox="0 0 160 160" style="enable-background:new 0 0 160 160;" xml:space="preserve">
<path d="M151.4521484,160H74.3310547c-4.7133789,0-8.5478516-3.9326172-8.5478516-8.7666016v-22.5537109
	c0-4.8339844,3.8344727-8.7666016,8.5478516-8.7666016h77.1210938c4.7128906,0,8.5478516,3.9326172,8.5478516,8.7666016v22.5537109
	C160,156.0673828,156.1650391,160,151.4521484,160z M74.3310547,123.9130859c-2.5078125,0-4.5478516,2.1386719-4.5478516,4.7666016
	v22.5537109c0,2.6279297,2.0400391,4.7666016,4.5478516,4.7666016h77.1210938C153.9599609,156,156,153.8613281,156,151.2333984
	v-22.5537109c0-2.6279297-2.0400391-4.7666016-4.5478516-4.7666016H74.3310547z M40.2792969,160H9.3300781
	C4.1855469,160,0,156.0673828,0,151.2333984v-22.5537109c0-4.8339844,4.1855469-8.7666016,9.3300781-8.7666016h30.9492188
	c5.1445313,0,9.3300781,3.9326172,9.3300781,8.7666016v22.5537109C49.609375,156.0673828,45.4238281,160,40.2792969,160z
	 M9.3300781,123.9130859C6.3911133,123.9130859,4,126.0517578,4,128.6796875v22.5537109C4,153.8613281,6.3911133,156,9.3300781,156
	h30.9492188c2.9389648,0,5.3300781-2.1386719,5.3300781-4.7666016v-22.5537109c0-2.6279297-2.3911133-4.7666016-5.3300781-4.7666016
	H9.3300781z M151.4521484,100.0429688H74.3310547c-4.7133789,0-8.5478516-3.9326172-8.5478516-8.765625V68.7226563
	c0-4.8334961,3.8344727-8.7661133,8.5478516-8.7661133h77.1210938c4.7128906,0,8.5478516,3.9326172,8.5478516,8.7661133v22.5546875
	C160,96.1103516,156.1650391,100.0429688,151.4521484,100.0429688z M74.3310547,63.956543
	c-2.5078125,0-4.5478516,2.1381836-4.5478516,4.7661133v22.5546875c0,2.6279297,2.0400391,4.765625,4.5478516,4.765625h77.1210938
	c2.5078125,0,4.5478516-2.1376953,4.5478516-4.765625V68.7226563c0-2.6279297-2.0400391-4.7661133-4.5478516-4.7661133H74.3310547z
	 M40.2792969,100.0429688H9.3300781C4.1855469,100.0429688,0,96.1103516,0,91.2773438V68.7226563
	c0-4.8334961,4.1855469-8.7661133,9.3300781-8.7661133h30.9492188c5.1445313,0,9.3300781,3.9326172,9.3300781,8.7661133v22.5546875
	C49.609375,96.1103516,45.4238281,100.0429688,40.2792969,100.0429688z M9.3300781,63.956543
	C6.3911133,63.956543,4,66.0947266,4,68.7226563v22.5546875c0,2.6279297,2.3911133,4.765625,5.3300781,4.765625h30.9492188
	c2.9389648,0,5.3300781-2.1376953,5.3300781-4.765625V68.7226563c0-2.6279297-2.3911133-4.7661133-5.3300781-4.7661133H9.3300781z
	 M151.4521484,40.0869141H74.3310547c-4.7133789,0-8.5478516-3.9326172-8.5478516-8.7666016V8.7661133
	C65.7832031,3.9326172,69.6176758,0,74.3310547,0h77.1210938C156.1650391,0,160,3.9326172,160,8.7661133v22.5541992
	C160,36.1542969,156.1650391,40.0869141,151.4521484,40.0869141z M74.3310547,4
	c-2.5078125,0-4.5478516,2.1381836-4.5478516,4.7661133v22.5541992c0,2.628418,2.0400391,4.7666016,4.5478516,4.7666016h77.1210938
	c2.5078125,0,4.5478516-2.1381836,4.5478516-4.7666016V8.7661133C156,6.1381836,153.9599609,4,151.4521484,4H74.3310547z
	 M40.2792969,40.0869141H9.3300781C4.1855469,40.0869141,0,36.1542969,0,31.3203125V8.7661133C0,3.9326172,4.1855469,0,9.3300781,0
	h30.9492188c5.1445313,0,9.3300781,3.9326172,9.3300781,8.7661133v22.5541992
	C49.609375,36.1542969,45.4238281,40.0869141,40.2792969,40.0869141z M9.3300781,4C6.3911133,4,4,6.1381836,4,8.7661133v22.5541992
	c0,2.628418,2.3911133,4.7666016,5.3300781,4.7666016h30.9492188c2.9389648,0,5.3300781-2.1381836,5.3300781-4.7666016V8.7661133
	C45.609375,6.1381836,43.2182617,4,40.2792969,4H9.3300781z"/>
</svg>
