<?xml version="1.0" encoding="utf-8"?>
<!-- Generator: Adobe Illustrator 23.0.0, SVG Export Plug-In . SVG Version: 6.00 Build 0)  -->
<svg version="1.1" id="icon-loader" xmlns="http://www.w3.org/2000/svg" xmlns:xlink="http://www.w3.org/1999/xlink" x="0px"
	 y="0px" viewBox="0 0 160 160" style="enable-background:new 0 0 160 160;" xml:space="preserve">
<path d="M79.9999542,144c-30.502346,0-56.9104691-21.6884766-62.7932587-51.5693359
	c-0.2133789-1.0839844,0.4921856-2.1357422,1.5761662-2.3486328c1.0834923-0.2216797,2.1357346,0.4921875,2.3486252,1.5751953
	C26.645628,119.6689453,51.4033623,140,79.9999542,140c27.0946426,0,50.747879-18.2568359,57.84552-44.0039063
	l-25.4930878,13.8066406c-0.9736252,0.5273438-2.1855392,0.1640625-2.7109222-0.8066406
	c-0.5253906-0.9707031-0.1650391-2.1845703,0.806633-2.7109375l29.1024551-15.7617188
	c0.2841797-0.2353516,0.6318207-0.390625,1.0048676-0.4423828c0.8027344-0.1572266,1.6435547,0.1865234,2.0908203,0.9150391
	l17.0565796,27.7128906c0.5791016,0.9404297,0.2861328,2.171875-0.6552582,2.7509766
	c-0.9394531,0.5791016-2.1728516,0.2851563-2.7509766-0.6552734l-14.6015167-23.7236328
	C134.1179504,124.5361328,108.8934174,144,79.9999542,144z M140.8376465,70.0004883
	c-0.9374847,0-1.7734222-0.6616211-1.9609222-1.6157227C133.3786926,40.3486328,108.6180267,20,79.9999542,20
	c-27.1048965,0-50.7498398,18.253418-57.8450356,44.0043945l25.4925957-13.8066406
	c0.9721642-0.5244141,2.1855392-0.1645508,2.7114182,0.8061523c0.5258789,0.9716797,0.1650391,2.1850586-0.8061485,2.7114258
	L20.5870533,69.4023438c-0.4550762,0.4619141-1.1249962,0.6958008-1.8110294,0.5600586
	c-0.1567383-0.0302734-0.3051758-0.0786133-0.444334-0.1420898c-0.3935547-0.1523438-0.741209-0.4301758-0.9780254-0.8154297
	L0.297078,41.2919922c-0.5790998-0.940918-0.2856436-2.1728516,0.6547831-2.7514648
	c0.9389619-0.5795898,2.1723564-0.2856445,2.751456,0.6547852l14.6015167,23.7236328
	C25.8824463,35.4628906,51.0981865,16,79.9999542,16c30.5252914,0,56.9373169,21.7075195,62.802536,51.6152344
	c0.2119141,1.0839844-0.4941406,2.1347656-1.578125,2.347168C141.0944824,69.9882813,140.9645996,70.0004883,140.8376465,70.0004883
	z"/>
</svg>
