<?xml version="1.0" encoding="utf-8"?>
<!-- Generator: Adobe Illustrator 23.0.0, SVG Export Plug-In . SVG Version: 6.00 Build 0)  -->
<svg version="1.1" id="icon-lock" xmlns="http://www.w3.org/2000/svg" xmlns:xlink="http://www.w3.org/1999/xlink" x="0px" y="0px"
	 viewBox="0 0 160 160" style="enable-background:new 0 0 160 160;" xml:space="preserve">
<path d="M142,160H18c-1.1044922,0-2-0.8955078-2-2V69.0800781c0-1.1044922,0.8955078-2,2-2h10.6000977V50.8798828
	C28.6000977,22.824707,51.6582031,0,80,0c13.5830078,0,26.3876953,5.284668,36.0537109,14.8803711
	c9.6337891,9.5634766,15.0839844,22.3344727,15.3466797,35.9609375v16.2387695H142c1.1044922,0,2,0.8955078,2,2V158
	C144,159.1044922,143.1044922,160,142,160z M20,156h120V71.0800781H20V156z M32.6000977,67.0800781h94.800293V50.8798828
	C126.9023438,25.0473633,105.6386719,4,80,4C53.8637695,4,32.6000977,25.0302734,32.6000977,50.8798828V67.0800781z
	 M86.2402344,137.6396484H73.7597656c-1.1044922,0-2-0.8955078-2-2v-18.6904297
	C67.4487305,113.8847656,65,109.3818359,65,104.4404297c0-8.4111328,6.5888672-15,15-15s15,6.5888672,15,15
	c0,5.8671875-3.3291016,10.1972656-6.7597656,12.5439453v18.6552734
	C88.2402344,136.7441406,87.3447266,137.6396484,86.2402344,137.6396484z M75.7597656,133.6396484h8.4804688v-17.7597656
	c0-0.7177734,0.3847656-1.3798828,1.0078125-1.7363281C88.0283203,112.5546875,91,109.1708984,91,104.4404297
	c0-6.1679688-4.8320313-11-11-11c-6.168457,0-11,4.8320313-11,11c0,3.8808594,2.1210938,7.4316406,5.8198242,9.7431641
	c0.5844727,0.3662109,0.9399414,1.0068359,0.9399414,1.6962891V133.6396484z"/>
</svg>
