<?xml version="1.0" encoding="utf-8"?>
<!-- Generator: Adobe Illustrator 23.0.0, SVG Export Plug-In . SVG Version: 6.00 Build 0)  -->
<svg version="1.1" id="icon-maximize" xmlns="http://www.w3.org/2000/svg" xmlns:xlink="http://www.w3.org/1999/xlink" x="0px"
	 y="0px" viewBox="0 0 160 160" style="enable-background:new 0 0 160 160;" xml:space="preserve">
<path d="M158,160h-41.0527344c-1.1044922,0-2-0.8955078-2-2s0.8955078-2,2-2h36.2246094L88.8486328,91.6767578
	c-0.78125-0.78125-0.78125-2.046875,0-2.828125s2.046875-0.78125,2.828125,0L156,153.171875v-36.2246094
	c0-1.1044922,0.8955078-2,2-2s2,0.8955078,2,2V158C160,159.1044922,159.1044922,160,158,160z M69.7368164,71.7368164
	c-0.5117188,0-1.0239258-0.1953125-1.4140625-0.5859375L4,6.8286133v36.2241211c0,1.1044922-0.8955078,2-2,2s-2-0.8955078-2-2V2
	c0-1.1044922,0.8955078-2,2-2h41.0527344c1.1044922,0,2,0.8955078,2,2s-0.8955078,2-2,2H6.8286133l64.3222656,64.3227539
	c0.78125,0.7807617,0.78125,2.0473633,0,2.828125C70.7607422,71.5415039,70.2485352,71.7368164,69.7368164,71.7368164z"/>
</svg>
