<?xml version="1.0" encoding="utf-8"?>
<!-- Generator: Adobe Illustrator 18.0.0, SVG Export Plug-In . SVG Version: 6.00 Build 0)  -->
<!DOCTYPE svg PUBLIC "-//W3C//DTD SVG 1.1//EN" "http://www.w3.org/Graphics/SVG/1.1/DTD/svg11.dtd">
<svg version="1.1" id="icon-message" xmlns="http://www.w3.org/2000/svg" xmlns:xlink="http://www.w3.org/1999/xlink" x="0px"
	 y="0px" viewBox="0 0 160 160" style="enable-background:new 0 0 160 160;" xml:space="preserve">
<path d="M143,160H17c-9.3740234,0-17-7.6259766-17-17V17C0,7.6259766,7.6259766,0,17,0h126c9.3740234,0,17,7.6259766,17,17v126
	C160,152.3740234,152.3740234,160,143,160z M4,131.2626953V143c0,7.1679688,5.831543,13,13,13h126c7.1679688,0,13-5.8320313,13-13
	v-11.7373047H4z M4,127.2626953h152V17c0-7.168457-5.8320313-13-13-13H17C9.831543,4,4,9.831543,4,17V127.2626953z
	 M96.4208984,145.6318359H63.5791016c-1.1044922,0-2-0.8955078-2-2s0.8955078-2,2-2h32.8417969c1.1044922,0,2,0.8955078,2,2
	S97.5253906,145.6318359,96.4208984,145.6318359z M32.7890625,106.6318359c-0.2758789,0-0.5541992-0.0566406-0.815918-0.1738281
	c-0.7202148-0.3222656-1.1835938-1.0371094-1.1835938-1.8261719V26.6313477c0-1.1044922,0.8955078-2,2-2h94.4213867
	c1.1044922,0,2,0.8955078,2,2v55.7143555c0,1.1044922-0.8955078,2-2,2H58.4697266l-24.3466797,21.7763672
	C33.7490234,106.4570313,33.2719727,106.6318359,32.7890625,106.6318359z M34.7895508,28.6313477v71.5288086l21.5830078-19.3051758
	c0.3666992-0.328125,0.8413086-0.5092773,1.3334961-0.5092773h67.5048828V28.6313477H34.7895508z M108.7373047,65.5791016
	H51.2631836c-1.1044922,0-2-0.8955078-2-2s0.8955078-2,2-2h57.4741211c1.1044922,0,2,0.8955078,2,2
	S109.8417969,65.5791016,108.7373047,65.5791016z M84.1054688,47.1054688H51.2631836c-1.1044922,0-2-0.8955078-2-2s0.8955078-2,2-2
	h32.8422852c1.1044922,0,2,0.8955078,2,2S85.2099609,47.1054688,84.1054688,47.1054688z"/>
</svg>
