<?xml version="1.0" encoding="utf-8"?>
<!-- Generator: Adobe Illustrator 23.0.0, SVG Export Plug-In . SVG Version: 6.00 Build 0)  -->
<svg version="1.1" id="icon-minimize" xmlns="http://www.w3.org/2000/svg" xmlns:xlink="http://www.w3.org/1999/xlink" x="0px"
	 y="0px" viewBox="0 0 160 160" style="enable-background:new 0 0 160 160;" xml:space="preserve">
<path d="M158,160c-0.5117188,0-1.0234375-0.1953125-1.4140625-0.5859375L92.2626953,95.0908203v36.2246094
	c0,1.1044922-0.8955078,2-2,2s-2-0.8955078-2-2V90.2626953c0-1.1044922,0.8955078-2,2-2h41.0527344c1.1044922,0,2,0.8955078,2,2
	s-0.8955078,2-2,2H95.0908203l64.3232422,64.3232422c0.78125,0.78125,0.78125,2.046875,0,2.828125
	C159.0234375,159.8046875,158.5117188,160,158,160z M69.7368164,71.7368164H28.684082c-1.1044922,0-2-0.8955078-2-2s0.8955078-2,2-2
	h36.2241211L0.5859375,3.4140625c-0.78125-0.7807617-0.78125-2.0473633,0-2.828125c0.7802734-0.78125,2.0478516-0.78125,2.828125,0
	l64.3227539,64.3222656V28.684082c0-1.1044922,0.8955078-2,2-2s2,0.8955078,2,2v41.0527344
	C71.7368164,70.8413086,70.8413086,71.7368164,69.7368164,71.7368164z"/>
</svg>
