<?xml version="1.0" encoding="utf-8"?>
<!-- Generator: Adobe Illustrator 23.0.0, SVG Export Plug-In . SVG Version: 6.00 Build 0)  -->
<svg version="1.1" id="icon-more" xmlns="http://www.w3.org/2000/svg" xmlns:xlink="http://www.w3.org/1999/xlink" x="0px" y="0px"
	 viewBox="0 0 160 160" style="enable-background:new 0 0 160 160;" xml:space="preserve">
<path d="M155,85c-2.7568359,0-5-2.2431641-5-5s2.2431641-5,5-5s5,2.2431641,5,5S157.7568359,85,155,85z M155,79
	c-0.5517578,0-1,0.4487305-1,1s0.4482422,1,1,1s1-0.4487305,1-1S155.5517578,79,155,79z M80,85c-2.7568359,0-5-2.2431641-5-5
	s2.2431641-5,5-5s5,2.2431641,5,5S82.7568359,85,80,85z M80,79c-0.5512695,0-1,0.4487305-1,1s0.4487305,1,1,1s1-0.4487305,1-1
	S80.5512695,79,80,79z M5,85c-2.7568359,0-5-2.2431641-5-5s2.2431641-5,5-5s5,2.2431641,5,5S7.7568359,85,5,85z M5,79
	c-0.5512695,0-1,0.4487305-1,1s0.4487305,1,1,1s1-0.4487305,1-1S5.5512695,79,5,79z"/>
</svg>
