<?xml version="1.0" encoding="utf-8"?>
<!-- Generator: Adobe Illustrator 18.0.0, SVG Export Plug-In . SVG Version: 6.00 Build 0)  -->
<!DOCTYPE svg PUBLIC "-//W3C//DTD SVG 1.1//EN" "http://www.w3.org/Graphics/SVG/1.1/DTD/svg11.dtd">
<svg version="1.1" id="icon-note" xmlns="http://www.w3.org/2000/svg" xmlns:xlink="http://www.w3.org/1999/xlink" x="0px" y="0px"
	 viewBox="0 0 160 160" style="enable-background:new 0 0 160 160;" xml:space="preserve">
<path d="M143,160H17c-9.3740234,0-17-7.6259766-17-17V17C0,7.6259766,7.6259766,0,17,0h126c9.3740234,0,17,7.6259766,17,17v126
	C160,152.3740234,152.3740234,160,143,160z M4,40.9472656V143c0,7.1679688,5.831543,13,13,13h126c7.1679688,0,13-5.8320313,13-13
	V40.9472656h-24.7373047v7.2368164c0,1.1044922-0.8955078,2-2,2s-2-0.8955078-2-2v-7.2368164h-20.6308594v7.2368164
	c0,1.1044922-0.8955078,2-2,2s-2-0.8955078-2-2v-7.2368164H82v7.2368164c0,1.1044922-0.8955078,2-2,2s-2-0.8955078-2-2v-7.2368164
	H57.3686523v7.2368164c0,1.1044922-0.8955078,2-2,2s-2-0.8955078-2-2v-7.2368164H32.7368164v7.2368164c0,1.1044922-0.8955078,2-2,2
	s-2-0.8955078-2-2v-7.2368164H4z M131.2626953,36.9472656H156V17c0-7.168457-5.8320313-13-13-13H17C9.831543,4,4,9.831543,4,17
	v19.9472656h24.7368164v-7.2368164c0-1.1044922,0.8955078-2,2-2s2,0.8955078,2,2v7.2368164h20.6318359v-7.2368164
	c0-1.1044922,0.8955078-2,2-2s2,0.8955078,2,2v7.2368164H78v-7.2368164c0-1.1044922,0.8955078-2,2-2s2,0.8955078,2,2v7.2368164
	h20.6318359v-7.2368164c0-1.1044922,0.8955078-2,2-2s2,0.8955078,2,2v7.2368164h20.6308594v-7.2368164c0-1.1044922,0.8955078-2,2-2
	s2,0.8955078,2,2V36.9472656z M125.1582031,131.2626953h-90.315918c-1.1044922,0-2-0.8955078-2-2s0.8955078-2,2-2h90.315918
	c1.1044922,0,2,0.8955078,2,2S126.2626953,131.2626953,125.1582031,131.2626953z M125.1582031,104.5791016h-90.315918
	c-1.1044922,0-2-0.8955078-2-2s0.8955078-2,2-2h90.315918c1.1044922,0,2,0.8955078,2,2
	S126.2626953,104.5791016,125.1582031,104.5791016z M125.1582031,77.8945313h-90.315918c-1.1044922,0-2-0.8955078-2-2
	s0.8955078-2,2-2h90.315918c1.1044922,0,2,0.8955078,2,2S126.2626953,77.8945313,125.1582031,77.8945313z"/>
</svg>
