<?xml version="1.0" encoding="utf-8"?>
<!-- Generator: Adobe Illustrator 23.0.0, SVG Export Plug-In . SVG Version: 6.00 Build 0)  -->
<svg version="1.1" id="icon-pause" xmlns="http://www.w3.org/2000/svg" xmlns:xlink="http://www.w3.org/1999/xlink" x="0px" y="0px"
	 viewBox="0 0 160 160" style="enable-background:new 0 0 160 160;" xml:space="preserve">
<path d="M141,160h-40c-1.1044922,0-2-0.8955078-2-2V2c0-1.1044922,0.8955078-2,2-2h40c1.1044922,0,2,0.8955078,2,2v156
	C143,159.1044922,142.1044922,160,141,160z M103,156h36V4h-36V156z M59,160H19c-1.1044922,0-2-0.8955078-2-2V2
	c0-1.1044922,0.8955078-2,2-2h40c1.1044922,0,2,0.8955078,2,2v156C61,159.1044922,60.1044922,160,59,160z M21,156h36V4H21V156z"/>
</svg>
