<?xml version="1.0" encoding="utf-8"?>
<!-- Generator: Adobe Illustrator 18.0.0, SVG Export Plug-In . SVG Version: 6.00 Build 0)  -->
<!DOCTYPE svg PUBLIC "-//W3C//DTD SVG 1.1//EN" "http://www.w3.org/Graphics/SVG/1.1/DTD/svg11.dtd">
<svg version="1.1" id="icon-pens" xmlns="http://www.w3.org/2000/svg" xmlns:xlink="http://www.w3.org/1999/xlink" x="0px" y="0px"
	 viewBox="0 0 160 160" style="enable-background:new 0 0 160 160;" xml:space="preserve">
<path d="M4.7940965,159.9963074c-1.0434754,0-2.5903776-0.3681793-3.5723281-1.3926086
	c-1.3745358-1.4345856-1.3867429-3.7803192-1.0073419-4.6904907l18.6468105-43.3131485
	c0.1894569-0.5293045,0.4770584-1.0205231,0.8344879-1.4257965l0.1855488-0.1904373l30.8433132-30.729454l-4.0230217-3.2490768
	L5.7833714,30.5437031C0.2700915,24.5528908,0.4458758,15.3340044,6.1832809,9.5555983l5.0069227-5.0347419
	c5.7920942-5.8291879,15.083272-6.0538006,21.1492958-0.5117264l44.7707977,40.8931847l3.1577759,3.918026l44.3205948-44.1569023
	c5.9395599-5.941494,15.622345-5.9439354,21.5775299,0.0014648l9.3761292,9.3409595
	c2.8731079,2.8633223,4.4571228,6.6807623,4.4590759,10.7486944c0.0019531,4.072813-1.5810852,7.8975754-4.4580994,10.7692032
	l-47.6932068,47.5173035l3.0303268,3.759819l10.482605,14.0793076c0.5654373,0.7578278,0.9033356,2.1670303,1.105484,3.5928268
	c2.2402725-0.0507813,5.7315445,0.0390701,7.7345047,0.8925934l2.472702,1.058609
	c11.7590027,5.018631,20.0355072,15.5226898,22.1371155,28.0980759l3.2715302,19.555954
	c0.3066559,1.8037415-0.5888672,3.5859833-2.2304993,4.4297485c-1.6211243,0.8125153-3.6221313,0.4892731-4.8907166-0.761734
	l-9.3819885-9.3507233c-3.9688263-3.9551392-9.6466675-5.8438263-15.1809387-5.0410919
	c-8.3253403,1.1875305-16.2903214-4.0234833-18.5071564-12.1173553l-1.1045151-4.0391235
	c-0.4814529-1.7539368-0.4863358-5.0120926-0.4326248-7.0336075C105.9330673,120.0842819,105.5902939,120,105.4467316,120
	c-0.0019531,0-0.0029297,0-0.0039063,0c-0.8818512,0-1.7529602-0.272171-2.4795303-0.8210068l-14.0529861-10.3745193
	l-3.8428345-3.0695496l-34.1939583,34.0702515c-0.1025429,0.1035156-0.2231483,0.2277374-0.3828201,0.3488312
	c-0.0356445,0.0292969,0.1670113,0.0582123,0.1342964,0.0836029C50.3964729,140.4514771,50,140.6890869,50,140.8355713v0.0011139
	L5.8417401,159.8927155C5.6459355,159.9591217,5.1275983,159.9963074,4.7940965,159.9963074z M3.998184,155.2403717
	c0.0043948,0.2109375,0.0595715,0.5136719,0.1313498,0.6191559c0.055665,0.03125,0.2685595,0.0830078,0.4765711,0.1142578
	l41.2946663-17.9241028L21.786581,113.9204254L3.998184,155.2403717z M128.9119873,139.1746979
	c5.7471771,0,11.3712921,2.2812958,15.4924622,6.3868256l9.3751526,9.3448639
	c0.1123199,0.1113281,0.2050934,0.0644531,0.2636871,0.0341797c0.0644531-0.0332031,0.1103516-0.1162109,0.0966797-0.1972809
	l-3.272522-19.5608368c-1.8760071-11.223793-9.2638245-20.5989304-19.7640076-25.0794678l-2.472702-1.058609
	c-1.3769836-0.5869217-5.1807632-0.6513748-7.5929108-0.5127029l-10.6417847,10.605629
	c-0.1015701,2.1875305-0.115242,5.6719589,0.25,7.0040054l1.1045151,4.0401077
	c1.6875305,6.155365,7.7511063,10.1143951,14.0822754,9.213028
	C126.8582382,139.2469635,127.8865814,139.1746979,128.9119873,139.1746979z M24.0253887,110.5014267l25.2426281,25.2591629
	l91.3345947-90.9979248L115.3609695,19.5035L24.0253887,110.5014267z M87.9190826,102.8987732l3.4297485,2.745163
	l14.0090332,10.349762c0.0458984,0.0341797,0.0830078,0.0449219,0.1279297,0.0449219
	c0.4218826,0,1.2217026,0.1328125,2.0537491,0.2978516l11.0050735-10.9669571
	c-0.1269531-0.9726715-0.2978516-1.8476791-0.4355545-2.1621399l-10.3898315-13.9572372l-2.7187958-3.3701706
	L87.9190826,102.8987732z M49.5419502,72.1844559l4.0342484,3.2285614l23.8422127-23.7537689l-3.2310104-4.0088463
	L29.6416988,6.9622989c-4.4795704-4.0918579-11.338089-3.9253511-15.6150198,0.3784232l-5.0059462,5.0342541
	c-4.2251716,4.2559233-4.3550568,11.0470381-0.293951,15.4597006L49.5419502,72.1844559z M118.1940231,16.6802158
	l25.2426376,25.259161l9.2823792-9.2481804c2.1172333-2.113802,3.2832642-4.9322033,3.2822876-7.9346886
	c-0.0019531-2.9976044-1.1670074-5.8091679-3.2832642-7.9166222l-9.3761292-9.3424225
	c-4.3975525-4.3882484-11.5402527-4.3902016-15.9280167-0.0029297L118.1940231,16.6802158z"/>
</svg>
