<?xml version="1.0" encoding="utf-8"?>
<!-- Generator: Adobe Illustrator 18.0.0, SVG Export Plug-In . SVG Version: 6.00 Build 0)  -->
<!DOCTYPE svg PUBLIC "-//W3C//DTD SVG 1.1//EN" "http://www.w3.org/Graphics/SVG/1.1/DTD/svg11.dtd">
<svg version="1.1" id="icon-phone" xmlns="http://www.w3.org/2000/svg" xmlns:xlink="http://www.w3.org/1999/xlink" x="0px" y="0px"
	 viewBox="0 0 160 160" style="enable-background:new 0 0 160 160;" xml:space="preserve">
<path d="M148.6405182,160H10.9365339c-0.5546694,0-1.0844374-0.2317352-1.4623547-0.6369934
	c-0.3784056-0.4062347-0.57127-0.9508057-0.5326967-1.5044861l2.7987366-40.0927582
	c0.0117178-0.1708984,0.0458965-0.3390198,0.1005821-0.5011215l13.0610962-38.6008606
	c0.1577091-0.4653168,0.4809399-0.8569489,0.9086609-1.0991287l18.1927643-10.3046188
	C44.3040924,67.0896225,44.6434364,67,44.9891281,67H55V51.00103C55,49.8965721,55.8964844,49,57.0009422,49h13.3647957
	c1.0966415,0,1.9887085,0.8830795,1.9999313,1.9797211L72.5316849,67H88V51.00103C88,49.8965721,88.895401,49,89.9998627,49
	h12.9995728C104.1038895,49,105,49.8965721,105,51.00103V67h11.8974152c0.4091644,0,0.8075943,0.1257401,1.1435165,0.3591309
	l14.2036362,9.8977509c0.3447113,0.240715,0.6054535,0.5835342,0.7441101,0.980011l13.6431122,38.9484558
	c0.0527344,0.1513672,0.0878906,0.3086014,0.1025391,0.4677734l0.0419922,0.4296875
	c0.1416016,0.2744064,0.2216644,0.5859222,0.2216644,0.9159851c0,0.1933517-0.0273438,0.3798752-0.0790863,0.5576019
	l1.9051971,19.6243591c0.1113281,0.2499847,0.1738281,0.5263519,0.1738281,0.8173523
	c0,0.1552734-0.0175781,0.3056641-0.0507813,0.4511566l1.683548,17.3549042
	c0.0546722,0.5615082-0.1298828,1.1213531-0.5097504,1.5383301C149.7420349,159.7604523,149.2049561,160,148.6405182,160z
	 M13.0809946,156h133.3564758l-1.3593292-14H14.0580139L13.0809946,156z M14.3373013,138h130.3531494l-1.649353-18h-25.0421524
	c-1.104454,0-1.9999313-0.395546-1.9999313-1.5s0.8954773-1.5,1.9999313-1.5h24.329277l-12.9009399-36.8301163L116.2695084,71
	h-13.2700729C101.8949814,71,101,70.1048965,101,69.0004425V53h-9v16.0004425C92,70.1048965,91.1043167,71,89.9998627,71H70.5522537
	c-1.0966415,0-1.9882126-0.8830795-1.9999313-1.9797211L68.3863144,53H59v16.0004425C59,70.1048965,58.1053963,71,57.0009422,71
	H45.5159683l-17.0697536,9.6693802L16.1531601,117h24.8483047c1.1044579,0,1.9999352,0.395546,1.9999352,1.5
	s-0.8954773,1.5-1.9999352,1.5H15.5242739L14.3373013,138z M79.7887726,123.0504227
	c-10.1568985,0-18.4202995-8.2633972-18.4202995-18.4202881s8.263401-18.4202957,18.4202995-18.4202957
	c10.1564026,0,18.4197998,8.2633972,18.4197998,18.4202957S89.9451752,123.0504227,79.7887726,123.0504227z M79.7887726,90.2097015
	c-7.9514008,0-14.4204254,6.468544-14.4204254,14.420433S71.8373718,119.05056,79.7887726,119.05056
	s14.4199371-6.468544,14.4199371-14.4204254S87.7401657,90.2097015,79.7887726,90.2097015z M157.9927521,59.446064
	c-0.0966797,0-0.1943359-0.0068359-0.2910156-0.0214806l-37.9933395-5.5940552
	C118.7269897,53.6860008,118,52.8442307,118,51.8520775V32.5055428c-24-5.8738308-49-5.8601608-76,0.0400352v19.9597969
	c0,1.0048485-0.7448654,1.8534546-1.7414131,1.9833336L2.2802093,59.4294624
	c-0.5976366,0.0786133-1.200465-0.1191368-1.6374624-0.5356255s-0.6624863-1.0082664-0.6131715-1.6098099l2.4916625-30.6371803
	c0.0087888-0.1088829,0.0263886-0.2172775,0.0532432-0.3232307c2.2924056-9.1608334,8.8092928-15.7807331,20.5091057-20.8337898
	c0.1337852-0.0581036,0.2734337-0.1010709,0.4164963-0.1284137c37.0871658-7.1071892,74.5629883-7.1067009,111.3830643,0.0004883
	c0.1113281,0.0214834,0.2207031,0.0527325,0.3271484,0.0927701c11.6021576,4.3768101,18.6380615,11.1832266,21.510025,20.8083992
	c0.0361328,0.1186485,0.0605469,0.2412033,0.0732422,0.3647346l3.1883698,30.6112995
	c0.0634766,0.6142387-0.1591644,1.2235947-0.6054382,1.6508255C159.0015106,59.2492943,158.5044556,59.446064,157.9927521,59.446064
	z M5.356833,41.1151237L4.2153659,55.143959L38,50.7485962V36.5347061L5.356833,41.1151237z M122,50.1250801l33.7375641,4.9676132
	l-1.4596252-14.0137024L122,36.5913467V50.1250801z M6.494297,27.1380424l-0.8054438,9.8912773L38,32.4952888v-1.5531712
	c0-0.9345398,0.6477356-1.7440834,1.5588379-1.9506207c28.77005-6.5154114,55.2447815-6.5119934,80.9324112,0.012207
	C121.3779373,29.2287941,122,30.0271072,122,30.9421177v1.6112728l31.8509064,4.4275894l-1.0158997-9.7496796
	c-2.5126038-8.2126217-8.6912689-14.0947523-18.8784332-17.9745064C97.7614746,2.2912006,60.9295998,2.2877827,24.469368,9.2484922
	C14.0619946,13.7825232,8.5074148,19.3106613,6.494297,27.1380424z"/>
</svg>
