<?xml version="1.0" encoding="utf-8"?>
<!-- Generator: Adobe Illustrator 18.0.0, SVG Export Plug-In . SVG Version: 6.00 Build 0)  -->
<!DOCTYPE svg PUBLIC "-//W3C//DTD SVG 1.1//EN" "http://www.w3.org/Graphics/SVG/1.1/DTD/svg11.dtd">
<svg version="1.1" id="icon-picture" xmlns="http://www.w3.org/2000/svg" xmlns:xlink="http://www.w3.org/1999/xlink" x="0px"
	 y="0px" viewBox="0 0 160 160" style="enable-background:new 0 0 160 160;" xml:space="preserve">
<path d="M143,160H17c-9.3740234,0-17-7.6259766-17-17V17C0,7.6259766,7.6259766,0,17,0h126c9.3740234,0,17,7.6259766,17,17v126
	C160,152.3740234,152.3740234,160,143,160z M17,4C9.831543,4,4,9.831543,4,17v126c0,7.1679688,5.831543,13,13,13h126
	c7.1679688,0,13-5.8320313,13-13V17c0-7.168457-5.8320313-13-13-13H17z M137.4736328,139.4736328H22.5263672
	c-1.1044922,0-2-0.8955078-2-2V22.5263672c0-1.1044922,0.8955078-2,2-2h114.9472656c1.1044922,0,2,0.8955078,2,2v114.9472656
	C139.4736328,138.578125,138.578125,139.4736328,137.4736328,139.4736328z M24.5263672,135.4736328h110.9472656v-33.4677734
	l-0.5136719,0.3984375l-25.2919922-32.6679688l-30.7001953,39.5732422c-0.3842773,0.4960938-1.0004883,0.78125-1.605957,0.7744141
	c-0.6274414-0.0078125-1.2143555-0.3105469-1.5854492-0.8154297L60.9682617,89.1220703l-36.2519531,29.2880859l-0.1899414-0.2353516
	V135.4736328z M24.5263672,24.5263672v88.8955078l35.5566406-28.7265625c0.425293-0.34375,0.9702148-0.4951172,1.5136719-0.4277344
	c0.5415039,0.0703125,1.03125,0.3583984,1.3544922,0.7988281l14.4794922,19.6992188l30.6591797-39.5205078
	c0.3789063-0.4882813,0.9619141-0.7739258,1.5800781-0.7739258h0.0009766
	c0.6181641,0.0004883,1.2021484,0.2866211,1.5800781,0.7758789l24.2226563,31.2871094V24.5263672H24.5263672z
	 M58.7270508,66.5117188c-6.7617188,0-12.2626953-5.5009766-12.2626953-12.2626953s5.5009766-12.2631836,12.2626953-12.2631836
	s12.2631836,5.5014648,12.2631836,12.2631836S65.4887695,66.5117188,58.7270508,66.5117188z M58.7270508,45.9858398
	c-4.5561523,0-8.2626953,3.7070313-8.2626953,8.2631836s3.706543,8.2626953,8.2626953,8.2626953
	s8.2631836-3.706543,8.2631836-8.2626953S63.2832031,45.9858398,58.7270508,45.9858398z"/>
</svg>
