<?xml version="1.0" encoding="utf-8"?>
<!-- Generator: Adobe Illustrator 23.0.0, SVG Export Plug-In . SVG Version: 6.00 Build 0)  -->
<svg version="1.1" id="icon-pin" xmlns="http://www.w3.org/2000/svg" xmlns:xlink="http://www.w3.org/1999/xlink" x="0px" y="0px"
	 viewBox="0 0 160 160" style="enable-background:new 0 0 160 160;" xml:space="preserve">
<path d="M80,160c-0.6743164,0-1.3037109-0.3398438-1.6733398-0.9042969L31.0068359,86.8154297
	c-0.0244141-0.0380859-0.0478516-0.0761719-0.0698242-0.1152344c-5.2709961-9.3701172-8.0571289-19.5986328-8.0571289-29.5800781
	C22.8798828,25.6240234,48.5039063,0,80,0s57.1201172,25.6240234,57.1201172,57.1201172
	c0,10.1796875-2.9013672,19.9838867-8.6240234,29.1396484c-0.0048828,0.0078125-0.0097656,0.0146484-0.0136719,0.0214844
	l-46.7998047,72.7998047c-0.3662109,0.5703125-0.996582,0.9160156-1.6743164,0.9189453C80.0053711,160,80.0029297,160,80,160z
	 M34.390625,84.6806641l45.5942383,69.6445313l45.1254883-70.1943359
	c5.3154297-8.5087891,8.0097656-17.5957031,8.0097656-27.0107422C133.1201172,27.8295898,109.2900391,4,80,4
	C50.7094727,4,26.8798828,27.8295898,26.8798828,57.1201172C26.8798828,66.3955078,29.4765625,75.9243164,34.390625,84.6806641z
	 M126.7998047,85.2001953h0.0097656H126.7998047z M80,82c-14.0053711,0-25.3999023-11.3945313-25.3999023-25.3999023
	S65.9946289,31.2001953,80,31.2001953c14.0058594,0,25.4003906,11.3945313,25.4003906,25.3999023S94.0058594,82,80,82z
	 M80,35.2001953c-11.7998047,0-21.3999023,9.6000977-21.3999023,21.3999023S68.2001953,78,80,78
	s21.4003906-9.6000977,21.4003906-21.3999023S91.7998047,35.2001953,80,35.2001953z"/>
</svg>
