<?xml version="1.0" encoding="utf-8"?>
<!-- Generator: Adobe Illustrator 18.0.0, SVG Export Plug-In . SVG Version: 6.00 Build 0)  -->
<!DOCTYPE svg PUBLIC "-//W3C//DTD SVG 1.1//EN" "http://www.w3.org/Graphics/SVG/1.1/DTD/svg11.dtd">
<svg version="1.1" id="icon-private" xmlns="http://www.w3.org/2000/svg" xmlns:xlink="http://www.w3.org/1999/xlink" x="0px"
	 y="0px" viewBox="0 0 160 160" style="enable-background:new 0 0 160 160;" xml:space="preserve">
<path d="M10.2578125,160c-0.152832,0-0.3046875-0.0019531-0.4570313-0.0058594C3.9384766,159.8564453,0,157.3310699,0,153.7090302
	V37.9003487c0-3.1806374,2.0292969-5.9345245,5.0493164-6.8519974l12.0673828-3.669405l1.4931641-13.7274351
	c0.3349609-3.0805426,2.5800781-5.5810118,5.5874023-6.2221198l34.112793-7.2728939
	c3.0170898-0.6430615,6.078125,0.7338811,7.6181641,3.4277081l6.3110352,11.0389786l52.2822266-12.0687561
	c2.2890625-0.5795854,4.0244141-0.3955047,5.2675781,0.5722613c1.8613281,1.4492078,1.8613281,4.1073904,1.8613281,6.0482931
	l0.0361328,10.9398584l15.3046875-3.4711647c3.7060547-0.9775324,7.4052734-0.4594688,9.8261719,1.405262
	C158.2695313,19.1675835,160,21.3409061,160,25.3452702c0,0.0405273-0.0009766,0.0815411-0.0039063,0.1220684l-5.7470703,94.1394196
	c-0.0517578,0.8544846-0.6425781,1.5810394-1.46875,1.8066254L16.953125,158.5781403
	C15.0952148,159.5458984,12.6782227,160,10.2578125,160z M59.7817383,4.001195
	c-0.2114258,0-0.4248047,0.0219722-0.6376953,0.0673823L25.03125,11.3414707
	c-1.3144531,0.2802715-2.296875,1.3823137-2.4448242,2.7426548l-1.6357422,15.0404129
	c-0.0864258,0.7963791-0.6401367,1.464344-1.40625,1.6972523l-13.331543,4.0536785C4.909668,35.2714615,4,36.5151062,4,37.9003487
	v115.8086853c0,1.0136719,2.5209961,2.207016,5.8945313,2.2870941c3.4428711,0.0849609,6.3569336-1.0097504,6.421875-2.3808441
	l6.394043-97.7795258c0.0795898-6.0365753,3.0996094-10.4110527,8.9780273-13.0042953
	c0.1171875-0.0522461,0.2397461-0.0922852,0.3647461-0.1210938l95.6362305-21.688797l-0.0390625-11.8402414
	c0-1.696764-0.109375-2.6718545-0.3242188-2.9037862l0,0c-0.0068359,0.0004883-0.4306641-0.1972642-1.8642578,0.1645498
	L71.6904297,18.8550854c-0.8588867,0.1962872-1.7475586-0.1904278-2.1860352-0.9560471L62.4555664,5.5695424
	C61.8925781,4.584198,60.8676758,4.001195,59.7817383,4.001195z M33.1313477,46.5677643
	c-4.3354492,1.9658051-6.3774414,4.9457626-6.421875,9.3651619c-0.0004883,0.0371094-0.0019531,0.0737305-0.0043945,0.1103516
	l-6.3735352,97.4636078l130.012207-35.5729675L156,25.2871647c-0.0107422-1.9047699-0.5419922-3.2363033-1.6230469-4.0693054
	c-1.7041016-1.3120003-4.5322266-1.191885-6.4326172-0.6899357L33.1313477,46.5677643z M85.1025391,110.6712799
	c-7.0874023,0-13.230957-2.7568207-17.2988281-7.7636185c-4.1894531-5.1571884-5.65625-12.0145569-4.1298828-19.3094177l0,0
	c3.0288086-14.476944,17.2719727-26.2546844,31.75-26.2546844c7.0878906,0,13.2314453,2.7573051,17.2988281,7.7645874
	c4.1894531,5.1567001,5.65625,12.0140686,4.1298828,19.3084488
	C113.8242188,98.8940201,99.5810547,110.6712799,85.1025391,110.6712799z M67.5888672,84.4165955
	c-1.2744141,6.0937042-0.0957031,11.7645569,3.3193359,15.9686279c3.293457,4.0536804,8.3344727,6.286087,14.1943359,6.286087
	c9.6337891,0,19.1533203-5.9696808,24.3417969-14.4139557L70.5205078,76.7110901
	C69.1621094,79.1217117,68.1538086,81.716423,67.5888672,84.4165955L67.5888672,84.4165955z M72.7651367,73.3004684
	l38.5405273,15.3934402c0.7128906-1.6396408,1.2646484-3.3456802,1.6308594-5.095665
	c1.2753906-6.0937042,0.0966797-11.7640686-3.3183594-15.9676514c-3.2929688-4.0541687-8.3339844-6.2870636-14.1943359-6.2870636
	C86.7539063,61.3435287,78.1767578,66.1784515,72.7651367,73.3004684z"/>
</svg>
