<?xml version="1.0" encoding="utf-8"?>
<!-- Generator: Adobe Illustrator 24.0.0, SVG Export Plug-In . SVG Version: 6.00 Build 0)  -->
<svg version="1.1" id="icon-profile" xmlns="http://www.w3.org/2000/svg" xmlns:xlink="http://www.w3.org/1999/xlink" x="0px"
	 y="0px" viewBox="0 0 160 160" style="enable-background:new 0 0 160 160;" xml:space="preserve">
<path d="M142.6054688,160H17.3945313C7.8032227,160,0,152.1972656,0,142.6054688V17.3945313C0,7.8032227,7.8032227,0,17.3945313,0
	h125.2109375C152.1972656,0,160,7.8032227,160,17.3945313V53.315918c0,1.1044922-0.8955078,2-2,2s-2-0.8955078-2-2V17.3945313
	C156,10.0087891,149.9912109,4,142.6054688,4H17.3945313C10.0087891,4,4,10.0087891,4,17.3945313v125.2109375
	C4,149.9912109,10.0087891,156,17.3945313,156h125.2109375C149.9912109,156,156,149.9912109,156,142.6054688V77.9472656
	c0-1.1044922,0.8955078-2,2-2s2,0.8955078,2,2v64.6582031C160,152.1972656,152.1972656,160,142.6054688,160z
	 M137.4736328,141.5263672H84.1054688c-1.1044922,0-2-0.8955078-2-2s0.8955078-2,2-2h53.3681641c1.1044922,0,2,0.8955078,2,2
	S138.578125,141.5263672,137.4736328,141.5263672z M59.4736328,141.5263672H22.5263672c-1.1044922,0-2-0.8955078-2-2v-17.4472656
	c0-1.1044922,0.8955078-2,2-2h16.3081055c1.1044922,0,2,0.8955078,2,2s-0.8955078,2-2,2H24.5263672v13.4472656h32.9472656
	v-13.4472656h-5.9946289c-1.1044922,0-2-0.8955078-2-2s0.8955078-2,2-2h7.9946289c1.1044922,0,2,0.8955078,2,2v17.4472656
	C61.4736328,140.6308594,60.578125,141.5263672,59.4736328,141.5263672z M137.4736328,124.0791016h-32.8417969
	c-1.1044922,0-2-0.8955078-2-2s0.8955078-2,2-2h32.8417969c1.1044922,0,2,0.8955078,2,2
	S138.578125,124.0791016,137.4736328,124.0791016z M122.0791016,104.5791016H37.9208984
	c-9.5913086,0-17.3945313-7.8027344-17.3945313-17.3945313v-9.2373047c0-1.1044922,0.8955078-2,2-2s2,0.8955078,2,2v9.2373047
	c0,7.3857422,6.0087891,13.3945313,13.3945313,13.3945313h12.4204102c-0.5517578-0.9785156-0.8623047-2.0839844-0.8623047-3.2529297
	v-2.8007813c0-8.9345703,8.0732422-15.4199219,19.1967773-15.4199219c2.3520508,0,4.0297852,1.4462891,5.5102539,2.7226563
	C75.8271484,83.2421875,77.3774414,84.5791016,80,84.5791016c2.625,0,4.1787109-1.3388672,5.8242188-2.7558594
	c1.4785156-1.2734375,3.1552734-2.7177734,5.5-2.7177734c11.1230469,0,19.1962891,6.4853516,19.1962891,15.4199219v2.8007813
	c0,1.1689453-0.3105469,2.2744141-0.8623047,3.2529297h12.4208984c7.3857422,0,13.3945313-6.0087891,13.3945313-13.3945313
	v-51.315918c0-7.3862305-6.0087891-13.3950195-13.3945313-13.3950195H37.9208984
	c-7.3857422,0-13.3945313,6.0087891-13.3945313,13.3950195V53.315918c0,1.1044922-0.8955078,2-2,2s-2-0.8955078-2-2V35.8686523
	c0-9.5917969,7.8032227-17.3950195,17.3945313-17.3950195h84.1582031c9.5917969,0,17.3945313,7.8032227,17.3945313,17.3950195
	v51.315918C139.4736328,96.7763672,131.6708984,104.5791016,122.0791016,104.5791016z M57.5908203,100.5791016h44.8183594
	c2.2666016,0,4.1113281-1.4589844,4.1113281-3.2529297v-2.8007813c0-7.4970703-7.6445313-11.4199219-15.1962891-11.4199219
	c-0.8173828,0-1.6308594,0.6650391-2.8896484,1.7490234C86.609375,86.4257813,84.1103516,88.5791016,80,88.5791016
	c-4.1083984,0-6.6040039-2.1513672-8.4257813-3.7216797C70.3139648,83.7714844,69.5,83.1054688,68.6757813,83.1054688
	c-7.5517578,0-15.1967773,3.9228516-15.1967773,11.4199219v2.8007813
	C53.4790039,99.1201172,55.3237305,100.5791016,57.5908203,100.5791016z M80,75.5644531
	c-11.2128906,0-20.3349609-9.1220703-20.3349609-20.3349609S68.7871094,34.8945313,80,34.8945313
	s20.3349609,9.1220703,20.3349609,20.3349609S91.2128906,75.5644531,80,75.5644531z M80,38.8945313
	c-9.0073242,0-16.3349609,7.3276367-16.3349609,16.3349609S70.9926758,71.5644531,80,71.5644531
	c9.0068359,0,16.3349609-7.3276367,16.3349609-16.3349609S89.0068359,38.8945313,80,38.8945313z"/>
</svg>
