<?xml version="1.0" encoding="utf-8"?>
<!-- Generator: Adobe Illustrator 23.0.0, SVG Export Plug-In . SVG Version: 6.00 Build 0)  -->
<svg version="1.1" id="icon-programming" xmlns="http://www.w3.org/2000/svg" xmlns:xlink="http://www.w3.org/1999/xlink" x="0px"
	 y="0px" viewBox="0 0 160 160" style="enable-background:new 0 0 160 160;" xml:space="preserve">
<path d="M158,160H2c-1.1044922,0-2-0.8955078-2-2V2c0-1.1044922,0.8955078-2,2-2h156c1.1044922,0,2,0.8955078,2,2v156
	C160,159.1044922,159.1044922,160,158,160z M4,156h152V49.1577148H4V156z M4,45.1577148h152V4H4V45.1577148z
	 M30.7368164,128.6972656c-0.5117188,0-1.0234375-0.1953125-1.4140625-0.5859375c-0.78125-0.78125-0.78125-2.046875,0-2.828125
	l22.7041016-22.7041016L29.3227539,79.8745117c-0.78125-0.7807617-0.78125-2.0473633,0-2.828125
	c0.7802734-0.78125,2.0478516-0.78125,2.828125,0l24.1186523,24.1186523c0.375,0.375,0.5859375,0.8837891,0.5859375,1.4140625
	s-0.2109375,1.0390625-0.5859375,1.4140625l-24.1186523,24.1181641
	C31.7607422,128.5019531,31.2485352,128.6972656,30.7368164,128.6972656z M106.6845703,128.6972656H77.9472656
	c-1.1044922,0-2-0.8955078-2-2s0.8955078-2,2-2h28.7373047c1.1044922,0,2,0.8955078,2,2
	S107.7890625,128.6972656,106.6845703,128.6972656z M48.0527344,29.5791016c-2.7568359,0-5-2.2431641-5-5s2.2431641-5,5-5
	s5,2.2431641,5,5S50.8095703,29.5791016,48.0527344,29.5791016z M48.0527344,23.5791016c-0.5512695,0-1,0.4487305-1,1
	s0.4487305,1,1,1s1-0.4487305,1-1S48.6040039,23.5791016,48.0527344,23.5791016z M30.0527344,29.5791016
	c-2.7568359,0-5-2.2431641-5-5s2.2431641-5,5-5s5,2.2431641,5,5S32.8095703,29.5791016,30.0527344,29.5791016z
	 M30.0527344,23.5791016c-0.5512695,0-1,0.4487305-1,1s0.4487305,1,1,1s1-0.4487305,1-1
	S30.6040039,23.5791016,30.0527344,23.5791016z"/>
</svg>
