<?xml version="1.0" encoding="utf-8"?>
<!-- Generator: Adobe Illustrator 23.0.0, SVG Export Plug-In . SVG Version: 6.00 Build 0)  -->
<svg version="1.1" id="icon-qq" xmlns="http://www.w3.org/2000/svg" xmlns:xlink="http://www.w3.org/1999/xlink" x="0px" y="0px"
	 viewBox="0 0 160 160" style="enable-background:new 0 0 160 160;" xml:space="preserve">
<path d="M111.8175659,159.9996185c-0.9311218,0-1.8827972-0.0146484-2.8579712-0.0439301
	c-0.9252396-0.0673828-20.0899963-1.6044922-27.2452011-9.8280792h-3.4273148
	c-7.156189,8.223587-26.3175125,9.7597198-27.1551285,9.8231964c-13.2148094,0.4091644-22.3286896-1.8671875-27.1820507-6.735321
	c-3.075819-3.0849457-3.3294029-6.1591644-3.3401737-6.9579773c-0.8018761-8.6650085,5.8677006-14.2011108,11.0187054-16.6932831
	c-4.162611-5.8066177-7.1038036-11.6542435-8.7300758-15.2391891c-5.1867428,7.4316025-9.1373806,10.2724152-12.6146269,9.152298
	c-5.6351662-1.8115158-5.4089956-13.7743454-5.2058339-17.3983536l0.027904-0.2363281
	C8.144412,88.7411728,19.4323673,76.933609,22.5409851,73.9565735c-1.3677921-13.7284546,3.2476501-18.9427834,5.5387268-20.6537132
	c1.1421108-27.8577805,14.8405914-40.8669968,26.2122612-46.8811302C66.643219-0.1109536,78.9631424-0.0225751,79.9980392,0.003792
	c1.0368652-0.0219726,13.3626556-0.1108393,25.7060699,6.4179387c11.3711777,6.014132,25.069664,19.0233498,26.2171555,46.8806419
	c2.2901001,1.7114182,6.9055481,6.9257469,5.5387268,20.6542015c3.1086273,2.9770355,14.3965759,14.7845993,17.4356842,31.8860779
	l0.0274048,0.2373047c0.2016907,3.6240082,0.4239502,15.5878143-5.2117004,17.3983536
	c-3.478714,1.1113281-7.4254456-1.7226486-12.6097412-9.152298c-1.6262665,3.5849457-4.5674591,9.4325714-8.7295837,15.2382126
	c5.1490479,2.4921722,11.8176422,8.027298,11.0187073,16.6932831c-0.0107727,0.7968597-0.2653351,3.8740082-3.3465424,6.960907
	C131.5492096,157.72229,123.406105,159.9996185,111.8175659,159.9996185z M76.3058853,146.1276245h7.3892059l0.6011658,0.8202972
	c4.5331955,6.1874847,19.4937286,8.6054382,24.8758011,9.0146179c14.6188278,0.4277344,21.0681152-2.7089691,23.8888702-5.4267426
	c2.285202-2.2031097,2.3194733-4.2538757,2.3194733-4.3407898l0.0097961-0.2275391
	c0.9516754-9.6532745-10.6740723-13.5956421-10.7915649-13.633728l-2.6876068-0.8847656l1.728096-2.2363129
	c7.1659775-9.2675323,11.1538162-19.6932678,11.1929855-19.79776l1.4138184-3.7372894l2.1530151,3.3681488
	c7.2736816,11.3817825,9.9691162,10.6552277,10.0827026,10.6249542c1.7731323-0.5693359,2.7453613-7.4364929,2.4438019-13.249939
	c-3.2554779-18.038002-16.7561798-30.0608978-16.8922729-30.1805267l-0.7891541-0.6928635l0.1223907-1.0415039
	c1.7888031-15.2191658-4.1631012-18.2230568-4.2228241-18.2513771l-1.2013474-0.4946251l0.0078278-1.2758751
	C126.4530334,3.38903,81.9395828,3.938344,80.0494461,4.0037732L79.997551,4.0047498l-0.0523834-0.0009766
	c-1.8871994-0.0649409-46.407505-0.6201143-47.8942566,50.479744l-0.0376968,1.2954063l-1.2008553,0.4951134
	c-0.0151768,0.0087891-5.9670792,3.0126801-4.178278,18.2318459l0.1223869,1.0395508l-0.7881699,0.69384
	c-0.1360931,0.1201172-13.6465883,12.1952591-16.8922806,30.1824799
	c-0.3044977,5.8124695,0.6657829,12.6796265,2.4384298,13.2489624c0.1076994,0.0292969,2.8192959,0.7412033,10.0870991-10.6249542
	l2.1510658-3.3642426l1.4157677,3.7324066c0.0396519,0.1044922,4.0431614,10.5526886,11.1929817,19.7987366l1.7285881,2.2363129
	l-2.6885872,0.8847656c-0.476326,0.1591797-11.7427444,4.0292816-10.7910652,13.6327515l0.0132179,0.1337891l-0.0048962,0.1337891
	c0.0014687,0.0488281,0.0342674,2.0986176,2.3165321,4.3007507c2.8183174,2.7177734,9.2641735,5.8691254,23.984827,5.4228363
	c5.2910156-0.4042969,20.251545-2.8222504,24.7852287-9.0097351L76.3058853,146.1276245z"/>
</svg>
