<?xml version="1.0" encoding="utf-8"?>
<!-- Generator: Adobe Illustrator 23.0.0, SVG Export Plug-In . SVG Version: 6.00 Build 0)  -->
<svg version="1.1" id="icon-quote" xmlns="http://www.w3.org/2000/svg" xmlns:xlink="http://www.w3.org/1999/xlink" x="0px" y="0px"
	 viewBox="0 0 160 160" style="enable-background:new 0 0 160 160;" xml:space="preserve">
<style type="text/css">
	.st0{fill:#010101;}
</style>
<path class="st0" d="M158,160H40c-1.1044922,0-2-0.8955078-2-2s0.8955078-2,2-2h116v-38c0-1.1044922,0.8955078-2,2-2
	s2,0.8955078,2,2v40C160,159.1044922,159.1044922,160,158,160z M120,85c-2.7568359,0-5-2.2431641-5-5s2.2431641-5,5-5
	s5,2.2431641,5,5S122.7568359,85,120,85z M120,79c-0.5517578,0-1,0.4487305-1,1s0.4482422,1,1,1s1-0.4487305,1-1
	S120.5517578,79,120,79z M80,85c-2.7568359,0-5-2.2431641-5-5s2.2431641-5,5-5s5,2.2431641,5,5S82.7568359,85,80,85z M80,79
	c-0.5512695,0-1,0.4487305-1,1s0.4487305,1,1,1s1-0.4487305,1-1S80.5512695,79,80,79z M40,85c-2.7568359,0-5-2.2431641-5-5
	s2.2431641-5,5-5s5,2.2431641,5,5S42.7568359,85,40,85z M40,79c-0.5512695,0-1,0.4487305-1,1s0.4487305,1,1,1s1-0.4487305,1-1
	S40.5512695,79,40,79z M2,44c-1.1044922,0-2-0.8955078-2-2V2c0-1.1044922,0.8955078-2,2-2h118c1.1044922,0,2,0.8955078,2,2
	s-0.8955078,2-2,2H4v38C4,43.1044922,3.1044922,44,2,44z"/>
</svg>
