<?xml version="1.0" encoding="utf-8"?>
<!-- Generator: Adobe Illustrator 23.0.0, SVG Export Plug-In . SVG Version: 6.00 Build 0)  -->
<svg version="1.1" id="icon-qzone" xmlns="http://www.w3.org/2000/svg" xmlns:xlink="http://www.w3.org/1999/xlink" x="0px" y="0px"
	 viewBox="0 0 160 160" style="enable-background:new 0 0 160 160;" xml:space="preserve">
<path d="M126.1580276,153.6959686c-12.1850815,0.0009766-39.8379898-20.1601105-48.1282959-26.4181061
	c-2.9576874,2.1592102-10.9165955,7.9027863-19.2649879,13.3535156
	c-22.0899162,14.4253235-25.3404427,12.8234863-26.9012833,12.0523376
	c-3.2202663-1.5891571-7.0286541-6.4288177-2.9406052-30.015152c1.7370319-10.0209961,4.2984085-19.7511063,5.2301292-23.1617203
	c-2.6404438-2.1494446-9.9443684-8.1741486-17.0106049-14.7171707C0.6837804,69.5487976-0.5803135,64.524147,0.1571559,61.850029
	c0.8082392-2.9079056,5.023675-6.2633667,30.170845-9.1283226c11.0234852-1.2557945,21.9966984-1.9190788,25.7338276-2.1240654
	C60.1454849,39.1724777,71.8805695,8.2080336,79.6369324,6.4256129c3.1309509-0.7233157,7.5977402,1.2313933,17.0018234,21.1562443
	c4.0275269,8.5338535,7.4742584,17.3014927,8.6583099,20.377779c16.0339813,1.8258591,50.5774155,6.2516518,54.0436783,10.8282585
	c1.7316589,2.2778091,1.5305786,5.8158035-19.6886292,23.8142548c-8.6446533,7.3327255-17.6582718,14.3745575-20.8404694,16.8392944
	c0.6637726,1.6926193,1.8605118,4.7928238,3.2720032,8.6544113l8.6524506,0.6501007
	c1.1010742,0.0829697,1.9268951,1.042511,1.8439178,2.1426163c-0.0829773,1.1010818-1.0415344,1.9259109-2.1426086,1.8439178
	l-6.8729706-0.5163727c1.1986923,3.3930359,2.463768,7.1277313,3.6390305,10.885849
	c7.449852,23.831337,5.2008438,28.5382614,2.0196152,29.9995346
	C128.3660431,153.5085449,127.3332977,153.6959686,126.1580276,153.6959686z M78.0502319,122.7837448
	c0.4280319,0,0.8555756,0.1366577,1.2138214,0.4109497c16.4893494,12.5989609,42.3676453,29.0800247,48.267395,26.2843704
	c0.0556412-0.0253754,3.057251-2.1406708-4.1378326-25.1647415c-1.3568268-4.3389206-2.8356705-8.6475754-4.188591-12.4261932
	l-64.4116821-4.8406448c-0.8677826-0.0653992-1.5935402-0.6842728-1.7951126-1.5305786
	c-0.2010803-0.8463135,0.1678963-1.7258072,0.9131737-2.1748276l49.3299217-29.718895l-60.6799202-1.9449463
	c-1.1035194-0.0356293-1.9693527-0.9585648-1.9342117-2.062088c0.035141-1.1040039,0.980526-1.9590988,2.0620842-1.9342117
	l67.447464,2.1621399c0.8853531,0.0283127,1.6467361,0.6364441,1.8702698,1.4934845
	c0.2235336,0.8575363-0.1444702,1.7599716-0.9029236,2.2168045l-49.7579575,29.9761047l56.3566208,4.2354431
	c-1.8097458-4.886528-3.1333847-8.1780472-3.1587677-8.2415009c-0.3357925-0.8326416-0.0741882-1.7882767,0.6393661-2.333931
	c18.6178131-14.2505875,38.9604492-31.7697601,40.6511078-36.234108c-3.8977051-2.4949989-29.1385803-6.5708466-52.19487-9.1605301
	c-0.7477188-0.0839462-1.3851318-0.5807991-1.6486893-1.2855682c-0.0400238-0.1073761-4.0753632-10.859005-8.976532-21.2411709
	C83.9655991,10.1022224,80.5598679,10.3159962,80.5325394,10.322341c-4.0431519,0.928792-14.1256409,22.974781-21.1489258,42.867424
	c-0.2703896,0.7662659-0.9780846,1.2924004-1.7897415,1.3309593c-0.1298256,0.0063438-13.1041145,0.6335106-26.3009624,2.1157684
	C6.3190036,59.4409294,4.165163,62.5923767,4.0016608,62.9423218c-0.0283079,0.1098137-0.7369814,3.5472717,15.8572998,18.9140625
	c8.6851559,8.0423737,17.7295284,15.2882156,17.8198185,15.3604507c0.6300964,0.503685,0.8956032,1.3363266,0.6735344,2.1113815
	c-6.2892342,21.9522781-9.8818951,47.2234192-4.7200966,49.7691803c3.591198,1.1342621,25.2408791-12.5843201,43.2271271-25.9202728
	C77.2131958,122.9145432,77.631958,122.7837448,78.0502319,122.7837448z"/>
</svg>
