<?xml version="1.0" encoding="utf-8"?>
<!-- Generator: Adobe Illustrator 23.0.0, SVG Export Plug-In . SVG Version: 6.00 Build 0)  -->
<svg version="1.1" id="icon-refresh" xmlns="http://www.w3.org/2000/svg" xmlns:xlink="http://www.w3.org/1999/xlink" x="0px"
	 y="0px" viewBox="0 0 160 160" style="enable-background:new 0 0 160 160;" xml:space="preserve">
<path d="M80,160c-1.1044922,0-2-0.8955078-2-2v-31.2001953c0-1.1044922,0.8955078-2,2-2s2,0.8955078,2,2V158
	C82,159.1044922,81.1044922,160,80,160z M135.1464844,137.1464844c-0.5117188,0-1.0234375-0.1953125-1.4140625-0.5859375
	l-22.0742188-22.0742188c-0.78125-0.78125-0.78125-2.046875,0-2.828125s2.046875-0.78125,2.828125,0l22.0742188,22.0742188
	c0.78125,0.78125,0.78125,2.046875,0,2.828125C136.1699219,136.9511719,135.6582031,137.1464844,135.1464844,137.1464844z
	 M24.8540039,137.1464844c-0.5117188,0-1.0239258-0.1953125-1.4140625-0.5859375c-0.78125-0.78125-0.78125-2.046875,0-2.828125
	l22.0742188-22.0742188c0.7802734-0.78125,2.0478516-0.78125,2.828125,0c0.78125,0.78125,0.78125,2.046875,0,2.828125
	l-22.0742188,22.0742188C25.8779297,136.9511719,25.3657227,137.1464844,24.8540039,137.1464844z M158,82h-31.2001953
	c-1.1044922,0-2-0.8955078-2-2s0.8955078-2,2-2H158c1.1044922,0,2,0.8955078,2,2S159.1044922,82,158,82z M33.2001953,82H2
	c-1.1044922,0-2-0.8955078-2-2s0.8955078-2,2-2h31.2001953c1.1044922,0,2,0.8955078,2,2S34.3046875,82,33.2001953,82z
	 M113.0722656,48.9282227c-0.5117188,0-1.0234375-0.1953125-1.4140625-0.5859375c-0.78125-0.7807617-0.78125-2.0473633,0-2.828125
	l22.0742188-22.0742188c0.78125-0.78125,2.046875-0.78125,2.828125,0c0.78125,0.7807617,0.78125,2.0473633,0,2.828125
	l-22.0742188,22.0742188C114.0957031,48.7329102,113.5839844,48.9282227,113.0722656,48.9282227z M46.9282227,48.9282227
	c-0.5117188,0-1.0239258-0.1953125-1.4140625-0.5859375L23.4399414,26.2680664c-0.78125-0.7807617-0.78125-2.0473633,0-2.828125
	c0.7802734-0.78125,2.0478516-0.78125,2.828125,0l22.0742188,22.0742188c0.78125,0.7807617,0.78125,2.0473633,0,2.828125
	C47.9521484,48.7329102,47.4399414,48.9282227,46.9282227,48.9282227z M80,35.2001953c-1.1044922,0-2-0.8955078-2-2V2
	c0-1.1044922,0.8955078-2,2-2s2,0.8955078,2,2v31.2001953C82,34.3046875,81.1044922,35.2001953,80,35.2001953z"/>
</svg>
