<?xml version="1.0" encoding="utf-8"?>
<!-- Generator: Adobe Illustrator 23.0.0, SVG Export Plug-In . SVG Version: 6.00 Build 0)  -->
<svg version="1.1" id="icon-reply" xmlns="http://www.w3.org/2000/svg" xmlns:xlink="http://www.w3.org/1999/xlink" x="0px" y="0px"
	 viewBox="0 0 160 160" style="enable-background:new 0 0 160 160;" xml:space="preserve">
<path d="M120.5767899,150.0003052c-44.9348907,0-81.6233673-33.7462387-82.7587891-75.632164H8.1511936
	c-2.2659388,0.2128906-4.371357-0.4682693-5.9377804-1.9223709C0.7800208,71.0834579,0,69.2875519,0,67.3715286
	c0-1.915535,0.7800208-3.7114449,2.1962323-5.0566635l0.0800149-0.0717773l58.9801788-50.308815
	c1.3749771-1.297369,3.308094-1.999032,5.3968239-1.9292068c2.0568161-0.0668955,4.0439301,0.6494169,5.472908,1.9941492
	l58.4873199,49.9289284c1.7740784,1.3525467,2.7902069,3.3149605,2.7902069,5.3935814
	c0,1.6367264-0.5861053,3.1797028-1.6680298,4.4311676v0.8442459l-1.1339569,0.2358398
	c-1.4667664,1.1753006-3.405777,1.7290115-5.4429626,1.5356522c-1.6719589,0.0043945-22.7192688,0.0649414-29.55439,0.081543
	c0.9876633,31.7306061,25.4004974,59.6086655,57.5595474,65.3059464L160,140.9670715l-6.4286652,2.609375
	C143.0712433,147.8391724,131.9703064,150.0003052,120.5767899,150.0003052z M7.9440389,70.3681183h33.8683205v2.0000153
	c0,40.6007614,35.333622,73.6321564,78.7644348,73.6321564c8.5964279,0,17.0181046-1.2890625,25.1187363-3.839859
	c-31.3049011-8.6797333-54.1439514-37.5196991-54.1439514-69.7063599v-2.0000076h2.0106735
	c1.8290482,0,31.6907425-0.0859451,31.6907425-0.0859451l0.113884-0.0004883l0.1129074,0.0126953
	c1.0986099,0.1196365,2.1196518-0.1806641,2.787262-0.8291016l0.4113617-0.3984375
	c0.4565277-0.5293045,0.7039337-1.1665115,0.7039337-1.8310623c0-1.1391678-0.7785492-1.8920975-1.2429199-2.2397614
	l-0.1001434-0.0800781L69.435112,14.9699287c-0.7319183-0.6850615-1.6788406-1.0102577-2.6822128-0.9653358l-0.0962143,0.0048828
	l-0.0967026-0.0048828c-0.7191544-0.0288086-1.7573776,0.0952148-2.612999,0.9003944L4.939805,65.2401733
	c-0.5925016,0.5795898-0.9184513,1.3344727-0.9184513,2.1318436c0,0.8125,0.3382215,1.5815506,0.9523225,2.1650467
	c0.9125605,0.847168,2.0597653,0.9253006,2.8638401,0.8422852L7.9440389,70.3681183z"/>
</svg>
