<?xml version="1.0" encoding="utf-8"?>
<!-- Generator: Adobe Illustrator 23.0.0, SVG Export Plug-In . SVG Version: 6.00 Build 0)  -->
<svg version="1.1" id="icon-rightquote" xmlns="http://www.w3.org/2000/svg" xmlns:xlink="http://www.w3.org/1999/xlink" x="0px"
	 y="0px" viewBox="0 0 160 160" style="enable-background:new 0 0 160 160;" xml:space="preserve">
<path d="M103.9130859,134c-5.7548828,0-9.9199219-3.4836578-11.2226563-7.6263428
	c-1.5185547-4.8329773,0.7578125-10.9244843,9.2695313-13.63974l0.1064453-0.0302658
	c11.1035156-2.8792877,20.3964844-10.3630829,25.6123047-20.4137268c-9.2392578,2.794342-19.9335938,1.586586-27.9345703-3.4162827
	C90.71875,83.2302856,85.7480469,73.3441544,85.7480469,61.0347061C85.7480469,39.7520218,100.25,26,122.6923828,26
	C145.3554688,26,160,42.4228554,160,67.8389587c0,31.9699097-19.1689453,56.4179535-51.2773438,65.3984985
	C107.0263672,133.7627411,105.4150391,134,103.9130859,134z M103.1259766,116.5602646
	c-5.1464844,1.6588364-7.7441406,5.0360641-6.6191406,8.6144257c1.0634766,3.3840561,5.3115234,6.012413,11.0859375,4.2276382
	C137.9228516,120.9177628,156,97.9088745,156,67.8389587c0-22.9869232-13.0742188-37.8397903-33.3076172-37.8397903
	c-20.3212891,0-32.9443359,11.8920593-32.9443359,31.0355377c0,13.945343,6.5888672,20.9917297,12.1162109,24.4480438
	c8.2714844,5.1698227,19.8222656,5.7292709,28.7402344,1.3874054l4.5195313-2.1997375l-1.7714844,4.7021484
	C128.2998047,102.7818832,117.0019531,112.9418793,103.1259766,116.5602646z M18.1748047,133.9902344
	c-5.7670898,0-9.9243164-3.4680328-11.2119141-7.5882645c-1.5161133-4.851532,0.7558594-10.9596329,9.2490234-13.6680527
	l0.105957-0.0302658c11.105957-2.8802643,20.4003906-10.365036,25.6152344-20.4176331
	c-9.2563477,2.7962952-19.9541016,1.5934219-27.9404297-3.406517C4.9692383,83.2302856,0,73.341713,0,61.0347061
	C0,39.7520218,14.5014648,26,36.9438477,26c22.6635742,0,37.3081055,16.4023514,37.3081055,41.7867203
	c0,31.9498978-19.1679688,56.4164886-51.2739258,65.4497604C21.2827148,133.7549286,19.6743164,133.9902344,18.1748047,133.9902344z
	 M17.3774414,116.5602646c-6.2353516,2.0074005-7.4521484,5.910881-6.5966797,8.6495743
	c1.0478516,3.3518372,5.2851563,5.9567719,11.0703125,4.1905365c30.3232422-8.5324097,48.4008789-31.5608215,48.4008789-61.6136551
	c0-22.9551888-13.0742188-37.7875519-33.3081055-37.7875519C16.6235352,29.9991684,4,41.8912277,4,61.0347061
	c0,13.9433899,6.5883789,20.9946594,12.1157227,24.4548721c8.25,5.1639709,19.8007813,5.7195129,28.7426758,1.3796005
	l4.5131836-2.1909561l-1.7680664,4.6943436C42.5522461,102.7818832,31.2548828,112.9418793,17.3774414,116.5602646z"/>
</svg>
