<?xml version="1.0" encoding="utf-8"?>
<!-- Generator: Adobe Illustrator 23.0.0, SVG Export Plug-In . SVG Version: 6.00 Build 0)  -->
<svg version="1.1" id="icon-rss" xmlns="http://www.w3.org/2000/svg" xmlns:xlink="http://www.w3.org/1999/xlink" x="0px" y="0px"
	 viewBox="0 0 160 160" style="enable-background:new 0 0 160 160;" xml:space="preserve">
<path d="M158,160c-1.1044922,0-2-0.8955078-2-2C156,73.0839844,86.9160156,4,2,4C0.8955078,4,0,3.1044922,0,2s0.8955078-2,2-2
	c87.1210938,0,158,70.878418,158,158C160,159.1044922,159.1044922,160,158,160z M89.75,160c-1.1044922,0-2-0.8955078-2-2
	c0-47.2822266-38.4672852-85.75-85.75-85.75c-1.1044922,0-2-0.8955078-2-2s0.8955078-2,2-2
	c49.4882813,0,89.75,40.2617188,89.75,89.75C91.75,159.1044922,90.8544922,160,89.75,160z M5,160c-2.7568359,0-5-2.2431641-5-5
	s2.2431641-5,5-5s5,2.2431641,5,5S7.7568359,160,5,160z M5,154c-0.5512695,0-1,0.4482422-1,1s0.4487305,1,1,1s1-0.4482422,1-1
	S5.5512695,154,5,154z"/>
</svg>
