<?xml version="1.0" encoding="utf-8"?>
<!-- Generator: Adobe Illustrator 23.0.0, SVG Export Plug-In . SVG Version: 6.00 Build 0)  -->
<svg version="1.1" id="icon-search" xmlns="http://www.w3.org/2000/svg" xmlns:xlink="http://www.w3.org/1999/xlink" x="0px"
	 y="0px" viewBox="0 0 160 160" style="enable-background:new 0 0 160 160;" xml:space="preserve">
<path d="M158,160c-0.5117188,0-1.0234375-0.1953125-1.4140625-0.5859375l-42.4990234-42.4990234
	c-12.1259766,11.4355469-28.4599609,18.453125-46.402832,18.453125C30.362793,135.3681641,0,105.0048828,0,67.684082
	C0,30.362793,30.362793,0,67.684082,0c37.3208008,0,67.684082,30.362793,67.684082,67.684082
	c0,17.9428711-7.0175781,34.2768555-18.453125,46.402832l42.4990234,42.4990234c0.78125,0.78125,0.78125,2.046875,0,2.828125
	C159.0234375,159.8046875,158.5117188,160,158,160z M67.684082,4C32.5683594,4,4,32.5683594,4,67.684082
	s28.5683594,63.684082,63.684082,63.684082s63.684082-28.5683594,63.684082-63.684082S102.7998047,4,67.684082,4z"/>
</svg>
