<?xml version="1.0" encoding="utf-8"?>
<!-- Generator: Adobe Illustrator 23.0.0, SVG Export Plug-In . SVG Version: 6.00 Build 0)  -->
<svg version="1.1" id="icon-share" xmlns="http://www.w3.org/2000/svg" xmlns:xlink="http://www.w3.org/1999/xlink" x="0px" y="0px"
	 viewBox="0 0 160 160" style="enable-background:new 0 0 160 160;" xml:space="preserve">
<path d="M128,160c-12.1308594,0-22-9.8691406-22-22c0-3.3828125,0.7675781-6.5898438,2.1376953-9.4560547L50.2070313,92.3369141
	C46.2451172,98.1640625,39.5620117,102,32,102c-12.1308594,0-22-9.8691406-22-22s9.8691406-22,22-22
	c7.4833984,0,14.1054688,3.7553711,18.081543,9.4804688l57.9614258-36.2255859C106.7324219,28.4404297,106,25.3037109,106,22
	c0-12.1308594,9.8691406-22,22-22s22,9.8691406,22,22s-9.8691406,22-22,22c-7.3984375,0-13.9550781-3.6699219-17.9453125-9.2856445
	L52.0571289,70.9628906C53.3051758,73.7211914,54,76.7807617,54,80c0,3.1396484-0.6611328,6.1289063-1.8520508,8.8339844
	l58.0366211,36.2724609C114.1855469,119.5917969,120.6806641,116,128,116c12.1308594,0,22,9.8691406,22,22S140.1308594,160,128,160z
	 M128,120c-9.9248047,0-18,8.0751953-18,18s8.0751953,18,18,18s18-8.0751953,18-18S137.9248047,120,128,120z M32,62
	c-9.925293,0-18,8.074707-18,18c0,9.9248047,8.074707,18,18,18s18-8.0751953,18-18C50,70.074707,41.925293,62,32,62z M128,4
	c-9.9248047,0-18,8.074707-18,18s8.0751953,18,18,18s18-8.074707,18-18S137.9248047,4,128,4z"/>
</svg>
