<?xml version="1.0" encoding="utf-8"?>
<!-- Generator: Adobe Illustrator 24.0.0, SVG Export Plug-In . SVG Version: 6.00 Build 0)  -->
<svg version="1.1" id="icon-shaw" xmlns="http://www.w3.org/2000/svg" xmlns:xlink="http://www.w3.org/1999/xlink" x="0px" y="0px"
	 viewBox="0 0 160 160" style="enable-background:new 0 0 160 160;" xml:space="preserve">
<path d="M33.0146484,160c-8.8212891,0-17.1108398-3.4326172-23.3461914-9.6689453
	C3.4243164,144.0878906-0.0092773,135.7841797,0,126.9492188c0.0092773-8.6748047,3.6381836-17.2744141,9.9570313-23.59375
	l5.9663086-5.9667969c4.234375-4.234375,11.1240234-4.234375,15.3583984,0c4.2338867,4.2353516,4.2338867,11.125,0,15.3583984
	l-6.0639648,6.0644531c-2.2050781,2.2050781-3.4790039,5.1611328-3.4951172,8.1103516
	c-0.019043,3.4833984,1.543457,6.7382813,4.2871094,8.9296875c1.7246094,1.3759766,3.8066406,2.2021484,6.0209961,2.3876953
	c3.3930664,0.2851563,6.5761719-0.875,8.9663086-3.2666016l23.6499023-23.6494141L9.668457,56.3442383
	C3.4335938,50.109375,0,41.8193359,0,33.0019531c0-8.8198242,3.4335938-17.1108398,9.668457-23.3452148
	c6.2241211-6.2260742,14.5146484-9.6552734,23.3422852-9.6552734c0.0009766,0,0.0004883,0,0.0019531,0
	C41.840332,0.0019531,50.1303711,3.4306641,56.355957,9.6567383l23.6499023,23.6499023L103.65625,9.6567383
	C109.8808594,3.4296875,118.171875,0,127,0s17.1191406,3.4296875,23.34375,9.6567383V9.65625c0,0.0004883,0,0.0004883,0,0.0004883
	C156.5703125,15.8813477,160,24.171875,160,33.0004883c0,8.828125-3.4296875,17.1186523-9.65625,23.3442383l-6.2294922,6.2304688
	c-2.0517578,2.0517578-4.7792969,3.1821289-7.6806641,3.1821289c-2.9013672,0.0004883-5.6289063-1.1293945-7.6806641-3.1811523
	s-3.1816406-4.7792969-3.1816406-7.6806641s1.1308594-5.6293945,3.1826172-7.6806641l6.2314453-6.2294922
	c2.1640625-2.1645508,3.3359375-5.0493164,3.2998047-8.1220703c-0.0371094-3.0708008-1.2792969-5.9267578-3.4980469-8.0415039
	c-4.3964844-4.190918-11.5517578-4.0268555-15.9492188,0.3701172L95.3642578,48.6650391l54.9794922,54.9785156
	c6.2265625,6.2255859,9.65625,14.515625,9.65625,23.34375s-3.4296875,17.1181641-9.65625,23.34375
	C144.109375,156.5664063,135.8173828,160,126.9980469,160c-8.8183594,0-17.1083984-3.4335938-23.3417969-9.6689453
	l-23.6503906-23.6494141l-23.3613281,23.3613281C50.3266602,156.3613281,41.7270508,159.9912109,33.050293,160
	C33.0385742,160,33.0263672,160,33.0146484,160z M23.6025391,98.2109375c-1.7568359,0-3.5131836,0.6679688-4.8510742,2.0058594
	l-5.9663086,5.9667969C7.2099609,111.7597656,4.0078125,119.3291016,4,126.953125
	c-0.0083008,7.7646484,3.0092773,15.0625,8.496582,20.5498047C17.9765625,152.9824219,25.2626953,156,33.0146484,156
	c0.0107422,0,0.0205078,0,0.0317383,0c7.625-0.0078125,15.1953125-3.2099609,20.7700195-8.7851563l54.6904297-54.6904297
	l-9.7021484-9.7021484l-54.9790039,54.9785156c-3.1894531,3.1904297-7.6098633,4.8037109-12.1289063,4.4248047
	c-3.0068359-0.2519531-5.8364258-1.375-8.1826172-3.2480469c-3.706543-2.9609375-5.8173828-7.3623047-5.7915039-12.0771484
	c0.0219727-3.9941406,1.7226563-7.9726563,4.6669922-10.9169922l6.0639648-6.0644531
	c2.6743164-2.6748047,2.6743164-7.0273438-0.0004883-9.7021484C27.1162109,98.8798828,25.359375,98.2109375,23.6025391,98.2109375z
	 M82.8339844,123.8535156l23.6503906,23.6494141C111.9628906,152.9824219,119.2480469,156,126.9980469,156
	c7.7509766,0,15.0380859-3.0175781,20.5175781-8.4970703C152.9873047,142.0332031,156,134.7470703,156,126.9873047
	s-3.0126953-15.0449219-8.484375-20.515625L92.5361328,51.4936523l-9.7021484,9.7016602l54.9794922,54.9785156
	c5.9628906,5.9628906,5.9628906,15.6640625,0,21.6269531c-2.8886719,2.8896484-6.7304688,4.4804688-10.8154297,4.4804688
	c-4.0839844,0-7.9238281-1.5908203-10.8115234-4.4804688l-23.6503906-23.6494141L82.8339844,123.8535156z M95.3642578,111.3232422
	l23.6503906,23.6494141c2.1328125,2.1337891,4.9677734,3.3085938,7.9833984,3.3085938
	c3.0166016,0,5.8535156-1.1748047,7.9873047-3.3085938c4.4033203-4.4033203,4.4033203-11.5673828,0-15.9707031
	l-23.6503906-23.6494141L95.3642578,111.3232422z M33.0107422,4.0014648c-7.7597656,0-15.0444336,3.0126953-20.5136719,8.4833984
	C7.0175781,17.9643555,4,25.2504883,4,33.0019531c0,7.7490234,3.0175781,15.0341797,8.496582,20.5141602l54.9790039,54.9790039
	l9.7016602-9.7021484L22.1987305,43.8139648c-2.8891602-2.8891602-4.4799805-6.7290039-4.4799805-10.8120117
	c0-4.081543,1.5908203-7.921875,4.4790039-10.8139648c2.8896484-2.8857422,6.7299805-4.4741211,10.8164063-4.4741211
	c4.0844727,0,7.9238281,1.5883789,10.8110352,4.472168l23.6503906,23.6503906l9.7016602-9.7016602L53.527832,12.4848633
	c-5.4702148-5.4702148-12.7558594-8.4829102-20.515625-8.4833984C33.0117188,4.0014648,33.0112305,4.0014648,33.0107422,4.0014648z
	 M64.0356445,79.9941406l15.9702148,15.9707031l15.9707031-15.9707031L80.0058594,64.0239258L64.0356445,79.9941406z
	 M51.5053711,67.4638672l9.7016602,9.7016602l54.8027344-54.8017578c5.9179688-5.9199219,15.5791016-6.1162109,21.5371094-0.4375
	c3.0048828,2.8647461,4.6875,6.7314453,4.7373047,10.8886719c0.0498047,4.159668-1.5371094,8.065918-4.4707031,10.9990234
	l-6.2314453,6.2299805c-1.296875,1.2958984-2.0107422,3.019043-2.0107422,4.8515625
	c0,1.8330078,0.7138672,3.5561523,2.0097656,4.8525391c1.2958984,1.2958984,3.0195313,2.0097656,4.8525391,2.0092773
	c1.8330078,0,3.5556641-0.7138672,4.8525391-2.0102539l6.2294922-6.230957C152.9873047,48.0458984,156,40.7602539,156,33.0004883
	s-3.0126953-15.0454102-8.484375-20.5151367v-0.0004883C142.0449219,7.0131836,134.7597656,4,127,4
	s-15.0449219,3.0131836-20.515625,8.4848633L51.5053711,67.4638672z M33.0141602,21.7138672
	c-3.019043,0-5.855957,1.1728516-7.9882813,3.3022461C22.894043,27.1513672,21.71875,29.987793,21.71875,33.0019531
	c0,3.0146484,1.1748047,5.8500977,3.3085938,7.9838867l23.6494141,23.6494141l15.9707031-15.9702148L40.9975586,25.0151367
	C38.8662109,22.8867188,36.0307617,21.7138672,33.0141602,21.7138672z"/>
</svg>
