<?xml version="1.0" encoding="utf-8"?>
<!-- Generator: Adobe Illustrator 23.0.0, SVG Export Plug-In . SVG Version: 6.00 Build 0)  -->
<svg version="1.1" id="icon-smiley" xmlns="http://www.w3.org/2000/svg" xmlns:xlink="http://www.w3.org/1999/xlink" x="0px"
	 y="0px" viewBox="0 0 160 160" style="enable-background:new 0 0 160 160;" xml:space="preserve">
<path d="M80,160c-44.1123047,0-80-35.8876953-80-80S35.8876953,0,80,0s80,35.8876953,80,80S124.1123047,160,80,160z M80,4
	C38.0932617,4,4,38.0932617,4,80c0,41.90625,34.0932617,76,76,76c41.90625,0,76-34.09375,76-76C156,38.0932617,121.90625,4,80,4z
	 M80,113.7998047c-20.2670898,0-32.2978516-15.7294922-32.800293-16.3994141
	c-0.6625977-0.8837891-0.4833984-2.1376953,0.3999023-2.7998047c0.8823242-0.6650391,2.1347656-0.484375,2.7983398,0.3974609l0,0
	C50.5097656,95.1455078,61.7753906,109.7998047,80,109.7998047c18.2880859,0,29.4892578-14.6513672,29.6005859-14.7998047
	c0.6621094-0.8818359,1.9140625-1.0644531,2.7998047-0.3994141c0.8837891,0.6621094,1.0625,1.9160156,0.3994141,2.7998047
	C112.2978516,98.0703125,100.2666016,113.7998047,80,113.7998047z M103.0146484,61C100.25,61,98,58.7568359,98,56
	s2.2236328-5,4.9570313-5C105.7636719,51,108,53.2431641,108,56S105.7636719,61,103.0146484,61z M103.0146484,55
	C102.4199219,55,102,55.4394531,102,56c0,0.5419922,0.4648438,1,1.0146484,1C103.5576172,57,104,56.5512695,104,56
	S103.5576172,55,103.0146484,55z M57.0146484,61C54.2495117,61,52,58.7568359,52,56s2.2231445-5,4.9560547-5
	C59.7636719,51,62,53.2431641,62,56S59.7636719,61,57.0146484,61z M57.0146484,55C56.4199219,55,56,55.4394531,56,56
	c0,0.5419922,0.4648438,1,1.0146484,1C57.5581055,57,58,56.5512695,58,56S57.5581055,55,57.0146484,55z"/>
</svg>
