<?xml version="1.0" encoding="utf-8"?>
<!-- Generator: Adobe Illustrator 23.0.0, SVG Export Plug-In . SVG Version: 6.00 Build 0)  -->
<svg version="1.1" id="icon-social" xmlns="http://www.w3.org/2000/svg" xmlns:xlink="http://www.w3.org/1999/xlink" x="0px"
	 y="0px" viewBox="0 0 160 160" style="enable-background:new 0 0 160 160;" xml:space="preserve">
<path d="M80,160c-44.1123047,0-80-35.8876953-80-80S35.8876953,0,80,0s80,35.8876953,80,80S124.1123047,160,80,160z
	 M74.5693359,155.8076172C76.3637695,155.9355469,78.1738281,156,80,156c24.5751953,0,46.4619141-11.7226563,60.3632813-29.8710938
	l-24.328125-42.1279297L74.5693359,155.8076172z M11.6416016,113.2001953
	c10.9794922,22.5166016,32.7641602,38.8359375,58.5610352,42.1708984l24.3520508-42.1708984H11.6416016z M101.4824219,50.7998047
	l41.4462891,71.7724609C151.1777344,110.4189453,156,95.7636719,156,80c0-10.3413086-2.0761719-20.2055664-5.8330078-29.2001953
	H101.4824219z M63.1367188,109.2001953h33.7275391l16.8613281-29.1992188L96.8632813,50.7998047H63.1357422L46.2739258,79.9990234
	L63.1367188,109.2001953z M9.8330078,109.2001953h48.6845703L17.0712891,37.4277344C8.8222656,49.581543,4,64.2363281,4,80
	C4,90.3408203,6.0756836,100.2050781,9.8330078,109.2001953z M19.637207,33.871582l24.3271484,42.1279297L85.4306641,4.1918945
	C83.6367188,4.0644531,81.8261719,4,80,4C55.4248047,4,33.5385742,15.722168,19.637207,33.871582z M65.4453125,46.7998047
	h82.9130859C137.3789063,24.2836914,115.5947266,7.9643555,89.7978516,4.628418L65.4453125,46.7998047z"/>
</svg>
