<?xml version="1.0" encoding="utf-8"?>
<!-- Generator: Adobe Illustrator 18.0.0, SVG Export Plug-In . SVG Version: 6.00 Build 0)  -->
<!DOCTYPE svg PUBLIC "-//W3C//DTD SVG 1.1//EN" "http://www.w3.org/Graphics/SVG/1.1/DTD/svg11.dtd">
<svg version="1.1" id="icon-star" xmlns="http://www.w3.org/2000/svg" xmlns:xlink="http://www.w3.org/1999/xlink" x="0px" y="0px"
	 viewBox="0 0 160 160" style="enable-background:new 0 0 160 160;" xml:space="preserve">
<path d="M37.5599899,156.6560059c-3.3452797,0-6.5191669-1.4892578-8.7086639-4.0849609
	c-2.1626396-2.5634766-3.0376549-5.8212891-2.4639149-9.1728516l7.1114674-41.390625L3.4309127,72.708252
	c-3.1118765-3.0302734-4.211019-7.4829102-2.8672428-11.6201172c1.3427994-4.1342773,4.8438439-7.0893555,9.1373835-7.7124023
	l41.5603752-6.059082L69.837471,9.6530762c1.9214249-3.8920898,5.8077316-6.309082,10.1417999-6.309082
	c4.3516464,0,8.2530899,2.4160156,10.1808624,6.3056641l18.5784836,37.6669922l41.5613556,6.0595703
	c4.2920685,0.6225586,7.7940826,3.5776367,9.1368866,7.7119141c1.342804,4.1367188,0.2441406,8.5893555-2.8682098,11.6206055
	l-30.0679703,29.2988281l7.1114578,41.3886719c0.5732574,3.3496094-0.2998047,6.6025391-2.4590302,9.1611328
	c-2.1904602,2.5966797-5.3711929,4.0869141-8.7257538,4.0869141c0,0,0.0009766,0,0,0
	c-1.8262024,0-3.5918655-0.4414063-5.2471695-1.3115234l-37.1804047-19.5429688l-37.1804085,19.5429688
	C41.1650429,156.2097168,39.3935242,156.6560059,37.5599899,156.6560059z M79.9792709,7.3439941
	c-2.8433151,0-5.2935638,1.5249023-6.5548172,4.0791016L53.918705,50.9719238l-43.6419563,6.3623047
	c-2.8184142,0.4086914-5.0269532,2.2739258-5.9088058,4.9897461c-0.8828297,2.7182617-0.1894569,5.5288086,1.8540397,7.5185547
	l31.5758076,30.7685547l-7.4679203,43.4628906c-0.3710995,2.1679688,0.1894569,4.2705078,1.5791321,5.9189453
	c1.4067669,1.6669922,3.5191135,2.6630859,5.6509876,2.6630859c1.173851,0,2.3149872-0.2900391,3.3921585-0.8603516
	l39.0476303-20.5253906l39.0417709,20.5214844c1.0752182,0.5654297,2.2148819,0.8525391,3.3858032,0.8525391
	c2.1416473,0,4.2598495-0.9970703,5.6680756-2.6660156c1.3857727-1.6425781,1.9453583-3.7402344,1.5742493-5.90625
	l-7.4679108-43.4609375l31.5758057-30.7680664c2.0439911-1.9902344,2.7373505-4.8012695,1.8545227-7.5195313
	c-0.8818512-2.715332-3.0899048-4.5805664-5.9073334-4.9887695l-43.6444016-6.362793L86.5741272,11.4226074
	C85.3094482,8.869873,82.8426056,7.3439941,79.9792709,7.3439941z"/>
</svg>
