<?xml version="1.0" encoding="utf-8"?>
<!-- Generator: Adobe Illustrator 23.0.0, SVG Export Plug-In . SVG Version: 6.00 Build 0)  -->
<svg version="1.1" id="icon-statistic" xmlns="http://www.w3.org/2000/svg" xmlns:xlink="http://www.w3.org/1999/xlink" x="0px"
	 y="0px" viewBox="0 0 160 160" style="enable-background:new 0 0 160 160;" xml:space="preserve">
<path d="M158,140H2c-1.1044922,0-2-0.8955078-2-2V22c0-1.1044922,0.8955078-2,2-2s2,0.8955078,2,2v114h27.4731445V84.1425781
	c0-1.1044922,0.8955078-2,2-2h20.5263672c1.1044922,0,2,0.8955078,2,2V136h27.4741211V63.4287109c0-1.1044922,0.8955078-2,2-2H106
	c1.1044922,0,2,0.8955078,2,2V136h27.4736328V22c0-1.1044922,0.8955078-2,2-2H158c1.1044922,0,2,0.8955078,2,2v116
	C160,139.1044922,159.1044922,140,158,140z M139.4736328,136H156V24h-16.5263672V136z M87.4736328,136H104V65.4287109H87.4736328
	V136z M35.4731445,136h16.5263672V86.1425781H35.4731445V136z"/>
</svg>
