<?xml version="1.0" encoding="utf-8"?>
<!-- Generator: Adobe Illustrator 23.0.0, SVG Export Plug-In . SVG Version: 6.00 Build 0)  -->
<svg version="1.1" id="icon-strike" xmlns="http://www.w3.org/2000/svg" xmlns:xlink="http://www.w3.org/1999/xlink" x="0px"
	 y="0px" viewBox="0 0 160 160" style="enable-background:new 0 0 160 160;" xml:space="preserve">
<path d="M80,160c-22.6074219,0-41-18.3925781-41-41c0-1.1044922,0.8955078-2,2-2s2,0.8955078,2,2c0,20.4023438,16.5981445,37,37,37
	c20.4023438,0,37-16.5976563,37-37s-16.5976563-37-37-37H2c-1.1044922,0-2-0.8955078-2-2s0.8955078-2,2-2h60.3427734
	C48.5493164,71.390625,39,57.2890625,39,41C39,18.3925781,57.3925781,0,80,0s41,18.3925781,41,41c0,1.1044922-0.8955078,2-2,2
	s-2-0.8955078-2-2c0-20.4018555-16.5976563-37-37-37C59.5981445,4,43,20.5981445,43,41s16.5981445,37,37,37h78
	c1.1044922,0,2,0.8955078,2,2s-0.8955078,2-2,2H97.6572266C111.4511719,88.609375,121,102.7109375,121,119
	C121,141.6074219,102.6074219,160,80,160z"/>
</svg>
