<?xml version="1.0" encoding="utf-8"?>
<!-- Generator: Adobe Illustrator 18.0.0, SVG Export Plug-In . SVG Version: 6.00 Build 0)  -->
<!DOCTYPE svg PUBLIC "-//W3C//DTD SVG 1.1//EN" "http://www.w3.org/Graphics/SVG/1.1/DTD/svg11.dtd">
<svg version="1.1" id="icon-stuff" xmlns="http://www.w3.org/2000/svg" xmlns:xlink="http://www.w3.org/1999/xlink" x="0px" y="0px"
	 viewBox="0 0 160 160" style="enable-background:new 0 0 160 160;" xml:space="preserve">
<path d="M158,160H2c-1.1044922,0-2-0.8955078-2-2V84c0-0.2333984,0.0400391-0.4570313,0.1132813-0.6660156L20.4921875,1.5166016
	C20.7143555,0.6254883,21.5146484,0,22.4331055,0h115.1342773c0.9179688,0,1.71875,0.6254883,1.9404297,1.5166016
	l20.3603516,81.7685547C159.953125,83.5068359,160,83.7480469,160,84v74C160,159.1044922,159.1044922,160,158,160z M4,156h152V86
	h-35.3369141c-2.9570313,20.0683594-20.09375,34.9736328-40.609375,34.9736328
	c-20.487793,0-37.6318359-14.9140625-40.5839844-34.9736328H4V156z M29,82h12.2133789
	c0.6157227,0,1.1972656,0.2832031,1.5761719,0.7685547c0.230957,0.2958984,0.3984375,0.6826172,0.4375,1.0556641
	c1.9663086,18.8984375,17.7983398,33.1494141,36.8266602,33.1494141c19.0888672,0,34.9365234-14.2958984,36.8623047-33.2539063
	c0.0751953-0.7353516,0.5498047-1.3701172,1.234375-1.6494141c0.4238281-0.1728516,0.8857422-0.1923828,1.3095703-0.0703125H131V61
	H29V82z M135,82h20.4267578L136.0039063,4H23.9960938L4.5678711,82H25V59c0-1.1044922,0.8955078-2,2-2h106
	c1.1044922,0,2,0.8955078,2,2V82z M133,43H27v-4h106V43z M129,25H31v-4h98V25z"/>
</svg>
