<?xml version="1.0" encoding="utf-8"?>
<!-- Generator: Adobe Illustrator 23.0.0, SVG Export Plug-In . SVG Version: 6.00 Build 0)  -->
<svg version="1.1" id="icon-tags" xmlns="http://www.w3.org/2000/svg" xmlns:xlink="http://www.w3.org/1999/xlink" x="0px" y="0px"
	 viewBox="0 0 160 160" style="enable-background:new 0 0 160 160;" xml:space="preserve">
<path d="M65.1283188,144c-3.6485977,0-7.0789223-1.4168549-9.6586227-3.9895935L4.0885568,88.7776871
	C1.4522115,86.1494446,0,82.6545334,0,78.936142V29.918293C0,22.2439022,6.261991,16,13.9586143,16h49.1598511
	c3.7286797,0,7.2342033,1.4480171,9.8705482,4.076746l3.2862778,3.2762966h25.3990479
	c3.6827774,0,7.2864532,1.4918365,9.8861771,4.0923271l44.9550781,44.9707985
	c4.6515656,4.6522522,4.6447296,12.2151489-0.0136719,16.8591232l-50.4309082,50.2862015
	c-5.1066666,5.0938568-13.417572,5.4249573-18.9178162,0.755661l-6.846489-5.8096008l-5.5192795,5.5028534
	C72.2072372,142.5831451,68.7769165,144,65.1283188,144z M13.9586143,19.9886189
	c-5.4909611,0-9.9584408,4.4545746-9.9584408,9.9296741v49.017849c0,2.6530762,1.0356894,5.1459579,2.9166303,7.0214691
	l51.3811378,51.2327118c1.8247871,1.8190308,4.2501869,2.8210602,6.8303757,2.8210602
	c2.5801926,0,5.0060806-1.0020294,6.830864-2.8210602l6.811821-6.7921295
	c0.0092773-0.0097504,0.0185547-0.0194855,0.0283203-0.028244l42.5311432-42.4082947
	c3.8829803-3.8717651,3.8829803-10.1711731,0-14.0429382L70.1607666,22.8968239
	c-1.8809433-1.8755074-4.3820267-2.908205-7.0423012-2.908205H13.9586143z M83.1442413,131.6777344l6.6008682,5.6021881
	c3.9259567,3.3303375,9.8529663,3.0956573,13.4976578-0.5385132l50.4309082-50.2861938
	c3.1007233-3.0917664,3.1056061-8.1262283,0.0097656-11.2228622l-44.9550858-44.9708023
	c-1.855545-1.855545-4.4269485-2.9198914-7.0540161-2.9198914h-21.39888l43.883255,43.7569809
	c5.4426193,5.4264145,5.4426193,14.2561951,0,19.6830978L83.1442413,131.6777344z M34.1889877,63.7105446
	c-7.5320683,0-13.6597748-6.1100082-13.6597748-13.6203156s6.1277065-13.6203156,13.6597748-13.6203156
	s13.659771,6.1100044,13.659771,13.6203156S41.7210503,63.7105446,34.1889877,63.7105446z M34.1889877,40.4585304
	c-5.3264046,0-9.6596012,4.3206787-9.6596012,9.6316986s4.3331966,9.6316948,9.6596012,9.6316948
	s9.6595993-4.3206787,9.6595993-9.6316948S39.5153885,40.4585304,34.1889877,40.4585304z"/>
</svg>
