<?xml version="1.0" encoding="utf-8"?>
<!-- Generator: Adobe Illustrator 23.0.0, SVG Export Plug-In . SVG Version: 6.00 Build 0)  -->
<svg version="1.1" id="icon-thumbtack" xmlns="http://www.w3.org/2000/svg" xmlns:xlink="http://www.w3.org/1999/xlink" x="0px"
	 y="0px" viewBox="0 0 160 160" style="enable-background:new 0 0 160 160;" xml:space="preserve">
<path d="M51.3641052,160c-0.4970818,0-0.998558-0.0859375-1.4848976-0.2626953
	c-1.5581398-0.566391-2.6401939-1.9452667-2.8242798-3.5975952l-1.7495537-15.6960144
	c-0.0742188-0.6650238,0.0073242-1.3495789,0.2358475-1.9794617l9.7897682-26.9360504L19.9107647,98.6172791
	c-4.6641674-1.7001648-7.0690069-6.9080887-5.3604727-11.6101532c4.8184671-13.2585602,18.0790176-22.2154312,35.5955238-24.1089554
	l13.8098793-28.5390549l-9.4958191-3.4613667c-4.6641655-1.7001667-7.0690041-6.9085712-5.3604698-11.6101513l4.8326263-13.2971315
	c0.8271675-2.274863,2.4824791-4.0946555,4.6622124-5.1239347c2.186573-1.0322087,4.6363373-1.1459762,6.9005432-0.3212835
	l74.5944443,27.1909351c4.6651459,1.7006531,7.0695038,6.9090576,5.3604736,11.6101494l-4.8321381,13.2971306
	c-0.8271637,2.2748642-2.4834595,4.0946579-4.6622162,5.1239357c-2.1865692,1.0322075-4.6378021,1.1469536-6.9005432,0.3212852
	l-9.4924011-3.4599037l-7.7365036,30.7514229c12.2024231,12.7253647,16.611702,28.1225586,11.7942123,41.3801422
	c-0.8320465,2.2909698-2.5020065,4.1171112-4.7012787,5.1424866c-2.175827,1.0146332-4.6124039,1.1230316-6.8624573,0.3027344
	l-35.4158325-12.909935l-9.7868423,26.9311752c-0.230957,0.6327972-0.6084061,1.2099304-1.0918198,1.6708679l-11.4133415,10.8972626
	C53.5228462,159.5830078,52.4554367,160,51.3641052,160z M62.4292946,4.0022192c-0.7251129,0-1.4487648,0.16113-2.1270027,0.4814367
	c-1.219265,0.5756741-2.1465302,1.5961637-2.6104088,2.8729973l-4.8326263,13.2971325
	c-0.9560776,2.6308136,0.3764725,5.540432,2.970768,6.4862156l13.6541138,4.976965L52.7650146,66.6686096l-1.1284409,0.1015625
	c-16.4901161,1.4804459-28.9488926,9.5564728-33.3264313,21.6031418c-0.9560757,2.6308136,0.3764725,5.5409164,2.9707699,6.4862137
	l39.1742172,14.2800293l-11.1535683,30.6898956c-0.0200195,0.0537109-0.0268555,0.1132813-0.0205078,0.1708984l1.7495499,15.6960144
	c0.0058594,0.0527344,0.0234375,0.2119141,0.2153358,0.28125c0.1899452,0.0722504,0.302742-0.0400391,0.3403397-0.0751953
	l11.4138298-10.8982544c0.0419922-0.0400391,0.0747108-0.0908203,0.0947304-0.1455078l11.1540565-30.6918488l39.1776352,14.2810059
	c1.2431946,0.4521332,2.5928345,0.3935394,3.8008652-0.1699219c1.2314758-0.5742111,2.166069-1.5976257,2.6328735-2.8827591
	c4.3780289-12.0486221,0.0166016-26.2573624-11.6652985-38.0081329l-0.7978745-0.8017426l9.3683777-37.2337303l13.6585083,4.9794083
	c1.2510071,0.4555588,2.609436,0.3920822,3.8223572-0.180172c1.2197418-0.5761642,2.1475067-1.596653,2.6113739-2.8739738
	l4.8321533-13.2966461c0.9560699-2.6308136-0.3759918-5.540432-2.9707794-6.4862156L64.1246414,4.3029952
	C63.572876,4.1018267,63.0005951,4.0022192,62.4292946,4.0022192z"/>
</svg>
