<?xml version="1.0" encoding="utf-8"?>
<!-- Generator: Adobe Illustrator 18.0.0, SVG Export Plug-In . SVG Version: 6.00 Build 0)  -->
<!DOCTYPE svg PUBLIC "-//W3C//DTD SVG 1.1//EN" "http://www.w3.org/Graphics/SVG/1.1/DTD/svg11.dtd">
<svg version="1.1" id="icon-tools" xmlns="http://www.w3.org/2000/svg" xmlns:xlink="http://www.w3.org/1999/xlink" x="0px" y="0px"
	 viewBox="0 0 160 160" style="enable-background:new 0 0 160 160;" xml:space="preserve">
<path d="M29.7115231,160.0002441c-3.2455788,0-6.4369583-0.5205078-9.4852734-1.5468597
	c-0.655756-0.2207031-1.1523342-0.765625-1.3105354-1.4394531c-0.1577148-0.6738129,0.0419922-1.3818207,0.5317326-1.8710785
	l9.927166-9.9266663l2.8237057-10.3856659l-7.0277729-7.0272827l-10.3846807,2.8232269l-9.9271641,9.9276428
	c-0.489254,0.4892578-1.1967676,0.6894531-1.8705902,0.5332031c-0.6738224-0.1582031-1.2182516-0.6533203-1.4389529-1.3095551
	c-1.026847-3.050766-1.5478388-6.2431183-1.5478388-9.488205c0-16.3817062,13.3280153-29.7097168,29.7102051-29.7097168
	c2.8246822,0,5.6083508,0.3945236,8.2919254,1.1728363l25.5178528-25.5178528L18.7789955,31.3396797l-4.7211523-0.0014648
	c-1.5034056-0.0019531-2.9150143-0.8012638-3.6855164-2.0864086L0.6145951,13.0082874
	c-1.0170815-1.6948099-0.7514586-3.8539724,0.6459907-5.2509332l6.5067825-6.4975052
	C9.163353-0.1366237,11.321538-0.4027348,13.018301,0.6138584l16.2645149,9.7479668
	c1.2880745,0.7705011,2.08885,2.1830873,2.08885,3.6850281v4.7167578l44.863884,44.7574425l25.5168839-25.5173683
	c-0.7783127-2.6825943-1.1728439-5.4667511-1.1728439-8.2919216c0-16.3821907,13.3280182-29.7102051,29.7097168-29.7102051
	c3.2021179,0,6.3534698,0.5068318,9.3671112,1.5068234l0.1582031,0.0566403
	c0.6445313,0.2314434,1.1259613,0.776849,1.2753754,1.4453006s-0.0537109,1.3666878-0.5380707,1.8505707l-9.925705,9.925211
	l-2.8232193,10.3846788l7.0272903,7.0277748l10.3856506-2.8237076l9.9266815-9.9271641
	c0.4892426-0.4907188,1.1952972-0.6928654,1.8740082-0.5322227c0.6738129,0.1591797,1.2177582,0.6562462,1.4374847,1.3139553
	C159.4794922,23.2748051,160,26.4661846,160,29.7117634c0,16.3821888-13.3280182,29.7102032-29.7106934,29.7102032
	c-2.8232193,0-5.6063995-0.3940392-8.290947-1.1728401l-19.9480743,19.9475899l8.4198532,7.2543335l6.9589233-6.9579468
	c0.7812424-0.7802734,2.0468597-0.7807617,2.8281021,0.0004883c0.7812424,0.7812424,0.7812424,2.0473404,0,2.8285828
	l-6.795845,6.7948685l40.6090393,37.2575073c7.9052124,7.9081345,7.9052124,20.7742386,0,28.6823807
	c-7.906189,7.9081421-20.7761993,7.9100952-28.6862869,0.0009766c-0.0537109-0.0537109-0.1054611-0.1064453-0.1562424-0.1621094
	l-37.1744995-40.3756409l-6.7987747,6.7977905c-0.7812424,0.7812424-2.047348,0.7812424-2.8285904,0
	c-0.7807541-0.7812424-0.7807541-2.0478287,0.0004883-2.8281021l6.9550247-6.9540405l-7.2826614-8.3876266l-19.8499298,19.8504257
	c0.778801,2.6835709,1.1728401,5.4667511,1.1728401,8.290947C59.4217262,146.672226,46.0937119,160.0002441,29.7115231,160.0002441z
	 M24.7286549,155.5178528c1.6337757,0.3212891,3.2997761,0.4824219,4.9828682,0.4824219
	c14.1766415,0,25.7102375-11.5340881,25.7102375-25.7107239c0-2.8115005-0.4501915-5.5731964-1.3383675-8.2098999
	c-0.2421875-0.7206955-0.0561523-1.5156097,0.4814415-2.0527115l65.4628372-65.4638214
	c0.5458984-0.5473595,1.3564377-0.7285118,2.0839691-0.4706993l0.1113281,0.0395508
	c2.5663834,0.8515549,5.2938995,1.2900276,8.0663376,1.2900276c14.1766357,0,25.7107239-11.533596,25.7107239-25.7102375
	c0-1.6840687-0.1611328-3.3505592-0.4824219-4.9828701l-7.9208221,7.9213219
	c-0.3691406,0.3691368-0.8466797,0.563961-1.3310547,0.5839806l-11.504776,3.1283913
	c-0.6904297,0.1889648-1.4316406-0.0083008-1.9384613-0.5156212l-8.6679001-8.6678963
	c-0.5068359-0.5068321-0.7041016-1.2465725-0.515625-1.9389496l3.1562271-11.6073256
	c0.0429688-0.4584923,0.2294922-0.9013605,0.5556564-1.2275295l7.9227829-7.9227862
	c-1.6259613-0.3183565-3.2968445-0.4809527-4.9843292-0.4809527c-14.1766434,0-25.7097473,11.533596-25.7097473,25.7102375
	c0,2.8110104,0.4501877,5.5727062,1.3378754,8.2089176c0.2421875,0.7197189,0.0566406,1.5180511-0.4804611,2.0551567
	l-65.46138,65.4613724c-0.5346603,0.5351563-1.327137,0.7246094-2.0463676,0.4833984
	c-2.6450005-0.8906174-5.4066963-1.3408127-8.2177067-1.3408127c-14.1766405,0-25.7102375,11.5331116-25.7102375,25.7097549
	c0,1.6835785,0.1616197,3.3495789,0.4819293,4.9823761l7.9218102-7.9208298
	c0.3554659-0.3554688,0.8315363-0.5634766,1.3320198-0.5839844l11.5028343-3.1278992
	c0.6899357-0.1914063,1.4316292,0.0087891,1.9389496,0.5156174l8.6678963,8.6678925
	c0.5073204,0.5068359,0.7040977,1.2470703,0.5156212,1.9384613l-3.1518288,11.5926819
	c-0.0332031,0.4560547-0.2177734,0.9003906-0.5605431,1.2431488L24.7286549,155.5178528z M90.8833847,110.6901016
	L128.1819,151.1985474c6.379837,6.379837,16.7098236,6.3788605,23.0603638,0.0302734
	c6.3456421-6.3485718,6.3456421-16.677597,0-23.0261688l-40.6119766-37.2555542L90.8833847,110.6901016z M80.9342422,99.3122635
	l7.2821732,8.3886032l19.4178085-19.4139023l-8.4198532-7.2548218L80.9342422,99.3122635z M10.806406,4.0015259
	c-0.0776367,0-0.1542959,0.0297847-0.2119131,0.0874014l-6.5067821,6.4975052
	C3.9920087,10.6826229,3.973454,10.832036,4.043766,10.9492226l9.7577324,16.2440071
	c0.0541983,0.0898418,0.1528301,0.1450176,0.2592745,0.1450176l5.5492716,0.0019531
	c0.5317326,0,1.0410061,0.2119122,1.4160042,0.5883751l45.3238449,45.4776535l7.0570755-7.0570679l-45.4478683-45.339962
	c-0.3759747-0.3754845-0.5873985-0.884758-0.5873985-1.4160023v-5.5463419c0-0.1030264-0.0551758-0.2001934-0.1440411-0.2534161
	L10.9616776,4.0444942C10.9133387,4.015686,10.8596277,4.0015259,10.806406,4.0015259z M138.6535034,140.653717
	c-0.5117188,0-1.0234375-0.1953125-1.4140625-0.5859375l-24.6316299-24.6316223c-0.7812424-0.78125-0.7812424-2.0468597,0-2.8281021
	c0.7812424-0.78125,2.0468597-0.78125,2.8281021,0l24.6316376,24.6316299c0.7812347,0.78125,0.7812347,2.0468597,0,2.8280945
	C139.6769257,140.4584045,139.1652069,140.653717,138.6535034,140.653717z M50.2113533,113.7896805
	c-2.2055473,0-3.9999657-1.7939301-3.9999657-3.9999619c0-2.2060394,1.7944183-3.9999695,3.9999657-3.9999695
	s3.9999695,1.7939301,3.9999695,3.9999695C54.2113228,111.9957504,52.4169006,113.7896805,50.2113533,113.7896805z
	 M67.684845,94.3162079c-0.5117188,0-1.0234299-0.1953049-1.4140549-0.5859299
	c-0.7812424-0.7812424-0.7812424-2.0468597,0-2.8281021l24.6311493-24.6311417c0.7812424-0.7812424,2.0468521-0.7812424,2.8281021,0
	c0.7812424,0.7807541,0.7812424,2.0473404,0,2.8281021L69.0988922,93.730278
	C68.7087631,94.120903,68.1965561,94.3162079,67.684845,94.3162079z M109.7894745,54.2115593
	c-2.2060318,0-3.9999619-1.7944183-3.9999619-3.9999657s1.7939301-3.9999657,3.9999619-3.9999657
	c2.2060394,0,3.9999695,1.7944183,3.9999695,3.9999657S111.9955139,54.2115593,109.7894745,54.2115593z"/>
</svg>
