<?xml version="1.0" encoding="utf-8"?>
<!-- Generator: Adobe Illustrator 23.0.0, SVG Export Plug-In . SVG Version: 6.00 Build 0)  -->
<svg version="1.1" id="icon-top" xmlns="http://www.w3.org/2000/svg" xmlns:xlink="http://www.w3.org/1999/xlink" x="0px" y="0px"
	 viewBox="0 0 160 160" style="enable-background:new 0 0 160 160;" xml:space="preserve">
<path d="M140,123c-0.5117188,0-1.0234375-0.1953125-1.4140625-0.5859375L80,63.8286133l-58.5859375,58.5854492
	c-0.7802734,0.78125-2.0478516,0.78125-2.828125,0c-0.78125-0.78125-0.78125-2.046875,0-2.828125l60-60
	c0.7802734-0.78125,2.046875-0.78125,2.828125,0l60,60c0.78125,0.78125,0.78125,2.046875,0,2.828125
	C141.0234375,122.8046875,140.5117188,123,140,123z M158,41H2c-1.1044922,0-2-0.8955078-2-2s0.8955078-2,2-2h156
	c1.1044922,0,2,0.8955078,2,2S159.1044922,41,158,41z"/>
</svg>
