<?xml version="1.0" encoding="utf-8"?>
<!-- Generator: Adobe Illustrator 23.0.0, SVG Export Plug-In . SVG Version: 6.00 Build 0)  -->
<svg version="1.1" id="icon-trilateral" xmlns="http://www.w3.org/2000/svg" xmlns:xlink="http://www.w3.org/1999/xlink" x="0px"
	 y="0px" viewBox="0 0 160 160" style="enable-background:new 0 0 160 160;" xml:space="preserve">
<path d="M80.2128601,124c-6.8213425,0-13.641716-2.5681763-18.8446274-7.709404L4.1610923,59.7658615
	c-4.0790405-4.0310936-5.2629633-9.8260956-3.090404-15.1241722C3.2569172,39.3113594,8.2054691,36,13.9844761,36h132.0310364
	c5.7677765,0,10.7124329,3.3025665,12.9045105,8.6182327c2.1774445,5.2829323,1.0115967,11.0730515-3.0445099,15.1104965
	l-56.7443085,56.4905243C93.9229279,121.4044647,87.0674057,124,80.2128601,124z M13.9844761,40.0027542
	c-4.9309759,0-7.9925756,3.1813889-9.2136021,6.1590233c-1.2107747,2.9522247-1.2688723,7.3277931,2.200387,10.7554474
	l57.2071381,56.5257072c9.026619,8.9182434,23.1399536,8.8908844,32.1328812-0.0615692l56.7443085-56.4905243
	c3.448761-3.4335136,3.3804016-7.8022423,2.1667023-10.7456741c-1.2244415-2.9693298-4.285553-6.1424103-9.2067719-6.1424103
	H13.9844761z"/>
</svg>
