<?xml version="1.0" encoding="utf-8"?>
<!-- Generator: Adobe Illustrator 23.0.0, SVG Export Plug-In . SVG Version: 6.00 Build 0)  -->
<svg version="1.1" id="icon-twitter" xmlns="http://www.w3.org/2000/svg" xmlns:xlink="http://www.w3.org/1999/xlink" x="0px"
	 y="0px" viewBox="0 0 160 160" style="enable-background:new 0 0 160 160;" xml:space="preserve">
<path d="M54.319706,141c-16.7904816,0-33.0583076-4.7235107-47.0454903-13.6596527L0,122.6919098l8.5813465,0.9827194
	c2.1472902,0.2466583,4.306304,0.3558502,7.0006742,0.3558502c11.4325132,0,22.2930374-3.1919022,31.7057495-9.2754288
	c-11.3690147-2.1682281-20.8422966-10.2903137-24.4359303-21.4317398l-0.9871864-3.061264l3.1867428,0.4738159
	c1.6427059,0.2447052,3.0802574,0.382164,4.4494247,0.4250641C19.162466,85.7929993,12.2834196,75.0142441,12.2834196,62.984169
	v-3.7607689l2.9723072,1.6471367c1.8327188,1.0158691,3.7792501,1.8240814,5.7902594,2.4104958
	c-5.4590807-5.8100548-8.5769501-13.5061035-8.5769501-21.6486664c0-5.7076912,1.4644165-11.0946312,4.3517303-16.010685
	l1.4570904-2.4802055l1.8200188,2.2281876C34.342968,42.8076363,55.279541,53.7248306,77.8602829,55.57621
	c-0.2222519-1.58815-0.3341141-3.1436386-0.3341141-4.6484337c0-17.4920807,14.3261795-31.7230415,31.9343491-31.7230415
	c8.4455566,0,16.5970535,3.3449631,22.5436172,9.213028c6.0530548-1.2751999,12.0152588-3.5896683,17.3043518-6.7245369
	L153.8531647,19l-1.6177979,5.0213451c-1.5054474,4.6708584-4.0874786,8.894228-7.5067291,12.3717823
	c2.9727936-0.7619057,5.9446259-1.7767982,8.891037-3.0373764L160,30.6249905l-3.945816,5.7003765
	c-4.0532837,5.8553925-8.9623566,10.9649696-14.6031342,15.2010117c0.0371246,0.9817467,0.0371246,1.9517975,0.0371246,2.8989372
	c0,21.0159378-8.1808167,42.2838974-22.4439774,58.3496704C107.6131516,125.6508026,87.1044769,141,54.319706,141z
	 M16.5032654,128.0169373c11.625946,5.9012146,24.5492554,8.9897766,37.8164406,8.9897766
	c52.0586052,0,83.1669617-41.9880142,83.1669617-82.581398c0-1.2888489,0-2.5065308-0.0869446-3.7237206l-0.0791321-1.1055641
	l0.8987732-0.6517372c3.8061218-2.7595215,7.2693329-5.9353371,10.3495941-9.4850311
	c-3.7230835,1.1440697-7.4656982,1.9201088-11.1848602,2.3178787l-9.1235504,0.9754105l7.8887024-4.6771965
	c4.2437897-2.5162773,7.7001648-6.0547638,10.0653076-10.2352352c-4.6140442,2.1594563-9.5426483,3.7646675-14.5074005,4.709856
	l-1.0795135,0.2057076l-0.7522278-0.79846c-5.3271942-5.648222-12.5769882-8.759203-20.4148941-8.759203
	c-15.4022598,0-27.9323578,12.4395409-27.9323578,27.7297554c0,2.0351524,0.2344666,4.1887589,0.6985092,6.4013481
	l0.5324249,2.5377274l-2.5947266-0.1350288c-23.6470604-1.2264519-45.7891579-11.9472008-61.2217102-29.5396996
	c-1.6417294,3.5852814-2.4721203,7.421608-2.4721203,11.4402428c0,9.2988205,4.6540909,17.9317703,12.4499874,23.093502
	l5.9294701,3.9255295l-7.1105785-0.2666397c-3.8735237-0.1452637-7.723114-1.0041733-11.3016052-2.5070114
	c1.2626801,11.9121017,10.2284489,21.9040909,22.2451649,24.3228836l8.5378761,1.7187881l-8.4338303,2.1721268
	c-2.7730141,0.7146225-5.5914574,1.0763168-8.3771687,1.0763168c-0.8479748,0-1.7047424-0.0321732-2.5966778-0.098465
	c4.3922729,9.6205444,14.063385,16.0316467,24.9732399,16.2607498l5.6241837,0.1189423l-4.4357491,3.4522018
	C43.185154,123.2983093,30.2462158,127.8239059,16.5032654,128.0169373z"/>
</svg>
