<?xml version="1.0" encoding="utf-8"?>
<!-- Generator: Adobe Illustrator 23.0.0, SVG Export Plug-In . SVG Version: 6.00 Build 0)  -->
<svg version="1.1" id="icon-unlock" xmlns="http://www.w3.org/2000/svg" xmlns:xlink="http://www.w3.org/1999/xlink" x="0px"
	 y="0px" viewBox="0 0 160 160" style="enable-background:new 0 0 160 160;" xml:space="preserve">
<path d="M142.0162506,160H17.9837551c-1.1047802,0-2.0005226-0.8957367-2.0005226-2.0005188v-88.943222
	c0-1.1047821,0.8957424-2.0005264,2.0005226-2.0005264h10.0099468
	c-5.8916798-17.9856682-1.1038036-38.5569763,12.3460083-52.0062981
	c19.3112106-19.8484612,51.3928566-20.0995026,71.4957733-0.5396929l12.5081558,12.5081596
	c0.781456,0.7809658,0.781456,2.0478992,0,2.8288651c-0.7814484,0.781456-2.0474091,0.781456-2.8288651,0l-12.4886169-12.4886227
	C90.5242386-0.6426632,60.9808578-0.4277632,43.1881104,17.8587646
	C30.462122,30.5852432,26.1455612,50.1919403,32.2243042,67.0557327h109.7919464
	c1.1047821,0,2.0005188,0.8957443,2.0005188,2.0005264v88.943222C144.0167694,159.1042633,143.1210327,160,142.0162506,160z
	 M19.9842796,155.9989471h120.0314331V71.056778H19.9842796V155.9989471z M86.2418671,137.6337891H73.7581329
	c-1.1047821,0-2.0005264-0.8957367-2.0005264-2.0005188v-18.6953278c-4.3121643-3.0652618-6.7615356-7.5693665-6.7615356-12.5120697
	c0-8.4133377,6.5905914-15.0039291,15.0039291-15.0039291s15.0039291,6.5905914,15.0039291,15.0039291
	c0,5.8687286-3.3299713,10.1999359-6.7615356,12.5472336v18.6601639
	C88.2423935,136.7380524,87.3466492,137.6337891,86.2418671,137.6337891z M75.7586517,133.6327362h8.4826965v-17.7644119
	c0-0.7179642,0.3848648-1.380249,1.0080719-1.7367859c2.7810059-1.5892792,5.7534637-4.9739609,5.7534637-9.7056656
	c0-6.1695862-4.8332977-11.0028839-11.0028839-11.0028839c-6.1700745,0-11.0028839,4.8332977-11.0028839,11.0028839
	c0,3.8818741,2.1216507,7.4335861,5.8213501,9.7457199c0.5846252,0.3663025,0.9401855,1.0070953,0.9401855,1.6967316V133.6327362z"
	/>
</svg>
