<?xml version="1.0" encoding="utf-8"?>
<!-- Generator: Adobe Illustrator 23.0.0, SVG Export Plug-In . SVG Version: 6.00 Build 0)  -->
<svg version="1.1" id="icon-upload" xmlns="http://www.w3.org/2000/svg" xmlns:xlink="http://www.w3.org/1999/xlink" x="0px"
	 y="0px" viewBox="0 0 160 160" style="enable-background:new 0 0 160 160;" xml:space="preserve">
<path d="M150.2001953,160H9.7998047c-1.1044922,0-2-0.8955078-2-2v-31.7197266c0-1.1044922,0.8955078-2,2-2s2,0.8955078,2,2V156
	h136.4003906v-29.7197266c0-1.1044922,0.8955078-2,2-2s2,0.8955078,2,2V158
	C152.2001953,159.1044922,151.3046875,160,150.2001953,160z M80,128.2802734c-1.1044922,0-2-0.8955078-2-2V7.0883789
	L41.1142578,43.9741211c-0.7802734,0.78125-2.046875,0.78125-2.828125,0c-0.78125-0.7807617-0.78125-2.0473633,0-2.828125
	L78.8457031,0.5859375C79.2207031,0.2104492,79.7294922,0,80.2597656,0c0.0019531,0,0.0043945,0,0.0063477,0
	c0.5327148,0.0019531,1.0424805,0.2158203,1.4165039,0.5947266l40.0400391,40.5600586
	c0.7763672,0.7861328,0.7685547,2.0527344-0.0175781,2.8286133s-2.0537109,0.7670898-2.828125-0.0180664L82,6.6098633v119.6704102
	C82,127.3847656,81.1044922,128.2802734,80,128.2802734z"/>
</svg>
