<?xml version="1.0" encoding="utf-8"?>
<!-- Generator: Adobe Illustrator 23.0.0, SVG Export Plug-In . SVG Version: 6.00 Build 0)  -->
<svg version="1.1" id="icon-user" xmlns="http://www.w3.org/2000/svg" xmlns:xlink="http://www.w3.org/1999/xlink" x="0px" y="0px"
	 viewBox="0 0 160 160" style="enable-background:new 0 0 160 160;" xml:space="preserve">
<path d="M133.4287109,160H26.5712891C17.434082,160,10,153.5068359,10,145.5253906v-6.6523438C10,119.2460938,28.0839844,105,53,105
	c4.5771484,0,7.855957,2.8154297,11.3266602,5.7958984C68.4516602,114.3378906,72.7167969,118,80,118
	c7.2890625,0,11.5625-3.6669922,15.6953125-7.2128906C99.1640625,107.8105469,102.4394531,105,107,105
	c24.9160156,0,43,14.2460938,43,33.8730469v6.6523438C150,153.5068359,142.5664063,160,133.4287109,160z M53,109
	c-22.5981445,0-39,12.5634766-39,29.8730469v6.6523438C14,151.3007813,19.6396484,156,26.5712891,156h106.8574219
	C140.3603516,156,146,151.3007813,146,145.5253906v-6.6523438C146,121.5634766,129.5976563,109,107,109
	c-3.0791016,0-5.5595703,2.1279297-8.7001953,4.8222656C94.0546875,117.4658203,88.7705078,122,80,122
	c-8.7646484,0-14.0405273-4.5302734-18.2792969-8.1699219C58.578125,111.1318359,56.0957031,109,53,109z M80,91.4287109
	c-25.2070313,0-45.7143555-20.5073242-45.7143555-45.7143555S54.7929688,0,80,0s45.7138672,20.5073242,45.7138672,45.7143555
	S105.2070313,91.4287109,80,91.4287109z M80,4C56.9985352,4,38.2856445,22.7128906,38.2856445,45.7143555
	S56.9985352,87.4287109,80,87.4287109c23.0009766,0,41.7138672-18.7128906,41.7138672-41.7143555S103.0009766,4,80,4z"/>
</svg>
