<?xml version="1.0" encoding="utf-8"?>
<!-- Generator: Adobe Illustrator 23.0.0, SVG Export Plug-In . SVG Version: 6.00 Build 0)  -->
<svg version="1.1" id="icon-video" xmlns="http://www.w3.org/2000/svg" xmlns:xlink="http://www.w3.org/1999/xlink" x="0px" y="0px"
	 viewBox="0 0 160 160" style="enable-background:new 0 0 160 160;" xml:space="preserve">
<path d="M131.1875,160H28.8125c-5.1347656,0-9.3125-4.1777344-9.3125-9.3125V9.3125C19.5,4.1777344,23.6777344,0,28.8125,0
	h72.5458984c2.4990234,0,4.8408203,0.965332,6.59375,2.71875l29.8300781,29.8598633
	C139.5087891,34.3056641,140.5,36.6982422,140.5,39.1416016V150.6875C140.5,155.8222656,136.3222656,160,131.1875,160z M28.8125,4
	C25.8833008,4,23.5,6.3833008,23.5,9.3125v141.375c0,2.9296875,2.3833008,5.3125,5.3125,5.3125h102.375
	c2.9296875,0,5.3125-2.3828125,5.3125-5.3125V52.375H97.3251953c-5.0732422,0-9.2001953-4.1269531-9.2001953-9.2001953V4H28.8125z
	 M92.125,4v39.1748047c0,2.8671875,2.3330078,5.2001953,5.2001953,5.2001953H136.5v-9.2333984
	c0-1.390625-0.5634766-2.7519531-1.546875-3.7353516L105.1230469,5.5463867C104.1259766,4.5493164,102.7890625,4,101.3583984,4
	H92.125z M111.6201172,130.3847656c-2.3964844,0-4.7177734-0.9433594-6.5175781-2.7441406L91.75,114.2939453V121.0625
	c0,5.1347656-4.1777344,9.3125-9.3125,9.3125h-34.125c-5.1347656,0-9.3125-4.1777344-9.3125-9.3125v-34.125
	c0-5.1347656,4.1777344-9.3125,9.3125-9.3125h34.125c5.1347656,0,9.3125,4.1777344,9.3125,9.3125v6.7685547l13.3525391-13.3491211
	c2.7099609-2.7104492,6.6005859-3.4775391,10.1572266-2.0063477C118.8007813,79.8173828,121,83.109375,121,86.9423828v34.1132813
	c0,3.8339844-2.2001953,7.1269531-5.7421875,8.59375C114.0644531,130.1435547,112.8330078,130.3847656,111.6201172,130.3847656z
	 M48.3125,81.625C45.3833008,81.625,43,84.0078125,43,86.9375v34.125c0,2.9296875,2.3833008,5.3125,5.3125,5.3125h34.125
	c2.9296875,0,5.3125-2.3828125,5.3125-5.3125v-16.4228516L107.9306641,124.8125
	c1.8466797,1.8466797,4.2041016,1.7988281,5.796875,1.1416016C115.3095703,125.2988281,117,123.6679688,117,121.0556641V86.9423828
	c0-2.2177734-1.2226563-4.0478516-3.2714844-4.8964844c-1.59375-0.6601563-3.9521484-0.7050781-5.7978516,1.1396484
	L87.75,103.3603516V86.9375c0-2.9296875-2.3828125-5.3125-5.3125-5.3125H48.3125z"/>
</svg>
