<?xml version="1.0" encoding="utf-8"?>
<!-- Generator: Adobe Illustrator 23.0.0, SVG Export Plug-In . SVG Version: 6.00 Build 0)  -->
<svg version="1.1" id="icon-wechat" xmlns="http://www.w3.org/2000/svg" xmlns:xlink="http://www.w3.org/1999/xlink" x="0px"
	 y="0px" viewBox="0 0 160 160" style="enable-background:new 0 0 160 160;" xml:space="preserve">
<path d="M146.171875,144l-18.7695313-9.8662872c-5.3115234,1.2741699-10.7910156,2.5327301-16.3037109,2.5327301
	c-20.84375,0-39.1694336-10.6669159-46.09375-26.6824188c-4.5854492-0.1464539-19.8051758-0.7420425-26.9150391-2.3647766
	L15.105957,118.6786575l6.5947266-19.0344543C7.2988281,89.5777664,0,77.2812805,0,63.0754929
	C0,37.118042,25.6650391,16,57.2114258,16c27.3110352,0,53.5756836,17.8794022,58.902832,39.9757729
	C140.4667969,58.1716423,160,75.9294891,160,96.2161484c0,11.009613-6.7363281,22.0739136-19.0039063,31.2743073L146.171875,144z
	 M127.9316406,129.8942871l11.5253906,6.0584259l-3.1367188-10.0068893l1.1708984-0.8435898
	C149.4267578,116.5081711,156,106.2493896,156,96.2161484c0-18.6780777-18.7607422-34.9962578-41.8212891-36.3753891
	l-0.1074219-0.0063477c-16.4707031-0.9705162-32.71875,5.7903976-41.4140625,17.234993
	c-4.6577148,6.1296921-9.2021484,16.355278-4.4179688,30.26474c5.9189453,15.154335,23.1367188,25.3330612,42.859375,25.3330612
	c5.2929688,0,10.7871094-1.3200684,16.1005859-2.597168L127.9316406,129.8942871z M57.2114258,19.9992371
	C27.8706055,19.9992371,4,39.3231888,4,63.0754929c0,13.2040253,7.1342773,24.6832809,21.2045898,34.119957l1.2802734,0.8592148
	l-4.453125,12.8539886l15.6298828-7.5210266l0.7104492,0.1845398c5.7016602,1.4870224,19.3574219,2.1411896,25.2529297,2.360878
	c-3.0541992-11.2322388-1.019043-22.2467346,5.847168-31.2830963c8.8847656-11.6930847,24.8930664-18.9060631,41.4926758-18.9060631
	c0.3203125,0,0.6396484,0.0029297,0.9589844,0.008297C106.3808594,35.8878098,82.2929688,19.9992371,57.2114258,19.9992371z
	 M126,92.9853134c-4.4111328,0-8-3.5881805-8-7.9984741c0-4.4102859,3.5888672-7.9984741,8-7.9984741s8,3.5881882,8,7.9984741
	C134,89.3971329,130.4111328,92.9853134,126,92.9853134z M126,80.9876022c-2.2060547,0-4,1.793602-4,3.9992371
	s1.7939453,3.9992371,4,3.9992371s4-1.793602,4-3.9992371S128.2060547,80.9876022,126,80.9876022z M97,92.9853134
	c-4.4111328,0-8-3.5881805-8-7.9984741c0-4.4102859,3.5888672-7.9984741,8-7.9984741s8,3.5881882,8,7.9984741
	C105,89.3971329,101.4111328,92.9853134,97,92.9853134z M97,80.9876022c-2.2060547,0-4,1.793602-4,3.9992371
	s1.7939453,3.9992371,4,3.9992371s4-1.793602,4-3.9992371S99.2060547,80.9876022,97,80.9876022z M77,55.492466
	c-4.6870117,0-8.5-3.8122597-8.5-8.4983788s3.8129883-8.4983788,8.5-8.4983788c4.6865234,0,8.5,3.8122635,8.5,8.4983788
	S81.6865234,55.492466,77,55.492466z M77,42.4949455c-2.4814453,0-4.5,2.0181694-4.5,4.4991417s2.0185547,4.4991417,4.5,4.4991417
	s4.5-2.0181694,4.5-4.4991417S79.4814453,42.4949455,77,42.4949455z M39,55.492466c-4.6870117,0-8.5-3.8122597-8.5-8.4983788
	s3.8129883-8.4983788,8.5-8.4983788s8.5,3.8122635,8.5,8.4983788S43.6870117,55.492466,39,55.492466z M39,42.4949455
	c-2.4814453,0-4.5,2.0181694-4.5,4.4991417s2.0185547,4.4991417,4.5,4.4991417s4.5-2.0181694,4.5-4.4991417
	S41.4814453,42.4949455,39,42.4949455z"/>
</svg>
