<?xml version="1.0" encoding="utf-8"?>
<!-- Generator: Adobe Illustrator 23.0.0, SVG Export Plug-In . SVG Version: 6.00 Build 0)  -->
<svg version="1.1" id="icon-weibo" xmlns="http://www.w3.org/2000/svg" xmlns:xlink="http://www.w3.org/1999/xlink" x="0px" y="0px"
	 viewBox="0 0 160 160" style="enable-background:new 0 0 160 160;" xml:space="preserve">
<path d="M67.4502945,145C34.2945328,145,0,128.7794495,0,101.6344986c0-13.7380142,8.4694977-29.750061,23.8487854-45.0862961
	C44.5976906,35.8698959,68.3239059,27.1218891,77.860878,36.6340942c4.1951981,4.1799011,4.9989777,11.0313263,2.3327255,19.828167
	c0.2583237-0.0678749,0.5649948-0.1665154,0.9102402-0.3061676l0.0507813-0.0205116
	c17.4380646-7.2699013,31.6785812-6.9217415,37.1771164,0.9058075l0,0
	c3.0041733,4.277565,3.0608139,10.1245422,0.1699371,17.3778458c-0.1601715,0.4023666-0.2197495,0.6577454-0.2412338,0.8013077
	c0.3154602,0.1640701,0.9854355,0.3657455,1.4962234,0.5190735c4.7982788,1.4815216,20.3523865,7.501358,20.3523865,23.1652451
	c0,10.5991821-7.5797729,22.1915665-20.276207,31.0084229C105.8247757,139.6423035,87.2215729,145,67.4502945,145z
	 M67.1983185,36.7434769c-10.329525,0-26.4691353,8.6288605-40.5255508,22.6373901
	C12.0523338,73.9612045,4.0003533,88.9668579,4.0003533,101.6344986c0,24.6409073,32.2606621,39.365303,63.4499397,39.365303
	c42.5389099,0,68.6584091-24.517868,68.6584091-42.0949402c0-12.9254608-13.3957138-18.0658646-17.5005722-19.3335037
	c-1.5870514-0.476593-3.2239151-0.9688034-3.9993744-2.5763092c-0.5312958-1.1025925-0.4736786-2.4302979,0.1777496-4.0587997
	c2.3586044-5.9177856,2.4504089-10.4932137,0.2715073-13.5959129l0,0c-4.2953033-6.117012-17.0141983-5.919735-32.4022751,0.5034447
	L81.658577,60.259819l-0.0566406-0.038578c-1.5963364,0.4868431-3.4314575,0.6489601-4.6634979-0.4975853
	c-0.7002563-0.6513977-1.3843994-1.8931618-0.6694946-4.10812c2.2882843-7.3328934,1.8526993-13.074398-1.2320404-16.148777
	C73.1812668,37.6165695,70.4827881,36.7434769,67.1983185,36.7434769z M118.2487259,75.368988h0.0097656H118.2487259z
	 M60.5698013,136.1216125c-23.7467232,0-43.1996155-11.7955246-44.822319-28.1498795
	c-0.8799601-8.8686142,3.4841957-17.6571503,12.2891712-24.7463837
	c8.5593491-6.8919525,20.3631287-11.3872986,33.2363358-12.6583633
	c26.8861656-2.6490631,50.2085381,9.8178864,51.9879875,27.7880478l0,0
	c0.878006,8.873497-3.4856567,17.6649628-12.2872162,24.7551727c-8.5583725,6.8939133-20.3631287,11.3892593-33.2387772,12.6578751
	C65.3148499,136.0063782,62.9191322,136.1216125,60.5698013,136.1216125z M68.5490265,74.2073135
	c-2.2565536,0-4.553627,0.1108398-6.8834229,0.3403473c-12.1075172,1.1953735-23.1597595,5.3835754-31.1204262,11.7930832
	c-7.7174778,6.2141876-11.5591259,13.7565613-10.8168716,21.2364426c1.565567,15.7781525,22.9199905,26.632225,47.6145592,24.210228
	c12.1094666-1.1934204,23.1622009-5.3811417,31.1209106-11.7926025
	c7.7155228-6.2151642,11.5566864-13.7604675,10.8163834-21.2452316
	C107.8649979,84.460762,90.209137,74.2073135,68.5490265,74.2073135z M59.1580582,129.8087921
	c-2.9924545,0-6.0073662-0.4463196-8.9348717-1.3877716l-0.0004883-0.0009766
	c-6.6592789-2.1436615-11.6899986-6.5442734-14.1643372-12.3922348c-2.3673973-5.5940323-2.1017494-11.8531418,0.7486-17.6259003
	c5.7856674-11.6978683,20.640007-18.1855011,33.8130493-14.7654037c6.9356689,1.7852478,12.5240555,6.1487503,15.3289871,11.9683838
	c2.6418381,5.4827042,2.6447678,11.747673,0.0078125,17.6395798
	C81.4446945,123.4197922,70.4725342,129.8087921,59.1580582,129.8087921z M51.4479027,124.612236
	c11.90242,3.8292923,26.0335503-2.1231537,30.8552666-12.9948044c2.1496048-4.8049316,2.1632767-9.8725815,0.0419922-14.276123
	c-2.2921906-4.7561035-6.9307861-8.340271-12.7262192-9.8325348c-11.4096985-2.9610901-24.2492142,2.6036453-29.2252388,12.6656876
	c-2.3268661,4.7111816-2.5583305,9.7885895-0.6514244,14.2946777c2.0143394,4.7590332,6.1714439,8.3617554,11.7061119,10.1440735
	L51.4479027,124.612236z M52.303936,120.2936554c-1.4722977,0-2.9299469-0.2890778-4.2738152-0.901413
	c-2.3727684-1.0772018-4.0706711-2.9962463-4.7787437-5.4045715c-0.7456703-2.5343094-0.2793198-5.3742981,1.2798996-7.7923965
	c2.9870796-4.6662521,9.1770782-6.7200699,14.0891342-4.6672287l0.0097656,0.0048828
	c2.4147644,1.0244675,4.1673622,2.905426,4.9345207,5.2961731c0.8115921,2.5294266,0.4023781,5.4104309-1.1221695,7.9056778
	C60.2387199,118.2378845,56.2227402,120.2936554,52.303936,120.2936554z M54.5658531,104.7323151
	c-2.5554008,0-5.2187195,1.3594437-6.6690445,3.6251831c-0.9453964,1.4658966-1.2310677,3.0626526-0.8076897,4.502182
	c0.3750343,1.2744827,1.2969894,2.3009033,2.5969086,2.8907776c3.1135559,1.4170609,7.3986053-0.0127029,9.3567848-3.1232071
	c0.9170723-1.502037,1.175396-3.1349258,0.7129555-4.5754318c-0.4057999-1.2647171-1.3580322-2.2706223-2.6823692-2.8341293
	C56.2842674,104.8885727,55.4311638,104.7323151,54.5658531,104.7323151z M68.7043076,104.0398941
	c-0.6675339,0-1.3340988-0.1230545-1.9645233-0.3828354c-1.238884-0.5068588-2.1544876-1.46492-2.5754242-2.6954498
	c-0.4399834-1.2871704-0.2734642-2.7511139,0.4565811-4.0168076c1.4107666-2.3604736,4.3841782-3.4425583,6.7969894-2.5050125
	c1.260849,0.467804,2.2067337,1.4014435,2.6652756,2.6329498c0.4829483,1.2959671,0.3471985,2.7804184-0.373085,4.0714951
	C72.6416702,102.9705048,70.6698151,104.0398941,68.7043076,104.0398941z M69.5598526,98.095253
	c-0.5493622,0-1.1724625,0.3447418-1.4898758,0.8750458c-0.1347809,0.2343826-0.1855621,0.5049057-0.1201248,0.6973038
	c0.027832,0.0810547,0.0898514,0.1992264,0.3081284,0.2890701c0.6382446,0.261734,1.581192-0.1191406,1.9791794-0.7969131
	c0.1274567-0.2294998,0.1704254-0.4941635,0.0971756-0.6904678c-0.0307617-0.0830078-0.096199-0.2011795-0.311058-0.2793045
	l-0.0532303-0.0205154C69.8430862,98.1186905,69.7039108,98.095253,69.5598526,98.095253z M156.0128021,72.8693542
	c-1.1045837,0-2.0001831-0.8828583-2.0001831-1.9874115v-0.3154449l0.0966949-0.3252106
	c4.298233-13.2912102,1.1495209-27.9711609-8.2185059-38.3105583
	c-9.3650818-10.3564873-23.7013016-14.9831886-37.4124756-12.0772781l-0.4150772,0.0434589
	c-1.1045914,0-2.0021286-0.8955536-2.0021286-2.000103c0-0.9883308,0.7139282-1.8086853,1.6554184-1.9708033
	c15.077507-3.1705732,30.8396378,1.9297857,41.140358,13.3205061c10.3114471,11.3809547,13.7873383,27.5351028,9.0769653,42.1696434
	C157.6926422,72.2521286,156.9240112,72.8693542,156.0128021,72.8693542z M135.8371887,66.3651123
	c-0.2041168,0-0.4121399-0.0317383-0.6162567-0.0981522c-1.0508728-0.3403473-1.6271057-1.468338-1.2862549-2.5191689
	c1.9855347-6.1282463,0.5381317-12.8956833-3.7776794-17.6605759c-4.3158035-4.7717285-10.9296722-6.9002533-17.2524948-5.5554581
	c-1.0870132,0.2299919-2.1437454-0.4609642-2.3722763-1.5410957c-0.2295151-1.0801353,0.4599991-2.1422005,1.5401688-2.3721924
	c7.7194366-1.6387558,15.7836227,0.959034,21.0506973,6.7845268c5.2738953,5.8220749,7.0435791,14.0910568,4.6166077,21.5782585
	C137.4662476,65.8269958,136.681015,66.3651123,135.8371887,66.3651123z"/>
</svg>
