<?xml version="1.0" encoding="utf-8"?>
<!-- Generator: Adobe Illustrator 23.0.0, SVG Export Plug-In . SVG Version: 6.00 Build 0)  -->
<svg version="1.1" id="icon-windows" xmlns="http://www.w3.org/2000/svg" xmlns:xlink="http://www.w3.org/1999/xlink" x="0px"
	 y="0px" viewBox="0 0 160 160" style="enable-background:new 0 0 160 160;" xml:space="preserve">
<path d="M159.9833984,160.0002441L72,148.7874146V85.9796524h88L159.9833984,160.0002441z M76,145.2778778l79.9853516,10.1928558
	L156,89.9660873H76V145.2778778z M60,147.2584381l-59.9892578-7.6458588l-0.0112305-53.6329269H60V147.2584381z
	 M4.0097656,136.1030426L56,142.7289429V89.9660873H4.0004883L4.0097656,136.1030426z M160,74.0203476H72V11.2125797
	l87.9833984-11.2123356L160,74.0203476z M76,70.0339127h80L155.9853516,4.52878L76,14.7221222V70.0339127z M60,74.0203476
	H-0.0004883l0.0112305-53.633419L60,12.7420435V74.0203476z M4.0004883,70.0339127H56V17.2705803L4.0097656,23.896471
	L4.0004883,70.0339127z"/>
</svg>
