<?xml version="1.0" encoding="utf-8"?>
<!-- Generator: Adobe Illustrator 23.0.0, SVG Export Plug-In . SVG Version: 6.00 Build 0)  -->
<svg version="1.1" id="icon-wordpress" xmlns="http://www.w3.org/2000/svg" xmlns:xlink="http://www.w3.org/1999/xlink" x="0px"
	 y="0px" viewBox="0 0 160 160" style="enable-background:new 0 0 160 160;" xml:space="preserve">
<path d="M80,160c-44.1123047,0-80-35.8876953-80-80S35.8876953,0,80,0s80,35.8876953,80,80S124.1123047,160,80,160z M80,4
	C38.0932617,4,4,38.0932617,4,80c0,41.90625,34.0932617,76,76,76c41.90625,0,76-34.09375,76-76C156,38.0932617,121.90625,4,80,4z
	 M80,148.5c-6.5,0-13.0083008-0.9423828-19.34375-2.7998047l-2.0097656-0.5888672l22.4541016-65.2856445l22.3720703,61.3012695
	c0.0605469,0.1484375,0.1552734,0.3349609,0.2539063,0.4824219l1.4267578,2.1396484l-2.4248047,0.8554688
	C95.4052734,147.1894531,87.7578125,148.5,80,148.5z M63.8017578,142.4199219
	c11.7905273,3.0546875,24.1142578,2.7109375,35.5556641-0.9052734L81.2119141,91.7988281L63.8017578,142.4199219z
	 M54.5727539,143.765625l-4.4448242-2.1533203C26.6811523,130.2519531,11.53125,106.0683594,11.53125,80
	c0-9.6708984,1.9926758-19.0498047,5.9228516-27.8759766l2.0107422-4.5151367L54.5727539,143.765625z M19.1977539,58.5405273
	C16.7626953,65.4262695,15.53125,72.6225586,15.53125,80c0,22.8144531,12.3261719,44.0986328,31.7924805,55.5751953
	L19.1977539,58.5405273z M109.7519531,141.9140625l22.0771484-63.8178711
	C135.21875,69.6435547,136.78125,62.3134766,136.78125,54.9375c0-2.2919922-0.1376953-4.4448242-0.4199219-6.581543
	L134.9570313,37.75l5.140625,9.3828125C145.5742188,57.1289063,148.46875,68.4941406,148.46875,80
	c0,24.2685547-13.0488281,46.9511719-34.0556641,59.1962891L109.7519531,141.9140625z M140.6875,58.1806641
	c-0.3945313,6.815918-2.046875,13.6748047-5.1123047,21.3144531l-18.3886719,53.1621094
	C134.1425781,120.6386719,144.46875,100.9453125,144.46875,80C144.46875,72.5361328,143.1767578,65.1376953,140.6875,58.1806641z
	 M63.5073242,127.1074219L36.5478516,46.9589844l2.6240234-0.1435547c3.8916016-0.2128906,7.4433594-0.6113281,7.4785156-0.6152344
	c0.5039063-0.0576172,0.7382813-0.3383789,0.6948242-0.8339844c-0.0605469-0.6948242-0.5849609-0.659668-0.7861328-0.6513672
	C46.1499023,44.7475586,35.6547852,45.5625,28.71875,45.5625c-1.293457,0-2.8017578-0.0332031-4.3613281-0.0952148
	l-3.5390625-0.1416016l1.9492188-2.9575195C35.5083008,23.0395508,56.9038086,11.5,80,11.5
	c17.1552734,0,33.5830078,6.3901367,46.2568359,17.9936523l4.4384766,4.0639648l-5.9882813-0.5986328
	c-0.2949219-0.0297852-0.4853516-0.0527344-0.6757813-0.0527344c-5.6552734,0-9.15625,5.0932617-9.15625,9.8125
	c0,4.5024414,2.5498047,8.6083984,5.5019531,13.362793l0.7314453,1.1806641
	C123.9169922,62.1831055,126.875,68.0869141,126.875,76.65625c0,5.515625-1.8457031,11.5146484-4.4003906,19.8183594
	l-0.6875,2.2353516l-8.4257813,28.1787109L86.4853516,46.9589844l2.6240234-0.1435547
	c3.8916016-0.2128906,7.4433594-0.6113281,7.4785156-0.6152344c0.5039063-0.0576172,0.7382813-0.3383789,0.6943359-0.8339844
	c-0.0605469-0.6972656-0.5908203-0.6601563-0.7861328-0.6513672C96.0878906,44.7475586,85.5917969,45.5625,78.65625,45.5625
	c-6.5327148,0-17.2026367-0.8149414-17.6533203-0.8496094c-0.3579102-0.0249023-0.4907227,0.1074219-0.5849609,0.2509766
	c-0.1772461,0.2675781-0.2099609,0.6894531-0.0751953,0.9604492c0.0424805,0.0844727,0.1210938,0.2421875,0.5288086,0.2670898
	l0.1171875,0.0102539c0.0332031,0.0039063,3.3623047,0.4023438,6.8515625,0.6147461l1.3085938,0.0795898l11.0317383,30.2626953
	L63.5073242,127.1074219z M42.0058594,50.6396484l21.4868164,63.8779297l12.4516602-37.3012695l-9.6586914-26.4956055
	c-2.8735352-0.2094727-5.3193359-0.4936523-5.7211914-0.5410156c-1.6953125-0.1235352-3.078125-1.0209961-3.8007813-2.4702148
	c-0.7729492-1.5488281-0.6474609-3.4936523,0.3193359-4.9536133c0.925293-1.3994141,2.4526367-2.144043,4.1958008-2.0332031
	C61.418457,40.7329102,72.277832,41.5625,78.65625,41.5625c6.78125,0,17.4560547-0.8291016,17.5625-0.8374023
	c3.0595703-0.1953125,4.8505859,2.0185547,5.0488281,4.2929688c0.2304688,2.6386719-1.5869141,4.8554688-4.2285156,5.1567383
	c-0.1171875,0.0131836-2.2685547,0.2548828-5.0957031,0.4648438l21.1953125,63.0341797l5.5126953-18.3759766
	C121.1035156,87.328125,122.875,81.5703125,122.875,76.65625c0-7.590332-2.6875-12.9370117-5.2060547-17.3530273
	l-0.6904297-1.1113281C113.8398438,53.1367188,110.875,48.3618164,110.875,42.71875
	c0-6.1933594,3.9033203-11.4477539,9.2617188-13.1948242C108.7392578,20.4506836,94.6503906,15.5,80,15.5
	c-20.5209961,0-39.6171875,9.6762695-51.7861328,26.0610352c0.171875,0.0009766,0.340332,0.0014648,0.5048828,0.0014648
	c6.7807617,0,17.4555664-0.8291016,17.5625-0.8374023c3.0805664-0.1982422,4.8500977,2.019043,5.0488281,4.2929688
	c0.2304688,2.6386719-1.5874023,4.8554688-4.2285156,5.1567383C46.9848633,50.1879883,44.8330078,50.4296875,42.0058594,50.6396484z
	"/>
</svg>
