<?xml version="1.0" encoding="utf-8"?>
<!-- Generator: Adobe Illustrator 23.0.0, SVG Export Plug-In . SVG Version: 6.00 Build 0)  -->
<svg version="1.1" id="icon-youtube" xmlns="http://www.w3.org/2000/svg" xmlns:xlink="http://www.w3.org/1999/xlink" x="0px"
	 y="0px" viewBox="0 0 160 160" style="enable-background:new 0 0 160 160;" xml:space="preserve">
<path d="M80,137c-2.0029297,0-49.1889648-0.0380859-61.4702148-3.359375
	c-7.5522461-2.0371094-13.2363281-7.6884766-15.2036133-15.1181641C0.0375977,106.1347656,0,81.1679688,0,80.1113281
	s0.0375977-26.0239258,3.3266602-38.4130859c1.9765625-7.4638672,7.8022461-13.3417969,15.2041016-15.3393555
	C30.8110352,23.0380859,77.9970703,23,80,23s49.1894531,0.0380859,61.4707031,3.359375
	c7.3994141,1.996582,13.2255859,7.8745117,15.2021484,15.3388672l0,0C159.9619141,54.0874023,160,79.0546875,160,80.1113281
	s-0.0380859,26.0234375-3.3271484,38.4121094c-1.9658203,7.4287109-7.6503906,13.0800781-15.2041016,15.1171875
	C129.1894531,136.9619141,82.0029297,137,80,137z M80,27c-0.4853516,0-48.6542969,0.0371094-60.4262695,3.2207031
	c-6.0253906,1.6259766-10.769043,6.4165039-12.3803711,12.5024414C4.0366211,54.6142578,4,79.8579102,4,80.1113281
	s0.0375977,25.5019531,3.1928711,37.3867188c1.5966797,6.0302734,6.2246094,10.6201172,12.3798828,12.28125
	C31.3457031,132.9628906,79.5146484,133,80,133s48.6542969-0.0371094,60.4257813-3.2207031
	c6.1572266-1.6611328,10.7851563-6.2509766,12.3808594-12.2802734C155.9619141,105.6132813,156,80.3647461,156,80.1113281
	s-0.0380859-25.5019531-3.1923828-37.3867188c-0.0009766-0.0004883-0.0009766-0.0009766-0.0009766-0.0014648
	c-1.6113281-6.0859375-6.3544922-10.8764648-12.3798828-12.5019531C128.6542969,27.0371094,80.4853516,27,80,27z
	 M64.0454102,105.2617188c-0.347168,0-0.6938477-0.0898438-1.0043945-0.2705078
	c-0.6162109-0.3583984-0.9956055-1.0166016-0.9956055-1.7294922V56.7387695c0-0.7128906,0.3793945-1.371582,0.9956055-1.7294922
	c0.6157227-0.3574219,1.3759766-0.3618164,1.9956055-0.0078125l40.7729492,23.2617188
	c0.6240234,0.355957,1.0087891,1.019043,1.0087891,1.7373047s-0.3847656,1.3813477-1.0087891,1.7368164l-40.7729492,23.2617188
	C64.7294922,105.1738281,64.387207,105.2617188,64.0454102,105.2617188z M66.0454102,60.1826172v39.6357422l34.7368164-19.8178711
	L66.0454102,60.1826172z"/>
</svg>
