<?xml version="1.0" encoding="utf-8"?>
<!-- Generator: Adobe Illustrator 23.0.0, SVG Export Plug-In . SVG Version: 6.00 Build 0)  -->
<svg version="1.1" id="icon-zcool" xmlns="http://www.w3.org/2000/svg" xmlns:xlink="http://www.w3.org/1999/xlink" x="0px" y="0px"
	 viewBox="0 0 160 160" style="enable-background:new 0 0 160 160;" xml:space="preserve">
<path d="M63.7082291,160c-17.1393127,0-33.1717148-6.7715912-45.1426735-19.0676727
	C6.593133,128.6352692,0,112.1545639,0,94.5244141c0-34.1445465,24.2910309-59.2235336,63.3937836-65.4496994
	c19.0391769-3.8530846,31.6492844-12.9752903,37.3972244-27.098547l0.0654221-0.1435568
	c0.7861176-1.5639881,2.667923-2.0625308,4.0380096-1.7387954c1.1904068,0.2822308,2.0273056,1.1772636,2.1747589,2.283237
	c1.6630554,6.1309505,2.4716339,11.7584763,2.4716339,17.1984978c0,5.1758595-1.0566177,10.6422482-3.2206421,16.6223164
	c17.4440002-3.8184128,33.2073669-13.1012669,45.7735291-26.9969826l0.0722656-0.0756845
	c0.9589539-0.956069,2.2128448-1.240253,3.3553925-0.7656364c1.2050629,0.5009842,2.0155945,1.7705336,2.0155945,3.1592264
	v4.3945971c0,19.6487293-5.6971588,38.9883728-16.119812,54.9710312c4.9647522-0.7729568,9.9070435-1.7583237,14.3317566-3.5967331
	l0.3691406-0.152832h0.3984222c1.2323914,0,2.746048,0.4755936,3.2977905,1.8110657
	c0.3261566,0.7890701,0.2167969,1.6421127-0.28125,2.3701477c-5.4715729,16.995369-18.0484772,30.6899109-33.8323441,36.8882446
	C119.6412201,138.2848358,93.7462158,160,63.7082291,160z M103.7001266,5.3253369
	c-6.59655,14.3918152-19.9068375,23.702013-39.5954208,27.6849823C26.9994736,38.9200745,3.999922,62.4853668,3.999922,94.5244141
	c0,34.4721985,26.2270279,61.4755249,59.7083054,61.4755249c28.4764938,0,52.9838333-20.8723755,58.272789-49.6296463
	l0.2060547-1.1220856l1.0702896-0.3935547c14.597374-5.3741074,26.3862076-17.6418686,31.8880539-33.0537186
	c-5.6600494,1.9951477-11.7663727,2.8643036-17.6920471,3.7080612l-4.6708069,0.6650543l2.7694855-3.819397
	c11.5974274-15.9914474,17.9850006-36.0356903,17.9850006-56.4412689v-2.3828487
	c-13.7722015,14.5583229-31.0345535,23.9822922-50.0595703,27.3016777l-3.596611,0.627449l1.407196-3.3687019
	c2.8622513-6.8482475,4.2528458-12.9044895,4.2528458-18.5154133
	C105.5409088,15.0559502,104.9374084,10.3757048,103.7001266,5.3253369z M65.4049759,117.6331558
	c-8.55159,0-17.4664574-7.0030289-19.2427902-9.15345c-0.9003716-1.0888901-0.769516-1.9961243-0.5019417-2.5644913
	l0.5405159-1.1484604l1.1967545-0.03125c3.9349823-0.4755936,24.3969879-5.9922714,41.1847458-13.7355499l4.3524551-2.0068665
	l-1.6347351,4.5059204c-4.6366272,12.778511-12.6071777,21.2005157-22.4439011,23.7152023
	C67.7252426,117.503273,66.5680389,117.6331558,65.4049759,117.6331558z M51.5561256,107.984581
	c3.6884041,2.7685928,10.8078918,6.7618179,16.309742,5.3545685c7.3411636-1.8769836,13.5456314-7.7315598,17.7906647-16.677002
	C73.0464249,101.9942551,58.77034,106.2960739,51.5561256,107.984581z M20.5718651,113.1350479
	c-0.8676586,0-1.7485008-0.1005936-2.6220188-0.3056717l-0.0273438-0.0068359
	c-5.0121098-1.2490387-10.5115147-9.3790436-11.5383492-17.0568924l-0.6865101-5.1328888l3.9584193,3.3398895
	c6.2064219,5.2354355,12.6052237,8.7198563,18.5040321,10.077301l1.8725224,0.4306717l-0.3554611,1.8886948
	c-0.396965,2.1113663-1.6488934,3.9473267-3.5248337,5.1690292
	C24.539072,112.5891418,22.5913563,113.1350479,20.5718651,113.1350479z M18.8775616,108.9386902
	c1.8173485,0.4199295,3.7201424,0.1406326,5.092186-0.7519608c0.312006-0.203125,0.6630726-0.4843826,0.9745903-0.8584137
	c-4.2938614-1.3047028-8.6546154-3.5029755-13.0314837-6.5664978
	C13.8117428,105.145668,16.8649063,108.4259872,18.8775616,108.9386902z"/>
</svg>
