<?xml version="1.0" encoding="utf-8"?>
<!-- Generator: Adobe Illustrator 23.0.0, SVG Export Plug-In . SVG Version: 6.00 Build 0)  -->
<svg version="1.1" id="icon-book" xmlns="http://www.w3.org/2000/svg" xmlns:xlink="http://www.w3.org/1999/xlink" x="0px" y="0px"
	 viewBox="0 0 160 160" enable-background="new 0 0 160 160" xml:space="preserve">
<path d="M147.7785339,160H36.5544128c-20.1557598,0-36.5532227-14.5791016-36.5532227-32.5v-95
	c0-17.9204102,16.3974609-32.5,36.5532227-32.5h111.2241211c6.6923828,0,12.1376953,4.9907227,12.1376953,11.125v99.75
	c0,0.3652344,0.0175781,0.7470703,0.0341797,1.1347656c0.0947266,2.1689453,0.2363281,5.4462891-2.1171875,7.9042969
	c-1.4912109,1.5566406-3.6455078,2.3964844-6.4082031,2.5c-0.2480469,0.0478516-0.5048828,0.0732422-0.7666016,0.0732422h-0.4560547
	c-3.1289063,0.5576172-3.1992188,4.6337891-3.1962891,5.1259766c0.0019531,0.2177734,0.0800781,5.3056641,4.0429688,5.3867188
	h0.0966797c0.0351563,0,0.0703125,0,0.1054688,0.0009766c2.8017578,0.0214844,5.0117188,0.8652344,6.5673828,2.5087891
	c2.4208984,2.5576172,2.2304688,6.0205078,2.1289063,7.8818359c-0.0146484,0.2695313-0.03125,0.5175781-0.03125,0.7333984v4.75
	C159.9162292,155.0097656,154.4709167,160,147.7785339,160z M36.5544128,8C20.8102741,8,8.0011911,18.9907227,8.0011911,32.5v95
	c0,13.5097656,12.809083,24.5,28.5532227,24.5h111.2241211c2.2431641,0,4.1376953-1.4306641,4.1376953-3.125v-4.75
	c0-0.3447266,0.0195313-0.7421875,0.0429688-1.171875c0.0263672-0.4794922,0.0771484-1.3984375-0.0039063-1.8837891
	c-0.1787109-0.0380859-0.5302734-0.0625-0.9746094-0.0693359H36.5549011c-8.1889629,0-14.8515606-5.9472656-14.8515606-13.2568359
	s6.6625977-13.2558594,14.8515606-13.2558594h113.1269531c0.3613281-0.0361328,0.7294922-0.0576172,1.1025391-0.0625h0.0507813
	c0.5585938,0,0.9150391-0.0498047,1.1259766-0.0957031c0.0605469-0.5029297,0.0224609-1.3974609-0.0029297-1.9736328
	c-0.0214844-0.5058594-0.0419922-1.0039063-0.0419922-1.4804688v-99.75c0-1.6938477-1.8945313-3.125-4.1376953-3.125H36.5544128z
	 M36.5549011,122.4873047c-3.7138672,0-6.8515606,2.4072266-6.8515606,5.2558594
	c0,2.8984375,3.0737286,5.2568359,6.8515606,5.2568359h103.4140625c-0.6269531-1.6914063-0.9511719-3.5166016-0.9619141-5.3359375
	c-0.0117188-1.8642578,0.2783203-3.6074219,0.8251953-5.1767578H36.5549011z M123.3634949,71.3334961H47.6838074
	c-2.2089844,0-4-1.7910156-4-4s1.7910156-4,4-4h75.6796875c2.2089844,0,4,1.7910156,4,4
	S125.5724792,71.3334961,123.3634949,71.3334961z M123.3634949,49.8974609H47.6838074c-2.2089844,0-4-1.7910156-4-4s1.7910156-4,4-4
	h75.6796875c2.2089844,0,4,1.7910156,4,4S125.5724792,49.8974609,123.3634949,49.8974609z"/>
</svg>
