<?xml version="1.0" encoding="utf-8"?>
<!-- Generator: Adobe Illustrator 23.0.0, SVG Export Plug-In . SVG Version: 6.00 Build 0)  -->
<svg version="1.1" id="icon-box" xmlns="http://www.w3.org/2000/svg" xmlns:xlink="http://www.w3.org/1999/xlink" x="0px" y="0px"
	 viewBox="0 0 160 160" enable-background="new 0 0 160 160" xml:space="preserve">
<path d="M111.9873047,160c-0.0683594-0.0009766-0.1347656-0.0009766-0.2011719,0h-95.402832c-2.2089844,0-4-1.7910156-4-4
	V82.9042969l-6.8618164,2.8222656c-1.5009766,0.6162109-3.2260742,0.265625-4.3666992-0.8876953
	c-1.140625-1.1542969-1.4707031-2.8837891-0.8359375-4.3769531l12.3476563-29.0307617
	c0.0600586-0.1518555,0.1298828-0.2988281,0.2075195-0.440918c0.2202148-0.5698242,0.574707-1.097168,1.0605469-1.5332031
	l32.9951172-29.5908203c0.7333984-0.6582031,1.6845703-1.0219727,2.6704102-1.0219727h11.6274414l7.3388672-8.5063477
	c0.7885742-0.9140625,1.9492188-1.4335938,3.1547852-1.3852539c1.2070313,0.0380859,2.331543,0.6191406,3.0610352,1.5810547
	l2.828125,3.7294922L90.7685547,1.1650391c0.8056641-0.8022461,1.9140625-1.2270508,3.0507813-1.1586914
	c1.1357422,0.0649414,2.1894531,0.6103516,2.8984375,1.4995117l13.8203125,17.3256836h26.9492188
	c1.6503906,0,3.0673828,0.9995117,3.6787109,2.4262695l18.4150391,36.9785156
	c0.7119141,1.4301758,0.5048828,3.1469727-0.5273438,4.3666992l-17.5664063,20.7612305v34.2539063
	c0,0.7871094-0.2324219,1.5576172-0.6679688,2.2128906l-25.4960938,38.3818359
	C114.5527344,159.3730469,113.2822266,160,111.9873047,160z M20.3833008,152h87.402832V56.9116211h-87.402832V152z
	 M115.7861328,69.4208984v73.6367188l17.7011719-26.6464844V92.7695313
	c-0.8476563,0.7763672-1.9902344,1.1494141-3.1542969,1.0244141c-1.3271484-0.1513672-2.4912109-0.9560547-3.1035156-2.1435547
	L115.7861328,69.4208984z M116.5722656,53.46875l15.0292969,29.1943359l19.6445313-23.2172852l-14.6455078-29.4082031
	L116.5722656,53.46875z M12.3833008,72.5366211l-0.8857422,2.0820313l0.8857422-0.3642578V72.5366211z M103.8847656,48.9116211
	h6.0585938l7.4257813-8.6870117L93.2480469,9.9848633L82.4882813,20.6958008L103.8847656,48.9116211z M45.8530273,48.9116211
	h47.9916992l-22.449707-29.6054688l-5.2929688,6.1352539c-0.0083008,0.0097656-0.0170898,0.0195313-0.0253906,0.0288086
	L45.8530273,48.9116211z M26.5249023,48.9116211h8.762207l19.0385742-22.0673828h-3.1948242L26.5249023,48.9116211z
	 M116.9189453,26.831543l5.7431641,7.2001953l6.1542969-7.2001953H116.9189453z M78.0512695,82.4423828h-29.230957
	c-3.8173828,0-6.9228516-3.3530273-6.9228516-7.4746094s3.1054688-7.4750977,6.9228516-7.4750977h29.230957
	c3.8168945,0,6.9223633,3.3535156,6.9223633,7.4750977S81.8681641,82.4423828,78.0512695,82.4423828z"/>
</svg>
