<?xml version="1.0" encoding="utf-8"?>
<!-- Generator: Adobe Illustrator 23.0.0, SVG Export Plug-In . SVG Version: 6.00 Build 0)  -->
<svg version="1.1" id="icon-home" xmlns="http://www.w3.org/2000/svg" xmlns:xlink="http://www.w3.org/1999/xlink" x="0px" y="0px"
	 viewBox="0 0 160 160" style="enable-background:new 0 0 160 160;" xml:space="preserve">
<path d="M126.4358139,160l-23.0543442-0.0087891c-5.44207-0.0195313-9.8470917-4.8945313-9.8314667-10.8681641v-40.8515625
	c0-1.6230469-0.9784622-2.8359375-1.8524323-2.8359375H68.2911987c-0.8744583,0-1.8524323,1.2128906-1.8524323,2.8359375v40.8925781
	C66.439743,155.1074219,62.0435104,159.96875,56.6395226,160H33.5597954c-4.5329456,0-8.2212105-4.2294922-8.2212105-9.4287109
	V91.1123047l-6.5157394,6.9023438c-1.4740353,1.5585938-3.4871035,2.3486328-5.5255613,2.1503906
	c-2.0941181-0.1982422-3.9924469-1.4013672-5.2077084-3.3027344L1.3614458,86.34375
	c-2.1087656-3.28125-1.7328107-7.8544922,0.8793441-10.6303711l66.794014-70.7436523
	c3.0252228-3.2016602,6.9151306-4.9648438,10.9549408-4.9648438c4.0393219,0,7.9306946,1.7626953,10.9549408,4.9633789
	l16.7158356,17.6865234V8.0717773C107.6605225,3.6210938,110.8751831,0,114.8271027,0h14.7755127
	c3.9509583,0,7.1656189,3.6210938,7.1656189,8.0717773v45.4111328l21.0222168,22.2841797
	c2.5779877,2.7724609,2.9480743,7.3110352,0.8544464,10.5864258l-6.0982819,9.5341797V96.375l-0.921814,0.921875
	c-1.2206421,1.65625-2.9920197,2.6943359-4.9294128,2.8720703c-2.0301514,0.1787109-4.0505524-0.6035156-5.5211639-2.1689453
	l-6.5162354-6.9013672v59.4726563C134.6579895,155.7705078,130.9697266,160,126.4358139,160z M33.7682762,152h22.8483009
	c0.8485832-0.0048828,1.8226471-1.21875,1.8226471-2.8349609v-40.8935547c0-5.9746094,4.4196701-10.8359375,9.8519745-10.8359375
	h23.4063721c5.4323044,0,9.8519745,4.8613281,9.8519745,10.8359375v40.8623047
	c-0.0039063,1.6357422,0.9726028,2.8544922,1.848526,2.8574219L126.2278137,152
	c0.1611252-0.1826172,0.4306412-0.6748047,0.4306412-1.4287109V82.6259766L80.0029297,33.2089844L33.3381271,82.6386719v67.9326172
	C33.3381271,151.3251953,33.6071548,151.8173828,33.7682762,152z M80.003418,24.6044922h0.0004883
	c1.8270416,0.0004883,3.5662003,0.7597656,4.8962021,2.1391602l61.0297012,64.6420898l5.9762268-9.3417969
	c0.1240082-0.1943359,0.1113129-0.6611328,0.0117188-0.8417969l-0.0361328-0.0410156L128.768692,56.6606445V8.0717773
	c0-0.0249023-0.0009766-0.0488281-0.0019531-0.0717773h-13.1047211c-0.0009766,0.0229492-0.0019531,0.046875-0.0019531,0.0717773
	v34.6933594L85.1305618,10.4633789c-1.5194397-1.6083984-3.2976608-2.4584961-5.1408157-2.4584961
	s-3.6203995,0.8500977-5.1398392,2.4580078L8.0617447,81.2011719c-0.0786085,0.1318359-0.0956974,0.6220703,0.0332012,0.8232422
	l5.9859848,9.3583984l60.9955215-64.6083984C76.4372177,25.3642578,78.1758881,24.6044922,80.003418,24.6044922z"/>
</svg>
