<svg height="512pt" viewBox="0 0 512 512" width="512pt" xmlns="http://www.w3.org/2000/svg"><path d="m492 0h-472c-11.046875 0-20 8.953125-20 20v472c0 11.046875 8.953125 20 20 20h472c11.046875 0 20-8.953125 20-20v-472c0-11.046875-8.953125-20-20-20zm-20 40v117.332031h-432v-117.332031zm-432 432v-274.667969h432v274.667969zm33.667969-373.332031c0-13.808594 11.191406-25 25-25 13.804687 0 25 11.191406 25 25 0 13.804687-11.195313 25-25 25-13.808594 0-25-11.195313-25-25zm78.664062 0c0-13.808594 11.195313-25 25-25 13.808594 0 25 11.191406 25 25 0 13.804687-11.191406 25-25 25-13.804687 0-25-11.195313-25-25zm39.144531 221.855469c7.808594 7.8125 7.808594 20.472656 0 28.285156l-78.667968 78.667968c-7.808594 7.808594-20.472656 7.808594-28.28125 0-7.8125-7.8125-7.8125-20.476562-.003906-28.285156l64.527343-64.527344-64.527343-64.523437c-7.808594-7.808594-7.808594-20.472656.003906-28.28125 7.808594-7.8125 20.472656-7.8125 28.28125 0zm163.191407 92.808593c0 11.046875-8.953125 20-20 20h-78.667969c-11.046875 0-20-8.953125-20-20s8.953125-20 20-20h78.667969c11.046875 0 20 8.957031 20 20zm0 0"/></svg>