<svg height="512pt" viewBox="-26 0 512 512.001" width="512pt" xmlns="http://www.w3.org/2000/svg"><path d="m310.582031 117.53125c-4.140625 0-7.5 3.359375-7.5 7.5v12.449219c0 4.144531 3.359375 7.5 7.5 7.5 4.144531 0 7.5-3.355469 7.5-7.5v-12.449219c0-4.140625-3.355469-7.5-7.5-7.5zm0 0"/><path d="m149.269531 117.53125c-4.144531 0-7.5 3.359375-7.5 7.5v12.449219c0 4.144531 3.355469 7.5 7.5 7.5s7.5-3.355469 7.5-7.5v-12.449219c0-4.140625-3.355469-7.5-7.5-7.5zm0 0"/><path d="m378.699219 218.257812v-135.925781c0-24.949219-20.296875-45.246093-45.246094-45.246093h-207.054687c-24.945313 0-45.242188 20.296874-45.242188 45.246093v135.925781c0 24.945313 20.296875 45.242188 45.242188 45.242188h207.054687c24.949219 0 45.246094-20.296875 45.246094-45.242188zm-282.542969 0v-135.925781c0-16.679687 13.566406-30.246093 30.242188-30.246093h207.054687c16.675781 0 30.246094 13.566406 30.246094 30.246093v135.925781c0 16.675782-13.570313 30.242188-30.246094 30.242188h-207.054687c-16.675782 0-30.242188-13.566406-30.242188-30.242188zm0 0"/><path d="m406.621094 328.164062h-10.40625c11.558594-11.644531 18.492187-27.617187 18.492187-44.59375v-220.367187c0-34.851563-28.351562-63.203125-63.199219-63.203125h-243.160156c-34.851562 0-63.203125 28.351562-63.203125 63.203125v34.421875c0 4.140625 3.355469 7.5 7.5 7.5 4.140625 0 7.5-3.359375 7.5-7.5v-34.421875c0-26.578125 21.621094-48.203125 48.203125-48.203125h243.160156c26.578126 0 48.199219 21.625 48.199219 48.203125v220.367187c0 19.476563-11.957031 37.21875-29.890625 44.597657h-28.945312c-4.140625 0-7.5 3.355469-7.5 7.5 0 4.140625 3.359375 7.5 7.5 7.5h65.753906c21.078125 0 38.226562 17.148437 38.226562 38.230469v77.371093c0 21.082031-17.148437 38.230469-38.226562 38.230469h-176.179688v-88.476562c0-19.101563-15.539062-34.636719-34.636718-34.636719h-23.605469c-19.097656 0-34.636719 15.535156-34.636719 34.636719v64.292968c0 4.140625 3.359375 7.5 7.5 7.5 4.144532 0 7.5-3.359375 7.5-7.5v-64.292968c0-10.828126 8.808594-19.636719 19.636719-19.636719h23.605469c10.828125 0 19.636718 8.808593 19.636718 19.636719v88.476562h-162.214843c-21.082031 0-38.230469-17.148438-38.230469-38.230469v-77.371093c0-21.082032 17.152344-38.234376 38.230469-38.234376h254.601562c4.140625 0 7.5-3.355468 7.5-7.5 0-4.140624-3.359375-7.5-7.5-7.5h-217.796875c-17.929687-7.375-29.890625-25.125-29.890625-44.59375v-155.679687c0-4.140625-3.359375-7.5-7.5-7.5-4.144531 0-7.5 3.359375-7.5 7.5v155.679687c0 16.972657 6.9375 32.949219 18.492188 44.597657h-10.40625c-29.351563 0-53.230469 23.878906-53.230469 53.230469v77.371093c0 29.351563 23.878906 53.230469 53.230469 53.230469h353.394531c29.351562 0 53.226562-23.878906 53.226562-53.230469v-77.371093c0-29.351563-23.878906-53.234376-53.230468-53.234376zm0 0"/><path d="m251.222656 436.144531v14.707031c0 12.992188 10.566406 23.558594 23.558594 23.558594h116.367188c12.992187 0 23.558593-10.566406 23.558593-23.558594v-14.707031c0-12.992187-10.566406-23.5625-23.558593-23.5625h-116.367188c-12.992188 0-23.558594 10.570313-23.558594 23.5625zm148.484375 0v14.707031c0 4.71875-3.839843 8.558594-8.558593 8.558594h-116.367188c-4.722656 0-8.5625-3.839844-8.5625-8.558594v-14.707031c0-4.71875 3.839844-8.5625 8.5625-8.5625h116.367188c4.71875 0 8.558593 3.839844 8.558593 8.5625zm0 0"/><path d="m80.132812 366.164062c-13.855468 0-25.128906 11.273438-25.128906 25.128907s11.273438 25.128906 25.128906 25.128906c13.859376 0 25.128907-11.273437 25.128907-25.128906s-11.269531-25.128907-25.128907-25.128907zm0 35.257813c-5.585937 0-10.128906-4.542969-10.128906-10.128906 0-5.585938 4.542969-10.128907 10.128906-10.128907 5.585938 0 10.128907 4.542969 10.128907 10.128907 0 5.585937-4.542969 10.128906-10.128907 10.128906zm0 0"/><path d="m80.132812 418.367188c-13.855468 0-25.128906 11.273437-25.128906 25.128906 0 13.855468 11.273438 25.128906 25.128906 25.128906 13.859376 0 25.128907-11.273438 25.128907-25.128906 0-13.855469-11.269531-25.128906-25.128907-25.128906zm0 35.257812c-5.585937 0-10.128906-4.542969-10.128906-10.128906 0-5.585938 4.542969-10.128906 10.128906-10.128906 5.585938 0 10.128907 4.542968 10.128907 10.128906 0 5.585937-4.542969 10.128906-10.128907 10.128906zm0 0"/><path d="m250.355469 122.484375h-40.859375c-8.363282 0-15.167969 6.804687-15.167969 15.167969v20.433594c0 19.628906 15.96875 35.597656 35.597656 35.597656 19.628907 0 35.601563-15.96875 35.601563-35.597656v-20.433594c0-8.363282-6.804688-15.167969-15.171875-15.167969zm.171875 35.601563c0 11.355468-9.242188 20.597656-20.601563 20.597656s-20.597656-9.238282-20.597656-20.597656v-20.429688c0-.09375 41.027344-.171875 41.027344-.171875.09375 0 .171875 20.601563.171875 20.601563zm0 0"/><path d="m116.523438 273.332031c-12.410157 0-22.5 10.09375-22.5 22.5s10.089843 22.5 22.5 22.5h46.554687c12.40625 0 22.5-10.09375 22.5-22.5s-10.09375-22.5-22.5-22.5zm54.054687 22.5c0 4.136719-3.363281 7.5-7.5 7.5h-46.554687c-4.136719 0-7.5-3.363281-7.5-7.5s3.363281-7.5 7.5-7.5h46.554687c4.136719 0 7.5 3.363281 7.5 7.5zm0 0"/><path d="m187.363281 295.832031c0 12.40625 10.09375 22.5 22.5 22.5s22.5-10.09375 22.5-22.5-10.09375-22.5-22.5-22.5-22.5 10.09375-22.5 22.5zm30 0c0 4.136719-3.363281 7.5-7.5 7.5s-7.5-3.363281-7.5-7.5 3.363281-7.5 7.5-7.5 7.5 3.363281 7.5 7.5zm0 0"/></svg>