<?xml version="1.0" encoding="iso-8859-1"?>
<!-- Generator: Adobe Illustrator 19.0.0, SVG Export Plug-In . SVG Version: 6.00 Build 0)  -->
<svg version="1.1" id="Capa_1" xmlns="http://www.w3.org/2000/svg" xmlns:xlink="http://www.w3.org/1999/xlink" x="0px" y="0px"
	 viewBox="0 0 500 500" style="enable-background:new 0 0 500 500;" xml:space="preserve">
<g>
	<g>
		<path d="M472,194h-8v-8c0-13.232-10.768-24-24-24v-48h60L453.336,2h-74.664L332,114h60v48c-13.232,0-24,10.768-24,24v8h-64V34h-80
			h-16h-64h-16H48v160H24c-13.232,0-24,10.768-24,24v16c0,13.232,10.768,24,24,24v240h144V258h160v240h144V258
			c13.232,0,24-10.768,24-24v-16C496,204.768,485.232,194,472,194z M356,98l6.664-16H440V66h-70.664l20-48h53.336L476,98H356z
			 M424,114v48h-16v-48H424z M384,186c0-4.416,3.592-8,8-8h48c4.408,0,8,3.584,8,8v8h-64V186z M224,50h64v144h-64V50z M144,50h64
			v144h-64V50z M64,50h64v144H64V50z M152,482H40v-64h16v32h80v-32h16V482z M72,434v-16h48v16H72z M152,402H40v-64h16v32h80v-32h16
			V402z M72,354v-16h48v16H72z M152,322H40v-64h16v32h80v-32h16V322z M72,274v-16h48v16H72z M456,482H344v-64h16v32h80v-32h16V482z
			 M376,434v-16h48v16H376z M456,402H344v-64h16v32h80v-32h16V402z M376,354v-16h48v16H376z M456,322H344v-64h16v32h80v-32h16V322z
			 M376,274v-16h48v16H376z M480,234c0,4.416-3.592,8-8,8H24c-4.408,0-8-3.584-8-8v-16c0-4.416,3.592-8,8-8h448c4.408,0,8,3.584,8,8
			V234z"/>
	</g>
</g>
<g>
	<g>
		<rect x="88" y="66" width="16" height="16"/>
	</g>
</g>
<g>
	<g>
		<rect x="88" y="98" width="16" height="16"/>
	</g>
</g>
<g>
	<g>
		<rect x="88" y="130" width="16" height="16"/>
	</g>
</g>
<g>
	<g>
		<rect x="88" y="162" width="16" height="16"/>
	</g>
</g>
<g>
	<g>
		<rect x="168" y="66" width="16" height="16"/>
	</g>
</g>
<g>
	<g>
		<rect x="168" y="98" width="16" height="16"/>
	</g>
</g>
<g>
	<g>
		<rect x="168" y="130" width="16" height="16"/>
	</g>
</g>
<g>
	<g>
		<rect x="168" y="162" width="16" height="16"/>
	</g>
</g>
<g>
	<g>
		<rect x="248" y="66" width="16" height="16"/>
	</g>
</g>
<g>
	<g>
		<rect x="248" y="98" width="16" height="16"/>
	</g>
</g>
<g>
	<g>
		<rect x="248" y="130" width="16" height="16"/>
	</g>
</g>
<g>
	<g>
		<rect x="248" y="162" width="16" height="16"/>
	</g>
</g>
<g>
</g>
<g>
</g>
<g>
</g>
<g>
</g>
<g>
</g>
<g>
</g>
<g>
</g>
<g>
</g>
<g>
</g>
<g>
</g>
<g>
</g>
<g>
</g>
<g>
</g>
<g>
</g>
<g>
</g>
</svg>
