<?xml version="1.0" encoding="iso-8859-1"?>
<!-- Generator: Adobe Illustrator 19.0.0, SVG Export Plug-In . SVG Version: 6.00 Build 0)  -->
<svg xmlns="http://www.w3.org/2000/svg" xmlns:xlink="http://www.w3.org/1999/xlink" version="1.1" id="Layer_1" x="0px" y="0px" viewBox="0 0 512 512" style="enable-background:new 0 0 512 512;" xml:space="preserve">
<g>
	<g>
		<g>
			<path d="M470.628,51.843h-41.091c-4.143,0-7.5,3.357-7.5,7.5s3.357,7.5,7.5,7.5h41.091c14.541,0,26.372,11.83,26.372,26.371     v325.571c0,14.541-11.831,26.371-26.372,26.371H41.372c-14.541,0-26.372-11.83-26.372-26.371V93.215     c0-14.541,11.831-26.371,26.372-26.371h359.162c4.143,0,7.5-3.357,7.5-7.5s-3.357-7.5-7.5-7.5H41.372     C18.56,51.843,0,70.402,0,93.215v325.571c0,22.812,18.56,41.372,41.372,41.372h429.255c22.812,0,41.372-18.56,41.372-41.372     V93.215C512,70.402,493.44,51.843,470.628,51.843z"/>
			<path d="M34.564,93.906v273.482v50.706c0,4.143,3.357,7.5,7.5,7.5h427.872c4.143,0,7.5-3.357,7.5-7.5     c0-9.602,0-314.611,0-324.188c0-4.143-3.358-7.5-7.5-7.5H42.065C37.921,86.405,34.564,89.763,34.564,93.906z M49.565,410.593     v-39.196l170.592-113.996c118.839,73.327,110.863,68.966,113.89,68.966c7.528,0,10.364-9.926,3.945-13.885l-39.827-24.575     l82.522-63.386l81.747,54.259v131.812H49.565z M49.564,101.406h412.871v159.37l-77.918-51.717     c-2.672-1.773-6.175-1.65-8.716,0.301l-91.292,70.122c-65.003-40.108-61.56-38.502-64.548-38.486     c-3.714,0.018,9.978-8.174-170.397,112.36V101.406z"/>
			<path d="M134.739,140.063c-26.243,0-47.594,21.35-47.594,47.593c0.001,26.245,21.351,47.595,47.594,47.595     c26.243,0,47.594-21.351,47.594-47.595C182.333,161.413,160.982,140.063,134.739,140.063z M134.739,220.25     c-17.972,0-32.593-14.621-32.593-32.594c0.001-17.971,14.622-32.592,32.593-32.592c17.972,0,32.593,14.621,32.593,32.592     C167.332,205.629,152.711,220.25,134.739,220.25z"/>
		</g>
	</g>
</g>
<g>
</g>
<g>
</g>
<g>
</g>
<g>
</g>
<g>
</g>
<g>
</g>
<g>
</g>
<g>
</g>
<g>
</g>
<g>
</g>
<g>
</g>
<g>
</g>
<g>
</g>
<g>
</g>
<g>
</g>
</svg>
