<?xml version="1.0" encoding="iso-8859-1"?>
<!-- Generator: Adobe Illustrator 19.0.0, SVG Export Plug-In . SVG Version: 6.00 Build 0)  -->
<svg version="1.1" id="Capa_1" xmlns="http://www.w3.org/2000/svg" xmlns:xlink="http://www.w3.org/1999/xlink" x="0px" y="0px"
	 viewBox="0 0 512 512" style="enable-background:new 0 0 512 512;" xml:space="preserve">
<g>
	<g>
		<path d="M390.621,2.928c-3.905-3.904-10.237-3.903-14.142,0.002l-41.536,41.54c-43.172-36-107.66-33.755-148.164,6.749
			c-34.884,34.885-42.012,88.938-18.276,131.405L2.929,348.197c-3.905,3.905-3.905,10.235-0.001,14.141L59.5,418.911
			c3.905,3.904,10.236,3.903,14.141-0.001l28.28-28.28c3.905-3.905,3.905-10.235,0.001-14.141l-21.211-21.22l14.14-14.14
			l21.219,21.212c3.905,3.904,10.236,3.903,14.141-0.001l28.28-28.279c1.875-1.875,2.929-4.419,2.929-7.071
			c0-2.652-1.054-5.195-2.929-7.071l-21.209-21.209l73.645-73.653c42.476,23.733,96.533,16.607,131.415-18.275
			c40.656-40.657,42.801-105.032,6.748-148.174l41.532-41.537C394.527,13.166,394.526,6.834,390.621,2.928z M328.198,192.638
			c-30.233,30.234-77.881,34.894-113.266,11.454c-3.965-2.626-9.232-2.097-12.594,1.267l-86.27,86.28
			c-3.905,3.905-3.905,10.236,0,14.142l21.209,21.209l-14.139,14.139l-21.219-21.211c-3.904-3.905-10.235-3.904-14.14,0
			l-28.28,28.279c-3.905,3.905-3.906,10.235-0.001,14.142l21.211,21.219l-14.141,14.141L24.141,355.27l164.06-164.06
			c3.363-3.363,3.892-8.63,1.265-12.595c-23.507-35.479-18.69-83.11,11.455-113.255c32.698-32.7,84.499-34.914,119.802-6.671
			l-28.59,28.593c-19.141-12.7-45.657-10.922-62.935,6.365c-19.492,19.493-19.492,51.21,0,70.703
			c19.496,19.495,51.216,19.495,70.712,0c17.241-17.243,19.104-43.726,6.365-62.926l28.592-28.595
			C363.119,108.054,361.075,159.761,328.198,192.638z M285.768,150.208c-11.696,11.697-30.729,11.697-42.428,0
			c-11.693-11.694-11.693-30.724,0.003-42.42c11.685-11.693,30.718-11.707,42.423-0.001c0.001,0.001,0.002,0.002,0.002,0.003
			c0.001,0.001,0.003,0.002,0.004,0.004C297.472,119.488,297.473,138.503,285.768,150.208z"/>
	</g>
</g>
<g>
	<g>
		<path d="M502,431.999h-56v-50c0-5.522-4.477-10-10-10h-50v-50c0-5.522-4.477-10-10-10H256c-5.523,0-10,4.478-10,10v50h-50
			c-5.523,0-10,4.478-10,10v50h-56c-5.523,0-10,4.478-10,10v60c0,5.522,4.477,10,10,10h372c5.523,0,10-4.478,10-10v-60
			C512,436.477,507.523,431.999,502,431.999z M426,391.999v40H326v-40H426z M266,331.999h100v40H266V331.999z M206,391.999h100v40
			H206V391.999z M246,491.999H140v-40h106V491.999z M366,491.999H266v-40h100V491.999z M492,491.999H386v-40h106V491.999z"/>
	</g>
</g>
<g>
</g>
<g>
</g>
<g>
</g>
<g>
</g>
<g>
</g>
<g>
</g>
<g>
</g>
<g>
</g>
<g>
</g>
<g>
</g>
<g>
</g>
<g>
</g>
<g>
</g>
<g>
</g>
<g>
</g>
</svg>
