<?xml version="1.0" encoding="iso-8859-1"?>
<!-- Generator: Adobe Illustrator 19.0.0, SVG Export Plug-In . SVG Version: 6.00 Build 0)  -->
<svg version="1.1" id="Layer_1" xmlns="http://www.w3.org/2000/svg" xmlns:xlink="http://www.w3.org/1999/xlink" x="0px" y="0px"
	 viewBox="0 0 420.383 420.383" style="enable-background:new 0 0 420.383 420.383;" xml:space="preserve">
<g>
	<g>
		<path d="M390.218,165.253l30.165-30.165l-52.779-52.8l30.144-30.144L352.501,6.896L150.069,209.37
			c-12.736-5.696-26.56-8.832-40.917-9.173l-2.453-0.043c-57.472,0-105.323,46.72-106.667,104.128
			c-0.683,28.501,9.771,55.531,29.44,76.16c19.669,20.629,46.187,32.363,74.667,33.024l2.581,0.021
			c57.387,0,105.195-46.699,106.56-104.128c0.491-20.523-4.992-40.213-15.339-57.387l79.147-79.168l52.779,52.821l30.187-30.165
			l-52.779-52.821l30.165-30.187L390.218,165.253z M106.655,349.488c-23.552,0-42.688-19.115-42.667-42.667
			c0-23.552,19.115-42.667,42.645-42.667c23.573,0,42.667,19.115,42.688,42.667C149.301,330.394,130.207,349.488,106.655,349.488z"
			/>
	</g>
</g>
<g>
</g>
<g>
</g>
<g>
</g>
<g>
</g>
<g>
</g>
<g>
</g>
<g>
</g>
<g>
</g>
<g>
</g>
<g>
</g>
<g>
</g>
<g>
</g>
<g>
</g>
<g>
</g>
<g>
</g>
</svg>
