<?xml version="1.0" encoding="utf-8"?>
<!-- Generator: Adobe Illustrator 18.0.0, SVG Export Plug-In . SVG Version: 6.00 Build 0)  -->
<!DOCTYPE svg PUBLIC "-//W3C//DTD SVG 1.1//EN" "http://www.w3.org/Graphics/SVG/1.1/DTD/svg11.dtd">
<svg version="1.1" id="Twoo" xmlns="http://www.w3.org/2000/svg" xmlns:xlink="http://www.w3.org/1999/xlink" x="0px" y="0px"
	 viewBox="0 0 120 120" enable-background="new 0 0 120 120" xml:space="preserve">
<g id="Line">
	<g>
		<g>
			<path fill="#1C1F26" d="M82.1,98h-44c-4.4,0-8-3.6-8-8V37.6c0-1.1,0.9-2,2-2c1.1,0,2,0.9,2,2V90c0,2.2,1.8,4,4,4h44
				c2.2,0,4-1.8,4-4V37.6c0-1.1,0.9-2,2-2s2,0.9,2,2V90C90.1,94.4,86.5,98,82.1,98z"/>
		</g>
		<g>
			<path fill="#1C1F26" d="M82.1,91.1h-44c-4.4,0-8-3.6-8-8V30.6c0-4.4,3.6-8,8-8h44c4.4,0,8,3.6,8,8v52.5
				C90.1,87.5,86.5,91.1,82.1,91.1z M38.1,26.6c-2.2,0-4,1.8-4,4v52.5c0,2.2,1.8,4,4,4h44c2.2,0,4-1.8,4-4V30.6c0-2.2-1.8-4-4-4
				H38.1z"/>
		</g>
		<g>
			<path fill="#1C1F26" d="M81.1,65.5H39.4c-1.1,0-2-0.9-2-2s0.9-2,2-2h41.7c1.1,0,2,0.9,2,2S82.2,65.5,81.1,65.5z"/>
		</g>
		<g>
			<path fill="#1C1F26" d="M81.1,55.1H39.4c-1.1,0-2-0.9-2-2s0.9-2,2-2h41.7c1.1,0,2,0.9,2,2S82.2,55.1,81.1,55.1z"/>
		</g>
		<g>
			<path fill="#1C1F26" d="M81.1,76.5H39.4c-1.1,0-2-0.9-2-2s0.9-2,2-2h41.7c1.1,0,2,0.9,2,2S82.2,76.5,81.1,76.5z"/>
		</g>
		<g>
			<path fill="#1C1F26" d="M87.9,39.7H32.1c-1.1,0-2-0.9-2-2s0.9-2,2-2h55.8c1.1,0,2,0.9,2,2S89,39.7,87.9,39.7z"/>
		</g>
		<g>
			<g>
				<path fill="#1C1F26" d="M44,44c-1.1,0-2-0.9-2-2v-8c0-1.1,0.9-2,2-2s2,0.9,2,2v8C46,43.1,45.1,44,44,44z"/>
			</g>
			<g>
				<path fill="#1C1F26" d="M55,44c-1.1,0-2-0.9-2-2v-8c0-1.1,0.9-2,2-2s2,0.9,2,2v8C57,43.1,56.1,44,55,44z"/>
			</g>
			<g>
				<path fill="#1C1F26" d="M66,44c-1.1,0-2-0.9-2-2v-8c0-1.1,0.9-2,2-2s2,0.9,2,2v8C68,43.1,67.1,44,66,44z"/>
			</g>
			<g>
				<path fill="#1C1F26" d="M77,44c-1.1,0-2-0.9-2-2v-8c0-1.1,0.9-2,2-2s2,0.9,2,2v8C79,43.1,78.1,44,77,44z"/>
			</g>
		</g>
	</g>
</g>
</svg>
