<?xml version="1.0" encoding="utf-8"?>
<!-- Generator: Adobe Illustrator 16.0.0, SVG Export Plug-In . SVG Version: 6.00 Build 0)  -->
<!DOCTYPE svg PUBLIC "-//W3C//DTD SVG 1.1//EN" "http://www.w3.org/Graphics/SVG/1.1/DTD/svg11.dtd">
<svg version="1.1" id="Layer_2" xmlns="http://www.w3.org/2000/svg" xmlns:xlink="http://www.w3.org/1999/xlink" x="0px" y="0px"
	 width="126px" height="126px" viewBox="0 0 126 126" enable-background="new 0 0 126 126" xml:space="preserve">
<path d="M110.944,55.681l-8.706-26.116c-0.119-0.357-0.406-0.634-0.767-0.739L54.875,15.171c-0.313-0.095-0.658-0.046-0.933,0.128
	L19.291,36.978c-0.288,0.18-0.481,0.478-0.528,0.816l-3.755,26.969c-0.073,0.523,0.218,1.027,0.708,1.224l7.27,2.928l0.002,18.793
	c0,0.447,0.262,0.857,0.668,1.044l47.027,21.607l0.002,0.003c0.04,0.066,0.084,0.142,0.154,0.206
	c0.213,0.198,0.491,0.308,0.782,0.308c0.318,0,0.625-0.134,0.842-0.367l29.358-31.577c0.198-0.213,0.308-0.491,0.308-0.782V65.655
	l8.551-8.81C110.979,56.536,111.08,56.09,110.944,55.681z M22.187,37.876l32.131-20.101V47.87L22.187,37.876z M65.728,86.128
	c0.319,0.126,0.686,0.105,0.985-0.061c0.304-0.167,0.513-0.459,0.576-0.802l3.063-16.996v39.408L25.286,86.971L25.284,69.84
	L65.728,86.128z M70.318,55.5l-5.041,27.969L17.408,64.189l3.388-24.339l49.587,15.424C70.354,55.347,70.332,55.422,70.318,55.5z
	 M98.214,30.266l-26.69,22.956l-14.907-4.636V18.076L98.214,30.266z M108.543,55.746l-26.38,27.18l-9.612-27.555l27.876-23.975
	L108.543,55.746z M72.65,62.634l7.955,22.806c0.13,0.374,0.451,0.659,0.837,0.744c0.377,0.083,0.799-0.04,1.073-0.322L99.83,68.022
	v9.675l-27.18,29.235V62.634z"/>
</svg>
