<?xml version="1.0" encoding="iso-8859-1"?>
<!-- Generator: Adobe Illustrator 19.0.0, SVG Export Plug-In . SVG Version: 6.00 Build 0)  -->
<svg xmlns="http://www.w3.org/2000/svg" xmlns:xlink="http://www.w3.org/1999/xlink" version="1.1" id="Layer_1" x="0px" y="0px" viewBox="0 0 512 512" style="enable-background:new 0 0 512 512;" xml:space="preserve">
<g>
	<g>
		<path d="M482.346,115.204c16.351,0,29.654-13.303,29.654-29.656s-13.302-29.656-29.654-29.656    c-13.76,0-25.359,9.421-28.691,22.151H284.353c-0.669-12.689-11.202-22.808-24.055-22.808h-12.443    c-12.853,0-23.386,10.119-24.055,22.808H58.347c-3.332-12.73-14.931-22.151-28.691-22.151C13.303,55.893,0,69.196,0,85.548    s13.303,29.656,29.656,29.656c13.76,0,25.359-9.421,28.691-22.151h118.437c-68.093,27.064-118.5,88.799-129.554,163.51    c-15.314,0-25.08,11.53-25.08,24.093v12.442c0,13.283,10.808,24.092,24.092,24.092h12.441c13.284,0,24.092-10.808,24.092-24.092    v-12.442c0-12.031-8.864-22.029-20.404-23.81C75.494,173.862,141,108.507,224.077,95.626c1.438,8.896,7.763,16.171,16.124,18.982    c-3.206,4.38-99.956,136.553-101.01,137.992c-1.444,1.972-1.837,4.523-1.053,6.839L183.5,393.427v19.794h-2.634    c-10.425,0-21.019,7.765-21.019,22.522c0,11.591,9.429,21.021,21.019,21.021h14.656c4.145,0,7.504-3.359,7.504-7.504    s-3.359-7.504-7.504-7.504h-14.656c-3.315,0-6.01-2.697-6.01-6.012v-1.5c0-3.316,2.695-6.013,6.01-6.013h10.139    c5.049,0,131.689,0,136.285,0c3.315,0,6.011,2.698,6.011,6.013v1.5c0,3.316-2.697,6.012-6.011,6.012H222.536    c-4.145,0-7.504,3.359-7.504,7.504s3.359,7.504,7.504,7.504h104.753c11.59,0,21.02-9.43,21.02-21.021v-1.5    c0-11.591-9.429-21.022-21.02-21.022h-2.633v-19.8l18.693-55.212c1.33-3.926-0.775-8.186-4.701-9.514    c-3.928-1.332-8.187,0.774-9.514,4.701l-17.365,51.293H196.385l-42.782-126.369l11.414-15.594l31.771,93.85    c1.031,3.047,3.89,5.098,7.108,5.098h100.359c3.217,0,6.076-2.051,7.107-5.098l31.773-93.849l11.414,15.593L337.765,307.9    c-1.33,3.926,0.775,8.186,4.701,9.514c3.927,1.331,8.186-0.774,9.514-4.701l18.035-53.274c0.784-2.315,0.392-4.867-1.053-6.839    c-12.877-17.593-88.567-120.992-101.011-137.992c8.358-2.81,14.682-10.081,16.122-18.974    c83.231,12.886,148.632,78.123,161.725,161.324c-11.228,2.042-19.771,11.888-19.771,23.697v12.442    c0,13.283,10.807,24.091,24.091,24.091h12.442c13.283,0,24.091-10.808,24.091-24.091v-12.442c0-12.365-9.345-24.093-25.725-24.093    c-10.68-71.912-58.853-135.297-129.787-163.51h122.516C456.987,105.783,468.587,115.204,482.346,115.204z M482.346,70.901    c8.075,0,14.645,6.57,14.645,14.647c0,8.077-6.57,14.647-14.645,14.647c-8.077,0-14.647-6.571-14.647-14.647    C467.7,77.472,474.27,70.901,482.346,70.901z M29.656,100.196c-8.078,0-14.647-6.571-14.647-14.647s6.57-14.647,14.647-14.647    c8.077,0,14.647,6.57,14.647,14.647C44.302,93.625,37.732,100.196,29.656,100.196z M67.767,280.655v12.442    c0,5.009-4.075,9.083-9.084,9.083h-12.44c-5.009,0-9.083-4.074-9.083-9.083v-12.442c0-5.009,4.074-9.084,9.083-9.084h12.44    C63.692,271.571,67.767,275.646,67.767,280.655z M198.507,399.697h111.141v13.525H198.507V399.697z M332.301,227.925    l-33.428,98.738h-89.595l-33.426-98.739l70.721-96.612v109.979c-12.31,3.314-21.399,14.568-21.399,27.911    c0,15.938,12.966,28.904,28.903,28.904c15.939,0,28.906-12.966,28.906-28.904c0-13.344-9.09-24.598-21.402-27.912V131.313    L332.301,227.925z M254.076,255.307c7.663,0,13.898,6.234,13.898,13.897c0,7.661-6.234,13.896-13.898,13.896    c-7.661,0-13.895-6.234-13.895-13.896C240.183,261.541,246.415,255.307,254.076,255.307z M269.379,91.769    c0,5.009-4.074,9.084-9.082,9.084h-12.443c-5.008,0-9.082-4.075-9.082-9.084V79.328c0-5.009,4.074-9.083,9.082-9.083h12.443    c5.008,0,9.082,4.074,9.082,9.083V91.769z M462.56,271.571c5.009,0,9.083,4.075,9.083,9.084v12.442    c0,5.009-4.074,9.083-9.083,9.083h-12.442c-5.008,0-9.082-4.074-9.082-9.083v-12.442c0-5.009,4.074-9.084,9.082-9.084H462.56z"/>
	</g>
</g>
<g>
</g>
<g>
</g>
<g>
</g>
<g>
</g>
<g>
</g>
<g>
</g>
<g>
</g>
<g>
</g>
<g>
</g>
<g>
</g>
<g>
</g>
<g>
</g>
<g>
</g>
<g>
</g>
<g>
</g>
</svg>
