<?xml version="1.0" encoding="iso-8859-1"?>
<!-- Generator: Adobe Illustrator 19.0.0, SVG Export Plug-In . SVG Version: 6.00 Build 0)  -->
<svg xmlns="http://www.w3.org/2000/svg" xmlns:xlink="http://www.w3.org/1999/xlink" version="1.1" id="Layer_1" x="0px" y="0px" viewBox="0 0 511.999 511.999" style="enable-background:new 0 0 511.999 511.999;" xml:space="preserve">
<g>
	<g>
		<path d="M356.51,250.378c3.902,1.384,8.188-0.663,9.569-4.567l22.638-63.962c0.827-2.336,0.446-4.93-1.018-6.93    C254.373-7.222,261.229-0.883,254.641,0.328c-4.198,0.771,5.289-10.693-130.34,174.592c-1.443,1.97-1.835,4.519-1.052,6.833    l52.432,154.876v24.213h-4.208c-19.977,0-28.602,22.633-19.601,37.039c-6.03,4.173-9.99,11.133-9.99,19.004v87.617    c0,4.142,3.356,7.497,7.498,7.497h36.045c4.142,0,7.498-3.356,7.498-7.498c0-4.142-3.356-7.497-7.498-7.497h-28.548v-80.12    c0-4.47,3.638-8.105,8.108-8.105c4.604,0,173.75,0,182.024,0c4.472,0,8.108,3.637,8.108,8.105v80.12H212.416    c-4.142,0-7.498,3.356-7.498,7.497c0,4.142,3.356,7.498,7.498,7.498h150.203c4.142,0,7.498-3.356,7.498-7.498v-87.617    c0-7.87-3.96-14.83-9.989-19.003c9.111-14.579,0.11-37.04-19.602-37.04h-4.206v-24.219l22.365-66.062    c1.329-3.923-0.775-8.178-4.696-9.506c-3.926-1.331-8.179,0.774-9.506,4.696l-21.039,62.146H188.557l-49.855-147.265    l14.862-20.304l37.402,110.479c1.03,3.044,3.888,5.093,7.102,5.093h115.868c3.214,0,6.071-2.049,7.101-5.093l37.402-110.477    l14.822,20.248l-21.317,60.231C350.562,244.712,352.606,248.997,356.51,250.378z M190.677,342.894h130.649v17.949H190.677V342.894    z M340.526,375.838c10.854,0,10.854,17.947,0.001,17.947H171.475c-10.852,0-10.851-17.947,0-17.947    C175.658,375.838,335.75,375.838,340.526,375.838z M256.002,176.19c9.489,0,17.209,7.72,17.209,17.21    c0,9.489-7.72,17.208-17.209,17.208c-9.49,0-17.211-7.719-17.211-17.208C238.79,183.91,246.512,176.19,256.002,176.19z     M308.559,260.906H203.445L164.39,145.543L248.504,30.63v131.456c-14.153,3.389-24.709,16.139-24.709,31.315    c0,17.757,14.447,32.203,32.206,32.203c17.758,0,32.204-14.446,32.204-32.203c0-15.176-10.555-27.926-24.707-31.315V30.635    l84.114,114.909L308.559,260.906z"/>
	</g>
</g>
<g>
</g>
<g>
</g>
<g>
</g>
<g>
</g>
<g>
</g>
<g>
</g>
<g>
</g>
<g>
</g>
<g>
</g>
<g>
</g>
<g>
</g>
<g>
</g>
<g>
</g>
<g>
</g>
<g>
</g>
</svg>
