<?xml version="1.0" encoding="iso-8859-1"?>
<!-- Generator: Adobe Illustrator 18.0.0, SVG Export Plug-In . SVG Version: 6.00 Build 0)  -->
<!DOCTYPE svg PUBLIC "-//W3C//DTD SVG 1.1//EN" "http://www.w3.org/Graphics/SVG/1.1/DTD/svg11.dtd">
<svg version="1.1" id="Capa_1" xmlns="http://www.w3.org/2000/svg" xmlns:xlink="http://www.w3.org/1999/xlink" x="0px" y="0px"
	 viewBox="0 0 395.438 395.438" style="enable-background:new 0 0 395.438 395.438;" xml:space="preserve">
<g>
	<g>
		<g>
			<path d="M330.037,89.872c-6.537,0-12.682-2.546-17.304-7.167c-9.54-9.542-9.54-25.065-0.001-34.606
				c4.623-4.622,10.768-7.167,17.303-7.167c6.537,0,12.682,2.545,17.304,7.166c9.54,9.542,9.54,25.066,0.001,34.606
				C342.719,87.326,336.574,89.872,330.037,89.872z M330.035,55.932c-2.529,0-4.907,0.985-6.695,2.773
				c-3.691,3.692-3.691,9.7,0,13.394c1.789,1.788,4.167,2.773,6.697,2.773c2.529,0,4.907-0.985,6.695-2.773
				c3.692-3.692,3.692-9.701,0-13.395C334.944,56.917,332.566,55.932,330.035,55.932z"/>
		</g>
		<path d="M393.241,60.631L334.809,2.197c-1.406-1.406-3.314-2.196-5.303-2.196c-1.989,0-3.896,0.79-5.303,2.196L2.197,324.199
			C0.791,325.607,0,327.514,0,329.503c0,1.989,0.791,3.896,2.197,5.304l58.434,58.434c1.406,1.406,3.314,2.196,5.303,2.196
			c1.989,0,3.896-0.79,5.303-2.196L393.241,71.238C396.17,68.309,396.17,63.561,393.241,60.631z M65.934,377.33l-47.826-47.827
			l20.474-20.475l23.914,23.915c1.464,1.464,3.384,2.196,5.304,2.196c1.918,0,3.838-0.732,5.303-2.196
			c2.93-2.93,2.93-7.678,0-10.607l-23.914-23.914l14.26-14.259l23.914,23.915c1.465,1.464,3.384,2.196,5.303,2.196
			c1.92,0,3.84-0.732,5.304-2.196c2.929-2.93,2.929-7.678,0-10.608l-23.914-23.914l14.258-14.258l23.914,23.914
			c1.464,1.464,3.384,2.196,5.304,2.196c1.919,0,3.838-0.732,5.303-2.196c2.93-2.93,2.93-7.678,0-10.607l-23.914-23.913
			l14.26-14.259l23.914,23.914c1.464,1.464,3.383,2.196,5.303,2.196s3.839-0.732,5.303-2.196c2.93-2.93,2.93-7.678,0-10.607
			l-23.912-23.913l14.258-14.259l23.912,23.914c1.465,1.464,3.385,2.196,5.304,2.196c1.919,0,3.839-0.732,5.304-2.196
			c2.929-2.93,2.929-7.678,0-10.607l-23.912-23.913l14.258-14.258l23.914,23.913c1.464,1.464,3.383,2.196,5.303,2.196
			c1.92,0,3.839-0.732,5.303-2.196c2.93-2.93,2.93-7.678,0-10.607l-23.912-23.913l14.258-14.258l23.912,23.913
			c1.465,1.464,3.385,2.196,5.304,2.196c1.919,0,3.839-0.732,5.304-2.196c2.929-2.93,2.929-7.678,0-10.607l-23.913-23.913
			l14.259-14.258l23.913,23.914c1.465,1.465,3.384,2.197,5.304,2.197c1.92,0,3.839-0.732,5.303-2.196
			c2.93-2.929,2.93-7.678,0.001-10.606l-23.913-23.916l14.258-14.258l23.912,23.913c1.465,1.464,3.385,2.196,5.304,2.196
			c1.919,0,3.839-0.732,5.304-2.196c2.929-2.93,2.929-7.678,0-10.607l-23.912-23.912l14.258-14.259l23.914,23.913
			c1.465,1.464,3.383,2.196,5.303,2.196s3.839-0.732,5.304-2.197c2.929-2.929,2.929-7.678-0.001-10.606l-23.913-23.912l56.53-56.529
			l47.826,47.827L65.934,377.33z"/>
	</g>
</g>
<g>
</g>
<g>
</g>
<g>
</g>
<g>
</g>
<g>
</g>
<g>
</g>
<g>
</g>
<g>
</g>
<g>
</g>
<g>
</g>
<g>
</g>
<g>
</g>
<g>
</g>
<g>
</g>
<g>
</g>
</svg>
