<?xml version="1.0" encoding="iso-8859-1"?>
<!-- Generator: Adobe Illustrator 19.0.0, SVG Export Plug-In . SVG Version: 6.00 Build 0)  -->
<svg version="1.1" id="Layer_1" xmlns="http://www.w3.org/2000/svg" xmlns:xlink="http://www.w3.org/1999/xlink" x="0px" y="0px"
	 viewBox="0 0 512 512" style="enable-background:new 0 0 512 512;" xml:space="preserve">
<g>
	<g>
		<g>
			<path d="M351.919,234.532V110.359h-79.972V88.863c0-23.734-9.247-46.049-26.03-62.833C229.134,9.244,206.824,0,183.085,0
				s-46.054,9.244-62.84,26.033c-16.781,16.783-26.025,39.099-26.025,62.833v21.494H14.25V512h174.039h8.893H497.75V234.532H351.919
				z M112.012,88.865c0-18.982,7.388-36.831,20.81-50.255c13.43-13.425,31.276-20.818,50.263-20.818
				c18.98,0,36.828,7.393,50.253,20.818c13.425,13.425,20.818,31.273,20.818,50.255v21.494H112.012V88.865z M32.042,494.208V128.151
				h62.177v33.326c-10.246,3.663-17.6,13.462-17.6,24.95c0,14.607,11.886,26.491,26.496,26.491
				c14.602,0,26.486-11.883,26.486-26.491c0-11.486-7.35-21.285-17.59-24.949v-33.327h142.144v33.326
				c-10.246,3.663-17.597,13.462-17.597,24.95c0,14.607,11.884,26.491,26.496,26.491c14.605,0,26.486-11.883,26.486-26.491
				c0-11.488-7.35-21.287-17.592-24.95v-33.326h62.18v106.381H188.289v259.676H32.042z M111.809,186.429
				c0,4.795-3.899,8.699-8.694,8.699c-4.8,0-8.704-3.904-8.704-8.699s3.904-8.699,8.704-8.699
				C107.91,177.731,111.809,181.635,111.809,186.429z M271.748,186.429c0,4.795-3.899,8.699-8.694,8.699
				c-4.797,0-8.704-3.904-8.704-8.699s3.907-8.699,8.704-8.699C267.849,177.731,271.748,181.635,271.748,186.429z M479.955,494.208
				H206.079V252.324h273.876V494.208z"/>
			<path d="M264.452,333.098v11.622c0,20.982,8.172,40.709,23.014,55.552s34.57,23.012,55.547,23.012
				c20.987,0,40.717-8.172,55.56-23.012c14.835-14.843,23.004-34.57,23.004-55.552v-11.622c10.362-3.67,17.807-13.557,17.807-25.16
				c0-14.717-11.981-26.688-26.703-26.688c-14.705,0-26.67,11.971-26.67,26.688c0,11.598,7.431,21.483,17.774,25.156v11.626
				c0,16.228-6.321,31.491-17.795,42.97c-11.482,11.482-26.744,17.802-42.977,17.802c-16.228,0-31.485-6.321-42.967-17.802
				c-11.479-11.479-17.805-26.737-17.805-42.97v-11.625c10.349-3.672,17.784-13.558,17.784-25.157
				c0-14.717-11.971-26.688-26.68-26.688c-14.723,0-26.696,11.971-26.696,26.688C246.65,319.54,254.091,329.428,264.452,333.098z
				 M412.681,299.041c4.915,0,8.914,3.994,8.911,8.896c0,4.905-3.996,8.899-8.911,8.899c-4.895,0-8.881-3.994-8.881-8.899
				C403.8,303.035,407.786,299.041,412.681,299.041z M273.345,299.041c4.9,0,8.888,3.994,8.888,8.896
				c0,4.905-3.988,8.899-8.888,8.899c-4.908,0-8.906-3.994-8.906-8.899C264.439,303.035,268.435,299.041,273.345,299.041z"/>
		</g>
	</g>
</g>
<g>
</g>
<g>
</g>
<g>
</g>
<g>
</g>
<g>
</g>
<g>
</g>
<g>
</g>
<g>
</g>
<g>
</g>
<g>
</g>
<g>
</g>
<g>
</g>
<g>
</g>
<g>
</g>
<g>
</g>
</svg>
