<svg height="512pt" viewBox="0 0 512 512" width="512pt" xmlns="http://www.w3.org/2000/svg"><path d="m234.667969 384h-224c-5.890625 0-10.667969-4.769531-10.667969-10.667969v-128c0-5.886719 4.777344-10.664062 10.667969-10.664062h176.917969l39.539062-39.542969c3.050781-3.0625 7.628906-3.96875 11.628906-2.3125 3.976563 1.652344 6.578125 5.542969 6.578125 9.855469v170.664062c0 5.898438-4.777343 10.667969-10.664062 10.667969zm-213.335938-21.332031h202.667969v-134.253907l-24.457031 24.460938c-1.996094 2.003906-4.714844 3.125-7.542969 3.125h-170.667969zm0 0"/><path d="m42.667969 320h74.664062v21.332031h-74.664062zm0 0"/><path d="m42.667969 277.332031h160v21.335938h-160zm0 0"/><path d="m277.332031 320c-1.375 0-2.761719-.257812-4.085937-.8125-3.988282-1.640625-6.578125-5.542969-6.578125-9.855469v-170.664062c0-5.890625 4.765625-10.667969 10.664062-10.667969h224c5.898438 0 10.667969 4.777344 10.667969 10.667969v128c0 5.898437-4.769531 10.664062-10.667969 10.664062h-176.917969l-39.539062 39.542969c-2.039062 2.035156-4.769531 3.125-7.542969 3.125zm10.667969-170.667969v134.253907l24.457031-24.460938c1.996094-2.003906 4.707031-3.125 7.542969-3.125h170.667969v-106.667969zm0 0"/><path d="m437.332031 213.332031h-96c-2.835937 0-5.546875-1.117187-7.539062-3.125l-64-64 15.082031-15.082031 60.875 60.875h87.167969l60.875-60.875 15.082031 15.082031-64 64c-1.996094 2.007813-4.703125 3.125-7.542969 3.125zm0 0"/><path d="m245.332031 42.667969h21.335938v21.332031h-21.335938zm0 0"/><path d="m224 448h64v21.332031h-64zm0 0"/><path d="m405.332031 106.667969h-298.664062v-21.335938h288v-32h21.332031v42.667969c0 5.886719-4.769531 10.667969-10.667969 10.667969zm0 0"/><path d="m362.667969 512h-213.335938c-29.40625 0-53.332031-23.925781-53.332031-53.332031h21.332031c0 17.640625 14.359375 32 32 32h213.335938c17.640625 0 32-14.359375 32-32v-160h21.332031v160c0 29.40625-23.925781 53.332031-53.332031 53.332031zm0 0"/><path d="m117.332031 213.332031h-21.332031v-160c0-29.40625 23.925781-53.332031 53.332031-53.332031h213.335938c29.40625 0 53.332031 23.925781 53.332031 53.332031h-21.332031c0-17.640625-14.359375-32-32-32h-213.335938c-17.640625 0-32 14.359375-32 32zm0 0"/><path d="m117.332031 458.667969h-21.332031v-42.667969c0-5.898438 4.777344-10.667969 10.667969-10.667969h298.664062v21.335938h-288zm0 0"/></svg>