<svg height="512pt" viewBox="0 -21 512 512" width="512pt" xmlns="http://www.w3.org/2000/svg"><path d="m42.667969 42.667969h21.332031v21.332031h-21.332031zm0 0"/><path d="m85.332031 42.667969h21.335938v21.332031h-21.335938zm0 0"/><path d="m128 42.667969h21.332031v21.332031h-21.332031zm0 0"/><path d="m202.667969 405.332031h21.332031v21.335938h-21.332031zm0 0"/><path d="m245.332031 405.332031h21.335938v21.335938h-21.335938zm0 0"/><path d="m288 405.332031h21.332031v21.335938h-21.332031zm0 0"/><path d="m480 469.332031h-448c-17.644531 0-32-14.355469-32-32v-309.332031h21.332031v309.332031c0 5.890625 4.789063 10.667969 10.667969 10.667969h448c5.886719 0 10.667969-4.777344 10.667969-10.667969v-330.664062h-480c-5.890625 0-10.667969-4.78125-10.667969-10.667969v-64c0-17.644531 14.355469-32 32-32h448c17.644531 0 32 14.355469 32 32v32h-21.332031v-32c0-5.878906-4.78125-10.667969-10.667969-10.667969h-448c-5.878906 0-10.667969 4.789063-10.667969 10.667969v53.332031h480c5.898438 0 10.667969 4.78125 10.667969 10.667969v341.332031c0 17.644531-14.355469 32-32 32zm0 0"/><path d="m234.667969 320h-21.335938c-5.886719 0-10.664062-4.769531-10.664062-10.667969v-106.664062c0-5.890625 4.777343-10.667969 10.664062-10.667969h21.335938c2.003906 0 3.957031.566406 5.652343 1.621094l85.332032 53.332031c3.117187 1.953125 5.015625 5.367187 5.015625 9.046875s-1.898438 7.09375-5.015625 9.046875l-85.332032 53.332031c-1.695312 1.054688-3.648437 1.621094-5.652343 1.621094zm-10.667969-21.332031h7.605469l68.265625-42.667969-68.265625-42.667969h-7.605469zm0 0"/><path d="m128 352h21.332031v42.667969h-21.332031zm0 0"/><path d="m458.667969 384h-288v-21.332031h277.332031v-213.335938h-384v213.335938h42.667969v21.332031h-53.335938c-5.886719 0-10.664062-4.769531-10.664062-10.667969v-234.664062c0-5.890625 4.777343-10.667969 10.664062-10.667969h405.335938c5.898437 0 10.664062 4.777344 10.664062 10.667969v234.664062c0 5.898438-4.765625 10.667969-10.664062 10.667969zm0 0"/></svg>