<svg height="512pt" viewBox="0 -31 512 512" width="512pt" xmlns="http://www.w3.org/2000/svg"><path d="m467 0h-422c-24.8125 0-45 20.1875-45 45v360c0 24.8125 20.1875 45 45 45h422c24.8125 0 45-20.1875 45-45v-360c0-24.8125-20.1875-45-45-45zm-226 390v30h-90v-30zm30 0h90v30h-90zm-241-30v-270h452v270zm241-300v-30h90v30zm-30 0h-90v-30h90zm241-15v15h-91v-30h76c8.269531 0 15 6.730469 15 15zm-437-15h76v30h-91v-15c0-8.269531 6.730469-15 15-15zm-15 375v-15h91v30h-76c-8.269531 0-15-6.730469-15-15zm437 15h-76v-30h91v15c0 8.269531-6.730469 15-15 15zm0 0"/><path d="m325 213-120-90c-9.898438-7.421875-24-.296875-24 12v180c0 5.683594 3.210938 10.875 8.292969 13.417969 5.070312 2.535156 11.15625 1.996093 15.707031-1.417969l120-90c3.777344-2.832031 6-7.277344 6-12s-2.222656-9.167969-6-12zm-114 72v-120l80 60zm0 0"/></svg>