<?xml version="1.0" encoding="utf-8"?>
<!-- Generator: Adobe Illustrator 18.0.0, SVG Export Plug-In . SVG Version: 6.00 Build 0)  -->
<!DOCTYPE svg PUBLIC "-//W3C//DTD SVG 1.1//EN" "http://www.w3.org/Graphics/SVG/1.1/DTD/svg11.dtd">
<svg version="1.1" id="icon-shaw" xmlns="http://www.w3.org/2000/svg" xmlns:xlink="http://www.w3.org/1999/xlink" x="0px" y="0px"
	 viewBox="0 0 160 160" style="enable-background:new 0 0 160 160;" xml:space="preserve">
<path d="M28.2045898,160.0019531c-7.2050781,0-14.4082031-2.7373047-19.8930664-8.2109375
	c-9.8603516-10.0664063-13.0112305-26.9433594,2.1049805-42.0292969c1.5629883-1.5605469,4.0957031-1.5585938,5.6567383,0.0058594
	c1.5605469,1.5634766,1.5581055,4.0957031-0.0053711,5.65625c-11.9980469,11.9746094-8.9375,23.7285156-2.0732422,30.7373047
	c7.8227539,7.8056641,20.6010742,7.8056641,28.4541016-0.0322266c12.0410156-12.0419922,16.340332-16.4033203,19.7949219-19.9082031
	c3.0361328-3.0791016,5.5429688-5.6220703,12.1254883-12.1865234c-0.2416992-0.1542969-0.4702148-0.3359375-0.6811523-0.546875
	L8.2416992,48.1708984C2.9355469,42.875,0.0131836,35.7851563,0.0131836,28.206543s2.9223633-14.668457,8.2285156-19.9643555
	c9.581543-9.5629883,26.840332-12.9228516,42.0908203,2.2973633c1.5634766,1.5605469,1.565918,4.0927734,0.0053711,5.6567383
	c-1.5610352,1.5629883-4.09375,1.5654297-5.6567383,0.0053711C32.4702148,4.0151367,20.4643555,7.3476563,13.8930664,13.9042969
	c-3.7919922,3.784668-5.8798828,8.8637695-5.8798828,14.3022461s2.0878906,10.5175781,5.8798828,14.3022461l31.9555664,31.8920898
	c0.1542969-0.2407227,0.3364258-0.4682617,0.546875-0.6782227c9.8334961-9.8139648,59.2089844-59.09375,65.5634766-65.4990234
	c10.9833984-10.9624023,28.8330078-10.9619141,39.8027344-0.0141602C157.0830078,13.5200195,160.0087891,20.4013672,160,27.5859375
	c-0.0097656,7.9814453-3.6572266,15.8168945-10.546875,22.6591797c-1.5683594,1.5556641-4.1015625,1.5483398-5.65625-0.019043
	c-1.5566406-1.5673828-1.5478516-4.1000977,0.0195313-5.6567383C149.1630859,39.2587891,151.9931641,33.3828125,152,27.5761719
	c0.0058594-5.0410156-2.0849609-9.9082031-5.8886719-13.7045898c-7.8544922-7.8378906-20.6328125-7.8359375-28.4873047,0
	c-3.2255859,3.2524414-17.5458984,17.5605469-32.1503906,32.1445313c0.2509766,0.1567383,0.4882813,0.3442383,0.7060547,0.5625
	l65.578125,65.4477539c5.3066406,5.2958984,8.2285156,12.3505859,8.2285156,19.8652344
	c0,7.515625-2.921875,14.5703125-8.2285156,19.8662109c-5.2451172,5.2353516-12.0400391,8.1533203-19.1347656,8.2167969
	c-0.078125,0.0009766-0.1582031,0.0009766-0.2373047,0.0009766c-8.0048828,0.0009766-15.8574219-3.6337891-22.7255859-10.5224609
	c-1.5595703-1.5644531-1.5556641-4.0966797,0.0087891-5.6572266c1.5634766-1.5595703,4.0957031-1.5566406,5.6572266,0.0087891
	c5.3320313,5.3486328,11.2294922,8.1708984,17.0625,8.1708984c0.0546875,0,0.1083984,0,0.1630859,0
	c4.9873047-0.0449219,9.8007813-2.1328125,13.5556641-5.8798828c3.7910156-3.7841797,5.8789063-8.828125,5.8789063-14.2041016
	c0-5.375-2.0878906-10.4189453-5.8789063-14.203125l-31.9921875-31.9277344
	c-0.1308594,0.1855469-0.2802734,0.3613281-0.4472656,0.5263672
	c-35.9360352,35.6181641-39.8310547,39.5693359-45.7265625,45.5498047
	c-3.4638672,3.5136719-7.7744141,7.8867188-19.8383789,19.9511719
	C42.6166992,157.2636719,35.409668,160.0019531,28.2045898,160.0019531z M51.3803711,79.921875l27.9589844,27.9033203
	c0.2172852,0.2167969,0.4038086,0.4521484,0.5610352,0.7011719c6.2373047-6.2050781,15.0712891-14.9716797,28.1367188-27.9208984
	c0.1552734-0.1547852,0.3212891-0.2939453,0.4941406-0.4174805L80.5288086,52.2407227
	c-0.2216797-0.2211914-0.4121094-0.4619141-0.5712891-0.7172852C67.7250977,63.7373047,56.2587891,75.1816406,52.046875,79.3847656
	C51.840332,79.5913086,51.6166992,79.7700195,51.3803711,79.921875z"/>
</svg>
