<?xml version="1.0" encoding="utf-8"?>
<!-- Generator: Adobe Illustrator 23.0.0, SVG Export Plug-In . SVG Version: 6.00 Build 0)  -->
<svg version="1.1" id="icon-163music" xmlns="http://www.w3.org/2000/svg" xmlns:xlink="http://www.w3.org/1999/xlink" x="0px"
	 y="0px" viewBox="0 0 160 160" style="enable-background:new 0 0 160 160;" xml:space="preserve">
<path d="M83.0228653,159.9852448c-17.5244141,0.0009766-34.5488243-6.3574219-49.102047-18.5498047
	C13.8090019,125.3465805,4.0736499,97.6063461,9.1888847,70.8207016
	c5.3154297-27.8359413,25.6728516-49.1049843,55.8515587-58.3530312c2.109375-0.6464844,4.3491211,0.5395508,4.9960938,2.6523438
	c0.6474609,2.1118164-0.5400391,4.3491211-2.6523438,4.9960938c-27.2490196,8.3510742-45.5966759,27.3789063-50.3373985,52.2050819
	c-4.5654297,23.9091797,4.046875,48.6083984,21.9418945,62.9247971
	c16.8540039,14.1191406,37.2377892,19.5517578,57.4648399,15.3447266
	c17.9335938-3.7265625,33.4472733-14.7900391,40.4882889-28.8730392l0.0595703-0.1132813
	c9.5410156-17.6503906,9.5234375-37.0039063-0.046875-51.7700195c-8.0322266-12.3920937-21.2343826-19.479496-36.8056717-19.9668007
	l8.1767578,29.217289c3.7949219,16.4453125-6.5517578,27.8144531-17.7705078,31.4179688
	c-11.4760742,3.6855469-26.805172,0.5087891-33.3427696-15.1806641
	c-4.8779297-11.3818359-4.3984375-23.1176758,1.3657227-33.0092812
	c5.992672-10.2841797,17.2475548-17.3691406,31.2123985-19.7685547l-4.0761719-14.5585938
	C82.675209,17.3485298,86.8304825,7.3929634,96.3060684,2.6429634c10.5302734-5.2807617,26.9130859-3.1201172,37.8418045,11.2246094
	c1.3388672,1.7573242,1,4.2670898-0.7578125,5.605957c-1.7568359,1.3388672-4.2675781,0.9990234-5.6054764-0.7573242
	c-8.2910156-10.8823242-20.3085938-12.7246094-27.8935547-8.9213867c-6.0546875,3.0351563-8.4765625,9.0214844-6.4794922,16.0136719
	l4.4921875,16.0395508c0.1201172-0.0004883,0.2412109-0.0009766,0.3613281-0.0009766
	c18.9414063,0,35.6748123,8.6269531,45.4023514,23.6362343c11.1757813,17.2441406,11.3242188,39.6210938,0.4013672,59.8701172
	c-8.1230469,16.1943283-25.7373123,28.8622971-45.9873123,33.0703049
	C93.0531387,159.4686432,88.0160294,159.9852448,83.0228653,159.9852448z M91.9613419,50.2953072
	c-12.0014648,1.8632813-21.5708008,7.6357422-26.4716797,16.045414c-4.4565392,7.6484375-4.7792931,16.8349609-0.9082031,25.8681641
	c4.6347656,11.1210938,15.1552734,13.3681641,23.5273438,10.6777344
	c7.4980469-2.4091797,15.2421875-9.5917969,12.4414063-21.9169922L91.9613419,50.2953072z"/>
</svg>
