<?xml version="1.0" encoding="utf-8"?>
<!-- Generator: Adobe Illustrator 23.0.0, SVG Export Plug-In . SVG Version: 6.00 Build 0)  -->
<svg version="1.1" id="icon-163study" xmlns="http://www.w3.org/2000/svg" xmlns:xlink="http://www.w3.org/1999/xlink" x="0px"
	 y="0px" viewBox="0 0 160 160" style="enable-background:new 0 0 160 160;" xml:space="preserve">
<path d="M57.9916992,160c-0.5019531,0-1.0083008-0.0947266-1.4926758-0.2890625
	c-1.5141602-0.609375-2.5063477-2.078125-2.5063477-3.7109375v-10.7246094H11.4389648
	c-1.246582,0-2.421875-0.5810547-3.1787109-1.5722656l-7.4389648-9.7382813C0.2885742,133.2675781,0,132.4150391,0,131.5371094
	V25.1376953c0-1.9584961,1.4179688-3.6289063,3.3500977-3.9467773L131.7324219,0.0532227
	c1.1552734-0.1914063,2.3417969,0.137207,3.2382813,0.8974609c0.8945313,0.7597656,1.4111328,1.875,1.4111328,3.0493164v21.3422852
	l19.5478516-0.3417969c1.0556641-0.0288086,2.1083984,0.394043,2.8740234,1.1464844C159.5693359,26.8989258,160,27.9272461,160,29
	v113c0,1.0644531-0.4248047,2.0859375-1.1796875,2.8369141c-0.7558594,0.7509766-1.8037109,1.1367188-2.84375,1.1630859
	l-82.371582-0.4775391l-12.7275391,13.2490234C60.1079102,159.5722656,59.0600586,160,57.9916992,160z M61.9926758,141.2753906
	V146.0625l7.015625-7.3027344L90.8310547,115.5c0.578125-0.6162109,1.3378906-1.0341797,2.1679688-1.1923828l35.3828125-6.7421875
	V8.7124023L8,28.5332031v101.6513672l5.4169922,7.0908203h3.2402344l-3.7612305-8.6855469
	c-0.4936523-1.1416016-0.4291992-2.4472656,0.1748047-3.5332031c0.6040039-1.0869141,1.6791992-1.8310547,2.9086914-2.0136719
	l41.4257813-6.1503906c1.1503906-0.1650391,2.3193359,0.1689453,3.199707,0.9277344
	c0.8813477,0.7597656,1.3876953,1.8662109,1.3876953,3.0292969V141.2753906z M81.0986328,137.5654297L152,137.9765625v-104.90625
	l-15.6181641,0.2729492V110.875c0,1.9208984-1.3652344,3.5693359-3.2509766,3.9296875l-37.3554688,7.1181641L81.0986328,137.5654297
	z M25.375,137.2753906h28.6176758v-11.7880859l-31.6850586,4.7041016L25.375,137.2753906z"/>
</svg>
