<?xml version="1.0" encoding="utf-8"?>
<!-- Generator: Adobe Illustrator 23.0.0, SVG Export Plug-In . SVG Version: 6.00 Build 0)  -->
<svg version="1.1" id="icon-admin" xmlns="http://www.w3.org/2000/svg" xmlns:xlink="http://www.w3.org/1999/xlink" x="0px" y="0px"
	 viewBox="0 0 160 160" style="enable-background:new 0 0 160 160;" xml:space="preserve">
<path d="M99.1724548,148.8076172c-0.0703125,0-0.1396484,0-0.2099609-0.0019531H15.401947
	c-8.4921875,0-15.4013672-6.9091797-15.4013672-15.4013672v-9.8808594c0-19.1123047,15.4765625-33.5244141,36-33.5244141h4.871582
	l1.0585938,0.484375c5.0751953,2.3222656,9.8691406,4.515625,15.0698242,4.515625
	c5.5336914,0,11.6337891-2.4765625,16.3300781-4.6347656l0.7949219-0.3652344h4.875
	c2.5039063,0,4.6728516,0.203125,6.4970703,0.6064453c1.7675781-3.9462891,4.1787109-7.6074219,7.109375-10.7734375
	c1.8095703-1.9638672,4.7978516-2.4145508,7.0986328-1.0634766l3.7744141,2.1796875
	c1.6025391-1.1347656,3.3046875-2.1166992,5.0927734-2.9384766v-4.390625c0-2.6879883,1.9023438-5.0429688,4.5234375-5.5991211
	c5.6416016-1.277832,11.6865234-1.277832,17.4296875,0.0092773c2.5771484,0.546875,4.4794922,2.9018555,4.4794922,5.5898438
	v4.390625c1.7890625,0.8222656,3.4902344,1.8037109,5.0927734,2.9384766l3.7998047-2.1943359
	c2.3623047-1.3413086,5.265625-0.887207,7.0820313,1.0883789c3.9921875,4.3120117,7.0253906,9.5561523,8.7617188,15.1567383
	c0.7929688,2.6191406-0.2919922,5.3574219-2.6308594,6.6835938l-3.7734375,2.1787109
	c0.1826172,1.9570313,0.1826172,3.921875,0,5.8798828l3.7998047,2.1943359
	c2.3212891,1.3603516,3.3857422,4.0869141,2.6123047,6.6416016c-1.7441406,5.6269531-4.7773438,10.8710938-8.7783203,15.1933594
	c-1.8066406,1.9648438-4.7958984,2.4160156-7.0986328,1.0634766l-3.7744141-2.1796875
	c-1.6025391,1.1357422-3.3046875,2.1171875-5.0927734,2.9384766v4.390625c0,2.6894531-1.9033203,5.0449219-4.5263672,5.5996094
	c-5.6357422,1.2773438-11.6816406,1.2792969-17.4267578-0.0097656c-1.6806641-0.3554688-3.0751953-1.4824219-3.8417969-2.9697266
	C106.8355408,145.9130859,103.5162048,148.8076172,99.1724548,148.8076172z M36.0005798,97.9990234
	c-16.2241211,0-28,10.734375-28,25.5244141v9.8808594c0,4.0810547,3.3203125,7.4013672,7.4013672,7.4013672l83.71875,0.0019531
	c0.0136719,0,0.0283203,0,0.0419922,0c1.8945313,0,4.3183594-3.5449219,5.9101563-7.0966797
	c-0.5410156-0.3359375-1.0722656-0.6884766-1.5927734-1.0566406l-3.7998047,2.1943359
	c-2.359375,1.3427734-5.2626953,0.8876953-7.0800781-1.0859375c-4.0087891-4.3564453-7.0380859-9.5976563-8.7636719-15.1582031
	c-0.7929688-2.6201172,0.2919922-5.3583984,2.6308594-6.6845703l3.7734375-2.1796875
	c-0.1816406-1.9570313-0.1816406-3.9208984,0-5.8779297l-3.7998047-2.1953125
	c-1.2773438-0.7490234-2.1738281-1.9101563-2.59375-3.2294922c-1.0576172-0.2314453-2.6748047-0.4384766-4.8466797-0.4384766
	h-3.1318359c-5.3271484,2.4033203-12.1269531,5-18.8681641,5c-6.7177734,0-12.6323242-2.6054688-17.871582-5H36.0005798z
	 M116.5728455,138.109375c3.4726563,0.5712891,7.015625,0.5703125,10.4326172,0.0048828v-8.0322266l2.6601563-0.9453125
	c2.7636719-0.9824219,5.2890625-2.4404297,7.5078125-4.3339844l2.1503906-1.8339844l6.9550781,4.0166016
	c2.234375-2.7089844,4.0166016-5.7880859,5.2412109-9.0556641l-6.9570313-4.0175781l0.5126953-2.7783203
	c0.53125-2.875,0.53125-5.7900391,0-8.6650391l-0.5126953-2.7783203l6.9580078-4.0185547
	c-1.2216797-3.2607422-3.0058594-6.3457031-5.2412109-9.0556641l-6.9560547,4.0175781l-2.1503906-1.8339844
	c-2.2167969-1.8916016-4.7431641-3.3496094-7.5087891-4.3339844l-2.6591797-0.9462891v-8.0263672
	c-3.4726563-0.5717773-7.0146484-0.5717773-10.4326172-0.0043945v8.0307617l-2.6591797,0.9462891
	c-2.7636719,0.9833984-5.2910156,2.4414063-7.5097656,4.3339844l-2.1494141,1.8339844l-6.9550781-4.0166016
	c-2.2333984,2.7070313-4.0146484,5.7871094-5.2412109,9.0556641l6.9560547,4.0175781l-0.5117188,2.7763672
	c-0.5302734,2.8759766-0.5302734,5.7929688,0,8.6689453l0.5117188,2.7763672l-6.9570313,4.0175781
	c1.2177734,3.2412109,3.0039063,6.3251953,5.2460938,9.0537109l6.9511719-4.0146484l2.1494141,1.8339844
	c2.2207031,1.8935547,4.7470703,3.3515625,7.5087891,4.3339844l2.6601563,0.9453125V138.109375z M128.7671814,137.7685547
	c-0.0195313,0.0039063-0.0380859,0.0087891-0.0576172,0.0126953
	C128.7290955,137.7773438,128.7476501,137.7734375,128.7671814,137.7685547z M114.7554626,137.7568359
	c0.0175781,0.0039063,0.0351563,0.0078125,0.0517578,0.0117188
	C114.7906189,137.7636719,114.7730408,137.7607422,114.7554626,137.7568359z M145.1001892,128.3359375
	c-0.0029297,0.0029297-0.0058594,0.0058594-0.0087891,0.0097656
	C145.0943298,128.3417969,145.0972595,128.3388672,145.1001892,128.3359375z M147.8697205,127.9042969l0.0283203,0.0166016
	C147.8892517,127.9150391,147.8794861,127.9091797,147.8697205,127.9042969z M90.471283,118.8457031l-0.0302734,0.0175781
	C90.4517517,118.8574219,90.4615173,118.8515625,90.471283,118.8457031z M153.1372986,94.7392578
	c-0.0107422,0.0058594-0.0205078,0.0117188-0.0302734,0.0166016L153.1372986,94.7392578z M95.6802673,85.6816406
	c0.0087891,0.0058594,0.0185547,0.0117188,0.0283203,0.0166016L95.6802673,85.6816406z M145.1001892,85.2675781
	c0.0029297,0.0029297,0.0058594,0.0058594,0.0087891,0.0087891
	C145.1060486,85.2734375,145.1031189,85.2705078,145.1001892,85.2675781z M98.4849548,85.2597656
	c-0.0019531,0.0019531-0.0039063,0.0039063-0.0068359,0.0068359C98.4810486,85.2646484,98.4830017,85.2617188,98.4849548,85.2597656
	z M128.7710876,75.8344727c0.0166016,0.0039063,0.0322266,0.0073242,0.0488281,0.0107422
	C128.8033142,75.8417969,128.7876892,75.8378906,128.7710876,75.8344727z M114.8658142,75.8212891
	c-0.0185547,0.0043945-0.0371094,0.0083008-0.0546875,0.0126953
	C114.8287048,75.8300781,114.8472595,75.8256836,114.8658142,75.8212891z M121.8130798,120.8017578c-7.7197266,0-14-6.2802734-14-14
	s6.2802734-14,14-14s14,6.2802734,14,14S129.5328064,120.8017578,121.8130798,120.8017578z M121.8130798,100.8017578
	c-3.3085938,0-6,2.6914063-6,6s2.6914063,6,6,6s6-2.6914063,6-6S125.1216736,100.8017578,121.8130798,100.8017578z
	 M57.2061462,79.9990234c-18.9702148,0-34.4033203-15.4331055-34.4033203-34.4033203s15.4331055-34.4033203,34.4033203-34.4033203
	c18.9697266,0,34.402832,15.4331055,34.402832,34.4033203S76.1758728,79.9990234,57.2061462,79.9990234z M57.2061462,19.1923828
	c-14.559082,0-26.4033203,11.8442383-26.4033203,26.4033203s11.8442383,26.4033203,26.4033203,26.4033203
	c14.5585938,0,26.402832-11.8442383,26.402832-26.4033203S71.76474,19.1923828,57.2061462,19.1923828z"/>
</svg>
