<?xml version="1.0" encoding="utf-8"?>
<!-- Generator: Adobe Illustrator 23.0.0, SVG Export Plug-In . SVG Version: 6.00 Build 0)  -->
<svg version="1.1" id="icon-aliww" xmlns="http://www.w3.org/2000/svg" xmlns:xlink="http://www.w3.org/1999/xlink" x="0px" y="0px"
	 viewBox="0 0 160 160" style="enable-background:new 0 0 160 160;" xml:space="preserve">
<path d="M77.5161743,158.9232025c-21.4770508,0-41.5908203-7.09375-55.9296875-19.8837891
	C8.5825796,127.4398117,0.9424431,111.6448898,0.0733025,94.5628586
	c-1.1342773-22.4047852,11.0605469-43.762207,35.265625-61.7651367c5.1884766-3.8671894,6.6606445-8.5625019,4.6303711-14.7734394
	c-0.6655273-2.14746-1.8105469-4.1728506-2.8208008-5.95996c-1.659668-2.9360352-3.7163086-6.5761724-1.0009766-9.4438477
	c2.3730469-2.7128906,6.2392578-1.6386719,13.3486328,1.5766599c4.4018555,1.9916992,9.6113281,4.7373052,12.9633789,6.8320317
	c6.6875,3.9980469,10.8823242,5.010253,20.0732422,7.2270498c1.53125,0.3696289,3.1894531,0.7695313,5.0068359,1.2192383
	l0.296875,0.0737305c16.6757813,4.15625,33.9199219,8.4536133,47.7988281,19.1958027l0.0498047,0.0390625
	c16.4355469,13.1411133,24.8349609,30.1240234,24.2890625,49.1137695
	c-0.9179688,39.5390625-31.5595703,68.0117111-76.2470703,70.8290939
	C81.6470337,158.8587494,79.5747681,158.9232025,77.5161743,158.9232025z M45.843811,11.3289709
	c0.6508789,1.3056641,1.2729492,2.734375,1.7485352,4.269043c3.0966797,9.4711905,0.5180664,17.6582031-7.4755859,23.6162109
	C24.7998657,50.6063156,6.8086538,69.3836594,8.0630484,94.1575851
	c0.7705078,15.1445313,7.2880859,28.6005859,18.8486328,38.9121017
	c14.1274414,12.6025391,34.652832,19.0410156,56.3105469,17.6728516
	c40.3085938-2.5410156,67.9384766-27.8798752,68.7548828-63.0527267
	c0.2929688-10.1967773-2.4404297-19.7509766-8.0097656-28.2875977c1.9433594,4.3452148,3.1572266,9.5200195,3.7216797,14.0585938
	c1.7294922,16.9233398-4.5302734,24.6352539-10.4121094,26.1235352l-0.0722656,0.0175781
	c-3.9648438,0.9208984-9.5048828-0.609375-13.3642578-13.1767578l-0.7480469-2.4375l1.8935547-1.7070313
	c0.6806641-0.6132813,1.3291016-1.2119141,1.9550781-1.7890625c1.4628906-1.3491211,2.8447266-2.6230469,4.265625-3.7597656
	c0.3544922-0.2915039,0.7167969-0.5961914,1.0869141-0.9111328c-0.2548828-0.0458984-0.4902344-0.0893555-0.7001953-0.128418
	l-0.2128906-0.0458984c-1.1523438-0.2802734-2.5048828-0.5180664-3.9365234-0.7695313
	c-0.9570313-0.168457-1.9501953-0.3432617-2.9697266-0.543457l-3.2285156-0.6347656v-3.2900391
	c0-11.675293,3.8837891-19.3266602,10.390625-20.4672852c1.8417969-0.347168,3.7294922-0.0268555,5.4960938,0.9365234
	c-1.9541016-2.0224609-4.09375-3.965332-6.4189453-5.8256836c-12.5449219-9.6987305-28.9482422-13.786623-44.8115234-17.7402363
	l-0.2910156-0.0722656c-1.7939453-0.4438477-3.4365234-0.840332-4.9541016-1.2060547
	c-9.3950195-2.2666016-14.5703125-3.5151367-22.3701172-8.1791992
	C54.6387329,15.5745764,49.7437134,13.0740881,45.843811,11.3289709z M132.2925415,86.4388351
	c1.3984375,3.6962891,2.6816406,5.0771484,3.1699219,5.3466797c1.9257813-0.6386719,4.3896484-4.3691406,4.5234375-12.0810547
	c-1.2734375,1.1547852-2.5419922,2.2548828-3.7382813,3.2392578c-1.2451172,0.9960938-2.4677734,2.1240234-3.8828125,3.4287109
	C132.3403931,86.3948898,132.315979,86.4173508,132.2925415,86.4388351z M133.1626587,67.8470383
	c2.2597656,0.4199219,4.2851563,0.7416992,5.5644531,0.9257813c-1.7314453-7.1098633-4.5283203-10.894043-5.6523438-10.9624023
	c-1.3896484,0.2441406-3.1777344,3.5405273-3.6875,9.2856445C130.7046509,67.3284836,131.9605103,67.5584641,133.1626587,67.8470383
	z M92.2651978,107.5081711c-3.5439453,0-9.0517578-1.9785156-13.2060547-12.5253906l-0.9467773-2.4033203L89.0278931,81.428093
	c-0.7587891-0.1533203-1.6064453-0.3251953-2.5537109-0.5180664l-11.253418-2.34375l-0.0605469-3.1899414
	C74.9434204,63.924675,78.9336548,56.490593,85.8345337,55.490593l0.1289063-0.0166016
	c8.9501953-0.9970703,16.3710938,8.6538086,18.8955078,24.5976563c1.4355469,9.0488281-0.1669922,17.8691406-4.1845703,23.0185547
	c-2.0136719,2.5800781-4.5283203,4.0830078-7.2763672,4.3505859
	C93.0493774,107.4818039,92.6704712,107.5081711,92.2651978,107.5081711z M87.5288696,94.3724289
	c1.8417969,3.703125,3.7890625,5.2792969,4.9287109,5.1230469l0.15625-0.0166016
	c0.4990234-0.0439453,1.1376953-0.5214844,1.7529297-1.3105469c1.8759766-2.4033203,3.3574219-7.40625,2.9433594-13.7109375
	l-5.1367188,5.1396484L87.5288696,94.3724289z M83.2349243,72.0633469l4.8525391,1.0107422
	c2.3398438,0.4760742,5.6386719,1.1474609,7.3183594,1.4550781c-2.4345703-7.8388672-6.2001953-11.3256836-8.4853516-11.1113281
	C85.2437134,63.7269211,83.6157837,66.7332687,83.2349243,72.0633469z"/>
</svg>
