<?xml version="1.0" encoding="utf-8"?>
<!-- Generator: Adobe Illustrator 23.0.0, SVG Export Plug-In . SVG Version: 6.00 Build 0)  -->
<svg version="1.1" id="icon-android" xmlns="http://www.w3.org/2000/svg" xmlns:xlink="http://www.w3.org/1999/xlink" x="0px"
	 y="0px" viewBox="0 0 160 160" style="enable-background:new 0 0 160 160;" xml:space="preserve">
<path d="M63.4848633,160c-7.3676758,0-12.128418-4.8154297-12.128418-12.2675781v-16.5371094h-4.2143555
	c-6.1645508,0-12.2148438-6.0498047-12.2148438-12.2138672L35.0048828,53h89.9902344l0.0771484,65.9765625
	c0,6.1689453-6.0498047,12.21875-12.2138672,12.21875h-4.2148438v16.5371094c0,7.3554688-4.78125,12.1494141-12.1796875,12.2138672
	c-7.1337891,0.0585938-11.9863281-4.5673828-12.3974609-11.8222656c-0.3378906-1.9394531-0.390625-6.1347656-0.0058594-16.9287109
	h-8.2749023v16.5371094C75.7856445,155.0703125,70.8422852,160,63.4848633,160z M42.9951172,61l-0.0678711,57.9863281
	c0,1.8066406,2.402832,4.2089844,4.2148438,4.2089844h12.2143555v24.5371094c0,2.9912109,1.2348633,4.2675781,4.128418,4.2675781
	c2.9746094,0,4.3007813-1.3164063,4.3007813-4.2675781v-24.5371094h24.590332l-0.1640625,4.1582031
	c-0.2880859,7.2705078-0.4853516,15.8310547-0.3613281,18.5888672L92,146.1308594l0.0439453,1.3154297
	c0.1328125,3.984375,2.1816406,4.4892578,4.3525391,4.5c3.015625-0.0263672,4.2470703-1.2470703,4.2470703-4.2138672v-24.5371094
	h12.2148438c1.8115234,0,4.2138672-2.4023438,4.2138672-4.2138672L117.0048828,61H42.9951172z M139.5019531,109
	c-7.2871094,0-11.9960938-4.46875-11.9960938-11.3847656V64.3847656C127.5058594,57.46875,132.2148438,53,139.5019531,53
	c7.5166016,0,12.0039063,4.0229492,12.0039063,10.7607422v33.1416016C151.5058594,104.0253906,146.5693359,109,139.5019531,109z
	 M139.5019531,61c-3.5117188,0-3.9960938,1.6269531-3.9960938,3.3847656v33.2304688
	c0,1.7578125,0.484375,3.3847656,3.9960938,3.3847656c3.3095703,0,4.0039063-2.2285156,4.0039063-4.0976563V63.7607422
	C143.5058594,62.4033203,143.5058594,61,139.5019531,61z M20.4980469,109c-7.0678711,0-12.0039063-4.9462891-12.0039063-12.0273438
	V63.9746094C8.4941406,57.2050781,13.09375,53,20.4980469,53c7.2871094,0,11.9960938,4.46875,11.9960938,11.3847656v33.2304688
	C32.4941406,104.53125,27.7851563,109,20.4980469,109z M20.4980469,61c-4.0039063,0-4.0039063,1.6494141-4.0039063,2.9746094
	v32.9980469c0,1.8369141,0.6948242,4.0273438,4.0039063,4.0273438c3.512207,0,3.9960938-1.6269531,3.9960938-3.3847656V64.3847656
	C24.4941406,62.6269531,24.0102539,61,20.4980469,61z M125.0898438,49.0507813H34.9091797l0.0180664-4.0180664
	c0.0419922-9.2338867,4.6303711-18.3974609,12.5893555-25.1411133c2.4663086-2.0898438,5.203125-3.9023438,8.1547852-5.4179688
	l-5.90625-8.1210938c-1.2993164-1.7866211-0.9042969-4.2880859,0.8823242-5.5874023
	c1.7871094-1.2993164,4.2890625-0.9038086,5.5874023,0.8823242l7.065918,9.7158203
	c5.1757813-1.6162109,10.793457-2.4389648,16.6040039-2.4355469c6.1469727,0.0175781,11.7563477,0.9042969,16.7729492,2.4638672
	l7.0869141-9.7441406c1.2998047-1.7880859,3.8027344-2.1811523,5.5878906-0.8823242
	c1.7871094,1.2993164,2.1816406,3.8007813,0.8828125,5.5874023l-5.921875,8.1420898
	c13.2431641,6.7866211,20.7060547,18.8066406,20.7587891,30.5380859L125.0898438,49.0507813z M43.3476563,41.0507813h73.3183594
	c-2.4501953-12.4057617-15.8378906-24.0629883-36.784668-24.1230469l0,0c-0.0498047,0-0.1025391-0.0004883-0.1523438-0.0004883
	C59.300293,16.9272461,45.8442383,28.7832031,43.3476563,41.0507813z M96.4287109,38.621582c-4.5605469,0-8-3.4394531-8-8
	s3.4394531-8,8-8s8,3.4394531,8,8S100.9892578,38.621582,96.4287109,38.621582z M96.4462891,30.7631836L96.4462891,30.7631836
	L96.4462891,30.7631836z M63.5708008,38.621582c-4.5639648,0-8.0058594-3.4257813-8.0058594-7.9682617
	c0-4.5786133,3.4418945-8.0317383,8.0058594-8.0317383c4.5576172,0,7.9941406,3.4394531,7.9941406,8
	S68.128418,38.621582,63.5708008,38.621582z"/>
</svg>
