<?xml version="1.0" encoding="utf-8"?>
<!-- Generator: Adobe Illustrator 23.0.0, SVG Export Plug-In . SVG Version: 6.00 Build 0)  -->
<svg version="1.1" id="icon-apple" xmlns="http://www.w3.org/2000/svg" xmlns:xlink="http://www.w3.org/1999/xlink" x="0px" y="0px"
	 viewBox="0 0 160 160" style="enable-background:new 0 0 160 160;" xml:space="preserve">
<path d="M57.9362793,159.5385742c-10.1430664,0-19.7011719-7.7871094-27.6416016-22.5205078
	c-10.1972656-18.6806641-13.8193359-39.0380859-13.8193359-50.7890625c0-24.5151367,20.840332-46.0200195,44.5986328-46.0200195
	c6.0844727,0,10.1782227,2.3852539,13.7900391,4.4902344c3.0332031,1.7675781,5.4291992,3.1635742,8.7661133,3.1635742
	c5.2236328,0,9.5126953-2.0874023,13.6601563-4.105957c3.9833984-1.9384766,8.1015625-3.9433594,12.8115234-3.9433594
	c14.0253906,0,22.8232422,8.9213867,28.2216797,15.6313477l3.0966797,3.8505859l-4.5322266,2.2885742
	c-7.3603516,5.2954102-11.4101563,13.4086914-11.4101563,22.878418c0,11.4511719,5.0078125,19.5048828,15.7597656,25.3476563
	l1.8789063,1.0205078l0.1943359,2.1298828c0.0498047,0.5488281,0.2138672,2.4091797,0.2138672,3.3076172
	c0,8.5380859-4.3603516,19.1494141-11.3789063,27.6943359c-7.8212891,9.5224609-17.6425781,14.9833984-26.9443359,14.9833984
	c-4.3222656,0-8.4414063-1.4619141-12.4257813-2.8759766c-3.796875-1.3476563-7.3828125-2.6201172-10.9121094-2.6201172
	c-4.3681641,0-8.5390625,1.6103516-12.5722656,3.1679688C65.4016113,158.1196289,61.7277832,159.5385742,57.9362793,159.5385742z
	 M61.0739746,48.2089844c-17.3105469,0-36.5986328,15.6142578-36.5986328,38.0200195
	c0,10.8095703,3.3657227,29.5976563,12.8515625,46.9755859c4.5131836,8.3740234,11.7426758,18.3339844,20.609375,18.3339844
	c2.3007813,0,5.2988281-1.1582031,8.4726563-2.3837891c4.4975586-1.7363281,9.5952148-3.7050781,15.4545898-3.7050781
	c4.9072266,0,9.5185547,1.6367188,13.5878906,3.0810547c3.5,1.2421875,6.8056641,2.4150391,9.75,2.4150391
	c15.6357422,0,30.3232422-21.6337891,30.3232422-34.6777344c0-0.1064453-0.0078125-0.2900391-0.0214844-0.5224609
	c-11.9638672-7.1816406-18.0253906-17.6953125-18.0253906-31.2832031c0-10.8652344,4.2041016-20.3618164,11.9248047-27.137207
	c-4.5380859-4.9145508-10.6630859-9.5117188-19.3007813-9.5117188c-2.8662109,0-5.8525391,1.4536133-9.3105469,3.1367188
	c-4.7314453,2.3027344-10.09375,4.9125977-17.1611328,4.9125977c-5.4975586,0-9.3740234-2.2587891-12.7939453-4.2514648
	C67.7033691,49.7856445,64.9978027,48.2089844,61.0739746,48.2089844z M84.7160645,42.0996094l-0.5712891-4.7612305
	c-0.0869141-0.7236328-0.5195313-4.4082031-0.5195313-5.8862305c0-14.003418,9.5771484-25.6889648,24.3994141-29.7700195
	l4.4326172-1.2207031l0.5957031,4.5595703c0.1230469,0.9453125,0.5253906,4.1318359,0.5253906,5.4389648
	c0,14.2265625-9.0771484,25.5253906-24.28125,30.2241211L84.7160645,42.0996094z M105.5715332,11.0600586
	c-7.2998047,3.3442383-13.8408203,9.9125977-13.9453125,20.1445313
	C97.6525879,28.3188477,105.3098145,22.4233398,105.5715332,11.0600586z"/>
</svg>
