<?xml version="1.0" encoding="utf-8"?>
<!-- Generator: Adobe Illustrator 23.0.0, SVG Export Plug-In . SVG Version: 6.00 Build 0)  -->
<svg version="1.1" id="icon-article" xmlns="http://www.w3.org/2000/svg" xmlns:xlink="http://www.w3.org/1999/xlink" x="0px"
	 y="0px" viewBox="0 0 160 160" style="enable-background:new 0 0 160 160;" xml:space="preserve">
<path d="M129.875,160h-99.75C23.9907227,160,19,155.0097656,19,148.875V11.125C19,4.9907227,23.9907227,0,30.125,0h70.6855469
	c2.9824219,0,5.7792969,1.1542969,7.875,3.2495117l29.0664063,29.0952148C139.8154297,34.4086914,141,37.2680664,141,40.1889648
	V148.875C141,155.0097656,136.0097656,160,129.875,160z M30.125,8C28.3725586,8,27,9.3725586,27,11.125v137.75
	c0,1.7519531,1.3725586,3.125,3.125,3.125h99.75c1.7519531,0,3.125-1.3730469,3.125-3.125V55.1347656H96.8808594
	c-6.0742188,0-11.015625-4.9414063-11.015625-11.015625V8H30.125z M93.8652344,8v36.1191406
	c0,1.6625977,1.3525391,3.015625,3.015625,3.015625H133v-6.9458008c0-0.8149414-0.3300781-1.6123047-0.90625-2.1884766
	L103.0273438,8.9052734C102.4443359,8.3217773,101.65625,8,100.8105469,8H93.8652344z M108.2568359,126.8720703H51.7436523
	c-2.2089844,0-4-1.7910156-4-4s1.7910156-4,4-4h56.5131836c2.2089844,0,4,1.7910156,4,4
	S110.4658203,126.8720703,108.2568359,126.8720703z M108.2568359,107.3847656H51.7436523c-2.2089844,0-4-1.7910156-4-4
	s1.7910156-4,4-4h56.5131836c2.2089844,0,4,1.7910156,4,4S110.4658203,107.3847656,108.2568359,107.3847656z
	 M108.2568359,87.8974609H51.7436523c-2.2089844,0-4-1.7910156-4-4s1.7910156-4,4-4h56.5131836c2.2089844,0,4,1.7910156,4,4
	S110.4658203,87.8974609,108.2568359,87.8974609z"/>
</svg>
