<?xml version="1.0" encoding="utf-8"?>
<!-- Generator: Adobe Illustrator 23.0.0, SVG Export Plug-In . SVG Version: 6.00 Build 0)  -->
<svg version="1.1" id="icon-audio" xmlns="http://www.w3.org/2000/svg" xmlns:xlink="http://www.w3.org/1999/xlink" x="0px" y="0px"
	 viewBox="0 0 160 160" style="enable-background:new 0 0 160 160;" xml:space="preserve">
<path d="M129.875,160h-99.75C23.9907227,160,19,155.0097656,19,148.875V11.125C19,4.9907227,23.9907227,0,30.125,0h70.6855469
	c2.9824219,0,5.7792969,1.1542969,7.875,3.2495117l29.0664063,29.0952148C139.8154297,34.4086914,141,37.2680664,141,40.1889648
	V148.875C141,155.0097656,136.0097656,160,129.875,160z M30.125,8C28.3725586,8,27,9.3725586,27,11.125v137.75
	c0,1.7519531,1.3725586,3.125,3.125,3.125h99.75c1.7519531,0,3.125-1.3730469,3.125-3.125V55.1347656H96.8808594
	c-6.0742188,0-11.015625-4.9414063-11.015625-11.015625V8H30.125z M93.8652344,8v36.1191406
	c0,1.6625977,1.3525391,3.015625,3.015625,3.015625H133v-6.9458008c0-0.8149414-0.3300781-1.6123047-0.90625-2.1884766
	L103.0273438,8.9052734C102.4443359,8.3217773,101.65625,8,100.8105469,8H93.8652344z M105.8876953,137.1904297
	c-1.0048828,0-2.0097656-0.3759766-2.7871094-1.1308594c-1.5849609-1.5390625-1.6210938-4.0712891-0.0820313-5.65625
	c14.7304688-15.1640625,14.7314453-38.8994141,0.0019531-54.0356445c-1.5400391-1.5830078-1.5058594-4.1157227,0.0771484-5.65625
	c1.5849609-1.5400391,4.1162109-1.5063477,5.6572266,0.0771484c17.7705078,18.262207,17.7714844,46.8959961,0.0019531,65.1889648
	C107.9726563,136.7851563,106.9306641,137.1904297,105.8876953,137.1904297z M66.9301758,131.0107422
	c-1.9545898,0-3.8730469-0.7587891-5.3256836-2.1923828l-9.4189453-9.6826172H45.5625c-4.1699219,0-7.5625-3.3925781-7.5625-7.5625
	v-16.625c0-4.1699219,3.3925781-7.5625,7.5625-7.5625h6.6230469l9.3608398-9.625
	c2.2124023-2.2119141,5.4492188-2.8574219,8.2817383-1.6845703C72.6660156,77.2519531,74.5,79.9980469,74.5,83.0732422v40.375
	c0,3.0576172-1.8212891,5.7939453-4.6396484,6.9726563C68.9116211,130.8173828,67.9165039,131.0107422,66.9301758,131.0107422z
	 M46,111.1357422h9.5644531L66.5,122.3789063V84.1416016L55.5644531,95.3857422H46V111.1357422z M89.5947266,123.2617188
	c-1.0048828,0-2.0097656-0.3759766-2.7871094-1.1308594c-1.5849609-1.5390625-1.6210938-4.0712891-0.0820313-5.65625
	c6.6113281-6.8066406,6.6132813-17.4472656,0.0048828-24.2265625c-1.5419922-1.5820313-1.5097656-4.1142578,0.0722656-5.65625
	c1.5800781-1.5410156,4.1123047-1.5126953,5.65625,0.0722656c9.6552734,9.9042969,9.6582031,25.4472656,0.0048828,35.3847656
	C91.6796875,122.8564453,90.6376953,123.2617188,89.5947266,123.2617188z"/>
</svg>
