<?xml version="1.0" encoding="utf-8"?>
<!-- Generator: Adobe Illustrator 23.0.0, SVG Export Plug-In . SVG Version: 6.00 Build 0)  -->
<svg version="1.1" id="icon-author" xmlns="http://www.w3.org/2000/svg" xmlns:xlink="http://www.w3.org/1999/xlink" x="0px"
	 y="0px" viewBox="0 0 160 160" style="enable-background:new 0 0 160 160;" xml:space="preserve">
<path d="M99.2576904,148.8081055c-0.0957031,0-0.1923828-0.0009766-0.2890625-0.0029297H15.4100323
	c-8.4921875,0-15.4013672-6.9091797-15.4013672-15.4013672v-9.8808594c0-19.1123047,15.4765625-33.5244141,36-33.5244141h4.871582
	l1.0585938,0.484375c5.0751953,2.3222656,9.8691406,4.515625,15.0698242,4.515625
	c5.5336914,0,11.6337891-2.4765625,16.3300781-4.6347656l0.7949219-0.3652344h4.875
	c12.6416016,0.0009766,21.2988281,6.3330078,25.7646484,10.6972656l29.7324219-29.4760742
	c1.8115234-1.8115234,4.2421875-2.815918,6.8310547-2.815918c2.5878906,0,5.0185547,1.0043945,6.8417969,2.828125
	l9.0019531,9.0014648c3.7451172,3.7866211,3.7451172,9.9223633,0.015625,13.6928711l-0.0302734,0.03125l-44.0537109,43.5888672
	l-0.9580078,0.2861328c-0.0097656,0.0029297-0.1982422,0.0595703-0.5332031,0.1591797
	C110.289917,142.4858398,106.5125732,148.8081055,99.2576904,148.8081055z M36.008667,97.9985352
	c-16.224123,0-28.0000019,10.734375-28.0000019,25.5244141v9.8808594c0,4.0810547,3.3203125,7.4013672,7.4013672,7.4013672
	h69.3359375c-0.5566406-2.0849609,0.4160156-6.9492188,5.4091797-24.8779297l0.2841797-1.0214844l8.6630859-8.5878906
	c-3.4404297-3.3496094-10.2109375-8.3183594-20.09375-8.3193359h-3.1318359c-5.3271484,2.4033203-12.1269531,5-18.8681641,5
	c-6.7177734,0-12.6323242-2.6054688-17.871582-5H36.008667z M97.5789795,119.0932617
	c-1.5214844,5.5078125-3.0986328,11.546875-4.0625,15.6386719c4.0410156-1.0136719,9.9892578-2.6767578,15.390625-4.2792969
	l27.0917969-26.8056641l-11.3701172-11.3701172L97.5789795,119.0932617z M130.3104248,86.644043l11.375,11.3759766
	l9.8339844-9.7304688c0.6503906-0.6699219,0.6464844-1.75-0.0107422-2.4150391l-8.9863281-8.9853516
	c-0.4228516-0.4223633-0.9248047-0.4853516-1.1855469-0.4853516c-0.2617188,0-0.7636719,0.0629883-1.1865234,0.4853516
	L130.3104248,86.644043z M57.2142334,79.9985352c-18.9702148,0-34.4033203-15.4331055-34.4033203-34.4033203
	s15.4331074-34.4033203,34.4033203-34.4033203c18.9697266,0,34.402832,15.4331055,34.402832,34.4033203
	S76.18396,79.9985352,57.2142334,79.9985352z M57.2142334,19.1918945c-14.5585938,0-26.4033222,11.8442383-26.4033222,26.4033203
	s11.8447285,26.4033203,26.4033222,26.4033203s26.402832-11.8442383,26.402832-26.4033203
	S71.7728271,19.1918945,57.2142334,19.1918945z"/>
</svg>
