<?xml version="1.0" encoding="utf-8"?>
<!-- Generator: Adobe Illustrator 23.0.0, SVG Export Plug-In . SVG Version: 6.00 Build 0)  -->
<svg version="1.1" id="icon-backward" xmlns="http://www.w3.org/2000/svg" xmlns:xlink="http://www.w3.org/1999/xlink" x="0px"
	 y="0px" viewBox="0 0 160 160" style="enable-background:new 0 0 160 160;" xml:space="preserve">
<path d="M114.0999756,159.9997559c-3.1494141,0-6.1113281-1.2265625-8.3388672-3.453125L37.5540771,88.3395996
	c-4.5986328-4.5986328-4.5986328-12.0810547,0-16.6801758l68.2060547-68.2050781
	c2.2275391-2.2275391,5.1894531-3.4541016,8.3398438-3.4541016s6.1123047,1.2265625,8.3398438,3.4541016
	c2.2285156,2.2275391,3.4550781,5.1894531,3.4550781,8.340332s-1.2265625,6.112793-3.4550781,8.3408203L62.5750732,79.9997559
	l59.8647461,59.8652344c2.2285156,2.2275391,3.4550781,5.1904297,3.4550781,8.3408203
	c0,3.1494141-1.2265625,6.1123047-3.4550781,8.3398438C120.2132568,158.7731934,117.2513428,159.9997559,114.0999756,159.9997559z
	 M114.0999756,8.001709c-0.9716797,0-1.9433594,0.3701172-2.6835938,1.1098633L43.2113037,77.3166504
	c-1.4799805,1.4794922-1.4799805,3.887207,0,5.3666992l68.2050781,68.2060547c1.4335938,1.4316406,3.9335938,1.4316406,5.3671875,0
	c1.4794922-1.4804688,1.4794922-3.8876953,0-5.3681641L51.2615967,79.9997559l65.5219727-65.5219727
	c0.7167969-0.7167969,1.1113281-1.6699219,1.1113281-2.6831055s-0.3945313-1.9663086-1.1113281-2.6826172
	C116.043335,8.3718262,115.0716553,8.001709,114.0999756,8.001709z"/>
</svg>
