<?xml version="1.0" encoding="utf-8"?>
<!-- Generator: Adobe Illustrator 23.0.0, SVG Export Plug-In . SVG Version: 6.00 Build 0)  -->
<svg version="1.1" id="icon-bags" xmlns="http://www.w3.org/2000/svg" xmlns:xlink="http://www.w3.org/1999/xlink" x="0px" y="0px"
	 viewBox="0 0 160 160" style="enable-background:new 0 0 160 160;" xml:space="preserve">
<path d="M160,160H0V35.0771484h26.3076172V28.890625C26.5917969,11.3149414,38.4360352,0,56.4824219,0
	c18.1450195,0,28.8837891,10.4516602,29.4638672,28.6748047l0.0019531,0.1269531v6.2753906h27.2822266v37.0249023L160,72.1025391
	V160z M64.5126953,152H152V80.1025391H64.5126953V152z M8,152h48.5126953V72.1025391h48.7177734V43.0771484H85.9482422v6.2983398
	c3.6699219,1.4824219,6.2666016,5.0820313,6.2666016,9.2773438c0,5.5141602-4.4863281,10-10,10
	c-5.5141602,0-10.0004883-4.4858398-10.0004883-10c0-3.9887695,2.3476563-7.4394531,5.7338867-9.043457v-6.5322266h-43.640625
	v6.2988281c3.6699219,1.4824219,6.265625,5.0820313,6.265625,9.2768555c0,5.5141602-4.4858398,10-10,10s-10-4.4858398-10-10
	c0-3.9892578,2.3481445-7.4404297,5.734375-9.0439453v-6.5317383H8V152z M81.7314453,56.7119141
	c-0.8706055,0.2167969-1.5170898,1.0048828-1.5170898,1.940918c0,1.1030273,0.8969727,2,2.0004883,2c1.1025391,0,2-0.8969727,2-2
	c0-0.9975586-0.734375-1.8271484-1.6914063-1.9760742C82.265625,56.7138672,81.9941406,56.7270508,81.7314453,56.7119141z
	 M30.0898438,56.7119141c-0.8701172,0.2167969-1.5166016,1.0048828-1.5166016,1.940918c0,1.1030273,0.8969727,2,2,2s2-0.8969727,2-2
	c0-0.9975586-0.7338867-1.8271484-1.6904297-1.9760742C30.6245117,56.7138672,30.3535156,56.7270508,30.0898438,56.7119141z
	 M34.3071289,35.0771484h43.6411133v-6.2104492C77.4819336,14.8251953,70.4594727,8,56.4824219,8
	c-13.8769531,0-21.9594727,7.6381836-22.175293,20.9555664V35.0771484z M109.0976563,133.4267578l-0.1181641-0.0019531
	c-12.9091797-0.3818359-26.8056641-9.3037109-27.1328125-25.0849609l-0.0029297-0.1142578l0.0908203-2.4882813
	c-3.434082-1.5849609-5.8227539-5.0615234-5.8227539-9.0849609c0-5.5136719,4.4863281-10,10.0004883-10
	c5.5136719,0,10,4.4863281,10,10c0,4.1611328-2.5546875,7.7373047-6.1787109,9.2412109l-0.0859375,2.3886719
	c0.2880859,10.8671875,9.90625,16.8427734,19.3095703,17.1445313c5.8476563-0.0117188,10.7636719-1.75,13.8496094-4.8984375
	c2.7460938-2.8017578,4.0898438-6.6533203,3.9941406-11.4482422L127,105.8466797
	c-3.5644531-1.5302734-6.0673828-5.0751953-6.0673828-9.1943359c0-5.5136719,4.4863281-10,10-10s10,4.4863281,10,10
	c0,4.0664063-2.4394531,7.5742188-5.9326172,9.1347656V109c0.1376953,6.8457031-2.0332031,12.7958984-6.2802734,17.1289063
	C124.1064453,130.8349609,117.1376953,133.4267578,109.0976563,133.4267578z M130.9326172,94.6523438c-1.1025391,0-2,0.8974609-2,2
	s0.8974609,2,2,2s2-0.8974609,2-2S132.0351563,94.6523438,130.9326172,94.6523438z M86.1123047,94.6523438
	c-1.1035156,0-2,0.8974609-2,2s0.8964844,2,2,2c1.1025391,0,2-0.8974609,2-2S87.2148438,94.6523438,86.1123047,94.6523438z"/>
</svg>
