<?xml version="1.0" encoding="utf-8"?>
<!-- Generator: Adobe Illustrator 23.0.0, SVG Export Plug-In . SVG Version: 6.00 Build 0)  -->
<svg version="1.1" id="icon-bars" xmlns="http://www.w3.org/2000/svg" xmlns:xlink="http://www.w3.org/1999/xlink" x="0px" y="0px"
	 viewBox="0 0 160 160" style="enable-background:new 0 0 160 160;" xml:space="preserve">
<path d="M156,124H4c-2.2089844,0-4-1.7910156-4-4s1.7910156-4,4-4h152c2.2089844,0,4,1.7910156,4,4S158.2089844,124,156,124z
	 M156,84H4c-2.2089844,0-4-1.7910156-4-4s1.7910156-4,4-4h152c2.2089844,0,4,1.7910156,4,4S158.2089844,84,156,84z M156,44H4
	c-2.2089844,0-4-1.7910156-4-4s1.7910156-4,4-4h152c2.2089844,0,4,1.7910156,4,4S158.2089844,44,156,44z"/>
</svg>
