<?xml version="1.0" encoding="utf-8"?>
<!-- Generator: Adobe Illustrator 23.0.0, SVG Export Plug-In . SVG Version: 6.00 Build 0)  -->
<svg version="1.1" id="icon-bilibili" xmlns="http://www.w3.org/2000/svg" xmlns:xlink="http://www.w3.org/1999/xlink" x="0px"
	 y="0px" viewBox="0 0 160 160" style="enable-background:new 0 0 160 160;" xml:space="preserve">
<path d="M124.0058517,160.0007782c-0.5292969,0-1.0634766-0.0273438-1.5996094-0.0830078
	c-6.7939453-0.6962891-11.7333984-4.7861328-13.5488281-11.2207031c-0.3632813-1.2929688-1.3769531-2.1865234-2.0644531-2.1865234
	c-0.0019531,0-0.0029297,0-0.0048828,0c-17.9453125,0.1035156-33.6186523,0.0576172-51.7680626,0.0058594l-1.9101563-0.0058594
	c-0.1835938,0.0566406-0.9326172,0.6552734-1.1489258,1.5253906c-1.7387695,7.0253906-7.6962891,11.828125-14.8242188,11.9472656
	c-0.0898438,0.0019531-0.1796875,0.0029297-0.269043,0.0029297c-7.0673847,0-13.0849628-4.7128906-15.0239277-11.8017578
	l-0.2041016-0.765625c-0.1962891-0.7441406-0.6450195-2.4462891-1.0839844-3.4765625
	c-2.2324219,0.0722656-4.4428711,0.0322266-6.5922842-0.0068359l-0.9921875-0.0175781
	c-5.4023438-0.0996094-8.496582-3.1367188-8.496582-8.3310547c0.0244141-33.3349609,0.0727539-63.3085938,0.1474609-91.6376953
	c0.0112305-3.7426758,1.5732422-8.2045898,8.9526367-8.2133789c5.6904287-0.0068359,23.0927734-0.0107422,43.5546875-0.0117188
	L31.3486271,21.9963837c-1.9501953-1.0385742-2.6889648-3.4609375-1.6508789-5.4106445s3.461916-2.6889648,5.4106464-1.6508789
	l38.9863243,20.7587891c0.0180664,0.0097656,0.0361328,0.0195313,0.0541992,0.0292969
	c5.1279297,0.0014648,10.293457,0.0004883,15.387207,0.0004883l24.453125-34.0576172
	c1.2890625-1.7944336,3.7910156-2.203125,5.5820313-0.9160156c1.7939453,1.2880859,2.2050781,3.7875977,0.9160156,5.5820313
	L99.3837814,35.7234344c22.1787109,0.0014648,41.3046951,0.0043945,46.8076248,0.0078125
	c6.7167969,0.0063477,9.2158203,2.4682617,9.2216797,9.0834961c0.0449219,30.0185547,0.0849609,60.0405273,0.1123047,90.0620117
	c0.0058594,6.4726563-2.5957031,9.0097656-9.2773438,9.0507813c-0.0039063,0-0.0078125,0-0.0107422,0
	c-0.3232422,0.0009766-0.6474609,0.0107422-0.9716797,0.0205078c-0.9042969,0.0234375-1.9257813,0.0556641-3.0117188-0.0625
	c-1.2578125-0.125-3.3740234,2.3730469-4.6152344,6.6621094
	C136.0214844,156.1384735,130.3212891,159.9998016,124.0058517,160.0007782z M106.7968674,138.5105438
	c4.4248047,0,8.4345703,3.2900391,9.7617188,8.0205078c0.9267578,3.2861328,3.1083984,5.0644531,6.6679688,5.4287109
	c2.7060547,0.2792969,5.9658279-1.0019531,6.7275467-3.6357422c2.3935547-8.265625,7.4453125-13.0029297,13.1611328-12.3916016
	c0.5390625,0.0576172,1.2099609,0.0371094,1.9199219,0.0185547c0.3916016-0.0117188,0.7822266-0.0224609,1.171875-0.0234375
	c0.5673828-0.0039063,0.9873047-0.0205078,1.2958984-0.0410156c0.0136719-0.2539063,0.0224609-0.5810547,0.0224609-1.0019531
	c-0.0273438-30.0195313-0.0673828-60.0405273-0.1123047-90.0605469c0-0.4467773-0.0097656-0.7949219-0.0224609-1.0649414
	c-0.2978516-0.0161133-0.6904297-0.0273438-1.2060547-0.027832c-14.0556641-0.0083008-117.0483475-0.0141602-132.6000977,0.0043945
	c-0.418457,0.0004883-0.730957,0.019043-0.9589844,0.0429688c-0.0019531,0.0585938-0.003418,0.1230469-0.003418,0.1928711
	c-0.074707,28.3227539-0.1230469,58.2919922-0.1474609,91.6181641c0,0.1103516,0.003418,0.2060547,0.0083008,0.2871094
	c0.1538086,0.0205078,0.3603516,0.0380859,0.6298828,0.0429688l0.9951172,0.0175781
	c2.5664053,0.046875,4.9907217,0.0917969,7.3989248-0.0439453c5.3339844-0.2949219,6.9672852,6.0673828,7.8681641,9.4853516
	l0.1845703,0.6923828c1.0014648,3.6601563,3.7924824,5.9150391,7.3032246,5.9150391
	c0.0463867,0,0.0927734-0.0009766,0.1396484-0.0009766c3.4477539-0.0576172,6.3383789-2.4189453,7.1938477-5.8759766
	c1.0786133-4.3359375,4.9111328-7.5986328,8.9189453-7.5986328c0.0048828,0,0.0087891,0,0.0136719,0l1.9145508,0.0058594
	c18.1308556,0.0517578,33.7875938,0.0996094,51.6948204-0.0058594
	C106.7578049,138.5105438,106.7773361,138.5105438,106.7968674,138.5105438z M21.952631,143.8816376
	c-0.0014648,0-0.0029297,0-0.0043945,0C21.9497013,143.8816376,21.9511662,143.8816376,21.952631,143.8816376z
	 M146.2236328,139.927536h0.0097656H146.2236328z M110.0996017,130.9665985c-4.8886719,0-9.6992188-0.0009766-14.5839844-0.0019531
	l-15.5185547-0.0019531l-15.519043,0.0019531c-9.845211,0.0019531-19.3867149,0.0039063-29.8725548-0.0019531
	c-3.3076191-0.0039063-6.4067402-1.3242188-8.727541-3.7197266c-2.2744141-2.3476563-3.5249023-5.4365234-3.5214844-8.6972656
	v-0.0009766c0.0102539-9.0556641,0.003418-17.2070313-0.003418-25.2880859
	c-0.0083008-9.4550781-0.0161133-18.8139648,0.003418-29.409668c0.0151367-7.0527344,4.2915039-12.175293,10.1684589-12.1816406
	c15.4570313-0.0019531,30.5556641-0.0581055,45.157711-0.1123047c15.4179688-0.0566406,31.3574219-0.1108398,47.7041016-0.1113281
	c6.2753983,0,12.2294998,6.0258789,12.2509842,12.3994141c0.0292969,10.7158203,0.0175781,20.090332,0.0058594,29.5786133
	c-0.0097656,8.0029297-0.0205078,16.0869141-0.0058594,25.1240234c0.0068359,3.0644531-1.2958984,6.1855469-3.5722656,8.5605469
	c-2.3466797,2.4482422-5.5087891,3.8544922-8.6748123,3.8583984
	C120.1064377,130.9656219,115.0624924,130.9665985,110.0996017,130.9665985z M79.9970627,122.9626923l15.5195313,0.0019531
	c9.8427734,0.0019531,19.3828125,0.0039063,29.8671875-0.0019531c0.9980469-0.0009766,2.0585938-0.5087891,2.9062576-1.3935547
	c0.8457031-0.8828125,1.3496094-2.0087891,1.3476563-3.0107422c-0.0146484-9.046875-0.0039063-17.1386719,0.0058594-25.1484375
	c0.0117188-9.4775391,0.0234375-18.8427734-0.0058594-29.5449219c-0.0068359-1.9829102-2.3515701-4.4233398-4.2519608-4.4233398
	c-16.3037109-0.0117188-32.2636719,0.0541992-47.6738281,0.1113281
	c-14.6083946,0.0541992-29.7148399,0.1103516-45.1821251,0.1123047c-1.7749043,0.0019531-2.1709003,3.0307617-2.1733418,4.1972656
	c-0.0195313,10.5869141-0.0117188,19.9389648-0.003418,29.387207c0.0068359,8.0859375,0.0136719,16.2431641,0.003418,25.3046875
	c-0.0009766,1.1679688,0.4487305,2.2773438,1.2666016,3.1210938c0.8032246,0.8291016,1.864748,1.2861328,2.9892597,1.2871094
	c10.4814453,0.0058594,20.0205078,0.0039063,29.864254,0.0019531L79.9970627,122.9626923z M69.388176,115.3894501
	c-5.2851563,0-12.148922-3.0058594-14.8354454-17.3261719c-0.4072266-2.1708984,1.0229492-4.2617188,3.1943359-4.6689453
	c2.1674805-0.4101563,4.2612305,1.0234375,4.6689453,3.1943359c1.3442383,7.1669922,3.6899376,10.8007813,6.9721642,10.8007813
	c3.0795898,0,5.9658203-4.71875,6.3037109-10.3046875c0.125-2.0683594,1.8081055-3.6982422,3.8789063-3.7568359
	c2.0942383-0.0488281,3.8442383,1.4726563,4.0864258,3.5302734c0.671875,5.703125,5.4726563,10.46875,8.1552734,10.46875
	c0.0244141,0,0.0488281,0,0.0742188,0c0.0224609,0,0.0449219,0,0.0703125,0.0009766
	c0.3896484,0,1.3222656-0.2851563,2.4121094-1.3583984c0.9462891-0.9326172,3.1464844-3.6396484,3.1464844-8.6435547
	c0-2.2089844,1.7910156-4,4-4s4,1.7910156,4,4c0,5.6513672-2.0166016,10.8789063-5.5322266,14.3417969
	c-2.3984375,2.3642578-5.2431641,3.6601563-8.0244141,3.6601563c-0.0449219,0-0.09375-0.0009766-0.140625-0.0009766
	c-4.1689453,0.0009766-8.4306641-2.6640625-11.5419922-6.6494141
	C77.6498947,112.8171844,73.7524338,115.3894501,69.388176,115.3894501z M116.0488205,86.4353485
	c-0.6015625,0-1.2119141-0.1357422-1.7861328-0.4228516L92.8261642,75.2942352
	c-1.9755859-0.987793-2.7763672-3.390625-1.7890625-5.3662109c0.9892578-1.9770508,3.3925781-2.7763672,5.3671875-1.7890625
	l21.4365234,10.7177734c1.9755859,0.987793,2.7763672,3.3901367,1.7890625,5.3666992
	C118.9287033,85.6248016,117.5156174,86.4353485,116.0488205,86.4353485z M43.9516563,86.4353485
	c-1.4672852,0-2.8798828-0.8105469-3.5805664-2.2119141c-0.987793-1.9765625-0.1870117-4.3789063,1.7885742-5.3666992
	l21.4365234-10.7177734c1.9741173-0.9887695,4.3784142-0.1870117,5.3662071,1.7885742
	c0.987793,1.9760742,0.1870117,4.3789063-1.7885742,5.3666992L45.7373009,86.0124969
	C45.1635704,86.2996063,44.5527306,86.4353485,43.9516563,86.4353485z"/>
</svg>
