<?xml version="1.0" encoding="utf-8"?>
<!-- Generator: Adobe Illustrator 23.0.0, SVG Export Plug-In . SVG Version: 6.00 Build 0)  -->
<svg version="1.1" id="icon-bold" xmlns="http://www.w3.org/2000/svg" xmlns:xlink="http://www.w3.org/1999/xlink" x="0px" y="0px"
	 viewBox="0 0 160 160" style="enable-background:new 0 0 160 160;" xml:space="preserve">
<path d="M104.859375,160H15.3642578C6.8925781,160,0,153.9443359,0,146.5v-133C0,6.0561523,6.8925781,0,15.3642578,0h79.5517578
	c30.4042969,0,55.1396484,20.972168,55.1396484,46.75c0,10.7231445-4.2363281,20.9008789-12.0380859,29.1567383
	C151.703125,84.6806641,160,98.5791016,160,113.25C160,139.0283203,135.2636719,160,104.859375,160z M15.3642578,8
	C11.3725586,8,8,10.5185547,8,13.5v133c0,2.9814453,3.3725586,5.5,7.3642578,5.5h89.4951172
	C130.8525391,152,152,134.6171875,152,113.25c0-13.5009766-8.390625-25.8310547-22.4433594-32.9814453
	c-1.1923828-0.6064453-2.0029297-1.769043-2.1591797-3.0976563c-0.15625-1.3291016,0.3623047-2.6479492,1.3818359-3.5146484
	c8.5615234-7.2807617,13.2763672-16.8364258,13.2763672-26.90625c0-21.3666992-21.1464844-38.75-47.1396484-38.75H15.3642578z
	 M104.859375,141H26.7290039c-2.2089844,0-4-1.7910156-4-4V89.5c0-2.2089844,1.7910156-4,4-4h78.1303711
	c17.8720703,0,32.4121094,12.4482422,32.4121094,27.75S122.7314453,141,104.859375,141z M30.7290039,133h74.1303711
	c13.4609375,0,24.4121094-8.859375,24.4121094-19.75S118.3203125,93.5,104.859375,93.5H30.7290039V133z M94.9160156,74.5H26.7290039
	c-2.2089844,0-4-1.7910156-4-4V23c0-2.2089844,1.7910156-4,4-4h68.1870117c17.8710938,0,32.4111328,12.4487305,32.4111328,27.75
	S112.7871094,74.5,94.9160156,74.5z M30.7290039,66.5h64.1870117c13.4599609,0,24.4111328-8.8598633,24.4111328-19.75
	S108.3759766,27,94.9160156,27H30.7290039V66.5z"/>
</svg>
