<?xml version="1.0" encoding="utf-8"?>
<!-- Generator: Adobe Illustrator 23.0.0, SVG Export Plug-In . SVG Version: 6.00 Build 0)  -->
<svg version="1.1" id="icon-book" xmlns="http://www.w3.org/2000/svg" xmlns:xlink="http://www.w3.org/1999/xlink" x="0px" y="0px"
	 viewBox="0 0 160 160" enable-background="new 0 0 160 160" xml:space="preserve">
<path d="M139.1210938,160H42.1025391C24.2392578,160,9.706543,145.4208984,9.706543,127.5v-95
	c0-17.9204102,14.5327148-32.5,32.3959961-32.5h97.0185547c6.1201172,0,11.0986328,4.9907227,11.0986328,11.125v99.75
	c0,0.3730469,0.015625,0.7617188,0.0302734,1.15625c0.0898438,2.3662109,0.2119141,5.6064453-2.1357422,8.0449219
	c-1.3818359,1.4345703-3.2949219,2.2177734-5.6943359,2.3339844c-0.2539063,0.0507813-0.5175781,0.0771484-0.7871094,0.0771484
	h-0.2773438c-1.9785156,0.4980469-2.40625,3.8125-2.3964844,5.1464844c0.015625,2.1357422,0.8369141,5.3027344,3.0302734,5.3662109
	h0.0693359c0.0371094,0,0.0742188,0.0009766,0.1113281,0.0019531c3.0830078,0.0292969,4.921875,1.2822266,5.9257813,2.3339844
	c2.4150391,2.5341797,2.25,5.9726563,2.1513672,8.0273438c-0.0126953,0.2792969-0.0273438,0.5380859-0.0273438,0.7617188v4.75
	C150.2197266,155.0097656,145.2412109,160,139.1210938,160z M42.1025391,8C28.6503906,8,17.706543,18.9907227,17.706543,32.5v95
	c0,13.5097656,10.9438477,24.5,24.3959961,24.5h97.0185547c1.7373047,0,3.0986328-1.3730469,3.0986328-3.125v-4.75
	c0-0.3369141,0.0166016-0.7246094,0.0371094-1.1445313c0.0234375-0.4951172,0.0673828-1.4199219-0.0048828-1.9746094
	c-0.0947266-0.0048828-0.21875-0.0029297-0.3408203-0.0058594H42.1025391c-7.4248047,0-13.465332-5.9472656-13.465332-13.2568359
	s6.0405273-13.2558594,13.465332-13.2558594h98.6240234c0.3291016-0.0361328,0.6630859-0.0576172,1.0029297-0.0625h0.0576172
	c0.1933594,0,0.3476563-0.0087891,0.4677734-0.0214844c0.0585938-0.5566406,0.0234375-1.4716797,0.0009766-2.0703125
	c-0.0185547-0.4980469-0.0361328-0.9882813-0.0361328-1.4580078v-99.75c0-1.7524414-1.3613281-3.125-3.0986328-3.125H42.1025391z
	 M142.5761719,141.0517578h0.0009766H142.5761719z M42.1025391,122.4873047c-3.0136719,0-5.465332,2.3574219-5.465332,5.2558594
	S39.0888672,133,42.1025391,133h89.7089844c-0.5400391-1.6025391-0.8388672-3.390625-0.8525391-5.3085938
	c-0.0136719-1.875,0.2519531-3.6269531,0.7548828-5.2041016H42.1025391z M117.8242188,71.3334961H51.8100586
	c-2.2089844,0-4-1.7910156-4-4s1.7910156-4,4-4h66.0141602c2.2089844,0,4,1.7910156,4,4
	S120.0332031,71.3334961,117.8242188,71.3334961z M117.8242188,49.8974609H51.8100586c-2.2089844,0-4-1.7910156-4-4s1.7910156-4,4-4
	h66.0141602c2.2089844,0,4,1.7910156,4,4S120.0332031,49.8974609,117.8242188,49.8974609z"/>
</svg>
