<?xml version="1.0" encoding="utf-8"?>
<!-- Generator: Adobe Illustrator 23.0.0, SVG Export Plug-In . SVG Version: 6.00 Build 0)  -->
<svg version="1.1" id="icon-bottom" xmlns="http://www.w3.org/2000/svg" xmlns:xlink="http://www.w3.org/1999/xlink" x="0px"
	 y="0px" viewBox="0 0 160 160" style="enable-background:new 0 0 160 160;" xml:space="preserve">
<path d="M156,123H4c-2.2089844,0-4-1.7910156-4-4s1.7910156-4,4-4h152c2.2089844,0,4,1.7910156,4,4S158.2089844,123,156,123z
	 M80,102.0732422c-1.0087891,0-2.0170898-0.3789063-2.7944336-1.1376953L18.7441406,43.8623047
	c-1.5805664-1.543457-1.6108398-4.0756836-0.0678711-5.6567383c1.5429688-1.5805664,4.074707-1.6113281,5.6567383-0.0678711
	L80,92.4833984l55.6679688-54.3457031c1.5800781-1.5419922,4.1132813-1.5126953,5.65625,0.0678711
	c1.5429688,1.5810547,1.5126953,4.1132813-0.0683594,5.6567383l-58.4619141,57.0732422
	C82.0175781,101.6943359,81.0087891,102.0732422,80,102.0732422z"/>
</svg>
