<?xml version="1.0" encoding="utf-8"?>
<!-- Generator: Adobe Illustrator 23.0.0, SVG Export Plug-In . SVG Version: 6.00 Build 0)  -->
<svg version="1.1" id="icon-box" xmlns="http://www.w3.org/2000/svg" xmlns:xlink="http://www.w3.org/1999/xlink" x="0px" y="0px"
	 viewBox="0 0 160 160" enable-background="new 0 0 160 160" xml:space="preserve">
<path d="M111.9882813,147.9482422c-0.0673828,0-0.1347656,0-0.2021484,0h-95.402832c-2.2089844,0-4-1.7910156-4-4V83.0371094
	l-7.0751953,2.4492188c-1.5390625,0.5322266-3.2480469,0.0791016-4.3208008-1.1484375
	c-1.0717773-1.2275391-1.2919922-2.9824219-0.5571289-4.4360352l12.3447266-24.4228516
	c0.0664063-0.1391602,0.1411133-0.2734375,0.2226563-0.402832c0.2675781-0.559082,0.6694336-1.0639648,1.1982422-1.4628906
	L47.190918,28.7148438c0.6938477-0.5239258,1.5395508-0.8071289,2.4091797-0.8071289h11.8320313l7.3701172-7.1884766
	c0.7792969-0.7597656,1.8374023-1.1713867,2.921875-1.1342773c1.0874023,0.0351563,2.1137695,0.5117188,2.8422852,1.3203125
	l3.0112305,3.3408203l13.4448242-11.2607422c1.6201172-1.3574219,4.0166016-1.2197266,5.4716797,0.3144531l13.8378906,14.597168
	h27.1552734c1.5449219,0,2.8857422,0.8759766,3.5517578,2.1586914l18.4033203,31.0952148
	c0.9326172,1.5751953,0.6757813,3.5825195-0.6220703,4.8735352l-17.3330078,17.2363281v28.3925781
	c0,0.8994141-0.3027344,1.7724609-0.8603516,2.4785156l-25.4960938,32.2949219
	C114.3417969,147.4267578,113.1708984,147.9482422,111.9882813,147.9482422z M20.3833008,139.9482422h87.402832V61.2070313
	h-87.402832V139.9482422z M115.7861328,71.4091797v61.2763672l17.7011719-22.4208984V91.2119141
	c-0.8583984,0.7851563-2.0117188,1.15625-3.1787109,1.0214844c-1.2148438-0.1464844-2.2958984-0.8398438-2.9345703-1.8837891
	L115.7861328,71.4091797z M116.8564453,57.8291016l14.6992188,24.0263672l19.4169922-19.309082l-14.3232422-24.2011719
	L116.8564453,57.8291016z M12.3833008,73.987793l-0.3579102,0.7080078l0.3579102-0.1235352V73.987793z M103.6777344,53.2070313
	h6.4697266l6.8046875-6.6982422L93.2753906,21.5332031l-10.3388672,8.659668L103.6777344,53.2070313z M46.9492188,53.2070313
	h45.9589844L71.4091797,29.3515625l-5.5483398,5.4111328c-0.0058594,0.0058594-0.0117188,0.0117188-0.0175781,0.0175781
	L46.9492188,53.2070313z M28.0151367,53.2070313h7.4760742l17.737793-17.2993164h-2.2890625L28.0151367,53.2070313z
	 M117.9160156,35.8969727l4.7382813,4.9985352l5.078125-4.9985352H117.9160156z M78.0512695,82.6894531h-29.230957
	c-3.8173828,0-6.9228516-3.105957-6.9228516-6.9238281s3.1054688-6.9238281,6.9228516-6.9238281h29.230957
	c3.8168945,0,6.9223633,3.105957,6.9223633,6.9238281S81.8681641,82.6894531,78.0512695,82.6894531z"/>
</svg>
