<?xml version="1.0" encoding="utf-8"?>
<!-- Generator: Adobe Illustrator 23.0.0, SVG Export Plug-In . SVG Version: 6.00 Build 0)  -->
<svg version="1.1" id="icon-briefcase" xmlns="http://www.w3.org/2000/svg" xmlns:xlink="http://www.w3.org/1999/xlink" x="0px"
	 y="0px" viewBox="0 0 160 160" style="enable-background:new 0 0 160 160;" xml:space="preserve">
<path d="M146,160H14c-7.7197266,0-14-6.2802734-14-14V38c0-7.7197266,6.2802734-14,14-14h36v-5C50,8.5234375,58.5234375,0,69,0h22
	c10.4765625,0,19,8.5234375,19,19v5h36c7.7197266,0,14,6.2802734,14,14v108C160,153.7197266,153.7197266,160,146,160z M8,85.8740234
	V146c0,3.3085938,2.6914063,6,6,6h132c3.3085938,0,6-2.6914063,6-6V85.8740234
	c-3.7832031,3.3896484-8.6455078,5.5996094-14,6.0429688V104c0,2.2089844-1.7910156,4-4,4h-16c-2.2089844,0-4-1.7910156-4-4V92H46
	v12c0,2.2089844-1.7910156,4-4,4H26c-2.2089844,0-4-1.7910156-4-4V91.9169922
	C16.6450195,91.4736328,11.7832031,89.2636719,8,85.8740234z M122,100h8v-8h-8V100z M30,100h8v-8h-8V100z M134,84h2
	c8.8222656,0,16-7.1777344,16-16V38c0-3.3085938-2.6914063-6-6-6H14c-3.3085938,0-6,2.6914063-6,6v30
	c0,8.8222656,7.1777344,16,16,16h40v-4c0-2.2089844,1.7910156-4,4-4h24c2.2089844,0,4,1.7910156,4,4v4H134z M58,24h44v-5
	c0-6.0654297-4.9345703-11-11-11H69c-6.0654297,0-11,4.9345703-11,11V24z"/>
</svg>
