<?xml version="1.0" encoding="utf-8"?>
<!-- Generator: Adobe Illustrator 23.0.0, SVG Export Plug-In . SVG Version: 6.00 Build 0)  -->
<svg version="1.1" id="icon-calendar" xmlns="http://www.w3.org/2000/svg" xmlns:xlink="http://www.w3.org/1999/xlink" x="0px"
	 y="0px" viewBox="0 0 160 160" enable-background="new 0 0 160 160" xml:space="preserve">
<path d="M150.0732422,160H9.9262695C4.453125,160,0,156.0097656,0,151.1044922V24.5888672
	c0-4.9047852,4.453125-8.8950195,9.9262695-8.8950195h8.9462891C20.4873047,5.2758789,24.8666992,0,31.9174805,0
	c2.9370117,0,5.7265625,1.3061523,8.0664063,3.7773438c2.815918,2.9746094,4.6914063,7.3110352,5.2592773,11.9165039h4.4350586
	C51.2929688,5.2758789,55.6723633,0,62.7231445,0c2.9370117,0,5.7265625,1.3061523,8.0664063,3.7773438
	c2.815918,2.9746094,4.6914063,7.3110352,5.2592773,11.9165039h5.6201172C83.2841797,5.2758789,87.6630859,0,94.7128906,0
	c2.9375,0,5.7265625,1.3061523,8.0673828,3.777832c2.8154297,2.9741211,4.6914063,7.3105469,5.2587891,11.9160156h5.6210938
	C115.2734375,5.2758789,119.6533203,0,126.7041016,0c2.9375,0,5.7265625,1.3061523,8.0664063,3.7773438
	c2.8154297,2.9746094,4.6914063,7.3110352,5.2597656,11.9165039h10.0429688C155.546875,15.6938477,160,19.684082,160,24.5888672
	v126.515625C160,156.0097656,155.546875,160,150.0732422,160z M8,53.6391602v97.465332C8,151.3271484,8.6831055,152,9.9262695,152
	h140.1469727C151.3164063,152,152,151.3271484,152,151.1044922v-97.465332H8z M8,45.6391602h144v-21.050293
	c0-0.2226563-0.6835938-0.8950195-1.9267578-0.8950195h-10.2050781
	c-0.6982422,5.5908203-3.0214844,13.3222656-12.3515625,15.2573242c-2.1708984,0.4521484-4.2802734-0.9418945-4.7294922-3.1040039
	c-0.4482422-2.1630859,0.9414063-4.2802734,3.1044922-4.7290039c3.3505859-0.6953125,5.0810547-2.7543945,5.8642578-7.4243164
	h-23.8779297c-0.6982422,5.590332-3.0214844,13.3222656-12.3525391,15.2573242
	c-2.1708984,0.4521484-4.2802734-0.9418945-4.7294922-3.1040039c-0.4482422-2.1630859,0.9414063-4.2802734,3.1044922-4.7290039
	c3.3515625-0.6953125,5.0820313-2.7543945,5.8652344-7.4243164H75.887207
	c-0.6972656,5.590332-3.0205078,13.3217773-12.3515625,15.2573242c-2.1645508,0.4472656-4.2807617-0.940918-4.7290039-3.1040039
	c-0.4487305-2.1630859,0.940918-4.2802734,3.1040039-4.7290039c3.3515625-0.6953125,5.081543-2.7539063,5.8647461-7.4243164
	H45.081543c-0.6972656,5.590332-3.0205078,13.3217773-12.3515625,15.2573242
	c-2.1650391,0.4472656-4.2807617-0.940918-4.7290039-3.1040039c-0.4487305-2.1630859,0.940918-4.2802734,3.1040039-4.7290039
	c3.3515625-0.6953125,5.081543-2.7539063,5.8647461-7.4243164H9.9262695C8.6831055,23.6938477,8,24.3662109,8,24.5888672V45.6391602
	z M121.7548828,15.6938477h10.1787109c-0.4755859-2.5444336-1.5332031-4.8959961-2.9726563-6.4160156
	C128.5087891,8.800293,127.6152344,8,126.7041016,8C124.3398438,8,122.6806641,10.5839844,121.7548828,15.6938477z
	 M89.7646484,15.6938477h10.1787109c-0.4755859-2.5444336-1.5332031-4.8955078-2.9726563-6.4155273
	C96.5185547,8.8007813,95.6240234,8,94.7128906,8C92.3486328,8,90.6904297,10.5839844,89.7646484,15.6938477z
	 M57.7739258,15.6938477h10.1782227c-0.4746094-2.5444336-1.5327148-4.8959961-2.972168-6.4160156
	C64.5283203,8.800293,63.6342773,8,62.7231445,8C60.3583984,8,58.699707,10.5839844,57.7739258,15.6938477z M26.9682617,15.6938477
	h10.1782227c-0.4746094-2.5444336-1.5327148-4.8959961-2.972168-6.4160156C33.7226563,8.800293,32.8286133,8,31.9174805,8
	C29.5527344,8,27.894043,10.5839844,26.9682617,15.6938477z M131.6044922,138.5576172h-10.2177734c-3.3085938,0-6-2.6914063-6-6
	v-7.7441406c0-3.3085938,2.6914063-6,6-6h10.2177734c3.3085938,0,6,2.6914063,6,6v7.7441406
	C137.6044922,135.8662109,134.9130859,138.5576172,131.6044922,138.5576172z M123.3867188,130.5576172h6.2177734v-3.7441406
	h-6.2177734V130.5576172z M99.6142578,138.5576172h-10.21875c-3.3085938,0-6-2.6914063-6-6v-7.7441406c0-3.3085938,2.6914063-6,6-6
	h10.21875c3.3085938,0,6,2.6914063,6,6v7.7441406C105.6142578,135.8662109,102.9228516,138.5576172,99.6142578,138.5576172z
	 M91.3955078,130.5576172h6.21875v-3.7441406h-6.21875V130.5576172z M67.6235352,138.5576172H57.4057617
	c-3.3085938,0-6-2.6914063-6-6v-7.7441406c0-3.3085938,2.6914063-6,6-6h10.2177734c3.3085938,0,6,2.6914063,6,6v7.7441406
	C73.6235352,135.8662109,70.9321289,138.5576172,67.6235352,138.5576172z M59.4057617,130.5576172h6.2177734v-3.7441406h-6.2177734
	V130.5576172z M36.8178711,138.5576172H26.6000977c-3.3085938,0-6-2.6914063-6-6v-7.7441406c0-3.3085938,2.6914063-6,6-6h10.2177734
	c3.3085938,0,6,2.6914063,6,6v7.7441406C42.8178711,135.8662109,40.1264648,138.5576172,36.8178711,138.5576172z
	 M28.6000977,130.5576172h6.2177734v-3.7441406h-6.2177734V130.5576172z M131.6044922,112.1337891h-10.2177734
	c-3.3085938,0-6-2.6914063-6-6V98.390625c0-3.3085938,2.6914063-6,6-6h10.2177734c3.3085938,0,6,2.6914063,6,6v7.7431641
	C137.6044922,109.4423828,134.9130859,112.1337891,131.6044922,112.1337891z M123.3867188,104.1337891h6.2177734v-3.7431641
	h-6.2177734V104.1337891z M99.6142578,112.1337891h-10.21875c-3.3085938,0-6-2.6914063-6-6V98.390625c0-3.3085938,2.6914063-6,6-6
	h10.21875c3.3085938,0,6,2.6914063,6,6v7.7431641C105.6142578,109.4423828,102.9228516,112.1337891,99.6142578,112.1337891z
	 M91.3955078,104.1337891h6.21875v-3.7431641h-6.21875V104.1337891z M67.6235352,112.1337891H57.4057617
	c-3.3085938,0-6-2.6914063-6-6V98.390625c0-3.3085938,2.6914063-6,6-6h10.2177734c3.3085938,0,6,2.6914063,6,6v7.7431641
	C73.6235352,109.4423828,70.9321289,112.1337891,67.6235352,112.1337891z M59.4057617,104.1337891h6.2177734v-3.7431641h-6.2177734
	V104.1337891z M36.8178711,112.1337891H26.6000977c-3.3085938,0-6-2.6914063-6-6V98.390625c0-3.3085938,2.6914063-6,6-6h10.2177734
	c3.3085938,0,6,2.6914063,6,6v7.7431641C42.8178711,109.4423828,40.1264648,112.1337891,36.8178711,112.1337891z
	 M28.6000977,104.1337891h6.2177734v-3.7431641h-6.2177734V104.1337891z M131.6044922,86.6894531h-10.2177734
	c-3.3085938,0-6-2.6914063-6-6.0004883v-7.7436523c0-3.3085938,2.6914063-6,6-6h10.2177734c3.3085938,0,6,2.6914063,6,6v7.7436523
	C137.6044922,83.9980469,134.9130859,86.6894531,131.6044922,86.6894531z M123.3867188,78.6894531h6.2177734v-3.7441406h-6.2177734
	V78.6894531z M99.6142578,86.6894531h-10.21875c-3.3085938,0-6-2.6914063-6-6.0004883v-7.7436523c0-3.3085938,2.6914063-6,6-6
	h10.21875c3.3085938,0,6,2.6914063,6,6v7.7436523C105.6142578,83.9980469,102.9228516,86.6894531,99.6142578,86.6894531z
	 M91.3955078,78.6894531h6.21875v-3.7441406h-6.21875V78.6894531z M67.6235352,86.6894531H57.4057617
	c-3.3085938,0-6-2.6914063-6-6.0004883v-7.7436523c0-3.3085938,2.6914063-6,6-6h10.2177734c3.3085938,0,6,2.6914063,6,6v7.7436523
	C73.6235352,83.9980469,70.9321289,86.6894531,67.6235352,86.6894531z M59.4057617,78.6894531h6.2177734v-3.7441406h-6.2177734
	V78.6894531z M36.8178711,86.6894531H26.6000977c-3.3085938,0-6-2.6914063-6-6.0004883v-7.7436523c0-3.3085938,2.6914063-6,6-6
	h10.2177734c3.3085938,0,6,2.6914063,6,6v7.7436523C42.8178711,83.9980469,40.1264648,86.6894531,36.8178711,86.6894531z
	 M28.6000977,78.6894531h6.2177734v-3.7441406h-6.2177734V78.6894531z"/>
</svg>
