<?xml version="1.0" encoding="utf-8"?>
<!-- Generator: Adobe Illustrator 23.0.0, SVG Export Plug-In . SVG Version: 6.00 Build 0)  -->
<svg version="1.1" id="icon-cart" xmlns="http://www.w3.org/2000/svg" xmlns:xlink="http://www.w3.org/1999/xlink" x="0px" y="0px"
	 viewBox="0 0 160 160" enable-background="new 0 0 160 160" xml:space="preserve">
<path d="M114.6757813,160c-9.1884766,0-16.8251953-6.7734375-18.1777344-15.5898438H69.8178711
	C67.9658203,153.2998047,60.0698242,160,50.6386719,160c-10.8017578,0-19.5893555-8.7880859-19.5893555-19.5898438
	c0-7.6054688,4.3574219-14.2128906,10.7060547-17.4570313l-1.6899414-6.9160156
	c-0.0009766-0.0039063-0.0019531-0.0078125-0.0029297-0.0117188l-19.0385742-78.059082
	c-0.015625-0.0551758-0.0297852-0.1108398-0.0429688-0.1674805l-0.4057617-1.6713867
	c-0.0322266-0.1323242-0.0576172-0.265625-0.0761719-0.3989258l-3.9238281-16.8613281l-7.7807617-0.1503906
	C3.7583008,18.6772461-0.0419922,14.597168,0,9.2260742C0.0415039,3.9536133,3.8320313,0,8.8286133,0
	C8.8535156,0,8.8779297,0,8.902832,0h16.887207c3.6035156,0,6.5112305,3.0195313,7.777832,8.0771484l6.265625,23.1025391H156
	c1.2021484,0,2.3408203,0.5410156,3.1005859,1.4731445c0.7597656,0.9326172,1.0595703,2.1567383,0.8173828,3.3349609
	l-14.5517578,70.565918c-1.4960938,7.2568359-7.9599609,12.5234375-15.3691406,12.5234375H49.043457l0.4345703,1.7773438
	c0.3837891-0.0224609,0.7709961-0.0341797,1.1606445-0.0341797c9.4311523,0,17.3271484,6.7001953,19.1791992,15.5898438h27.215332
	c2.2490234-7.6171875,9.3066406-13.1914063,17.6425781-13.1914063c10.140625,0,18.390625,8.25,18.390625,18.390625
	S124.8164063,160,114.6757813,160z M114.6757813,131.21875c-5.7294922,0-10.390625,4.6611328-10.390625,10.390625
	S108.9462891,152,114.6757813,152s10.390625-4.6611328,10.390625-10.390625S120.4052734,131.21875,114.6757813,131.21875z
	 M47.4931641,129.2539063c-4.8671875,1.3740234-8.4438477,5.8554688-8.4438477,11.15625
	C39.0493164,146.8007813,44.2480469,152,50.6386719,152s11.5898438-5.1992188,11.5898438-11.5898438
	s-5.1992188-11.5898438-11.5898438-11.5898438c-1.0556641,0-2.0786133,0.1416016-3.0507813,0.4072266
	C47.5561523,129.2373047,47.5249023,129.2460938,47.4931641,129.2539063z M47.090332,111.0771484h82.9067383
	c3.6318359,0,6.7998047-2.5820313,7.5332031-6.1386719l13.5605469-65.7587891H36.8603516
	c-0.0585938,0.0009766-0.1181641,0.0009766-0.1777344,0h-7.128418L47.090332,111.0771484z M27.6542969,31.1796875h3.890625
	l-5.7177734-21.0839844C25.5556641,9.0151367,25.2509766,8.3525391,25.0400391,8H8.871582
	C8.6352539,8.0039063,8.0102539,7.9936523,8,9.2890625c-0.0043945,0.5307617,0.1074219,1.4223633,0.9033203,1.4287109
	l10.9389648,0.2114258c1.8305664,0.0351563,3.4038086,1.309082,3.8188477,3.0922852L27.6542969,31.1796875z M114.6757813,149.609375
	c-4.4111328,0-8-3.5888672-8-8s3.5888672-8,8-8s8,3.5888672,8,8S119.0869141,149.609375,114.6757813,149.609375z
	 M50.6386719,148.4101563c-4.4111328,0-8-3.5888672-8-8s3.5888672-8,8-8s8,3.5888672,8,8
	S55.0498047,148.4101563,50.6386719,148.4101563z M119.8203125,101.5380859h-1.6923828c-4.9628906,0-9-4.0371094-9-9V57.7177734
	c0-4.9624023,4.0371094-9,9-9h1.6923828c4.9628906,0,9,4.0375977,9,9v34.8203125
	C128.8203125,97.5009766,124.7832031,101.5380859,119.8203125,101.5380859z M118.1279297,56.7177734c-0.5517578,0-1,0.4487305-1,1
	v34.8203125c0,0.5517578,0.4482422,1,1,1h1.6923828c0.5517578,0,1-0.4482422,1-1V57.7177734c0-0.5512695-0.4482422-1-1-1
	H118.1279297z M92.5380859,101.5380859h-1.6923828c-4.9628906,0-9-4.0371094-9-9V57.7177734c0-4.9624023,4.0371094-9,9-9h1.6923828
	c4.9628906,0,9,4.0375977,9,9v34.8203125C101.5380859,97.5009766,97.5009766,101.5380859,92.5380859,101.5380859z
	 M90.8457031,56.7177734c-0.5517578,0-1,0.4487305-1,1v34.8203125c0,0.5517578,0.4482422,1,1,1h1.6923828
	c0.5517578,0,1-0.4482422,1-1V57.7177734c0-0.5512695-0.4482422-1-1-1H90.8457031z M64.2822266,101.5380859h-1.6923828
	c-4.9624023,0-9-4.0371094-9-9V57.7177734c0-4.9624023,4.0375977-9,9-9h1.6923828c4.9624023,0,9,4.0375977,9,9v34.8203125
	C73.2822266,97.5009766,69.2446289,101.5380859,64.2822266,101.5380859z M62.5898438,56.7177734c-0.5512695,0-1,0.4487305-1,1
	v34.8203125c0,0.5517578,0.4487305,1,1,1h1.6923828c0.5512695,0,1-0.4482422,1-1V57.7177734c0-0.5512695-0.4487305-1-1-1H62.5898438
	z"/>
</svg>
