<?xml version="1.0" encoding="utf-8"?>
<!-- Generator: Adobe Illustrator 23.0.0, SVG Export Plug-In . SVG Version: 6.00 Build 0)  -->
<svg version="1.1" id="icon-circular" xmlns="http://www.w3.org/2000/svg" xmlns:xlink="http://www.w3.org/1999/xlink" x="0px"
	 y="0px" viewBox="0 0 160 160" style="enable-background:new 0 0 160 160;" xml:space="preserve">
<path d="M80,160c-21.8862305,0-41.7480469-8.8339844-56.206543-23.125
	c-0.1225586-0.0966797-0.2407227-0.2011719-0.3540039-0.3144531c-0.112793-0.1123047-0.2177734-0.2304688-0.3144531-0.3535156
	C8.8349609,121.7490234,0,101.8867188,0,80c0-21.8862305,8.8369141-41.7504883,23.1269531-56.2089844
	c0.0961914-0.121582,0.2001953-0.2392578,0.3125-0.3515625s0.2299805-0.2163086,0.3515625-0.3125
	C38.2495117,8.8369141,58.1137695,0,80,0c21.8867188,0,41.7490234,8.8349609,56.2070313,23.125
	c0.1230469,0.0966797,0.2412109,0.2016602,0.3535156,0.3144531c0.1132813,0.1132813,0.2177734,0.2314453,0.3144531,0.3540039
	C151.1660156,38.2519531,160,58.1137695,160,80c0,21.8867188-8.8320313,41.7460938-23.1230469,56.2050781
	c-0.0966797,0.1230469-0.2021484,0.2421875-0.3164063,0.3554688c-0.1132813,0.1142578-0.2324219,0.2197266-0.3554688,0.3164063
	C121.7460938,151.1679688,101.8867188,160,80,160z M32.0185547,133.6386719C44.7636719,145.0507813,61.5864258,152,80,152
	c18.4130859,0,35.2363281-6.9492188,47.9814453-18.3613281l-26.6601563-26.6601563
	c-5.8652344,4.6455078-13.2753906,7.421875-21.3212891,7.421875c-8.0463867,0-15.4555664-2.7763672-21.3212891-7.421875
	L32.0185547,133.6386719z M26.3618164,32.0185547C14.949707,44.7636719,8,61.5864258,8,80
	c0,18.4130859,6.949707,35.2363281,18.3618164,47.9814453l26.6601563-26.6601563
	C48.3764648,95.4560547,45.6000977,88.0458984,45.6000977,80c0-8.0463867,2.7763672-15.4555664,7.421875-21.3208008
	L26.3618164,32.0185547z M106.9785156,101.3212891l26.6601563,26.6601563C145.0507813,115.2363281,152,98.4130859,152,80
	c0-18.4135742-6.9492188-35.2363281-18.3613281-47.9814453l-26.6601563,26.6601563
	c4.6455078,5.8657227,7.421875,13.2749023,7.421875,21.3212891
	C114.4003906,88.0458984,111.6240234,95.4560547,106.9785156,101.3212891z M80,53.6000977
	c-14.5571289,0-26.3999023,11.8427734-26.3999023,26.3999023c0,14.5576172,11.8427734,26.4003906,26.3999023,26.4003906
	c14.5576172,0,26.4003906-11.8427734,26.4003906-26.4003906C106.4003906,65.4428711,94.5576172,53.6000977,80,53.6000977z
	 M32.0185547,26.3618164l26.6606445,26.6601563C64.5444336,48.3764648,71.9536133,45.6000977,80,45.6000977
	c8.0458984,0,15.4560547,2.7763672,21.3212891,7.421875l26.6601563-26.6601563C115.2363281,14.949707,98.4130859,8,80,8
	C61.5864258,8,44.7636719,14.949707,32.0185547,26.3618164z"/>
</svg>
