<?xml version="1.0" encoding="utf-8"?>
<!-- Generator: Adobe Illustrator 23.0.0, SVG Export Plug-In . SVG Version: 6.00 Build 0)  -->
<svg version="1.1" id="icon-clock" xmlns="http://www.w3.org/2000/svg" xmlns:xlink="http://www.w3.org/1999/xlink" x="0px" y="0px"
	 viewBox="0 0 160 160" style="enable-background:new 0 0 160 160;" xml:space="preserve">
<path d="M80,160c-44.1123047,0-80-35.8876953-80-80S35.8876953,0,80,0s80,35.8876953,80,80S124.1123047,160,80,160z M80,8
	C40.2988281,8,8,40.2988281,8,80s32.2988281,72,72,72s72-32.2988281,72-72S119.7011719,8,80,8z M110.3974609,99.2011719
	c-0.6015625,0-1.2119141-0.1357422-1.7861328-0.4228516L78.2109375,83.578125C76.855957,82.9003906,76,81.5146484,76,80V34.3999023
	c0-2.2089844,1.7910156-4,4-4s4,1.7910156,4,4V77.527832l28.1894531,14.0942383
	c1.9755859,0.9882813,2.7763672,3.390625,1.7890625,5.3671875C113.2773438,98.390625,111.8642578,99.2011719,110.3974609,99.2011719
	z"/>
</svg>
