<?xml version="1.0" encoding="utf-8"?>
<!-- Generator: Adobe Illustrator 18.0.0, SVG Export Plug-In . SVG Version: 6.00 Build 0)  -->
<!DOCTYPE svg PUBLIC "-//W3C//DTD SVG 1.1//EN" "http://www.w3.org/Graphics/SVG/1.1/DTD/svg11.dtd">
<svg version="1.1" id="icon-cloud" xmlns="http://www.w3.org/2000/svg" xmlns:xlink="http://www.w3.org/1999/xlink" x="0px" y="0px"
	 viewBox="0 0 160 160" style="enable-background:new 0 0 160 160;" xml:space="preserve">
<path d="M70,160l-26.7744141-25.6885986c-1.5913086-1.526947-1.6391602-4.0504608-0.1069336-5.6367798
	c1.5317383-1.586319,4.0634766-1.6330261,5.6557617-0.1070557L66,145.0954285l-0.0004883-46.1754379
	c0-3.3117981,2.6914063-6.0056229,6-6.0056229H86V48.704792L68.7744141,65.2316818
	c-1.5922852,1.5269547-4.1240234,1.4797516-5.6557617-0.1065674c-1.5322266-1.5863152-1.484375-4.1098213,0.1069336-5.636776
	L90,33.8002281l26.7744141,25.6881104c1.5908203,1.5269547,1.6396484,4.0504608,0.1074219,5.636776
	c-1.5332031,1.586319-4.0654297,1.633522-5.65625,0.1065674L94,48.704792v46.1754417c0,3.3118057-2.6914063,6.0065918-6,6.0065918
	H73.9995117L74,145.0954285l17.2255859-16.5278625c1.5908203-1.5259705,4.1240234-1.4792633,5.65625,0.1070557
	s1.484375,4.1098328-0.1074219,5.6367798L70,160z M129.4003906,100.8868256H116c-2.2089844,0-4-1.7848434-4-3.9862289
	c0-2.2013779,1.7910156-3.9862289,4-3.9862289h13.4003906C141.8623047,92.9143677,152,82.5458908,152,69.8003693
	c0-11.6978683-8.5488281-21.5636864-19.8857422-22.9490395l-2.9873047-0.3649483l-0.4755859-2.9624214
	c-3.3046875-20.5997353-20.5693359-35.5515022-41.0517578-35.5515022c-15.3344727,0-29.3803711,8.5724373-36.65625,22.371933
	l-1.5117188,2.8670502l-3.125-0.8870735c-2.6264648-0.745472-5.3535156-1.12356-8.1064453-1.12356
	C21.5478516,31.2008076,8,45.0431252,8,62.0575905s13.5478516,30.8567772,30.2001953,30.8567772H44
	c2.2089844,0,4,1.7848511,4,3.9862289c0,2.2013855-1.7910156,3.9862289-4,3.9862289h-5.7998047
	C17.1367188,100.8868256,0,83.468483,0,62.0575905c0-21.4104118,17.1367188-38.8292389,38.2001953-38.8292389
	c2.425293,0,4.8369141,0.2316208,7.2016602,0.690485C54.4179688,9.0877466,70.315918,0,87.5996094,0
	c23.4873047,0,43.4189453,16.4208126,48.4199219,39.4433289C149.8798828,42.5415115,160,55.0987206,160,69.8003693
	C160,86.9418411,146.2734375,100.8868256,129.4003906,100.8868256z"/>
</svg>
