<?xml version="1.0" encoding="utf-8"?>
<!-- Generator: Adobe Illustrator 23.0.0, SVG Export Plug-In . SVG Version: 6.00 Build 0)  -->
<svg version="1.1" id="icon-codepen" xmlns="http://www.w3.org/2000/svg" xmlns:xlink="http://www.w3.org/1999/xlink" x="0px"
	 y="0px" viewBox="0 0 160 160" style="enable-background:new 0 0 160 160;" xml:space="preserve">
<path d="M80,160c-0.0029297,0-0.0048828,0-0.0097656,0c-0.0024414,0-0.0053711,0-0.0078125,0c0,0,0,0-0.0004883,0
	c-0.8178711-0.0039063-1.5776367-0.2529297-2.2099609-0.6777344l-75.875-49.3193359
	c-0.4169922-0.2568359-0.7919922-0.5947266-1.1015625-1.0097656H0.7949219
	c-0.0009766-0.0019531-0.0019531-0.0029297-0.0029297-0.0039063c-0.0395508-0.0537109-0.078125-0.1083984-0.1152344-0.1630859
	C0.2089844,108.1279297-0.0102539,107.3339844,0,106.5507813V53.4487305
	c-0.0102539-0.7822266,0.2084961-1.5751953,0.6748047-2.2719727c0.0375977-0.0566406,0.0771484-0.1123047,0.1176758-0.1669922
	h0.0004883c0.0009766-0.0014648,0.0019531-0.0029297,0.0029297-0.0043945
	c0.309082-0.4140625,0.6835938-0.7514648,1.0996094-1.0083008L77.7719727,0.6777344
	C78.4042969,0.2529297,79.1640625,0.003418,79.9819336,0c0.0004883,0,0.0004883,0,0.0004883,0c0.0029297,0,0.0068359,0,0.0092773,0
	c0.0058594,0,0.0107422,0,0.0166016,0c0.0024414,0.0009766,0.0068359,0,0.0092773,0c0,0,0,0,0.0004883,0
	c0.8178711,0.003418,1.5776367,0.2529297,2.2104492,0.6777344l75.8740234,49.3183594
	c0.4169922,0.2568359,0.7929688,0.5952148,1.1015625,1.0097656c0.0019531,0.0004883-0.0009766,0.0004883,0.0039063,0.0043945
	c0.0400391,0.0541992,0.0791016,0.1098633,0.1171875,0.1665039c0.4667969,0.6967773,0.6845703,1.4897461,0.6748047,2.2719727
	v53.1020508c0.0097656,0.7832031-0.2089844,1.5771484-0.6767578,2.2753906
	c-0.0371094,0.0546875-0.0761719,0.109375-0.1152344,0.1630859c-0.0009766,0.0009766-0.0009766,0.0019531-0.0039063,0.0048828
	c-0.3085938,0.4130859-0.6835938,0.7509766-1.0996094,1.0078125l-75.8759766,49.3203125
	c-0.6328125,0.4248047-1.3925781,0.6738281-2.2104492,0.6777344c-0.0004883,0-0.0004883,0-0.0004883,0
	c-0.0029297,0-0.0078125-0.0009766-0.0092773,0C80.0053711,160,80.0029297,160,80,160z M84,108.6826172v39.9462891
	l64.8496094-42.1523438L118,84.8828125L84,108.6826172z M11.1508789,106.4765625L76,148.6289063v-39.9462891L42,84.8828125
	L11.1508789,106.4765625z M48.9750977,80L80,101.7167969L111.0244141,80L80,58.2827148L48.9750977,80z M124.9755859,80
	L152,98.9169922V61.0825195L124.9755859,80z M8,61.0825195v37.8344727L35.0249023,80L8,61.0825195z M84,51.3173828l34,23.7998047
	l30.8496094-21.5942383L84,11.3706055V51.3173828z M11.1508789,53.5229492L42,75.1171875l34-23.7998047V11.3706055
	L11.1508789,53.5229492z"/>
</svg>
