<?xml version="1.0" encoding="utf-8"?>
<!-- Generator: Adobe Illustrator 23.0.0, SVG Export Plug-In . SVG Version: 6.00 Build 0)  -->
<svg version="1.1" id="icon-code" xmlns="http://www.w3.org/2000/svg" xmlns:xlink="http://www.w3.org/1999/xlink" x="0px" y="0px"
	 viewBox="0 0 160 160" style="enable-background:new 0 0 160 160;" xml:space="preserve">
<path d="M66.6040039,160c-0.230957,0-0.4643555-0.0205078-0.699707-0.0615234
	c-2.175293-0.3837891-3.6279297-2.4579926-3.2446289-4.6337738L89.4619141,3.3049428
	c0.3837891-2.1747942,2.4619141-3.624006,4.6337891-3.2446134c2.1757813,0.3837872,3.6289063,2.4584844,3.2451172,4.6342554
	L70.5385742,156.6933746C70.1962891,158.6337891,68.5083008,160,66.6040039,160z M113.5,126.4991837
	c-1.0234375,0-2.0478516-0.390625-2.828125-1.1718674c-1.5625-1.5615158-1.5625-4.0947113,0-5.6562271l39.6708984-39.6716843
	L110.671875,40.3282051c-1.5625-1.5624924-1.5625-4.0947075,0-5.6571999c1.5605469-1.5615158,4.0957031-1.5615158,5.65625,0
	l42.5,42.4998016c1.5625,1.5624924,1.5625,4.095192,0,5.6567078l-42.5,42.4998016
	C115.5478516,126.1085587,114.5234375,126.4991837,113.5,126.4991837z M46.5,126.4991837
	c-1.0239258,0-2.0473633-0.390625-2.8286133-1.1718674l-42.5-42.4998016c-1.5620117-1.5615158-1.5620117-4.0942154,0-5.6567078
	l42.5-42.4998016c1.5625-1.5615158,4.0947266-1.5615158,5.6572266,0c1.5620117,1.5624924,1.5620117,4.0947075,0,5.6571999
	L9.6567383,79.9994049l39.671875,39.6716843c1.5620117,1.5615158,1.5620117,4.0947113,0,5.6562271
	C48.5473633,126.1085587,47.5239258,126.4991837,46.5,126.4991837z"/>
</svg>
