<?xml version="1.0" encoding="utf-8"?>
<!-- Generator: Adobe Illustrator 23.0.0, SVG Export Plug-In . SVG Version: 6.00 Build 0)  -->
<svg version="1.1" id="icon-coding" xmlns="http://www.w3.org/2000/svg" xmlns:xlink="http://www.w3.org/1999/xlink" x="0px"
	 y="0px" viewBox="0 0 160 160" style="enable-background:new 0 0 160 160;" xml:space="preserve">
<path d="M156,160H4c-2.2089844,0-4-1.7910156-4-4V4c0-2.2089844,1.7910156-4,4-4h152c2.2089844,0,4,1.7910156,4,4v152
	C160,158.2089844,158.2089844,160,156,160z M8,152h144V52H8V152z M8,44h144V8H8V44z M73.059082,145.3935547
	c-0.230957,0-0.4643555-0.0205078-0.699707-0.0615234c-2.175293-0.3837891-3.6279297-2.4580078-3.2446289-4.6337891
	l13.8920898-78.7851563c0.3837891-2.175293,2.4628906-3.6254883,4.6337891-3.2446289
	c2.1757813,0.3837891,3.6289063,2.4584961,3.2451172,4.6342773l-13.8920898,78.7841797
	C76.6513672,144.0273438,74.9633789,145.3935547,73.059082,145.3935547z M107.25,131.5
	c-1.0234375,0-2.0478516-0.390625-2.828125-1.171875c-1.5625-1.5615234-1.5625-4.0947266,0-5.65625L127.0927734,102
	L104.421875,79.3286133c-1.5625-1.5625-1.5625-4.0947266,0-5.6572266c1.5605469-1.5615234,4.0957031-1.5615234,5.65625,0
	l25.5,25.5004883c1.5625,1.5615234,1.5625,4.0947266,0,5.65625l-25.5,25.5C109.2978516,131.109375,108.2734375,131.5,107.25,131.5z
	 M52.75,131.5c-1.0239258,0-2.0473633-0.390625-2.8286133-1.171875l-25.5-25.5c-1.5620117-1.5615234-1.5620117-4.0947266,0-5.65625
	l25.5-25.5004883c1.5625-1.5615234,4.0947266-1.5615234,5.6572266,0c1.5620117,1.5625,1.5620117,4.0947266,0,5.6572266
	L32.9067383,102l22.671875,22.671875c1.5620117,1.5615234,1.5620117,4.0947266,0,5.65625
	C54.7973633,131.109375,53.7739258,131.5,52.75,131.5z M98,34c-4.4111328,0-8-3.5888672-8-8s3.5888672-8,8-8s8,3.5888672,8,8
	S102.4111328,34,98,34z M48,34c-4.4111328,0-8-3.5888672-8-8s3.5888672-8,8-8s8,3.5888672,8,8S52.4111328,34,48,34z M26,34
	c-4.4111328,0-8-3.5888672-8-8s3.5888672-8,8-8s8,3.5888672,8,8S30.4111328,34,26,34z M140,30h-24c-2.2089844,0-4-1.7910156-4-4
	s1.7910156-4,4-4h24c2.2089844,0,4,1.7910156,4,4S142.2089844,30,140,30z"/>
</svg>
