<?xml version="1.0" encoding="utf-8"?>
<!-- Generator: Adobe Illustrator 23.0.0, SVG Export Plug-In . SVG Version: 6.00 Build 0)  -->
<svg version="1.1" id="icon-comment" xmlns="http://www.w3.org/2000/svg" xmlns:xlink="http://www.w3.org/1999/xlink" x="0px"
	 y="0px" viewBox="0 0 160 160" style="enable-background:new 0 0 160 160;" xml:space="preserve">
<path d="M37.5820313,152.0476074c-0.9160156,0-1.8369141-0.2119141-2.6943359-0.6416016
	c-2.0429688-1.0234375-3.3120117-3.0791016-3.3120117-5.3642578v-19.5458984H14c-7.7197266,0-14-6.2802734-14-14v-90.543457
	c0-7.7197266,6.2802734-14,14-14h132c7.7197266,0,14,6.2802734,14,14v90.5493164c0,7.7197266-6.2802734,14-14,14H73.7548828
	l-32.5878906,24.3466797C40.1049805,151.642334,38.8486328,152.0476074,37.5820313,152.0476074z M14,15.9523926
	c-3.3085938,0-6,2.6914063-6,6v90.543457c0,3.3085938,2.6914063,6,6,6h21.5756836c2.2089844,0,4,1.7910156,4,4v19.5556641
	l30.4560547-22.7539063c0.6914063-0.5166016,1.53125-0.7958984,2.394043-0.7958984H146c3.3085938,0,6-2.6914063,6-6V21.9523926
	c0-3.3085938-2.6914063-6-6-6H14z M45.9370117,74.4602051c-2.1171875,0-4.1645508-0.8305664-5.6787109-2.3486328
	c-1.8691406-1.8745117-2.6884766-4.5576172-2.190918-7.1782227c0.6020508-3.1757813,3.140625-5.7177734,6.3168945-6.324707
	c2.6298828-0.5019531,5.3203125,0.3203125,7.1987305,2.2016602c1.8779297,1.8803711,2.6967773,4.5722656,2.190918,7.2006836
	c-0.6123047,3.1796875-3.1611328,5.715332-6.3422852,6.3105469c-0.0004883,0-0.0004883,0-0.0009766,0.0004883
	C46.9331055,74.4147949,46.4331055,74.4602051,45.9370117,74.4602051z M80.0141602,74.4602051
	c-2.1166992,0-4.1635742-0.8300781-5.6777344-2.3481445c-1.8696289-1.8740234-2.6889648-4.5576172-2.1923828-7.1782227
	c0.6035156-3.1767578,3.1420898-5.7182617,6.3178711-6.3251953c2.6318359-0.5019531,5.3203125,0.3203125,7.1992188,2.2016602
	c1.8769531,1.8803711,2.6962891,4.5722656,2.1904297,7.2006836c-0.6113281,3.1787109-3.1601563,5.715332-6.3427734,6.3105469
	h-0.0009766C81.0107422,74.4147949,80.5102539,74.4602051,80.0141602,74.4602051z M114.1035156,74.4602051
	c-2.1171875,0-4.1640625-0.8300781-5.6787109-2.3486328c-1.8691406-1.8740234-2.6884766-4.5571289-2.1914063-7.1772461
	c0.6025391-3.1772461,3.1416016-5.71875,6.3173828-6.3256836c2.6279297-0.5014648,5.3203125,0.3203125,7.1992188,2.2016602
	c1.8769531,1.8803711,2.6962891,4.5722656,2.1904297,7.2006836c-0.6113281,3.1787109-3.1601563,5.7148438-6.3427734,6.3105469
	c0,0,0,0-0.0009766,0.0004883C115.0996094,74.4147949,114.5996094,74.4602051,114.1035156,74.4602051z"/>
</svg>
