<?xml version="1.0" encoding="utf-8"?>
<!-- Generator: Adobe Illustrator 23.0.0, SVG Export Plug-In . SVG Version: 6.00 Build 0)  -->
<svg version="1.1" id="icon-computer" xmlns="http://www.w3.org/2000/svg" xmlns:xlink="http://www.w3.org/1999/xlink" x="0px"
	 y="0px" viewBox="0 0 160 160" style="enable-background:new 0 0 160 160;" xml:space="preserve">
<path d="M144,160H16c-8.8222656,0-16-7.1777344-16-16v-27.1611328c0-8.8222656,7.1777344-16,16-16h18.7709961
	c-1.3769531-1.6015625-2.421875-3.5634766-3.0161133-5.7929688l-0.1689453-0.6474609
	c-0.1298828-0.5058594-0.4067383-1.5810547-0.690918-2.3896484c-1.6572266,0.0371094-3.2900391,0.0078125-4.8837891-0.0205078
	l-0.8115234-0.015625c-4.7993164-0.0898438-7.6611328-2.9423828-7.6611328-7.6298828
	c0.0195313-27.7729492,0.059082-52.8945313,0.1206055-76.8022461c0.0078125-2.809082,1.0634766-7.5209961,8.0463867-7.5302734
	C38.0043945-0.0048828,122.4003906,0,134.1005859,0.0063477c5.8681641,0.0063477,8.2636719,2.3989258,8.2695313,8.2592773
	c0.0361328,25.159668,0.0693359,50.3208008,0.0917969,75.4814453v0.0009766
	c0.0048828,5.8115234-2.4023438,8.1962891-8.3095703,8.2324219c-0.2646484,0.0009766-0.5214844,0.0087891-0.7783203,0.0166016
	c-0.7646484,0.0224609-1.6308594,0.0478516-2.5751953-0.0546875c-0.0039063-0.0009766-0.0087891-0.0009766-0.0136719-0.0009766
	c-0.3798828,0-1.9550781,1.5195313-2.9638672,5.0947266c-0.3964844,1.4042969-1.0761719,2.6865234-1.9697266,3.8027344H144
	c8.8222656,0,16,7.1777344,16,16V144C160,152.8222656,152.8222656,160,144,160z M16,108.8388672c-4.4111328,0-8,3.5888672-8,8V144
	c0,4.4111328,3.5888672,8,8,8h128c4.4111328,0,8-3.5888672,8-8v-27.1611328c0-4.4111328-3.5888672-8-8-8H16z M54.793457,100.8388672
	h50.8344727c-1.2451172-1.4785156-2.1796875-3.2792969-2.7509766-5.3574219
	c-0.2353516-0.8603516-0.8046875-1.3037109-0.9912109-1.3359375c-14.65625,0.0888672-27.4697266,0.0498047-42.3056641,0.0058594
	l-1.296875-0.0039063c-0.1635742,0.1298828-0.4047852,0.4257813-0.4863281,0.7617188
	C57.2470703,97.1865234,56.2021484,99.1992188,54.793457,100.8388672z M101.90625,86.1464844
	c3.9521484,0,7.5205078,2.9609375,8.6855469,7.21875c0.6855469,2.4921875,2.21875,3.7822266,4.8251953,4.0576172
	c1.9023438,0.2001953,4.1806641-0.7011719,4.7050781-2.5605469c2.0527344-7.2714844,6.5-11.4404297,11.5546875-10.8720703
	c0.3837891,0.0429688,0.9072266,0.0253906,1.4609375,0.0107422c0.453125-0.0136719,0.9472656-0.0136719,1.3232422-0.0253906
	c0.0009766-0.0693359,0.0009766-0.1435547,0.0009766-0.2207031l0,0c-0.0224609-25.159668-0.0556641-50.3198242-0.0917969-75.4790039
	c0-0.0952148-0.0009766-0.184082-0.0019531-0.2680664c-0.0849609-0.0009766-0.1767578-0.0014648-0.2734375-0.0014648
	C122.3945313,7.9990234,38.0102539,7.9951172,25.7158203,8.0102539c-0.0195313,0-0.0390625,0-0.0576172,0.0004883
	c-0.0610352,23.6630859-0.0996094,48.5200195-0.1191406,75.9667969l0.6210938,0.0117188
	c2.0800781,0.0390625,4.0458984,0.0751953,5.9833984-0.0351563c4.921875-0.2832031,6.4042969,5.3984375,7.1899414,8.4511719
	l0.1503906,0.5761719c0.7446289,2.7949219,2.8212891,4.4707031,5.3569336,4.4570313
	c2.4726563-0.0429688,4.5541992-1.8154297,5.1806641-4.4101563c0.9521484-3.9277344,4.3911133-6.8818359,8.003418-6.8818359
	c0.0048828,0,0.0097656,0,0.0146484,0l1.5639648,0.0048828c14.8188477,0.0439453,27.6152344,0.0820313,42.2470703-0.0048828
	C101.8691406,86.1464844,101.8876953,86.1464844,101.90625,86.1464844z M142.625,146.4677734H80.265625
	c-2.2089844,0-4-1.7910156-4-4v-23.3876953c0-2.2089844,1.7910156-4,4-4H142.625c2.2089844,0,4,1.7910156,4,4v23.3876953
	C146.625,144.6767578,144.8339844,146.4677734,142.625,146.4677734z M84.265625,138.4677734H138.625v-15.3876953H84.265625
	V138.4677734z M55.6411133,145.4042969c-2.2089844,0-4-1.7910156-4-4v-12.6679688c0-2.2089844,1.7910156-4,4-4s4,1.7910156,4,4
	v12.6679688C59.6411133,143.6132813,57.8500977,145.4042969,55.6411133,145.4042969z M45.8974609,145.4042969
	c-2.2089844,0-4-1.7910156-4-4v-12.6679688c0-2.2089844,1.7910156-4,4-4s4,1.7910156,4,4v12.6679688
	C49.8974609,143.6132813,48.1064453,145.4042969,45.8974609,145.4042969z M36.1538086,145.4042969c-2.2089844,0-4-1.7910156-4-4
	v-12.6679688c0-2.2089844,1.7910156-4,4-4s4,1.7910156,4,4v12.6679688
	C40.1538086,143.6132813,38.362793,145.4042969,36.1538086,145.4042969z M26.4101563,145.4042969c-2.2089844,0-4-1.7910156-4-4
	v-12.6679688c0-2.2089844,1.7910156-4,4-4s4,1.7910156,4,4v12.6679688
	C30.4101563,143.6132813,28.6191406,145.4042969,26.4101563,145.4042969z M16.6665039,145.4042969c-2.2089844,0-4-1.7910156-4-4
	v-12.6679688c0-2.2089844,1.7910156-4,4-4s4,1.7910156,4,4v12.6679688
	C20.6665039,143.6132813,18.8754883,145.4042969,16.6665039,145.4042969z M124.8203125,137.7998047
	c-1.6835938,0-3.1240234-1.0400391-3.7138672-2.5126953h-4.2861328c-2.2089844,0-4-1.7910156-4-4s1.7910156-4,4-4h4.0322266
	c0.2519531-1.9667969,1.9326172-3.4873047,3.9677734-3.4873047s3.7158203,1.5205078,3.9677734,3.4873047h4.0322266
	c2.2089844,0,4,1.7910156,4,4s-1.7910156,4-4,4h-4.2851563
	C127.9443359,136.7597656,126.5039063,137.7998047,124.8203125,137.7998047z M98.5126953,137.7998047
	c-1.6835938,0-3.1240234-1.0400391-3.7138672-2.5126953h-4.2861328c-2.2089844,0-4-1.7910156-4-4s1.7910156-4,4-4h4.0322266
	c0.2519531-1.9667969,1.9326172-3.4873047,3.9677734-3.4873047s3.7158203,1.5205078,3.9677734,3.4873047h4.0322266
	c2.2089844,0,4,1.7910156,4,4s-1.7910156,4-4,4h-4.2861328C101.6367188,136.7597656,100.1962891,137.7998047,98.5126953,137.7998047
	z M104.5898438,81.1181641c-3.9912109,0-7.9189453-0.0009766-11.9082031-0.0019531l-12.684082-0.0019531l-12.684082,0.0019531
	c-8.046875,0.0019531-15.8461914,0.0029297-24.4174805-0.0019531c-5.9291992-0.0048828-10.7475586-4.9638672-10.7421875-11.0532227
	c0.0087891-7.6621094,0.0029297-14.5512695-0.0024414-21.3867188c-0.0068359-7.859375-0.0131836-15.6484375,0.0024414-24.4570313
	c0-0.0004883,0-0.0009766,0-0.0014648c0.0131836-6.2836914,3.815918-10.8491211,9.0415039-10.8549805
	c12.6264648-0.0019531,24.9609375-0.0488281,36.8891602-0.09375c12.6088867-0.0483398,25.6420898-0.0947266,39.0131836-0.09375
	c5.6044922,0,10.7246094,5.2612305,10.7431641,11.0380859c0.0234375,8.9902344,0.0146484,16.8544922,0.0048828,24.8144531
	c-0.0078125,6.699707-0.0166016,13.4677734-0.0048828,21.0322266c0.0058594,2.8515625-1.2148438,5.7167969-3.3496094,7.8583984
	c-2.0527344,2.0600586-4.6777344,3.1958008-7.390625,3.1977539
	C112.7773438,81.1171875,108.6503906,81.1181641,104.5898438,81.1181641z M79.9975586,73.1147461l12.6850586,0.0019531
	c8.0458984,0.0009766,15.8417969,0.0029297,24.4121094-0.0019531c0.5634766-0.0004883,1.1953125-0.309082,1.7314453-0.8461914
	c0.6269531-0.6293945,1.0166016-1.4707031,1.0146484-2.1953125c-0.0117188-7.5751953-0.0029297-14.3500977,0.0048828-21.0571289
	c0.0097656-7.9501953,0.0185547-15.8046875-0.0048828-24.78125c-0.0039063-1.3149414-1.5683594-3.0615234-2.7441406-3.0615234
	c-13.3486328,0.0063477-26.3818359,0.0458984-38.9819336,0.0932617
	c-11.9350586,0.0454102-24.2768555,0.0922852-36.9145508,0.0942383c-0.5327148,0.0004883-1.043457,1.3959961-1.0463867,2.871582
	c-0.015625,8.8007813-0.0092773,16.5830078-0.0024414,24.4355469c0.0053711,6.840332,0.0112305,13.734375,0.0024414,21.4008789
	c-0.0014648,1.6494141,1.2568359,3.0444336,2.7480469,3.0458984c8.5673828,0.0043945,16.3637695,0.0029297,24.4101563,0.0019531
	L79.9975586,73.1147461z M72.3134766,63.5463867c-0.6586914,0-1.3178711-0.1621094-1.9165039-0.4892578
	c-1.284668-0.7011719-2.0834961-2.0473633-2.0834961-3.5107422V32.2607422c0-1.4633789,0.7988281-2.8095703,2.0834961-3.5107422
	c1.2832031-0.7026367,2.8481445-0.6455078,4.0795898,0.1459961l21.2197266,13.6425781
	c1.1445313,0.7363281,1.8369141,2.0039063,1.8369141,3.3647461s-0.6923828,2.628418-1.8369141,3.3647461L74.4765625,62.9111328
	C73.8198242,63.3334961,73.0673828,63.5463867,72.3134766,63.5463867z M76.3134766,39.5878906v12.6313477l9.8232422-6.315918
	L76.3134766,39.5878906z"/>
</svg>
