<?xml version="1.0" encoding="utf-8"?>
<!-- Generator: Adobe Illustrator 18.0.0, SVG Export Plug-In . SVG Version: 6.00 Build 0)  -->
<!DOCTYPE svg PUBLIC "-//W3C//DTD SVG 1.1//EN" "http://www.w3.org/Graphics/SVG/1.1/DTD/svg11.dtd">
<svg version="1.1" id="icon-connect" xmlns="http://www.w3.org/2000/svg" xmlns:xlink="http://www.w3.org/1999/xlink" x="0px"
	 y="0px" viewBox="0 0 160 160" style="enable-background:new 0 0 160 160;" xml:space="preserve">
<path d="M141,160H70c-10.4765625,0-19-8.5234375-19-19V70c0-10.4765625,8.5234375-19,19-19h15c2.2089844,0,4,1.7910156,4,4
	s-1.7910156,4-4,4H70c-6.0654297,0-11,4.9345703-11,11v71c0,6.0654297,4.9345703,11,11,11h71c6.0654297,0,11-4.9345703,11-11V70
	c0-6.0654297-4.9345703-11-11-11h-16c-2.2089844,0-4-1.7910156-4-4s1.7910156-4,4-4h16c10.4765625,0,19,8.5234375,19,19v71
	C160,151.4765625,151.4765625,160,141,160z M90,109H73.9995117c-2.2089844,0-4-1.7910156-4-4s1.7910156-4,4-4H90
	c6.0654297,0,11-4.9345703,11-11V19c0-6.0654297-4.9345703-11-11-11H19C12.9345703,8,8,12.9345703,8,19v71
	c0,6.0654297,4.9345703,11,11,11h15.0004883c2.2089844,0,4,1.7910156,4,4s-1.7910156,4-4,4H19c-10.4765625,0-19-8.5234375-19-19V19
	C0,8.5234375,8.5234375,0,19,0h71c10.4765625,0,19,8.5234375,19,19v71C109,100.4765625,100.4765625,109,90,109z"/>
</svg>
