<?xml version="1.0" encoding="utf-8"?>
<!-- Generator: Adobe Illustrator 23.0.0, SVG Export Plug-In . SVG Version: 6.00 Build 0)  -->
<svg version="1.1" id="icon-cross" xmlns="http://www.w3.org/2000/svg" xmlns:xlink="http://www.w3.org/1999/xlink" x="0px" y="0px"
	 viewBox="0 0 160 160" style="enable-background:new 0 0 160 160;" xml:space="preserve">
<path d="M133.7402344,137.7402344c-1.0234375,0-2.0478516-0.390625-2.828125-1.171875L80,85.6572266l-50.9116211,50.9111328
	c-1.5625,1.5625-4.0947266,1.5625-5.6572266,0c-1.5620117-1.5615234-1.5620117-4.0947266,0-5.65625L74.3432617,80
	L23.4311523,29.0883789c-1.5620117-1.5625-1.5620117-4.0947266,0-5.6572266c1.5625-1.5615234,4.0947266-1.5615234,5.6572266,0
	L80,74.3432617l50.9121094-50.9121094c1.5605469-1.5615234,4.0957031-1.5615234,5.65625,0
	c1.5625,1.5625,1.5625,4.0947266,0,5.6572266L85.6572266,80l50.9111328,50.9121094c1.5625,1.5615234,1.5625,4.0947266,0,5.65625
	C135.7880859,137.3496094,134.7636719,137.7402344,133.7402344,137.7402344z"/>
</svg>
