<?xml version="1.0" encoding="utf-8"?>
<!-- Generator: Adobe Illustrator 18.0.0, SVG Export Plug-In . SVG Version: 6.00 Build 0)  -->
<!DOCTYPE svg PUBLIC "-//W3C//DTD SVG 1.1//EN" "http://www.w3.org/Graphics/SVG/1.1/DTD/svg11.dtd">
<svg version="1.1" id="icon-design" xmlns="http://www.w3.org/2000/svg" xmlns:xlink="http://www.w3.org/1999/xlink" x="0px"
	 y="0px" viewBox="0 0 160 160" style="enable-background:new 0 0 160 160;" xml:space="preserve">
<path d="M116,160H44c-2.2089844,0-4-1.7910156-4-4v-20c0-2.2089844,1.7910156-4,4-4h13v-10
	c0-0.1289063,0.0063477-0.2568359,0.0180664-0.3828125L42.206543,77.3251953
	c-0.4042969-1.2089844-0.2080078-2.5385742,0.5288086-3.5795898L72.2836914,32H68c-2.2089844,0-4-1.7910156-4-4v-7.0517578
	c-28.2402344,6.987793-48.565918,31.6748047-49.9272461,60.9189453C17.5625,83.4296875,20,86.9355469,20,91
	c0,5.5136719-4.4858398,10-10,10S0,96.5136719,0,91c0-4.1191406,2.5029297-7.6640625,6.0673828-9.1943359
	C7.1870117,55.3344727,22.1665039,32.1567383,44.5048828,20H31.4936523C29.7133789,26.8930664,23.4418945,32,16,32
	C7.1777344,32,0,24.8222656,0,16S7.1777344,0,16,0c7.4418945,0,13.7133789,5.1069336,15.4936523,12H64V4
	c0-2.2089844,1.7910156-4,4-4h24c2.2089844,0,4,1.7910156,4,4v8h32.5058594C130.2871094,5.1069336,136.5585938,0,144,0
	c8.8222656,0,16,7.1777344,16,16s-7.1777344,16-16,16c-7.4414063,0-13.7128906-5.1069336-15.4941406-12h-13.0107422
	c22.3378906,12.1567383,37.3183594,35.3344727,38.4375,61.8056641C157.4970703,83.3359375,160,86.8808594,160,91
	c0,5.5136719-4.4863281,10-10,10s-10-4.4863281-10-10c0-4.0644531,2.4375-7.5703125,5.9267578-9.1328125
	C144.5654297,52.6230469,124.2402344,27.9360352,96,20.9482422V28c0,2.2089844-1.7910156,4-4,4h-4.2832031l24.2353516,34.2304688
	C118,74.7729492,118,74.7729492,118,76.0458984c0,0.4311523-0.0693359,0.859375-0.2060547,1.2685547l-14.8125,44.3017578
	C102.9941406,121.7421875,103,121.8701172,103,122v10h13c2.2089844,0,4,1.7910156,4,4v20C120,158.2089844,118.2089844,160,116,160z
	 M48,152h64v-12H48V152z M65,132h30v-6H65V132z M64.2436523,118h31.512207l13.8076172-41.2983398
	C105.5908203,71.0908203,92.4023438,52.4628906,84,40.5947266v28.0908203C88.65625,70.3364258,92,74.7851563,92,80
	c0,6.6171875-5.3828125,12-12,12c-6.6166992,0-12-5.3828125-12-12c0-5.2148438,3.34375-9.6635742,8-11.3144531V40.597168
	L50.4370117,76.7119141L64.2436523,118z M150,89c-1.1025391,0-2,0.8974609-2,2s0.8974609,2,2,2s2-0.8974609,2-2
	S151.1025391,89,150,89z M10,89c-1.1030273,0-2,0.8974609-2,2s0.8969727,2,2,2s2-0.8974609,2-2S11.1030273,89,10,89z M80,76
	c-2.2055664,0-4,1.7944336-4,4c0,2.2060547,1.7944336,4,4,4c2.2060547,0,4-1.7939453,4-4C84,77.7944336,82.2060547,76,80,76z M144,8
	c-4.4111328,0-8,3.5888672-8,8s3.5888672,8,8,8s8-3.5888672,8-8S148.4111328,8,144,8z M80,24h8v-7.7817383
	c-0.0058594-0.1254883-0.0058594-0.2519531,0-0.3793945V8H72v7.9316406c0.0009766,0.050293,0.0009766,0.1000977,0,0.1503906V24H80z
	 M16,8c-4.4111328,0-8,3.5888672-8,8s3.5888672,8,8,8s8-3.5888672,8-8S20.4111328,8,16,8z"/>
</svg>
