<?xml version="1.0" encoding="utf-8"?>
<!-- Generator: Adobe Illustrator 18.0.0, SVG Export Plug-In . SVG Version: 6.00 Build 0)  -->
<!DOCTYPE svg PUBLIC "-//W3C//DTD SVG 1.1//EN" "http://www.w3.org/Graphics/SVG/1.1/DTD/svg11.dtd">
<svg version="1.1" id="icon-desktop" xmlns="http://www.w3.org/2000/svg" xmlns:xlink="http://www.w3.org/1999/xlink" x="0px"
	 y="0px" viewBox="0 0 160 160" style="enable-background:new 0 0 160 160;" xml:space="preserve">
<path d="M110,160H50c-1.7866211,0-3.3564453-1.1845703-3.8466797-2.9023438
	c-0.4897461-1.71875,0.21875-3.5527344,1.7363281-4.4960938C61.9238281,143.8857422,67.1967773,136.3896484,64.9785156,128H19
	c-10.4765625,0-19-8.5234375-19-19V19C0,8.5234375,8.5234375,0,19,0h122c10.4765625,0,19,8.5234375,19,19v90
	c0,10.4765625-8.5234375,19-19,19H95.0214844c-2.21875,8.3896484,3.0546875,15.8857422,17.0888672,24.6015625
	c1.5175781,0.9433594,2.2265625,2.7773438,1.7363281,4.4960938C113.3564453,158.8154297,111.7861328,160,110,160z M62.3925781,152
	h35.2148438c-7.0527344-6.1074219-12.5634766-14.0107422-10.7910156-24H73.1831055
	C74.9550781,137.9902344,69.4453125,145.8925781,62.3925781,152z M8,104v5c0,6.0654297,4.9345703,11,11,11h122
	c6.0654297,0,11-4.9345703,11-11v-5H8z M8,96h144V19c0-6.0654297-4.9345703-11-11-11H19C12.9345703,8,8,12.9345703,8,19V96z"/>
</svg>
