<?xml version="1.0" encoding="utf-8"?>
<!-- Generator: Adobe Illustrator 23.0.0, SVG Export Plug-In . SVG Version: 6.00 Build 0)  -->
<svg version="1.1" id="icon-dimension" xmlns="http://www.w3.org/2000/svg" xmlns:xlink="http://www.w3.org/1999/xlink" x="0px"
	 y="0px" viewBox="0 0 160 160" style="enable-background:new 0 0 160 160;" xml:space="preserve">
<path d="M156,140H0V24c0-2.2089844,1.7910156-4,4-4s4,1.7910156,4,4v108h148c2.2089844,0,4,1.7910156,4,4S158.2089844,140,156,140z
	 M28.9970703,114c-0.8393555,0-1.6855469-0.2626953-2.4067383-0.8076172
	c-1.7631836-1.3300781-2.1137695-3.8388672-0.7832031-5.6025391l47.1713867-62.4970703l40.203125,29.3569336L148.3056641,28
	h-17.7382813c-2.2089844,0-4-1.7910156-4-4s1.7910156-4,4-4H160v29.2905273c0,2.2089844-1.7910156,4-4,4s-4-1.7910156-4-4V36.378418
	l-37.1816406,49.1713867L74.6201172,56.1972656l-42.4272461,56.2128906C31.40625,113.4511719,30.2089844,114,28.9970703,114z"/>
</svg>
