<?xml version="1.0" encoding="utf-8"?>
<!-- Generator: Adobe Illustrator 23.0.0, SVG Export Plug-In . SVG Version: 6.00 Build 0)  -->
<svg version="1.1" id="icon-dislike" xmlns="http://www.w3.org/2000/svg" xmlns:xlink="http://www.w3.org/1999/xlink" x="0px"
	 y="0px" viewBox="0 0 160 160" style="enable-background:new 0 0 160 160;" xml:space="preserve">
<path d="M85.642601,160c-13.3000031,0-24.1199837-12.0224609-24.1199837-26.7998047v-26.3994141H27.5645943
	c-0.917984,0.0175781-1.8877239-0.0654297-2.8418388-0.2294922c-9.4073668-1.6181641-15.9279709-11.3896484-14.5353727-21.7822266
	l9.2555094-68.4042969c1.263689-9.4477539,8.7154598-16.5014648,17.4279919-16.3833008l95.7157745-0.0004883
	C142.1883545,0.0009766,150,8.6137695,150,19.2006836v53.199707c0,10.5869141-7.8116455,19.2001953-17.4133453,19.2001953
	h-17.3908844l-25.829483,65.859375C88.7656937,158.9921875,87.2881317,160,85.642601,160z M65.5226746,98.8007813
	c2.2090149,0,4.000061,1.7910156,4.000061,4v30.3994141c0,9.3222656,5.8477402,17.0810547,13.4899445,18.5498047
	l25.455452-64.9052734v-78.84375H36.8196144c-4.6958694-0.1049805-8.7198563,4.003418-9.4478951,9.4501953l-9.2559967,68.4052734
	c-0.8271599,6.1748047,2.7446709,11.9326172,7.9625206,12.8300781c0.474617,0.0810547,0.9575348,0.1279297,1.4380093,0.1142578
	H65.5226746z M116.4682541,83.6005859h16.1184006c5.190506,0,9.4132233-5.0244141,9.4132233-11.2001953v-53.199707
	c0-6.1757813-4.2227173-11.199707-9.4132233-11.199707h-16.1184006V83.6005859z"/>
</svg>
