<?xml version="1.0" encoding="utf-8"?>
<!-- Generator: Adobe Illustrator 23.0.0, SVG Export Plug-In . SVG Version: 6.00 Build 0)  -->
<svg version="1.1" id="icon-download" xmlns="http://www.w3.org/2000/svg" xmlns:xlink="http://www.w3.org/1999/xlink" x="0px"
	 y="0px" viewBox="0 0 160 160" style="enable-background:new 0 0 160 160;" xml:space="preserve">
<path d="M148.4003906,160H11.6000977c-2.2089844,0-4-1.7910156-4-4v-30.90625c0-2.2089844,1.7910156-4,4-4s4,1.7910156,4,4V152
	h128.800293v-26.90625c0-2.2089844,1.7910156-4,4-4s4,1.7910156,4,4V156C152.4003906,158.2089844,150.609375,160,148.4003906,160z
	 M79.746582,129.09375c-0.0043945,0-0.0087891,0-0.0126953,0c-1.0654297-0.0039063-2.0854492-0.4316406-2.8339844-1.1894531
	L37.8867188,88.3837891c-1.5517578-1.5722656-1.5356445-4.1054688,0.0366211-5.6572266s4.1040039-1.5341797,5.6567383,0.0361328
	L76,115.6044922V4c0-2.2089844,1.7910156-4,4-4s4,1.7910156,4,4v111.1835938l32.4384766-32.4384766
	c1.5605469-1.5625,4.09375-1.5625,5.65625,0c1.5625,1.5615234,1.5625,4.0947266,0,5.65625L82.5751953,127.921875
	C81.8251953,128.6728516,80.8071289,129.09375,79.746582,129.09375z"/>
</svg>
