<?xml version="1.0" encoding="utf-8"?>
<!-- Generator: Adobe Illustrator 18.0.0, SVG Export Plug-In . SVG Version: 6.00 Build 0)  -->
<!DOCTYPE svg PUBLIC "-//W3C//DTD SVG 1.1//EN" "http://www.w3.org/Graphics/SVG/1.1/DTD/svg11.dtd">
<svg version="1.1" id="icon-drupal" xmlns="http://www.w3.org/2000/svg" xmlns:xlink="http://www.w3.org/1999/xlink" x="0px"
	 y="0px" viewBox="0 0 160 160" style="enable-background:new 0 0 160 160;" xml:space="preserve">
<path d="M80.5602341,160c-37.8918076,0-68.7191391-30.0950165-68.7191391-67.0868378
	c0-39.9772682,32.1438217-57.5956802,35.8087845-59.4728928c1.4621735-0.7963486,2.9082108-1.5364761,4.3166084-2.2565632
	c4.1987953-2.1470604,7.8275795-4.0027618,12.940052-7.9933033c2.3782883-1.9818268,4.9775391-4.8675499,5.8755722-13.7701263
	L71.7329407,0l6.0975113,7.2433958c3.6586075,4.3464289,10.4683838,12.4360361,14.7233963,15.3100271
	c3.3516083,2.208168,6.7931595,3.7612667,10.4371033,5.4052925c3.5510559,1.6024742,7.222374,3.2596989,11.0598984,5.6443462
	l0.1261292,0.0782166c21.5957565,13.4328156,33.9814377,35.4304085,33.9814377,60.3533211
	c0,18.7193146-7.209671,35.7325211-20.3012619,47.9070206C115.3345947,153.5871735,98.5374603,160,80.5602341,160z
	 M77.0942307,18.6738529c-1.7828598,5.5861702-4.5097046,8.5535336-7.1177597,10.7177029l-0.0909271,0.0728397
	c-5.7411346,4.4877071-9.8851776,6.606905-14.2726707,8.8502712c-1.3502235,0.6907539-2.7375984,1.3995972-4.2237244,2.2081642
	c-3.3066292,1.69487-31.5386162,17.1720848-31.5386162,52.3903313c0,32.5754776,27.23423,59.0774078,60.7097015,59.0774078
	c33.9706802,0,59.5887527-24.9160767,59.5887527-57.9559708c0-30.2495003-18.9226913-46.5362663-30.2025757-53.5518532
	l-0.1261292-0.0787048c-3.3858185-2.1040421-6.6592102-3.5808792-10.1242294-5.1447334
	c-3.7690887-1.7007332-7.6662598-3.4591522-11.5868912-6.043251C84.8416443,27.0093555,80.9493637,23.0193043,77.0942307,18.6738529
	z M90.1809387,146.095932c-7.1294937,0-14.1939697-1.2563629-19.3597183-5.9415741
	c-1.638649-1.4851532-1.7623291-4.0184021-0.276207-5.6560822c1.4851456-1.6396179,4.0179214-1.7628174,5.6565704-0.2766876
	c4.7854156,4.3400726,13.3575287,4.2012329,21.1098251,3.4904327c6.162529-0.5739136,11.579071-4.1269226,12.472702-4.8611908
	c1.5819397-1.4724426,4.0584869-1.4274597,5.5847015,0.1261292c1.549675,1.5780334,1.5271912,4.1132355-0.0508423,5.6629181
	c-0.9503403,0.9337158-8.1756439,6.2006683-17.27034,7.0473633C95.4791718,145.9228668,92.8256531,146.095932,90.1809387,146.095932
	z M106.8235931,130.0467529c-1.4284439,0-2.8109283-0.7655487-3.5334625-2.1128464l-0.0782166-0.1466599
	c-0.6374664-1.1937866-0.7528381-1.4088821-3.1726837-1.4088821c-3.0592651,0-3.8394852,0.6521378-5.7235413,2.2282028
	l-0.6374664,0.5299225c-1.710022,1.401062-4.2335052,1.1546783-5.6365204-0.5543518
	c-1.4030228-1.7100296-1.154686-4.2335129,0.5543594-5.636528l0.5807648-0.4820175
	c2.2937164-1.9192505,4.8944397-4.0946655,10.8624039-4.0946655c6.6631241,0,8.7769394,2.9126129,10.2366714,5.6423874
	l0.0733261,0.136879c1.0451736,1.9485855,0.3128662,4.3762512-1.6366959,5.4224091
	C108.11026,129.8932495,107.4620361,130.0467529,106.8235931,130.0467529z M66.4918976,126.9366379
	c-7.7126961,0-10.8653336-1.1331711-14.2951584-3.3652954l-0.1051025-0.0703888
	c-3.3731155-2.3504257-7.353878-6.9173279-7.1641998-15.331543c0.1666985-12.1177902,11.3835258-22.5001373,24.4932098-22.6379929
	c0.07724,0,0.1549683-0.0009766,0.2317123-0.0009766c9.6221771,0,17.1671982,5.3109436,23.2397842,9.5855103
	c3.0533981,2.1490173,6.5115738,4.5835266,8.2528839,4.5835266c0.0097733,0,0.0195541,0,0.0293274,0
	c1.9172974-0.0371552,6.7853394-3.3437881,10.0069046-5.5319138c5.2689056-3.5803833,9.8201675-6.6719208,13.9324341-6.6719208
	c8.1864014,0,11.9154053,7.3788147,11.9154053,14.2355194c0,3.520752-1.0275879,11.668045-4.9169312,17.3035889
	c-2.8324432,4.1376877-5.9005051,7.8265991-11.8694458,7.3934784c-3.5931015-0.3011398-6.8078308-3.5608368-10.8780518-7.6867905
	c-2.2575455-2.2888336-6.4597549-6.5497131-8.0661392-6.7335205c-0.0195541-0.0009766-0.0400925-0.0009766-0.0606232-0.0009766
	c-1.9573822,0-6.9857635,3.0240707-11.0344849,5.4595566C82.8236389,121.9053192,74.4602737,126.9366379,66.4918976,126.9366379z
	 M56.6218758,116.8945389c1.6826477,1.0950394,3.1976128,2.0326614,9.8700218,2.0326614
	c5.7450485,0,13.0964813-4.4221954,19.5826416-8.3242569c3.1629028-1.9026337,5.9904556-3.6028748,8.5726013-4.8015518
	c-2.0463562-1.0960159-4.1328049-2.5645447-6.3649216-4.1357346c-5.4126282-3.8101501-11.5448532-8.1257782-18.6298599-8.1257782
	c-0.0518188,0-0.1021652,0-0.1539841,0.0009766c-8.7129021,0.0909271-16.4559097,6.9945679-16.5629692,14.773262
	C52.8171005,113.5722656,54.9675827,115.7300797,56.6218758,116.8945389z M121.0278244,118.4549637
	c1.0510406,0.0684433,1.8263702-0.0733261,4.4837952-3.9568024c2.4227753-3.5099945,3.5080338-9.5767136,3.5080338-12.7669983
	c0-0.2542038-0.0439911-6.2260818-3.9059601-6.2260818c-1.6494064,0-6.5213547,3.3095627-9.4320145,5.2874756
	c-2.9487839,2.0033417-5.8037109,3.9431229-8.5129547,5.2561951c2.6339645,1.7305527,5.2219696,4.3547363,7.8979721,7.067894
	C116.9761734,115.0525208,119.837944,117.9533997,121.0278244,118.4549637z"/>
</svg>
