<?xml version="1.0" encoding="utf-8"?>
<!-- Generator: Adobe Illustrator 18.0.0, SVG Export Plug-In . SVG Version: 6.00 Build 0)  -->
<!DOCTYPE svg PUBLIC "-//W3C//DTD SVG 1.1//EN" "http://www.w3.org/Graphics/SVG/1.1/DTD/svg11.dtd">
<svg version="1.1" id="icon-edit" xmlns="http://www.w3.org/2000/svg" xmlns:xlink="http://www.w3.org/1999/xlink" x="0px" y="0px"
	 viewBox="0 0 160 160" style="enable-background:new 0 0 160 160;" xml:space="preserve">
<path d="M101.0086823,150.0001831H19.0016327c-10.4774628,0-19.0016327-8.5234375-19.0016327-19V49.1354446
	c0-10.4765625,8.5241699-19.0000019,19.0016327-19.0000019h61.0057297c2.2096634,0,3.999855,1.7910156,3.999855,4.0000019
	s-1.7901917,4-3.999855,4H19.0016327c-6.0659504,0-11.0009451,4.9345703-11.0009451,11v81.8647385
	c0,6.0654297,4.9349947,11,11.0009451,11h82.0070496c6.0659485,0,11.000946-4.9345703,11.000946-11V100.091011
	c0-2.2089844,1.7911682-4,4.0003433-4s4.0003433,1.7910156,4.0003433,4v30.9091721
	C120.0103149,141.4767456,111.486145,150.0001831,101.0086823,150.0001831z M44.0042686,116.0001907
	c-1.1563492,0-2.2794914-0.5019531-3.0520172-1.4140625c-1.0323181-1.2167969-1.241806-2.9316406-0.5327606-4.3623047
	l17.8692093-36.0522461c0.2407417-0.4853516,0.577198-0.9169922,0.98983-1.2680664l68.3261871-58.2148438
	c0.0009766,0,0.0009766-0.0004883,0.0009766-0.0004883c4.0306168-3.4335938,9.1316452-5.0698242,14.3918686-4.6132813
	c5.2650909,0.4604492,10.0321045,2.9736328,13.4230194,7.0771484c6.9537201,8.4140625,5.8647614,21.0063496-2.4269562,28.0698261
	l-68.3574448,58.2431641c-0.4179993,0.3554688-0.9043732,0.6220703-1.4298096,0.78125l-38.0374451,11.5800781
	C44.785099,115.9435501,44.3924866,116.0001907,44.0042686,116.0001907z M65.0925064,78.4601517l-13.3898201,27.0146484
	l28.3774376-8.6386719l67.7245636-57.703125c4.9838257-4.2460938,5.6333008-11.8208027,1.4483795-16.8852558
	c-2.0148315-2.4379883-4.8392944-3.9311523-7.9528351-4.2036133c-3.0979309-0.2675781-6.1186981,0.699707-8.5065918,2.7338867
	L65.0925064,78.4601517z"/>
</svg>
