<?xml version="1.0" encoding="utf-8"?>
<!-- Generator: Adobe Illustrator 23.0.0, SVG Export Plug-In . SVG Version: 6.00 Build 0)  -->
<svg version="1.1" id="icon-envelope" xmlns="http://www.w3.org/2000/svg" xmlns:xlink="http://www.w3.org/1999/xlink" x="0px"
	 y="0px" viewBox="0 0 160 160" style="enable-background:new 0 0 160 160;" xml:space="preserve">
<path d="M140.7998047,144.7998047H19.2001953C8.6132813,144.7998047,0,136.1865234,0,125.5996094V46.1411133
	c-0.0004883-0.034668-0.0004883-0.0698242,0-0.1049805V34.3999023c0-10.5869141,8.6132813-19.199707,19.2001953-19.199707
	h121.5996094C151.3867188,15.2001953,160,23.8129883,160,34.3999023v11.6362305c0,0.0351563,0,0.0703125,0,0.1049805v79.4584961
	C160,136.1865234,151.3867188,144.7998047,140.7998047,144.7998047z M8,53.7749023v71.824707
	c0,6.1757813,5.0244141,11.2001953,11.2001953,11.2001953h121.5996094c6.1757813,0,11.2001953-5.0244141,11.2001953-11.2001953
	v-71.824707l-69.7060547,48.7944336c-1.3769531,0.9628906-3.2099609,0.9628906-4.5878906,0L8,53.7749023z M8,44.0097656
	l72,50.3994141l72-50.3994141v-9.6098633c0-6.1757813-5.0244141-11.199707-11.2001953-11.199707H19.2001953
	C13.0244141,23.2001953,8,28.2241211,8,34.3999023V44.0097656z"/>
</svg>
