<?xml version="1.0" encoding="utf-8"?>
<!-- Generator: Adobe Illustrator 23.0.0, SVG Export Plug-In . SVG Version: 6.00 Build 0)  -->
<svg version="1.1" id="icon-exterior" xmlns="http://www.w3.org/2000/svg" xmlns:xlink="http://www.w3.org/1999/xlink" x="0px"
	 y="0px" viewBox="0 0 160 160" style="enable-background:new 0 0 160 160;" xml:space="preserve">
<path d="M110.3697357,145.3359375H49.5782318c-6.3959961,0-11.5991211-5.203125-11.5991211-11.5986328V73.8334961
	l-13.1440449,6.4326172c-3.8168945,1.8823242-8.5014648,0.3178711-10.4326162-3.4960938L0.8096762,49.5610352
	c-1.8979492-3.8452148-0.3325196-8.5307617,3.4804688-10.4619141l49.3007813-24.4345703l1.9838867,2.7436523
	c4.1953125,5.8027344,13.7817383,9.5522461,24.4233398,9.5522461c10.6411133,0,20.2280273-3.7495117,24.4233398-9.5517578
	l1.9833984-2.7446289l49.2695313,24.4194336c1.8652344,0.9228516,3.2558594,2.5224609,3.9169922,4.5043945
	c0.6650391,1.9926758,0.5087891,4.1201172-0.4375,5.9916992L145.5533295,76.730957
	c-0.9394531,1.8793945-2.5527344,3.2773438-4.5390625,3.934082c-1.9755859,0.6523438-4.0888672,0.4946289-5.9492188-0.4467773
	l-13.0957031-6.4086914v59.9277344C121.9693451,140.1328125,116.7662201,145.3359375,110.3697357,145.3359375z
	 M38.1910248,65.7011719c1.4282227,0,2.8510742,0.3974609,4.1147461,1.1850586
	c2.2998047,1.4335938,3.6733398,3.9116211,3.6733398,6.628418v60.2226563c0,1.984375,1.6147461,3.5986328,3.5991211,3.5986328
	h60.7915039c1.984375,0,3.5996094-1.6142578,3.5996094-3.5986328V73.4912109c0-2.7114258,1.3759766-5.1875,3.6796875-6.6235352
	c2.2978516-1.4331055,5.1162109-1.5771484,7.5439453-0.387207l13.2900391,6.5039063l13.4394531-26.831543l-43.2421875-21.4321289
	c-6.2666016,6.3823242-16.8945313,10.2397461-28.6821289,10.2397461c-11.7885742,0-22.4155273-3.8569336-28.6826172-10.2397461
	L8.0543051,46.1621094l13.4116201,26.8461914l13.2934589-6.5058594
	C35.851181,65.9667969,37.023056,65.7011719,38.1910248,65.7011719z M152.0084076,45.9819336c0,0,0,0.0004883-0.0009766,0.0004883
	L152.0084076,45.9819336z"/>
</svg>
