<?xml version="1.0" encoding="utf-8"?>
<!-- Generator: Adobe Illustrator 18.0.0, SVG Export Plug-In . SVG Version: 6.00 Build 0)  -->
<!DOCTYPE svg PUBLIC "-//W3C//DTD SVG 1.1//EN" "http://www.w3.org/Graphics/SVG/1.1/DTD/svg11.dtd">
<svg version="1.1" id="icon-eye" xmlns="http://www.w3.org/2000/svg" xmlns:xlink="http://www.w3.org/1999/xlink" x="0px" y="0px"
	 viewBox="0 0 160 160" style="enable-background:new 0 0 160 160;" xml:space="preserve">
<path d="M80,140C29.7275391,140,1.5864258,84.1474609,0.4130859,81.7705078c-0.5507813-1.1162109-0.5507813-2.4248047,0-3.5405273
	C1.5864258,75.8520508,29.7275391,20,80,20c50.2714844,0,78.4140625,55.8520508,79.5869141,58.2299805
	c0.5507813,1.1157227,0.5507813,2.4243164,0,3.5405273C158.4140625,84.1474609,130.2714844,140,80,140z M8.5307617,80
	C13.6640625,89.2988281,39.4580078,132,80,132c40.5390625,0,66.3320313-42.6962891,71.46875-52
	C146.3359375,70.7016602,120.5410156,28,80,28C39.4609375,28,13.6674805,70.6962891,8.5307617,80z M80,104
	c-13.2333984,0-24-10.7666016-24-24s10.7666016-24,24-24s24,10.7666016,24,24S93.2333984,104,80,104z M80,64
	c-8.8222656,0-16,7.1777344-16,16s7.1777344,16,16,16s16-7.1777344,16-16S88.8222656,64,80,64z"/>
</svg>
