<?xml version="1.0" encoding="utf-8"?>
<!-- Generator: Adobe Illustrator 23.0.0, SVG Export Plug-In . SVG Version: 6.00 Build 0)  -->
<svg version="1.1" id="icon-facebook" xmlns="http://www.w3.org/2000/svg" xmlns:xlink="http://www.w3.org/1999/xlink" x="0px"
	 y="0px" viewBox="0 0 160 160" style="enable-background:new 0 0 160 160;" xml:space="preserve">
<path d="M91.4003906,160H61c-2.2089844,0-4-1.7910156-4-4V99.2001953H38.2001953c-2.2089844,0-4-1.7910156-4-4V64.7998047
	c0-2.2089844,1.7910156-4,4-4H57V42C57,18.8413086,75.8413086,0,99,0h22.7998047c2.2089844,0,4,1.7910156,4,4v30.3999023
	c0,2.2089844-1.7910156,4-4,4H99c-1.984375,0-3.5996094,1.6152344-3.5996094,3.6000977v18.7998047h26.3994141
	c1.2314453,0,2.3945313,0.5673828,3.1523438,1.5385742c0.7587891,0.9707031,1.0273438,2.2363281,0.7285156,3.4316406
	l-7.5996094,30.3999023c-0.4453125,1.78125-2.0449219,3.0302734-3.8808594,3.0302734H95.4003906V156
	C95.4003906,158.2089844,93.609375,160,91.4003906,160z M65,152h22.4003906V95.2001953c0-2.2089844,1.7910156-4,4-4h19.6767578
	l5.5996094-22.4003906H91.4003906c-2.2089844,0-4-1.7910156-4-4V42c0-6.3964844,5.203125-11.6000977,11.5996094-11.6000977
	h18.7998047V8H99C80.2524414,8,65,23.2524414,65,42v22.7998047c0,2.2089844-1.7910156,4-4,4H42.2001953v22.4003906H61
	c2.2089844,0,4,1.7910156,4,4V152z"/>
</svg>
