<?xml version="1.0" encoding="utf-8"?>
<!-- Generator: Adobe Illustrator 23.0.0, SVG Export Plug-In . SVG Version: 6.00 Build 0)  -->
<svg version="1.1" id="icon-feather" xmlns="http://www.w3.org/2000/svg" xmlns:xlink="http://www.w3.org/1999/xlink" x="0px"
	 y="0px" viewBox="0 0 160 160" style="enable-background:new 0 0 160 160;" xml:space="preserve">
<path d="M11.109148,160c-2.84515,0.0009766-5.688839-1.0809937-7.8536482-3.2429657
	c-2.099992-2.097641-3.2559867-4.8873596-3.2554994-7.8544769c0-2.9671173,1.1564821-5.7558441,3.2554994-7.8525238
	l76.8921661-76.8184357c0.290947-0.2909584,0.290947-0.7661476-0.0014648-1.0580826
	c-0.2933807-0.2943726-0.7709885-0.2943726-1.0643692,0l-60.2525711,60.1937332l0.4395885-10.2386932
	c0.397192-9.2639465,0.9683647-16.9107971,1.7968616-24.0644302c3.2798672-32.1703835,25.720396-57.4941788,64.8892212-73.179245
	c30.197197-12.0921621,60.810585-14.9749613,69.4737167-15.570529L160,0l-0.3148346,4.5720272
	c-0.4347076,6.3124294-3.2584229,39.3927383-16.1790466,70.8174438l-0.5692291,1.3846207l-17.7619629,8.8716125h13.8855896
	l-3.2789001,5.9254532c-2.8636627,5.1749115-6.0031738,10.0320435-9.3308029,14.4369049l-0.7475967,0.9893646l-21.30793,7.0961227
	h16.1907501l-8.3258896,7.0415344c-12.0053864,10.1519318-25.9543228,16.0998077-41.4588852,17.6769409
	c-11.7329521,1.3558655-23.8743095,2.09375-36.0653763,2.1912231l-15.7687016,15.7537842
	C16.7999363,158.9190063,13.9538116,160,11.109148,160z M79.6140213,54.9686241
	c2.3348923,0,4.5289459,0.9084625,6.1781387,2.5582123c1.6501617,1.6497498,2.5585861,3.8434067,2.5585861,6.1764526
	c0,2.3325539-0.9084244,4.5262108-2.5585861,6.1759682L8.8985281,146.699646
	c-0.5892067,0.5887451-0.9137821,1.3704834-0.9137821,2.2029114c0,0.8334045,0.3245754,1.6161194,0.9137821,2.2048645
	c1.2188625,1.2184296,3.2053022,1.217453,4.4270887-0.0019379l18.0904408-18.0717163l1.6448059-0.0058594
	c12.4488754-0.0409393,24.8563232-0.7651672,36.8782768-2.1541748c9.8308334-1.0000916,18.9437943-3.9486771,27.2365417-8.7950974
	H55.1436768l65.6714172-21.8693085c1.5410004-2.0917969,3.0371628-4.2898407,4.4797211-6.578537H91.3157883l45.3664474-22.6578751
	c10.071579-25.125927,13.5473633-51.1081619,14.6429291-62.2991753
	C127.2257004,11.0223827,35.6998672,24.2530422,29.0036736,89.9277496
	c-0.4810143,4.1553192-0.8728447,8.4685593-1.1925468,13.1794815l45.6257248-45.5818558
	C75.0855637,55.8770866,77.2796097,54.9686241,79.6140213,54.9686241z"/>
</svg>
