<?xml version="1.0" encoding="utf-8"?>
<!-- Generator: Adobe Illustrator 18.0.0, SVG Export Plug-In . SVG Version: 6.00 Build 0)  -->
<!DOCTYPE svg PUBLIC "-//W3C//DTD SVG 1.1//EN" "http://www.w3.org/Graphics/SVG/1.1/DTD/svg11.dtd">
<svg version="1.1" id="icon-film" xmlns="http://www.w3.org/2000/svg" xmlns:xlink="http://www.w3.org/1999/xlink" x="0px" y="0px"
	 viewBox="0 0 160 160" style="enable-background:new 0 0 160 160;" xml:space="preserve">
<path d="M141,160H19c-10.4765625,0-19-8.5234375-19-19V19C0,8.5234375,8.5234375,0,19,0h122c10.4765625,0,19,8.5234375,19,19v122
	C160,151.4765625,151.4765625,160,141,160z M122,152h19c6.0654297,0,11-4.9345703,11-11v-7h-30V152z M84,152h30v-18H84V152z M46,152
	h30v-18H46V152z M8,134v7c0,6.0654297,4.9345703,11,11,11h19v-18H8z M8,126h144V34H8V126z M122,26h30v-7
	c0-6.0654297-4.9345703-11-11-11h-19V26z M84,26h30V8H84V26z M46,26h30V8H46V26z M8,26h30V8H19C12.9345703,8,8,12.9345703,8,19V26z
	 M58,112c-0.6616211,0-1.3242188-0.1640625-1.9248047-0.4931641C54.7954102,110.8037109,54,109.4599609,54,108V52
	c0-1.4599609,0.7954102-2.8037109,2.0751953-3.5063477c1.2792969-0.7021484,2.8408203-0.6523438,4.0722656,0.1318359l44,27.9975586
	C105.3007813,77.3569336,106,78.6298828,106,79.9975586s-0.6982422,2.6401367-1.8525391,3.3745117l-44,28.0029297
	C59.4941406,111.7900391,58.7475586,112,58,112z M62,59.2861328v41.4267578l32.5498047-20.7148438L62,59.2861328z"/>
</svg>
