<?xml version="1.0" encoding="utf-8"?>
<!-- Generator: Adobe Illustrator 18.0.0, SVG Export Plug-In . SVG Version: 6.00 Build 0)  -->
<!DOCTYPE svg PUBLIC "-//W3C//DTD SVG 1.1//EN" "http://www.w3.org/Graphics/SVG/1.1/DTD/svg11.dtd">
<svg version="1.1" id="icon-finger" xmlns="http://www.w3.org/2000/svg" xmlns:xlink="http://www.w3.org/1999/xlink" x="0px"
	 y="0px" viewBox="0 0 160 160" style="enable-background:new 0 0 160 160;" xml:space="preserve">
<path d="M127,160H57v-22h8v14h54v-14h8V160z M135,138h-8v-24h8V138z M57,138h-8v-16h8V138z M49,122h-8v-14h8V122z M143,114h-8V66h-8
	v-8h-6v20h-8V50h-13v20h-8V8H78V0h14v8h8v34h13v8h14v8h8v8h8V114z M41,108h-8V92h8V108z M56,98h-8V80h-7v-8H25v14h-8V64h24v8h7V50h8
	V98z M33,92h-8v-6h8V92z M78,70h-8V50H56v-8h14V8h8V70z"/>
</svg>
