<?xml version="1.0" encoding="utf-8"?>
<!-- Generator: Adobe Illustrator 23.0.0, SVG Export Plug-In . SVG Version: 6.00 Build 0)  -->
<svg version="1.1" id="icon-folder" xmlns="http://www.w3.org/2000/svg" xmlns:xlink="http://www.w3.org/1999/xlink" x="0px"
	 y="0px" viewBox="0 0 160 160" style="enable-background:new 0 0 160 160;" xml:space="preserve">
<path d="M122.9562988,136H14.4115047C6.4650106,136,0,129.1347656,0,120.6953125V38.5795898
	C0,30.5405273,6.1656866,24,13.7440071,24h40.2305298c1.1274719,0,2.2026939,0.4755859,2.9605255,1.3100586l17.296833,19.0375977
	h42.8785477c7.5783234,0,13.743515,6.5405273,13.743515,14.5795898v13.6816406h19.9360657
	c3.2452087,0,6.1857147,1.7324219,7.8664093,4.6342773c1.7842255,3.0825195,1.792038,6.9140625,0.0195313,10l-23.9820557,41.7666016
	C132.2182617,133.3212891,127.7200928,136,122.9562988,136z M14.199585,127.9960938
	C14.2698994,127.9990234,14.3407021,128,14.4115047,128h108.5447922c1.9356003,0,3.7305679-1.1123047,4.7999268-2.9746094
	l23.9820709-41.7666016c0.4248047-0.7392578,0.2753906-1.5214844-0.0058594-2.0078125
	c-0.1699371-0.2929688-0.4707184-0.6420898-0.9424133-0.6420898H45.7140694c-1.8862762,0-3.6548767,1.0678711-4.7305908,2.855957
	L14.199585,127.9960938z M13.7440071,32c-3.1670742,0-5.7438002,2.9516602-5.7438002,6.5795898v82.1157227
	c0,0.6103516,0.0659189,1.203125,0.1904345,1.7695313l25.9371929-43.1230469
	c2.5361977-4.2158203,6.867363-6.7329102,11.586235-6.7329102h77.1396942V58.9272461
	c0-3.6279297-2.5762405-6.5795898-5.7433167-6.5795898h-44.648613c-1.1274719,0-2.2026901-0.4755859-2.9605255-1.3100586
	L52.2044716,32H13.7440071z"/>
</svg>
