<?xml version="1.0" encoding="utf-8"?>
<!-- Generator: Adobe Illustrator 23.0.0, SVG Export Plug-In . SVG Version: 6.00 Build 0)  -->
<svg version="1.1" id="icon-forward" xmlns="http://www.w3.org/2000/svg" xmlns:xlink="http://www.w3.org/1999/xlink" x="0px"
	 y="0px" viewBox="0 0 160 160" style="enable-background:new 0 0 160 160;" xml:space="preserve">
<path d="M45.9000244,159.9997559c-3.1503906,0-6.1118164-1.2265625-8.3398438-3.453125
	c-4.5986328-4.5996094-4.5986328-12.0830078-0.0004883-16.6816406l59.8647461-59.8652344L37.5596924,20.1350098
	c-2.2275391-2.2275391-3.4545898-5.1894531-3.4545898-8.340332s1.2270508-6.112793,3.4550781-8.340332
	c2.2275391-2.2275391,5.1894531-3.4541016,8.3398438-3.4541016s6.1123047,1.2265625,8.340332,3.4541016l68.2055664,68.2050781
	c4.5986328,4.5991211,4.5986328,12.081543,0,16.6801758l-68.2055664,68.2060547
	C52.0118408,158.7731934,49.050415,159.9997559,45.9000244,159.9997559z M45.9000244,8.001709
	c-0.9716797,0-1.9433594,0.3701172-2.6831055,1.1098633c-0.7172852,0.7167969-1.1118164,1.6694336-1.1118164,2.6831055
	s0.3945313,1.9663086,1.1113281,2.6831055l65.5224609,65.5219727l-65.5219727,65.5214844
	c-1.4794922,1.4804688-1.4794922,3.8876953,0,5.3681641c1.4326172,1.4316406,3.9331055,1.4326172,5.3666992-0.0009766
	l68.2060547-68.2050781c1.4794922-1.4794922,1.4794922-3.887207,0-5.3666992L48.5831299,9.1115723
	C47.8433838,8.3718262,46.8717041,8.001709,45.9000244,8.001709z"/>
</svg>
