<?xml version="1.0" encoding="utf-8"?>
<!-- Generator: Adobe Illustrator 18.0.0, SVG Export Plug-In . SVG Version: 6.00 Build 0)  -->
<!DOCTYPE svg PUBLIC "-//W3C//DTD SVG 1.1//EN" "http://www.w3.org/Graphics/SVG/1.1/DTD/svg11.dtd">
<svg version="1.1" id="icon-gallery" xmlns="http://www.w3.org/2000/svg" xmlns:xlink="http://www.w3.org/1999/xlink" x="0px"
	 y="0px" viewBox="0 0 160 160" style="enable-background:new 0 0 160 160;" xml:space="preserve">
<path d="M151,145H9c-4.9624023,0-9-4.0371094-9-9V24c0-4.9624023,4.0375977-9,9-9h142c4.9628906,0,9,4.0375977,9,9v112
	C160,140.9628906,155.9628906,145,151,145z M8,121.9960938V136c0,0.5517578,0.4487305,1,1,1h142c0.5419922,0,1-0.4580078,1-1
	V83.8505859l-22.4580078-16.4145508l-31.9052734,26.184082l13.6582031,8.7695313
	c1.859375,1.1943359,2.3984375,3.6689453,1.2050781,5.5273438c-1.1943359,1.8603516-3.6689453,2.3984375-5.5273438,1.2050781
	l-42.074707-27.0166016L8,121.9960938z M9,23c-0.5419922,0-1,0.4580078-1,1v88.2255859l54.503418-38.2119141
	c1.3291016-0.9331055,3.0913086-0.9677734,4.4575195-0.090332l23.6005859,15.1538086l36.3017578-29.7915039
	c1.4091797-1.1582031,3.4257813-1.2128906,4.8974609-0.137207L152,73.9414063V24c0-0.5512695-0.4482422-1-1-1H9z
	 M34.425293,66.8911133c-0.7822266,0-1.5732422-0.0639648-2.3666992-0.1943359
	c-5.7993164-0.9511719-10.5146484-5.6665039-11.4667969-11.4663086c-0.7460938-4.5493164,0.6787109-9.0112305,3.9086914-12.2412109
	c3.230957-3.2299805,7.6958008-4.652832,12.2407227-3.9082031l0,0c5.800293,0.9511719,10.515625,5.6665039,11.4667969,11.4667969
	c0.7460938,4.5488281-0.6787109,9.0107422-3.9086914,12.2407227C41.6323242,65.4550781,38.1264648,66.8911133,34.425293,66.8911133z
	 M34.4086914,46.8901367c-1.6005859,0-3.1098633,0.6142578-4.2514648,1.7558594
	c-1.3857422,1.3862305-1.9951172,3.3139648-1.6708984,5.2890625c0.4038086,2.4619141,2.4052734,4.4633789,4.8671875,4.8671875
	c1.9741211,0.324707,3.9033203-0.284668,5.2890625-1.6704102c1.3857422-1.3862305,1.9951172-3.3139648,1.6708984-5.2890625
	c-0.4038086-2.4619141-2.4052734-4.4633789-4.8671875-4.8671875l0,0
	C35.0981445,46.918457,34.7509766,46.8901367,34.4086914,46.8901367z"/>
</svg>
