<?xml version="1.0" encoding="utf-8"?>
<!-- Generator: Adobe Illustrator 23.0.0, SVG Export Plug-In . SVG Version: 6.00 Build 0)  -->
<svg version="1.1" id="icon-github" xmlns="http://www.w3.org/2000/svg" xmlns:xlink="http://www.w3.org/1999/xlink" x="0px"
	 y="0px" viewBox="0 0 160 160" style="enable-background:new 0 0 160 160;" xml:space="preserve">
<path d="M65.840332,158.6582031l-4.9482422-1.2011719C25.0395508,148.7558594,0,117.1289063,0,80.5458984
	C0,36.8725586,35.8876953,1.3417969,80,1.3417969s80,35.5307617,80,79.2041016
	c0,35.6074219-22.7304688,66.1787109-56.5615234,76.0722656L98.3125,158.1171875l0.0029297-5.3398438
	c0.0039063-6.421875,0.0019531-16.2890625,0.0009766-23.7910156L98.3154297,121.5
	c0-4.4150391-4.5283203-8.2402344-7.2275391-10.1269531l-9.0595703-6.3310547l11.0126953-0.9326172
	c24.5019531-2.0751953,28.7099609-14.1376953,29.6396484-24.4145508
	c1.1435547-10.2592773-0.8173828-17.5361328-6.1640625-22.9833984l-1.9101563-1.9472656l1.1152344-2.4892578
	c1.828125-4.0834961,1.1513672-10.0102539,0.0371094-14.0551758c-4.0361328,0.6333008-11.7695313,4.3769531-14.7705078,6.8325195
	l-1.9716797,1.612793l-2.2949219-1.1035156c-8.5107422-4.0922852-24.3461914-3.2202148-33.7973633,0.1611328l-1.9677734,0.7041016
	l-1.7021484-1.2133789c-5.796875-4.1328125-11.6782227-6.5141602-15.2133789-6.9384766
	c-2.0859375,6.4995117-0.6489258,12.1293945-0.1196289,13.3886719l2.0498047,2.6733398l-2.6743164,2.4765625
	c-3.8818359,3.5942383-7.765625,12.0249023-5.9360352,23.953125c2.6005859,15.5068359,9.5361328,20.9765625,29.6762695,23.3554688
	l8.8007813,1.0400391l-6.6015625,5.9121094c-1.9951172,1.7871094-3.0996094,4.0136719-3.5175781,5.2509766
	c0.0234375,3.6240234,0.0258789,5.9042969,0.0219727,7.3447266l0.0200195,0.0126953l0.0297852,2.2041016
	c0.0097656,0.6894531,0.0361328,18.5673828,0.0449219,27.6796875L65.840332,158.6582031z M80,9.3417969
	c-39.7011719,0-72,31.9418945-72,71.2041016c0,31.1699219,20.2456055,58.3408203,49.8295898,67.7519531
	c-0.0058594-4.9384766-0.0141602-10.6103516-0.0214844-15c-3.6079102,0.8681641-7.2456055,0.5625-10.8657227-0.9228516
	c-5.581543-2.3671875-8.6625977-7.7099609-9.8359375-9.7587891l-0.4614258-0.7714844
	c-1.78125-3.0009766-3.1879883-5.3701172-7.7895508-5.8955078c-2.1948242-0.2509766-3.7709961-2.2333984-3.5200195-4.4287109
	C25.5859375,109.3261719,27.5625,107.7480469,29.7636719,108c8.5458984,0.9765625,11.684082,6.2626953,13.7602539,9.7607422
	l0.5073242,0.8496094c0.8696289,1.5185547,2.90625,5.0732422,5.9912109,6.3818359
	c2.6342773,1.0810547,5.0693359,1.0693359,7.7128906-0.0761719c0.0078125-1.21875,0.015625-3.8222656-0.0205078-9.1259766
	l-0.003418-0.5166016l0.1279297-0.5c0.1171875-0.4589844,0.5253906-1.8886719,1.4628906-3.7001953
	c-16.4155273-2.9589844-26.5898438-9.6542969-29.8398438-29.0390625
	c-1.7519531-11.4189453,0.7236328-22.2480469,6.4863281-29.0830078c-1.2802734-4.5112305-1.8417969-12.3520508,1.6547852-20.2124023
	l0.8427734-1.894043l2.0332031-0.4033203c6.2700195-1.2441406,15.2397461,2.8217773,21.7226563,7.0952148
	c10.4394531-3.2001953,25.5244141-3.9770508,35.7705078-0.1279297C102.8427734,34.25,113.5009766,28.7050781,119.8125,30.5366211
	l1.8789063,0.5454102l0.7226563,1.8188477c1.6806641,4.2270508,3.6513672,12.7475586,1.53125,20.1079102
	c5.7861328,6.9643555,7.9775391,15.9873047,6.6943359,27.4892578
	c-1.5117188,16.7275391-10.8144531,26.7392578-28.3574219,30.3691406c2.6582031,3.3457031,4.0332031,6.9375,4.0332031,10.6328125
	l0.0009766,7.4853516c0.0009766,5.5712891,0.0019531,12.4453125,0.0009766,18.2460938
	C133.8554688,136.8867188,152,110.7314453,152,80.5458984C152,41.2836914,119.7011719,9.3417969,80,9.3417969z
	 M43.753418,51.4443359l0.0493164,0.0644531C43.7851563,51.4853516,43.7680664,51.4638672,43.753418,51.4443359z"/>
</svg>
