<?xml version="1.0" encoding="utf-8"?>
<!-- Generator: Adobe Illustrator 23.0.0, SVG Export Plug-In . SVG Version: 6.00 Build 0)  -->
<svg version="1.1" id="icon-globe" xmlns="http://www.w3.org/2000/svg" xmlns:xlink="http://www.w3.org/1999/xlink" x="0px" y="0px"
	 viewBox="0 0 160 160" style="enable-background:new 0 0 160 160;" xml:space="preserve">
<path d="M80,160c-44.1123047,0-80-35.8876953-80-80S35.8876953,0,80,0s80,35.8876953,80,80S124.1123047,160,80,160z M114.2539063,84
	c-1.3125,24.5693359-10.1181641,48.0839844-25.1699219,67.4296875C123.2119141,147.1132813,149.9746094,118.8105469,151.890625,84
	H114.2539063z M8.1098633,84c1.9155273,34.8105469,28.6777344,63.1132813,62.8061523,67.4296875
	C55.8632813,132.0830078,47.0581055,108.5683594,45.7460938,84H8.1098633z M53.7583008,84
	C55.1455078,108.2470703,64.3520508,131.3730469,80,149.9365234C95.6474609,131.3730469,104.8535156,108.2470703,106.2421875,84
	H53.7583008z M114.2539063,76h37.6367188c-1.9160156-34.8110352-28.6787109-63.112793-62.8066406-67.4296875
	C104.1357422,27.9165039,112.9414063,51.4311523,114.2539063,76z M53.7583008,76h52.4838867
	C104.8535156,51.7529297,95.6474609,28.6269531,80,10.0629883C64.3520508,28.6274414,55.1455078,51.753418,53.7583008,76z
	 M8.1098633,76h37.6362305c1.3120117-24.5683594,10.1171875-48.0830078,25.1699219-67.4296875
	C36.7875977,12.887207,10.0253906,41.1889648,8.1098633,76z"/>
</svg>
