<?xml version="1.0" encoding="utf-8"?>
<!-- Generator: Adobe Illustrator 23.0.0, SVG Export Plug-In . SVG Version: 6.00 Build 0)  -->
<svg version="1.1" id="icon-graduate" xmlns="http://www.w3.org/2000/svg" xmlns:xlink="http://www.w3.org/1999/xlink" x="0px"
	 y="0px" viewBox="0 0 160 160" style="enable-background:new 0 0 160 160;" xml:space="preserve">
<path d="M132.4565277,160H27.9609489c-10.0625916,0-18.2491913-8.1865997-18.2491913-18.2491913v-2.8506165
	c0-23.4923935,18.4498749-42.694725,42.003315-43.716217l1.7578278-0.0761719l26.736084,26.7355957l26.7365723-26.7355957
	l1.7578278,0.0761719c23.552948,1.021492,42.0033112,20.2238235,42.0033112,43.716217v2.8506165
	C150.7066956,151.8134003,142.5201111,160,132.4565277,160z M50.3425026,103.2914734
	c-18.4322987,1.6640778-32.6306686,16.9874573-32.6306686,35.6087189v2.8506165
	c0,5.651413,4.5976982,10.249115,10.2491169,10.249115h104.495575c5.6524048,0,10.2501068-4.597702,10.2501068-10.249115v-2.8506165
	c0-18.6212616-14.1983795-33.9446411-32.6311646-35.6087189L80.2089844,133.157959L50.3425026,103.2914734z M80.2089844,93.5023193
	c-23.1579247,0-41.9984283-18.8404999-41.9984283-41.9984283c0-4.7651825,0.8701248-9.5054588,2.5932846-14.1466141
	l-14.0826492-3.3926086v7.4693069c1.5927887,0.5004921,3.0522747,1.348156,4.2895908,2.5122299
	c2.1133022,1.9882965,3.3252239,4.743206,3.3252239,7.5576859c0,3.243679-1.582531,6.2129478-4.043005,8.2417717
	l6.3877544,24.253643H9.2932978l6.4238873-24.3898735c-2.2007036-2.041523-3.6308928-4.9702606-3.6308928-8.1055412
	c0-4.6050224,2.5937738-8.2588654,6.6348267-9.8003845l-0.0117188-9.6744041l-1.9052906-0.4467812
	c-4.2378321-1.030283-7.0850267-4.4770927-7.0850267-8.5772266s2.8471947-7.5469446,7.0850267-8.5772276L73.3944702,0.8003007
	c4.4697647-1.066416,9.1866074-1.0669043,13.6495361-0.0024414l56.5346985,13.6583281
	c4.2549286,1.0288181,7.1133423,4.4702559,7.1133423,8.5635557c0,4.0937862-2.8584137,7.5357132-7.1133423,8.564043
	l-23.9523621,5.7705612c1.714859,4.6064873,2.5810776,9.3472519,2.5810776,14.1495438
	C122.2074203,74.6618195,103.3674011,93.5023193,80.2089844,93.5023193z M48.6588936,39.2239914
	c-1.6259918,4.0469131-2.4482651,8.1656036-2.4482651,12.2798996c0,18.7467499,15.251606,33.9983597,33.9983559,33.9983597
	c18.7472458,0,33.9983597-15.2516098,33.9983597-33.9983597c0-4.1670303-0.8232498-8.2969513-2.4502182-12.3131027
	l-25.8078537,5.7388229c-4.5351944,0.9072342-10.5367203,0.1088867-10.6895523,0.0952148h-0.3364258l-0.4057693-0.0849609
	C74.3754349,44.91008,61.2483635,42.1576118,48.6588936,39.2239914z M19.6732769,75.9992294h6.6275005l-3.3139954-12.5821457
	L19.6732769,75.9992294z M23.0834637,48.9086494l-0.1655293,0.0083008
	c-1.8789234,0.0927773-2.8315697,0.9629021-2.8315697,2.5869408c0,1.360363,1.428236,2.9707298,2.6347904,2.9707298
	c1.7905445,0,3.6147785-1.4990387,3.6147785-2.9707298c0-0.6176834-0.2939472-1.2485466-0.8071346-1.7309723
	C25.1616077,49.4281883,24.3813267,48.878376,23.0834637,48.9086494z M75.8583603,37.0467262
	c0.3129883,0.0253906,5.2891083,0.6845779,8.4385529,0.0556641l28.850853-6.416563l28.5549469-6.8789692
	c0.6181641-0.1494141,0.9892731-0.4438515,0.9892731-0.7871151c0-0.3427773-0.371109-0.6372128-0.9922028-0.787117
	L85.1768036,8.5772276c-3.2353821-0.7724681-6.6690063-0.7714915-9.9180603,0.0029297L18.6854744,22.2033291
	c-0.2846718,0.0693359-0.9663181,0.2905293-0.9663181,0.8017654c0,0.5048866,0.6635799,0.7265682,0.9629002,0.800787
	l28.6374702,6.8921547l0.0019531-0.0068378C59.6414146,33.6179848,73.6498413,36.5818787,75.8583603,37.0467262z"/>
</svg>
