<?xml version="1.0" encoding="utf-8"?>
<!-- Generator: Adobe Illustrator 23.0.0, SVG Export Plug-In . SVG Version: 6.00 Build 0)  -->
<svg version="1.1" id="icon-grid" xmlns="http://www.w3.org/2000/svg" xmlns:xlink="http://www.w3.org/1999/xlink" x="0px" y="0px"
	 viewBox="0 0 160 160" style="enable-background:new 0 0 160 160;" xml:space="preserve">
<path d="M146.2568359,160h-45.8730469c-7.578125,0-13.7441406-6.1650391-13.7441406-13.7431641v-45.8730469
	c0-7.578125,6.1660156-13.7441406,13.7441406-13.7441406h45.8730469c7.578125,0,13.7431641,6.1660156,13.7431641,13.7441406
	v45.8730469C160,153.8349609,153.8349609,160,146.2568359,160z M100.3837891,94.6396484
	c-3.1669922,0-5.7441406,2.5771484-5.7441406,5.7441406v45.8730469c0,3.1669922,2.5771484,5.7431641,5.7441406,5.7431641h45.8730469
	C149.4238281,152,152,149.4238281,152,146.2568359v-45.8730469c0-3.1669922-2.5761719-5.7441406-5.7431641-5.7441406H100.3837891z
	 M59.6162109,160H13.7436523C6.1655273,160,0,153.8349609,0,146.2568359v-45.8730469
	c0-7.578125,6.1655273-13.7441406,13.7436523-13.7441406h45.8725586c7.578125,0,13.7436523,6.1660156,13.7436523,13.7441406
	v45.8730469C73.3598633,153.8349609,67.1943359,160,59.6162109,160z M13.7436523,94.6396484
	C10.5766602,94.6396484,8,97.2167969,8,100.3837891v45.8730469C8,149.4238281,10.5766602,152,13.7436523,152h45.8725586
	c3.1669922,0,5.7436523-2.5761719,5.7436523-5.7431641v-45.8730469c0-3.1669922-2.5766602-5.7441406-5.7436523-5.7441406H13.7436523
	z M146.2568359,73.3598633h-45.8730469c-7.578125,0-13.7441406-6.1655273-13.7441406-13.7436523V13.7436523
	C86.6396484,6.1655273,92.8056641,0,100.3837891,0h45.8730469C153.8349609,0,160,6.1655273,160,13.7436523v45.8725586
	C160,67.1943359,153.8349609,73.3598633,146.2568359,73.3598633z M100.3837891,8
	c-3.1669922,0-5.7441406,2.5766602-5.7441406,5.7436523v45.8725586c0,3.1669922,2.5771484,5.7436523,5.7441406,5.7436523h45.8730469
	c3.1669922,0,5.7431641-2.5766602,5.7431641-5.7436523V13.7436523C152,10.5766602,149.4238281,8,146.2568359,8H100.3837891z
	 M59.6162109,73.3598633H13.7436523C6.1655273,73.3598633,0,67.1943359,0,59.6162109V13.7436523
	C0,6.1655273,6.1655273,0,13.7436523,0h45.8725586c7.578125,0,13.7436523,6.1655273,13.7436523,13.7436523v45.8725586
	C73.3598633,67.1943359,67.1943359,73.3598633,59.6162109,73.3598633z M13.7436523,8C10.5766602,8,8,10.5766602,8,13.7436523
	v45.8725586c0,3.1669922,2.5766602,5.7436523,5.7436523,5.7436523h45.8725586c3.1669922,0,5.7436523-2.5766602,5.7436523-5.7436523
	V13.7436523C65.3598633,10.5766602,62.7832031,8,59.6162109,8H13.7436523z"/>
</svg>
