<?xml version="1.0" encoding="utf-8"?>
<!-- Generator: Adobe Illustrator 24.0.0, SVG Export Plug-In . SVG Version: 6.00 Build 0)  -->
<svg version="1.1" id="icon-handshake" xmlns="http://www.w3.org/2000/svg" xmlns:xlink="http://www.w3.org/1999/xlink" x="0px"
	 y="0px" viewBox="0 0 160 160" style="enable-background:new 0 0 160 160;" xml:space="preserve">
<path d="M79.9995117,160c-20.2680664,0-39.6025391-7.59375-54.4418945-21.3808594
	C10.7978516,124.9042969,1.8081055,106.328125,0.2446289,86.3115234c-0.171875-2.2021484,1.4736328-4.1269531,3.6762695-4.2998047
	c2.2055664-0.1572266,4.1279297,1.4736328,4.2993164,3.6767578C11.125,122.8720703,42.6538086,152,79.9995117,152
	c37.3540039,0,68.8842773-29.1347656,71.7797852-66.328125c0.1728516-2.2011719,2.0859375-3.8369141,4.2988281-3.6777344
	c2.2021484,0.171875,3.8486328,2.0966797,3.6777344,4.2988281c-1.5595703,20.0205078-10.546875,38.6015625-25.3085938,52.3193359
	C119.6074219,152.4042969,100.2705078,160,79.9995117,160z M82.5078125,135.9716797
	c-1.4287109,0-3.0292969-0.2353516-4.7998047-0.8251953c-4.6635742-1.5556641-7.8300781-5.1416016-9.6787109-7.9082031
	c-4.2734375,1.6279297-11.1474609,3.2890625-15.9511719-0.2773438c-2.9140625-2.1611328-4.3588867-5.65625-4.3198242-10.4228516
	c-3.2470703,0.1025391-7.2480469-0.46875-10.284668-3.1845703c-2.6035156-2.3291016-3.9238281-5.6445313-3.9467773-9.890625
	c-3.8374023-0.359375-9.0019531-1.6728516-11.8300781-5.8916016c-2.6088867-3.890625-2.4960938-9.0234375,0.3286133-15.2773438
	c-2.0639648-3.5283203-5.8374023-11.1171875-5.6879883-19.2182617L1.1713867,47.909668
	C0.4150391,47.1533203-0.0068359,46.1254883,0,45.0556641c0.0068359-1.0693359,0.4418945-2.0917969,1.2075195-2.8383789
	L42.2885742,2.1630859c1.5678711-1.5283203,4.0732422-1.512207,5.6210938,0.0351563l14.2333984,14.234375h34.7573242
	l16.3046875-15.3452148c1.5751953-1.480957,4.0419922-1.4453125,5.5693359,0.0839844l40.0537109,40.0541992
	c0.7666016,0.7661133,1.1884766,1.8100586,1.1708984,2.8930664c-0.0166016,1.0830078-0.4726563,2.112793-1.2636719,2.8535156
	l-14.9785156,14.0424805c0.3378906,4.1240234,0.5009766,12.9814453-3.3886719,19.1835938
	c1.6669922,2.9658203,3.5820313,7.90625,1.6298828,12.7900391c-1.7304688,4.3300781-5.9599609,7.2822266-12.5927734,8.7998047
	c-0.1191406,2.4384766-0.7919922,5.5507813-2.9931641,8.3183594c-2.4189453,3.0400391-6.0371094,4.8818359-10.7851563,5.4990234
	c-0.4794922,3.4970703-1.9433594,8.3896484-6.2568359,11.0888672c-3.7919922,2.3730469-8.6816406,2.3681641-14.5751953-0.0019531
	c-1.1152344,2.6386719-3,5.6992188-6.1074219,7.5830078C87.2529297,135.1445313,85.1835938,135.9716797,82.5078125,135.9716797z
	 M74.2441406,122.0966797c1.1708984,1.9111328,3.2875977,4.5576172,5.9941406,5.4599609
	c2.6357422,0.8808594,3.8779297,0.1328125,4.2871094-0.1142578c2.421875-1.453125,3.6220703-5.6542969,3.8515625-7.0117188
	c0.0019531-0.0107422,0.0039063-0.0214844,0.0058594-0.0322266l-6.1533203-6.6669922L74.2441406,122.0966797z
	 M56.2104492,112.5273438c-0.003418,0.0195313-0.0068359,0.0390625-0.0107422,0.0585938
	c-0.7802734,4.0966797-0.5400391,7.0683594,0.6425781,7.9482422c1.5244141,1.1376953,5.5297852,0.296875,8.7612305-0.9550781
	c0.0649414-0.0800781,0.1337891-0.1572266,0.2055664-0.2324219l21.5678711-22.5947266
	c0.1054688-0.1103516,0.2158203-0.2138672,0.3330078-0.3105469c0.3105469-0.2597656,1.1152344-0.84375,2.4121094-1.2128906
	C88.625,90.9492188,87.2685547,84.3134766,90.9140625,79.7729492c3.1191406-3.8842773,8.5458984-5.0087891,16.5380859-3.4052734
	c2.0908203-2.7392578,7.0898438-8.1635742,14.140625-8.5605469c4.59375-0.2646484,9.0068359,1.5893555,13.1953125,5.5009766
	c1.4804688-4.6079102,1.1572266-10.8710938,0.8183594-13.2880859c-0.1796875-1.2880859,0.2763672-2.5893555,1.2255859-3.4785156
	L150.25,43.9614258L115.8623047,9.5722656l-14.6347656,13.7729492c-0.7421875,0.6987305-1.7226563,1.0874023-2.7412109,1.0874023
	H87.6025391l20.9013672,20.9008789c0.4394531,0.4394531,0.7705078,0.9746094,0.9667969,1.5634766
	c3.5566406,10.6694336-1.7158203,14.8095703-3.6835938,15.9365234c-8.6484375,6.3212891-15.7490234,2.4379883-18.4541016-0.6542969
	L77.2607422,52.1069336c-6.2700195-5.4648438-14.081543,0.2753906-15.1552734,1.1152344L30.4033203,83.9013672
	c-0.1459961,0.1416016-0.2998047,0.2695313-0.4599609,0.3837891c-2.0708008,4.0537109-2.6557617,7.2597656-1.6020508,8.8310547
	c1.1328125,1.6904297,4.3188477,2.3125,6.8208008,2.4433594l14.2797852-14.2792969
	c1.5629883-1.5625,4.0952148-1.5610352,5.6572266,0c1.5620117,1.5615234,1.5620117,4.0947266,0,5.65625L41.8320313,100.203125
	c0,0.0019531-0.0004883,0.0039063-0.0009766,0.0058594c-0.4375,2.4804688-0.625,5.7382813,0.9677734,7.1738281
	c1.3798828,1.2441406,4.1362305,1.2949219,6.2753906,1.0214844c0.1113281-0.1464844,0.2338867-0.2880859,0.3676758-0.421875
	l13.3510742-13.3515625c1.5625-1.5625,4.0947266-1.5625,5.6572266,0c1.5620117,1.5615234,1.5620117,4.0947266,0,5.65625
	L56.2104492,112.5273438z M98.4804688,119.5498047c2.9501953,1.0927734,5.2421875,1.2304688,6.6357422,0.3691406
	c1.2089844-0.75,1.90625-2.3183594,2.2929688-3.8994141c-9.0322266-12.1865234-13.7519531-13.0878906-14.8515625-13.1083984
	l-4.7939453,5.0214844l10.5810547,11.4628906C98.3916016,119.4462891,98.4365234,119.4980469,98.4804688,119.5498047z
	 M99.3710938,96.9472656c3.6699219,2.078125,7.6347656,5.734375,11.8554688,10.9384766
	c0.2011719-0.03125,0.4052734-0.0478516,0.6113281-0.0478516c2.7890625,0,6.4902344-0.4638672,8.2832031-2.6748047
	c1.8730469-2.3085938,1.1699219-5.7783203,1.1630859-5.8125c-0.0185547-0.0859375-0.0332031-0.171875-0.0458984-0.2578125
	l-13.578125-14.4824219c-6.3554688-1.5605469-9.59375-0.9648438-10.5058594,0.1679688
	c-1.4912109,1.8505859,0.1181641,7.5820313,1.8007813,10.8369141
	C99.1767578,96.0439453,99.3134766,96.4941406,99.3710938,96.9472656z M114.5615234,80.2749023L127.4580078,94.03125
	c3.9189453-0.8613281,6.4082031-2.2529297,7.1123047-4.0117188c1.0341797-2.5878906-1.5332031-6.640625-2.2314453-7.5166016
	c-0.0058594-0.0068359-0.0117188-0.0146484-0.0175781-0.0224609c0,0-0.0009766-0.0019531-0.0019531-0.0019531
	c-0.0078125-0.0097656-0.0146484-0.0185547-0.0214844-0.0283203c-3.5791016-4.5991211-7.0380859-6.8369141-10.2548828-6.6557617
	C118.9824219,75.9667969,116.2167969,78.3701172,114.5615234,80.2749023z M9.6928711,45.1171875l13.5683594,13.5678711
	c0.8481445,0.8486328,1.2709961,2.0327148,1.1513672,3.2265625c-0.5004883,5.0043945,1.3974609,10.1806641,3.0913086,13.6630859
	l23.1206055-22.3745117l-11.453125-11.4526367c-1.5620117-1.5625-1.5620117-4.0947266,0-5.6572266
	c1.5625-1.5615234,4.0947266-1.5615234,5.6572266,0l11.5454102,11.5454102l0.3037109-0.2939453
	c0.0800781-0.0771484,0.1630859-0.1508789,0.2490234-0.2211914c4.8198242-3.9433594,16.4018555-9.2138672,25.7304688-0.9213867
	c0.0585938,0.0522461,0.1162109,0.105957,0.1708984,0.1611328l10.2705078,10.2705078
	c0.0859375,0.0859375,0.1669922,0.175293,0.2451172,0.2680664c0.6289063,0.6870117,3.2119141,2.8583984,7.8789063-0.6396484
	c0.4091797-0.3071289,0.3740234-0.3774414,0.7714844-0.4799805c0.5439453-0.4829102,1.1162109-2.1098633,0.1542969-5.4873047
	l-25.859375-25.859375H60.4863281c-1.0610352,0-2.078125-0.4213867-2.8286133-1.1713867L45.0454102,10.6479492L9.6928711,45.1171875
	z"/>
</svg>
