<?xml version="1.0" encoding="utf-8"?>
<!-- Generator: Adobe Illustrator 23.0.0, SVG Export Plug-In . SVG Version: 6.00 Build 0)  -->
<svg version="1.1" id="icon-heart" xmlns="http://www.w3.org/2000/svg" xmlns:xlink="http://www.w3.org/1999/xlink" x="0px" y="0px"
	 viewBox="0 0 160 160" style="enable-background:new 0 0 160 160;" xml:space="preserve">
<path d="M79.9654236,147.8461761c-4.0847702,0-8.1695328-1.5547485-11.2795334-4.6652374L12.8105698,87.3056183
	C-4.0327449,70.4627914-4.3019686,42.8021698,12.2105589,25.6456566
	c8.1079702-8.4245892,19.1334229-13.1269588,31.0452118-13.2408047c12.121891-0.1309471,23.8890495,4.6911316,32.385952,13.1880341
	l4.3237,4.323698l4.8831558-4.8831539v0.0004883c0.0097733-0.0102615,0.0195389-0.0200329,0.0302887-0.0302944
	c17.1706848-17.1452751,45.0868454-17.1311054,62.24189,0.0307827c0.0029449,0.0029316,0.0068512,0.0063515,0.0107574,0.0102615
	c0.0009766,0.0009766,0.0019531,0.0024433,0.0029297,0.0034199c17.1599274,17.1687279,17.1530914,45.0975952-0.0146637,62.2585068
	l-55.8753204,55.8743439C88.1349564,146.2914276,84.0501938,147.8461761,79.9654236,147.8461761z M43.6833038,20.4082603
	c-0.1172676,0-0.2340431,0.0004883-0.3513107,0.0014668c-9.7443199,0.0933247-18.7483997,3.9245033-25.353899,10.7875004
	C4.4690442,45.2329979,4.6903839,67.8643723,18.47159,81.6455765l55.8753281,55.8753281
	c3.0977783,3.0977783,8.1377716,3.0977783,11.2375031,0l55.8753281-55.8753281
	c14.046524-14.0411453,14.0523834-36.8919029,0.0126953-50.9384232c-0.0029297-0.0029316-0.0068359-0.0068417-0.0107422-0.0107498
	c-0.0009766-0.0009766-0.0019531-0.001955-0.0029297-0.0029316c-14.040657-14.0465202-36.8919067-14.0504284-50.93647-0.0117264
	c-0.0127029,0.0122147-0.0244293,0.023941-0.0371323,0.0361557l-7.6897278,7.6897221
	c-1.5615921,1.5625725-4.0974655,1.5625725-5.6600418,0l-7.1542053-7.153717
	C63.0766678,24.3493786,53.5097122,20.4082603,43.6833038,20.4082603z"/>
</svg>
