<?xml version="1.0" encoding="utf-8"?>
<!-- Generator: Adobe Illustrator 23.0.0, SVG Export Plug-In . SVG Version: 6.00 Build 0)  -->
<svg version="1.1" id="icon-help" xmlns="http://www.w3.org/2000/svg" xmlns:xlink="http://www.w3.org/1999/xlink" x="0px" y="0px"
	 viewBox="0 0 160 160" style="enable-background:new 0 0 160 160;" xml:space="preserve">
<path d="M80,160c-44.1123047,0-80-35.8876953-80-80S35.8876953,0,80,0s80,35.8876953,80,80S124.1123047,160,80,160z M80,8
	C40.2988281,8,8,40.2988281,8,80s32.2988281,72,72,72s72-32.2988281,72-72S119.7011719,8,80,8z M80,127.9482422
	c-2.1054688,0-4.1674805-0.8544922-5.6567383-2.34375S72,122.0537109,72,119.9482422s0.8540039-4.1669922,2.3432617-5.65625
	s3.5512695-2.34375,5.6567383-2.34375s4.1669922,0.8544922,5.65625,2.34375S88,117.8427734,88,119.9482422
	s-0.8544922,4.1669922-2.34375,5.65625S82.1054688,127.9482422,80,127.9482422z M79.9941406,119.9541016h-0.0004883
	C79.9936523,119.9541016,79.9936523,119.9541016,79.9941406,119.9541016z M79.9946289,119.953125l-0.0004883,0.0009766
	C79.9941406,119.9541016,79.9946289,119.9541016,79.9946289,119.953125z M79.9956055,119.9521484l-0.0009766,0.0009766
	C79.9951172,119.953125,79.9951172,119.953125,79.9956055,119.9521484z M79.9960938,119.9521484h-0.0004883
	C79.9960938,119.9521484,79.9960938,119.9521484,79.9960938,119.9521484z M79.996582,119.9511719v0.0009766
	C79.996582,119.9511719,79.996582,119.9511719,79.996582,119.9511719z M79.9980469,119.9501953h-0.0009766
	C79.9975586,119.9501953,79.9975586,119.9501953,79.9980469,119.9501953z M79.9985352,119.9492188l-0.0004883,0.0009766
	L79.9985352,119.9492188z M79.9985352,119.9492188L79.9985352,119.9492188L79.9985352,119.9492188z M79.9995117,119.9482422
	l-0.0009766,0.0009766C79.9990234,119.9482422,79.9995117,119.9482422,79.9995117,119.9482422z M79.9995117,119.9482422
	L79.9995117,119.9482422L79.9995117,119.9482422z M79.9995117,119.9482422L79.9995117,119.9482422L79.9995117,119.9482422z
	 M79.9995117,119.9482422L79.9995117,119.9482422L79.9995117,119.9482422z M80,103.4873047c-2.2089844,0-4-1.7910156-4-4V85.8457031
	c0-2.2089844,1.7910156-4,4-4c11.2265625,0,20.359375-9.1328125,20.359375-20.3583984
	c0-11.2260742-9.1328125-20.3588867-20.359375-20.3588867c-11.2260742,0-20.3588867,9.1328125-20.3588867,20.3588867
	c0,2.2089844-1.7910156,4-4,4s-4-1.7910156-4-4C51.6411133,45.8500977,64.362793,33.128418,80,33.128418
	c15.6376953,0,28.359375,12.7216797,28.359375,28.3588867c0,14.2797852-10.6083984,26.1279297-24.359375,28.0771484v9.9228516
	C84,101.6962891,82.2089844,103.4873047,80,103.4873047z"/>
</svg>
