<?xml version="1.0" encoding="utf-8"?>
<!-- Generator: Adobe Illustrator 23.0.0, SVG Export Plug-In . SVG Version: 6.00 Build 0)  -->
<svg version="1.1" id="icon-home" xmlns="http://www.w3.org/2000/svg" xmlns:xlink="http://www.w3.org/1999/xlink" x="0px" y="0px"
	 viewBox="0 0 160 160" style="enable-background:new 0 0 160 160;" xml:space="preserve">
<path d="M126.4414444,143.1010132l-30.1362991-0.1015625c-1.9873428-0.1376953-3.8369827-0.9795074-5.2540054-2.4062958
	c-1.5478745-1.5576477-2.3974991-3.625061-2.3906631-5.8204193v-25.2250748c0-0.1220703-0.099617-0.2216797-0.2216873-0.2216797
	H71.5507813c-0.1220703,0-0.2216797,0.0996094-0.2216797,0.2216797v25.2553482c0,4.5108337-3.6699905,8.1993713-8.1808167,8.2218323
	l-29.5796471,0.0761719c-4.543541,0-8.2320843-3.6885376-8.2320843-8.2218323l-0.0014648-45.5848236l-6.8814754,5.6680756
	c-3.0508375,2.5098114-7.5763111,2.0693741-10.0866117-0.9834137l-6.7286391-8.1798401
	c-1.2143779-1.4697571-1.786654-3.3320923-1.6054983-5.2378922c0.1811557-1.9057922,1.0932819-3.6270142,2.5688951-4.8462753
	L69.401329,20.7008114c6.1368332-5.0498972,15.04422-5.0498972,21.1810532-0.0009766l17.0823441,14.054945V24.0656204
	c0-3.9517326,3.2149048-7.1666374,7.1671295-7.1666374H129.60849c3.9512482,0,7.166153,3.2149048,7.166153,7.1666374v34.6622581
	l20.7747955,17.127758c2.9053192,2.5337372,3.2871704,6.9513016,0.824234,9.9494019l-6.7305908,8.1817932
	c-2.5293427,3.0547409-7.0548248,3.4795532-10.0978394,0.9629059l-6.8761139-5.6631927l-0.0048828,45.5926361
	C134.6642456,139.4124756,130.975708,143.1010132,126.4414444,143.1010132z M97.3715744,135.0207825l29.0806122,0.0800934
	c0.1123047,0,0.2119141-0.0996246,0.2119141-0.2216949l0.0058594-52.1806412L80.005043,44.2647209L33.3347473,82.7043991
	l0.0019531,52.1747818c0,0.1220703,0.0996094,0.2216949,0.2216835,0.2216949l29.5596275-0.0761871
	c0.1118164-0.0009766,0.2109413-0.0996094,0.2109413-0.2216797v-25.2553482c0-4.533287,3.6885414-8.2218323,8.2218285-8.2218323
	h16.8880081c4.533287,0,8.2218323,3.6885452,8.2218323,8.2218323v25.2367935c0,0.0371094,0,0.1035156,0.0644531,0.1689453
	s0.1308594,0.0654297,0.15625,0.0654297L97.3715744,135.0207825z M80.0167618,36.0477753
	c1.6074524,0,3.2100143,0.5288162,4.517662,1.5835228l61.4649963,50.6230049l5.6641693-6.8858719l-22.8890991-18.8670464v-37.602253
	h-13.1096115v26.7973671l-30.165596-24.8188152c-3.1904907-2.6250477-7.8224106-2.625536-11.0129013-0.0004883L8.3406343,81.3528061
	l5.6749086,6.8995438L75.443924,37.6576653C76.7764664,36.5829391,78.3990555,36.0477753,80.0167618,36.0477753z
	 M7.8093743,80.7072906l0.0024414,0.0029297C7.8113275,80.7092438,7.8103509,80.7082672,7.8093743,80.7072906z"/>
</svg>
