<?xml version="1.0" encoding="utf-8"?>
<!-- Generator: Adobe Illustrator 23.0.0, SVG Export Plug-In . SVG Version: 6.00 Build 0)  -->
<svg version="1.1" id="icon-image" xmlns="http://www.w3.org/2000/svg" xmlns:xlink="http://www.w3.org/1999/xlink" x="0px" y="0px"
	 viewBox="0 0 160 160" style="enable-background:new 0 0 160 160;" xml:space="preserve">
<path d="M141,160H19c-10.4765625,0-19-8.5234375-19-19V19C0,8.5234375,8.5234375,0,19,0h122c10.4765625,0,19,8.5234375,19,19v122
	C160,151.4765625,151.4765625,160,141,160z M132.3242188,152H141c6.0654297,0,11-4.9345703,11-11V64.3232422L98.3242188,118
	L132.3242188,152z M8,98.5458984V141c0,6.0654297,4.9345703,11,11,11h102.0097656L37.777832,68.7680664L8,98.5458984z
	 M37.777832,57.4545898l54.8891602,54.8881836L152,53.0097656V19c0-6.0654297-4.9345703-11-11-11H19C12.9345703,8,8,12.9345703,8,19
	v68.2314453L37.777832,57.4545898z M92.6669922,64c-11.0283203,0-20.0004883-8.972168-20.0004883-20s8.972168-20,20.0004883-20
	s20,8.972168,20,20S103.6953125,64,92.6669922,64z M92.6669922,32c-6.6171875,0-12.0004883,5.3833008-12.0004883,12
	s5.3833008,12,12.0004883,12s12-5.3833008,12-12S99.2841797,32,92.6669922,32z"/>
</svg>
