<?xml version="1.0" encoding="utf-8"?>
<!-- Generator: Adobe Illustrator 23.0.0, SVG Export Plug-In . SVG Version: 6.00 Build 0)  -->
<svg version="1.1" id="icon-info" xmlns="http://www.w3.org/2000/svg" xmlns:xlink="http://www.w3.org/1999/xlink" x="0px" y="0px"
	 viewBox="0 0 160 160" style="enable-background:new 0 0 160 160;" xml:space="preserve">
<path d="M80,160c-44.1123047,0-80-35.8876953-80-80S35.8876953,0,80,0s80,35.8876953,80,80S124.1123047,160,80,160z M80,8
	C40.2988281,8,8,40.2988281,8,80s32.2988281,72,72,72s72-32.2988281,72-72S119.7011719,8,80,8z M91.6923828,126.8720703H68.3076172
	c-2.2089844,0-4-1.7910156-4-4s1.7910156-4,4-4H76V65.4873047h-3.7949219c-2.2089844,0-4-1.7910156-4-4s1.7910156-4,4-4h5.1782227
	C78.0844727,56.8798828,78.9995117,56.5126953,80,56.5126953c2.2089844,0,4,1.7910156,4,4v58.359375h7.6923828
	c2.2089844,0,4,1.7910156,4,4S93.9013672,126.8720703,91.6923828,126.8720703z M80,48.0512695c-4.4111328,0-8-3.5888672-8-8
	s3.5888672-8,8-8s8,3.5888672,8,8S84.4111328,48.0512695,80,48.0512695z"/>
</svg>
