<?xml version="1.0" encoding="utf-8"?>
<!-- Generator: Adobe Illustrator 23.0.0, SVG Export Plug-In . SVG Version: 6.00 Build 0)  -->
<svg version="1.1" id="icon-instagram" xmlns="http://www.w3.org/2000/svg" xmlns:xlink="http://www.w3.org/1999/xlink" x="0px"
	 y="0px" viewBox="0 0 160 160" style="enable-background:new 0 0 160 160;" xml:space="preserve">
<path d="M118,160H42c-23.1586914,0-42-18.8408203-42-42V42C0,18.8413086,18.8413086,0,42,0h76c23.1591797,0,42,18.8413086,42,42v76
	C160,141.1591797,141.1591797,160,118,160z M42,8C23.2524414,8,8,23.2524414,8,42v76c0,18.7480469,15.2524414,34,34,34h76
	c18.7480469,0,34-15.2519531,34-34V42c0-18.7475586-15.2519531-34-34-34H42z M79.9291992,114.0029297
	c-7.2397461,0-14.2607422-2.3066406-20.1821289-6.6982422c-7.293457-5.4101563-12.043457-13.3369141-13.375-22.3193359
	c-2.75-18.5439453,10.0986328-35.8676758,28.6411133-38.6171875c3.3085938-0.4912109,6.6655273-0.4912109,9.9741211,0
	c14.9189453,2.2119141,26.4287109,13.7226563,28.6416016,28.6425781v0.0004883
	c2.7490234,18.543457-10.0996094,35.8666992-28.6416016,38.6176758
	C83.2978516,113.8789063,81.6064453,114.0029297,79.9291992,114.0029297z M80,53.9995117
	c-1.2739258,0-2.5478516,0.0942383-3.8125,0.2817383c-14.1796875,2.1030273-24.0048828,15.3500977-21.9023438,29.5302734
	c2.1025391,14.1806641,15.3461914,24.0136719,29.5283203,21.9033203
	c14.1787109-2.1025391,24.0039063-15.3505859,21.9013672-29.5307617
	c-1.6914063-11.4091797-10.4931641-20.2109375-21.9013672-21.902832C82.5478516,54.09375,81.2734375,53.9995117,80,53.9995117z
	 M122.7998047,47.199707c-2.6113281,0-5.1826172-1.0600586-7.0546875-2.9082031
	c-1.8789063-1.8789063-2.9453125-4.4570313-2.9453125-7.0917969c0-2.6088867,1.0595703-5.1796875,2.9072266-7.0532227
	c1.9101563-1.8867188,4.4824219-2.9467773,7.0927734-2.9467773s5.1826172,1.0600586,7.0546875,2.9086914
	c1.8857422,1.9091797,2.9453125,4.4804688,2.9453125,7.0913086s-1.0595703,5.1826172-2.9082031,7.0551758
	c-0.0117188,0.012207-0.0244141,0.0244141-0.0371094,0.0366211C127.9824219,46.1396484,125.4111328,47.199707,122.7998047,47.199707
	z M127.0449219,41.4448242h0.0097656H127.0449219z M122.7998047,35.199707c-0.5166016,0-1.0527344,0.2250977-1.4355469,0.6020508
	c-0.3388672,0.3447266-0.5644531,0.8818359-0.5644531,1.3979492c0,0.5214844,0.21875,1.0517578,0.5839844,1.4174805
	c0.71875,0.7089844,2.0654297,0.7363281,2.8330078-0.0009766c0.3652344-0.3803711,0.5830078-0.9082031,0.5830078-1.4165039
	c0-0.5166016-0.2246094-1.0532227-0.6015625-1.4345703C123.8525391,35.4248047,123.3164063,35.199707,122.7998047,35.199707z"/>
</svg>
