<?xml version="1.0" encoding="utf-8"?>
<!-- Generator: Adobe Illustrator 24.0.0, SVG Export Plug-In . SVG Version: 6.00 Build 0)  -->
<svg version="1.1" id="icon-internet" xmlns="http://www.w3.org/2000/svg" xmlns:xlink="http://www.w3.org/1999/xlink" x="0px"
	 y="0px" viewBox="0 0 160 160" style="enable-background:new 0 0 160 160;" xml:space="preserve">
<path d="M25.179842,160c-8.9504147,0-14.9199667-4.2128296-20.0730438-10.5369415
	c-9.3928757-11.0119629-5.7363424-36.735733,10.2073936-64.4023895c-0.003911-0.3134308-0.0058661-0.6268616-0.0058661-0.9412689
	c0-39.571701,32.3402023-71.7655945,72.0922241-71.7655945c2.4748459,0,4.9184036,0.1245937,7.329689,0.3679419l0.0606308-0.0262814
	c30.6534729-13.5130835,50.3407669-16.2531757,58.5162582-8.1506796c9.7478333,9.703723,8.7993469,26.1720181-2.5286255,45.3950043
	c5.5559387,10.1675415,8.7142792,21.8136635,8.7142792,34.1796074c0,2.0830536-0.3774414,5.7352142-0.4204559,6.1450119
	l-0.3754883,3.5723419H61.7339287v0.1129074c0,4.310173,1.0765724,8.5979538,3.1133614,12.3980713
	c4.5947418,8.4373398,13.4498215,13.6936417,23.0969315,13.6936417c9.6461258,0,18.5012054-5.2563019,23.109642-13.7170029
	l1.1362152-2.0869522h44.6753235l-2.0661316,5.4052353c-10.5740662,27.6588745-37.6595001,46.2428284-67.3987198,46.2428284
	c-10.9691086,0-21.3710861-2.4500275-30.6876945-6.8312531C43.0024452,156.8111725,32.9627457,159.9990234,25.179842,160z
	 M16.9691429,99.4736481c-9.6803532,20.6864853-11.394949,38.2191772-5.6986971,44.8976135
	c6.1504469,7.5457153,13.2694178,12.6783905,37.1710854,0.1090088
	C32.6718483,134.3579865,21.1033382,118.2844086,16.9691429,99.4736481z M23.3982658,87.3179626
	c1.6808605,33.6938858,29.7455711,60.5935059,64.0022888,60.5935059c24.4482727,0,46.8793106-14.1287537,57.5482407-35.7000351
	h-28.0867233c-6.2746277,9.8059235-17.1439972,15.8039474-28.9178467,15.8039474
	c-12.5888596,0-24.142704-6.8555756-30.1518593-17.8908997c-2.666008-4.9749908-4.0686798-10.5603027-4.0686798-16.1748199
	v-8.0869217h97.6874695c0.0420532-0.6609268,0.0713806-1.2819519,0.0713806-1.7433395
	c0-32.2118988-24.1079865-58.9241486-55.3070755-63.1958694c-7.0392838,3.6034889-31.1922531,16.5743942-45.9186096,32.0488586
	l-0.075779,0.0773849C38.9811897,64.1955719,30.0806427,75.9881897,23.3982658,87.3179626z M79.8880157,20.7634087
	c-27.2340622,3.1795769-49.3003769,23.4246254-55.0851212,49.6715889
	c5.6248722-7.7773819,12.1869774-15.5289688,19.6770287-22.9865952
	C54.8672333,36.5469246,69.1921997,27.0549126,79.8880157,20.7634087z M108.7188416,15.5557737
	c15.120903,4.6678896,28.1228943,14.1637945,37.1862488,26.6723366c4.8558197-9.3031693,10.0968933-23.7239399,1.7444153-32.0386353
	C144.0863495,6.6565576,132.0220947,6.5587316,108.7188416,15.5557737z M119.8356018,77.7602463H53.5486526l0.2376099-4.2108841
	c0.9797668-17.3569984,15.4333191-30.9533081,32.9053726-30.9533081c17.4725494,0,31.92659,13.5963097,32.9063568,30.9533081
	L119.8356018,77.7602463z M62.385643,69.7862396h48.6124802c-2.5677338-11.0601425-12.5316544-19.2161751-24.306488-19.2161751
	S64.9528885,58.7260971,62.385643,69.7862396z"/>
</svg>
