<?xml version="1.0" encoding="utf-8"?>
<!-- Generator: Adobe Illustrator 23.0.0, SVG Export Plug-In . SVG Version: 6.00 Build 0)  -->
<svg version="1.1" id="icon-italic" xmlns="http://www.w3.org/2000/svg" xmlns:xlink="http://www.w3.org/1999/xlink" x="0px"
	 y="0px" viewBox="0 0 160 160" style="enable-background:new 0 0 160 160;" xml:space="preserve">
<path d="M152,160c-4.4111328,0-8-3.5888672-8-8s3.5888672-8,8-8s8,3.5888672,8,8S156.4111328,160,152,160z M152,152v0.0048828V152z
	 M128,160c-4.4111328,0-8-3.5888672-8-8s3.5888672-8,8-8s8,3.5888672,8,8S132.4111328,160,128,160z M128,152v0.0048828V152z
	 M97.5380859,160H4c-2.2089844,0-4-1.7910156-4-4s1.7910156-4,4-4h42.5957031L104.7753906,8H62.4614258
	c-2.2089844,0-4-1.7910156-4-4s1.7910156-4,4-4H156c2.2089844,0,4,1.7910156,4,4s-1.7910156,4-4,4h-42.5957031L55.2241211,152
	h42.3139648c2.2089844,0,4,1.7910156,4,4S99.7470703,160,97.5380859,160z M8,138.5c-4.4111328,0-8-3.5888672-8-8s3.5888672-8,8-8
	s8,3.5888672,8,8S12.4111328,138.5,8,138.5z M8,114c-4.4111328,0-8-3.5888672-8-8s3.5888672-8,8-8s8,3.5888672,8,8
	S12.4111328,114,8,114z M8,89.5c-4.4111328,0-8-3.5888672-8-8s3.5888672-8,8-8s8,3.5888672,8,8S12.4111328,89.5,8,89.5z M8,65
	c-4.4111328,0-8-3.5888672-8-8s3.5888672-8,8-8s8,3.5888672,8,8S12.4111328,65,8,65z M8,40.5c-4.4111328,0-8-3.5888672-8-8
	s3.5888672-8,8-8s8,3.5888672,8,8S12.4111328,40.5,8,40.5z M8,16c-4.4111328,0-8-3.5888672-8-8s3.5888672-8,8-8s8,3.5888672,8,8
	S12.4111328,16,8,16z"/>
</svg>
