<?xml version="1.0" encoding="utf-8"?>
<!-- Generator: Adobe Illustrator 18.0.0, SVG Export Plug-In . SVG Version: 6.00 Build 0)  -->
<!DOCTYPE svg PUBLIC "-//W3C//DTD SVG 1.1//EN" "http://www.w3.org/Graphics/SVG/1.1/DTD/svg11.dtd">
<svg version="1.1" id="icon-items" xmlns="http://www.w3.org/2000/svg" xmlns:xlink="http://www.w3.org/1999/xlink" x="0px" y="0px"
	 viewBox="0 0 160 160" style="enable-background:new 0 0 160 160;" xml:space="preserve">
<path d="M141.75,160H18.25C8.1870117,160,0,150.8994141,0,139.7138672V20.2856445C0,9.1000977,8.1870117,0,18.25,0h123.5
	C151.8134766,0,160,9.1000977,160,20.2856445v119.4282227C160,150.8994141,151.8134766,160,141.75,160z M18.25,8
	C12.5981445,8,8,13.5112305,8,20.2856445v119.4282227C8,146.4882813,12.5981445,152,18.25,152h123.5
	c5.6523438,0,10.25-5.5117188,10.25-12.2861328V20.2856445C152,13.5112305,147.4023438,8,141.75,8H18.25z M40,126
	c-4.4111328,0-8-3.5888672-8-8s3.5888672-8,8-8s8,3.5888672,8,8S44.4111328,126,40,126z M124,122H62c-2.2089844,0-4-1.7910156-4-4
	s1.7910156-4,4-4h62c2.2089844,0,4,1.7910156,4,4S126.2089844,122,124,122z M40,88c-4.4111328,0-8-3.5888672-8-8s3.5888672-8,8-8
	s8,3.5888672,8,8S44.4111328,88,40,88z M124,84H62c-2.2089844,0-4-1.7910156-4-4s1.7910156-4,4-4h62c2.2089844,0,4,1.7910156,4,4
	S126.2089844,84,124,84z M40,50c-4.4111328,0-8-3.5888672-8-8s3.5888672-8,8-8s8,3.5888672,8,8S44.4111328,50,40,50z M124,46H62
	c-2.2089844,0-4-1.7910156-4-4s1.7910156-4,4-4h62c2.2089844,0,4,1.7910156,4,4S126.2089844,46,124,46z"/>
</svg>
