<?xml version="1.0" encoding="utf-8"?>
<!-- Generator: Adobe Illustrator 18.0.0, SVG Export Plug-In . SVG Version: 6.00 Build 0)  -->
<!DOCTYPE svg PUBLIC "-//W3C//DTD SVG 1.1//EN" "http://www.w3.org/Graphics/SVG/1.1/DTD/svg11.dtd">
<svg version="1.1" id="icon-joomla" xmlns="http://www.w3.org/2000/svg" xmlns:xlink="http://www.w3.org/1999/xlink" x="0px"
	 y="0px" viewBox="0 0 160 160" style="enable-background:new 0 0 160 160;" xml:space="preserve">
<path d="M24.2890625,160C10.8959961,160,0,149.0605469,0,135.6132813c0-10.0869141,6.0151367-18.8427734,15.0317383-22.4736328
	c-1.8168945-11.6582031,1.9414063-22.9921875,10.7915039-32.3779297c-0.0620117-0.0625-0.1245117-0.1245117-0.1860352-0.1860352
	c-8.8881836-8.7866211-12.6938477-21.3984375-10.362793-33.6669922C6.2290039,43.2949219,0.2036133,34.5498047,0.2036133,24.4204102
	c0-13.4467773,10.8959961-24.3867188,24.2890625-24.3867188c10.5869141,0,19.7192383,6.7089844,23.0405273,16.4331055
	c11.3598633-1.4716797,22.3637695,2.2983398,31.4663086,10.8310547c0.015625-0.0161133,0.0307617-0.0317383,0.0458984-0.0478516
	c8.8139648-8.8129883,21.2397461-12.6577148,33.2739258-10.5410156C115.5712891,6.9375,124.8662109,0,135.4736328,0
	c13.3925781,0,24.2890625,10.9399414,24.2890625,24.3867188c0,10.6132813-6.9873047,19.9140625-16.8242188,23.1582031
	c2.0869141,11.9042969-1.6425781,23.4887695-10.7265625,33.1157227c0.0898438,0.0917969,0.1669922,0.1713867,0.2333984,0.2397461
	c8.3134766,8.3095703,12.2470703,20.1367188,10.6953125,31.6142578C152.9912109,115.7089844,160,124.9892578,160,135.5791016
	c0,13.4472656-10.8964844,24.3867188-24.2890625,24.3867188c-10.1533203,0-19.1328125-6.3134766-22.7236328-15.4960938
	c-12.3271484,2.4550781-24.9091797-1.3652344-33.9111328-10.4160156c-0.0400391,0.0400391-0.0805664,0.0800781-0.1201172,0.1191406
	c-8.6098633,8.5078125-20.3583984,12.3359375-32.0458984,10.6044922C43.2539063,153.9052734,34.4331055,160,24.2890625,160z
	 M31.4873047,86.4160156c-7.8310547,8.3837891-10.574707,18.1943359-7.9384766,28.4599609l1.0258789,3.9931641l-4.0229492,0.9042969
	C13.1616211,121.4345703,8,127.9482422,8,135.6132813C8,144.6494141,15.3071289,152,24.2890625,152
	c7.7099609,0,14.2817383-5.2333984,15.9814453-12.7255859l0.9052734-3.9902344l3.9682617,0.9951172
	c10.1401367,2.5400391,20.671875-0.3691406,28.1767578-7.7851563c6.125-6.1054688,22.050293-22.1064453,32.6586914-32.7714844
	l-9.3242188-9.3466797c-11.0371094,11.0800781-24.2558594,24.3486328-32.6884766,32.796875
	c-6.4179688,6.4150391-16.8540039,6.4150391-23.2680664,0.0029297c-5.3637695-5.4853516-7.4355469-14.9941406,0.1220703-23.4335938
	C37.5527344,92.4755859,34.3876953,89.3134766,31.4873047,86.4160156z M118.7744141,134.5126953l0.8740234,4.3505859
	c1.5244141,7.5917969,8.2792969,13.1025391,16.0625,13.1025391c8.9814453,0,16.2890625-7.3505859,16.2890625-16.3867188
	c0-8.0410156-6.046875-14.9570313-14.0644531-16.0859375l-4.4042969-0.6201172l1.0820313-4.3144531
	c2.4960938-9.9511719-0.5195313-20.6992188-7.8720703-28.0488281c-1.8310547-1.8925781-13.0917969-13.2084961-32.6689453-32.8286133
	c-2.5976563,2.6030273-5.8544922,5.8666992-9.3691406,9.387207l32.7363281,32.8134766
	c3.0986328,3.0986328,4.8066406,7.2294922,4.8066406,11.6279297c0,4.3994141-1.7080078,8.5302734-4.8105469,11.6318359
	c-3.1054688,3.1044922-7.140625,4.8134766-11.3623047,4.8134766c-0.0068359,0-0.0126953,0-0.0195313,0
	c-2.9970703-0.0039063-7.4111328-0.8974609-11.9599609-4.9492188c-3.3837891,3.3974609-6.6123047,6.6357422-9.3613281,9.3896484
	c7.8515625,7.9003906,19.1513672,10.7509766,29.8056641,7.4355469L118.7744141,134.5126953z M46.4897461,101.4091797
	c-5.1591797,6.0478516-1.4335938,10.7802734-0.1030273,12.140625c3.2626953,3.2617188,8.625,3.2626953,11.9208984-0.0322266
	c0.0483398-0.0478516,0.097168-0.0966797,0.1455078-0.1455078
	C54.6342773,109.5527344,50.5517578,105.4697266,46.4897461,101.4091797z M99.7529297,113.3222656
	c2.0566406,1.7265625,4.2148438,2.6298828,6.3105469,2.6328125c0.0029297,0,0.0058594,0,0.0087891,0
	c2.0859375,0,4.1123047-0.8769531,5.7070313-2.4716797c1.5908203-1.5898438,2.4667969-3.7119141,2.4667969-5.9736328
	s-0.8759766-4.3837891-2.4667969-5.9746094l-0.1494141-0.1494141
	C108.0761719,104.9580078,103.9287109,109.1269531,99.7529297,113.3222656z M24.4926758,8.0336914
	c-8.9819336,0-16.2890625,7.3510742-16.2890625,16.3867188c0,7.7314453,5.2172852,14.2553711,12.6875,15.8657227
	l4.2294922,0.9116211l-1.2402344,4.1450195c-3.168457,10.590332-0.3354492,21.9155273,7.394043,29.5566406
	c8.5712891,8.5527344,21.8012695,21.7792969,32.8291016,32.8085938c2.8842773-2.8916016,6.0400391-6.0576172,9.3066406-9.3349609
	L40.6635742,65.612793c-3.1010742-3.1005859-4.8095703-7.2490234-4.8095703-11.6811523
	c0-4.4316406,1.7084961-8.5805664,4.8105469-11.6821289c5.3774414-5.3764648,14.8447266-7.449707,23.3842773,0.1767578
	c3.5395508-3.5581055,6.7587891-6.8007813,9.3461914-9.4169922c-8.1889648-7.621582-17.8125-10.4052734-27.9082031-8.0512695
	l-4.1547852,0.96875l-0.6992188-4.2089844C39.3154297,13.7885742,32.527832,8.0336914,24.4926758,8.0336914z M67.0771484,80.7211914
	l11.9799805,11.9848633c4.0512695-4.0664063,8.1303711-8.1611328,11.9477539-11.9941406L79.0507813,68.7299805
	C74.9350586,72.8525391,70.7568359,77.0366211,67.0771484,80.7211914z M52.1054688,65.7431641l9.315918,9.3203125
	C73.9082031,62.559082,92.1386719,44.300293,94.1552734,42.2636719c6.4296875-6.4282227,16.8662109-6.4257813,23.2802734-0.0141602
	c3.1103516,3.1098633,4.8203125,7.1518555,4.8154297,11.3808594c-0.0039063,3.0029297-0.9013672,7.4291992-4.9775391,11.987793
	c3.5419922,3.5551758,6.7470703,6.7753906,9.3076172,9.3525391c10.1552734-10.8842773,9.8466797-21.8842773,7.7265625-29.3022461
	l-1.2636719-4.4208984l4.5537109-0.6391602c8.0751953-1.1337891,14.1650391-8.1074219,14.1650391-16.2216797
	C151.7626953,15.3510742,144.4550781,8,135.4736328,8c-8.1210938,0-15.0976563,6.0449219-16.2265625,14.0615234
	l-0.6455078,4.5810547l-4.4394531-1.300293c-10.4443359-3.0581055-21.7099609-0.1835938-29.4003906,7.5039063
	C81.3535156,36.4042969,65.7021484,52.1196289,52.1054688,65.7431641z M52.0019531,45.4370117
	c-2.2670898,0-4.2348633,1.0239258-5.6811523,2.4702148c-1.5908203,1.590332-2.4667969,3.7299805-2.4667969,6.0244141
	c0,2.2949219,0.8759766,4.4345703,2.4667969,6.0249023l0.1289063,0.1289063
	c3.9248047-3.9331055,8.0209961-8.0400391,11.9428711-11.9770508
	C56.1352539,46.1987305,53.9570313,45.4370117,52.0019531,45.4370117z M99.7197266,48.0146484
	c3.9296875,3.9384766,8.0019531,8.0214844,11.890625,11.921875c1.7324219-2.0610352,2.6376953-4.2197266,2.640625-6.315918
	c0.0019531-2.0883789-0.875-4.1176758-2.4716797-5.7138672c-3.2958984-3.2949219-8.6572266-3.2939453-11.953125,0
	C99.7949219,47.9389648,99.7587891,47.9746094,99.7197266,48.0146484z"/>
</svg>
