<?xml version="1.0" encoding="utf-8"?>
<!-- Generator: Adobe Illustrator 18.0.0, SVG Export Plug-In . SVG Version: 6.00 Build 0)  -->
<!DOCTYPE svg PUBLIC "-//W3C//DTD SVG 1.1//EN" "http://www.w3.org/Graphics/SVG/1.1/DTD/svg11.dtd">
<svg version="1.1" id="icon-key" xmlns="http://www.w3.org/2000/svg" xmlns:xlink="http://www.w3.org/1999/xlink" x="0px" y="0px"
	 viewBox="0 0 160 160" style="enable-background:new 0 0 160 160;" xml:space="preserve">
<path d="M44.940918,160c-1.0239258,0-2.0473633-0.390625-2.8286133-1.171875l-11.9648438-11.9658203l-11.9584961,11.9648438
	C17.4389648,159.578125,16.4213867,160,15.3603516,160s-2.0786133-0.4208984-2.8291016-1.171875L1.1713867,147.4677734
	C0.4213867,146.7177734,0,145.7001953,0,144.6386719c0-1.0605469,0.421875-2.078125,1.1723633-2.828125l76.4033203-76.3579102
	C73.9189453,58.9169922,72,51.5654297,72,44c0-24.2617188,19.7382813-44,44-44s44,19.7382813,44,44s-19.7382813,44-44,44
	c-7.5664063,0-14.9179688-1.9189453-21.4521484-5.5751953l-24.8579102,24.8681641l11.9790039,11.9794922
	c0.75,0.75,1.171875,1.7675781,1.171875,2.828125s-0.421875,2.078125-1.171875,2.828125l-9.8999023,9.8994141
	c-1.5610352,1.5634766-4.09375,1.5625-5.6567383,0l-11.9711914-11.9716797l-8.4418945,8.4453125l11.9702148,11.9707031
	c0.75,0.75,1.1713867,1.7675781,1.1713867,2.828125s-0.4213867,2.078125-1.171875,2.828125l-9.8999023,9.8994141
	C46.9882813,159.609375,45.9643555,160,44.940918,160z M30.1459961,137.2050781c1.0610352,0,2.0786133,0.4208984,2.8291016,1.171875
	l11.9658203,11.9658203l4.2431641-4.2421875l-11.9697266-11.9697266c-1.5615234-1.5615234-1.5620117-4.09375-0.0004883-5.65625
	l14.0976563-14.1035156c0.75-0.75,1.7675781-1.171875,2.8286133-1.171875s2.0786133,0.4208984,2.8291016,1.171875
	l11.9716797,11.9716797l4.2426758-4.2421875l-11.9785156-11.9785156c-1.5615234-1.5615234-1.5620117-4.09375-0.0004883-5.65625
	l29.9077148-29.9208984c0.3037109-0.3041992,0.6533203-0.5585938,1.0380859-0.7509766
	c1.3574219-0.6787109,2.9414063-0.5195313,4.1230469,0.3251953C102.1337891,77.9667969,108.9521484,80,116,80
	c19.8505859,0,36-16.1494141,36-36S135.8505859,8,116,8S80,24.1494141,80,44c0,7.0449219,2.03125,13.8603516,5.8769531,19.7207031
	c0.0576172,0.0805664,0.1123047,0.1625977,0.1640625,0.2460938c0.2763672,0.449707,0.4550781,0.9423828,0.5371094,1.4472656
	c0.1015625,0.6230469,0.0566406,1.269043-0.1445313,1.8833008c-0.1503906,0.4648438-0.3896484,0.9072266-0.7158203,1.3022461
	c-0.0830078,0.1010742-0.1708984,0.1982422-0.2626953,0.2895508L9.6577148,144.640625l5.7011719,5.7021484l11.9584961-11.9658203
	C28.0673828,137.6269531,29.0849609,137.2050781,30.1459961,137.2050781z M116,64c-11.0283203,0-20-8.972168-20-20
	s8.9716797-20,20-20s20,8.972168,20,20S127.0283203,64,116,64z M116,32c-6.6171875,0-12,5.3833008-12,12s5.3828125,12,12,12
	s12-5.3833008,12-12S122.6171875,32,116,32z"/>
</svg>
