<?xml version="1.0" encoding="utf-8"?>
<!-- Generator: Adobe Illustrator 23.0.0, SVG Export Plug-In . SVG Version: 6.00 Build 0)  -->
<svg version="1.1" id="icon-leaf" xmlns="http://www.w3.org/2000/svg" xmlns:xlink="http://www.w3.org/1999/xlink" x="0px" y="0px"
	 viewBox="0 0 160 160" style="enable-background:new 0 0 160 160;" xml:space="preserve">
<path d="M12.4284582,151.5692749c-1.5796347,0-3.1831951-0.3027496-4.7276721-0.9433899
	c-6.3029118-2.5918732-9.355732-9.849884-6.7936487-16.176239c3.8521593-9.4514313,13.5218649-23.7086716,29.1180096-35.4043121
	c20.3916855-15.2924271,45.7268753-23.0455704,75.3014374-23.0455704c0.1142578,0,0.2226639-0.1084061,0.2226639-0.2226639
	c0-0.1142654-0.1084061-0.2226639-0.2226639-0.2226639c-28.6614532,0-53.317421,7.2511826-73.2837982,21.5533447
	l-5.6017208,4.0128021L25.6705303,93.65065c-0.1738319-1.6533661-0.3530369-3.3624039-0.3530369-5.2052231
	c0-30.1468506,24.5260811-54.6729317,54.672924-54.6729317h21.1133881c15.0072632,0,28.5008087-7.8830338,36.0947723-21.087019
	c1.5654755-2.758378,4.4542236-4.3839121,7.537323-4.2467012c3.0528107,0.1450233,5.7540588,2.0308189,7.0500031,4.921525l0,0
	C157.0829315,25.1828995,160,39.3170853,160,53.1592751c0,23.1236992-7.3361511,44.8909111-20.6558533,61.2907906
	c-13.6068344,16.7524185-32.6347122,26.8230209-53.5864716,28.3621292
	c-24.5929794,2.585022-40.2057266-10.8919067-46.9954681-18.6020889
	c-10.645319,9.9084854-14.6263866,19.2661667-14.804615,19.6939163
	C21.9516754,148.6824799,17.3021317,151.5692749,12.4284582,151.5692749z M105.3265839,67.5542068
	c4.5343094,0,8.2228851,3.6885834,8.2228851,8.2228928s-3.6885757,8.2228851-8.2228851,8.2228851
	c-74.3639145,0-96.1179428,51.2787933-97.0076141,53.4614716c-0.9111586,2.250061,0.1796923,4.8419342,2.4351273,5.7696838
	c2.2652006,0.9404602,4.8707428-0.1455078,5.8224297-2.4141235c0.5605621-1.3447571,5.9171581-13.5589752,20.0967579-25.4313812
	l3.2608337-2.7295685l2.5254631,3.4219742c3.7388725,5.065567,17.8501129,21.3902512,42.5187759,18.7720108l0.1328125-0.0117188
	c38.7579346-2.8135529,66.8886032-37.1651077,66.8886032-81.6790619c0-12.5550423-2.7393341-25.8684063-7.5148621-36.5273972
	c-0.0625-0.1406288-0.1210938-0.1958065-0.1367188-0.2041073c-0.0175781,0.0014648-0.1064453,0.0571308-0.203125,0.2265701
	c-9.0510406,15.7357941-25.1364517,25.1183815-43.0412598,25.1183815H79.9904175
	c-25.1178932,0-45.6653442,19.9463654-46.6370544,44.8308563C53.5590134,73.9581985,77.7330322,67.5542068,105.3265839,67.5542068z"
	/>
</svg>
