<?xml version="1.0" encoding="utf-8"?>
<!-- Generator: Adobe Illustrator 23.0.0, SVG Export Plug-In . SVG Version: 6.00 Build 0)  -->
<svg version="1.1" id="icon-leftquote" xmlns="http://www.w3.org/2000/svg" xmlns:xlink="http://www.w3.org/1999/xlink" x="0px"
	 y="0px" viewBox="0 0 160 160" style="enable-background:new 0 0 160 160;" xml:space="preserve">
<path d="M121.9521484,135c-22.9697266,0-38.4023438-17.2890396-38.4023438-43.0205002
	c0-32.2978401,19.2324219-57.0265961,51.4482422-66.1495209c9.2001953-2.8309002,16.2226563,2.0102863,18.1132813,8.0201492
	c1.7441406,5.5431747-0.7441406,12.9106445-10.3291016,15.9875793l-0.2128906,0.0620003
	c-8.7255859,2.276825-16.2412109,7.6554871-21.2558594,14.9687653c8.2646484-1.3204994,16.9785156,0.2582397,23.9882813,4.6337128
	C154.7802734,75.418808,160,85.7533722,160,98.6020203C160,120.7132034,145.0654297,135,121.9521484,135z M140.2324219,33.0212135
	c-0.9003906,0-1.8935547,0.1479149-2.9677734,0.478405c-28.6572266,8.1168098-45.7148438,29.9687805-45.7148438,58.4798813
	c0,21.6025162,11.6494141,35.022316,30.4023438,35.022316C140.4863281,127.0018158,152,116.1195221,152,98.6020203
	c0-12.8017807-5.9462891-19.20121-10.9355469-22.3152466c-7.4482422-4.6488419-17.8623047-5.1287155-25.9189453-1.1930847
	L106.125,79.500885l3.5185547-9.4016724c5.1464844-13.7532196,16.6523438-24.1785851,30.7900391-27.9082069
	c3.8691406-1.2692451,5.8017578-3.5402145,5.046875-5.9410362
	C144.9111328,34.4417877,143.0214844,33.0212135,140.2324219,33.0212135z M38.402832,135C15.0742188,135,0,118.0936813,0,91.9287262
	c0-32.3017426,19.2163086-57.0036507,51.4033203-66.0860596c8.9174805-2.750351,16.2416992,1.9170456,18.1772461,8.0323563
	c1.7490234,5.5256004-0.7431641,12.8779335-10.3461914,15.9621925l-0.2133789,0.0624886
	c-8.7446289,2.2812195-16.2739258,7.6779404-21.2885742,15.0151443c8.2724609-1.2858429,17.1069336,0.2855759,24.0166016,4.5927048
	c9.4804688,5.9102783,14.7016602,16.2428894,14.7016602,29.0944672C76.4506836,120.7132034,61.5161133,135,38.402832,135z
	 M56.6181641,33.0285339c-0.8837891,0-1.8525391,0.1440125-2.8896484,0.4671783l-0.105957,0.0312462
	C25.0551758,41.5695648,8,63.4020081,8,91.9287262c0,21.6337585,11.6499023,35.0730896,30.402832,35.0730896
	c18.5341797,0,30.0478516-10.8822937,30.0478516-28.3997955c0-10.1344223-3.78125-17.8479996-10.9345703-22.3074341
	c-7.4682617-4.6551895-17.8823242-5.1389694-25.9160156-1.2028503l-9.03125,4.4252625l3.5249023-9.4177856
	c5.1474609-13.7537079,16.6533203-24.1790733,30.7910156-27.9082069c3.8789063-1.2731514,5.8198242-3.5289841,5.0683594-5.9029579
	C61.3842773,34.4901161,59.4316406,33.0285339,56.6181641,33.0285339z"/>
</svg>
