<?xml version="1.0" encoding="utf-8"?>
<!-- Generator: Adobe Illustrator 18.0.0, SVG Export Plug-In . SVG Version: 6.00 Build 0)  -->
<!DOCTYPE svg PUBLIC "-//W3C//DTD SVG 1.1//EN" "http://www.w3.org/Graphics/SVG/1.1/DTD/svg11.dtd">
<svg version="1.1" id="icon-letter" xmlns="http://www.w3.org/2000/svg" xmlns:xlink="http://www.w3.org/1999/xlink" x="0px"
	 y="0px" viewBox="0 0 160 160" style="enable-background:new 0 0 160 160;" xml:space="preserve">
<path d="M155.9994659,160H4.0005269c-2.2089691,0-3.9999721-1.7910156-3.9999721-4V65.3520508
	c-0.0122069-0.7470703,0.184569-1.5058594,0.6108356-2.1860352c0.463864-0.7402344,1.1308515-1.2763672,1.8827994-1.581543
	l22.0223083-9.2338867V4c0-2.2089844,1.7910023-4,3.9999714-4h102.9665756c2.2089691,0,3.9999695,1.7910156,3.9999695,4v48.3505859
	l22.0184021,9.2324219c0.753891,0.3046875,1.4218597,0.8413086,1.8867035,1.5830078
	c0.4267578,0.6801758,0.6240234,1.4389648,0.6113281,2.1860352V156C159.9994507,158.2089844,158.2084351,160,155.9994659,160z
	 M8.0004988,152h143.9989929V72.519043l-69.8745117,43.8041992c-1.3007736,0.8144531-2.9506607,0.8144531-4.2494812,0
	L8.0004988,72.519043V152z M32.5164413,78.4462891L80,108.2138672l47.4830704-29.7675781V55.1000977
	c-0.0009766-0.0605469-0.0009766-0.1210938,0-0.1821289V8h-94.966629v46.918457
	c0.0014648,0.0605469,0.0014648,0.1210938,0,0.1811523V78.4462891z M135.483017,61.0253906v12.4057617l11.8583069-7.4335938
	L135.483017,61.0253906z M12.6586704,65.9975586l11.8578281,7.4335938V61.0253906L12.6586704,65.9975586z M111.9997787,68
	H48.0002213c-2.2089691,0-3.9999733-1.7910156-3.9999733-4s1.7910042-4,3.9999733-4h63.9995575
	c2.2089691,0,3.9999695,1.7910156,3.9999695,4S114.2087479,68,111.9997787,68z M111.9997787,48H48.0002213
	c-2.2089691,0-3.9999733-1.7910156-3.9999733-4s1.7910042-4,3.9999733-4h63.9995575c2.2089691,0,3.9999695,1.7910156,3.9999695,4
	S114.2087479,48,111.9997787,48z M72.0000534,28H48.0002213c-2.2089691,0-3.9999733-1.7910156-3.9999733-4s1.7910042-4,3.9999733-4
	h23.9998322c2.2089691,0,3.9999771,1.7910156,3.9999771,4S74.2090225,28,72.0000534,28z"/>
</svg>
