<?xml version="1.0" encoding="utf-8"?>
<!-- Generator: Adobe Illustrator 23.0.0, SVG Export Plug-In . SVG Version: 6.00 Build 0)  -->
<svg version="1.1" id="icon-like" xmlns="http://www.w3.org/2000/svg" xmlns:xlink="http://www.w3.org/1999/xlink" x="0px" y="0px"
	 viewBox="0 0 160 160" style="enable-background:new 0 0 160 160;" xml:space="preserve">
<path d="M123.3311615,160c-0.0673828,0-0.1347656,0-0.203125-0.0009766h-95.715271
	C17.8111095,159.9990234,10,151.3857422,10,140.7988281V87.5996094c0-10.5869141,7.8111095-19.2001953,17.4127636-19.2001953
	h17.3912792L70.6338806,2.5395508C71.2344742,1.0078125,72.7120285,0,74.3575516,0
	c13.2994385,0,24.1188812,12.0224609,24.1188812,26.7998047V53.199707h33.9583359
	c0.9013672-0.0170898,1.8877106,0.0644531,2.8418121,0.2285156c9.4073181,1.6181641,15.927887,11.3896484,14.5362854,21.7822266
	l-9.2559509,68.4047852C139.3020172,152.9902344,131.9161987,160,123.3311615,160z M51.532135,151.9990234h71.6476593
	c0.0341797,0,0.0683594,0.0009766,0.1015625,0.0009766c4.6367645,0,8.6231232-4.0439453,9.3467712-9.4511719l9.2559509-68.4052734
	c0.8271484-6.175293-2.7451477-11.9331055-7.9619904-12.8310547c-0.4736481-0.0805664-0.9629059-0.1230469-1.4365387-0.1132813
	L94.4763947,61.199707c-2.2090073,0-4.0000381-1.7910156-4.0000381-4V26.7998047
	c0-9.3222656-5.8467331-17.081543-13.4888992-18.5498047L51.532135,73.1557617V151.9990234z M27.4127636,76.3994141
	c-5.189991,0-9.4126873,5.0244141-9.4126873,11.2001953v53.1992188c0,6.1757813,4.2226963,11.2001953,9.4126873,11.2001953
	h16.1192951V76.3994141H27.4127636z"/>
</svg>
