<?xml version="1.0" encoding="utf-8"?>
<!-- Generator: Adobe Illustrator 23.0.0, SVG Export Plug-In . SVG Version: 6.00 Build 0)  -->
<svg version="1.1" id="icon-link" xmlns="http://www.w3.org/2000/svg" xmlns:xlink="http://www.w3.org/1999/xlink" x="0px" y="0px"
	 viewBox="0 0 160 160" style="enable-background:new 0 0 160 160;" xml:space="preserve">
<path d="M45.1198273,160c-11.5542831,0-23.1085701-4.398056-31.9046745-13.1941528
	C4.6930132,138.2841949,0,126.9535675,0,114.9021454c0-12.0523987,4.6930132-23.3830185,13.2151537-31.9046707
	l17.4452133-17.4461899c1.5636864-1.5612488,4.0962524-1.5612488,5.6579857,0c1.5622215,1.5622177,1.5622215,4.0952759,0,5.6579819
	L18.8731403,88.65448c-7.0111961,7.0107117-10.8720655,16.3322754-10.8720655,26.2476654
	c0,9.9144211,3.8608694,19.2359772,10.8720655,26.2466888c14.4726467,14.472641,38.0207291,14.472641,52.4933777,0
	l17.4461899-17.4457016c1.5607605-1.562706,4.0962524-1.562706,5.6570129,0c1.562706,1.5617371,1.562706,4.0952759,0,5.6570053
	l-17.4452133,17.4457092C68.2284012,155.601944,56.6741142,160,45.1198273,160z M56.7502975,107.2722168
	c-1.0240631,0-2.0476379-0.3906784-2.8289948-1.1720352c-1.5622215-1.5617294-1.5622215-4.0952759,0-5.6570053
	l46.5218735-46.5218735c1.5607529-1.5617332,4.0962524-1.5617332,5.6570053,0c1.5627136,1.5627098,1.5627136,4.0952759,0,5.6579857
	l-46.5208931,46.5208931C58.7979355,106.8815384,57.7743607,107.2722168,56.7502975,107.2722168z M126.5316391,95.6417465
	c-1.0235748,0-2.0481262-0.3906784-2.8285065-1.1720276c-1.562706-1.5617371-1.562706-4.0952759,0-5.6570129l17.4457016-17.4461899
	c14.4716644-14.4721565,14.4716644-38.0207291,0-52.4933777c-7.0107117-7.0111961-16.3322678-10.8720655-26.2466888-10.8720655
	c-9.91539,0-19.2369537,3.8608694-26.2476654,10.8720655L71.2092667,36.3183517
	c-1.562706,1.5627098-4.0952759,1.5617332-5.6579819,0c-1.5622253-1.5627098-1.5622253-4.0957642,0-5.6579857l17.4461899-17.4452133
	C91.5191269,4.6930132,102.8497467,0,114.9021454,0c12.0514221,0,23.3820496,4.6930132,31.9037018,13.2151537
	c17.5922089,17.5926933,17.5922089,46.217144,0,63.8093529l-17.4457092,17.4452133
	C128.5797729,95.2510681,127.5552139,95.6417465,126.5316391,95.6417465z"/>
</svg>
