<?xml version="1.0" encoding="utf-8"?>
<!-- Generator: Adobe Illustrator 18.0.0, SVG Export Plug-In . SVG Version: 6.00 Build 0)  -->
<!DOCTYPE svg PUBLIC "-//W3C//DTD SVG 1.1//EN" "http://www.w3.org/Graphics/SVG/1.1/DTD/svg11.dtd">
<svg version="1.1" id="icon-linux" xmlns="http://www.w3.org/2000/svg" xmlns:xlink="http://www.w3.org/1999/xlink" x="0px" y="0px"
	 viewBox="0 0 160 160" style="enable-background:new 0 0 160 160;" xml:space="preserve">
<path d="M108.1887665,160.0009766c-6.1801758,0-11.4696579-3.2372589-14.370285-8.8631744
	c-2.6466904-0.0791016-5.0863419-0.4306641-7.308197-0.7499847c-2.3800735-0.3427734-4.4407806-0.6376953-6.0703049-0.5068359
	c-0.0346756,0.0029297-0.0688553,0.0048828-0.1030426,0.0068359c-3.2316971,0.1757813-5.8666763,0.6806641-8.1915665,1.1259613
	c-1.3751068,0.2636719-2.7023621,0.5185547-4.0154572,0.6767578c-2.0997772,3.0331573-5.3602905,5.1932831-9.2492714,6.0624237
	c-5.723114,1.316391-12.6162415,0.0957031-19.3863106-3.4472198c-3.1145058-1.6435394-7.0874786-2.0917816-10.9290943-2.5243835
	c-2.0001583-0.2255859-3.8899574-0.4384766-5.6996727-0.8134766c-1.5860634-0.3271484-6.4287338-1.3251801-8.7228622-5.7147675
	c-2.1481199-4.2216339-0.8101234-9.1561432,0.4077473-12.5359802c0.1513796-0.6240234-0.1401482-2.5663757-0.3335228-3.8563995
	l-0.0683641-0.4570313c-0.1767721-1.144516-0.4009113-2.5976181-0.4009113-4.0907669
	c0-2.1191177,0.4302101-3.9452667,1.3150463-5.5829391c2.0128565-3.786087,5.3519888-5.3358688,7.6871367-6.168869
	c0.3149662-0.1123047,0.624073-0.21875,0.9273186-0.3232422c1.1446228-0.3925705,2.2257633-0.7646332,2.6286278-1.1747894
	c0.4306984-0.4550705,0.9864063-1.2099457,1.5748329-2.0097351c0.6147957-0.8369064,1.2803745-1.7411957,2.0382481-2.6122742
	c-0.3882141-4.8212357,0.3647747-10.0819092,2.2457848-15.6707077
	c3.9041176-11.6981049,11.8822937-22.6789246,17.9330673-29.8731728c4.3128433-6.156662,5.4320755-10.9026985,5.8813286-16.9729385
	c0.0351601-1.2289886-0.0908279-3.0385361-0.2363472-5.1273766c-0.624073-8.94911-1.5665283-22.4738464,6.6064835-31.2183685
	c4.6991081-5.0282593,11.6820869-7.5775442,20.7536049-7.5775442c0.0312576,0,0.0615311,0,0.0937576,0
	c7.6011963,0.0092772,13.7012863,2.2929409,18.1284027,6.7870264c8.8346863,8.9710817,8.6178741,24.3590775,8.4743042,34.5420609
	l-0.0214844,1.6908951c-0.0732498,7.3734474,4.0618439,12.5511169,8.8503113,18.5461617l0.1923981,0.2412071
	c6.9400101,8.1932602,11.6855087,15.7849655,14.5070114,23.2062607c3.0666504,8.0790024,3.7512817,15.8191452,2.0470428,23.0583115
	c0.1250153,0.0917969,0.230484,0.1728516,0.3105774,0.2412109c3.0559082,2.5829773,3.8967896,6.3446503,4.4524994,8.8338776
	l0.0380859,0.1611252c0.3154602,1.3388519,0.7901001,3.3603134,1.1846619,3.8915558
	c4.1243591,4.5917435,5.8090668,8.0838928,5.6332703,11.6785736c-0.3174133,5.1766968-4.6429596,7.7967682-6.0649414,8.6580963
	c-1.4805908,0.8915863-3.0627441,1.6601257-4.7386627,2.4736023c-3.5041809,1.7011414-7.1284943,3.4608917-9.4275055,6.22258
	c-4.8812485,5.7870331-10.9686432,9.2283936-17.1576157,9.711792
	C109.1282959,159.9824219,108.6556015,160.0009766,108.1887665,160.0009766z M100.9821396,147.5724182
	c2.2140427,4.1913605,5.9467621,4.5526733,7.9996643,4.3973999c3.979805-0.3105316,8.2252579-2.8163605,11.6483841-6.8739319
	c3.3850403-4.067337,7.9967346-6.3055878,12.0644379-8.2811432c1.5098877-0.7333984,2.9357758-1.425766,4.0989532-2.1259613
	c1.4259033-0.863266,2.1730347-1.6220398,2.2120972-2.2499695c0.0380859-0.7900238-0.5518036-2.5019226-3.595993-5.8905487l0,0
	c-1.7315826-1.9179459-2.3585815-4.5858841-3.0227051-7.4100723l-0.046875-0.2021408
	c-0.2754059-1.2294769-0.5342255-2.2988052-0.8887329-3.1308212c-3.5852509,3.4286652-9.8113327,5.619072-18.4028397,4.3935013
	c-0.3603821-0.0517578-0.7119675-0.1523438-1.0459824-0.2988281c-2.1740036-0.9579926-3.7405319-1.9853287-4.8744125-3.0878525
	c-0.3935852,2.4902039-0.5830536,5.5761032-0.7529907,8.7801666c-0.1171951,1.9657974-1.118248,5.0692673-2.877182,10.3865891
	c-1.0821152,3.2714539-2.8644867,8.6600494-3.023674,10.3543701c0.1054764,0.3583984,0.2226715,0.6611176,0.3496323,0.9023285
	C100.881546,147.3458557,100.934288,147.4581604,100.9821396,147.5724182z M36.3129272,111.2974701
	c-0.6641159,0.697258-1.3350677,1.6083755-1.9874649,2.4960632c-0.7085533,0.9628754-1.4410324,1.9579849-2.261898,2.823204
	c-1.7730904,1.8085785-3.9055862,2.5409851-5.7870827,3.1874619c-0.2749252,0.09375-0.5542431,0.1904297-0.8379574,0.2910156
	c-1.8355961,0.6552658-2.7370338,1.3095551-3.3239956,2.414032c-0.2539272,0.4706955-0.3662395,1.035141-0.3662395,1.803688
	c0,0.8798752,0.1650524,1.9491959,0.3105717,2.89254l0.0703182,0.46875
	c0.4053059,2.7021179,0.7881489,5.2548218,0.0083008,7.5858459c-1.4161282,3.9091339-1.2588902,5.5887909-0.8838596,6.3270721
	c0.2104664,0.4013519,0.7979145,1.0449066,3.2317028,1.5458679c1.4537296,0.3017578,3.1648026,0.4941406,4.9759827,0.6992188
	c4.3670483,0.4921875,9.3161716,1.0497894,13.755003,3.3915558c4.9940491,2.6132507,10.0633011,3.6103058,13.8941727,2.7275085
	c2.0641289-0.4609375,3.6697235-1.5410004,4.6151123-3.0790558v-3.2226257
	c0.0097656-2.3271179-3.7981529-6.813385-6.5781593-10.0887451c-2.5168037-2.964798-4.8954086-5.7665253-6.2353592-8.5057526
	l-5.7890358-10.4735031c-0.0947342-0.1708984-0.1767731-0.3496094-0.2451363-0.5322189
	c-0.1464958-0.3916016-1.1353455-1.5097504-3.1179237-2.2802505
	C38.3072243,111.2037201,37.0527306,111.1285248,36.3129272,111.2974701z M68.9932632,139.7355957
	c0.4307022,1.1894379,0.6919479,2.3886414,0.7285767,3.5966339c0.298851-0.0566406,0.604538-0.1152344,0.9175491-0.1748047
	c2.4357452-0.4667816,5.4647903-1.0478363,9.2145996-1.2548676c2.512413-0.1962738,5.0790176,0.1767578,7.7960358,0.5664063
	c1.7315826,0.25,3.5012512,0.5039063,5.3148727,0.6201172c0.3447571-1.457016,0.8711624-3.2382507,1.5850906-5.477478
	C86.8452682,140.3527832,77.4905243,141.3361664,68.9932632,139.7355957z M61.2475281,128.3851471
	c10.0462112,6.4530487,27.3810883,4.707962,36.6474533-1.175766c0.2734604-0.9472504,0.4619522-1.701149,0.4932022-2.0741882
	c0.2353668-4.4608841,0.5176163-8.7801666,1.3594818-12.1971207c0.6182175-2.4374695,1.76577-5.7499237,4.7542877-7.9862289
	c1.0977402-2.6044617,3.8547974-9.1043777,5.9799652-13.7644806c1.2540054-2.7480164-3.4241028-10.0477295-5.1849823-12.7962265
	c-0.7051315-1.10009-1.3145599-2.0502701-1.7325592-2.8280945c-1.0498886-1.9467545-2.8449554-4.4350052-4.7445221-7.0687637
	c-3.2307205-4.4779663-6.8022995-9.4295692-8.9880142-14.6072388c-0.3779602,0.2177696-0.8203812,0.4980392-1.2325211,0.7592659
	c-0.6318893,0.4008751-1.3018646,0.8232346-2.0187149,1.2265472c-4.6400223,2.6615906-9.7537079,3.028286-14.0270004,1.1459846
	c-1.7779694,6.5926895-5.3441772,12.9461288-8.3561325,18.3117828c-1.5723915,2.801239-3.0578613,5.4472046-4.0310822,7.660553
	c-2.0743866,4.906189-1.0645409,12.6941833,0.2861557,14.1248322c3.1247597,3.3075714,5.4799271,6.1708221,9.3342361,11.3475113
	c2.8454437,3.8163605,2.5568466,8.8563385-0.7378464,12.837738c-2.0797577,2.5136414-5.4393997,4.5575638-9.4397202,5.1395874
	c0.5347099,0.6435471,1.0889549,1.2968597,1.637825,1.9433289
	C61.2475281,128.3851471,61.2470398,128.3851471,61.2475281,128.3851471z M54.1673737,118.0249252
	c3.8049927,1.3701019,7.1250801,0.1005859,8.7174911-1.8232193c0.5288506-0.6396408,1.2950287-1.8740005,0.4863701-2.9589462
	c-4.1004257-5.5067673-6.2329216-7.9852524-8.7340965-10.6326828c-4.3831596-4.6376419-4.5784874-16.2576141-1.8170395-22.7863464
	c1.1524353-2.6220398,2.7301979-5.4325485,4.4007416-8.4085846c3.4079857-6.0712204,7.2261658-12.8733788,8.2145233-19.2771111
	c-0.5786591-0.716301-1.0337753-1.5912895-1.3316498-2.5951843c-0.2314644-0.7787971-0.3647766-1.6606216-0.3725891-2.5761375
	c-0.6963425,6.1610565-2.4030228,11.8934097-7.192955,18.6799469c-0.0659218,0.09375-0.1362419,0.1845703-0.2099762,0.2724609
	c-4.5960693,5.4496384-12.8608894,16.255661-16.5774956,27.393219c-1.1944313,3.5478058-1.8360825,6.8690567-1.921051,9.9256592
	c1.5631142,0.0830078,3.1994743,0.4413986,4.8294868,1.0751801c3.6106377,1.4033051,6.4175034,3.8583527,7.5840988,6.6122284
	L54.1673737,118.0249252z M114.7146759,112.3501892c6.7671432,0.8232346,11.3104782-1.2704926,12.1943359-3.7401886
	c2.1280975-6.3104706,1.7706451-13.2937851-1.0606308-20.7556076c-2.4982452-6.569252-6.8052292-13.4119415-13.1690216-20.9181976
	c-0.0244141-0.0297852-0.0498047-0.0600586-0.0742264-0.0908203l-0.2285309-0.2856369
	c-5.2611618-6.5868378-10.7010498-13.397789-10.5994797-23.6222725l0.0224686-1.7201958
	c0.1250076-8.8514557,0.3134995-22.2272682-6.1753006-28.8160553c-2.9103851-2.9540653-6.9790726-4.3935003-12.4404449-4.4003363
	c-0.0263672,0-0.0527344,0-0.0791092,0c-6.7690887,0-11.7846298,1.6952915-14.9103622,5.0399771
	c-5.794899,6.20012-4.9979591,17.6340637-4.4705734,25.1998901c0.1640739,2.3534851,0.305687,4.3856888,0.2485542,6.0331268
	c-0.0019531,0.050293-0.0043945,0.1010742-0.0083008,0.1518555c-0.012207,0.1708946-0.0253944,0.3408165-0.0390663,0.5107346
	c0.2729721-1.3325043,0.8462601-2.6318016,1.8009262-3.6947784c-1.3541107-4.1605949-1.5245361-8.711319-0.3442688-12.0682125
	c0.8765335-2.492157,2.450882-4.318306,4.5526123-5.2806969c3.5642471-1.6323032,6.1870117-0.5576096,7.4332047,0.2285137
	c0.4712296,0.2973595,0.9097443,0.6479397,1.3145599,1.0522327c2.0055313-2.3315144,4.7088699-3.6620655,7.6817627-3.6825733
	c0.0224686,0,0.0449295,0,0.0664139,0c4.1057968,0,7.8531647,2.6127625,9.7937469,6.8324375
	c1.8321762,3.9887218,1.0684509,8.4422779-0.4492493,11.9192867c2.3497925,2.4501648,3.4475403,6.306076,2.2902222,9.370491
	c-0.183609,0.4853477-0.458046,0.9257698-0.8037796,1.3002777c1.8487778,4.3085403,5.1058731,8.8231354,8.0475159,12.9007225
	c2.0568085,2.8515244,3.9993439,5.5448532,5.3012085,7.9574203c0.2754059,0.5126877,0.8330688,1.3827972,1.4229584,2.3036804
	c3.288353,5.1312866,8.7917175,13.7195663,5.7279968,20.4313965c-1.9630432,4.3056107-4.5550461,10.4002609-5.72995,13.1814804
	l0.0185623,0.3124924C112.2056885,110.8863449,112.2242432,111.2232513,114.7146759,112.3501892z M71.7610626,46.5614433
	c0.5679169,0.4448204,1.0669785,0.8950081,1.5323486,1.3144379c0.3784485,0.3413048,0.7637329,0.6918869,1.1841736,1.026844
	c3.0754395,2.4701843,6.7256393,0.8325081,8.1515274,0.0141563c0.619194-0.3481369,1.1670914-0.6977425,1.6866608-1.0268402
	c1.1954041-0.7582932,2.4318314-1.5419731,3.8303833-1.9867935c0.420929-0.1313438,0.9024124-0.2626915,1.4219894-0.3500938
	c-0.8779984-0.3637657-1.5723953-0.6010666-2.2462769-0.8310432c-1.1934509-0.4072227-2.3204956-0.7919846-3.6399384-1.6474419
	c-1.6114502-1.0283089-3.0500412-1.5571098-4.2537537-1.5571098c-1.5323486,0-2.5959091,0.9037971-3.8269653,2.0849342
	l-0.3076401,0.2924805c-0.2656479,0.2612267-0.4414444,0.3935471-2.4860382,1.8959694L71.7610626,46.5614433z
	 M84.2454529,34.4380569c1.2403336,0.462883,2.4972687,1.1000824,3.7649536,1.9086685
	c0.1943512,0.1259727,0.3769836,0.2255821,0.5869598,0.3203087c0.6680222-1.7075005,0.9737091-3.659626,0.3564682-5.0028706
	c-0.6260223-1.3617992-1.5684814-2.1733131-2.5236359-2.1733131c-0.0039063,0-0.0078125,0-0.0117188,0
	c-0.9258575,0.0063477-1.8419418,0.8154202-2.4591827,2.1684303C83.8547974,32.1919899,84.0520782,33.428791,84.2454529,34.4380569z
	 M73.2558136,31.1739349c-0.4844208,0.4038048-0.8330765,2.2035866-0.5933151,4.4813919
	c0.4585342-0.3115196,0.9624786-0.6152267,1.5128174-0.8911018C73.9458084,32.929287,73.5590591,31.7476597,73.2558136,31.1739349z"
	/>
</svg>
