<?xml version="1.0" encoding="utf-8"?>
<!-- Generator: Adobe Illustrator 23.0.0, SVG Export Plug-In . SVG Version: 6.00 Build 0)  -->
<svg version="1.1" id="icon-list" xmlns="http://www.w3.org/2000/svg" xmlns:xlink="http://www.w3.org/1999/xlink" x="0px" y="0px"
	 viewBox="0 0 160 160" style="enable-background:new 0 0 160 160;" xml:space="preserve">
<path d="M149.6201172,160H74.4765625c-5.7236328,0-10.3803711-4.7519531-10.3803711-10.5927734v-21.9755859
	c0-5.8408203,4.6567383-10.5927734,10.3803711-10.5927734h75.1435547C155.34375,116.8388672,160,121.5908203,160,127.4316406
	v21.9755859C160,155.2480469,155.34375,160,149.6201172,160z M74.4765625,124.8388672
	c-1.3125,0-2.3803711,1.1630859-2.3803711,2.5927734v21.9755859c0,1.4296875,1.0678711,2.5927734,2.3803711,2.5927734h75.1435547
	C150.9326172,152,152,150.8369141,152,149.4072266v-21.9755859c0-1.4296875-1.0673828-2.5927734-2.3798828-2.5927734H74.4765625z
	 M41.2978516,160H11.1420898C4.9985352,160,0,155.2480469,0,149.4072266v-21.9755859
	c0-5.8408203,4.9985352-10.5927734,11.1420898-10.5927734h30.1557617c6.1435547,0,11.1420898,4.7519531,11.1420898,10.5927734
	v21.9755859C52.4399414,155.2480469,47.4414063,160,41.2978516,160z M11.1420898,124.8388672
	C9.409668,124.8388672,8,126.0019531,8,127.4316406v21.9755859C8,150.8369141,9.409668,152,11.1420898,152h30.1557617
	c1.7324219,0,3.1420898-1.1630859,3.1420898-2.5927734v-21.9755859c0-1.4296875-1.409668-2.5927734-3.1420898-2.5927734H11.1420898z
	 M149.6201172,101.5810547H74.4765625c-5.7236328,0-10.3803711-4.7519531-10.3803711-10.5927734V69.012207
	c0-5.8408203,4.6567383-10.5927734,10.3803711-10.5927734h75.1435547C155.34375,58.4194336,160,63.1713867,160,69.012207v21.9760742
	C160,96.8291016,155.34375,101.5810547,149.6201172,101.5810547z M74.4765625,66.4194336
	c-1.3125,0-2.3803711,1.1630859-2.3803711,2.5927734v21.9760742c0,1.4296875,1.0678711,2.5927734,2.3803711,2.5927734h75.1435547
	c1.3125,0,2.3798828-1.1630859,2.3798828-2.5927734V69.012207c0-1.4296875-1.0673828-2.5927734-2.3798828-2.5927734H74.4765625z
	 M41.2978516,101.5810547H11.1420898C4.9985352,101.5810547,0,96.8291016,0,90.9882813V69.012207
	c0-5.8408203,4.9985352-10.5927734,11.1420898-10.5927734h30.1557617c6.1435547,0,11.1420898,4.7519531,11.1420898,10.5927734
	v21.9760742C52.4399414,96.8291016,47.4414063,101.5810547,41.2978516,101.5810547z M11.1420898,66.4194336
	C9.409668,66.4194336,8,67.5825195,8,69.012207v21.9760742c0,1.4296875,1.409668,2.5927734,3.1420898,2.5927734h30.1557617
	c1.7324219,0,3.1420898-1.1630859,3.1420898-2.5927734V69.012207c0-1.4296875-1.409668-2.5927734-3.1420898-2.5927734H11.1420898z
	 M149.6201172,43.1616211H74.4765625c-5.7236328,0-10.3803711-4.7519531-10.3803711-10.5927734V10.5927734
	C64.0961914,4.7519531,68.7529297,0,74.4765625,0h75.1435547C155.34375,0,160,4.7519531,160,10.5927734v21.9760742
	C160,38.409668,155.34375,43.1616211,149.6201172,43.1616211z M74.4765625,8c-1.3125,0-2.3803711,1.1630859-2.3803711,2.5927734
	v21.9760742c0,1.4296875,1.0678711,2.5927734,2.3803711,2.5927734h75.1435547c1.3125,0,2.3798828-1.1630859,2.3798828-2.5927734
	V10.5927734C152,9.1630859,150.9326172,8,149.6201172,8H74.4765625z M41.2978516,43.1616211H11.1420898
	C4.9985352,43.1616211,0,38.409668,0,32.5688477V10.5927734C0,4.7519531,4.9985352,0,11.1420898,0h30.1557617
	c6.1435547,0,11.1420898,4.7519531,11.1420898,10.5927734v21.9760742
	C52.4399414,38.409668,47.4414063,43.1616211,41.2978516,43.1616211z M11.1420898,8C9.409668,8,8,9.1630859,8,10.5927734v21.9760742
	c0,1.4296875,1.409668,2.5927734,3.1420898,2.5927734h30.1557617c1.7324219,0,3.1420898-1.1630859,3.1420898-2.5927734V10.5927734
	C44.4399414,9.1630859,43.0302734,8,41.2978516,8H11.1420898z"/>
</svg>
