<?xml version="1.0" encoding="utf-8"?>
<!-- Generator: Adobe Illustrator 23.0.0, SVG Export Plug-In . SVG Version: 6.00 Build 0)  -->
<svg version="1.1" id="icon-loader" xmlns="http://www.w3.org/2000/svg" xmlns:xlink="http://www.w3.org/1999/xlink" x="0px"
	 y="0px" viewBox="0 0 160 160" style="enable-background:new 0 0 160 160;" xml:space="preserve">
<path d="M80,144.4097748c-30.6975746,0-57.2750549-21.8279877-63.1954346-51.9020386
	c-0.4267559-2.1669769,0.9848576-4.2704773,3.1523247-4.6972351c2.1630745-0.4208984,4.2699947,0.9843674,4.6972389,3.1523285
	C29.8376942,117.2966614,53.1144142,136.4098206,80,136.4098206c23.7586517,0,44.7028656-14.9305725,52.8287964-36.5779037
	l-20.3289871,11.009697c-1.9452972,1.0507813-4.3700867,0.3300781-5.422821-1.6122894
	c-1.0517502-1.9433517-0.3300705-4.3700943,1.6122971-5.422821l28.2146759-15.2801895
	c0.5107422-0.3740158,1.109375-0.6259689,1.7470703-0.7255783c1.5829926-0.2939453,3.2489929,0.3945313,4.1357117,1.8369064
	l16.6190491,27.0027695c1.1581879,1.8818283,0.5712891,4.3456802-1.3095703,5.5028992
	c-1.8818207,1.1581955-4.3456726,0.5703049-5.5028992-1.3095627l-11.8729706-19.2918777
	C131.7438354,126.8542175,107.526207,144.4097748,80,144.4097748z M139.2750397,72.3086395
	c-1.8740082,0-3.5468445-1.3232346-3.9208679-3.2314301C130.185257,42.7204323,106.9051132,23.5901718,80,23.5901718
	c-23.7669525,0-44.705307,14.9276466-52.8292847,36.5783997L47.500679,49.1583824
	c1.9428596-1.0522385,4.3700905-0.3305626,5.4218407,1.6122971c1.0522423,1.9423714,0.3305664,4.3700905-1.6122932,5.4218407
	L23.3074589,71.3584518c-0.8955021,0.7587814-2.1142464,1.1166916-3.3569145,0.8745041
	c-0.3022442-0.0595703-0.5898399-0.1513672-0.8598576-0.2714844c-0.7539024-0.3115234-1.4189377-0.8549728-1.8769417-1.5996017
	L0.5942121,43.3600769c-1.1581964-1.8813362-0.5717741-4.3451881,1.3095627-5.5028992
	c1.8832898-1.1577072,4.3456779-0.570797,5.5028977,1.3095627l11.8729773,19.2899284
	C28.2551842,33.142849,52.4654922,15.5902185,80,15.5902185c30.7205276,0,57.3014221,21.8470421,63.2037354,51.9479446
	c0.4257813,2.1674652-0.9873047,4.2695007-3.1552582,4.6947937
	C139.7887115,72.2837372,139.5299225,72.3086395,139.2750397,72.3086395z"/>
</svg>
