<?xml version="1.0" encoding="utf-8"?>
<!-- Generator: Adobe Illustrator 23.0.0, SVG Export Plug-In . SVG Version: 6.00 Build 0)  -->
<svg version="1.1" id="icon-lock" xmlns="http://www.w3.org/2000/svg" xmlns:xlink="http://www.w3.org/1999/xlink" x="0px" y="0px"
	 viewBox="0 0 160 160" style="enable-background:new 0 0 160 160;" xml:space="preserve">
<path d="M140.4101563,160H19.5898438c-2.2089844,0-4-1.7910156-4-4V69.3598633c0-2.2089844,1.7910156-4,4-4h8.2768555V51.6264648
	C27.8666992,23.159668,51.253418,0,80,0c13.7802734,0,26.7695313,5.3608398,36.5751953,15.0942383
	c9.7666016,9.6958008,15.2919922,22.6425781,15.5576172,36.4550781l0.0009766,13.8105469h8.2763672c2.2089844,0,4,1.7910156,4,4V156
	C144.4101563,158.2089844,142.6191406,160,140.4101563,160z M23.5898438,152h112.8203125V73.3598633H23.5898438V152z
	 M35.8666992,65.3598633h88.2670898V51.6264648C123.6708984,27.6054688,103.8720703,8,80,8
	C55.6650391,8,35.8666992,27.5708008,35.8666992,51.6264648V65.3598633z M86.0800781,138.2128906H73.9199219
	c-2.2089844,0-4-1.7910156-4-4v-17.1943359c-4.1611328-3.3398438-6.5864258-8.1357422-6.5864258-13.2050781
	c0-9.3457031,7.3208008-16.6669922,16.6665039-16.6669922s16.6669922,7.3212891,16.6669922,16.6669922
	c0,5.1865234-2.4746094,10.0849609-6.5869141,13.2724609v17.1269531
	C90.0800781,136.421875,88.2890625,138.2128906,86.0800781,138.2128906z M77.9199219,130.2128906h4.1601563v-15.2529297
	c0-1.4355469,0.7695313-2.7607422,2.015625-3.4726563c2.2099609-1.2626953,4.5712891-3.9414063,4.5712891-7.6738281
	c0-4.8603516-3.8066406-8.6669922-8.6669922-8.6669922c-4.8598633,0-8.6665039,3.8066406-8.6665039,8.6669922
	c0,3.0585938,1.715332,5.8847656,4.706543,7.7548828c1.1694336,0.7304688,1.8798828,2.0126953,1.8798828,3.3916016V130.2128906z"/>
</svg>
