<?xml version="1.0" encoding="utf-8"?>
<!-- Generator: Adobe Illustrator 23.0.0, SVG Export Plug-In . SVG Version: 6.00 Build 0)  -->
<svg version="1.1" id="icon-maximize" xmlns="http://www.w3.org/2000/svg" xmlns:xlink="http://www.w3.org/1999/xlink" x="0px"
	 y="0px" viewBox="0 0 160 160" style="enable-background:new 0 0 160 160;" xml:space="preserve">
<path d="M156,160h-40c-2.2089844,0-4-1.7910156-4-4s1.7910156-4,4-4h30.3427734L87.171875,92.828125
	c-1.5625-1.5615234-1.5625-4.0947266,0-5.65625c1.5605469-1.5625,4.0957031-1.5625,5.65625,0L152,146.3427734V116
	c0-2.2089844,1.7910156-4,4-4s4,1.7910156,4,4v40C160,158.2089844,158.2089844,160,156,160z M70,74
	c-1.0239258,0-2.0473633-0.390625-2.8286133-1.1713867L8,13.6567383V44c0,2.2089844-1.7910156,4-4,4s-4-1.7910156-4-4V4
	c0-2.2089844,1.7910156-4,4-4h40c2.2089844,0,4,1.7910156,4,4s-1.7910156,4-4,4H13.6567383l59.171875,59.1713867
	c1.5620117,1.5625,1.5620117,4.0947266,0,5.6572266C72.0473633,73.609375,71.0239258,74,70,74z"/>
</svg>
