<?xml version="1.0" encoding="utf-8"?>
<!-- Generator: Adobe Illustrator 18.0.0, SVG Export Plug-In . SVG Version: 6.00 Build 0)  -->
<!DOCTYPE svg PUBLIC "-//W3C//DTD SVG 1.1//EN" "http://www.w3.org/Graphics/SVG/1.1/DTD/svg11.dtd">
<svg version="1.1" id="icon-message" xmlns="http://www.w3.org/2000/svg" xmlns:xlink="http://www.w3.org/1999/xlink" x="0px"
	 y="0px" viewBox="0 0 160 160" style="enable-background:new 0 0 160 160;" xml:space="preserve">
<path d="M141,160H19c-10.4765625,0-19-8.5234375-19-19V19C0,8.5234375,8.5234375,0,19,0h122c10.4765625,0,19,8.5234375,19,19v122
	C160,151.4765625,151.4765625,160,141,160z M8,132v9c0,6.0654297,4.9345703,11,11,11h122c6.0654297,0,11-4.9345703,11-11v-9H8z
	 M8,124h144V19c0-6.0654297-4.9345703-11-11-11H19C12.9345703,8,8,12.9345703,8,19V124z M96,146H64c-2.2089844,0-4-1.7910156-4-4
	s1.7910156-4,4-4h32c2.2089844,0,4,1.7910156,4,4S98.2089844,146,96,146z M33.9990234,108
	c-0.5522461,0-1.1083984-0.1142578-1.6318359-0.3486328C30.9272461,107.0078125,30,105.5771484,30,104V28
	c0-2.2089844,1.7910156-4,4-4h92c2.2089844,0,4,1.7910156,4,4v54.2861328c0,2.2089844-1.7910156,4-4,4H59.8056641
	l-23.1391602,20.6953125C35.918457,107.6503906,34.9648438,108,33.9990234,108z M38,32v63.0556641l17.6113281-15.7509766
	c0.7333984-0.6557617,1.6826172-1.0185547,2.6665039-1.0185547H122V32H38z M108,68H52c-2.2089844,0-4-1.7910156-4-4s1.7910156-4,4-4
	h56c2.2089844,0,4,1.7910156,4,4S110.2089844,68,108,68z M84,50H52c-2.2089844,0-4-1.7910156-4-4s1.7910156-4,4-4h32
	c2.2089844,0,4,1.7910156,4,4S86.2089844,50,84,50z"/>
</svg>
