<?xml version="1.0" encoding="utf-8"?>
<!-- Generator: Adobe Illustrator 23.0.0, SVG Export Plug-In . SVG Version: 6.00 Build 0)  -->
<svg version="1.1" id="icon-minimize" xmlns="http://www.w3.org/2000/svg" xmlns:xlink="http://www.w3.org/1999/xlink" x="0px"
	 y="0px" viewBox="0 0 160 160" style="enable-background:new 0 0 160 160;" xml:space="preserve">
<path d="M156,160c-1.0234375,0-2.0478516-0.390625-2.828125-1.171875L94,99.6572266V130c0,2.2089844-1.7910156,4-4,4
	s-4-1.7910156-4-4V90c0-2.2089844,1.7910156-4,4-4h40c2.2089844,0,4,1.7910156,4,4s-1.7910156,4-4,4H99.6572266
	l59.1708984,59.171875c1.5625,1.5615234,1.5625,4.0947266,0,5.65625C158.0478516,159.609375,157.0234375,160,156,160z M70,74H30
	c-2.2089844,0-4-1.7910156-4-4s1.7910156-4,4-4h30.3432617L1.1713867,6.8286133c-1.5620117-1.5625-1.5620117-4.0947266,0-5.6572266
	c1.5625-1.5615234,4.0947266-1.5615234,5.6572266,0L66,60.3432617V30c0-2.2089844,1.7910156-4,4-4s4,1.7910156,4,4v40
	C74,72.2089844,72.2089844,74,70,74z"/>
</svg>
