<?xml version="1.0" encoding="utf-8"?>
<!-- Generator: Adobe Illustrator 18.0.0, SVG Export Plug-In . SVG Version: 6.00 Build 0)  -->
<!DOCTYPE svg PUBLIC "-//W3C//DTD SVG 1.1//EN" "http://www.w3.org/Graphics/SVG/1.1/DTD/svg11.dtd">
<svg version="1.1" id="icon-mobile" xmlns="http://www.w3.org/2000/svg" xmlns:xlink="http://www.w3.org/1999/xlink" x="0px"
	 y="0px" viewBox="0 0 160 160" style="enable-background:new 0 0 160 160;" xml:space="preserve">
<path d="M141,160H19c-10.4765625,0-19-8.5234375-19-19V19C0,8.5234375,8.5234375,0,19,0h122c10.4765625,0,19,8.5234375,19,19v122
	C160,151.4765625,151.4765625,160,141,160z M8,120v21c0,6.0654297,4.9345703,11,11,11h122c6.0654297,0,11-4.9345703,11-11v-21H8z
	 M8,112h144V19c0-6.0654297-4.9345703-11-11-11H19C12.9345703,8,8,12.9345703,8,19V112z M80,144c-4.4111328,0-8-3.5888672-8-8
	s3.5888672-8,8-8s8,3.5888672,8,8S84.4111328,144,80,144z"/>
</svg>
