<?xml version="1.0" encoding="utf-8"?>
<!-- Generator: Adobe Illustrator 18.0.0, SVG Export Plug-In . SVG Version: 6.00 Build 0)  -->
<!DOCTYPE svg PUBLIC "-//W3C//DTD SVG 1.1//EN" "http://www.w3.org/Graphics/SVG/1.1/DTD/svg11.dtd">
<svg version="1.1" id="icon-note" xmlns="http://www.w3.org/2000/svg" xmlns:xlink="http://www.w3.org/1999/xlink" x="0px" y="0px"
	 viewBox="0 0 160 160" style="enable-background:new 0 0 160 160;" xml:space="preserve">
<path d="M141,160H19c-10.4765625,0-19-8.5234375-19-19V19C0,8.5234375,8.5234375,0,19,0h122c10.4765625,0,19,8.5234375,19,19v122
	C160,151.4765625,151.4765625,160,141,160z M8,44v97c0,6.0654297,4.9345703,11,11,11h122c6.0654297,0,11-4.9345703,11-11V44h-20v5
	c0,2.2089844-1.7910156,4-4,4s-4-1.7910156-4-4v-5h-16v5c0,2.2089844-1.7910156,4-4,4s-4-1.7910156-4-4v-5H84v5
	c0,2.2089844-1.7910156,4-4,4s-4-1.7910156-4-4v-5H60v5c0,2.2089844-1.7910156,4-4,4s-4-1.7910156-4-4v-5H36v5
	c0,2.2089844-1.7910156,4-4,4s-4-1.7910156-4-4v-5H8z M132,36h20V19c0-6.0654297-4.9345703-11-11-11H19
	C12.9345703,8,8,12.9345703,8,19v17h20v-5c0-2.2089844,1.7910156-4,4-4s4,1.7910156,4,4v5h16v-5c0-2.2089844,1.7910156-4,4-4
	s4,1.7910156,4,4v5h16v-5c0-2.2089844,1.7910156-4,4-4s4,1.7910156,4,4v5h16v-5c0-2.2089844,1.7910156-4,4-4s4,1.7910156,4,4v5h16
	v-5c0-2.2089844,1.7910156-4,4-4s4,1.7910156,4,4V36z M124,132H36c-2.2089844,0-4-1.7910156-4-4s1.7910156-4,4-4h88
	c2.2089844,0,4,1.7910156,4,4S126.2089844,132,124,132z M124,106H36c-2.2089844,0-4-1.7910156-4-4s1.7910156-4,4-4h88
	c2.2089844,0,4,1.7910156,4,4S126.2089844,106,124,106z M124,80H36c-2.2089844,0-4-1.7910156-4-4s1.7910156-4,4-4h88
	c2.2089844,0,4,1.7910156,4,4S126.2089844,80,124,80z"/>
</svg>
