<?xml version="1.0" encoding="utf-8"?>
<!-- Generator: Adobe Illustrator 23.0.0, SVG Export Plug-In . SVG Version: 6.00 Build 0)  -->
<svg version="1.1" id="icon-pause" xmlns="http://www.w3.org/2000/svg" xmlns:xlink="http://www.w3.org/1999/xlink" x="0px" y="0px"
	 viewBox="0 0 160 160" style="enable-background:new 0 0 160 160;" xml:space="preserve">
<path d="M139.4355469,160h-38.9736328c-2.2089844,0-4-1.7910156-4-4V4c0-2.2089844,1.7910156-4,4-4h38.9736328
	c2.2089844,0,4,1.7910156,4,4v152C143.4355469,158.2089844,141.6445313,160,139.4355469,160z M104.4619141,152h30.9736328V8
	h-30.9736328V152z M59.5385742,160H20.5639648c-2.2089844,0-4-1.7910156-4-4V4c0-2.2089844,1.7910156-4,4-4h38.9746094
	c2.2089844,0,4,1.7910156,4,4v152C63.5385742,158.2089844,61.7475586,160,59.5385742,160z M24.5639648,152h30.9746094V8H24.5639648
	V152z"/>
</svg>
