<?xml version="1.0" encoding="utf-8"?>
<!-- Generator: Adobe Illustrator 18.0.0, SVG Export Plug-In . SVG Version: 6.00 Build 0)  -->
<!DOCTYPE svg PUBLIC "-//W3C//DTD SVG 1.1//EN" "http://www.w3.org/Graphics/SVG/1.1/DTD/svg11.dtd">
<svg version="1.1" id="icon-pens" xmlns="http://www.w3.org/2000/svg" xmlns:xlink="http://www.w3.org/1999/xlink" x="0px" y="0px"
	 viewBox="0 0 160 160" style="enable-background:new 0 0 160 160;" xml:space="preserve">
<path d="M6.7127643,159.9950256c-1.5609756,0-3.5838475-0.5634766-4.9485416-1.9882965
	c-1.814872-1.8926086-2.1371253-4.991272-1.3939896-6.7764435l18.1550674-42.1733246
	c0.2724495-0.7343826,0.678196-1.417984,1.1815948-1.9883041l0.378891-0.3886719l28.3167896-28.2136917l-2.3548927-1.9443588
	L6.181046,33.2006531c-6.1159768-6.6455803-5.9216485-16.8732319,0.4433427-23.283947L11.503108,5.009913
	c6.4216299-6.461009,16.719574-6.7100348,23.444416-0.5664124l43.7356339,39.9501495l1.7445602,2.1640854l41.5667648-41.4154968
	c6.5856857-6.5855217,17.3186722-6.5879631,23.9199905,0.0024414l9.1344147,9.1001987
	c3.1893311,3.1777687,4.9460907,7.413168,4.9490204,11.9259129c0.0019531,4.5171394-1.7548065,8.7593727-4.9460907,11.9449577
	l-45.1613617,44.99757l1.8886032,2.3476791L121.94664,99.1193542c0.2363205,0.3173828,0.7255554,0.9755936,1.1337433,2.6699524
	c2.2206192,0.0419922,4.852356,0.2773438,6.6364594,1.0380936l2.4129944,1.0341949
	c12.1020813,5.1641159,20.6203156,15.9786911,22.7833099,28.9251175l3.1883545,19.052948
	c0.4472504,2.6445618-0.8632507,5.2520142-3.2635498,6.4815216c-2.3836975,1.1953278-5.2898254,0.7148438-7.1383972-1.1074371
	l-9.1480865-9.1192474c-3.411972-3.4004211-8.2926483-5.019577-13.0512543-4.3350067
	c-9.1451569,1.3037262-17.8684616-4.4121552-20.3019562-13.2940826l-1.0771103-3.9356003
	c-0.4013519-1.464859-0.513649-3.6641006-0.5195084-5.5889282c-0.8905945-0.1787109-1.727478-0.5546875-2.4637756-1.1103592
	L87.340538,109.6302109l-2.2538223-1.8037338l-32.0168381,31.9007416c-0.1225548,0.1230469-0.2968636,0.2978516-0.5346489,0.4834137
	c-0.0078125,0.0068359-0.0156212,0.0126953-0.0234337,0.0195313c-0.3286018,0.3027344-0.8061218,0.6738281-1.3856926,0.9277344
	h0.0004883L8.1316547,159.8016663C7.7469044,159.9266663,7.2581534,159.9950256,6.7127643,159.9950256z M23.9704056,116.6400528
	l-14.603446,33.9232254l33.8287849-14.6837616L23.9704056,116.6400528z M127.6505203,135.6051025
	c6.1384354,0,12.146019,2.4375305,16.5472183,6.8223419l5.0623016,5.0459595l-2.2372131-13.3673401
	c-1.7108765-10.2422943-8.4537811-18.7990341-18.0373993-22.8889236l-2.4120178-1.0332108
	c-0.7275085-0.3007889-3.2820969-0.4560623-5.7019272-0.3720779l-9.2379303,9.2061615
	c-0.0663986,2.1709213-0.0117188,4.6152802,0.2031174,5.3975143l1.0771103,3.9375458
	c1.3700638,5.0020142,6.2897949,8.2286072,11.4526901,7.487381
	C125.459198,135.6832275,126.5568161,135.6051025,127.6505203,135.6051025z M28.3667202,109.7220078l21.6939945,21.7101974
	l86.081665-85.7695007l-21.6935043-21.7092228L28.3667202,109.7220078z M105.4951172,113.1029053
	c0.1718674,0.0195313,0.3847504,0.0488281,0.6493912,0.0908203l9.225235-9.1934586
	c-0.03125-0.171875-0.0634766-0.3222733-0.0927734-0.443367l-9.8697357-13.2569809l-1.2157745-1.5088043l-13.4018326,13.352684
	l1.4891968,1.1923981L105.4951172,113.1029053z M51.7281303,70.8807602l2.3773537,1.9028549l20.6237183-20.5480804
	l-1.8915253-2.3467064L29.5522232,10.3503046c-3.5486927-3.242712-8.9850082-3.1103864-12.3759918,0.2998075l-4.8772554,4.9053278
	c-3.3411808,3.3652716-3.443716,8.737401-0.2314358,12.2276735L51.7281303,70.8807602z M120.115654,18.3069344
	l21.6944809,21.7092247l7.5924835-7.5650253c1.6737671-1.6709156,2.5965881-3.9009209,2.5956116-6.2769241
	c-0.0019531-2.3716087-0.922821-4.5957546-2.5956116-6.2622757l-9.1363678-9.1026402
	c-3.4852142-3.4785542-9.1451569-3.4805074-12.6206131-0.0048828L120.115654,18.3069344z"/>
</svg>
