<?xml version="1.0" encoding="utf-8"?>
<!-- Generator: Adobe Illustrator 18.0.0, SVG Export Plug-In . SVG Version: 6.00 Build 0)  -->
<!DOCTYPE svg PUBLIC "-//W3C//DTD SVG 1.1//EN" "http://www.w3.org/Graphics/SVG/1.1/DTD/svg11.dtd">
<svg version="1.1" id="icon-phone" xmlns="http://www.w3.org/2000/svg" xmlns:xlink="http://www.w3.org/1999/xlink" x="0px" y="0px"
	 viewBox="0 0 160 160" style="enable-background:new 0 0 160 160;" xml:space="preserve">
<path d="M146.8716125,160H12.7167206c-1.1091537,0-2.168025-0.4514923-2.9247093-1.2622375
	c-0.756197-0.8117065-1.1418629-1.8960571-1.0647297-3.0027618l2.7265072-39.1436462
	c0.023921-0.3409042,0.0912905-0.6767044,0.2006435-1.0009995l12.7250004-37.6900101
	c0.3119507-0.9240417,0.950983-1.7027435,1.7970066-2.1886978L43.8999557,65.52948
	C44.5057907,65.1812515,45.1926651,65,45.8917465,65H54V51.9934158C54,49.783905,55.7960205,48,58.0045624,48H70.614357
	c2.1919403,0,3.975769,1.7635345,3.9991989,3.9559517L74.7526855,65H86V51.9934158C86,49.783905,87.7896423,48,89.9981842,48
	h11.9976044C104.2043304,48,106,49.783905,106,51.9934158V65h9.947113c0.8269806,0,1.633461,0.2546616,2.3091049,0.7323151
	l13.8370895,9.7861252c0.6795502,0.4810715,1.1921387,1.1614609,1.466507,1.9482651l13.2912903,38.100647
	c0.1054382,0.3018265,0.1737976,0.614296,0.2050323,0.9317474l3.7961273,39.132309
	c0.1083679,1.1233063-0.261673,2.2311859-1.0193329,3.0663452S147.9993134,160,146.8716125,160z M17.0044403,152h125.4608154
	l-0.9705048-10H17.7010784L17.0044403,152z M18.2580967,134h122.4604416l-1.1638336-12h-22.5619049
	c-2.2085419,0-3.9991989-1.7904892-3.9991989-4s1.790657-4,3.9991989-4h20.8435059l-11.4059372-32.6913757L114.6758804,73
	h-12.6800919C99.7872467,73,98,71.2069702,98,68.9974594V56h-4v12.9974594C94,71.2069702,92.2067261,73,89.9981842,73H70.7959595
	c-2.1919479,0-3.975769-1.7635345-3.9992065-3.9559479L66.6576233,56H62v12.9974594C62,71.2069702,60.2131081,73,58.0045624,73
	H46.9584274l-15.4856815,8.8937225L20.6311569,114h21.3765984c2.2085419,0,3.9992027,1.7904892,3.9992027,4
	s-1.7906609,4-3.9992027,4H19.0943546L18.2580967,134z M79.7941666,124.0105438
	c-11.0256348,0-19.9960136-8.9738083-19.9960136-20.0047531S68.7685318,84.00103,79.7941666,84.00103
	c11.0261154,0,19.9960098,8.9738159,19.9960098,20.0047607S90.820282,124.0105438,79.7941666,124.0105438z M79.7941666,92.0029297
	c-6.615387,0-11.997612,5.3840942-11.997612,12.002861c0,6.6187592,5.382225,12.0028534,11.997612,12.0028534
	c6.6158676,0,11.9976044-5.3840942,11.9976044-12.0028534C91.7917709,97.3870239,86.4100342,92.0029297,79.7941666,92.0029297z
	 M155.9938049,62.0187492c-0.1933136,0-0.3885956-0.014164-0.5828857-0.0424919l-36.9980087-5.4519806
	C116.4504089,56.2351456,115,54.5501747,115,52.5658188V35.3224564c-22-5.1428242-45-5.1174278-70,0.0786324v17.8015976
	c0,2.0102463-1.4873352,3.7079124-3.4796143,3.9677429l-36.9854622,4.814621
	c-1.200444,0.1557999-2.4004819-0.2378502-3.2743311-1.0710564s-1.3244839-2.0170822-1.2263589-3.2214699l2.4338205-29.8606186
	c0.0175745-0.2178249,0.0533237-0.4336967,0.1065357-0.6461487c2.4008884-9.5979862,9.1247005-16.4902515,21.160387-21.6911964
	c0.2675247-0.115262,0.546793-0.2012196,0.8328686-0.2564087C60.9570732-1.737628,97.72612-1.7381164,133.8556366,5.2396178
	c0.223587,0.0429788,0.4422913,0.104517,0.6541748,0.1846142c11.7779236,4.4458814,19.2461548,11.7181187,22.1977234,21.6150036
	c0.0712738,0.2373619,0.1191101,0.4810715,0.1454773,0.7277126l3.118515,29.8347359
	c0.1279144,1.2292938-0.3182983,2.448822-1.2097168,3.3040085
	C158.0119629,61.6250992,157.0180206,62.0187492,155.9938049,62.0187492z M9.1788702,43.9055557l-0.7769356,9.5061646L37,49.6886673
	v-9.6888275L9.1788702,43.9055557z M123,49.1108932l28.4852295,4.1977768l-0.984024-9.4314423L123,40.0520973V49.1108932z
	 M10.4124928,28.8238411l-0.5628767,6.9078941l27.167923-3.8134079c0.1166725-1.7513924,1.3678894-3.2361221,3.0985031-3.6327
	c28.0188217-6.4136353,54.8918839-6.4063091,79.87323,0.0258846c1.6978989,0.4371166,2.9046936,1.9257507,2.9964752,3.6610279
	l26.6519012,3.7064495l-0.7000427-6.6944656c-2.2739716-7.2190018-7.8207092-12.4424133-16.9380341-15.95399
	c-34.8739014-6.6900682-70.359993-6.6959291-105.4901886-0.0166054
	C17.2124062,17.1062107,12.2265835,22.0038586,10.4124928,28.8238411z"/>
</svg>
