<?xml version="1.0" encoding="utf-8"?>
<!-- Generator: Adobe Illustrator 23.0.0, SVG Export Plug-In . SVG Version: 6.00 Build 0)  -->
<svg version="1.1" id="icon-photo" xmlns="http://www.w3.org/2000/svg" xmlns:xlink="http://www.w3.org/1999/xlink" x="0px" y="0px"
	 viewBox="0 0 160 160" style="enable-background:new 0 0 160 160;" xml:space="preserve">
<path d="M129.875,160h-99.75C23.9907227,160,19,155.0097656,19,148.875V11.125C19,4.9907227,23.9907227,0,30.125,0h70.6855469
	c2.9824219,0,5.7792969,1.1542969,7.875,3.2495117l29.0664063,29.0952148C139.8154297,34.4086914,141,37.2680664,141,40.1889648
	V148.875C141,155.0097656,136.0097656,160,129.875,160z M30.125,8C28.3725586,8,27,9.3725586,27,11.125v137.75
	c0,1.7519531,1.3725586,3.125,3.125,3.125h99.75c1.7519531,0,3.125-1.3730469,3.125-3.125V55.1347656H96.8808594
	c-6.0742188,0-11.015625-4.9414063-11.015625-11.015625V8H30.125z M93.8652344,8v36.1191406
	c0,1.6625977,1.3525391,3.015625,3.015625,3.015625H133v-6.9458008c0-0.8149414-0.3300781-1.6123047-0.90625-2.1884766
	L103.0273438,8.9052734C102.4443359,8.3217773,101.65625,8,100.8105469,8H93.8652344z M122,143.0097656H37.9599609
	l0.2006836-20.0683594l12.8857422-12.8847656c2.9160156-2.9189453,7.5507813-2.8564453,10.5507813,0.1425781L70.5,119.1025391
	l27.9033203-27.9023438c2.9472656-2.9472656,7.7441406-2.9482422,10.6933594-0.0009766L122,104.1025391V143.0097656z
	 M46.0400391,135.0097656H114v-27.5927734l-10.25-10.2509766L70.5,130.4169922l-14.25-14.2509766l-10.1225586,10.1230469
	L46.0400391,135.0097656z M56.4116211,100.2597656c-10.0629883,0-18.25-8.1865234-18.25-18.25
	c0-10.0629883,8.1870117-18.25,18.25-18.25s18.25,8.1870117,18.25,18.25
	C74.6616211,92.0732422,66.4746094,100.2597656,56.4116211,100.2597656z M56.4116211,71.7597656
	c-5.6518555,0-10.25,4.5981445-10.25,10.25c0,5.6523438,4.5981445,10.25,10.25,10.25s10.25-4.5976563,10.25-10.25
	C66.6616211,76.3579102,62.0634766,71.7597656,56.4116211,71.7597656z"/>
</svg>
