<?xml version="1.0" encoding="utf-8"?>
<!-- Generator: Adobe Illustrator 18.0.0, SVG Export Plug-In . SVG Version: 6.00 Build 0)  -->
<!DOCTYPE svg PUBLIC "-//W3C//DTD SVG 1.1//EN" "http://www.w3.org/Graphics/SVG/1.1/DTD/svg11.dtd">
<svg version="1.1" id="icon-picture" xmlns="http://www.w3.org/2000/svg" xmlns:xlink="http://www.w3.org/1999/xlink" x="0px"
	 y="0px" viewBox="0 0 160 160" style="enable-background:new 0 0 160 160;" xml:space="preserve">
<path d="M141,160H19c-10.4765625,0-19-8.5234375-19-19V19C0,8.5234375,8.5234375,0,19,0h122c10.4765625,0,19,8.5234375,19,19v122
	C160,151.4765625,151.4765625,160,141,160z M19,8C12.9345703,8,8,12.9345703,8,19v122c0,6.0654297,4.9345703,11,11,11h122
	c6.0654297,0,11-4.9345703,11-11V19c0-6.0654297-4.9345703-11-11-11H19z M136,140H24c-2.2089844,0-4-1.7910156-4-4V24
	c0-2.2089844,1.7910156-4,4-4h112c2.2089844,0,4,1.7910156,4,4v112C140,138.2089844,138.2089844,140,136,140z M28,132h104
	v-28.9707031l-0.0722656,0.0556641L108.90625,73.3481445l-28.2910156,36.4672852
	c-0.7685547,0.9902344-1.9731445,1.5693359-3.2124023,1.5478516c-1.2543945-0.0166016-2.4282227-0.6201172-3.1713867-1.6308594
	l-13.15625-17.8994141L28,118.5546875V132z M28,28v80.2695313l31.3046875-25.2900391
	c0.8496094-0.6875,1.9443359-0.9990234,3.0268555-0.8554688c1.0834961,0.1396484,2.0625,0.7177734,2.7099609,1.5976563
	l12.4990234,17.0048828l28.2084961-36.3598633c0.7578125-0.9770508,1.9238281-1.5483398,3.1601563-1.5483398
	c0.0009766,0,0.0009766,0,0.0019531,0c1.2373047,0.0004883,2.4033203,0.5732422,3.1611328,1.5512695L132,90.1103516V28H28z
	 M59.2729492,68.9091797c-7.7197266,0-14-6.2802734-14-14s6.2802734-14,14-14s14,6.2802734,14,14
	S66.9926758,68.9091797,59.2729492,68.9091797z M59.2729492,48.9091797c-3.3085938,0-6,2.6914063-6,6s2.6914063,6,6,6
	s6-2.6914063,6-6S62.581543,48.9091797,59.2729492,48.9091797z"/>
</svg>
