<?xml version="1.0" encoding="utf-8"?>
<!-- Generator: Adobe Illustrator 23.0.0, SVG Export Plug-In . SVG Version: 6.00 Build 0)  -->
<svg version="1.1" id="icon-pin" xmlns="http://www.w3.org/2000/svg" xmlns:xlink="http://www.w3.org/1999/xlink" x="0px" y="0px"
	 viewBox="0 0 160 160" style="enable-background:new 0 0 160 160;" xml:space="preserve">
<path d="M80,160c-1.3491211,0-2.6074219-0.6796875-3.3466797-1.8085938L30.546875,87.7646484
	c-0.0488281-0.0751953-0.0957031-0.1523438-0.1396484-0.2304688c-5.3081055-9.4360352-8.1137695-19.7504883-8.1137695-29.8276367
	C22.293457,25.887207,48.1806641,0,80,0s57.7070313,25.887207,57.7070313,57.706543
	c0,10.3100586-2.9326172,20.2285156-8.7158203,29.4799805c-0.0087891,0.0146484-0.0175781,0.0283203-0.0273438,0.0429688
	l-45.5996094,70.9335938c-0.7324219,1.1396484-1.9921875,1.8310547-3.3476563,1.8369141C80.0112305,160,80.0053711,160,80,160z
	 M37.3149414,83.4960938l42.6542969,65.1542969l42.2514648-65.7246094
	c4.9677734-7.9550781,7.4863281-16.4394531,7.4863281-25.2192383C129.7070313,30.2983398,107.4082031,8,80,8
	S30.293457,30.2983398,30.293457,57.706543C30.293457,66.3720703,32.7211914,75.2871094,37.3149414,83.4960938z
	 M125.5996094,85.0664063h0.0097656H125.5996094z M80,84c-14.7773438,0-26.7998047-12.0224609-26.7998047-26.7998047
	c0-14.777832,12.0224609-26.800293,26.7998047-26.800293s26.7998047,12.0224609,26.7998047,26.800293
	C106.7998047,71.9775391,94.7773438,84,80,84z M80,38.3999023c-10.3662109,0-18.7998047,8.4335938-18.7998047,18.800293
	C61.2001953,67.5664063,69.6337891,76,80,76s18.7998047-8.4335938,18.7998047-18.7998047
	C98.7998047,46.8334961,90.3662109,38.3999023,80,38.3999023z"/>
</svg>
