<?xml version="1.0" encoding="utf-8"?>
<!-- Generator: Adobe Illustrator 18.0.0, SVG Export Plug-In . SVG Version: 6.00 Build 0)  -->
<!DOCTYPE svg PUBLIC "-//W3C//DTD SVG 1.1//EN" "http://www.w3.org/Graphics/SVG/1.1/DTD/svg11.dtd">
<svg version="1.1" id="icon-private" xmlns="http://www.w3.org/2000/svg" xmlns:xlink="http://www.w3.org/1999/xlink" x="0px"
	 y="0px" viewBox="0 0 160 160" style="enable-background:new 0 0 160 160;" xml:space="preserve">
<path d="M12.0859375,159.9996338c-0.1762695,0-0.3535156-0.0029297-0.5327148-0.0068359
	C4.6430664,159.8306885,0,156.545578,0,151.8181305V38.9796944c0-4.0087204,2.5615234-7.480341,6.3745117-8.6390133
	l10.4624023-3.1810989l1.3076172-12.0281172c0.4228516-3.8842115,3.2583008-7.0379667,7.0556641-7.8475232l33.2382813-7.0863066
	c3.8134766-0.8129746,7.6865234,0.9257656,9.6313477,4.328052l5.3925781,9.4324579l49.456543-11.4163113
	c0.9931641-0.2524371,4.2626953-1.0805482,6.8535156,0.937484c2.6054688,2.0277977,2.6054688,5.3280349,2.6054688,7.5115924
	l0.0263672,8.0926371l12.3515625-2.8012218c4.2626953-1.1049623,8.5-0.4614191,11.34375,1.72995
	C157.8789063,19.3828583,160,22.0107441,160,26.7465038c0,0.0815411-0.0029297,0.1625957-0.0078125,0.2436485l-5.5996094,91.7259903
	c-0.1035156,1.7089615-1.2851563,3.162056-2.9365234,3.6141968L19.3549805,158.4732819
	C17.4135742,159.4527588,14.934082,159.9996338,12.0859375,159.9996338z M8,151.2126617
	c0.6396484,0.3535156,2.1376953,0.8300629,4.1689453,0.785141c1.9829102-0.0195313,3.269043-0.4775238,3.7578125-0.7812347
	l6.2021484-94.844101c0.105957-6.6331863,3.5517578-11.6335907,9.9697266-14.4650879
	c0.2353516-0.1035118,0.4794922-0.1845665,0.7299805-0.2412033l91.5805664-20.7691822l-0.03125-9.8933878
	c0-0.2123995-0.0009766-0.4081964-0.0039063-0.5883694L72.3652344,22.4218693
	c-1.7211914,0.3979435-3.4970703-0.3803635-4.3725586-1.912077L61.1245117,8.4963236
	c-0.2109375-0.3686466-0.6186523-0.5639553-1.0175781-0.4746017l-33.2387695,7.0863066
	c-0.4125977,0.0878887-0.722168,0.4448166-0.7705078,0.8881683l-1.5932617,14.6540489
	c-0.1733398,1.5927467-1.2802734,2.9286613-2.8129883,3.3949623L8.7011719,37.9948502
	C8.2880859,38.1203346,8,38.5251122,8,38.9796944V151.2126617z M34.9956055,49.3779564
	c-3.3735352,1.5800514-4.8339844,3.7484741-4.8686523,7.1922646c-0.0009766,0.0737267-0.0039063,0.1469688-0.0083008,0.2206993
	l-6.0224609,92.0917053l122.4858398-33.5131073l5.4169922-88.7323914c-0.015625-1.130352-0.2783203-1.8998699-0.78125-2.2870712
	c-0.8535156-0.6581917-2.7001953-0.7880726-4.4931641-0.3134708c-0.0449219,0.0117188-0.0898438,0.0229492-0.1357422,0.0332031
	L34.9956055,49.3779564z M84.9716797,111.9359818c-7.5351563,0-14.0864258-2.9560013-18.4472656-8.3230972
	c-4.4790039-5.5126038-6.0556641-12.8034973-4.4394531-20.527977c3.1391602-15.004631,17.9174805-27.2119408,32.9433594-27.2119408
	c7.5361328,0,14.0869141,2.9560051,18.4482422,8.323101c4.4785156,5.513092,6.0546875,12.803009,4.4384766,20.5274887
	C114.7753906,99.7281799,99.9970703,111.9359818,84.9716797,111.9359818z M71.7207031,79.3857498
	c-0.8056641,1.7040787-1.4194336,3.4931107-1.8056641,5.3378067c-1.1132813,5.3202209-0.1123047,10.2381058,2.8188477,13.8454666
	c2.8120117,3.4608765,7.1582031,5.3670959,12.237793,5.3670959c7.9091797,0,15.734375-4.4696503,20.6074219-11.0281372
	L71.7207031,79.3857498z M76.3208008,72.6085205l33.0219727,13.1882553
	c0.3007813-0.8876801,0.5498047-1.7929382,0.7421875-2.7118683c1.1132813-5.3207092,0.1123047-10.2371292-2.8183594-13.8444901
	c-2.8115234-3.4613724-7.1582031-5.367588-12.2382813-5.367588C88.0791016,63.8728294,81.1943359,67.3234558,76.3208008,72.6085205z
	"/>
</svg>
