<?xml version="1.0" encoding="utf-8"?>
<!-- Generator: Adobe Illustrator 24.0.0, SVG Export Plug-In . SVG Version: 6.00 Build 0)  -->
<svg version="1.1" id="icon-profile" xmlns="http://www.w3.org/2000/svg" xmlns:xlink="http://www.w3.org/1999/xlink" x="0px"
	 y="0px" viewBox="0 0 160 160" style="enable-background:new 0 0 160 160;" xml:space="preserve">
<path d="M141,160H19c-10.4765625,0-19-8.5234375-19-19V19C0,8.5234375,8.5234375,0,19,0h122c10.4765625,0,19,8.5234375,19,19v35
	c0,2.2089844-1.7910156,4-4,4s-4-1.7910156-4-4V19c0-6.0654297-4.9345703-11-11-11H19C12.9345703,8,8,12.9345703,8,19v122
	c0,6.0654297,4.9345703,11,11,11h122c6.0654297,0,11-4.9345703,11-11V78c0-2.2089844,1.7910156-4,4-4s4,1.7910156,4,4v63
	C160,151.4765625,151.4765625,160,141,160z M136,142H84c-2.2089844,0-4-1.7910156-4-4s1.7910156-4,4-4h52
	c2.2089844,0,4,1.7910156,4,4S138.2089844,142,136,142z M60,142H24c-2.2089844,0-4-1.7910156-4-4v-17c0-2.2089844,1.7910156-4,4-4
	h15.8901367c2.2089844,0,4,1.7910156,4,4s-1.7910156,4-4,4H28v9h28v-9h-3.7895508c-2.2089844,0-4-1.7910156-4-4s1.7910156-4,4-4H60
	c2.2089844,0,4,1.7910156,4,4v17C64,140.2089844,62.2089844,142,60,142z M136,125h-32c-2.2089844,0-4-1.7910156-4-4s1.7910156-4,4-4
	h32c2.2089844,0,4,1.7910156,4,4S138.2089844,125,136,125z M121,106H39c-10.4765625,0-19-8.5234375-19-19v-9
	c0-2.2089844,1.7910156-4,4-4s4,1.7910156,4,4v9c0,6.0654297,4.9345703,11,11,11h9.284668
	c-0.0488281-0.3662109-0.0742188-0.7402344-0.0742188-1.1181641v-2.7285156c0-9.7353516,8.9228516-17.0761719,20.7553711-17.0761719
	c3.0541992,0,5.0800781,1.746582,6.7084961,3.1499023C77.2915039,81.6210938,78.2900391,82.4101563,80,82.4101563
	c1.7128906,0,2.7138672-0.7900391,4.3359375-2.1875c1.6269531-1.4013672,3.6523438-3.1455078,6.6982422-3.1455078
	c11.8320313,0,20.7548828,7.3408203,20.7548828,17.0761719v2.7285156c0,0.3779297-0.0253906,0.7519531-0.0742188,1.1181641H121
	c6.0654297,0,11-4.9345703,11-11V37c0-6.0654297-4.9345703-11-11-11H39c-6.0654297,0-11,4.9345703-11,11v17
	c0,2.2089844-1.7910156,4-4,4s-4-1.7910156-4-4V37c0-10.4765625,8.5234375-19,19-19h82c10.4765625,0,19,8.5234375,19,19v50
	C140,97.4765625,131.4765625,106,121,106z M58.1655273,98h43.6694336c1.1748047,0,1.9541016-0.6728516,1.9541016-1.1181641
	v-2.7285156c0-5.9335938-6.3613281-9.0498047-12.6738281-9.0761719c-0.3251953,0.1445313-1.0625,0.7802734-1.5585938,1.2070313
	C87.6494141,87.9267578,84.7666016,90.4101563,80,90.4101563c-4.7651367,0-7.644043-2.4814453-9.5488281-4.1240234
	c-0.4975586-0.4277344-1.237793-1.0664063-1.5625-1.2089844c-6.3134766,0.0253906-12.6782227,3.1416016-12.6782227,9.0761719
	v2.7285156C56.2104492,97.3271484,56.9902344,98,58.1655273,98z M80,77.7294922
	c-12.0561523,0-21.8647461-9.8085938-21.8647461-21.8647461S67.9438477,34,80,34
	c12.0556641,0,21.8642578,9.8085938,21.8642578,21.8647461S92.0556641,77.7294922,80,77.7294922z M80,42
	c-7.6450195,0-13.8647461,6.2197266-13.8647461,13.8647461S72.3549805,69.7294922,80,69.7294922
	c7.6445313,0,13.8642578-6.2197266,13.8642578-13.8647461S87.6445313,42,80,42z"/>
</svg>
