<?xml version="1.0" encoding="utf-8"?>
<!-- Generator: Adobe Illustrator 23.0.0, SVG Export Plug-In . SVG Version: 6.00 Build 0)  -->
<svg version="1.1" id="icon-programming" xmlns="http://www.w3.org/2000/svg" xmlns:xlink="http://www.w3.org/1999/xlink" x="0px"
	 y="0px" viewBox="0 0 160 160" style="enable-background:new 0 0 160 160;" xml:space="preserve">
<path d="M156,160H4c-2.2089844,0-4-1.7910156-4-4V4c0-2.2089844,1.7910156-4,4-4h152c2.2089844,0,4,1.7910156,4,4v152
	C160,158.2089844,158.2089844,160,156,160z M8,152h144V52H8V152z M8,44h144V8H8V44z M32,129.5
	c-1.0239258,0-2.0473633-0.390625-2.8286133-1.171875c-1.5620117-1.5615234-1.5620117-4.0947266,0-5.65625L49.8432617,102
	l-20.671875-20.671875c-1.5620117-1.5620117-1.5620117-4.0942383,0-5.6567383c1.5625-1.5615234,4.0947266-1.5615234,5.6572266,0
	l23.5,23.5004883c1.5620117,1.5615234,1.5620117,4.0947266,0,5.65625l-23.5,23.5C34.0473633,129.109375,33.0239258,129.5,32,129.5z
	 M106,129.5H78c-2.2089844,0-4-1.7910156-4-4s1.7910156-4,4-4h28c2.2089844,0,4,1.7910156,4,4S108.2089844,129.5,106,129.5z M56,34
	c-4.4111328,0-8-3.5888672-8-8s3.5888672-8,8-8s8,3.5888672,8,8S60.4111328,34,56,34z M32,34c-4.4111328,0-8-3.5888672-8-8
	s3.5888672-8,8-8s8,3.5888672,8,8S36.4111328,34,32,34z"/>
</svg>
