<?xml version="1.0" encoding="utf-8"?>
<!-- Generator: Adobe Illustrator 23.0.0, SVG Export Plug-In . SVG Version: 6.00 Build 0)  -->
<svg version="1.1" id="icon-qq" xmlns="http://www.w3.org/2000/svg" xmlns:xlink="http://www.w3.org/1999/xlink" x="0px" y="0px"
	 viewBox="0 0 160 160" style="enable-background:new 0 0 160 160;" xml:space="preserve">
<path d="M110.9104309,159.9996643c-0.9156494,0-1.8518219-0.0146484-2.809494-0.0439453l-0.1807861-0.0097656
	c-2.0687637-0.15625-19.3938293-1.6875-27.1490173-9.5654297h-1.5415573
	c-7.7542038,7.8779297-25.0797577,9.4091797-27.1490097,9.5654297l-0.1802979,0.0097656
	c-13.3556099,0.4082031-22.7271118-2.0097656-27.8633595-7.1699219c-3.3982677-3.4150391-3.8130951-6.8818359-3.8443661-8.1162109
	c-0.7348671-8.3378906,4.6994305-13.9960938,9.783886-17.0791092c-2.4601421-3.6640625-4.4272785-7.2441406-5.8784428-10.1552734
	c-3.8018589,4.8583984-8.0341816,8.3271484-12.5259542,6.8798828c-6.45158-2.0791016-6.83074-12.8085938-6.4823623-19.0195313
	l0.0552125-0.4746094C8.0012846,88.715477,18.0929928,77.2511215,21.9896431,73.3321762
	c-1.0040894-12.3198242,2.8065643-17.956543,5.510519-20.3642578c1.4150105-27.472168,15.1297474-40.4277344,26.5372791-46.4726563
	C66.335701-0.0208503,78.6593704-0.0149909,79.9986496,0.0025872c1.3549042-0.0234375,13.6707611-0.0205078,25.960228,6.4926758
	c11.4070435,6.0449219,25.1212921,19,26.54216,46.4726563c2.7039642,2.4072266,6.5141296,8.0429688,5.5105286,20.3642578
	c3.8961487,3.9189453,13.9888458,15.3833008,16.8442688,31.4887695l0.0556946,0.4755859
	c0.345932,6.2119141-0.0371246,16.9423828-6.4887085,19.0185547c-4.4942169,1.4492188-8.7226257-2.0214844-12.5200958-6.8779297
	c-1.4511566,2.9101563-3.419281,6.4912109-5.8789215,10.1542969c5.0834656,3.0830154,10.5167847,8.740242,9.7838745,17.0781326
	c-0.0312653,1.2324219-0.446579,4.7021484-3.8502197,8.1181641
	C131.1876678,157.5777893,122.7689438,159.9986877,110.9104309,159.9996643z M28.2115765,144.5543518
	c0.1837158,0.9960938,2.2373352,8.0185547,23.3530178,7.4082031c6.9274826-0.546875,19.1138573-3.171875,22.6010475-7.9414063
	l1.1995392-1.640625h9.2698669l1.1990433,1.6396484c3.9147263,5.3535156,17.8781662,7.5712891,22.6010513,7.9423828
	c21.375618,0.6152344,23.2196274-6.5976563,23.3603439-7.4472656l-0.0449524-0.3554688l0.073288-0.0849609
	c0.7671204-7.7900391-8.9962463-11.1025391-9.0949402-11.1347656l-5.3649139-1.7695313l3.4495697-4.4716873
	c6.7515869-8.75,10.552948-18.6669922,10.5910645-18.765625l2.8290405-7.4580078l4.289978,6.7236328
	c3.962616,6.2128906,6.3118439,8.3564453,7.3691864,9.0839844c0.7553864-1.8476563,1.2312927-6.3203125,1.0378113-10.3027344
	c-3.0792084-16.8085938-15.6120148-27.9921875-15.7390442-28.1040039l-1.5752716-1.3852539l0.2442932-2.0830078
	c1.4003601-11.9448242-2.2837448-15.1958008-2.9208908-15.6616211l-2.7176361-0.7646484l0.3576584-2.7841797
	C123.1832886,7.4259272,81.860733,7.96206,80.1027222,8.002099l-0.1045609,0.0029297L79.8931046,8.002099
	c-1.7570343-0.0429688-43.0839806-0.581543-44.4711418,47.1948242l-0.0855064,2.9375l-2.2783775,0.6137695
	c-0.6449623,0.4736328-4.3163624,3.7324219-2.9174786,15.6591797l0.2443047,2.0834961l-1.5757618,1.3852539
	c-0.1211739,0.1079102-12.6749783,11.394043-15.7385511,28.1020508c-0.1900682,3.984375,0.2848587,8.4570313,1.0343838,10.3046875
	c1.0583248-0.7285156,3.4085283-2.8730469,7.3730936-9.0849609l4.2977962-6.7353516l2.8217106,7.4736328
	c0.0366459,0.0966797,3.8375282,10.0126953,10.5895996,18.7626953l3.4510384,4.4716873l-5.3668671,1.7695313
	c-0.3874664,0.1318359-9.8557129,3.4326172-9.0944614,11.1328125l0.0444622,0.4511719L28.2115765,144.5543518z
	 M131.8062439,144.6061096L131.8062439,144.6061096L131.8062439,144.6061096z M127.0520859,58.777977L127.0520859,58.777977
	L127.0520859,58.777977z"/>
</svg>
