<?xml version="1.0" encoding="utf-8"?>
<!-- Generator: Adobe Illustrator 23.0.0, SVG Export Plug-In . SVG Version: 6.00 Build 0)  -->
<svg version="1.1" id="icon-quote" xmlns="http://www.w3.org/2000/svg" xmlns:xlink="http://www.w3.org/1999/xlink" x="0px" y="0px"
	 viewBox="0 0 160 160" style="enable-background:new 0 0 160 160;" xml:space="preserve">
<style type="text/css">
	.st0{fill:#010101;}
</style>
<path class="st0" d="M156,160H41.0258789c-2.2089844,0-4-1.7910156-4-4s1.7910156-4,4-4H152v-34.9746094
	c0-2.2089844,1.7910156-4,4-4s4,1.7910156,4,4V156C160,158.2089844,158.2089844,160,156,160z M118.9746094,88
	c-4.4111328,0-8-3.5888672-8-8s3.5888672-8,8-8s8,3.5888672,8,8S123.3857422,88,118.9746094,88z M80,88
	c-4.4111328,0-8-3.5888672-8-8s3.5888672-8,8-8s8,3.5888672,8,8S84.4111328,88,80,88z M41.0258789,88c-4.4111328,0-8-3.5888672-8-8
	s3.5888672-8,8-8s8,3.5888672,8,8S45.4370117,88,41.0258789,88z M4,46.9741211c-2.2089844,0-4-1.7910156-4-4V4
	c0-2.2089844,1.7910156-4,4-4h114.9746094c2.2089844,0,4,1.7910156,4,4s-1.7910156,4-4,4H8v34.9741211
	C8,45.1831055,6.2089844,46.9741211,4,46.9741211z"/>
</svg>
