<?xml version="1.0" encoding="utf-8"?>
<!-- Generator: Adobe Illustrator 23.0.0, SVG Export Plug-In . SVG Version: 6.00 Build 0)  -->
<svg version="1.1" id="icon-qzone" xmlns="http://www.w3.org/2000/svg" xmlns:xlink="http://www.w3.org/1999/xlink" x="0px" y="0px"
	 viewBox="0 0 160 160" style="enable-background:new 0 0 160 160;" xml:space="preserve">
<path d="M124.9075012,153.9171753c-4.552063,0-12.4483719-2.5406342-27.9158401-12.327301
	c-7.9793091-5.0480804-15.2663269-10.3129425-18.891777-12.995163c-3.5209656,2.5503998-10.4354858,7.4813232-17.6453705,12.189621
	c-20.7728424,13.5624695-25.3468819,13.3017731-28.2478256,11.8674011
	c-6.0079136-2.9634247-7.2352734-12.6602478-3.9798889-31.4426651c1.5422554-8.8990936,3.6908684-17.372467,4.789341-21.4773331
	c-3.139679-2.5748215-9.4136658-7.8172226-15.643713-13.5868835C1.5925055,71.5322418-0.8910186,65.8192062,0.2347936,61.7367935
	c0.9939955-3.5776024,4.2161813-7.3207054,31.1507244-10.3891068c9.6812057-1.1033554,19.323349-1.7394905,23.8529625-2.0041008
	c1.368454-3.7279739,4.1395302-11.072113,7.4139557-18.6183758C71.4006729,10.5626278,75.7833328,7.052886,79.216423,6.2639389
	c4.6687546-1.0769911,9.6680222,2.2150087,18.8854218,21.7438946c3.5737,7.5736027,6.6162262,15.1584301,8.052536,18.8468571
	c4.233757,0.5023689,13.4208908,1.6345253,22.7417984,3.0503349c27.0312042,4.106823,28.8766479,6.5420151,30.0981445,8.153595
	c3.2202301,4.2376633-2.0494995,9.6948738-5.1984558,12.955143c-3.296402,3.4120941-8.1072235,7.8059845-14.2996674,13.0591278
	c-7.5321045,6.38871-15.3512802,12.5528488-19.1710358,15.5279999c0.5731583,1.4792786,1.3328171,3.469223,2.1959686,5.8077469
	l7.1122437,0.53508c2.2028046,0.1650162,3.8539276,2.0846558,3.6879425,4.2874603
	c-0.1650238,2.201828-2.0700226,3.8588104-4.2874603,3.6879349l-3.5756531-0.2685165
	c0.8485107,2.4752274,1.7116623,5.0832443,2.535759,7.718605c6.3174362,20.2079773,6.5595932,29.0992584,0.8660812,31.7141113
	C127.8680115,153.5549316,126.6259995,153.9171753,124.9075012,153.9171753z M78.1296692,119.62043
	c0.8563156,0,1.7116623,0.2743759,2.4283524,0.821167c0.0961761,0.0742111,9.7646866,7.4442291,20.4682083,14.2352219
	c16.341362,10.3686066,22.1744919,11.2766876,23.8881073,11.2346954c0.8533936-4.1536865-2.9497604-18.2395248-8.1277161-32.9121857
	l-61.4778404-4.6204224c-1.7360725-0.1298599-3.1880112-1.3679657-3.5907822-3.0620499
	c-0.4032631-1.6931152,0.3353996-3.4526215,1.8268814-4.3519058L95.674469,75.5848694l-52.1998978-1.673584
	c-2.2071953-0.0707932-3.9398537-1.9181747-3.8690643-4.1258621c0.0707932-2.2071991,1.9318504-3.9222794,4.1258659-3.8690643
	l65.7360077,2.107605c1.7722015,0.0571213,3.2944412,1.2732468,3.7416382,2.9883347
	c0.4481812,1.7150803-0.2870636,3.519989-1.805397,4.4348984l-42.9854202,25.8956299l45.3337097,3.4067307
	c-0.6434631-1.6794434-1.2976608-3.3461914-1.9557724-4.9807205c-0.6717758-1.6677246-0.1484146-3.5785751,1.2781372-4.6711884
	c15.5787735-11.9240417,32.9824905-26.6709137,37.7913589-32.7178802
	c-7.2919006-2.3580551-29.1207504-5.7354927-48.0242386-7.8582306c-1.4968567-0.167942-2.7720566-1.162426-3.299324-2.5728645
	c-6.744133-18.0188522-15.1022873-34.5530586-18.8824997-37.5452995
	c-4.0453033,3.5668631-12.7515564,23.0181236-18.7887573,40.1206055c-0.5414238,1.5334702-1.9572334,2.5860481-3.5815086,2.6636734
	c-20.7381821,0.9871635-44.8328094,3.9418106-50.0434723,6.9291687c2.1700935,5.1027679,17.653183,19.7061005,31.817131,31.0335541
	c1.2595825,1.0076599,1.7907524,2.674408,1.3464813,4.224968c-0.0307541,0.1074066-3.1133118,10.921257-5.1515884,22.3502502
	c-3.1528625,17.675148-1.3313484,22.4439926-0.6761703,23.5082779c5.2326317-0.8084717,24.5442657-13.2431793,40.1660042-24.8264465
	C76.4551086,119.8821106,77.2928772,119.62043,78.1296692,119.62043z M81.2488403,13.9796085
	C81.2488403,13.9800968,81.2488403,13.9796085,81.2488403,13.9796085z"/>
</svg>
