<?xml version="1.0" encoding="utf-8"?>
<!-- Generator: Adobe Illustrator 23.0.0, SVG Export Plug-In . SVG Version: 6.00 Build 0)  -->
<svg version="1.1" id="icon-refresh" xmlns="http://www.w3.org/2000/svg" xmlns:xlink="http://www.w3.org/1999/xlink" x="0px"
	 y="0px" viewBox="0 0 160 160" style="enable-background:new 0 0 160 160;" xml:space="preserve">
<path d="M80,160c-2.2089844,0-4-1.7910156-4-4v-30.4003906c0-2.2089844,1.7910156-4,4-4s4,1.7910156,4,4V156
	C84,158.2089844,82.2089844,160,80,160z M133.7324219,137.7324219c-1.0234375,0-2.0478516-0.390625-2.828125-1.171875
	l-21.5087891-21.5087891c-1.5625-1.5615234-1.5625-4.0947266,0-5.65625c1.5605469-1.5625,4.0957031-1.5625,5.65625,0
	l21.5087891,21.5087891c1.5625,1.5615234,1.5625,4.0947266,0,5.65625
	C135.7802734,137.3417969,134.7558594,137.7324219,133.7324219,137.7324219z M26.2680664,137.7324219
	c-1.0239258,0-2.0473633-0.390625-2.828125-1.171875c-1.5625-1.5615234-1.5625-4.0947266-0.0004883-5.65625l21.5078125-21.5087891
	c1.5625-1.5625,4.0947266-1.5625,5.6572266,0c1.5620117,1.5615234,1.5620117,4.0947266,0,5.65625l-21.5078125,21.5087891
	C28.3154297,137.3417969,27.2919922,137.7324219,26.2680664,137.7324219z M156,84h-30.4003906c-2.2089844,0-4-1.7910156-4-4
	s1.7910156-4,4-4H156c2.2089844,0,4,1.7910156,4,4S158.2089844,84,156,84z M34.3999023,84H4c-2.2089844,0-4-1.7910156-4-4
	s1.7910156-4,4-4h30.3999023c2.2089844,0,4,1.7910156,4,4S36.6088867,84,34.3999023,84z M47.7758789,51.7758789
	c-1.0239258,0-2.0473633-0.390625-2.8286133-1.1713867L23.4394531,29.0966797c-1.5620117-1.5625-1.5620117-4.0947266,0-5.6572266
	c1.5625-1.5615234,4.0947266-1.5615234,5.6572266,0l21.5078125,21.5078125c1.5620117,1.5625,1.5620117,4.0947266,0,5.6572266
	C49.8232422,51.3852539,48.7998047,51.7758789,47.7758789,51.7758789z M112.2236328,51.7758789
	c-1.0234375,0-2.0478516-0.390625-2.828125-1.1713867c-1.5625-1.5625-1.5625-4.0952148,0-5.6572266l21.5087891-21.5078125
	c1.5605469-1.5615234,4.09375-1.5620117,5.65625,0.0004883c1.5625,1.5620117,1.5625,4.0947266,0,5.6567383l-21.5087891,21.5078125
	C114.2714844,51.3852539,113.2470703,51.7758789,112.2236328,51.7758789z M80,38.3999023c-2.2089844,0-4-1.7910156-4-4V4
	c0-2.2089844,1.7910156-4,4-4s4,1.7910156,4,4v30.3999023C84,36.6088867,82.2089844,38.3999023,80,38.3999023z"/>
</svg>
