<?xml version="1.0" encoding="utf-8"?>
<!-- Generator: Adobe Illustrator 23.0.0, SVG Export Plug-In . SVG Version: 6.00 Build 0)  -->
<svg version="1.1" id="icon-reply" xmlns="http://www.w3.org/2000/svg" xmlns:xlink="http://www.w3.org/1999/xlink" x="0px" y="0px"
	 viewBox="0 0 160 160" style="enable-background:new 0 0 160 160;" xml:space="preserve">
<path d="M116.862999,150c-43.3495712,0-78.8392868-32.8682022-80.756073-73.9634933H9.7177963
	c-2.7055941,0.2290039-5.3086014-0.6451416-7.1690145-2.415657c-3.393198-3.3056183-3.393198-8.6355438-0.0309608-11.9112549
	l0.1446371-0.133728l56.2028732-49.1476364c1.7402687-1.6397781,4.0613937-2.4870119,6.5595055-2.4250603
	c2.4810104-0.0585337,4.8446503,0.8066444,6.5636597,2.4254875l55.7661896,48.8092575
	c2.0434113,1.6158524,3.2125244,3.9276886,3.2125244,6.3634338c0,1.7337723-0.5563812,3.386795-1.5924072,4.7847519v1.6000443
	l-2.0480194,0.4157104c-1.7199326,1.2475662-3.8955002,1.8354568-6.1912155,1.6350784
	c-2.0230713,0.0059814-18.4516373,0.0542603-26.1603851,0.0743408
	c1.6404572,29.6813583,24.0319595,55.4897079,53.3660507,60.8174973L160,139.0462189l-10.8343811,4.508316
	C138.8885193,147.8312836,128.0208588,150,116.862999,150z M9.3023682,69.0364761h34.2942657v3.5000153
	c0,38.8539505,32.8673019,70.4634781,73.2663651,70.4634781c6.3169022,0,12.5321426-0.7698975,18.5810318-2.2968903
	c-28.1132278-10.2137909-48.1360016-37.6593628-48.1360016-68.0828476v-3.5000153h3.7855148
	c1.7439651,0,30.2240906-0.0837402,30.2240906-0.0837402l0.235672-0.0008545l0.2338257,0.0264893
	c0.2375183,0.0264893,0.6848297,0.027771,0.9787216-0.2636108l0.3327179-0.3302612
	c0.1589584-0.2042313,0.2975922-0.4900589,0.2975922-0.86689c0-0.406311-0.1968536-0.7630692-0.5840988-1.0608597
	l-0.1839142-0.1508179L66.5953293,17.3420124c-0.3160706-0.3054829-0.6977692-0.3584614-0.9657822-0.3409443l-0.1991653,0.0098267
	l-0.1991653-0.0093994c-0.5175552-0.0252075-0.7846451,0.1585083-0.9736481,0.3409443l-0.1312332,0.1204834L7.9618173,66.5768051
	c-0.5656099,0.6049881-0.5494366,1.6137161,0.0475965,2.1956329c0.161273,0.1529541,0.4602509,0.3520508,1.0725327,0.2879639
	L9.3023682,69.0364761z"/>
</svg>
