<?xml version="1.0" encoding="utf-8"?>
<!-- Generator: Adobe Illustrator 23.0.0, SVG Export Plug-In . SVG Version: 6.00 Build 0)  -->
<svg version="1.1" id="icon-rightquote" xmlns="http://www.w3.org/2000/svg" xmlns:xlink="http://www.w3.org/1999/xlink" x="0px"
	 y="0px" viewBox="0 0 160 160" style="enable-background:new 0 0 160 160;" xml:space="preserve">
<path d="M19.7216797,135c-6.546875,0.0009766-11.3242188-4.0537109-12.8330078-8.8513947
	c-1.7441406-5.5426178,0.7441406-12.910965,10.328125-15.987381l0.2128906-0.0615082
	c8.7260742-2.2767944,16.2421875-7.6553879,21.2568359-14.9690628c-8.262207,1.3199921-16.9785156-0.258728-23.9887695-4.6346359
	C5.2197266,84.5794678,0,74.2455215,0,61.3975258C0,39.2871017,14.9345703,25,38.0478516,25
	c22.9697266,0,38.402832,17.2883377,38.402832,43.0199585c0,32.2969513-19.2329102,57.0253983-51.4482422,66.1491852
	C23.1455078,134.741272,21.3769531,135,19.7216797,135z M19.565918,117.8078308
	c-3.8691406,1.2692261-5.8012695,3.5401688-5.0458984,5.9409561c0.7524414,2.3929825,3.8164063,4.1074142,8.2148438,2.7503204
	c28.6582031-8.1171951,45.7158203-29.968399,45.7158203-58.4791489c0-21.6022415-11.6499023-35.0218773-30.402832-35.0218773
	C19.5136719,32.9980812,8,43.8802414,8,61.3975258c0,12.8016167,5.9462891,19.2004738,10.9345703,22.3139839
	c7.4482422,4.6502533,17.8647461,5.1286545,25.9204102,1.1940536l9.0209961-4.4071503l-3.519043,9.4010696
	C45.2094727,103.6539993,33.7036133,114.0782547,19.565918,117.8078308z M103.4248047,134.9638824
	c-6.4824219,0-11.4609375-3.9590149-13.0058594-8.8396835c-1.7480469-5.5260239,0.7431641-12.8787537,10.3466797-15.9629745
	l0.2138672-0.0615082c8.7451172-2.2816772,16.2744141-7.6788177,21.2880859-15.0159302
	c-8.2705078,1.2877808-17.1064453-0.284111-24.015625-4.5926514c-9.4804688-5.9097137-14.7021484-16.2421951-14.7021484-29.0936089
	C83.5498047,39.2871017,98.484375,25,121.5976563,25C144.9257813,25,160,41.906105,160,68.0707321
	c0,32.3018265-19.2167969,57.0029373-51.4042969,66.0857162C106.796875,134.7110138,105.0625,134.9638824,103.4248047,134.9638824z
	 M103.1152344,117.8078308c-3.8789063,1.2731323-5.8203125,3.5294266-5.0683594,5.9028854
	c0.7470703,2.362709,3.8828125,4.1445084,8.2246094,2.7922974l0.1054688-0.0312424
	C134.9443359,118.4297562,152,96.5970993,152,68.0707321c0-21.6334877-11.6494141-35.0726509-30.4023438-35.0726509
	c-18.5341797,0-30.0478516,10.8821602-30.0478516,28.3994446c0,10.1342888,3.78125,17.8477745,10.9345703,22.3071556
	c7.46875,4.656105,17.8818359,5.1384125,25.9150391,1.2028351l9.03125-4.4247208l-3.5244141,9.416687
	C128.7597656,103.6530228,117.2529297,114.0782547,103.1152344,117.8078308z"/>
</svg>
