<?xml version="1.0" encoding="utf-8"?>
<!-- Generator: Adobe Illustrator 23.0.0, SVG Export Plug-In . SVG Version: 6.00 Build 0)  -->
<svg version="1.1" id="icon-rss" xmlns="http://www.w3.org/2000/svg" xmlns:xlink="http://www.w3.org/1999/xlink" x="0px" y="0px"
	 viewBox="0 0 160 160" style="enable-background:new 0 0 160 160;" xml:space="preserve">
<path d="M156,160c-2.2089844,0-4-1.7910156-4-4C152,74.3925781,85.6074219,8,4,8C1.7910156,8,0,6.2089844,0,4s1.7910156-4,4-4
	c86.0185547,0,156,69.9814453,156,156C160,158.2089844,158.2089844,160,156,160z M89.5,160c-2.2089844,0-4-1.7910156-4-4
	c0-44.9394531-36.5605469-81.5-81.5-81.5c-2.2089844,0-4-1.7910156-4-4s1.7910156-4,4-4c49.3505859,0,89.5,40.1494141,89.5,89.5
	C93.5,158.2089844,91.7089844,160,89.5,160z M8,160c-4.4111328,0-8-3.5888672-8-8s3.5888672-8,8-8s8,3.5888672,8,8
	S12.4111328,160,8,160z"/>
</svg>
