<?xml version="1.0" encoding="utf-8"?>
<!-- Generator: Adobe Illustrator 23.0.0, SVG Export Plug-In . SVG Version: 6.00 Build 0)  -->
<svg version="1.1" id="icon-search" xmlns="http://www.w3.org/2000/svg" xmlns:xlink="http://www.w3.org/1999/xlink" x="0px"
	 y="0px" viewBox="0 0 160 160" style="enable-background:new 0 0 160 160;" xml:space="preserve">
<path d="M156,160c-1.0234375,0-2.0478516-0.390625-2.828125-1.171875l-40.0224609-40.0214844
	C101.1328125,129.4960938,85.3105469,136,68,136c-37.4951172,0-68-30.5048828-68-68S30.5048828,0,68,0s68,30.5048828,68,68
	c0,17.3105469-6.5039063,33.1328125-17.1933594,45.1494141l40.0214844,40.0224609c1.5625,1.5615234,1.5625,4.0947266,0,5.65625
	C158.0478516,159.609375,157.0234375,160,156,160z M68,8C34.9160156,8,8,34.9160156,8,68s26.9160156,60,60,60s60-26.9160156,60-60
	S101.0839844,8,68,8z"/>
</svg>
