<?xml version="1.0" encoding="utf-8"?>
<!-- Generator: Adobe Illustrator 23.0.0, SVG Export Plug-In . SVG Version: 6.00 Build 0)  -->
<svg version="1.1" id="icon-share" xmlns="http://www.w3.org/2000/svg" xmlns:xlink="http://www.w3.org/1999/xlink" x="0px" y="0px"
	 viewBox="0 0 160 160" style="enable-background:new 0 0 160 160;" xml:space="preserve">
<path d="M126.5878906,160c-12.9091797,0-23.4111328-10.5361328-23.4111328-23.4873047
	c0-2.9619141,0.5488281-5.796875,1.5507813-8.4091797L51.6015625,94.7714844
	c-4.2958984,5.3134766-10.8544922,8.7158203-18.1899414,8.7158203C20.5024414,103.4873047,10,92.9511719,10,80
	s10.5024414-23.4873047,23.4116211-23.4873047c7.2583008,0,13.7558594,3.3305664,18.0537109,8.5488281l53.1850586-33.3701172
	c-0.9521484-2.5551758-1.4736328-5.3198242-1.4736328-8.2041016C103.1767578,10.5361328,113.6787109,0,126.5878906,0
	S150,10.5361328,150,23.4873047c0,12.9506836-10.5029297,23.4868164-23.4121094,23.4868164
	c-7.1748047,0-13.6054688-3.2543945-17.9033203-8.3696289L55.4316406,72.0170898
	C56.3325195,74.5102539,56.8237305,77.1987305,56.8237305,80c0,2.7236328-0.4648438,5.3408203-1.3183594,7.7763672
	l53.3188477,33.453125c4.296875-5.0195313,10.6660156-8.2041016,17.7636719-8.2041016
	C139.4970703,113.0253906,150,123.5615234,150,136.5126953S139.4970703,160,126.5878906,160z M126.5878906,121.0253906
	c-8.4980469,0-15.4111328,6.9472656-15.4111328,15.4873047S118.0898438,152,126.5878906,152S142,145.0527344,142,136.5126953
	S135.0859375,121.0253906,126.5878906,121.0253906z M33.4116211,64.5126953C24.9135742,64.5126953,18,71.4604492,18,80
	c0,8.5400391,6.9135742,15.4873047,15.4116211,15.4873047S48.8237305,88.5400391,48.8237305,80
	C48.8237305,71.4604492,41.909668,64.5126953,33.4116211,64.5126953z M126.5878906,8
	c-8.4980469,0-15.4111328,6.9477539-15.4111328,15.4873047s6.9130859,15.4868164,15.4111328,15.4868164
	S142,32.0268555,142,23.4873047S135.0859375,8,126.5878906,8z"/>
</svg>
