<?xml version="1.0" encoding="utf-8"?>
<!-- Generator: Adobe Illustrator 23.0.0, SVG Export Plug-In . SVG Version: 6.00 Build 0)  -->
<svg version="1.1" id="icon-smiley" xmlns="http://www.w3.org/2000/svg" xmlns:xlink="http://www.w3.org/1999/xlink" x="0px"
	 y="0px" viewBox="0 0 160 160" style="enable-background:new 0 0 160 160;" xml:space="preserve">
<path d="M80,160c-44.1123047,0-80-35.8876953-80-80S35.8876953,0,80,0s80,35.8876953,80,80S124.1123047,160,80,160z M80,8
	C40.2988281,8,8,40.2988281,8,80s32.2988281,72,72,72s72-32.2988281,72-72S119.7011719,8,80,8z M80,114.984375
	c-20.7612305,0-33.0854492-16.1142578-33.6000977-16.7998047c-1.3251953-1.7675781-0.9672852-4.2753906,0.800293-5.6005859
	c1.7636719-1.3222656,4.2661133-0.9697266,5.59375,0.7919922C52.9335938,93.5585938,63.347168,106.984375,80,106.984375
	c16.6826172,0,27.1044922-13.4736328,27.2070313-13.609375c1.3339844-1.7539063,3.8378906-2.1064453,5.5996094-0.7792969
	c1.7597656,1.328125,2.1162109,3.8251953,0.7939453,5.5888672C113.0859375,98.8701172,100.7617188,114.984375,80,114.984375z
	 M102.4296875,64.6152344c-4.421875,0-8.0195313-3.5888672-8.0195313-8s3.5625-8,7.9423828-8
	c4.4775391,0,8.0576172,3.5888672,8.0576172,8S106.8300781,64.6152344,102.4296875,64.6152344z M102.4101563,56.6074219v0.0078125
	C102.4101563,56.6098633,102.4101563,56.6074219,102.4101563,56.6074219z M57.609375,64.6152344
	c-4.421875,0-8.0195313-3.5888672-8.0195313-8s3.5625-8,7.9414063-8c4.4785156,0,8.0585938,3.5888672,8.0585938,8
	S62.0097656,64.6152344,57.609375,64.6152344z M57.5893555,56.6074219l0.0004883,0.0078125
	C57.5898438,56.6098633,57.5893555,56.6074219,57.5893555,56.6074219z"/>
</svg>
