<?xml version="1.0" encoding="utf-8"?>
<!-- Generator: Adobe Illustrator 23.0.0, SVG Export Plug-In . SVG Version: 6.00 Build 0)  -->
<svg version="1.1" id="icon-social" xmlns="http://www.w3.org/2000/svg" xmlns:xlink="http://www.w3.org/1999/xlink" x="0px"
	 y="0px" viewBox="0 0 160 160" style="enable-background:new 0 0 160 160;" xml:space="preserve">
<path d="M80,160c-44.1123047,0-80-35.8876953-80-80S35.8876953,0,80,0s80,35.8876953,80,80S124.1123047,160,80,160z
	 M78.1665039,151.9765625C78.7758789,151.9921875,79.3867188,152,80,152c22.7919922,0,43.1455078-10.6455078,56.3476563-27.2255859
	L115.1113281,88L78.1665039,151.9765625z M16.762207,114.4003906
	c10.6049805,19.4179688,29.8891602,33.4404297,52.6054688,36.8164063l21.2602539-36.8164063H16.762207z M104.484375,53.6000977
	l36.9287109,63.9487305C148.1269531,106.609375,152,93.7490234,152,80c0-9.3144531-1.7783203-18.2216797-5.0126953-26.3999023
	H104.484375z M64.7529297,106.4003906h30.4951172l15.2441406-26.3989258L95.2460938,53.6000977H64.7519531L49.5073242,79.9995117
	L64.7529297,106.4003906z M13.0126953,106.4003906h42.5024414L18.5864258,42.4511719C11.8735352,53.390625,8,66.2509766,8,80
	C8,89.3144531,9.7783203,98.2226563,13.0126953,106.4003906z M23.6523438,35.2260742l21.2363281,36.7744141L81.8330078,8.0229492
	C81.2236328,8.0078125,80.6132813,8,80,8C57.2080078,8,36.8544922,18.6459961,23.6523438,35.2260742z M69.371582,45.6000977
	h73.8666992c-10.6054688-19.4179688-29.890625-33.4414063-52.6064453-36.8168945L69.371582,45.6000977z"/>
</svg>
