<?xml version="1.0" encoding="utf-8"?>
<!-- Generator: Adobe Illustrator 18.0.0, SVG Export Plug-In . SVG Version: 6.00 Build 0)  -->
<!DOCTYPE svg PUBLIC "-//W3C//DTD SVG 1.1//EN" "http://www.w3.org/Graphics/SVG/1.1/DTD/svg11.dtd">
<svg version="1.1" id="icon-star" xmlns="http://www.w3.org/2000/svg" xmlns:xlink="http://www.w3.org/1999/xlink" x="0px" y="0px"
	 viewBox="0 0 160 160" style="enable-background:new 0 0 160 160;" xml:space="preserve">
<path d="M38.6489258,156.7412109c-3.8652344,0-7.5292969-1.7158203-10.0527344-4.7080078
	c-2.5039063-2.9677734-3.5175781-6.734375-2.8554688-10.6064453l6.7475586-39.2675781L3.9643555,74.3642578
	c-3.5957031-3.5004883-4.8657227-8.6450195-3.3134766-13.4243164c1.5512695-4.7768555,5.5976563-8.1914063,10.5595703-8.9111328
	l39.4257813-5.7480469l17.6225586-35.730957c2.2207031-4.4980469,6.7119141-7.2915039,11.7211914-7.2915039
	c5.0249023,0,9.5307617,2.7915039,11.7583008,7.2841797l17.625,35.7382813l39.4287109,5.7485352
	c4.9599609,0.7192383,9.0058594,4.1337891,10.5576172,8.9111328c1.5517578,4.7792969,0.28125,9.9233398-3.3154297,13.425293
	l-28.5214844,27.793457l6.7460938,39.2646484c0.6621094,3.8710938-0.3496094,7.6337891-2.8496094,10.5966797
	c-2.5253906,2.9931641-6.1943359,4.7099609-10.0673828,4.7099609c-0.0009766,0-0.0009766,0-0.0019531,0
	c-2.1162109,0-4.1582031-0.5097656-6.0683594-1.5146484L80,136.6757813l-35.2719727,18.5410156
	C42.8237305,156.2265625,40.7739258,156.7412109,38.6489258,156.7412109z M79.9799805,11.2583008
	c-1.9716797,0-3.671875,1.0585938-4.546875,2.8320313l-19.4824219,39.5l-43.5888672,6.3549805
	c-1.9570313,0.2841797-3.4892578,1.5795898-4.1020508,3.4658203c-0.6132813,1.8886719-0.1323242,3.8408203,1.2866211,5.2226563
	l31.5385742,30.7324219l-7.4589844,43.4130859c-0.3305664,1.9296875,0.4077148,3.2929688,1.0854492,4.0966797
	c1.5200195,1.8027344,4.1499023,2.3964844,6.28125,1.265625L80,127.6386719l38.9951172,20.4960938
	c0.7509766,0.3955078,1.5400391,0.5957031,2.3457031,0.5957031l0,0c1.4892578,0,2.9667969-0.6982422,3.953125-1.8681641
	c0.6748047-0.7998047,1.4101563-2.1582031,1.0800781-4.0859375l-7.4589844-43.4101563l31.5371094-30.7314453
	c1.4208984-1.3828125,1.9013672-3.3349609,1.2880859-5.2236328c-0.6123047-1.8862305-2.1445313-3.1816406-4.0996094-3.465332
	l-43.5917969-6.3554688L84.5664063,14.0883789C83.6894531,12.3193359,81.9736328,11.2583008,79.9799805,11.2583008z"/>
</svg>
