<?xml version="1.0" encoding="utf-8"?>
<!-- Generator: Adobe Illustrator 23.0.0, SVG Export Plug-In . SVG Version: 6.00 Build 0)  -->
<svg version="1.1" id="icon-statistic" xmlns="http://www.w3.org/2000/svg" xmlns:xlink="http://www.w3.org/1999/xlink" x="0px"
	 y="0px" viewBox="0 0 160 160" style="enable-background:new 0 0 160 160;" xml:space="preserve">
<path d="M156,140H4c-2.2089844,0-4-1.7910156-4-4V24c0-2.2089844,1.7910156-4,4-4s4,1.7910156,4,4v108h22.6660156V84
	c0-2.2089844,1.7910156-4,4-4h20c2.2089844,0,4,1.7910156,4,4v48h22.6669922V64c0-2.2089844,1.7910156-4,4-4h20
	c2.2089844,0,4,1.7910156,4,4v68H132V24c0-2.2089844,1.7910156-4,4-4h20c2.2089844,0,4,1.7910156,4,4v112
	C160,138.2089844,158.2089844,140,156,140z M140,132h12V28h-12V132z M89.3330078,132h12V68h-12V132z M38.6660156,132h12V88h-12V132z
	"/>
</svg>
