<?xml version="1.0" encoding="utf-8"?>
<!-- Generator: Adobe Illustrator 23.0.0, SVG Export Plug-In . SVG Version: 6.00 Build 0)  -->
<svg version="1.1" id="icon-strike" xmlns="http://www.w3.org/2000/svg" xmlns:xlink="http://www.w3.org/1999/xlink" x="0px"
	 y="0px" viewBox="0 0 160 160" style="enable-background:new 0 0 160 160;" xml:space="preserve">
<path d="M80,160c-23.1586914,0-42-18.8408203-42-42c0-2.2089844,1.7910156-4,4-4s4,1.7910156,4,4c0,18.7480469,15.2524414,34,34,34
	c18.7480469,0,34-15.2519531,34-34S98.7480469,84,80,84H4c-2.2089844,0-4-1.7910156-4-4s1.7910156-4,4-4h51.3676758
	C44.8515625,68.359375,38,55.9638672,38,42C38,18.8413086,56.8413086,0,80,0c23.1591797,0,42,18.8413086,42,42
	c0,2.2089844-1.7910156,4-4,4s-4-1.7910156-4-4c0-18.7475586-15.2519531-34-34-34C61.2524414,8,46,23.2524414,46,42
	s15.2524414,34,34,34h76c2.2089844,0,4,1.7910156,4,4s-1.7910156,4-4,4h-51.3681641C115.1484375,91.640625,122,104.0361328,122,118
	C122,141.1591797,103.1591797,160,80,160z"/>
</svg>
