<?xml version="1.0" encoding="utf-8"?>
<!-- Generator: Adobe Illustrator 18.0.0, SVG Export Plug-In . SVG Version: 6.00 Build 0)  -->
<!DOCTYPE svg PUBLIC "-//W3C//DTD SVG 1.1//EN" "http://www.w3.org/Graphics/SVG/1.1/DTD/svg11.dtd">
<svg version="1.1" id="icon-stuff" xmlns="http://www.w3.org/2000/svg" xmlns:xlink="http://www.w3.org/1999/xlink" x="0px" y="0px"
	 viewBox="0 0 160 160" style="enable-background:new 0 0 160 160;" xml:space="preserve">
<path d="M156,160H4c-2.2089844,0-4-1.7910156-4-4V84c0-0.3564453,0.046875-0.7021484,0.1342773-1.03125l-0.015625-0.0039063
	L20.027832,3.0332031C20.4716797,1.2509766,22.0722656,0,23.9091797,0h112.1816406
	c1.8369141,0,3.4375,1.2509766,3.8818359,3.0336914l19.9091797,79.9536133l-0.0107422,0.0029297
	C159.9550781,83.3125,160,83.6513672,160,84v72C160,158.2089844,158.2089844,160,156,160z M8,152h144V88h-30.6542969
	c-3.7548828,19.6259766-20.8925781,34-41.293457,34c-20.3696289,0-37.5112305-14.3789063-41.2670898-34H8V152z
	 M42.2304688,79.9916992c0.480957,0,0.9648438,0.0869141,1.4272461,0.2651367
	c1.4038086,0.5405273,2.3969727,1.8115234,2.5527344,3.3076172C48.0161133,100.9160156,62.5649414,114,80.0522461,114
	c17.5454102,0,32.1088867-13.1201172,33.8764648-30.5185547c0.1640625-1.6152344,1.2880859-2.9702148,2.84375-3.4311523
	c0.6933594-0.2050781,1.4101563-0.215332,2.0849609-0.050293H128V64H32v16h9.9760742
	C42.0610352,79.9946289,42.1455078,79.9916992,42.2304688,79.9916992z M136,80h14.8935547L132.9648438,8H27.0351563L9.1015625,80H24
	V60c0-2.2089844,1.7910156-4,4-4h104c2.2089844,0,4,1.7910156,4,4V80z M132,46H28v-8h104V46z M128,28H32v-8h96V28z"/>
</svg>
