<?xml version="1.0" encoding="utf-8"?>
<!-- Generator: Adobe Illustrator 23.0.0, SVG Export Plug-In . SVG Version: 6.00 Build 0)  -->
<svg version="1.1" id="icon-tags" xmlns="http://www.w3.org/2000/svg" xmlns:xlink="http://www.w3.org/1999/xlink" x="0px" y="0px"
	 viewBox="0 0 160 160" style="enable-background:new 0 0 160 160;" xml:space="preserve">
<path d="M65.5073242,144c-3.9291992,0-7.8569336-1.4805756-10.8476563-4.4436951L4.5981445,89.9773254
	C1.6328125,87.0405731,0,83.1340256,0,78.9755096V31.5397606C0,22.9712353,7.0209961,16,15.6513672,16h47.8974609
	c4.1728516,0,8.0981445,1.6114502,11.0532227,4.5374546l2.6035156,2.5783234h23.9086914
	c4.1835938,0,8.1152344,1.6182861,11.0712891,4.5560112l43.8007813,43.5189438
	c2.5908203,2.5744171,4.0166016,5.9970398,4.0136719,9.6369629c-0.0029297,3.640419-1.4335938,7.0606003-4.0292969,9.6311111
	l-49.1357422,48.6619186c-5.7216797,5.6654663-15.0273438,6.035614-21.1845703,0.8447876L80.40625,135.544281l-4.0517578,4.0120239
	C73.3642578,142.5184479,69.4350586,144,65.5073242,144z M15.6513672,24.0006104C11.4326172,24.0006104,8,27.3827038,8,31.5397606
	v47.4357491c0,2.0065002,0.7910156,3.8948288,2.2275391,5.3177872l50.0610352,49.5789719
	c2.8779297,2.8498383,7.559082,2.8498383,10.4370117,0l6.6166992-6.5532303
	c0.0239258-0.0244141,0.0473633-0.0478516,0.0712891-0.0712967l41.4155273-41.0158234
	c1.4355469-1.4229584,2.2265625-3.3107986,2.2265625-5.3172989s-0.7910156-3.8948288-2.2265625-5.3168106l-49.855957-49.375351
	c-1.4257813-1.4122181-3.402832-2.2218494-5.4243164-2.2218494H15.6513672z M86.1142578,129.8914948l4.6923828,3.9563599
	c3.0234375,2.5500031,7.5917969,2.3683472,10.3994141-0.4111633l49.1357422-48.661911
	c1.0673828-1.0586777,1.6572266-2.4621048,1.6582031-3.9534302c0.0009766-1.4908371-0.5859375-2.8957291-1.6523438-3.9553757
	L106.546875,33.3475151c-1.4267578-1.4180775-3.40625-2.2311268-5.4326172-2.2311268H85.2841797l39.1738281,38.7964172l0,0
	c2.9648438,2.9367447,4.5976563,6.8437881,4.5976563,11.0018158c0,4.1580353-1.6328125,8.0655594-4.5976563,11.0013275
	L86.1142578,129.8914948z M35.3623047,66.3114548c-8.4697266,0-15.3603516-6.8418312-15.3603516-15.2511635
	s6.890625-15.2511635,15.3603516-15.2511635s15.3603516,6.8418312,15.3603516,15.2511635
	S43.8320313,66.3114548,35.3623047,66.3114548z M35.3623047,43.8097382c-4.0585938,0-7.3603516,3.2526894-7.3603516,7.2505531
	s3.3017578,7.2505531,7.3603516,7.2505531s7.3603516-3.2526894,7.3603516-7.2505531S39.4208984,43.8097382,35.3623047,43.8097382z"
	/>
</svg>
