<?xml version="1.0" encoding="utf-8"?>
<!-- Generator: Adobe Illustrator 23.0.0, SVG Export Plug-In . SVG Version: 6.00 Build 0)  -->
<svg version="1.1" id="icon-thumbtack" xmlns="http://www.w3.org/2000/svg" xmlns:xlink="http://www.w3.org/1999/xlink" x="0px"
	 y="0px" viewBox="0 0 160 160" style="enable-background:new 0 0 160 160;" xml:space="preserve">
<path d="M52.2638435,160c-0.7148628,0-1.4370499-0.1240234-2.1382446-0.3779144
	c-2.2583656-0.8183289-3.8262825-2.8153381-4.0914268-5.2117462l-1.6948738-15.2934418
	c-0.1054688-0.9579773,0.0112305-1.9413452,0.3369255-2.8456116l8.7922478-24.3322067l-32.3940048-11.8755798
	c-5.5773096-2.0448608-8.4577637-8.2936783-6.4201069-13.9302063C19.4894581,72.7523804,32.503994,63.630127,49.7076187,61.4324455
	l11.9114761-24.757l-7.0749092-2.5941505c-5.5768242-2.0443687-8.4567871-8.2936726-6.4205971-13.929718l4.6822662-12.956605
	c0.9951439-2.7557683,2.9976425-4.9514971,5.6378555-6.1824136c2.6074982-1.2152921,5.5260391-1.3407762,8.2175217-0.3539923
	l72.2643051,26.493269c5.577301,2.0453434,8.4572754,8.2946491,6.420105,13.9306927l-4.681778,12.9556313
	c-0.9941711,2.7547913-2.9961853,4.9505196-5.6368866,6.1819229c-2.6074982,1.2162704-5.5255432,1.3422432-8.2189789,0.3544807
	l-7.0353622-2.5795059l-6.6701126,26.6626968c11.7776794,12.8130569,15.9281921,28.2217255,11.095047,41.5962906
	c-0.9941711,2.7547913-2.9961853,4.951004-5.6368866,6.1824036c-2.6065216,1.2157898-5.5245743,1.3417664-8.2189865,0.3544922
	l-32.357872-11.8638687l-8.7785721,24.2941208c-0.3281326,0.907196-0.8686752,1.7401733-1.5625458,2.4071503l-11.060379,10.6197662
	C55.3899117,159.3935699,53.844944,160,52.2638435,160z M52.3336716,138.6217957l1.26371,11.4019775l8.2165451-7.889389
	l11.3767929-31.4843216l39.9049683,14.6294022c0.6806793,0.2480392,1.41996,0.2158127,2.0830688-0.09375
	c0.6972809-0.3242035,1.2275696-0.9101257,1.4941788-1.6493607c3.9678879-10.9801025-0.0810547-24.0265503-10.8303909-34.9021683
	l-1.582077-1.599556l9.9104462-39.6134415l15.3910675,5.6428795c0.6806793,0.2485275,1.4199677,0.2158127,2.0830688-0.0937462
	c0.6972809-0.3246956,1.2275696-0.9111023,1.4941864-1.6498489l4.6827545-12.956604
	c0.5449371-1.5072746-0.1963043-3.1678658-1.6504364-3.7015381L63.9072495,8.1690617
	c-0.6782417-0.2480392-1.418499-0.2148371-2.0820923,0.0937462c-0.6972847,0.3246965-1.2280617,0.9111032-1.4951591,1.6503363
	l-4.6822662,12.956605c-0.5444489,1.5072746,0.1958084,3.1678638,1.6504402,3.7010498l15.3524933,5.628233l-17.680687,36.7483025
	l-2.260807,0.2040939c-15.1547356,1.3686066-26.5681534,8.7335968-30.5306702,19.7005234
	c-0.5449371,1.5067902,0.1953182,3.1668854,1.64995,3.7000732l39.8698044,14.6176834L52.3336716,138.6217957z"/>
</svg>
