<?xml version="1.0" encoding="utf-8"?>
<!-- Generator: Adobe Illustrator 18.0.0, SVG Export Plug-In . SVG Version: 6.00 Build 0)  -->
<!DOCTYPE svg PUBLIC "-//W3C//DTD SVG 1.1//EN" "http://www.w3.org/Graphics/SVG/1.1/DTD/svg11.dtd">
<svg version="1.1" id="icon-tools" xmlns="http://www.w3.org/2000/svg" xmlns:xlink="http://www.w3.org/1999/xlink" x="0px" y="0px"
	 viewBox="0 0 160 160" style="enable-background:new 0 0 160 160;" xml:space="preserve">
<path d="M110.0005341,45.0012131c-2.7613983,0-4.9999466,2.2385521-4.9999466,4.9999466s2.2385483,4.9999466,4.9999466,4.9999466
	c2.7613907,0,4.9999466-2.2385521,4.9999466-4.9999466S112.7619247,45.0012131,110.0005341,45.0012131z M50.0011749,105.0005722
	c-2.7613945,0-4.9999466,2.2385559-4.9999466,4.9999466c0,2.7613983,2.2385521,4.9999466,4.9999466,4.9999466
	s4.9999466-2.2385483,4.9999466-4.9999466C55.0011215,107.2391281,52.7625694,105.0005722,50.0011749,105.0005722z
	 M31.0013752,159.9999847c-3.3842411,0-6.714283-0.5429688-9.8963776-1.6142426
	c-0.0708008-0.0234375-0.1406231-0.0498047-0.2094707-0.0771484c-1.2485218-0.4990082-2.1635513-1.5927582-2.4340553-2.9101257
	c-0.2705059-1.3173676,0.1376934-2.6825867,1.0883656-3.6327667l9.2875004-9.2870178l2.2958736-8.4442444l-5.1659603-5.1659546
	l-8.4432697,2.2958679l-9.2874985,9.2870178c-0.9789939,0.9794769-2.3925529,1.3827972-3.7416596,1.066391
	c-1.3471537-0.3164063-2.4360094-1.3056488-2.8774109-2.6181335c-1.0722542-3.1825867-1.6157054-6.5126343-1.6157054-9.8993073
	c0-17.0935745,13.9065895-30.9996719,30.9996681-30.9996719c2.5322018,0,5.0341282,0.3037033,7.4662304,0.9062424
	l22.5778847-22.5778885L19.4975929,34.6385307l-3.7489843-0.0009766c-2.1816168-0.0029297-4.2299347-1.1630745-5.3495522-3.0282879
	L0.8923222,15.7822866c-1.4765468-2.4599352-1.0908087-5.5936909,0.9360252-7.6224775l6.3422174-6.3324518
	c2.0239048-2.0248809,5.1581488-2.4106188,7.6195478-0.9379783l15.8479757,9.4984341
	c1.8691216,1.1186409,3.0317039,3.1694002,3.0317039,5.3505287v3.7441015l41.6606903,41.5615692l22.576416-22.5764198
	c-0.6025314-2.4321022-0.9062347-4.9340286-0.9062347-7.4662285c0-17.0930786,13.9060974-30.9996681,30.9996719-30.9996681
	c3.339798,0,6.6268768,0.5292912,9.7723541,1.5727371c0.0371094,0.0122069,0.0742188,0.0253904,0.1113281,0.0385739
	l0.1083984,0.0395503c1.2831879,0.4682567,2.2392273,1.5595536,2.5341492,2.8935239
	c0.2958984,1.3339701-0.1103516,2.7265334-1.0771332,3.6928315l-9.2850647,9.285058l-2.2958679,8.4432678l5.1659546,5.1659622
	l8.4442444-2.2958755l9.2870178-9.2874985c0.9511566-0.9506721,2.3144226-1.3608246,3.6327667-1.0898323
	c1.316391,0.2705059,2.410141,1.1845589,2.9091492,2.4330807c0.0273438,0.0688457,0.0546875,0.1411114,0.078125,0.2119122
	C159.4570313,24.2870789,160,27.6171207,160,31.0013618c0,17.0930786-13.9060974,30.9996681-30.9996643,30.9996681
	c-2.5312271,0-5.0341339-0.3041954-7.4667206-0.9057503l-17.0359497,17.0359535l5.086853,4.3842316l5.4345169-5.4340286
	c1.5624847-1.5615082,4.0946808-1.5619965,5.6571655,0.0004883c1.5615082,1.5619965,1.5615082,4.0946808-0.0009766,5.6571655
	l-5.1073685,5.1063919l38.053299,34.9146652c8.5018768,8.5047913,8.5018768,22.3425446,0.0009766,30.8473358
	c-8.5057678,8.5047913-22.3464355,8.5077209-30.8522034,0.0029297l-0.1787109-0.1855469l-34.8052902-37.8013611
	l-5.1122513,5.1122513c-1.5615082,1.5615082-4.0946808,1.5615082-5.6571655-0.0009766
	c-1.5619965-1.5624847-1.5619965-4.0946808,0.0004883-5.6571655l5.4242554-5.4227905l-4.3993607-5.0673294l-16.9465981,16.946106
	c0.6015549,2.4316177,0.9057503,4.9335403,0.9057503,7.4667206
	C62.0010452,146.0938873,48.0944557,159.9999847,31.0013752,159.9999847z M30.631752,151.9971466
	c12.8274994,0.203125,23.3698654-10.1912994,23.3693771-22.9968262c0-2.5165787-0.4028244-4.9872513-1.1967621-7.3456268
	c-0.4848595-1.4394379-0.1118164-3.0302429,0.9623909-4.1044464l63.7844734-63.7859459
	c1.0937424-1.0961761,2.7216568-1.4609184,4.1845245-0.9345589l0.0576172,0.0209961
	c2.3173599,0.763176,4.7411652,1.1503792,7.2069626,1.1503792c12.6824799,0,22.9997559-10.3177605,22.9997559-22.9997559
	c0-0.123045-0.0009766-0.2465782-0.0029297-0.3696251l-4.683548,4.6835442
	c-0.6455078,0.6459885-1.4902191,1.0483284-2.3905945,1.1474495l-11.0272369,2.9985008
	c-1.3818207,0.3754845-2.8642273-0.0165977-3.8778839-1.0317268l-8.4452209-8.4457092
	c-1.0146408-1.0141487-1.4081879-2.4936256-1.0322189-3.8773994l3.0282898-11.1395302
	c0.1103516-0.8369055,0.4804611-1.6420727,1.1181488-2.279273l4.6835403-4.6830549
	c-0.1230469-0.0019531-0.2470551-0.0029297-0.3701019-0.0029297c-12.6824875,0-22.9997635,10.3177605-22.9997635,22.999754
	c0,2.5102272,0.4003906,4.9765091,1.1913986,7.3304901c0.4902267,1.4374847,0.125,3.0390282-0.9570236,4.121048
	l-63.782032,63.782032c-1.0864143,1.0869064-2.6947975,1.4501801-4.1366768,0.9521408
	c-2.3495827-0.7871017-4.8104935-1.1865082-7.3148632-1.1865082c-12.6819935,0-22.999754,10.3172684-22.999754,22.9997559
	c0,0.1230469,0.0009766,0.2460938,0.0029297,0.3691406l4.6835442-4.683548
	c0.6689377-0.6679611,1.5160971-1.0507736,2.3886461-1.1464767l11.0296679-2.9989929
	c1.3847504-0.3740158,2.863739,0.0175781,3.8773994,1.0322189l8.4457111,8.4452209
	c1.014637,1.0136566,1.4081879,2.4931335,1.0317268,3.8778839l-3.0375633,11.1707916
	c-0.1220703,0.8437347-0.5009727,1.6396179-1.108387,2.2470398L30.631752,151.9971466z M93.4479752,109.9624329
	l35.0064621,38.0210876c5.3573608,5.3534546,14.1219177,5.3534546,19.5105286-0.0322266
	c5.3827667-5.3856964,5.3827667-14.1492767-0.0009766-19.5349579l-38.0581818-34.9097824L93.4479752,109.9624329z
	 M83.7127304,98.9166565l4.3993683,5.0673294l15.7996292-15.7967072l-5.0858765-4.3837433L83.7127304,98.9166565z
	 M16.7451801,26.6381283l4.4145031,0.0009766c1.0629787,0.0004883,2.0820103,0.4233341,2.8324909,1.1762562l42.7099915,42.8564758
	l3.9711533-3.9711456L27.8446712,23.9740944c-0.7519455-0.7504807-1.1747913-1.7695141-1.1747913-2.8320026V16.736866
	L12.8536205,8.456193L8.459136,12.8443298L16.7451801,26.6381283z M137.1496582,141.1495972
	c-1.0234222,0-2.0478363-0.3906097-2.8280945-1.1718597l-23.9997482-23.9997406
	c-1.5624771-1.5615082-1.5624771-4.0946884,0-5.656189c1.5605316-1.5624847,4.095665-1.5624847,5.6561966,0l23.9997406,23.9997406
	c1.5624847,1.5615082,1.5624847,4.0946808,0,5.656189C139.1974945,140.7589874,138.1730804,141.1495972,137.1496582,141.1495972z
	 M68.0009842,96.0006714c-1.0239182,0-2.047348-0.390625-2.8285828-1.1718674c-1.5619965-1.5615005-1.5619965-4.0946808,0-5.656189
	l24.0002289-24.0002289c1.5605316-1.5615082,4.0956573-1.5615082,5.656189,0c1.5624847,1.5624847,1.5624847,4.0946808,0,5.6571655
	L70.829567,94.828804C70.0483246,95.6100464,69.0248947,96.0006714,68.0009842,96.0006714z"/>
</svg>
