<?xml version="1.0" encoding="utf-8"?>
<!-- Generator: Adobe Illustrator 23.0.0, SVG Export Plug-In . SVG Version: 6.00 Build 0)  -->
<svg version="1.1" id="icon-top" xmlns="http://www.w3.org/2000/svg" xmlns:xlink="http://www.w3.org/1999/xlink" x="0px" y="0px"
	 viewBox="0 0 160 160" style="enable-background:new 0 0 160 160;" xml:space="preserve">
<path d="M21.5390625,122.9996796c-1.0400391,0-2.0791016-0.4033203-2.862793-1.2060471
	c-1.5429688-1.5800705-1.5126953-4.1132507,0.0678711-5.6562119l58.4614258-57.0728111
	c1.5546875-1.5165901,4.0356445-1.5165901,5.5883789,0l58.4619141,57.0728111
	c1.5810547,1.5429611,1.6113281,4.0761414,0.0683594,5.6562119c-1.5439453,1.5829926-4.0771484,1.6113129-5.65625,0.0683594
	L80,67.5166931l-55.6669922,54.3452988C23.5546875,122.6217499,22.5463867,122.9996796,21.5390625,122.9996796z M156,45.0002632H4
	c-2.2089844,0-4-1.7910004-4-3.9999695s1.7910156-3.9999695,4-3.9999695h152c2.2089844,0,4,1.7910004,4,3.9999695
	S158.2089844,45.0002632,156,45.0002632z"/>
</svg>
