<?xml version="1.0" encoding="utf-8"?>
<!-- Generator: Adobe Illustrator 23.0.0, SVG Export Plug-In . SVG Version: 6.00 Build 0)  -->
<svg version="1.1" id="icon-trilateral" xmlns="http://www.w3.org/2000/svg" xmlns:xlink="http://www.w3.org/1999/xlink" x="0px"
	 y="0px" viewBox="0 0 160 160" style="enable-background:new 0 0 160 160;" xml:space="preserve">
<path d="M80.2094421,124c-7.1112137,0-14.2204666-2.6737671-19.7713699-8.0281219L4.6990933,62.2165451
	c-4.5491042-4.3873138-5.9170575-10.7214012-3.5697627-16.530983C3.5064061,39.8018188,9.2174406,36,15.67836,36h128.6437683
	c6.4482269,0,12.1543732,3.7915726,14.537796,9.659214c2.3531647,5.7934799,1.0057068,12.1222-3.5180054,16.5173225
	l-55.2873917,53.7231293C94.4977646,121.298912,87.353363,124,80.2094421,124z M15.67836,43.993969
	c-3.8631744,0-6.2173042,2.4200478-7.1322021,4.6844521c-1.1175041,2.766468-0.4794188,5.6768684,1.7072563,7.7856293
	l55.7394676,53.7563095c7.866951,7.5880203,20.6467209,7.5646057,28.4863358-0.0526962l55.287384-53.722641
	c2.1734924-2.1126633,2.8023071-5.0206261,1.6823578-7.778801c-0.9178314-2.2585487-3.2719574-4.6722527-7.1268311-4.6722527
	H15.67836z"/>
</svg>
