<?xml version="1.0" encoding="utf-8"?>
<!-- Generator: Adobe Illustrator 23.0.0, SVG Export Plug-In . SVG Version: 6.00 Build 0)  -->
<svg version="1.1" id="icon-twitter" xmlns="http://www.w3.org/2000/svg" xmlns:xlink="http://www.w3.org/1999/xlink" x="0px"
	 y="0px" viewBox="0 0 160 160" style="enable-background:new 0 0 160 160;" xml:space="preserve">
<path d="M58.4670067,141c-15.538372,0-30.5979748-4.5527954-43.5510826-13.1673889L0,117.913208l17.4729385,2.0874786
	c1.8478699,0.2200623,3.7205791,0.3186722,6.0720596,0.3186722c8.0714016,0,15.8111229-1.9110107,22.8071136-5.5866699
	c-8.5662422-3.4379501-15.4166088-10.7062225-18.3252754-20.0931168l-2.0241814-6.5323105l1.6881161,0.262619
	c-5.7793407-5.9017105-9.3055878-14.0933075-9.3055878-22.9580765v-7.4836617l3.5277081,2.0360909
	c-2.1790638-4.4474297-3.3606491-9.4294472-3.3606491-14.589489c0-5.8010216,1.4285183-11.2745438,4.2461071-16.2679806
	l2.8867474-5.1159229l3.5934601,4.5792618c11.9147186,15.182724,29.1918602,24.9401894,47.967659,27.2472076
	c-0.0297089-0.5792198-0.0448074-1.1522102-0.0448074-1.7194939c0-17.7258911,13.8955536-32.1472206,30.9744644-32.1472206
	c7.7684555,0,15.2865677,3.0523224,20.9626617,8.4438419c4.8627014-1.186985,9.6250916-3.1727333,13.8819122-5.7989464
	L152.0912781,19c0,0-3.0912781,8-5.0912781,11s-4.8992615,7.0355301-6,9c0.3419037-0.1442871,19-9.3160915,19-9.3160915
	l-8.048996,12.1039295c-3.5652161,5.3619347-7.8385925,10.0808144-12.721756,14.0533485
	c0.0058441,0.52005,0.0058441,1.0328369,0.0058441,1.5383568c0,20.3142204-7.5872803,40.8609505-20.8165436,56.3732491
	C107.8174057,126.1821442,88.8107452,141,58.4670067,141z M33.4720612,127.965477
	c7.9384384,2.986412,16.3834076,4.5309982,24.9949455,4.5309982c45.5621223,0,72.7882385-38.193222,72.7882385-75.1169281
	c0-1.1631088,0-2.2613449-0.0730591-3.3144226l-0.1655884-2.3947334l1.8390961-1.3878441
	c1.1630707-0.87817,2.2891388-1.8030548,3.3772125-2.7730942C135.3455048,47.6552925,124,47,124,47
	s9.1976013-8.4061737,10.1239777-9.2028618c-1.8176727,0.5620918-3.6567688,1.0286865-5.5017242,1.3945923l-2.1099014,0.4183235
	l-1.4903717-1.6452751c-4.3240356-4.7733727-10.4637985-7.5106544-16.8461075-7.5106544
	c-12.6789017,0-22.9946289,10.606575-22.9946289,23.643692c0,1.7418137,0.1948166,3.5915794,0.5795898,5.4979172
	l1.0919647,5.4200668l-5.1948776-0.2807846c-20.688446-1.1169205-40.1397858-10.4145432-54.2837296-25.7545242
	c-0.5601082,2.0568504-0.8421116,4.193634-0.8421116,6.3942528c0,7.9071808,3.8155537,15.2574615,10.207119,19.6618156
	l12.1631126,8.3825989l-14.4756279-0.5631332c-2.4445076-0.0954971-4.8787861-0.4966965-7.2375717-1.184906
	c2.2613754,8.4235992,8.9729309,15.1396408,17.5942154,16.945816l17.4899826,3.6652756l-17.2873726,4.6296082
	c-2.1727295,0.5823364-4.3761482,0.9311142-6.5688477,1.0411453c4.1111908,6.2728043,11.0365639,10.2816696,18.7110176,10.4487915
	l11.4490967,0.2491226l-9.1156349,7.3866119C51.7759094,122.2646255,42.9281464,126.3067093,33.4720612,127.965477z"/>
</svg>
