<?xml version="1.0" encoding="utf-8"?>
<!-- Generator: Adobe Illustrator 23.0.0, SVG Export Plug-In . SVG Version: 6.00 Build 0)  -->
<svg version="1.1" id="icon-unlock" xmlns="http://www.w3.org/2000/svg" xmlns:xlink="http://www.w3.org/1999/xlink" x="0px"
	 y="0px" viewBox="0 0 160 160" style="enable-background:new 0 0 160 160;" xml:space="preserve">
<path d="M140.4250183,160H19.5749779c-2.209528,0-4.0009842-1.7914581-4.0009842-4.0009918V69.3375549
	c0-2.2095261,1.7914562-4.0009842,4.0009842-4.0009842h7.0051422c-4.6813278-17.577076,0.3472519-37.0921326,13.3260307-50.0709076
	C59.4905586-4.8642907,92.051796-5.1270509,112.4493866,14.7206059l12.2071075,12.2061272
	c1.5628815,1.5628853,1.5628815,4.0957355,0,5.6586208c-1.5609283,1.5619049-4.0967102,1.5619049-5.6576385,0
	l-12.1680374-12.1680336C89.6332321,3.686641,62.1499062,3.8785827,45.6028671,20.8852081
	c-11.5243225,11.524807-15.6454525,29.0711174-10.6857376,44.4513626h105.5078888
	c2.2095337,0,4.0009918,1.7914581,4.0009918,4.0009842v86.6614532C144.4260101,158.2085419,142.634552,160,140.4250183,160z
	 M23.5759621,151.9980316h112.8480835V73.3385391H23.5759621V151.9980316z M86.0815735,138.2075348h-12.163147
	c-2.2095261,0-4.0009842-1.7914581-4.0009842-4.0009918v-17.1985626c-4.1621552-3.3406677-6.588047-8.1377487-6.588047-13.2083282
	c0-9.3480072,7.3226051-16.6710968,16.6706047-16.6710968s16.6710968,7.3230896,16.6710968,16.6710968
	c0,5.1877975-2.4752197,10.0874405-6.5885391,13.2757263v17.1311646
	C90.0825577,136.4160767,88.2910995,138.2075348,86.0815735,138.2075348z M77.9194107,130.2055664h4.1611786v-15.256691
	c0-1.4358978,0.769722-2.7614212,2.0161209-3.4735107c2.2105026-1.2630005,4.5724182-3.9423752,4.5724182-7.6757126
	c0-4.8615494-3.807579-8.6691284-8.6691284-8.6691284c-4.8610611,0-8.6686401,3.807579-8.6686401,8.6691284
	c0,3.0593414,1.7157593,5.8862152,4.7077026,7.7567902c1.1697235,0.7306442,1.8803482,2.0131912,1.8803482,3.3924332V130.2055664z"
	/>
</svg>
