<?xml version="1.0" encoding="utf-8"?>
<!-- Generator: Adobe Illustrator 23.0.0, SVG Export Plug-In . SVG Version: 6.00 Build 0)  -->
<svg version="1.1" id="icon-upload" xmlns="http://www.w3.org/2000/svg" xmlns:xlink="http://www.w3.org/1999/xlink" x="0px"
	 y="0px" viewBox="0 0 160 160" style="enable-background:new 0 0 160 160;" xml:space="preserve">
<path d="M148.4003906,160H11.6000977c-2.2089844,0-4-1.7910156-4-4v-30.90625c0-2.2089844,1.7910156-4,4-4s4,1.7910156,4,4V152
	h128.800293v-26.90625c0-2.2089844,1.7910156-4,4-4s4,1.7910156,4,4V156C152.4003906,158.2089844,150.609375,160,148.4003906,160z
	 M80,129.09375c-2.2089844,0-4-1.7910156-4-4V13.9101563L43.5620117,46.3486328c-1.5625,1.5615234-4.0947266,1.5615234-5.6572266,0
	c-1.5620117-1.5625-1.5620117-4.0947266,0-5.6572266L77.4248047,1.1713867C78.175293,0.4213867,79.1928711,0,80.253418,0
	c0.0043945,0,0.0087891,0,0.0126953,0c1.065918,0.003418,2.0854492,0.4316406,2.8334961,1.1899414l39.0136719,39.5200195
	c1.5517578,1.5722656,1.5351563,4.1044922-0.0361328,5.6567383c-1.5742188,1.5517578-4.1064453,1.534668-5.6572266-0.0366211
	L84,13.4887695V125.09375C84,127.3027344,82.2089844,129.09375,80,129.09375z"/>
</svg>
