<?xml version="1.0" encoding="utf-8"?>
<!-- Generator: Adobe Illustrator 23.0.0, SVG Export Plug-In . SVG Version: 6.00 Build 0)  -->
<svg version="1.1" id="icon-user" xmlns="http://www.w3.org/2000/svg" xmlns:xlink="http://www.w3.org/1999/xlink" x="0px" y="0px"
	 viewBox="0 0 160 160" style="enable-background:new 0 0 160 160;" xml:space="preserve">
<path d="M131.8574219,160H28.1430664C18.1391602,160,10,152.7529297,10,143.8457031v-6.4824219
	c0-20.3125,18.4179688-35.0556641,43.7939453-35.0556641c5.2099609,0,8.8349609,3.125,12.3413086,6.1474609
	c3.8891602,3.3525391,7.5629883,6.5195313,13.8647461,6.5195313c6.3085938,0,9.9902344-3.1708984,13.8876953-6.5292969
	c3.5039063-3.0175781,7.1259766-6.1376953,12.3183594-6.1376953C131.5820313,102.3076172,150,117.0507813,150,137.3632813v6.4824219
	C150,152.7529297,141.8613281,160,131.8574219,160z M53.7939453,110.3076172C33.0537109,110.3076172,18,121.6865234,18,137.3632813
	v6.4824219C18,148.3417969,22.550293,152,28.1430664,152h103.7143555C137.4501953,152,142,148.3417969,142,143.8457031v-6.4824219
	c0-15.6767578-15.0537109-27.0556641-35.7939453-27.0556641c-2.1142578,0-4.0742188,1.5957031-7.0966797,4.1992188
	c-4.3798828,3.7724609-9.8300781,8.4677734-19.109375,8.4677734c-9.2739258,0-14.7158203-4.6914063-19.0883789-8.4599609
	C57.8862305,111.90625,55.9233398,110.3076172,53.7939453,110.3076172z M80,92.8574219
	c-25.6010742,0-46.4287109-20.8276367-46.4287109-46.4287109S54.3989258,0,80,0
	c25.6005859,0,46.4287109,20.8276367,46.4287109,46.4287109S105.6005859,92.8574219,80,92.8574219z M80,8
	C58.8105469,8,41.5712891,25.2392578,41.5712891,46.4287109S58.8105469,84.8574219,80,84.8574219
	s38.4287109-17.2392578,38.4287109-38.4287109S101.1894531,8,80,8z"/>
</svg>
