<?xml version="1.0" encoding="utf-8"?>
<!-- Generator: Adobe Illustrator 23.0.0, SVG Export Plug-In . SVG Version: 6.00 Build 0)  -->
<svg version="1.1" id="icon-video" xmlns="http://www.w3.org/2000/svg" xmlns:xlink="http://www.w3.org/1999/xlink" x="0px" y="0px"
	 viewBox="0 0 160 160" style="enable-background:new 0 0 160 160;" xml:space="preserve">
<path d="M129.875,160h-99.75C23.9907227,160,19,155.0097656,19,148.875V11.125C19,4.9907227,23.9907227,0,30.125,0h70.6855469
	c2.9824219,0,5.7792969,1.1542969,7.875,3.2495117l29.0664063,29.0952148C139.8154297,34.4086914,141,37.2680664,141,40.1889648
	V148.875C141,155.0097656,136.0097656,160,129.875,160z M30.125,8C28.3725586,8,27,9.3725586,27,11.125v137.75
	c0,1.7519531,1.3725586,3.125,3.125,3.125h99.75c1.7519531,0,3.125-1.3730469,3.125-3.125V55.1347656H96.8808594
	c-6.0742188,0-11.015625-4.9414063-11.015625-11.015625V8H30.125z M93.8652344,8v36.1191406
	c0,1.6625977,1.3525391,3.015625,3.015625,3.015625H133v-6.9458008c0-0.8149414-0.3300781-1.6123047-0.90625-2.1884766
	L103.0273438,8.9052734C102.4443359,8.3217773,101.65625,8,100.8105469,8H93.8652344z M82.375,131.1347656h-33.25
	c-6.1342773,0-11.125-4.9902344-11.125-11.125v-33.25c0-6.1342773,4.9907227-11.125,11.125-11.125h33.25
	c6.1347656,0,11.125,4.9907227,11.125,11.125v1.6435547l9.5087891-9.5053711
	c3.1894531-3.1894531,7.9541016-4.1313477,12.1318359-2.3999023C119.3720703,78.2504883,122,82.1845703,122,86.7646484v33.2382813
	c0,4.5810547-2.6289063,8.515625-6.8613281,10.2685547c-4.1777344,1.7324219-8.9404297,0.7880859-12.1298828-2.4013672
	L93.5,118.3652344v1.6445313C93.5,126.1445313,88.5097656,131.1347656,82.375,131.1347656z M49.125,83.6347656
	c-1.7231445,0-3.125,1.4023438-3.125,3.125v33.25c0,1.7226563,1.4018555,3.125,3.125,3.125h33.25
	c1.7226563,0,3.125-1.4023438,3.125-3.125v-11.2988281c0-1.6181641,0.9746094-3.0761719,2.46875-3.6953125
	c1.4931641-0.6191406,3.2148438-0.2773438,4.359375,0.8662109l16.3369141,16.3310547
	c1.3662109,1.3662109,2.9570313,0.8554688,3.4121094,0.6679688C112.6552734,122.6416016,114,121.8818359,114,120.0029297V86.7646484
	c0-1.8769531-1.3427734-2.6357422-1.9208984-2.875c-0.4550781-0.1884766-2.0488281-0.7001953-3.4140625,0.6650391
	L92.328125,100.8876953c-1.1445313,1.1425781-2.8662109,1.484375-4.359375,0.8662109
	C86.4746094,101.1347656,85.5,99.6767578,85.5,98.0585938V86.7597656c0-1.7226563-1.4023438-3.125-3.125-3.125H49.125z"/>
</svg>
