<?xml version="1.0" encoding="utf-8"?>
<!-- Generator: Adobe Illustrator 23.0.0, SVG Export Plug-In . SVG Version: 6.00 Build 0)  -->
<svg version="1.1" id="icon-wechat" xmlns="http://www.w3.org/2000/svg" xmlns:xlink="http://www.w3.org/1999/xlink" x="0px"
	 y="0px" viewBox="0 0 160 160" style="enable-background:new 0 0 160 160;" xml:space="preserve">
<path d="M147.9335938,145l-22.0146484-11.4880829c-5.0585938,1.197052-10.2705078,2.3286743-15.6181641,2.3286743
	c-20.5947266,0-38.7973633-10.2851791-46.2451172-25.851593c-5.3867188-0.1933212-17.8754883-0.7703629-24.6381836-2.1431503
	l-26.2138672,12.5220566l7.543457-21.6150818C7.1582031,88.8679657,0,76.4210815,0,62.5975075
	c0-12.9834023,6.1435547-25.0797653,17.2983398-34.0600128C28.1420898,19.8076916,42.5244141,15,57.7958984,15
	c27.3828125,0,52.8183594,16.8947773,59.0136719,38.8208351C140.8984375,56.5986328,160,74.381424,160,94.6520309
	c0,10.9608383-6.4287109,21.890419-18.1738281,31.0146866L147.9335938,145z M126.9707031,125.0389023l7.5039063,3.9152756
	l-2.0087891-6.3581772l2.3632813-1.6891327C141.2421875,116.3227692,152,106.8167419,152,94.6520309
	c0-16.9924088-17.4140625-31.8509483-38.8193359-33.1217079l-0.0039063-0.0004883
	c-0.0048828-0.0004883-0.0097656-0.0004883-0.015625-0.0009766l-0.0605469-0.0034142
	c-15.4746094-0.9104767-30.6708984,5.3622742-38.7246094,15.9911346
	c-5.9746094,7.8852386-7.3266602,17.2789841-3.9121094,27.1687241
	c5.4755859,13.8538437,21.4726563,23.1567841,39.8369141,23.1567841c4.9208984,0,10.1542969-1.2487869,15.2158203-2.4565659
	L126.9707031,125.0389023z M57.7958984,22.998497C30.3383789,22.998497,8,40.7627411,8,62.5975075
	c0,12.0338707,6.6416016,22.5572853,19.7412109,31.2792778l2.5810547,1.7184296l-3.237793,9.2775574l11.4541016-5.4726105
	l1.4116211,0.3661423c4.3730469,1.1326065,14.465332,1.7984924,21.4677734,2.1128845
	c-2.1274414-10.4863052,0.1347656-20.683609,6.5810547-29.1922684c8.6796875-11.455368,24.0810547-18.6878967,40.2783203-19.214653
	C101.8193359,36.3324203,80.2436523,22.998497,57.7958984,22.998497z M124.8203125,93.5916824
	c-5.40625,0-9.8037109-4.3966293-9.8037109-9.8008881c0-5.404747,4.3974609-9.8018723,9.8037109-9.8018723
	s9.8037109,4.3971252,9.8037109,9.8018723C134.6240234,89.1950531,130.2265625,93.5916824,124.8203125,93.5916824z
	 M124.8203125,81.9874191c-0.9941406,0-1.8037109,0.8094177-1.8037109,1.8033752
	c0,0.9939499,0.8095703,1.8023911,1.8037109,1.8023911s1.8037109-0.8084412,1.8037109-1.8023911
	C126.6240234,82.7968369,125.8144531,81.9874191,124.8203125,81.9874191z M96.5644531,93.5916824
	c-5.40625,0-9.8037109-4.3966293-9.8037109-9.8008881c0-5.404747,4.3974609-9.8018723,9.8037109-9.8018723
	c5.4052734,0,9.8027344,4.3971252,9.8027344,9.8018723C106.3671875,89.1950531,101.9697266,93.5916824,96.5644531,93.5916824z
	 M96.5644531,81.9874191c-0.9941406,0-1.8037109,0.8094177-1.8037109,1.8033752
	c0,0.9939499,0.8095703,1.8023911,1.8037109,1.8023911s1.8027344-0.8084412,1.8027344-1.8023911
	C98.3671875,82.7968369,97.5585938,81.9874191,96.5644531,81.9874191z M77.0771484,57.3279877
	c-5.6723633,0-10.2871094-4.6138802-10.2871094-10.2846909c0-5.6712952,4.6147461-10.2851753,10.2871094-10.2851753
	c5.671875,0,10.2871094,4.6138802,10.2871094,10.2851753C87.3642578,52.7141075,82.7490234,57.3279877,77.0771484,57.3279877z
	 M77.0771484,44.7566185c-1.2612305,0-2.2871094,1.0256882-2.2871094,2.2866783
	c0,1.2605057,1.0258789,2.2861938,2.2871094,2.2861938s2.2871094-1.0256882,2.2871094-2.2861938
	C79.3642578,45.7823067,78.3383789,44.7566185,77.0771484,44.7566185z M40.0512695,57.3279877
	c-5.6723633,0-10.2871094-4.6138802-10.2871094-10.2846909c0-5.6712952,4.6147461-10.2851753,10.2871094-10.2851753
	s10.2871094,4.6138802,10.2871094,10.2851753C50.3383789,52.7141075,45.7236328,57.3279877,40.0512695,57.3279877z
	 M40.0512695,44.7566185c-1.2612305,0-2.2871094,1.0256882-2.2871094,2.2866783
	c0,1.2605057,1.0258789,2.2861938,2.2871094,2.2861938s2.2871094-1.0256882,2.2871094-2.2861938
	C42.3383789,45.7823067,41.3125,44.7566185,40.0512695,44.7566185z"/>
</svg>
