<?xml version="1.0" encoding="utf-8"?>
<!-- Generator: Adobe Illustrator 23.0.0, SVG Export Plug-In . SVG Version: 6.00 Build 0)  -->
<svg version="1.1" id="icon-weibo" xmlns="http://www.w3.org/2000/svg" xmlns:xlink="http://www.w3.org/1999/xlink" x="0px" y="0px"
	 viewBox="0 0 160 160" style="enable-background:new 0 0 160 160;" xml:space="preserve">
<path d="M67.7718887,145C34.4580154,145,0,128.5226135,0,100.9480057c0-13.8590851,8.4699602-29.8847885,23.8492012-45.1257782
	c21.3753586-21.1690216,45.2372551-29.4594707,55.5061989-19.2812309c3.9241638,3.8849564,5.2201691,9.9467812,3.7815704,17.3397293
	c16.8715591-6.349926,30.1666336-5.3962669,35.8829422,2.6944695v-0.0009766
	c3.1711731,4.4860611,3.468071,10.370636,0.8877716,17.5067291c12.9991608,4.1828232,20.711731,13.19841,20.711731,24.22435
	c0,10.9429245-7.7184296,22.802887-20.6472702,31.7252045C105.9846191,139.6833344,87.4459305,145,67.7718887,145z
	 M67.4539948,40.1661758c-8.8156929,0-23.6372719,7.1409798-37.9739418,21.3399277
	C15.629262,75.2318802,8.0006819,89.239418,8.0006819,100.9480057c0,22.2677078,31.0255928,36.0515976,59.7712059,36.0515976
	c18.0664825,0,34.9907761-4.8137207,47.6559219-13.5534058c10.603447-7.317749,17.190918-16.9520187,17.190918-25.1408997
	c0-11.097229-11.9404678-15.6238251-15.5999603-16.7469254c-1.6798325-0.5010071-3.9993668-1.1934204-5.1479034-3.5758667
	c-1.1602554-2.4088058-0.1953278-4.808342,0.1220856-5.5969543c1.3878098-3.4581833,2.6008072-8.2118378,0.4932022-11.1929398
	v-0.0009766c-3.499321-4.9523926-15.4710464-4.4606705-29.1167374,1.1997681l-1.9913864,0.8257217l-0.2041168-0.1381874
	c-2.8210373,0.594265-4.5560532-0.2675934-5.5649261-1.2109985c-0.9116974-0.8520927-2.2794876-2.7804108-1.1944351-6.1194458
	c1.9503555-6.2117348,1.70327-11.1543617-0.6900024-13.5241089C72.3396606,40.851757,70.1842041,40.1661758,67.4539948,40.1661758z
	 M119.3041153,75.6987076c0,0.0004883,0,0.0004883,0,0.0004883S119.3041153,75.6991959,119.3041153,75.6987076z
	 M60.8577271,135.9849091c-24.0552711,0-43.1560211-11.8462982-44.8446426-28.7592468
	c-0.6738863-6.7493591,1.5850964-13.5065308,6.5332718-19.5419846c8.1579227-9.9497147,22.7563362-16.844101,39.0502052-18.4423294
	c27.4081001-2.6827469,50.3397408,9.7861328,52.1934166,28.3900833l0,0
	c0.672905,6.7571716-1.5899811,13.5211792-6.5445023,19.5605469c-8.158905,9.9458084-22.7529221,16.8367691-39.0404434,18.431572
	C65.7160492,135.8667297,63.2607651,135.9849091,60.8577271,135.9849091z M68.5810394,76.8994446
	c-2.0392303,0-4.1102066,0.0991287-6.2041397,0.3042145c-14.2253342,1.3955765-26.802578,7.209343-33.6434937,15.552536
	c-3.5720806,4.3566589-5.2177296,9.0854111-4.7596817,13.6745071c1.3663273,13.6764603,21.2654839,23.4064407,43.4524384,21.2295685
	c14.2184906-1.3916702,26.7928085-7.202507,33.6342087-15.5417862c3.5764771-4.3615494,5.2260361-9.0971298,4.7679901-13.6940384
	C104.5948563,86.0400391,88.1549759,76.8994446,68.5810394,76.8994446z M59.9074516,127.6016769
	c-2.7624435,0-5.5434418-0.4092026-8.2443542-1.271553l-0.0014648-0.0009766
	c-6.322319-2.0235367-11.1044617-6.2131958-13.4655037-11.7984314c-2.2589836-5.3430405-2.0055428-11.2984161,0.7129517-16.7693939
	c5.379364-10.8071747,19.1461639-16.8099136,31.3439789-13.6666946c6.565506,1.6797714,11.8662491,5.8274384,14.5373764,11.3775177
	c2.5246277,5.2424469,2.5285339,11.2095413,0.0117188,16.7996674
	C80.6016006,121.6843872,70.4054184,127.6016769,59.9074516,127.6016769z M54.1003151,118.7096329
	c9.0481339,2.8897934,19.7629128-1.5567169,23.4009209-9.7094727c1.5357742-3.4122772,1.5626373-6.9798355,0.080574-10.0581131
	c-1.6441803-3.4161835-5.0409546-6.0042038-9.3191528-7.0989838c-8.5432091-2.1993332-18.4932785,2.0528336-22.1898804,9.4809341
	c-1.6627388,3.345871-1.8434181,6.931015-0.50737,10.0913239C47.0040092,114.8178329,50.0350266,117.408783,54.1003151,118.7096329
	L54.1003151,118.7096329z M55.2781525,117.5572281c-1.4888992,0-2.974865-0.2988434-4.3607254-0.9268036
	c-2.5036316-1.1289597-4.2996826-3.162262-5.0521889-5.7229385c-0.776432-2.6417313-0.3052025-5.5696106,1.2930794-8.0326233
	c2.932869-4.5558929,9.0491104-6.5481796,13.9176903-4.5275726l0.0200233,0.0087891
	c2.5475807,1.0752487,4.3997879,3.0675354,5.214798,5.6106339c0.843338,2.6309891,0.4341202,5.5920715-1.1226501,8.1234512
	C62.9916992,115.5620117,59.1256485,117.5572281,55.2781525,117.5572281z M56.9867935,105.5439377
	c-1.1641617,0-2.4474754,0.6465149-3.1091537,1.6748886c-0.3344994,0.5146713-0.4541397,1.03228-0.3364525,1.4326859
	c0.0878983,0.2998199,0.3071556,0.5244446,0.6704674,0.6885147c1.3223763,0.6006165,3.3181534-0.1093826,4.1888313-1.4844513
	c0.3052025-0.4970932,0.4214249-1.041069,0.2910423-1.4473343c-0.0942459-0.2959137-0.321804-0.5166321-0.6948853-0.676796
	C57.6850929,105.6044846,57.3413162,105.5439377,56.9867935,105.5439377z M69.2705536,103.4608231
	c-0.6719284,0-1.348259-0.1377029-1.9904022-0.4248199c-1.2081146-0.5361633-2.1549683-1.5684433-2.5890884-2.8272934
	c-0.4482803-1.3008423-0.3262024-2.7589264,0.3345032-4.0021515c1.304306-2.3692551,4.0418472-3.3585663,6.4121628-2.3682785
	c1.2291107,0.5049057,2.200386,1.5049591,2.670639,2.753067c0.4946747,1.312561,0.4023819,2.7960358-0.2529526,4.0714874
	C72.8958664,102.441246,71.1012802,103.4608231,69.2705536,103.4608231z M68.3862,101.2341537 M68.4418716,101.2566147h0.0102539
	H68.4418716z M154.0639191,75.1596146c-2.2091675,0-4.0003357-1.7789001-4.0003357-3.9879913v-0.6343079l0.1963043-0.6279602
	c3.9573669-12.1617393,1.0567322-25.5950241-7.5709686-35.0578957c-8.6394043-9.4936371-21.8661194-13.7340813-34.521492-11.0689106
	l-0.4072647,0.0859432h-0.4170227c-2.2091751,0-4.0022964-1.7911053-4.0022964-4.0002003
	c0-1.9659176,1.4161377-3.6007652,3.2854385-3.9367189c15.388031-3.2013302,31.4626465,1.9786139,41.9781799,13.5328989
	c10.5341034,11.554285,14.0930023,27.9525623,9.2966919,42.81707
	C157.4128418,73.9417801,155.8795013,75.1596146,154.0639191,75.1596146z M134.4069672,68.8619385
	c-0.4111633,0-0.8291779-0.0634766-1.2413177-0.1977615c-2.0997925-0.6850967-3.247345-2.9425278-2.5627136-5.0432205
	c1.7032623-5.2263336,0.460968-10.9981079-3.2434464-15.0627632c-3.7190628-4.0856514-9.4158401-5.9050751-14.8782196-4.7541428
	c-2.1622925,0.458519-4.2845459-0.9263153-4.7406387-3.0875549s0.9258575-4.283905,3.0881577-4.7399788
	c8.222374-1.7393456,16.8256531,1.0195808,22.4452744,7.1946907c5.6371918,6.1853676,7.5289612,14.9724236,4.9349823,22.9293633
	C137.6591949,67.7891312,136.0916748,68.8619385,134.4069672,68.8619385z"/>
</svg>
