<?xml version="1.0" encoding="utf-8"?>
<!-- Generator: Adobe Illustrator 23.0.0, SVG Export Plug-In . SVG Version: 6.00 Build 0)  -->
<svg version="1.1" id="icon-windows" xmlns="http://www.w3.org/2000/svg" xmlns:xlink="http://www.w3.org/1999/xlink" x="0px"
	 y="0px" viewBox="0 0 160 160" style="enable-background:new 0 0 160 160;" xml:space="preserve">
<path d="M159.9833984,160l-89.8294678-11.4087524V83.7692947H160L159.9833984,160z M78.1538315,141.5958405l73.8316116,9.3776398
	l0.0126953-59.2582169H78.1538315V141.5958405z M62.5641785,147.6261292l-62.552948-7.9440308L0,83.7692947h62.5641785V147.6261292z
	 M8.0101557,132.6866913l46.5541191,5.9129181v-46.884346H8.0018559L8.0101557,132.6866913z M160,76.2307053H70.1539307V11.4092417
	L159.9833984,0L160,76.2307053z M78.1538315,68.2847366h73.8443069l-0.0126953-59.2582207L78.1538315,18.403677V68.2847366z
	 M62.5641785,76.2307053H0l0.0112303-55.9123154l62.552948-7.9450026V76.2307053z M8.0018559,68.2847366h46.5624161V21.3999062
	l-46.5541191,5.91292L8.0018559,68.2847366z"/>
</svg>
