<?xml version="1.0" encoding="utf-8"?>
<!-- Generator: Adobe Illustrator 18.0.0, SVG Export Plug-In . SVG Version: 6.00 Build 0)  -->
<!DOCTYPE svg PUBLIC "-//W3C//DTD SVG 1.1//EN" "http://www.w3.org/Graphics/SVG/1.1/DTD/svg11.dtd">
<svg version="1.1" id="icon-wordpress" xmlns="http://www.w3.org/2000/svg" xmlns:xlink="http://www.w3.org/1999/xlink" x="0px"
	 y="0px" viewBox="0 0 160 160" style="enable-background:new 0 0 160 160;" xml:space="preserve">
<path d="M80,160c-44.1123047,0-80-35.8876953-80-80S35.8876953,0,80,0s80,35.8876953,80,80S124.1123047,160,80,160z M80,8
	C40.2988281,8,8,40.2988281,8,80s32.2988281,72,72,72s72-32.2988281,72-72S119.7011719,8,80,8z M78.8349609,144
	c-3.5058594,0-5.453125-0.0380859-9.378418-0.8457031c-2.1635742-0.4453125-3.5571289-2.5605469-3.1118164-4.7236328
	c0.4448242-2.1650391,2.5581055-3.5566406,4.7241211-3.1123047C74.3964844,136.0029297,75.7504883,136,79.3857422,136H80
	c6.5039063,0,11.0751953-0.6767578,16.3066406-2.4121094c2.0957031-0.6992188,4.3603516,0.4394531,5.0556641,2.5361328
	c0.6962891,2.0966797-0.4394531,4.3603516-2.5361328,5.0556641C92.7128906,143.2089844,87.4345703,144,80,144h-0.6098633
	C79.2006836,144,79.015625,144,78.8349609,144z M61,141c-0.0024414,0-0.0048828,0-0.0073242,0
	c-1.7041016-0.0029297-3.2197266-1.0859375-3.7744141-2.6972656l-31-90
	c-0.4213867-1.222168-0.2255859-2.5727539,0.5253906-3.6254883C27.4941406,43.625,28.7070313,43,30,43h16
	c2.2089844,0,4,1.7910156,4,4s-1.7910156,4-4,4H35.6083984l25.4135742,73.78125l18.753418-53.8139648L72.8100586,51H63
	c-2.2089844,0-4-1.7910156-4-4s1.7910156-4,4-4h28c2.2089844,0,4,1.7910156,4,4s-1.7910156,4-4,4h-9.7167969l24.7919922,71.0703125
	l12.0322266-33.1464844c-0.0556641-0.2363281-0.0908203-0.4814453-0.1025391-0.7324219
	c-0.3847656-8.0205078-2.1025391-22.8027344-9.2802734-31.6904297c-1.0224609-1.2651367-1.7744141-2.7695313-2.1767578-4.3510742
	c-1.2841797-5.0551758-0.6894531-10.1489258,1.6318359-13.9770508c1.8349609-3.0244141,4.609375-5.0493164,8.0244141-5.8549805
	c3.5068359-0.8251953,7.1982422,0.3212891,9.6347656,2.9956055c4.5439453,4.9858398,7.5273438,9.3520508,9.6748047,14.1567383
	c1.9550781,4.3764648,2.1162109,9.2431641,0.4521484,13.7026367l-26.2060547,72.1923828
	C109.1855469,136.9472656,107.6816406,138,106,138c-0.0078125,0-0.0166016,0-0.0253906,0
	c-1.6914063-0.0107422-3.1943359-1.0849609-3.7509766-2.6826172L84.0136719,83.1162109l-19.2363281,55.2001953
	C64.2172852,139.9238281,62.7011719,141,61,141z M118.4638672,40.0556641c-0.1425781,0-0.2841797,0.015625-0.4228516,0.0483398
	c-1.3154297,0.3105469-2.3037109,1.0361328-3.0205078,2.2172852c-1.1806641,1.9462891-1.4560547,4.9570313-0.71875,7.8579102
	c0.1201172,0.4726563,0.34375,0.9208984,0.6464844,1.2958984c4.7958984,5.9379883,7.5429688,13.7460938,9.1103516,21.0537109
	l4.3994141-12.1191406c0.9375-2.5141602,0.8447266-5.2280273-0.2490234-7.6757813
	c-1.7841797-3.9926758-4.3378906-7.7036133-8.2832031-12.0317383
	C119.5498047,40.2885742,119.0058594,40.0556641,118.4638672,40.0556641z M49.8442383,135.8837891
	c-0.6469727,0-1.3027344-0.1572266-1.9101563-0.4882813c-20.6147461-11.2324219-33.4204102-32.7802734-33.4204102-56.2348633
	c0-9.3837891,1.5605469-17.0883789,5.0605469-24.9804688c0.8955078-2.0195313,3.2558594-2.9301758,5.2783203-2.0351563
	c2.0195313,0.8955078,2.9306641,3.2587891,2.0351563,5.2783203c-3.0249023,6.8208008-4.3740234,13.5249023-4.3740234,21.7373047
	c0,20.5239258,11.2070313,39.3803711,29.2475586,49.2094727c1.9399414,1.0576172,2.6557617,3.4863281,1.5991211,5.4267578
	C52.6342773,135.1289063,51.2612305,135.8837891,49.8442383,135.8837891z M118.578125,130.0097656
	c-1.2333984,0-2.4501953-0.5683594-3.2333984-1.640625c-1.3027344-1.7841797-0.9130859-4.2861328,0.8710938-5.5898438
	C129.7138672,112.9208984,136,99.3271484,136,80c0-5.0400391,0-5.6875-0.7783203-9.7333984
	c-0.4179688-2.1694336,1.0029297-4.2661133,3.171875-4.6835938c2.1660156-0.4189453,4.2666016,1.0024414,4.6835938,3.171875
	C143.9716797,73.402832,144,74.5717773,144,80c0,21.796875-7.5449219,37.9033203-23.0654297,49.2402344
	C120.2226563,129.7597656,119.3964844,130.0097656,118.578125,130.0097656z M37.6494141,41.4521484
	c-0.9609375,0-1.9248047-0.3442383-2.6914063-1.0419922c-1.6337891-1.4868164-1.7529297-4.0166016-0.265625-5.6503906
	C46.1821289,22.1362305,61.0024414,16,80,16c12.6962891,0,23.1884766,2.9140625,33.0205078,9.1713867
	c1.8642578,1.1860352,2.4130859,3.6582031,1.2275391,5.5219727c-1.1865234,1.8637695-3.6582031,2.4145508-5.5224609,1.2270508
	C100.1181641,26.4428711,91.2587891,24,80,24c-16.8491211,0-29.3657227,5.1298828-39.3916016,16.1445313
	C39.8193359,41.0117188,38.7363281,41.4521484,37.6494141,41.4521484z"/>
</svg>
