<?xml version="1.0" encoding="utf-8"?>
<!-- Generator: Adobe Illustrator 23.0.0, SVG Export Plug-In . SVG Version: 6.00 Build 0)  -->
<svg version="1.1" id="icon-youtube" xmlns="http://www.w3.org/2000/svg" xmlns:xlink="http://www.w3.org/1999/xlink" x="0px"
	 y="0px" viewBox="0 0 160 160" style="enable-background:new 0 0 160 160;" xml:space="preserve">
<path d="M80,138c-1.9624023,0-48.2070313-0.0380859-60.4370117-3.3710938
	c-7.9526367-2.1611328-14.1826172-8.4042969-16.2553711-16.2919922C0.0375977,105.9248047,0,81.1572266,0,80.1088867
	s0.0375977-25.8149414,3.3081055-38.2294922c2.1103516-8.0297852,8.3398438-14.3564453,16.2573242-16.5087891
	C31.7929688,22.0380859,78.0375977,22,80,22c1.9628906,0,48.2080078,0.0380859,60.4375,3.3710938
	c7.9140625,2.1518555,14.1435547,8.4780273,16.2548828,16.5083008l0,0C159.9628906,54.2939453,160,79.0605469,160,80.1088867
	s-0.0371094,25.815918-3.3076172,38.2299805c-2.0722656,7.8857422-8.3017578,14.1279297-16.2578125,16.2910156
	C128.2070313,137.9619141,81.9628906,138,80,138z M80,30c-13.0722656,0-49.0351563,0.5556641-58.3334961,3.0898438
	c-5.1669922,1.4042969-9.2358398,5.5522461-10.621582,10.8251953C8.0375977,55.3305664,8,79.862793,8,80.1088867
	s0.0375977,24.7788086,3.0444336,36.1928711c1.3686523,5.2080078,5.3383789,9.1728516,10.6191406,10.6074219
	C30.9672852,129.4453125,66.9282227,130,80,130c13.0722656,0,49.0351563-0.5556641,58.3339844-3.0898438
	c5.2841797-1.4365234,9.2539063-5.4013672,10.6220703-10.6064453C151.9628906,104.8876953,152,80.3549805,152,80.1088867
	s-0.0371094-24.7783203-3.0439453-36.1914063c0-0.0009766,0-0.0014648-0.0009766-0.0024414
	c-1.3847656-5.2729492-5.4541016-9.4204102-10.6191406-10.824707C129.0332031,30.5551758,93.0722656,30,80,30z
	 M64.4545898,106.8378906c-0.6918945,0-1.3837891-0.1796875-2.003418-0.5380859
	c-1.2358398-0.7148438-1.996582-2.0341797-1.996582-3.4619141V57.1616211c0-1.4277344,0.7612305-2.7470703,1.996582-3.4624023
	c1.2373047-0.7143555,2.7602539-0.7167969,3.9970703-0.0053711l39.7265625,22.8388672
	c1.2412109,0.7133789,2.0068359,2.0361328,2.0068359,3.4677734c0,1.4321289-0.765625,2.7543945-2.0068359,3.4682617
	l-39.7265625,22.8369141C65.8310547,106.6601563,65.1425781,106.8378906,64.4545898,106.8378906z M68.4545898,64.0751953v31.8496094
	L96.15625,80.0004883L68.4545898,64.0751953z"/>
</svg>
