<?xml version="1.0" encoding="utf-8"?>
<!-- Generator: Adobe Illustrator 23.0.0, SVG Export Plug-In . SVG Version: 6.00 Build 0)  -->
<svg version="1.1" id="icon-zcool" xmlns="http://www.w3.org/2000/svg" xmlns:xlink="http://www.w3.org/1999/xlink" x="0px" y="0px"
	 viewBox="0 0 160 160" style="enable-background:new 0 0 160 160;" xml:space="preserve">
<path d="M64.1263046,160c-17.2584839,0-33.4017525-6.818161-45.4552498-19.1976624C6.6307416,128.4355164,0,111.869606,0,94.1552963
	c0-34.3217278,24.2969303-59.5216599,63.4129333-65.7812347C81.2837143,24.7413559,93.0403366,16.275301,98.3576279,3.210263
	l0.1298752-0.2871008c1.1054535-2.2001295,3.7304077-3.3626921,6.2420807-2.76896
	c1.9657822,0.4658064,3.3612671,1.9516017,3.6600876,3.810921c1.6454849,6.0999146,2.4452744,11.718399,2.4452744,17.1659889
	c0,4.2298546-0.6855392,8.6345062-2.0839462,13.3296795c15.1686707-4.0570087,28.876442-12.5440578,39.9738998-24.8137093
	l0.1416016-0.148922c1.5185242-1.5136261,3.6278534-1.9686909,5.5037994-1.1899052
	c1.9316101,0.801733,3.2294312,2.800209,3.2294312,4.9729948v4.2816105c0,17.9599094-4.7879944,35.6615295-13.6140137,50.7553177
	c3.1630402-0.6264496,6.2293854-1.4296417,9.0330505-2.5946503l0.7372894-0.3061447h0.7978363
	c2.3788605,0,4.3368378,1.1620789,5.1092834,3.032135c0.5429535,1.3124619,0.4189301,2.7479706-0.2958984,3.9661942
	c-5.4393463,16.6557465-17.670578,30.1446075-33.055069,36.5584717C119.8181839,138.6734924,94.0100479,160,64.1263046,160z
	 M102.2052155,13.224123c-7.330925,11.753067-19.8355865,19.4769573-37.2859573,23.0066357l-0.1640625,0.0297852
	C29.7470303,41.835083,7.9998579,64.0189896,7.9998579,94.1552963c0,32.4365234,24.6538582,57.8449478,56.1264458,57.8449478
	c26.7568436,0,49.7876892-19.629303,54.7612305-46.6753616l0.4121017-2.2421265l2.1396103-0.7880554
	c12.4079819-4.5672531,22.6509628-14.4741821,28.2885666-27.0846405c-4.5223846,1.1767197-9.1834412,1.8402786-13.4587555,2.4486542
	l-9.341629,1.33004l5.5399475-7.638443c10.5398407-14.5313034,16.5621948-32.5844727,17.0944214-51.1044235
	c-13.0896149,12.4693546-28.9731216,20.5877628-46.3341446,23.6164799l-7.1942062,1.2548447l2.8163605-6.7375908
	c2.6815872-6.4172878,3.9852753-12.0592098,3.9852753-17.2485065
	C102.835083,18.5691776,102.6270828,15.948163,102.2052155,13.224123z M71.5514603,119.5685959
	c-9.7532425,0-19.5719147-7.7800446-21.644146-10.2887573c-1.7245789-2.086853-1.1205826-3.9901123-0.7807465-4.7117691
	l1.0810356-2.2958298l2.3446846-0.0332031c4.1737556-0.5566254,25.5151711-6.3894577,42.5094948-14.2280884l8.7049255-4.0155106
	l-3.2694702,9.0114517c-5.0829163,14.0103226-13.9089355,23.2659073-24.8535614,26.0626984h0.0004883
	C74.2960434,119.414299,72.9235077,119.5685959,71.5514603,119.5685959z M61.7200928,108.3326035
	c3.6473999,2.0888062,8.3177261,3.9119949,11.9426575,2.9872131h0.0004883
	c5.701561-1.457962,10.8489304-5.6248322,14.8312836-11.8346024
	C78.7202835,103.3268967,68.7385254,106.4566803,61.7200928,108.3326035z M29.7665596,116.4192734
	c-1.1913834,0-2.3998585-0.1376877-3.5961266-0.4179535l-0.0546856-0.0136719
	c-6.8621826-1.7108841-14.0827579-12.1920166-15.452363-22.4309692L9.2903624,83.2903824l7.916852,6.6785126
	c7.5150032,6.339653,15.2326393,10.5524216,22.3174744,12.182251l3.7445602,0.8622818l-0.710434,3.7752762
	c-0.5703049,3.0311584-2.3588448,5.660965-5.0360451,7.4040756
	C35.2728119,115.6575775,32.5653381,116.4192734,29.7665596,116.4192734z M28.0283108,108.2202988
	c1.2597427,0.2890549,2.5805206,0.2470627,3.7201481-0.0917892c-2.7582512-1.0409851-5.5321274-2.3641891-8.3128395-3.9647293
	C25.1157646,106.4225006,26.8574333,107.91465,28.0283108,108.2202988z"/>
</svg>
