<?xml version="1.0" encoding="utf-8"?>
<!-- Generator: Adobe Illustrator 17.1.0, SVG Export Plug-In . SVG Version: 6.00 Build 0)  -->
<!DOCTYPE svg PUBLIC "-//W3C//DTD SVG 1.1//EN" "http://www.w3.org/Graphics/SVG/1.1/DTD/svg11.dtd">
<svg version="1.1" id="Layer_1" xmlns="http://www.w3.org/2000/svg" xmlns:xlink="http://www.w3.org/1999/xlink" x="0px" y="0px"
	 viewBox="0 0 60 60" enable-background="new 0 0 60 60" xml:space="preserve">
<g>
	<path fill="none" stroke="#000000" stroke-width="2" stroke-linecap="round" stroke-linejoin="round" stroke-miterlimit="10" d="
		M31.7,40.3c-0.8,0.1-1.6,0.2-2.5,0.2c-1.5,0-3.8-0.3-5.1-0.6c-0.9-0.2-2,2.4-4.4,1.9c0,0,2.2-2.8,0.6-3.7C17,36,15,32.8,15,29.3
		c0-6.1,6.4-11.1,14.2-11.1s14.2,5,14.2,11.1"/>
	<path fill="none" stroke="#000000" stroke-width="2" stroke-linecap="round" stroke-linejoin="round" stroke-miterlimit="10" d="
		M26,33.5c0,4.1,4.3,7.4,9.5,7.4c1,0,2.5-0.2,3.4-0.4c0.6-0.1,1.4,1.6,3,1.3c0,0-1.5-1.9-0.4-2.5c2.2-1.3,3.5-3.4,3.5-5.8
		c0-4.1-4.3-7.4-9.5-7.4S26,29.4,26,33.5z"/>
</g>
</svg>
