<?xml version="1.0" encoding="utf-8"?>
<!-- Generator: Adobe Illustrator 17.1.0, SVG Export Plug-In . SVG Version: 6.00 Build 0)  -->
<!DOCTYPE svg PUBLIC "-//W3C//DTD SVG 1.1//EN" "http://www.w3.org/Graphics/SVG/1.1/DTD/svg11.dtd">
<svg version="1.1" id="Layer_1" xmlns="http://www.w3.org/2000/svg" xmlns:xlink="http://www.w3.org/1999/xlink" x="0px" y="0px"
	 viewBox="0 0 60 60" enable-background="new 0 0 60 60" xml:space="preserve">
<g>
	<g>
		<path fill="none" stroke="#000000" stroke-width="2" stroke-linecap="round" stroke-linejoin="round" stroke-miterlimit="10" d="
			M20.8,31.7c0,0-4.2,4.2-4.2,4.2c-2,2.1-2,5.4,0,7.5c2.1,2.1,5.4,2.1,7.5,0c0,0,4.2-4.2,4.2-4.2"/>
		<path fill="none" stroke="#000000" stroke-width="2" stroke-linecap="round" stroke-linejoin="round" stroke-miterlimit="10" d="
			M27.6,29.2c-1.9-0.7-4-0.3-5.5,1.2c0,0-1.8,1.8-1.9,1.9"/>
		<path fill="none" stroke="#000000" stroke-width="2" stroke-linecap="round" stroke-linejoin="round" stroke-miterlimit="10" d="
			M27.7,39.8c0,0,1.8-1.8,1.9-1.9c1.5-1.5,1.9-3.6,1.2-5.5"/>
		<path fill="none" stroke="#000000" stroke-width="2" stroke-linecap="round" stroke-linejoin="round" stroke-miterlimit="10" d="
			M39.2,28.3c0,0,4.2-4.2,4.2-4.2c2-2.1,2-5.4,0-7.5c-2.1-2.1-5.4-2.1-7.5,0c0,0-4.2,4.2-4.2,4.2"/>
		<path fill="none" stroke="#000000" stroke-width="2" stroke-linecap="round" stroke-linejoin="round" stroke-miterlimit="10" d="
			M32.4,30.8c1.9,0.7,4,0.3,5.5-1.2c0,0,1.8-1.8,1.9-1.9"/>
		<path fill="none" stroke="#000000" stroke-width="2" stroke-linecap="round" stroke-linejoin="round" stroke-miterlimit="10" d="
			M32.3,20.2c0,0-1.8,1.8-1.9,1.9c-1.5,1.5-1.9,3.6-1.2,5.5"/>
	</g>
	
		<line fill="none" stroke="#000000" stroke-width="2" stroke-linecap="round" stroke-linejoin="round" stroke-miterlimit="10" x1="24.8" y1="35.2" x2="35.2" y2="24.8"/>
</g>
</svg>
